<svg xmlns="http://www.w3.org/2000/svg" width="177" height="119" viewBox="0 0 177 119"><defs><style>.a{fill:#2f2e41;}.b{fill:#9f616a;}.c{fill:#f2f2f2;}.d{opacity:0.1;}.e{fill:#ffb8b8;}.f{fill:#00afff;}.g{fill:#575a88;}.h{fill:#8985a8;}.i{fill:none;stroke:#2f2e41;stroke-miterlimit:10;}.j{opacity:0.2;}.k{fill:#381e1d;}.l{fill:#fda57d;}.m{fill:#333;}.n{fill:#e0e0e0;}.o{fill:#f8af40;}</style></defs><path class="a" d="M754.8,166.115s.415.476-.3,1.4-.137,2.92,1.215,2.971,2.008.617,1.682,1.363-.718,2.519.755,2.249,1.938.317,1.677.767.657-.9.657-.9.821,1.223,1.828.367,1.408-8.613-.646-8.745A52.329,52.329,0,0,0,754.8,166.115Z" transform="translate(-635.511 -161.995)"/><path class="b" d="M661.864,206.6l.468,3.275h2.106l-.7-3.743Z" transform="translate(-532.187 -165.602)"/><path class="c" d="M800.274,362.441s2.807,2.573,2.106,2.807-3.275,3.041-3.743,3.275c-.419.209-4.913,1.638-4.211,0a6.154,6.154,0,0,1,2.34-2.573l.468-2.807Z" transform="translate(-667.793 -320.158)"/><path class="d" d="M800.274,362.441s2.807,2.573,2.106,2.807-3.275,3.041-3.743,3.275c-.419.209-4.913,1.638-4.211,0a6.154,6.154,0,0,1,2.34-2.573l.468-2.807Z" transform="translate(-667.793 -320.158)"/><path class="b" d="M676.138,194.109l.468,3.275h2.106l-.7-3.743Z" transform="translate(-543.664 -155.568)"/><path class="e" d="M779.734,232.194l3.066-10.139s-5.147-4.679-1.638-6.083,4.445,5.615,4.445,5.615l-1.17,12.166h-4.679Z" transform="translate(-656.033 -202.334)"/><path class="f" d="M794.8,261.336s-6.047,7.755-5.129,8.908,2.555,8.171,2.555,8.171-.234,2.807.7,2.807,3.275-.468,3.275-1.17-2.106-9.592-2.106-9.592l6.083-7.954Z" transform="translate(-663.965 -238.933)"/><path class="f" d="M805.487,250.338l6.083-3.275s4.211,2.106,3.041,3.977-6.551,6.785-6.551,6.785,1.638,7.954,1.4,8.188-2.807,1.17-3.509.936-4.445-9.358-3.509-9.826,3.977-5.381,3.977-5.381Z" transform="translate(-674.196 -227.466)"/><path class="a" d="M714.94,697.384a42.057,42.057,0,0,0,4.679,2.573c.468,0,6.785,1.638,3.977,2.807s-13.569-.468-13.335-1.17,0-4.913.468-4.913S714.94,697.384,714.94,697.384Z" transform="translate(-600.189 -588.682)"/><path class="a" d="M738.729,714.036a42.052,42.052,0,0,0,4.679,2.574c.468,0,6.785,1.638,3.977,2.807s-13.569-.468-13.335-1.17,0-4.913.468-4.913S738.729,714.036,738.729,714.036Z" transform="translate(-619.319 -602.059)"/><path class="g" d="M715.452,453.269a33.376,33.376,0,0,0,1.872,6.083c1.17,2.573-.234,14.739-.936,16.611s-7.486,24.1-5.381,24.331a53.349,53.349,0,0,0,6.317,0L724.108,479l-1.17-28.542Z" transform="translate(-600.466 -390.89)"/><path class="d" d="M715.452,453.269a33.376,33.376,0,0,0,1.872,6.083c1.17,2.573-.234,14.739-.936,16.611s-7.486,24.1-5.381,24.331a53.349,53.349,0,0,0,6.317,0L724.108,479l-1.17-28.542Z" transform="translate(-600.466 -390.89)"/><path class="g" d="M728.734,450.442s.936,6.317,3.041,7.72,1.4,2.807,1.4,2.807l-.936,12.4s-9.124,22.46-6.317,25.267,5.381,1.638,6.551,1.4,3.275-5.147,2.106-6.551,2.34-9.826,3.275-11.23,0-3.275,1.17-3.743,3.743-3.509,3.743-5.615,3.275-24.565,1.17-25.969-15.6,2.9-15.6,2.9Z" transform="translate(-612.374 -387.829)"/><circle class="e" cx="5.147" cy="5.147" r="5.147" transform="translate(106.819 19.597)"/><circle class="b" cx="4.211" cy="4.211" r="4.211" transform="translate(119.407 1.824)"/><path class="e" d="M720.3,273.231s2.807,5.147,4.211,5.147-5.615,5.381-5.615,5.381-2.34-6.785-2.807-7.019S720.3,273.231,720.3,273.231Z" transform="translate(-604.838 -248.488)"/><path class="h" d="M711.7,291.287s-6.083,2.106-5.849,2.807-1.638,2.34-1.638,3.041-.468,7.019,2.34,12.166,7.253,8.89,5.147,11.23-5.381,6.317-1.872,6.317,9.124-5.147,14.271-3.275,3.977-5.147,3.977-5.147.7-5.381-.7-7.019-6.317-13.335-6.317-14.739-4.679-6.785-5.849-6.785S711.7,291.287,711.7,291.287Z" transform="translate(-595.332 -261.87)"/><path class="i" d="M779.265,191.157" transform="translate(-655.64 -182.549)"/><path class="b" d="M785.213,180.646a39.972,39.972,0,0,1,2.005,4.268c.1.645,3.376-4.268,3.376-4.268l-3.743-2.573Z" transform="translate(-660.437 -172.038)"/><path class="c" d="M786.658,188.231l3.977-4.211,4.679,2.106s4.364,9.592,4.638,10.294-6.978,3.977-7.68,3.977-5.615-7.253-5.615-7.253S785.488,189.635,786.658,188.231Z" transform="translate(-661.207 -176.815)"/><path class="b" d="M630.938,86.589V90.8h2.807l-.923-4.211Z" transform="translate(-507.32 -69.559)"/><path class="b" d="M780.336,250.035a1.745,1.745,0,0,0-1.648,1.108c-.183.495-.121,1.014.748,1.232,1.872.468,2.106,0,2.106,0s3.249-.468,2.56-1.4-2.56-.936-2.56-.936Z" transform="translate(-655.124 -229.846)"/><path class="c" d="M814.548,352.925s2.807,2.573,2.106,2.807-3.275,3.041-3.743,3.275c-.419.209-4.913,1.638-4.211,0a6.153,6.153,0,0,1,2.34-2.573l.468-2.807Z" transform="translate(-679.271 -312.513)"/><path class="a" d="M685.214,246.84c.322-.189.7-.424.711-.8a.705.705,0,0,0-.463-.62,2.071,2.071,0,0,0-.808-.109,1.052,1.052,0,0,0-.313.031c-.266.082-.42.353-.63.536a2.632,2.632,0,0,1-1.117.447,7.309,7.309,0,0,0-1.871.776.878.878,0,0,0-.3.244,1.2,1.2,0,0,0-.119.606,6.062,6.062,0,0,1-.884,2.2,2.4,2.4,0,0,0-.172,2.276,7.748,7.748,0,0,1,.463.657c.3.616-.073,1.374.14,2.023a1.768,1.768,0,0,0,.448.672,3.559,3.559,0,0,0,1.474.893c.532.164,1.191.273,1.4.789a4.194,4.194,0,0,0,.2.685,1.085,1.085,0,0,0,.769.386,3.285,3.285,0,0,0,1,.072,1.236,1.236,0,0,0,.859-.46,2.512,2.512,0,0,1,.348-.513c.339-.283.853-.059,1.288-.135a.942.942,0,0,0,.738-.693,1.31,1.31,0,0,1,.15-.53c.27-.346.981-.1,1.159-.5.116-.26-.127-.536-.361-.7a10.268,10.268,0,0,1-1.153-.782,1.342,1.342,0,0,1-.489-1.236c.161-.678,1.047-1.052,1.076-1.748a1.252,1.252,0,0,0-.591-.987,9.118,9.118,0,0,1-.98-.686c-.21-.2-.368-.458-.6-.64a2.8,2.8,0,0,0-1.5-.424c-.282-.029-1.405-.159-1.361-.588C683.762,247.623,684.928,247.008,685.214,246.84Z" transform="translate(-575.071 -226.058)"/><path class="c" d="M776.147,204.241s-2.573.936-2.573,2.106-1.17,4.913,0,4.913a14.312,14.312,0,0,0,3.509-.9Z" transform="translate(-650.657 -193.06)"/><path class="e" d="M777.988,214.4s6.785-2.34,7.019-2.34,3.509-1.872,3.275-2.574l-.936-5.849s-3.743-7.72-1.17-7.72S790.153,202,790.153,202s5.615,10.528,2.573,12.867-15.675,6.551-16.377,5.849S777.988,214.4,777.988,214.4Z" transform="translate(-653.242 -186.37)"/><path class="b" d="M806.04,202l1.579,1.522-2.047,1.987s-2.807-1.17-2.573-.468,1.638,2.807,2.573,2.807,5.806-3.041,5.828-3.977-3.02-4.211-3.722-4.445S806.04,202,806.04,202Z" transform="translate(-674.736 -189.181)"/><path class="c" d="M803.421,192.333s3.437,3.035,3.905,3.035,1.319-4.559,1.319-4.559-2.773-1.807-3.8-1.314S803.421,192.333,803.421,192.333Z" transform="translate(-675.078 -181.145)"/><path class="h" d="M742.392,290.78s0-3.275,7.019-3.275h3.041l-1.4,7.72-4.679,1.4Z" transform="translate(-626.018 -259.955)"/><path class="a" d="M768.591,151.717a18.163,18.163,0,0,1-2.058-.127,5.743,5.743,0,0,0-1.959-2.79,7.411,7.411,0,0,0-1.968-1.08c-1.559-.662-4.154-.249-4.305.5-3.067,1.466-2.292,4.04-2.292,4.04.477,1.007,1.546.561,2.453.1a1.792,1.792,0,0,0,1.562,1.38c1.5.056,2.224.684,1.863,1.51s-.8,2.79.836,2.492,2.147.351,1.858.85.727-.993.727-.993.909,1.354,2.025.406a.846.846,0,0,0,.232-.4,1.677,1.677,0,0,0,1.163.2c1.336-.6.506-2,.506-2s1.784-.274,1.209-.228-.939-.7.034-2.043S769.493,151.748,768.591,151.717Z" transform="translate(-636.912 -147.389)"/><rect class="f" width="0.702" height="2.106" transform="matrix(0.949, 0.316, -0.316, 0.949, 121.992, 3.046)"/><path class="a" d="M327.505,254.986s-.279.931,1.3,1.769,2.048,4,.186,4.933-2.42,2.141-1.489,2.979,2.606,3.072.372,3.63-2.513,1.676-1.862,2.141-1.489-.838-1.489-.838-.372,2.234-2.327,1.675-7.447-11.17-4.654-12.659S327.505,254.986,327.505,254.986Z" transform="translate(-283.775 -233.831)"/><path class="b" d="M168.232,508.814l.605,5.648-2.622,1.614-2.421-.4,1.21-6.859Z" transform="translate(-131.704 -408.776)"/><circle class="b" cx="5.648" cy="5.648" r="5.648" transform="translate(32.889 20.993)"/><path class="b" d="M330.379,295.354s.5,8.573,1.109,8.573-7.06-.4-7.06-.4,3.228-5.648,1.614-7.464S330.379,295.354,330.379,295.354Z" transform="translate(-289.929 -265.992)"/><path class="a" d="M163.794,379.587l2.622,10.086L164.4,406.82l4.64-.4,1.815-26.829Z" transform="translate(-131.706 -304.967)"/><path class="j" d="M163.794,379.587l2.622,10.086L164.4,406.82l4.64-.4,1.815-26.829Z" transform="translate(-131.706 -304.967)"/><path class="a" d="M311.121,677.6s.2-1.21,2.219,0,10.49,5.043,6.052,5.85-13.516-1.009-13.516-1.614-.2-4.438.605-4.035S309.91,680.823,311.121,677.6Z" transform="translate(-274.999 -572.917)"/><path class="b" d="M292.112,664.374s-3.228,5.043-3.429,6.455-3.228-3.228-3.228-3.228l2.824-5.245Z" transform="translate(-258.484 -561.108)"/><path class="a" d="M308.551,529.43l-3.631,12.1s-6.455,17.147-6.859,16.945-5.245-1.412-5.447-2.017,6.052-16.945,6.052-16.945l.807-10.49Z" transform="translate(-264.35 -454.003)"/><path class="a" d="M272.228,684.895a2.648,2.648,0,0,1,2.622,1.614,4.11,4.11,0,0,0,2.017,2.219c.2.2-.605,4.438,0,4.841s1.21,4.64-.807,4.64-5.245-2.219-5.043-2.622a9.007,9.007,0,0,0-.4-4.438c-.605-1.21-1.614-3.228,0-4.438S272.228,684.895,272.228,684.895Z" transform="translate(-245.862 -579.208)"/><path class="f" d="M274.5,418.18l.4,3.631a17.635,17.635,0,0,1,4.035,6.657c1.009,3.631,9.279,9.683,6.859,10.49s-5.245,1.21-12.305,0-18.155,1.412-18.155-5.245c0,0-1.412-1.816-2.421.807a52.722,52.722,0,0,1-2.421,5.245s-2.421-4.236-1.614-6.052,0-1.614,1.009-3.631,6.052-9.481,8.069-9.885,5.85-5.648,5.648-6.253S274.5,418.18,274.5,418.18Z" transform="translate(-228.975 -361.496)"/><path class="g" d="M306.043,320.827s8.271,1.815,8.674,3.026a12.257,12.257,0,0,0,2.165,2.9,11.338,11.338,0,0,1,2.847,5.777c.21,1.287-.674,2.444-1.078,3.926-1.21,4.438-2.118,3.328-.908,6.556s-6.052,4.438-8.876,3.026-5.951-9.784-5.951-10.792-2.723-12.406-.5-13.213S306.043,320.827,306.043,320.827Z" transform="translate(-271.534 -286.728)"/><path class="b" d="M364.763,370.056l2.421,10.691,7.968,3.53s6.052-1.412,6.253.807c.132,1.449-6.859,2.017-6.859,2.017l-11.6-4.539-2.622-9.885Z" transform="translate(-318.808 -326.277)"/><path class="g" d="M357.819,349.544s5.043,3.026,3.833,4.64-4.236,4.236-5.043,4.236-1.412-4.841-1.412-6.253S357.819,349.544,357.819,349.544Z" transform="translate(-314.669 -309.797)"/><path class="a" d="M306.72,245.588s-.309,1.031,1.444,1.959,2.269,4.434.206,5.465-2.681,2.372-1.65,3.3,2.887,3.4.412,4.022-2.784,1.856-2.062,2.372-1.65-.928-1.65-.928-.412,2.475-2.578,1.856-4.326-11.865-1.912-14.762C301.175,246.178,306.72,245.588,306.72,245.588Z" transform="translate(-268.575 -226.281)"/><path class="a" d="M286.285,237.315c0-1.511-4.52-.425-6.458,1.684-1.342,1.461-3.38,3.658-1.672,5.207s-2.928,3.58-4.171,4.2-3.7,2.5-1.482,3.761,2.181,2.538,1.347,2.84,1.839-.449,1.839-.449-.27,2.494,1.982,2.482,8.713-12.389,7.17-15.829C283.4,238.009,286.285,237.315,286.285,237.315Z" transform="translate(-247.361 -219.063)"/><path class="a" d="M321.779,238.424c6.044-.364,6.651,4.186,6.651,4.186-.042,2.633-4.223,1.35-5.384,1.742-1.4-1.008-4.1-2.915-6.033-4.276A9.134,9.134,0,0,1,321.779,238.424Z" transform="translate(-283.97 -220.508)"/><rect class="k" width="1.933" height="45.099" transform="translate(82.732 70.627)"/><path class="k" d="M570.579,500.474s3.286-4.123,5.992,1.224c0,0-1.289,2.384-1.675,1.224s-1.312-2.893-2.4-1.866" transform="translate(-487.855 -429.831)"/><path class="l" d="M557.823,466.623s4.862,4.786,2.468,8.828a.956.956,0,0,1-1.5.191c-.825-.816-2.13-2.844-3.733-7.86Z" transform="translate(-475.378 -403.856)"/><path class="d" d="M536.765,338.469s5.025,1.546,4.059,7.6a45.88,45.88,0,0,0-.58,10.308l1.289,7.731-2.319,3.157s-3.995-3.995-5.347-8.053S532.641,339.113,536.765,338.469Z" transform="translate(-457.72 -300.902)"/><path class="f" d="M536.437,338.141s5.025,1.546,4.059,7.6a45.88,45.88,0,0,0-.58,10.308l1.289,7.731-2.319,3.157s-3.994-3.994-5.347-8.053S532.314,338.786,536.437,338.141Z" transform="translate(-457.457 -300.639)"/><path d="M518.091,688.417l-.824,6.169s2.115.866,2.748.67,1.745.6,1.745.6,4.726,1.493,5.654.151-1.177-1.752-2.885-2.763-2.43-4.914-2.43-4.914Z" transform="translate(-444.995 -581.973)"/><path class="m" d="M520.1,467.364v22.807l-4.381,21.776H511.08l.709-20.874s-4.832-16.88-2.706-23.194Z" transform="translate(-437.981 -404.469)"/><path class="l" d="M542.883,481.994s6.755.956,7.234,5.63a.956.956,0,0,1-1.089,1.043c-1.149-.165-3.4-1.019-7.676-4.1Z" transform="translate(-464.359 -416.204)"/><path class="l" d="M525.078,321.322a8.372,8.372,0,0,0-.644,5.09s-6.475-.548-6.282-4.284c0,0,3.157-.773,3.9-3.64Z" transform="translate(-445.697 -284.847)"/><path d="M495.162,695.3l-.824,6.169s2.115.866,2.748.67,1.745.6,1.745.6,4.726,1.493,5.654.151-1.177-1.752-2.885-2.763-2.43-4.914-2.43-4.914Z" transform="translate(-426.557 -587.499)"/><path class="d" d="M495.369,476.372v22.807l-4.381,21.776h-4.639l.709-20.874s-4.832-16.88-2.706-23.194Z" transform="translate(-418.094 -411.705)"/><path class="m" d="M494.386,476.372v22.807L490,520.956h-4.639l.709-20.874s-4.832-16.88-2.706-23.194Z" transform="translate(-417.304 -411.705)"/><path class="d" d="M494.695,337.053s-4.059-2.642-6.765,5.219-1.611,22.356-1.611,22.356,11.532,3.737,15.656-1.482v-7.8s2.191-8.891-.9-16.622C501.073,338.729,498.367,339.824,494.695,337.053Z" transform="translate(-419.943 -299.422)"/><path class="d" d="M494.039,338.036s-4.059-2.641-6.765,5.219-1.611,22.356-1.611,22.356,11.532,3.737,15.656-1.482v-7.8s2.19-8.891-.9-16.622C500.418,339.711,497.712,340.806,494.039,338.036Z" transform="translate(-419.417 -300.212)"/><path class="f" d="M494.039,337.053s-4.059-2.642-6.765,5.219-1.611,22.356-1.611,22.356,11.532,3.737,15.656-1.482v-7.8s2.19-8.891-.9-16.622C500.418,338.729,497.712,339.824,494.039,337.053Z" transform="translate(-419.417 -299.422)"/><path class="d" d="M493.2,358.778s5.025,1.546,4.059,7.6a45.877,45.877,0,0,0-.58,10.308l6.443,6.507-2.319,3.157s-9.149-2.77-10.5-6.829S489.076,359.422,493.2,358.778Z" transform="translate(-422.698 -317.218)"/><path class="d" d="M491.561,359.76s5.025,1.546,4.059,7.6a45.875,45.875,0,0,0-.58,10.308l6.443,6.507-2.319,3.157s-9.149-2.77-10.5-6.829S487.438,360.4,491.561,359.76Z" transform="translate(-421.381 -318.008)"/><path class="f" d="M492.216,358.778s5.025,1.546,4.059,7.6a45.877,45.877,0,0,0-.58,10.308l6.443,6.507-2.319,3.157s-9.149-2.77-10.5-6.829S488.093,359.422,492.216,358.778Z" transform="translate(-421.908 -317.218)"/><path class="d" d="M531.443,319.634l3.028,2.835a3.022,3.022,0,0,0-.135.275,4.572,4.572,0,0,1-4.375-1.048A4.777,4.777,0,0,0,531.443,319.634Z" transform="translate(-455.192 -285.767)"/><circle class="n" cx="5.219" cy="5.219" r="5.219" transform="translate(71.807 24.076)"/><circle class="l" cx="5.219" cy="5.219" r="5.219" transform="translate(72.673 26.491)"/><path class="n" d="M517.594,296.377s-1.954,5.117,2.18,6.682h0a2.445,2.445,0,0,0,.61-3.914Z" transform="translate(-444.876 -267.083)"/><path class="n" d="M527.046,279.707s1.8.437-1.355,1.532a3.994,3.994,0,0,0-2.366,2.134,2.455,2.455,0,0,1-3.4,1.121l-1-.549-1.74-4.059,2.062-2.384,3.543-.451Z" transform="translate(-444.93 -251.558)"/><ellipse class="l" cx="0.515" cy="0.902" rx="0.515" ry="0.902" transform="translate(75.994 32.515)"/><path class="m" d="M529.8,338.8s3.511,5.509,5.508,5.509-1.4-5.165-1.4-5.165l-.081,1.428Z" transform="translate(-455.063 -301.162)"/><path class="o" d="M259.2,469.787a191,191,0,0,1-35.984-3.552c-33.145-6.364-51.056-18.709-52.036-19.239l-2.955-4.933h0a217.243,217.243,0,0,0,56.154,18.9c29.679,5.675,73.1,6.979,111.444-19.041l-.842,5.942c-17.64,11.972-33.9,17.963-55.915,20.711A160.423,160.423,0,0,1,259.2,469.787Z" transform="translate(-164.316 -384.019)"/><rect class="n" width="3.892" height="55.047" transform="translate(5.004 54.011)"/><path class="n" d="M3.735,545.483h6.431a3.735,3.735,0,0,1,3.735,3.735v3.216H0v-3.216a3.735,3.735,0,0,1,3.735-3.735Z" transform="translate(0 -438.232)"/><circle class="d" cx="3.892" cy="3.892" r="3.892" transform="translate(3.058 52.641)"/><circle class="n" cx="3.892" cy="3.892" r="3.892" transform="translate(3.058 52.363)"/><path class="d" d="M173.77,694.277s2.5.833,3.892,0" transform="translate(-168.766 -586.75)"/><rect class="n" width="3.892" height="55.047" transform="translate(168.104 54.011)"/><path class="n" d="M836.405,545.483h6.431a3.735,3.735,0,0,1,3.735,3.735v3.216h-13.9v-3.216A3.735,3.735,0,0,1,836.405,545.483Z" transform="translate(-669.571 -438.232)"/><circle class="d" cx="3.892" cy="3.892" r="3.892" transform="translate(166.157 52.641)"/><circle class="n" cx="3.892" cy="3.892" r="3.892" transform="translate(166.157 52.363)"/><path class="d" d="M1006.441,694.277s2.5.833,3.892,0" transform="translate(-838.337 -586.75)"/></svg>