<svg xmlns="http://www.w3.org/2000/svg" xmlns:xlink="http://www.w3.org/1999/xlink" width="228.302" height="159.001" viewBox="0 0 228.302 159.001"><defs><style>.a,.ab,.ad{fill:none;}.b{clip-path:url(#a);}.c{fill:url(#b);}.d{fill:#444176;}.ac,.e,.g{opacity:0.1;}.f{fill:#565387;}.h{fill:#ced2df;}.i{fill:#88455e;}.j{fill:#ec8c9c;}.ac,.k{fill:#00afff;}.l{fill:#9f6a9d;}.m{fill:url(#c);}.n{fill:url(#d);}.o{fill:#ffbdc6;}.p{fill:#7679b4;}.q{fill:#a66477;}.r{fill:#a3a3a3;}.s{fill:#f8af40;}.t{fill:url(#e);}.u{fill:#0c263d;}.v{fill:#3e3d77;}.w,.x{fill:#00c3ae;}.w{opacity:0.9;}.y{fill:#493545;}.z{fill:#9f5a68;}.aa{fill:#eee;}.ab{stroke:#535461;stroke-width:2px;}.ab,.ad{stroke-miterlimit:10;}.ad{stroke:#00afff;}.ae{opacity:0.2;}.af{fill:#ffd037;}</style><clipPath id="a"><rect class="a" width="228.303" height="159.001"/></clipPath><linearGradient id="b" x1="0.5" y1="1" x2="0.5" gradientUnits="objectBoundingBox"><stop offset="0" stop-color="gray" stop-opacity="0.251"/><stop offset="0.54" stop-color="gray" stop-opacity="0.122"/><stop offset="1" stop-color="gray" stop-opacity="0.102"/></linearGradient><linearGradient id="c" x1="0.495" y1="1.014" x2="0.495" y2="0" xlink:href="#b"/><linearGradient id="d" x1="0.5" y1="1" x2="0.5" y2="0" xlink:href="#b"/><linearGradient id="e" x1="0.5" y1="1" x2="0.5" y2="0" xlink:href="#b"/></defs><g class="b"><path class="c" d="M511.718,265.85c-1.026-2.675-3.673-8.963-5.415-7.716-2.2,1.577,2.2,8.543,2.2,8.543.125,1.279-2.351,3.94-3.678,5.266v-.166a.575.575,0,0,1-.058.144l-.111-.06a.721.721,0,0,1-.156.286,2.792,2.792,0,0,0-.012-.286c-.255,1.079-4.7,2.447-4.7,2.447h-.327c-1.235,0-4.452-.279-5.942-2.663a13.187,13.187,0,0,0-2.916-3.4,2.483,2.483,0,0,0-1.382-.524,17.783,17.783,0,0,1-8.117-2.793l-.122-.084-.026.077c-.156-.223-.308-.461-.449-.707h0l-.072-.132a6.038,6.038,0,0,0,3.329-5.37v-.125a4.112,4.112,0,0,0,.553-2.06v-.721l.94-.837a3.865,3.865,0,0,0,1.094-1.312,1.557,1.557,0,0,0,.115-.673,1.166,1.166,0,0,0-.442-1.043c-.721-.5-1.923,0-2.444-.692-.24-.312-.2-.738-.315-1.106a1.978,1.978,0,0,0-1.906-1.163,8.233,8.233,0,0,0-2.336.5,13.718,13.718,0,0,1-4.976.466,3.25,3.25,0,0,0-1.363.048,1.877,1.877,0,0,0-1.106,1.286,3.023,3.023,0,0,0-.106.659,4.144,4.144,0,0,0-1.043,2.743v1.848a4.141,4.141,0,0,0,1,2.69,6.009,6.009,0,0,0,2.517,4.384v.147l.031.019a9.938,9.938,0,0,1-.264,1.7v-.123a17.372,17.372,0,0,1-6.971,1.834h-.4a2.685,2.685,0,0,0-1.923.721c-1.067,1-2.937,2.594-4.086,2.594-.24,0-6.307,1.185-7.312,1.382l-1.877-1.839-.058.108-.111-.108a4.562,4.562,0,0,0-.61.089,14.548,14.548,0,0,1-3.329-7.343s4.151-4.728,2.625-9.134c-1.3-3.754-4.891,4.293-5.911,6.718a1.937,1.937,0,0,0-.062,1.334l3.372,10.869a5.1,5.1,0,0,0-.267,2.644h-.038l2.457,3.151a12.97,12.97,0,0,0,4.74.774,16.571,16.571,0,0,0,6.187-1.187h.57l-.108.041h2.925l1.86,5.627c-.063.512-.962,7.658-1.683,9.256a4.018,4.018,0,0,0-.284,1.683,12.85,12.85,0,0,0,.536,3.257l1.63-.06-.063.127a84.844,84.844,0,0,0-5.048,12.581l-2.372,4.807,1.779,21.561h.072l.137.022h0c.192.029.481.072.861.12l-.139.24-3.92,6.49s-2.8,5.723,3.389,4.644c0,0,2.286-.663,3.218-4.567l4.067-3.815s.19-2.533-.961-3.545a27.489,27.489,0,0,1,.026-5.411c.339-1-1.442-12.439-1.442-12.439s6.437-13.352,10.336-13.684a2.14,2.14,0,0,1,.844.111c3.2,1.043,7.086,8.79,8.228,11.2h0l.053.111v.022l.043.094v.026l.038.082v.022l.034.075v.017l.029.06v.024l.022.046v.019l.014.034v.041h0l.012.029.507,15.011h0l.05.026h.024l-.043.31-.221,1.55s2.8,5.889,2.625,6.634,1.863,3.733,4.742,2.9,1.166-5.5,1.166-5.5l-2.774-5.716-.123-.255a5.459,5.459,0,0,0,.779-.579s-.846-6.136,0-7.463,1.1-7.382,1.1-7.382-.594-4.146-1.61-5.971l-4.259-15.2c1.276,1.187,2.269,1.651,3.1,1.62h.137a2.069,2.069,0,0,0,1.043-.26,2.941,2.941,0,0,0,.481-.339.779.779,0,0,0,.079-.079h0c1.185-1-1.356-4.894-2.8-7.211-1.387-2.235.524-8.309.668-8.761a2.3,2.3,0,0,1,.411-.24,2.535,2.535,0,0,1,.942-.2c1.38.048,3.077.841,5.177,1.24a24.429,24.429,0,0,0,4.42.344h.086c.589,0,1.123-.012,1.555-.029a2.627,2.627,0,0,0,1.13-.305h0a3.412,3.412,0,0,0,.8-.649l3.687-4.166-.1.046a2.072,2.072,0,0,0,0-1.466l3.9-6.73a2.56,2.56,0,0,0,.19-2.219Z" transform="translate(-367.037 -217.799)"/><path class="d" d="M510.394,612.536l-3.925,3.762c-.9,3.846-3.108,4.5-3.108,4.5-5.968,1.062-3.271-4.567-3.271-4.567l3.786-6.406.466-.791a10.144,10.144,0,0,1,4.5-.327,1.539,1.539,0,0,1,.613.332C510.579,610.015,510.394,612.536,510.394,612.536Z" transform="translate(-409.489 -490.941)"/><path class="d" d="M623.108,600.09c-2.781.817-4.742-2.125-4.567-2.863S616,590.695,616,590.695l.212-1.529.2-1.416,4.567.327.43.9,2.678,5.637S625.889,599.273,623.108,600.09Z" transform="translate(-498 -475.142)"/><path class="e" d="M523.387,609.638c-.43.738-3.918.365-5.617.135l.466-.791a10.143,10.143,0,0,1,4.5-.327,1.538,1.538,0,0,1,.613.332C523.371,609.386,523.387,609.638,523.387,609.638Z" transform="translate(-423.381 -490.903)"/><path class="e" d="M622.064,588.961a5.288,5.288,0,0,1-5.2.185l.2-1.416,4.567.327Z" transform="translate(-498.654 -475.127)"/><path class="f" d="M539.116,458.8c-.817,1.307,0,7.36,0,7.36a5.217,5.217,0,0,1-5.886.654l-.481-14.8s-5.315-12.184-9.076-11.857-9.975,13.492-9.975,13.492,1.716,11.283,1.389,12.259,0,5.723,0,5.723c-.572.981-6.54,0-6.54,0l-1.716-21.26,2.279-4.745a84.1,84.1,0,0,1,4.867-12.4c.661-1.387,1.1-2.233,1.1-2.233l4.351-.906,14.121-2.928,5.074,18.47a23.816,23.816,0,0,1,1.553,5.886S539.933,457.5,539.116,458.8Z" transform="translate(-415.071 -353.152)"/><g class="g" transform="translate(91.75 73.998)"><path d="M590.34,507.886l-.481-14.8s-5.314-12.184-9.076-11.857a2.051,2.051,0,0,0-.493.11c3.668,1.219,8.261,11.747,8.261,11.747l.481,14.8a5.768,5.768,0,0,0,3.252.594A5.784,5.784,0,0,1,590.34,507.886Z" transform="translate(-562.623 -468.219)"/><path d="M509.814,471.612l-1.716-21.26,2.288-4.752a84.1,84.1,0,0,1,4.867-12.4c.661-1.387,1.1-2.233,1.1-2.233l4.35-.906,12.891-2.68-.07-.257L519.4,430.057l-4.351.906s-.442.846-1.1,2.233a84,84,0,0,0-4.867,12.4l-2.288,4.742,1.716,21.26a30.716,30.716,0,0,0,5.192.418A38.647,38.647,0,0,1,509.814,471.612Z" transform="translate(-506.79 -427.12)"/></g><path class="h" d="M465.138,338.21a4.246,4.246,0,0,0-4.007,5.151l1.307.163L464.4,341.4l.981-1.8v-.409Z" transform="translate(-380.309 -285.582)"/><path class="e" d="M465.138,338.21a4.246,4.246,0,0,0-4.007,5.151l1.307.163L464.4,341.4l.981-1.8v-.409Z" transform="translate(-380.309 -285.582)"/><path class="h" d="M692.958,345.69s3.846,2.043,2.863,4.416l-1.226.481-1.634-.9-.24-2.125.163-1.471Z" transform="translate(-556.28 -291.264)"/><path class="e" d="M692.958,345.69s3.846,2.043,2.863,4.416l-1.226.481-1.634-.9-.24-2.125.163-1.471Z" transform="translate(-556.28 -291.264)"/><rect class="i" width="13.41" height="10.139" rx="5.069" transform="translate(103.645 33.329)"/><path class="j" d="M455.5,284.76l-2.863,4.567-.24-.812-3.889-12.672a1.949,1.949,0,0,1,.06-1.315c.983-2.389,4.449-10.336,5.706-6.622,1.471,4.327-2.536,8.994-2.536,8.994a14.4,14.4,0,0,0,3.42,7.485C455.37,284.632,455.5,284.76,455.5,284.76Z" transform="translate(-370.701 -231.437)"/><path class="j" d="M691.16,303.306s4.5-4.252,4.327-5.968c0,0-4.252-6.867-2.125-8.413,1.683-1.231,4.238,4.971,5.228,7.608a2.571,2.571,0,0,1-.171,2.163l-5.375,9.516Z" transform="translate(-555.094 -248.022)"/><path class="j" d="M563.9,299.91s.817,5.233-1.553,7.2,6.788,1.952,6.788,1.952l3.271-3.026s-3.762-3.517-2.618-6.132Z" transform="translate(-456.95 -256.481)"/><path class="e" d="M548.036,323.737a5.732,5.732,0,0,0,7.031-.327l5.723,11.857-.327,14.472s-11.857,6.132-16.763,2.372-.817-5.723-.817-5.723l-1.144-11.119,1.226-7.2s2.207-3.435,2.372-3.435S548.036,323.737,548.036,323.737Z" transform="translate(-441.244 -274.34)"/><path class="k" d="M548.043,323.057a5.728,5.728,0,0,0,7.033-.327l5.723,11.857-.327,14.472s-11.857,6.132-16.763,2.372-.817-5.723-.817-5.723l-1.144-11.119,1.226-7.2s2.207-3.435,2.372-3.435S548.043,323.057,548.043,323.057Z" transform="translate(-441.252 -273.823)"/><path class="e" d="M487.709,319a15.174,15.174,0,0,1-6.954,1.805,2.562,2.562,0,0,0-1.848.707c-1.031.99-2.836,2.557-3.954,2.557-.24,0-7.2,1.389-7.2,1.389l-1.839-1.839s-2.74,5.355-4.048,5.11l2.372,3.108a14.291,14.291,0,0,0,10.384-.409h3.435l1.8,5.56s-.9,7.523-1.634,9.158.24,4.824.24,4.824l6.459-.24s.327-3.19.817-3.605-1.716-14.472-1.716-14.472-1.471-7.932,3.925-10.792Z" transform="translate(-380.918 -270.99)"/><path class="e" d="M542.012,439.38a21.336,21.336,0,0,0-.507,2.949l-4.944.188c.661-1.387,1.1-2.233,1.1-2.233Z" transform="translate(-437.655 -362.435)"/><path class="e" d="M468.063,339.907l-2.863,4.567-.24-.812a21.141,21.141,0,0,0,2.771-4.132A4.863,4.863,0,0,0,468.063,339.907Z" transform="translate(-383.265 -286.585)"/><path class="l" d="M487.17,319a16.25,16.25,0,0,1-7.117,1.805,2.562,2.562,0,0,0-1.848.707c-1.031.99-2.836,2.557-3.954,2.557-.24,0-7.2,1.389-7.2,1.389l-1.846-1.841s-2.74,5.355-4.048,5.11l2.372,3.108a14.291,14.291,0,0,0,10.384-.409h3.435l1.8,5.557s-.9,7.523-1.635,9.158.24,4.824.24,4.824l6.459-.24s.327-3.19.817-3.605-1.716-14.472-1.716-14.472-1.471-7.932,3.925-10.792Z" transform="translate(-380.378 -270.99)"/><path class="e" d="M595.067,316.94a15.911,15.911,0,0,0,7.79,2.836,2.367,2.367,0,0,1,1.334.517,12.909,12.909,0,0,1,2.815,3.365c1.8,2.945,6.214,2.618,6.214,2.618s4.293-1.348,4.538-2.4c0,0,.123,5.769,2.822,4.375l-3.55,4.091a2.5,2.5,0,0,1-1.791.863,26.321,26.321,0,0,1-5.608-.31c-2.944-.572-5.069-1.961-6.622-.736,0,0-2.043,6.377-.654,8.668s3.846,6.132,2.7,7.115-2.536.9-4.824-1.471-2.536-6.377-2.536-6.377l.572-10.3s-2.207-7.769-4.327-9.321Z" transform="translate(-481.243 -269.425)"/><path class="e" d="M621.907,328.394l-3.56,4.108a2.5,2.5,0,0,1-.858.639h0a2.493,2.493,0,0,1-.928.219,26.01,26.01,0,0,1-5.608-.31c-2.755-.536-4.793-1.786-6.317-.942a2.239,2.239,0,0,0-.308.2s-2.043,6.377-.654,8.668,3.846,6.132,2.7,7.115a2.644,2.644,0,0,1-.639.416c-1.029.464-2.305.062-4.185-1.887-2.288-2.372-2.536-6.377-2.536-6.377l.572-10.3s-2.206-7.769-4.327-9.321l.935-3.353a16.975,16.975,0,0,0,7.836,2.755,2.368,2.368,0,0,1,1.334.517,12.923,12.923,0,0,1,2.815,3.365c1.8,2.944,6.213,2.618,6.213,2.618a23.864,23.864,0,0,0,3.094-1.231h0a4.714,4.714,0,0,0,1.442-.961.722.722,0,0,0,.156-.288S619.21,329.783,621.907,328.394Z" transform="translate(-482.245 -269.676)"/><path class="l" d="M621.2,328.233l-3.557,4.113a2.5,2.5,0,0,1-.692.558h0a2.494,2.494,0,0,1-1.091.3,26,26,0,0,1-5.608-.31c-2.656-.517-4.649-1.7-6.151-1.024a2.23,2.23,0,0,0-.481.286s-2.043,6.377-.654,8.668,3.846,6.132,2.7,7.115a2.843,2.843,0,0,1-.481.334c-1.058.584-2.365.24-4.348-1.805-2.288-2.372-2.536-6.377-2.536-6.377l.572-10.3s-2.207-7.769-4.327-9.321l.981-3.516.118.082a16.976,16.976,0,0,0,7.836,2.755,2.367,2.367,0,0,1,1.334.517,12.921,12.921,0,0,1,2.815,3.365c1.8,2.944,6.213,2.618,6.213,2.618a23.883,23.883,0,0,0,3.094-1.231h0c.743-.38,1.348-.8,1.442-1.175v.207C618.454,325.079,618.815,329.461,621.2,328.233Z" transform="translate(-481.706 -269.432)"/><path class="e" d="M575.859,300.45H569.85a14.7,14.7,0,0,1,.113,2.884,6.178,6.178,0,0,0,6.351.457A3.835,3.835,0,0,1,575.859,300.45Z" transform="translate(-462.943 -256.898)"/><circle class="j" cx="5.968" cy="5.968" r="5.968" transform="translate(104.585 35.497)"/><path class="e" d="M565.087,260.906a6.372,6.372,0,0,1,1.988-.183c.6.12,1.1.531,1.7.656,1.149.24,2.216-.606,3.084-1.394l1.875-1.707a3.828,3.828,0,0,0,1.058-1.293,1.3,1.3,0,0,0-.317-1.529c-.685-.481-1.865,0-2.36-.683a3.561,3.561,0,0,1-.305-1.089,1.913,1.913,0,0,0-1.841-1.147,8.145,8.145,0,0,0-2.255.481,12.979,12.979,0,0,1-4.807.459,3.071,3.071,0,0,0-1.315.046,1.838,1.838,0,0,0-1.067,1.267,7.379,7.379,0,0,0,.9,4.586A3.86,3.86,0,0,0,565.087,260.906Z" transform="translate(-455.774 -220.504)"/><path class="i" d="M565.087,260.226a6.376,6.376,0,0,1,1.988-.183c.6.12,1.1.531,1.7.656,1.149.24,2.216-.606,3.084-1.394l1.875-1.707a3.827,3.827,0,0,0,1.058-1.293,1.3,1.3,0,0,0-.317-1.529c-.685-.481-1.865,0-2.36-.683a3.56,3.56,0,0,1-.305-1.089,1.913,1.913,0,0,0-1.841-1.147,8.144,8.144,0,0,0-2.255.481,12.981,12.981,0,0,1-4.807.459,3.072,3.072,0,0,0-1.315.046,1.838,1.838,0,0,0-1.067,1.267,7.38,7.38,0,0,0,.9,4.586A3.886,3.886,0,0,0,565.087,260.226Z" transform="translate(-455.774 -219.987)"/><path class="e" d="M536.55,394a3.371,3.371,0,0,1,1.962.981,3.523,3.523,0,0,0,1.8,1.062" transform="translate(-437.647 -327.962)"/><path class="e" d="M487.413,349.09s1.067,2.382.409,2.622-.409,1.961-.409,1.961" transform="translate(-400.286 -293.847)"/><g class="g" transform="translate(87.421 48.049)"><path d="M488.854,331.245s6.949-1.389,7.189-1.389c1.12,0,2.923-1.567,3.954-2.557a2.524,2.524,0,0,1,1.12-.623h-.089a2.562,2.562,0,0,0-1.848.707c-1.031.99-2.836,2.558-3.954,2.558-.195,0-4.641.882-6.447,1.24Z" transform="translate(-488.78 -324.869)"/><path d="M552.577,319.465v-.305a17.353,17.353,0,0,1-5.326,1.7A16.459,16.459,0,0,0,552.577,319.465Z" transform="translate(-533.196 -319.16)"/><path d="M520.853,390.062s-.981-3.19-.24-4.824,1.634-9.158,1.634-9.158l-1.793-5.56h-3.444l-.209.082h2.824l1.791,5.562s-.9,7.523-1.634,9.158.24,4.824.24,4.824l6.459-.24v-.05Z" transform="translate(-510.065 -358.175)"/></g><g class="g" transform="translate(116.68 58.805)"><path d="M617.875,417.086a2.829,2.829,0,0,1-.481.334c-1.058.584-2.365.24-4.348-1.805a11,11,0,0,1-2.488-5.915l-.048.846s.24,4.007,2.536,6.377c1.983,2.053,3.291,2.389,4.348,1.805a2.832,2.832,0,0,0,.481-.334c.344-.3.363-.851.183-1.543A.757.757,0,0,1,617.875,417.086Z" transform="translate(-610.51 -398.694)"/><path d="M645.4,364.028l-2.315,2.675a2.5,2.5,0,0,1-.692.558h0a2.493,2.493,0,0,1-1.091.3,26.01,26.01,0,0,1-5.608-.31c-2.656-.517-4.649-1.7-6.151-1.024a2.217,2.217,0,0,0-.481.286,23.346,23.346,0,0,0-1.118,6.925,27.043,27.043,0,0,1,1.118-5.617,2.219,2.219,0,0,1,.481-.286c1.5-.675,3.495.507,6.151,1.024a26.312,26.312,0,0,0,5.608.31,2.494,2.494,0,0,0,1.091-.3h0a2.5,2.5,0,0,0,.692-.55l3.56-4.108a1.4,1.4,0,0,1-1.245.118Z" transform="translate(-623.737 -363.91)"/></g><path class="m" d="M265.74,486.89a.185.185,0,0,0,.219.029A.749.749,0,0,1,265.74,486.89Z" transform="translate(-231.93 -398.525)"/><path class="n" d="M183.385,283.057c-.433-.125-1.05-.329-1.793-.589a9.4,9.4,0,0,0,1.661-3.346l-.062.024c.022-.075.043-.147.062-.224-1.425.579-3-.4-4.007-1.661s-1.683-2.822-2.783-3.98a12.746,12.746,0,0,0-1.476-1.271,2.04,2.04,0,0,0-1.07-.524c-.642-.019-1.144.611-1.762.8a2.4,2.4,0,0,1-1.228-.046,42.261,42.261,0,0,0-4.752-1.219,5.57,5.57,0,0,0-2.579.291c-.817.31-1.19.928-1.851,1.423a6.857,6.857,0,0,1-2.968.613,21.284,21.284,0,0,1-3.067.127,7.184,7.184,0,0,0-1.764.065,6.8,6.8,0,0,0-3.11,2.163,1.6,1.6,0,0,0-.514.805,1.018,1.018,0,0,0,0,.267,1.733,1.733,0,0,0,.123.709,9.375,9.375,0,0,0,1.18,2.348,6.782,6.782,0,0,1,1.019,1.668,3.237,3.237,0,0,1,.156.961,6.989,6.989,0,0,1-.108,1.034,12.982,12.982,0,0,1-.791,2.752,5,5,0,0,0-.462,1.442,2.3,2.3,0,0,0,0,.308c-.06,1.586,1.541,2.728,1.851,4.3a2.575,2.575,0,0,1,.046.4,2.686,2.686,0,0,1-1.421,2.327c.072.029.147.053.221.077a2.008,2.008,0,0,1-.221.12,4.487,4.487,0,0,0,.461.149,10.721,10.721,0,0,0-2.334,2.884c-2.781,5.177-21.616,15.318-21.616,15.318l.279.159-.226.147c-1.63,1.084-5.454,4.245-2,8.242a43.638,43.638,0,0,1,4.591-6.074c.084-.082.168-.156.24-.226a.553.553,0,0,1,.072.438l12.384-6.959s4.4-3.081,5.629-3.776a10.136,10.136,0,0,1,2.791-1.2l-.144.06a5.653,5.653,0,0,1,1.421-.2c2.192.034,4.567,1.639,5.348,8,1.048,8.514.562,10.05.226,10.259a.616.616,0,0,1-.123-.022.21.21,0,0,0,.034.024.65.65,0,0,1-.135-.024.193.193,0,0,0,.183.043.171.171,0,0,0,.137-.017h0a1.392,1.392,0,0,0,.166,0,1.769,1.769,0,0,1-.017.24c-.017,0-.1.046,0,.05h0c-.026.481-.024,1,0,1.548-1.089.06-2.178.125-3.125.183l.084-.449.038-.2c.836-.067,1.63-.312,1.723-.99.2-1.49-1.841-2.286-3.581-2.384s-12.177.6-12.177.6-1.565,2.026,3.4,2.644l.459.24a55.169,55.169,0,0,1,5.846,4.153l.175.139-.567.461c3.069.695,6.038,12.424,7.675,17.787s5.218,5.168,8.187,4.372c2.781-.745,3.125-8.821,3.17-9.836v-.1l4.947,6.11.375.464q.216.113.428.212a4.761,4.761,0,0,0,6.706-5.528,105.287,105.287,0,0,0-4.267-12.184c-1.031-2.055-2.363-5.468-3.17-7.605a2.562,2.562,0,0,0,.305-.147s-.019-.1-.05-.272l.05-.026a73.7,73.7,0,0,1-1.255-10.576v-.382c.894-.2,1.461-.284,1.461-.284l.017-.192-.1.022.5-5.694s1.827-3.887.428-5.5a3.4,3.4,0,0,1-.82-1.682c-.24-1.488,0-3.971,3.257-6.033a28.054,28.054,0,0,0,6.971-5.769S186.454,283.961,183.385,283.057Zm-9.958,3.952v-2.632c.93-.046,1.88.062,2.815,0a7.125,7.125,0,0,0,1.358-.228l.226.156A24.76,24.76,0,0,1,173.427,287.009Zm-14.218,41.256c.368.255.738.519,1.1.786.226,1.3.425,2.214.44,2.279A17.989,17.989,0,0,0,159.209,328.265Z" transform="translate(-125.08 -234.508)"/><path class="o" d="M263.941,500.32l-.216,1.175-.166.9-.3,1.644-2.937,2.055s-.264-.226-.7-.584a51.492,51.492,0,0,0-5.591-4.086,6.25,6.25,0,0,0-1.536-.709Z" transform="translate(-221.865 -408.727)"/><path class="e" d="M263.933,500.32l-.216,1.175a9.136,9.136,0,0,1-1.937-.1l-6.853.1c-.324-.019-.627-.046-.911-.075a6.254,6.254,0,0,0-1.536-.709Z" transform="translate(-221.858 -408.727)"/><path class="p" d="M254.266,493.738s3.428.586,3.622-.882-1.762-2.243-3.423-2.353-11.653.591-11.653.591-1.762,2.348,4.6,2.74Z" transform="translate(-214.344 -401.26)"/><path class="e" d="M263.941,500.32l-.216,1.175-.166.9-.3,1.644-2.937,2.055s-.264-.226-.7-.584a51.492,51.492,0,0,0-5.591-4.086,6.25,6.25,0,0,0-1.536-.709Z" transform="translate(-221.865 -408.727)"/><path class="e" d="M263.933,500.32l-.216,1.175a9.136,9.136,0,0,1-1.937-.1l-6.853.1c-.324-.019-.627-.046-.911-.075a6.254,6.254,0,0,0-1.536-.709Z" transform="translate(-221.858 -408.727)"/><path class="e" d="M254.266,493.738s3.428.586,3.622-.882-1.762-2.243-3.423-2.353-11.653.591-11.653.591-1.762,2.348,4.6,2.74Z" transform="translate(-214.344 -401.26)"/><rect class="q" width="17.914" height="21.243" transform="translate(29.495 44.21)"/><rect class="e" width="17.914" height="21.243" transform="translate(29.495 44.21)"/><path class="o" d="M138.866,448.924a2.87,2.87,0,0,0-1.091.772,42.93,42.93,0,0,0-4.392,5.983c-3.307-3.937.353-7.05,1.923-8.119.38-.26.635-.4.635-.4Z" transform="translate(-130.369 -368.345)"/><path class="o" d="M269.307,331.09s.882,6.168,3.915,7.636-3.915,4.209-3.915,4.209l-9.5-3.524s5.384-1.762,4.307-6.951Z" transform="translate(-227.426 -280.174)"/><path class="o" d="M220.811,485.45l-.216,1.175-.166.9-.3,1.644-2.937,2.055s-.264-.226-.7-.584a51.49,51.49,0,0,0-5.591-4.086,6.254,6.254,0,0,0-1.536-.709Z" transform="translate(-189.102 -397.431)"/><path class="e" d="M220.8,485.45l-.216,1.175a9.139,9.139,0,0,1-1.937-.1l-6.853.1c-.324-.019-.627-.046-.911-.075a6.249,6.249,0,0,0-1.536-.709Z" transform="translate(-189.094 -397.431)"/><path class="p" d="M211.088,478.881s3.428.586,3.622-.882-1.762-2.252-3.428-2.348-11.65.586-11.65.586-1.762,2.348,4.6,2.74Z" transform="translate(-181.543 -389.98)"/><path class="e" d="M242.912,493.87l-.3,1.644-2.937,2.055s-.264-.226-.7-.584l3.884-3.185Z" transform="translate(-211.595 -403.774)"/><path class="l" d="M261.092,502.517q-.2-.1-.409-.209l-.358-.457-4.73-6.009v.106c-.031,1-.373,8.954-3.031,9.687-2.839.784-6.266.978-7.831-4.307s-4.406-16.838-7.343-17.523l4.355-3.574a25.958,25.958,0,0,1,4.062,6.605c-.043-.207-2.036-9.511-.392-11.155h14.292s2.2,6.283,3.721,9.4a106.3,106.3,0,0,1,4.086,12A4.6,4.6,0,0,1,261.092,502.517Z" transform="translate(-210.395 -390.01)"/><path class="e" d="M283.931,439.7c-2.2,1.305-11.9.774-15.054.562l-.858-.062c-.094,0,.014-.053.014-.053l.089-.889,2.348-5.971L283.052,426a10.89,10.89,0,0,0-.32,3.291A76.694,76.694,0,0,0,283.931,439.7Z" transform="translate(-233.633 -352.271)"/><path class="r" d="M283.6,438.506c-2.2,1.305-11.9.774-15.054.562l-.858-.062h-.142l.156-.041.774-.2,1.663-6.658,12.581-7.293a10.886,10.886,0,0,0-.32,3.291A76.749,76.749,0,0,0,283.6,438.506Z" transform="translate(-233.305 -351.367)"/><path class="e" d="M282.86,428.023c-2.557.589-8.187,2.322-10.35,6.49-1.442,2.783-2.644,3.978-3.5,4.478l-.858-.063.014-.053.774-.2,1.663-6.658,12.581-7.293A10.888,10.888,0,0,0,282.86,428.023Z" transform="translate(-233.761 -351.298)"/><path class="e" d="M146.2,447.17l2.937,1.762a2.871,2.871,0,0,0-1.091.772c-.24-.721-1.783-1.711-2.481-2.134C145.95,447.309,146.2,447.17,146.2,447.17Z" transform="translate(-140.645 -368.352)"/><path class="e" d="M265.347,484.256a.175.175,0,0,1-.207-.026A.708.708,0,0,0,265.347,484.256Z" transform="translate(-231.475 -396.504)"/><path class="s" d="M180.986,313.935a5.824,5.824,0,0,1-4.5-1.663s-7.831,2.252-10.475,7.343-20.657,15.076-20.657,15.076,3.125,1.762,2.839,2.644l11.845-6.853s4.209-3.036,5.384-3.721,7.636-4.894,9.006,6.56,0,10.1,0,10.1,1.959.685,4.807-4.807,11.65-6.754,11.65-6.754l.481-5.769s1.747-3.827.409-5.423a3.389,3.389,0,0,1-.784-1.656c-.224-1.466,0-3.911,3.125-5.942a26.468,26.468,0,0,0,6.658-5.677s.1-1.86-2.839-2.74-14.881-5.677-14.881-5.677l-.392,1.663,9.4,6.658s-4.7,3.817-8.413,3.721C183.63,311,184.316,313.837,180.986,313.935Z" transform="translate(-140.478 -255.774)"/><path class="e" d="M282.678,334.664a19.225,19.225,0,0,1-.541-2.4l-5.19,1.38a5.721,5.721,0,0,1-.118,2.992,5.581,5.581,0,0,0,5.848-1.971Z" transform="translate(-240.355 -281.062)"/><circle class="o" cx="5.581" cy="5.581" r="5.581" transform="translate(32.432 44.306)"/><path class="e" d="M247.566,273.844a39.849,39.849,0,0,1,4.545,1.2,2.244,2.244,0,0,0,1.175.046c.591-.183,1.072-.8,1.683-.784a1.769,1.769,0,0,1,1.024.517,12.283,12.283,0,0,1,1.411,1.252c1.05,1.142,1.7,2.68,2.663,3.92s2.471,2.207,3.834,1.637c-.925,3.605-3.964,6.362-7.247,6.586a17.354,17.354,0,0,0-3.92.2,3.431,3.431,0,0,1-.99.24c-.721,0-1.317-.671-1.774-1.322a56.006,56.006,0,0,0-3.125-4.67,2.554,2.554,0,0,0-1.425-.985,2.639,2.639,0,0,0-1.577.442,7.486,7.486,0,0,0-2.308,1.6,3.2,3.2,0,0,0-.779,2.815,6.874,6.874,0,0,1,.481,1.574c0,.889-.774,1.541-.93,2.4a9.281,9.281,0,0,0-.038,1.1,4.471,4.471,0,0,1-1.656,2.906,2.09,2.09,0,0,0-.757,1.05c-.063.305,0,.63-.041.94a1.706,1.706,0,0,1-1.567,1.262,4.543,4.543,0,0,1-2.351-.279,2.7,2.7,0,0,0,1.315-2.884c-.3-1.589-1.9-2.728-1.764-4.348a5.035,5.035,0,0,1,.442-1.43,13.084,13.084,0,0,0,.755-2.711,4.592,4.592,0,0,0-.046-2.163,6.828,6.828,0,0,0-.976-1.644,9.332,9.332,0,0,1-1.13-2.315,1.622,1.622,0,0,1-.108-.764,1.584,1.584,0,0,1,.481-.793,6.535,6.535,0,0,1,2.976-2.134,6.672,6.672,0,0,1,1.682-.065,19.756,19.756,0,0,0,2.935-.125,6.379,6.379,0,0,0,2.841-.606c.632-.481.99-1.094,1.771-1.4A5.184,5.184,0,0,1,247.566,273.844Z" transform="translate(-206.586 -236.651)"/><path class="e" d="M308.48,513.76s3.23,6.362,2.252,8.321" transform="translate(-264.397 -418.936)"/><path class="e" d="M317.777,561.407l-4.73-6.009v.106s-.274-1.942.627-1.288c1.973,1.428,5.132,3.769,5.2,4.173A11.537,11.537,0,0,1,317.777,561.407Z" transform="translate(-267.836 -449.565)"/><g class="g" transform="translate(4.971 43.179)"><path d="M302.182,348.749a2.4,2.4,0,0,1-.892,2.481,2.217,2.217,0,0,0,2.014-2.56A6.261,6.261,0,0,1,302.182,348.749Z" transform="translate(-263.906 -336.707)"/><path d="M146.839,376.846s18.013-9.985,20.657-15.076c1.9-3.654,6.466-5.843,8.893-6.79-1.771.594-7.733,2.87-9.973,7.182-2.644,5.091-20.657,15.076-20.657,15.076Z" transform="translate(-145.76 -341.5)"/><path d="M305.42,310.166a21.454,21.454,0,0,0,5.995-3.334l-9.4-6.658.214-.913-.9-.361-.392,1.663,9.4,6.658A22.68,22.68,0,0,1,305.42,310.166Z" transform="translate(-263.64 -298.9)"/><path d="M319.83,436.09a23.283,23.283,0,0,1,3.685-.93l.017-.19A24.942,24.942,0,0,0,319.83,436.09Z" transform="translate(-277.99 -402.264)"/><path d="M247.334,425.456h-.087a.176.176,0,0,1-.207-.026.719.719,0,0,0,.207.026c.322-.187.805-1.649-.207-10.11-1.082-9.033-5.326-8.324-7.651-7.285,2.375-.654,5.644-.089,6.574,7.677,1.012,8.461.529,9.925.207,10.11A2.163,2.163,0,0,0,247.334,425.456Z" transform="translate(-216.885 -381.373)"/><path d="M266.947,483.857a.723.723,0,0,1-.207-.026A.176.176,0,0,0,266.947,483.857Z" transform="translate(-237.661 -439.379)"/></g><path class="q" d="M247.566,273.055a39.862,39.862,0,0,1,4.545,1.2,2.244,2.244,0,0,0,1.175.046c.591-.183,1.072-.8,1.683-.784a1.769,1.769,0,0,1,1.024.517,12.293,12.293,0,0,1,1.411,1.252c1.05,1.142,1.7,2.68,2.663,3.92s2.471,2.207,3.834,1.637c-.926,3.605-3.964,6.362-7.247,6.586a17.351,17.351,0,0,0-3.92.2,3.434,3.434,0,0,1-.99.24c-.721,0-1.317-.671-1.774-1.322a56.02,56.02,0,0,0-3.125-4.67,2.555,2.555,0,0,0-1.425-.986,2.639,2.639,0,0,0-1.577.442,7.486,7.486,0,0,0-2.307,1.6,3.2,3.2,0,0,0-.779,2.815,6.876,6.876,0,0,1,.481,1.574c0,.889-.774,1.541-.93,2.4a9.267,9.267,0,0,0-.038,1.1,4.471,4.471,0,0,1-1.656,2.906,2.09,2.09,0,0,0-.757,1.05c-.062.305,0,.63-.041.94a1.706,1.706,0,0,1-1.567,1.262,4.543,4.543,0,0,1-2.351-.279,2.7,2.7,0,0,0,1.315-2.884c-.3-1.589-1.9-2.728-1.764-4.348a5.028,5.028,0,0,1,.442-1.43,13.09,13.09,0,0,0,.755-2.711,4.594,4.594,0,0,0-.046-2.163,6.827,6.827,0,0,0-.976-1.644,9.334,9.334,0,0,1-1.13-2.315,1.623,1.623,0,0,1-.108-.764,1.584,1.584,0,0,1,.481-.793,6.534,6.534,0,0,1,2.976-2.134,6.673,6.673,0,0,1,1.683-.065,19.776,19.776,0,0,0,2.935-.125,6.381,6.381,0,0,0,2.841-.606c.632-.481.99-1.094,1.771-1.4A5.185,5.185,0,0,1,247.566,273.055Z" transform="translate(-206.586 -236.051)"/><path class="t" d="M797.6,201.271h0v-.089a.2.2,0,0,0-.014-.091h-.039v-.2c-.1-2.228-3.178-6.971-4.413-5.586-1.082,1.216.55,4.293,1.382,5.677l.075.125-.041-.026s-3.44,10.259-3.846,10.658-3.238,8.466-6.971,9.374c-.738.175-1.351.334-1.865.481l.041-.137a14.859,14.859,0,0,0,.656-2.4,3.112,3.112,0,0,0-.442-2.36c-.216-.212-.481-.24-.659-.577a2.661,2.661,0,0,1-.183-.925l-.317-3.889.221-.067a3.748,3.748,0,0,0,2.783-2.807,1.448,1.448,0,0,1-.142.046,2.408,2.408,0,0,0,.041-.24c-1.122.442-2.163-.721-3.245-1.243-1.781-.873-3.817-.05-5.656.149-2.084.228-4.062-.637-6.192-.481-1.159.089-2.447.875-2.384,2.017a8.065,8.065,0,0,0,.663,1.759c.462,1.454-.565,2.913-1.464,4.154a6.184,6.184,0,0,0-1.26,2.764c-2.07-2.163-4.307-4.663-4.567-5.6l-5.988-10.259s-.142.151-.37.375c-.036-.111-.079-.24-.128-.37-.764-2.142-2.928-7.331-5.67-6.379s1.137,6.271,2.824,8.391l.24.293a.76.76,0,0,1-.428-.019l6.677,11.453a8.86,8.86,0,0,0,2.327,2.788s8.3,10.458,8.4,12.549,3.731,7.67,3.731,7.67,1.214,9.064-.911,10.658h.351q-.151.148-.31.324c-1.574,1.745-3.586,5.485-.836,11.845,4.045,9.374,4.654,13.047,4.654,13.047s-7.692.4-9.206.7c-1.341.264-6.555.449-7.747.481-.426-.5-1.683-1.591-3.38,0-2.125,1.993-3.642,8.653-3.642,8.653s-.81,5.379,1.923,3.983c0,0,3.238-4.483,4.146-4.682.452-.1.93-.764,1.3-1.406l.019.012h0c.022,0,.111-.048.255-.106h0a7.794,7.794,0,0,1,3.988-.589,73.458,73.458,0,0,0,7.831.207c-.812,1.947-2.269,6.971-2.269,6.971s-.608,4.685,1.411,4.492c1.442-.142,3.653-3.827,4.807-5.93.836-.613,3.233-2.81,5-2.644l11.936-4.581s2.832-1.594,1.315-6.872c-1.2-4.2-4.622-12.787-5.973-16.136h0l-.041-.087c-.327-.81-.524-1.291-.524-1.291h0a19.757,19.757,0,0,1-1.084-4.738c-.012-.127-.022-.257-.031-.385a2.127,2.127,0,0,0,.469-.272s-1.113-11.254,0-12.451h0l.019-.022h0v-.014h0l.019-.024h0l.043-.055h0l.053-.067h0c.06-.079.132-.178.214-.3h0a8.251,8.251,0,0,0,1.483-5.576h0q-.022-.163-.053-.329h0a6.869,6.869,0,0,0-.692-1.952,5.426,5.426,0,0,1-.089-.772v-.683a2.318,2.318,0,0,1,.036-.346v-.043a.426.426,0,0,1,.022-.132v-.055a.643.643,0,0,1,.029-.13V226.9c.015-.058.029-.115.048-.173V226.7q.022-.072.048-.142l.022-.055.048-.115.024-.058c.019-.043.041-.087.063-.13l.017-.036c.029-.053.059-.1.091-.156l.026-.041.079-.113.039-.05.084-.1.039-.043c.043-.046.087-.091.135-.135,1.315-1.2,7.182-10.059,7.182-10.059s1.416-1.993,1.416-3.286C795.349,212.148,797.852,203.807,797.6,201.271Zm-15.751,74.453c-.144-1.365-.288-3.057-.421-4.807l2.288,3.567S783.5,275.57,781.848,275.724Z" transform="translate(-597.251 -176.795)"/><path class="u" d="M771.5,524.471a2.07,2.07,0,0,0-3.428-.195c-2.058,1.969-3.524,8.516-3.524,8.516s-.784,5.288,1.86,3.915c0,0,3.125-4.406,4.014-4.6s1.86-2.644,1.86-2.644Z" transform="translate(-610.759 -426.296)"/><path class="u" d="M838.862,548.246s-1.86-.882-2.447-.195-2.546,7.538-2.546,7.538-.586,4.5,1.37,4.307,5.384-7.249,5.384-7.249Z" transform="translate(-663.439 -444.786)"/><path class="v" d="M858.219,456.607l4.209,6.56s-.293,1.469-2.839,1.175l-8.713,5.483s-.757,6.675,1.663,6.069c.392-.1,3.125-2.937,5.091-2.74l11.554-4.5s2.74-1.567,1.272-6.754-6.324-17.215-6.324-17.215l-7.675,4.293Z" transform="translate(-676.335 -366.461)"/><path class="w" d="M858.219,456.607l4.209,6.56s-.293,1.469-2.839,1.175l-8.713,5.483s-.757,6.675,1.663,6.069c.392-.1,3.125-2.937,5.091-2.74l11.554-4.5s2.74-1.567,1.272-6.754-6.324-17.215-6.324-17.215l-7.675,4.293Z" transform="translate(-676.335 -366.461)"/><path class="x" d="M813.41,443.98c.587,3.721-2.74,4.014-2.74,4.014s-14.979.293-16.741-.1a7.948,7.948,0,0,0-4.113.685c-3.036-1.86-.586-6.461-.586-6.461s6.266-.195,7.735-.481,8.908-.692,8.908-.692-.586-3.622-4.5-12.823c-2.661-6.249-.721-9.927.81-11.641a6.449,6.449,0,0,1,1.344-1.183l12.042.586a15.572,15.572,0,0,0,.067,1.82,19.375,19.375,0,0,0,1.6,6.009c-.685,0-5.091,4.113-5.091,4.113S812.821,440.262,813.41,443.98Z" transform="translate(-628.882 -344.143)"/><path class="e" d="M790.113,442.534s6.266-.195,7.735-.481,8.908-.685,8.908-.685-.586-3.622-4.5-12.823c-2.661-6.249-.721-9.927.81-11.641a6.449,6.449,0,0,1,1.344-1.183l11.158.543v-.348l-12.042-.587a6.446,6.446,0,0,0-1.344,1.183c-1.524,1.716-3.471,5.391-.81,11.641,3.928,9.194,4.509,12.816,4.509,12.816s-7.451.392-8.908.685-7.735.481-7.735.481-2.447,4.6.587,6.471c0,0,.091-.043.24-.106C788.043,446.426,790.113,442.534,790.113,442.534Z" transform="translate(-628.886 -344.165)"/><rect class="y" width="6.069" height="15.369" transform="translate(173.072 35.225)"/><rect class="e" width="6.069" height="15.369" transform="translate(173.072 35.225)"/><path class="y" d="M876.1,248.218c.209.058.445.065.586.353a2.157,2.157,0,0,1,.142.721l.382,4.75a2.651,2.651,0,0,0,.178.909c.161.322.428.361.637.567a3.142,3.142,0,0,1,.428,2.32,15.264,15.264,0,0,1-.634,2.356,22.224,22.224,0,0,1-1,3.281c-.459.933-1.293,1.442-1.832.659s-.466-2.365-.567-3.661c-.168-2.163-1.012-4.028-1.07-6.206a24.9,24.9,0,0,1,.721-5.077c.211-1.147.224-2.538.531-3.569C874.859,246.846,875.349,248.012,876.1,248.218Z" transform="translate(-693.49 -215.248)"/><path class="e" d="M876.1,248.218c.209.058.445.065.586.353a2.157,2.157,0,0,1,.142.721l.382,4.75a2.651,2.651,0,0,0,.178.909c.161.322.428.361.637.567a3.142,3.142,0,0,1,.428,2.32,15.264,15.264,0,0,1-.634,2.356,22.224,22.224,0,0,1-1,3.281c-.459.933-1.293,1.442-1.832.659s-.466-2.365-.567-3.661c-.168-2.163-1.012-4.028-1.07-6.206a24.9,24.9,0,0,1,.721-5.077c.211-1.147.224-2.538.531-3.569C874.859,246.846,875.349,248.012,876.1,248.218Z" transform="translate(-693.49 -215.248)"/><path class="z" d="M756.755,205.406l-2.348,1.959s-.279-.327-.695-.856c-1.632-2.084-5.384-7.312-2.733-8.247s4.747,4.163,5.487,6.269C756.654,205.064,756.755,205.406,756.755,205.406Z" transform="translate(-599.836 -179.187)"/><path class="z" d="M940.2,204.907c-.978,1.469-2.348,0-2.348,0s-.175-.262-.423-.685c-.805-1.363-2.384-4.384-1.339-5.581,1.2-1.368,4.18,3.3,4.271,5.49A1.3,1.3,0,0,1,940.2,204.907Z" transform="translate(-740.885 -179.373)"/><path class="z" d="M854.08,286.229s1.959,6.266,1.37,8.124,4.211,4.021,4.211,4.021h5.483s1.959-4.014,1.468-5.19-4.7-2.055-4.7-2.055-2.447,0-2.348-6.56Z" transform="translate(-678.854 -244.835)"/><path class="e" d="M768.3,225.575l-2.349,1.959s-.279-.327-.695-.856a7.63,7.63,0,0,0,2.757-1.978C768.2,225.234,768.3,225.575,768.3,225.575Z" transform="translate(-611.384 -199.356)"/><path class="e" d="M945.521,223.014c-.978,1.469-2.348,0-2.348,0s-.175-.262-.423-.685l.031-.1c.635.454,2.608.067,2.9,0A1.3,1.3,0,0,1,945.521,223.014Z" transform="translate(-746.211 -197.48)"/><path class="e" d="M859.461,417.688c-3.029,1.382-12.869-1.079-13.461-1.226a6.451,6.451,0,0,1,1.344-1.183l12.042.586A15.588,15.588,0,0,0,859.461,417.688Z" transform="translate(-672.717 -344.128)"/><path class="u" d="M787.306,244.9s-2.348.784-5.677-2.252c0,0-7.451-7.343-7.932-9.105l-5.769-10.1s-2.447,2.644-3.428,2.252l6.461,11.259a8.593,8.593,0,0,0,2.252,2.74s8.028,10.28,8.124,12.335,3.617,7.559,3.617,7.559,1.175,8.908-.882,10.475c0,0,11.453,2.937,13.9.978,0,0-1.077-11.057,0-12.237,0,0,3.329-3.916,1.077-8.223,0,0-.481-2.348.784-3.524s6.951-9.889,6.951-9.889a7.855,7.855,0,0,0,1.37-3.23s2.545-8.615,2.163-10.867c0,0-2.252.481-2.937,0,0,0-3.329,10.1-3.721,10.475s-3.125,8.321-6.754,9.2a18.78,18.78,0,0,0-4.209,1.272s7.047,4.406,3.622,6.362S787.306,244.9,787.306,244.9Z" transform="translate(-610.806 -198.126)"/><path class="e" d="M860.115,288.951a18.707,18.707,0,0,1-.142-2.781l-5.483,1.663a7.408,7.408,0,0,1,.344,1.125,6.533,6.533,0,0,0,2.2.93A4.993,4.993,0,0,0,860.115,288.951Z" transform="translate(-679.166 -246.051)"/><circle class="z" cx="5.091" cy="5.091" r="5.091" transform="translate(172.68 33.365)"/><path class="e" d="M825.844,246.4c-1.12.087-2.37.861-2.307,1.983a7.539,7.539,0,0,0,.642,1.731c.445,1.43-.546,2.865-1.416,4.086s-1.682,2.839-.937,4.132a10.207,10.207,0,0,0,.687.9c.921,1.243.909,2.92,1.317,4.413a7.742,7.742,0,0,0,9.1,5.528A4.841,4.841,0,0,1,831.9,265.9a5.632,5.632,0,0,0,0-2.541c-.428-1.017-1.683-1.418-2.329-2.307a3.688,3.688,0,0,1-.291-3.182c.313-1.06.853-2.043,1.113-3.125a9.443,9.443,0,0,1,.24-.935,4.179,4.179,0,0,1,3.125-2.348c1.322-.32,2.711-.339,4-.76a3.65,3.65,0,0,0,2.694-2.759c-1.086.435-2.094-.7-3.141-1.221-1.726-.856-3.694-.051-5.473.147C829.818,247.092,827.895,246.254,825.844,246.4Z" transform="translate(-654.13 -215.79)"/><path class="y" d="M825.434,245.593c-1.12.087-2.37.861-2.307,1.983a7.529,7.529,0,0,0,.642,1.731c.445,1.43-.546,2.865-1.416,4.086s-1.683,2.839-.937,4.132a10.2,10.2,0,0,0,.687.9c.921,1.243.909,2.92,1.317,4.413a7.742,7.742,0,0,0,9.1,5.528,4.841,4.841,0,0,1-1.022-3.274,5.629,5.629,0,0,0,0-2.541c-.428-1.017-1.683-1.418-2.329-2.307a3.687,3.687,0,0,1-.291-3.182c.312-1.06.853-2.043,1.113-3.125a9.427,9.427,0,0,1,.24-.935,4.179,4.179,0,0,1,3.125-2.348c1.322-.32,2.711-.339,4-.76a3.65,3.65,0,0,0,2.695-2.759c-1.086.435-2.094-.7-3.142-1.221-1.726-.856-3.694-.051-5.473.147C829.412,246.28,827.5,245.432,825.434,245.593Z" transform="translate(-653.819 -215.175)"/><path class="e" d="M885.65,326.3a16.406,16.406,0,0,1,2.44,2.622" transform="translate(-702.836 -276.535)"/><path class="e" d="M879.555,371.51a21.923,21.923,0,0,0-3.721.293,17.492,17.492,0,0,1-4.014,0" transform="translate(-692.33 -310.878)"/><g class="g" transform="translate(153.691 24.947)"><path d="M885.4,316.572a2.447,2.447,0,0,1-.7.269,2.692,2.692,0,0,0,1.88-.269c3.428-1.959-3.622-6.362-3.622-6.362H881.78S888.83,314.616,885.4,316.572Z" transform="translate(-853.588 -289.26)"/><path d="M951.263,223.228a1.035,1.035,0,0,0-.024-.178,11.5,11.5,0,0,1-1.219.185A5.4,5.4,0,0,0,951.263,223.228Z" transform="translate(-905.426 -223.05)"/><path d="M785.243,278.4c2.055-1.567.882-10.475.882-10.475s-3.524-5.483-3.622-7.538-8.124-12.336-8.124-12.336a8.7,8.7,0,0,1-2.252-2.74s-6.658-10.867-7.636-11.259l6.461,11.259a8.591,8.591,0,0,0,2.252,2.74s8.028,10.28,8.124,12.336,3.62,7.545,3.62,7.545,1.175,8.908-.882,10.475c0,0,7.04,1.805,11.261,1.642A58.907,58.907,0,0,1,785.243,278.4Z" transform="translate(-764.49 -231.406)"/><path d="M858.792,313.955l-.058-.074a1.55,1.55,0,0,1-.2.046C858.621,313.938,858.708,313.947,858.792,313.955Z" transform="translate(-835.926 -292.048)"/></g><g class="g" transform="translate(187.073 24.935)"><path d="M918.912,223l-.06.012c-.1,3.007-2.19,10.071-2.19,10.071a7.855,7.855,0,0,1-1.37,3.23s-5.677,8.713-6.951,9.889-.784,3.524-.784,3.524l.012.024a3.554,3.554,0,0,1,.868-2.767c1.271-1.175,6.951-9.889,6.951-9.889a7.855,7.855,0,0,0,1.37-3.23C916.758,233.879,919.3,225.264,918.912,223Z" transform="translate(-906.48 -223)"/><path d="M903.37,351c.147.832.048-.048.1.784a8.291,8.291,0,0,0,1.747-6.3A8.57,8.57,0,0,1,903.37,351Z" transform="translate(-903.37 -316.04)"/></g><ellipse class="aa" cx="102.797" cy="9.874" rx="102.797" ry="9.874" transform="translate(10.129 139.253)"/><path class="ab" d="M424.756,578.1s-3.5-11.886.656-20.633a18.773,18.773,0,0,0,1.519-11.778,31.578,31.578,0,0,0-1.668-5.528" transform="translate(-351.678 -438.991)"/><path class="x" d="M425.265,508.207c0,1.457-2.644,5.68-2.644,5.68s-2.644-4.223-2.644-5.68a2.644,2.644,0,1,1,5.274,0Z" transform="translate(-349.089 -412.562)"/><path class="x" d="M443.36,537.361c-.791,1.223-5.3,3.334-5.3,3.334s.082-4.978.873-6.2a2.644,2.644,0,1,1,4.428,2.868Z" transform="translate(-362.831 -433.649)"/><path class="x" d="M439.569,592.029c-1.3.656-6.249.2-6.249.2s2.584-4.257,3.884-4.913a2.644,2.644,0,1,1,2.375,4.709Z" transform="translate(-359.23 -474.527)"/><path class="x" d="M429.557,636.747c-1.171.865-6.137,1.257-6.137,1.257s1.827-4.632,3-5.5a2.644,2.644,0,0,1,3.125,4.24Z" transform="translate(-351.71 -508.847)"/><path class="x" d="M412.024,551.04c1.046,1.014,5.913,2.067,5.913,2.067s-1.2-4.834-2.238-5.85a2.644,2.644,0,1,0-3.675,3.783Z" transform="translate(-342.337 -443.71)"/><path class="x" d="M399.474,601.059c1.3.656,6.25.2,6.25.2s-2.574-4.257-3.875-4.9a2.644,2.644,0,0,0-2.375,4.709Z" transform="translate(-332.544 -481.528)"/><path class="x" d="M395.151,651.905c1.171.865,6.136,1.257,6.136,1.257s-1.827-4.632-3-5.5a2.644,2.644,0,1,0-3.125,4.24Z" transform="translate(-329.279 -520.15)"/><path class="ab" d="M719.4,578.809s-3.5-11.886.656-20.633a18.772,18.772,0,0,0,1.519-11.778,31.564,31.564,0,0,0-1.668-5.528" transform="translate(-575.497 -439.53)"/><path class="k" d="M719.908,510.141c0,1.457-2.644,5.68-2.644,5.68s-2.644-4.223-2.644-5.68a2.644,2.644,0,0,1,5.274,0Z" transform="translate(-572.916 -414.327)"/><path class="k" d="M738.01,538.061c-.791,1.223-5.3,3.334-5.3,3.334s.082-4.978.873-6.2a2.644,2.644,0,1,1,4.427,2.868Z" transform="translate(-586.657 -434.18)"/><path class="k" d="M734.25,592.714c-1.3.656-6.25.2-6.25.2s2.584-4.257,3.884-4.913a2.644,2.644,0,1,1,2.365,4.711Z" transform="translate(-583.079 -475.043)"/><path class="k" d="M724.2,637.447c-1.171.865-6.137,1.257-6.137,1.257s1.827-4.632,3-5.5a2.644,2.644,0,0,1,3.125,4.24Z" transform="translate(-575.529 -509.378)"/><path class="k" d="M706.683,551.74c1.046,1.014,5.913,2.067,5.913,2.067s-1.2-4.834-2.238-5.851a2.644,2.644,0,1,0-3.675,3.783Z" transform="translate(-566.171 -444.242)"/><path class="k" d="M694.084,601.721c1.3.656,6.25.2,6.25.2s-2.584-4.257-3.884-4.913a2.644,2.644,0,0,0-2.375,4.709Z" transform="translate(-556.333 -482.022)"/><path class="k" d="M691,653.487c1.171.865,6.137,1.257,6.137,1.257s-1.827-4.632-3-5.5a2.644,2.644,0,0,0-3.125,4.24Z" transform="translate(-554.303 -521.563)"/><path class="ac" d="M719.908,510.141c0,1.457-2.644,5.68-2.644,5.68s-2.644-4.223-2.644-5.68a2.644,2.644,0,0,1,5.274,0Z" transform="translate(-572.916 -414.327)"/><path class="ac" d="M738.01,538.061c-.791,1.223-5.3,3.334-5.3,3.334s.082-4.978.873-6.2a2.644,2.644,0,1,1,4.427,2.868Z" transform="translate(-586.657 -434.18)"/><path class="ac" d="M734.25,592.714c-1.3.656-6.25.2-6.25.2s2.584-4.257,3.884-4.913a2.644,2.644,0,1,1,2.365,4.711Z" transform="translate(-583.079 -475.043)"/><path class="ac" d="M724.2,637.447c-1.171.865-6.137,1.257-6.137,1.257s1.827-4.632,3-5.5a2.644,2.644,0,0,1,3.125,4.24Z" transform="translate(-575.529 -509.378)"/><path class="ac" d="M706.683,551.74c1.046,1.014,5.913,2.067,5.913,2.067s-1.2-4.834-2.238-5.851a2.644,2.644,0,1,0-3.675,3.783Z" transform="translate(-566.171 -444.242)"/><path class="ac" d="M694.084,601.721c1.3.656,6.25.2,6.25.2s-2.584-4.257-3.884-4.913a2.644,2.644,0,0,0-2.375,4.709Z" transform="translate(-556.333 -482.022)"/><path class="ac" d="M691,653.487c1.171.865,6.137,1.257,6.137,1.257s-1.827-4.632-3-5.5a2.644,2.644,0,0,0-3.125,4.24Z" transform="translate(-554.303 -521.563)"/><path class="ad" d="M173.67,634s4.206,8.256.779,12.773.312,16.825.312,16.825" transform="translate(-161.484 -510.275)"/><path class="k" d="M173.616,614.145a4.865,4.865,0,0,1-1.168,2.884,4.145,4.145,0,0,1,0-5.769A4.865,4.865,0,0,1,173.616,614.145Z" transform="translate(-160.175 -493.001)"/><path class="ad" d="M178.139,634s-4.206,8.256-.779,12.773-.312,16.825-.312,16.825" transform="translate(-163.772 -510.275)"/><path class="k" d="M179.67,614.145a4.865,4.865,0,0,0,1.168,2.884,4.145,4.145,0,0,0,0-5.769A4.865,4.865,0,0,0,179.67,614.145Z" transform="translate(-166.548 -493.001)"/><path class="e" d="M179.67,614.145a4.865,4.865,0,0,0,1.168,2.884,4.145,4.145,0,0,0,0-5.769A4.865,4.865,0,0,0,179.67,614.145Z" transform="translate(-166.548 -493.001)"/><path class="ad" d="M189.89,634s4.206,8.256.779,12.773.312,16.825.312,16.825" transform="translate(-173.805 -510.275)"/><path class="k" d="M189.786,614.145a4.865,4.865,0,0,1-1.168,2.884,4.145,4.145,0,0,1,0-5.769A4.865,4.865,0,0,1,189.786,614.145Z" transform="translate(-172.458 -493.001)"/><path class="k" d="M185.461,641.664a4.856,4.856,0,0,1-2.841,1.267,4.138,4.138,0,0,1,4-4.151A4.907,4.907,0,0,1,185.461,641.664Z" transform="translate(-168.789 -513.906)"/><path class="k" d="M185.921,665.365a4.857,4.857,0,0,1-2.841,1.267,4.138,4.138,0,0,1,4-4.151A4.853,4.853,0,0,1,185.921,665.365Z" transform="translate(-169.139 -531.909)"/><path class="k" d="M161.241,683.051a4.855,4.855,0,0,1,1.007,2.942,4.14,4.14,0,0,1-3.779-4.353A4.856,4.856,0,0,1,161.241,683.051Z" transform="translate(-150.444 -546.464)"/><path class="k" d="M164.368,634.928a4.856,4.856,0,0,1,1.757,2.567,4.138,4.138,0,0,1-4.8-3.185A4.806,4.806,0,0,1,164.368,634.928Z" transform="translate(-152.609 -510.482)"/><path class="e" d="M164.368,634.928a4.856,4.856,0,0,1,1.757,2.567,4.138,4.138,0,0,1-4.8-3.185A4.806,4.806,0,0,1,164.368,634.928Z" transform="translate(-152.609 -510.482)"/><path class="ad" d="M194.339,634s-4.206,8.256-.779,12.773-.312,16.825-.312,16.825" transform="translate(-176.078 -510.275)"/><path class="k" d="M195.87,614.145a4.865,4.865,0,0,0,1.168,2.884,4.145,4.145,0,0,0,0-5.769A4.865,4.865,0,0,0,195.87,614.145Z" transform="translate(-178.855 -493.001)"/><path class="e" d="M195.87,614.145a4.865,4.865,0,0,0,1.168,2.884,4.145,4.145,0,0,0,0-5.769A4.865,4.865,0,0,0,195.87,614.145Z" transform="translate(-178.855 -493.001)"/><path class="k" d="M193.472,647.393a4.922,4.922,0,0,0-1.2,2.884,4.851,4.851,0,0,0,2.856-1.233,4.922,4.922,0,0,0,1.2-2.884A4.85,4.85,0,0,0,193.472,647.393Z" transform="translate(-176.12 -519.512)"/><path class="e" d="M193.472,647.393a4.922,4.922,0,0,0-1.2,2.884,4.851,4.851,0,0,0,2.856-1.233,4.922,4.922,0,0,0,1.2-2.884A4.85,4.85,0,0,0,193.472,647.393Z" transform="translate(-176.12 -519.512)"/><path class="k" d="M202.582,680.2a4.922,4.922,0,0,0-1.2,2.884,4.85,4.85,0,0,0,2.856-1.233,4.923,4.923,0,0,0,1.2-2.884A4.834,4.834,0,0,0,202.582,680.2Z" transform="translate(-183.04 -544.436)"/><path class="ad" d="M193,663.976s2.531-3.99,6.086-4.086" transform="translate(-176.674 -529.942)"/><path class="ad" d="M165.536,653.946s-2.531-3.99-6.086-4.086" transform="translate(-151.189 -522.323)"/><path class="ad" d="M183.4,677.646s2.531-3.99,6.086-4.086" transform="translate(-169.382 -540.326)"/><circle class="k" cx="0.656" cy="0.656" r="0.656" transform="translate(21.633 129.27)"/><circle class="k" cx="0.656" cy="0.656" r="0.656" transform="translate(7.668 126.915)"/><path class="ad" d="M171.916,683.086s-2.531-3.99-6.086-4.086" transform="translate(-156.035 -544.459)"/><circle class="k" cx="0.656" cy="0.656" r="0.656" transform="translate(9.201 133.924)"/><circle class="k" cx="0.656" cy="0.656" r="0.656" transform="translate(19.496 132.611)"/><path class="r" d="M173.674,718.208s-6.1-1.221-7.73-2.848-8.946-4.473-9.761-2.44-10.982,8.949-4.067,10.17,16.27,1.627,18.3.812S173.674,718.208,173.674,718.208Z" transform="translate(-143.797 -569.689)"/><path class="ae" d="M152.125,741.138c6.915,1.221,16.27,1.627,18.3.813,1.548-.62,2.625-3.605,3.05-4.981l.2.043s-1.221,4.882-3.255,5.694-11.388.406-18.3-.812c-2-.353-2.567-1.18-2.351-2.226C149.942,740.342,150.639,740.876,152.125,741.138Z" transform="translate(-143.806 -588.495)"/><path class="x" d="M1002.417,641.78s2.014,2.644-.93,6.61-5.372,7.333-4.389,9.814c0,0,4.442-7.386,8.057-7.49S1006.4,646.22,1002.417,641.78Z" transform="translate(-787.327 -516.185)"/><path class="e" d="M1002.778,641.78a3.253,3.253,0,0,1,.411.827c3.529,4.144,5.406,8.011,2.017,8.11-3.158.091-6.947,5.738-7.855,7.165a3.058,3.058,0,0,0,.108.324s4.442-7.386,8.057-7.49S1006.755,646.22,1002.778,641.78Z" transform="translate(-787.687 -516.185)"/><path class="af" d="M1033.991,653.878c0,.928-.1,1.683-.24,1.683s-.24-.752-.24-1.683.13-.481.257-.481S1033.991,652.952,1033.991,653.878Z" transform="translate(-815.156 -524.927)"/><path class="af" d="M1035.841,658.344c-.815.445-1.524.721-1.584.6s.548-.565,1.363-1.007.493-.12.555,0S1036.654,657.9,1035.841,658.344Z" transform="translate(-815.72 -528.285)"/><path class="x" d="M961.383,641.78s-2.014,2.644.93,6.61,5.372,7.333,4.389,9.814c0,0-4.442-7.386-8.057-7.49S957.405,646.22,961.383,641.78Z" transform="translate(-756.932 -516.185)"/><path class="e" d="M961.383,641.78a3.245,3.245,0,0,0-.411.827c-3.529,4.144-5.406,8.011-2.017,8.11,3.158.091,6.947,5.738,7.855,7.165a3.143,3.143,0,0,1-.108.324s-4.442-7.386-8.057-7.49S957.405,646.22,961.383,641.78Z" transform="translate(-756.932 -516.185)"/><path class="af" d="M960.09,653.878c0,.928.1,1.683.24,1.683s.24-.752.24-1.683-.13-.481-.257-.481S960.09,652.952,960.09,653.878Z" transform="translate(-759.383 -524.927)"/><path class="af" d="M953.17,658.344c.815.445,1.524.721,1.584.6s-.548-.565-1.363-1.007-.493-.12-.555,0S952.355,657.9,953.17,658.344Z" transform="translate(-753.749 -528.285)"/><path class="r" d="M962.76,699.057s5.632-.173,7.329-1.382,8.653-2.644,9.083-.721,8.463,9.641,2.106,9.692-14.773-.99-16.467-2.021S962.76,699.057,962.76,699.057Z" transform="translate(-761.412 -557.383)"/><path class="ae" d="M981.391,715.577c-6.358.05-14.773-.99-16.467-2.021-1.291-.786-1.805-3.605-1.976-4.906h-.187s.356,4.543,2.05,5.574,10.11,2.074,16.467,2.021c1.836-.014,2.469-.668,2.435-1.635C983.458,715.2,982.768,715.565,981.391,715.577Z" transform="translate(-761.412 -566.982)"/><ellipse class="aa" cx="39.797" cy="9.874" rx="39.797" ry="9.874" transform="translate(73.129 139.253)"/></g></svg>