<svg xmlns="http://www.w3.org/2000/svg"
  xmlns:xlink="http://www.w3.org/1999/xlink" width="182" height="129" viewBox="0 0 182 129">
  <defs>
    <style>.a,.e,.l{fill:#0c263d;}.b{opacity:0.395;}.c{opacity:0.39;}.d{fill:#00afff;}.e,.j{opacity:0.1;}.f{fill:url(#a);}.g{fill:#00c3ae;}.h{fill:#3f3d56;}.i{fill:#f8af40;}.k{opacity:0.4;}.l{opacity:0.897;}.m{fill:#2f2e41;}.n{fill:#c19a89;}.o{fill:#d0cde1;}</style>
    <linearGradient id="a" x1="0.5" x2="0.5" y2="1" gradientUnits="objectBoundingBox">
      <stop offset="0" stop-color="#00afff"/>
      <stop offset="0.1" stop-color="#2dc0f7"/>
      <stop offset="0.2" stop-color="#28c0ef"/>
      <stop offset="0.3" stop-color="#23c0e7"/>
      <stop offset="0.4" stop-color="#1ec1df"/>
      <stop offset="0.5" stop-color="#19c1d7"/>
      <stop offset="0.6" stop-color="#14c1cf"/>
      <stop offset="0.7" stop-color="#0fc2c7"/>
      <stop offset="0.8" stop-color="#0ac2bf"/>
      <stop offset="0.9" stop-color="#05c2b7"/>
      <stop offset="1" stop-color="#00c3af"/>
    </linearGradient>
  </defs>
  <path class="a" d="M91,0c50.258,0,91,1.894,91,4.23s-40.742,4.23-91,4.23S0,6.566,0,4.23,40.742,0,91,0Z" transform="translate(0 120.541)"/>
  <ellipse class="b" cx="21.148" cy="2.942" rx="21.148" ry="2.942" transform="translate(113.406 122.563)"/>
  <ellipse class="c" cx="26.665" cy="3.494" rx="26.665" ry="3.494" transform="translate(33.638 121.46)"/>
  <path class="d" d="M404.006,218.062l4.671-1.068,3.47,1.068-26.425,94.49-3.737,2.135,3.737-48.313Z" transform="translate(-311.766 -190.171)"/>
  <path class="e" d="M404.006,218.062l4.671-1.068,3.47,1.068-26.425,94.49-3.737,2.135,3.737-48.313Z" transform="translate(-311.766 -190.171)"/>
  <path class="f" d="M143.582,63.5l43.292,120.786L212.71,91.714Z" transform="translate(-117.178 -63.502)"/>
  <path class="g" d="M206.715,533.145c7.472,6.759,6.062,13.56,1.106,19.039q-.173.191-.348.376-.353.373-.717.722c-4.823,4.628-11.041,5.989-17.989-.3-7.191-6.5-7.952-23.9-8-25.2,0,0,0,0,0,0,0-.049,0-.074,0-.074S199.244,526.387,206.715,533.145Z" transform="translate(-166.832 -455.009)"/>
  <path class="h" d="M206.192,552.151l-1.787-8.214,2.336,8.727.573.536q-.353.373-.717.722l-7.121-7.152-.061-.049,0-.017-.673-.676-8.939-1.455,8.419.966.158.126-5.38-5.4-8.652-2.15,7.694,1.214-11.431-10.9-.038-.036.038.035,9.187,8.4-.85-6.418,1.633,7.151,4.982,4.656-2.227-7.292,2.96,7.976,2.77,2.589-2.945-10.323,3.911,11.226Z" transform="translate(-166.673 -455.611)"/>
  <path class="i" d="M291.263,488.307a31.263,31.263,0,1,0,31.263,31.263A31.263,31.263,0,0,0,291.263,488.307Zm.552,38.894c-3.5,0-6.344-3.458-6.344-7.724s2.841-7.724,6.344-7.724,6.344,3.458,6.344,7.724S295.318,527.2,291.814,527.2Z" transform="translate(-231.51 -423.304)"/>
  <path class="j" d="M376.929,620.659c-3.5,0-6.345-3.458-6.345-7.724s2.841-7.724,6.345-7.724c3.393,0,6.165,3.244,6.336,7.323,0-.111.008-.223.008-.335a9.377,9.377,0,1,0-4.957,8.272A5.277,5.277,0,0,1,376.929,620.659Z" transform="translate(-316.812 -516.466)"/>
  <path class="a" d="M777.994,725.307H776v17.1s12.87,4.23,25.378,0v-17.1Z" transform="translate(-652.651 -616.72)"/>
  <ellipse class="a" cx="12.689" cy="1.931" rx="12.689" ry="1.931" transform="translate(123.349 106.749)"/>
  <ellipse class="k" cx="12.689" cy="1.931" rx="12.689" ry="1.931" transform="translate(123.349 106.749)"/>
  <path class="l" d="M846.636,509.065c-3.2,11.833-14.165,19.161-14.165,19.161S826.7,516.37,829.9,504.537s14.165-19.161,14.165-19.161S849.837,497.232,846.636,509.065Z" transform="translate(-695.85 -420.576)"/>
  <path class="g" d="M762.568,509.065c3.2,11.833,14.165,19.161,14.165,19.161s5.774-11.856,2.573-23.689-14.165-19.161-14.165-19.161S759.367,497.232,762.568,509.065Z" transform="translate(-640.897 -420.576)"/>
  <path class="a" d="M695.018,559.229c8.784,8.55,9.856,21.694,9.856,21.694s-13.168-.719-21.952-9.269-9.856-21.695-9.856-21.695S686.234,550.678,695.018,559.229Z" transform="translate(-568.641 -473.322)"/>
  <path class="a" d="M855.889,559.229c-8.784,8.55-9.856,21.695-9.856,21.695s13.168-.719,21.952-9.269,9.856-21.695,9.856-21.695S864.673,550.679,855.889,559.229Z" transform="translate(-709.817 -473.322)"/>
  <circle class="g" cx="4.046" cy="4.046" r="4.046" transform="translate(132.178 61.082)"/>
  <path class="m" d="M422.956,313.661s7.787.212,9.074.68,1.861,3.814,1.861,3.814l-6.046,1.9-4.522-.256-3.4.24,1.9-4.977Z" transform="translate(-362.026 -279.786)"/>
  <path class="n" d="M434.856,299.766a4.219,4.219,0,0,1-.625,3.38c-1.137,1.4,4.888,6.394,4.888,6.394l3.179-.546s-.7-6.08.24-7.62S434.856,299.766,434.856,299.766Z" transform="translate(-373.59 -268.429)"/>
  <path class="j" d="M434.856,299.766a4.219,4.219,0,0,1-.625,3.38c-1.137,1.4,4.888,6.394,4.888,6.394l3.179-.546s-.7-6.08.24-7.62S434.856,299.766,434.856,299.766Z" transform="translate(-373.59 -268.429)"/>
  <path class="n" d="M417.095,550.693l-7.014,9.3,4.786,2.794,6.588-10.778Z" transform="translate(-334.694 -462.173)"/>
  <path class="a" d="M511.974,655.035s-2.583-3-2.468-2.332-1.838,6.344-.021,6.893,17.4,2,17.611.246-4.648-2.991-4.648-2.991-2.889-2.776-3.529-2.494S511.974,655.035,511.974,655.035Z" transform="translate(-434.493 -557.102)"/>
  <path class="n" d="M439.663,595.8l5.6,9.544,4.229-2.449-5.649-7.814Z" transform="translate(-358.837 -498.479)"/>
  <path class="a" d="M553.657,536.281l-1.663,2.353s-7.926,11.008-7.084,11.9,4.347,4.248,6.13,3.6,8.117-11.9,8.117-11.9l-1.652-6.606Z" transform="translate(-463.989 -461.469)"/>
  <path class="a" d="M405.651,470.178a10.069,10.069,0,0,0,6.274,4.434A75.16,75.16,0,0,1,421.292,478c.167-.029.64-.282.755.387s1.349,1.835,1.349,1.835,4.969,16.887,6.867,16.905,5.8-1.341,5.879-1.872-5.811-17.776-5.869-18.11l-.69-4.015s7.793,1.244,8.519,1.464,7.191,3.759,7.191,3.759,6.59-4.75.426-9.547-16.759-8.315-16.759-8.315l-3.8-1.069-3.313-.2-.488-1.87-7.845.453-8.187,3.474Z" transform="translate(-350.121 -397.593)"/>
  <circle class="n" cx="6.111" cy="6.111" r="6.111" transform="translate(59.776 23.142)"/>
  <path class="o" d="M416.6,314.1l.735-.126s1.328,5.111,5.434,5.956c0,0,2.026-2.428,1.94-2.837s1.6-2.595,2.5-1.372-.22,22.774.536,23.161,2.376.8,1.072,2.227-6.486,3.354-7.633,2.69-3.492-6.289-4.507-8.182-2.638-8.331-2.638-8.331-2.073-7.05-.8-8.647S416.6,314.1,416.6,314.1Z" transform="translate(-356.246 -280.138)"/>
  <path class="a" d="M399.4,337.331a34.863,34.863,0,0,1-.7,4.463c-.3,1.2-.649,1.919-1.047,1.889-1.016-.076-1.478,1.414-1.716,3.133-.255,1.823-.255,3.9-.394,4.637-.185.971-1.367,1.712-3.73,1.495a16.673,16.673,0,0,1-4.11-1.008c-3.19-1.16-3.1-10.566-2.562-17.546.326-4.278.817-7.647.817-7.647a37.983,37.983,0,0,1-1.279-4.871,6.483,6.483,0,0,1-.092-1.094c.047-1.731,3.207-6.407,5.116-9.32a2.95,2.95,0,0,1,4.518-.776l-.907,2.738a9.333,9.333,0,0,1,1.416,4.235c.01,2.065,3.367,3.556,4.572,4.555C400.055,322.843,400.037,331.228,399.4,337.331Z" transform="translate(-333.187 -276.897)"/>
  <path class="a" d="M477.869,319.361s.22.26,1.229.133c1.209-.152,2.872.266,3.258,1.421.708,2.117,2.706,10.731,2.706,10.731s.831,9.847,1.205,12.022.188,4.1.557,5.244-3.639-2.13-5.116-1.7-2.426-5.095-2.24-7.022a17.376,17.376,0,0,0-.17-6c-.512-1.979.4-7.216.362-8.416S476.4,321.547,477.869,319.361Z" transform="translate(-409.01 -284.545)"/>
  <path class="n" d="M496.134,485.787s6.471,3.53,7.09,8.554-8.655-4.865-8.655-4.865Z" transform="translate(-422.952 -420.629)"/>
  <path class="n" d="M523.164,463.86s1.983,9.994,5.071,9.463-1.725-10.038-1.725-10.038Z" transform="translate(-446.29 -402.219)"/>
  <path class="a" d="M568.331,696.936s-1.582,1.822-1.974,1.545-1.294,3.495-.481,4.216,3.945,1.906,3.979,3.106,8.433.962,8.734-.3-1.053-4.125-2.005-4.651-4.47-5.361-4.47-5.361S569.358,695.9,568.331,696.936Z" transform="translate(-480.883 -592.391)"/>
  <path class="j" d="M405.753,397.562c-1.5-1.059-5.69-1.322-9.41-1.566-1.632-.1-3.174-.207-4.358-.374-1.141-.158-2.168-1.2-3.079-2.755a38.383,38.383,0,0,1-3.358-9.293c.326-4.278.817-7.647.817-7.647a37.975,37.975,0,0,1-1.279-4.871,2.607,2.607,0,0,1,.825-.743c3.946-1.694,7.712,14.973,8.191,17.589.008.043.014.084.021.119.232,1.347,2.738,2.5,4.984,2.954a5.324,5.324,0,0,0,3.264-.066c1.558-.957,6.349,2.872,6.713,2.981S407.909,399.087,405.753,397.562Z" transform="translate(-333.598 -326.142)"/>
  <path class="a" d="M381.022,364.733s-2.868,1.354-1.608,7.683,3.8,17.088,7.68,17.627,11.612.416,13.768,1.94,3.694-3.563,3.33-3.673-5.155-3.937-6.713-2.98-7.874-.714-8.248-2.889S385.032,363.01,381.022,364.733Z" transform="translate(-328.708 -321.574)"/>
  <path class="a" d="M501.946,348.765l3.152,7.313s.317-.158.686.984a8.108,8.108,0,0,0,1.187,2.9c.646.75,3.519,11.452,3.6,11.954s-3.968,2.232-4.874.838S501.946,348.765,501.946,348.765Z" transform="translate(-428.973 -308.586)"/>
  <path class="m" d="M427.251,251.441c.234-.063.269-.374.276-.616a3.22,3.22,0,0,1,2.065-3.007,3.472,3.472,0,0,1,1.464-.081,5.542,5.542,0,0,1,1.982.661,3.093,3.093,0,0,0,1.008.456c.242.037,1.292.342,1.533.385.531.094,1.024.569,1.533.392.487-.169.595-.8.607-1.315a6.416,6.416,0,0,0-1.65-3.673,4.1,4.1,0,0,0-2.37-1.128,15.776,15.776,0,0,0-3.1-.189,9.848,9.848,0,0,0-4.111.741,3.984,3.984,0,0,0-2.389,3.218c-.013.292.017.585-.007.877a12.9,12.9,0,0,1-.614,2.044A3.739,3.739,0,0,0,424,253.2c.47.691,1.208,1.316,1.181,2.151l1.018-1.055a.836.836,0,0,0,.249-1.022l-.36-1.406a1.268,1.268,0,0,1-.031-.782C426.443,250.128,426.86,251.545,427.251,251.441Z" transform="translate(-364.84 -222.249)"/>
</svg>