<svg width="12" height="12" viewBox="0 0 12 12" fill="none" xmlns="http://www.w3.org/2000/svg">
<path fill-rule="evenodd" clip-rule="evenodd" d="M10.6667 10V6C10.6667 5.632 10.9647 5.33333 11.3333 5.33333C11.702 5.33333 12 5.632 12 6V10C12 11.1027 11.1027 12 10 12H2C0.897333 12 0 11.1027 0 10V2C0 0.897333 0.897333 0 2 0H6C6.36867 0 6.66667 0.298667 6.66667 0.666667C6.66667 1.03467 6.36867 1.33333 6 1.33333H2C1.632 1.33333 1.33333 1.63267 1.33333 2V10C1.33333 10.3673 1.632 10.6667 2 10.6667H10C10.368 10.6667 10.6667 10.3673 10.6667 10ZM9.71873 1.33867L8.6634 1.33333C8.29473 1.33133 7.99807 1.03133 8.00007 0.663333C8.00207 0.296 8.30007 0 8.66673 0H8.67007L11.3347 0.0133333C11.7014 0.0153333 11.9981 0.312667 11.9981 0.679333L12.0001 3.33267C12.0001 3.70133 11.7021 4 11.3341 4H11.3334C10.9654 4 10.6667 3.702 10.6667 3.334L10.6661 2.27667L6.4714 6.47133C6.3414 6.60133 6.17073 6.66667 6.00007 6.66667C5.8294 6.66667 5.65873 6.60133 5.52873 6.47133C5.26807 6.21067 5.26807 5.78933 5.52873 5.52867L9.71873 1.33867Z" fill="#00B0FF"/>
</svg>
