<svg xmlns="http://www.w3.org/2000/svg" xmlns:xlink="http://www.w3.org/1999/xlink" width="311.713" height="223.572" viewBox="0 0 311.713 223.572"><defs><style>.a{fill:none;}.b{clip-path:url(#a);}.c{fill:url(#b);}.d{opacity:0.7;}.e{fill:url(#c);}.f{opacity:0.2;}.g{fill:#fff;}.h{fill:url(#d);}.i{fill:url(#e);}.j{fill:#535461;}.k,.q{opacity:0.1;}.l{fill:#e0e0e0;}.m{fill:url(#f);}.n{fill:url(#g);}.o{fill:#cbcbcb;}.p{fill:url(#j);}.r{fill:url(#k);}</style><clipPath id="a"><rect class="a" width="311.713" height="223.572"/></clipPath><linearGradient id="b" x1="0.5" x2="0.5" y2="1" gradientUnits="objectBoundingBox"><stop offset="0" stop-color="#00afff"/><stop offset="0.1" stop-color="#2dc0f7"/><stop offset="0.2" stop-color="#28c0ef"/><stop offset="0.3" stop-color="#23c0e7"/><stop offset="0.4" stop-color="#1ec1df"/><stop offset="0.5" stop-color="#19c1d7"/><stop offset="0.6" stop-color="#14c1cf"/><stop offset="0.7" stop-color="#0fc2c7"/><stop offset="0.8" stop-color="#0ac2bf"/><stop offset="0.9" stop-color="#05c2b7"/><stop offset="1" stop-color="#00c3af"/></linearGradient><linearGradient id="c" x1="0.5" y1="1" x2="0.5" gradientUnits="objectBoundingBox"><stop offset="0" stop-color="gray" stop-opacity="0.251"/><stop offset="0.54" stop-color="gray" stop-opacity="0.122"/><stop offset="1" stop-color="gray" stop-opacity="0.102"/></linearGradient><linearGradient id="d" x1="0.5" y1="1" x2="0.5" y2="0" xlink:href="#c"/><linearGradient id="e" x1="0.5" y1="1" x2="0.5" y2="0" xlink:href="#c"/><linearGradient id="f" x1="0.5" x2="0.5" y2="1" gradientUnits="objectBoundingBox"><stop offset="0" stop-color="#e0e0e0"/><stop offset="0.31" stop-color="#fccc63"/><stop offset="0.77" stop-color="#f55f44"/></linearGradient><linearGradient id="g" x1="0.5" y1="0" x2="0.5" y2="1" xlink:href="#f"/><linearGradient id="j" x1="0.5" y1="0.999" x2="0.5" y2="-0.001" xlink:href="#c"/><linearGradient id="k" x1="0.497" y1="1" x2="0.497" y2="0.002" xlink:href="#c"/></defs><g class="b"><path class="c" d="M71.982,299.861a38.42,38.42,0,0,0,7.606-.1c27.766-3.07,65.577-2.2,96.4,16.9,42.627,26.407,109.432,3.8,138.9-8.5,22.516-9.394,34.205-32.4,27.184-54-.1-.3-.2-.61-.308-.914-4.418-12.834-13.139-22.879-23.939-28.2-9.413-4.641-23.156-14.331-29.271-32.951a78.85,78.85,0,0,0-10.492-21.226c-12.052-16.884-37.281-42.028-80.671-41.872a69.927,69.927,0,0,0-22.354,3.784c-15.852,5.4-30.169,16.382-41.087,31.605-6.966,9.709-17.406,18.735-32.352,19.471-20.742,1.027-40.537,10.684-55.387,27.871-.428.494-.851.991-1.274,1.494C18.5,244.721,36.862,296.791,71.982,299.861Z" transform="translate(-32.392 -105.357)"/><g class="d" transform="translate(231.731 183.836)"><ellipse class="e" cx="3.789" cy="3.789" rx="3.789" ry="3.789"/></g><ellipse class="f" cx="3.619" cy="3.619" rx="3.619" ry="3.619" transform="translate(231.901 184.006)"/><ellipse class="g" cx="1.4" cy="1.4" rx="1.4" ry="1.4" transform="translate(254.535 112.314)"/><ellipse class="g" cx="1.4" cy="1.4" rx="1.4" ry="1.4" transform="translate(154.585 193.592)"/><ellipse class="g" cx="0.783" cy="0.783" rx="0.783" ry="0.783" transform="translate(214.24 201.349)"/><ellipse class="g" cx="0.783" cy="0.783" rx="0.783" ry="0.783" transform="translate(40.974 163.456)"/><ellipse class="g" cx="0.783" cy="0.783" rx="0.783" ry="0.783" transform="translate(85.732 93.161)"/><ellipse class="g" cx="0.783" cy="0.783" rx="0.783" ry="0.783" transform="translate(22.302 127.485)"/><ellipse class="g" cx="1.4" cy="1.4" rx="1.4" ry="1.4" transform="translate(229.822 66.457)"/><path class="g" d="M142.01,588.917h1.247V587.67h.508v1.247h1.247v.508h-1.247v1.244h-.508v-1.244H142.01Z" transform="translate(127.702 -426.307)"/><path class="g" d="M256.01,586.917h1.247V585.67h.508v1.247h1.247v.508h-1.247v1.244h-.508v-1.244H256.01Z" transform="translate(-17.601 -424.856)"/><path class="g" d="M419.01,678.917h1.247V677.67h.508v1.247h1.247v.508h-1.247v1.244h-.508v-1.244H419.01Z" transform="translate(-225.359 -491.594)"/><path class="g" d="M651.99,129.208h.568v-.568h.231v.568h.568v.231h-.568v.568h-.231v-.568h-.568Z" transform="translate(-520.679 -93.321)"/><path class="g" d="M946.99,319.208h.568v-.568h.231v.568h.568v.231h-.568v.568h-.231v-.568h-.568Z" transform="translate(-896.682 -231.149)"/><path class="g" d="M772.99,443.208h.568v-.568h.231v.568h.568v.231h-.568v.568h-.231v-.568h-.568Z" transform="translate(-674.904 -321.1)"/><path class="g" d="M64.99,521.208h.568v-.568h.231v.568h.568v.231h-.568v.568h-.231v-.568H64.99Z" transform="translate(227.505 -377.682)"/><path class="g" d="M149.99,691.208h.568v-.568h.231v.568h.568v.231h-.568v.568h-.231v-.568h-.568Z" transform="translate(119.165 -501.002)"/><path class="g" d="M416.99,154.208h.568v-.568h.231v.568h.568v.231h-.568v.568h-.231v-.568h-.568Z" transform="translate(-221.151 -111.456)"/><path class="g" d="M290.99,453.208h.568v-.568h.231v.568h.568v.231h-.568v.568h-.231v-.568h-.568Z" transform="translate(-60.552 -328.354)"/><path class="g" d="M317.99,367.208h.568v-.568h.231v.568h.568v.231h-.568v.568h-.231v-.568h-.568Z" transform="translate(-94.966 -265.969)"/><g class="d" transform="translate(103.111 149.408)"><ellipse class="h" cx="3.163" cy="3.163" rx="3.163" ry="3.163"/></g><ellipse class="f" cx="2.93" cy="2.93" rx="2.93" ry="2.93" transform="translate(103.344 149.641)"/><ellipse class="f" cx="3.276" cy="3.276" rx="3.276" ry="3.276" transform="translate(95.109 169.92)"/><g class="d" transform="translate(127.741)"><path class="i" d="M411.52,127.207a42.5,42.5,0,0,1,4.805-19.77,24.778,24.778,0,0,1,3.943-5.742,2.815,2.815,0,0,1,3.224-.621,2.922,2.922,0,0,1,1.129.728,25.343,25.343,0,0,1,3.844,5.527,42.679,42.679,0,0,1,5.044,20.32V131.9h2.727V82.471A66.206,66.206,0,0,1,443.1,52.835a37.389,37.389,0,0,1,5.626-8.6,3.9,3.9,0,0,1,5.862,0,38.207,38.207,0,0,1,5.492,8.282,66.52,66.52,0,0,1,7.2,30.43v48.937h2.356v-4.457a42.668,42.668,0,0,1,5.044-20.306,25.923,25.923,0,0,1,3.844-5.527,2.82,2.82,0,0,1,3.3-.6l-.1.052a2.955,2.955,0,0,1,.92.643,24.938,24.938,0,0,1,3.94,5.742,42.5,42.5,0,0,1,4.805,19.77v73.864h-8.413l.928,6.071v18.159H477.02V207.134l.92-6.074h-8.293V133.786h-2.356v66.983h-6.719l.964,6.365v18.159h-6.881V207.134l.964-6.373h-9.061l.969,6.373v18.159h-6.881V207.134l.964-6.373h-5.365V133.794h-2.727V201.17h-2.21v-.1H424l.917,6.066v18.159h-6.881V207.134l.92-6.074H411.52Z" transform="translate(-411.519 -42.904)"/></g><path class="j" d="M412.67,564.351h6.516l-1.164-7.911h-4.187Z" transform="translate(-220.793 -403.652)"/><g class="k" transform="translate(192.717 153.719)"><path d="M420.565,562.04H415.73l.324-2.21h4.187Z" transform="translate(-415.73 -559.83)"/></g><path class="j" d="M616.03,564.351h6.513l-1.161-7.911h-4.19Z" transform="translate(-479.99 -403.652)"/><g class="k" transform="translate(136.877 153.719)"><path d="M623.918,562.04H619.08l.324-2.21h4.19Z" transform="translate(-619.08 -559.83)"/></g><path class="j" d="M489.78,564.351h6.513l-1.162-7.911h-4.19Z" transform="translate(-319.074 -403.652)"/><g class="k" transform="translate(171.544 153.719)"><path d="M497.668,562.04H492.83l.324-2.21h4.19Z" transform="translate(-492.83 -559.83)"/></g><path class="j" d="M538.08,564.351h6.513l-1.161-7.911h-4.187Z" transform="translate(-380.636 -403.652)"/><g class="k" transform="translate(158.281 153.719)"><path d="M545.968,562.04H541.13l.327-2.21h4.188Z" transform="translate(-541.13 -559.83)"/></g><rect class="j" width="46.532" height="1.862" transform="translate(145.345 87.411)"/><path class="l" d="M627.913,251.882a2.622,2.622,0,0,1,3.888,0,25.029,25.029,0,0,1,3.647,5.382,42.5,42.5,0,0,1,4.775,19.77v71.624H619.629V276.732a42.347,42.347,0,0,1,4.55-19.26A24.044,24.044,0,0,1,627.913,251.882Z" transform="translate(-489.759 -193.873)"/><path class="l" d="M431.542,251.882a2.622,2.622,0,0,0-3.888,0A25.034,25.034,0,0,0,424,257.263a42.531,42.531,0,0,0-4.775,19.77v71.624h20.594V276.732a42.347,42.347,0,0,0-4.55-19.26A23.966,23.966,0,0,0,431.542,251.882Z" transform="translate(-234.332 -193.873)"/><path class="j" d="M392.138,307.33l-4.888.025v6.024h4.888Z" transform="translate(-186.765 -222.945)"/><path class="j" d="M448.908,307.33l-4.888.025v6.024h4.888Z" transform="translate(-259.123 -222.945)"/><path class="j" d="M592.1,307.33l-4.885.025v6.024H592.1Z" transform="translate(-441.641 -222.945)"/><path class="j" d="M648.875,307.33l-4.885.025v6.024h4.885Z" transform="translate(-514 -222.945)"/><g class="k" transform="translate(184.897 57.052)"><path d="M457,256.923a25.035,25.035,0,0,1,3.649-5.382,2.611,2.611,0,0,1,3.111-.585,2.776,2.776,0,0,0-.785.585,25.027,25.027,0,0,0-3.647,5.382,42.493,42.493,0,0,0-4.775,19.77v71.618H452.22V276.7A42.528,42.528,0,0,1,457,256.923Z" transform="translate(-452.22 -250.678)"/></g><g class="k" transform="translate(139.28 57.25)"><path d="M623.326,257.644a25.027,25.027,0,0,0-3.647-5.382,2.724,2.724,0,0,0-.9-.643,2.62,2.62,0,0,1,2.993.643,24.933,24.933,0,0,1,3.649,5.382,42.531,42.531,0,0,1,4.775,19.77v71.629h-2.1V277.419A42.5,42.5,0,0,0,623.326,257.644Z" transform="translate(-618.779 -251.399)"/></g><path class="m" d="M448.249,645.823h.178a3.169,3.169,0,0,0,3.169-3.169V628.14H445.08v14.515A3.169,3.169,0,0,0,448.249,645.823Z" transform="translate(-253.203 -467.441)"/><path class="n" d="M525.356,645.823h.181a3.169,3.169,0,0,0,3.166-3.169V628.14H522.19v14.515A3.169,3.169,0,0,0,525.356,645.823Z" transform="translate(-351.484 -467.441)"/><path class="n" d="M573.659,645.823h.184A3.169,3.169,0,0,0,577,642.655V628.14H570.49v14.515A3.169,3.169,0,0,0,573.659,645.823Z" transform="translate(-413.046 -467.441)"/><path class="n" d="M651.606,645.823h.173a3.169,3.169,0,0,0,3.174-3.169V628.14H648.44v14.515A3.169,3.169,0,0,0,651.606,645.823Z" transform="translate(-512.4 -467.441)"/><path class="o" d="M514.109,46.225a3.625,3.625,0,0,1,5.549,0,38.52,38.52,0,0,1,5.217,8.065,66.315,66.315,0,0,1,6.815,29.634V198.869H502.31V83.462A66.1,66.1,0,0,1,508.8,54.6,35.784,35.784,0,0,1,514.109,46.225Z" transform="translate(-349.013 -44.376)"/><rect class="j" width="15.333" height="7.027" rx="3.513" transform="translate(160.511 14.618)"/><g class="k" transform="translate(153.438 43.477)"><rect width="29.082" height="1.129"/></g><path class="p" d="M733.655,344.361h0a9.5,9.5,0,0,1,2.806-2.471h0a9.427,9.427,0,1,1,4.715,17.593,5.351,5.351,0,0,1-.6-.022,9.424,9.424,0,0,1-6.928-15.083Z" transform="translate(-630.92 -258.878)"/><path class="f" d="M733.569,351.346a8.91,8.91,0,0,0,8.346,8.891c.185,0,.375.019.564.019a8.913,8.913,0,1,0-4.457-16.629h0a8.949,8.949,0,0,0-2.653,2.35h0A8.87,8.87,0,0,0,733.569,351.346Z" transform="translate(-632.221 -260.184)"/><path class="q" d="M752.1,354.068a9.578,9.578,0,0,1,1.329.7,2.09,2.09,0,0,1,.711.637.824.824,0,0,1,.016.909,1.28,1.28,0,0,1-1,.362,2.565,2.565,0,0,1-1.148-.115,2.471,2.471,0,0,1-.67-.486l-.766-.695c-.275-.242-.549-.574-.442-.914a.824.824,0,0,1,.651-.439,2.724,2.724,0,0,1,1.922.338" transform="translate(-639.645 -268.56)"/><g class="k" transform="translate(115.182 94.21)"><ellipse cx="0.47" cy="0.47" rx="0.47" ry="0.47"/></g><g class="k" transform="translate(104.399 89.99)"><ellipse cx="1.719" cy="1.719" rx="1.719" ry="1.719"/></g><g class="k" transform="translate(103.133 83.444)"><path d="M774.92,349.14h0a2.345,2.345,0,1,0,2.655-2.35h0A8.948,8.948,0,0,0,774.92,349.14Z" transform="translate(-774.92 -346.79)"/></g><g class="k" transform="translate(102.974 95.461)"><path d="M768.04,391.385a8.888,8.888,0,0,0,6.722,3.762c0-.124.016-.247.016-.373a4.223,4.223,0,0,0-6.738-3.388Z" transform="translate(-768.04 -390.555)"/></g><path class="r" d="M308.194,532.492h0a6.631,6.631,0,0,1,1.961-1.735h0a6.59,6.59,0,1,1,3.3,12.274c-.14,0-.275,0-.417-.014a6.59,6.59,0,0,1-4.833-10.525Z" transform="translate(-83.739 -396.141)"/><path class="f" d="M308.414,537.44a6.216,6.216,0,0,0,5.823,6.2h.394a6.217,6.217,0,1,0-3.108-11.6h0a6.224,6.224,0,0,0-1.851,1.647h0A6.184,6.184,0,0,0,308.414,537.44Z" transform="translate(-84.927 -397.127)"/><path class="q" d="M321.355,539.367a6.453,6.453,0,0,1,.925.486,1.521,1.521,0,0,1,.5.445.585.585,0,0,1,0,.634.887.887,0,0,1-.7.253,1.786,1.786,0,0,1-.8-.08,1.726,1.726,0,0,1-.47-.34l-.533-.483c-.187-.17-.39-.4-.307-.637a.549.549,0,0,1,.453-.308,1.886,1.886,0,0,1,1.337.236" transform="translate(-90.119 -402.997)"/><g class="k" transform="translate(233.142 142.439)"><ellipse cx="0.327" cy="0.327" rx="0.327" ry="0.327"/></g><g class="k" transform="translate(225.616 139.495)"><ellipse cx="1.2" cy="1.2" rx="1.2" ry="1.2"/></g><g class="k" transform="translate(224.743 134.921)"><path d="M337.12,535.907h0a1.648,1.648,0,1,0,1.853-1.648h0A6.226,6.226,0,0,0,337.12,535.907Z" transform="translate(-337.12 -534.26)"/></g><g class="k" transform="translate(224.611 143.298)"><path d="M332.491,565.363a6.2,6.2,0,0,0,4.69,2.625v-.275a2.946,2.946,0,0,0-4.7-2.364Z" transform="translate(-332.48 -564.77)"/></g><path class="a" d="M843.676,539.42l-5.986,3.185,4.673,5.228" transform="translate(-761.989 -391.305)"/><ellipse class="g" cx="0.505" cy="0.505" rx="0.505" ry="0.505" transform="translate(48.998 117.078)"/></g></svg>