<svg xmlns="http://www.w3.org/2000/svg" xmlns:xlink="http://www.w3.org/1999/xlink" width="100%" height="100%" viewBox="0 0 202.874 186.802"><defs><style>.a{fill:#3f3d56;}.b{opacity:0.1;}.c{fill:#2f2e41;}.d{fill:#ffb8b8;}.e{fill:#00afff;}.f{opacity:0.553;}.f,.h{fill:url(#a);}.g{fill:#0c263d;}.i{fill:#00c3ae;}.j{fill:#eee;}</style><linearGradient id="a" x1="0.5" x2="0.5" y2="1" gradientUnits="objectBoundingBox"><stop offset="0" stop-color="#33bfff"/><stop offset="0.1" stop-color="#2dc0f7"/><stop offset="0.2" stop-color="#28c0ef"/><stop offset="0.3" stop-color="#23c0e7"/><stop offset="0.4" stop-color="#1ec1df"/><stop offset="0.5" stop-color="#19c1d7"/><stop offset="0.6" stop-color="#14c1cf"/><stop offset="0.7" stop-color="#0fc2c7"/><stop offset="0.8" stop-color="#0ac2bf"/><stop offset="0.9" stop-color="#05c2b7"/><stop offset="1" stop-color="#00c3af"/></linearGradient></defs><path class="a" d="M722.5,712.623c0,6.478,15.4,20.527,34.39,20.527s34.39-14.049,34.39-20.527-15.4-2.932-34.39-2.932S722.5,706.145,722.5,712.623Z" transform="translate(-722.5 -546.349)"/><path class="b" d="M722.5,712.623c0,6.478,15.4,20.527,34.39,20.527s34.39-14.049,34.39-20.527-15.4-2.932-34.39-2.932S722.5,706.145,722.5,712.623Z" transform="translate(-722.5 -546.349)"/><ellipse class="a" cx="34.39" cy="11.73" rx="34.39" ry="11.73" transform="translate(0 154.544)"/><ellipse class="c" cx="10.53" cy="9.864" rx="10.53" ry="9.864" transform="translate(11.73 0.989)"/><path class="d" d="M742.76,370.855l2.666,3.732s12.8,2.666,8,6.665-11.73-3.732-11.73-3.732l-3.732-4.8Z" transform="translate(-689.842 -298.553)"/><path class="e" d="M779.146,211.855s3.466,0,4.265,4.8,1.6,20.794,1.6,20.794,11.2,14.662,9.331,16.529-4,5.332-5.332,4.8-12.8-16.262-12.8-16.262Z" transform="translate(-740.09 -181.941)"/><path class="f" d="M779.146,211.855s3.466,0,4.265,4.8,1.6,20.794,1.6,20.794,11.2,14.662,9.331,16.529-4,5.332-5.332,4.8-12.8-16.262-12.8-16.262Z" transform="translate(-740.09 -181.941)"/><path class="d" d="M865.423,160.855s.267,10.4,3.466,10.93,2.133,4,2.133,4-10.4,6.132-17.328,0l-1.333-3.2s4.8-3.466,2.666-8.264Z" transform="translate(-837.031 -144.537)"/><path class="g" d="M793.611,400.855s15.729,29.325,9.864,38.389-14.662,27.725-16,27.725-8.8-3.732-8.264-6.132,8.531-20.261,10.664-21.86,1.066-5.865.8-6.132-9.064-14.4-9.064-14.4.267,22.393-.8,25.859.267,28.258-1.066,29.325-7.464,2.932-8.531,1.333-4.265-25.859-2.133-31.457l-4-38.389Z" transform="translate(-747.358 -320.556)"/><path class="g" d="M823.1,667.855l6.665,12.263s9.6,6.931,2.932,8-10.664-1.6-10.664-1.6l-5.865-4.265V669.988Z" transform="translate(-791.239 -516.376)"/><path class="g" d="M842.2,629.038,838.73,637.3s-1.333,3.466,0,4.265,5.065,5.6,2.666,6.132a7.813,7.813,0,0,1-1.465.146,14.813,14.813,0,0,1-10.77-4.383L827,641.3s7.4-17.048,7.3-16.922S842.2,629.038,842.2,629.038Z" transform="translate(-801.274 -484.49)"/><ellipse class="d" cx="9.064" cy="9.064" rx="9.064" ry="9.064" transform="translate(12.663 4.588)"/><path class="h" d="M813.769,198.31l2.8,2.8s8.531,3.2,12.53,0a26.844,26.844,0,0,0-1.466-2.8c0,.267,11.6,2,12.663,6.8s-.8,13.063-.8,13.063,7.464,35.19,4.532,35.99-30.391,7.464-30.125,2.4S811.77,230.7,811.77,230.7l-9.331-17.861s1.333-5.865,4.532-7.731S813.769,198.31,813.769,198.31Z" transform="translate(-797.241 -171.995)"/><path class="d" d="M833.238,393.855l3.466,2.133s13.329,9.064,6.4,10.664-10.93-6.4-10.93-6.4l-2.666-3.2Z" transform="translate(-804.846 -315.422)"/><path class="b" d="M865.249,246.855l-2.4,2.4s-1.6,22.393,1.6,26.925,17.861,16.8,18.661,16,5.865-4.8,4.8-5.332S872.664,271.5,872.664,271.5l1.115-20.642Z" transform="translate(-856.584 -207.61)"/><path class="h" d="M869.248,243.855l-2.4,2.4s-1.6,22.393,1.6,26.925,17.861,16.8,18.661,16,5.865-4.8,4.8-5.332S876.664,268.5,876.664,268.5l1.115-20.642Z" transform="translate(-861.651 -205.41)"/><path class="c" d="M865.054,100.422s3.081-1.12,7.283,1.26l-2.241.56s3.361.28,3.781,4.762h-1.541s.98,3.921,0,5.042l-.63-1.19-1.821,3.641-.42-1.821-.84.28-.56-2.941s-1.4,2.1-2.521,2.241v-1.821s-3.081,3.5-4.061,3.361l1.4-1.961-1.961.42.84-1.4-5.042,1.4,1.12-1.4-3.5,1.12-1.681.7s-2.381-5.462.98-9.243S861.9,98.812,865.054,100.422Z" transform="translate(-839.579 -99.645)"/><g transform="translate(-79.063 -262.954)"><path class="c" d="M264.134,311.513c-3.313,6.145-10.345,8.782-10.345,8.782s-1.66-7.325,1.653-13.469,10.345-8.782,10.345-8.782S267.447,305.368,264.134,311.513Z" transform="translate(6.704 -11.199)"/><path class="i" d="M227.786,334.054c-5.982,3.6-8.286,10.747-8.286,10.747s7.395,1.313,13.376-2.285,8.286-10.747,8.286-10.747S233.767,330.456,227.786,334.054Z" transform="translate(40.774 -35.762)"/><rect class="j" width="109.301" height="62.382" transform="translate(152.374 314.387)"/><path class="g" d="M483.143,446.071q.336.212.7.393a8.231,8.231,0,0,0,11.044-3.639l1.773-3.516-1.19-.6-1.773,3.516a6.889,6.889,0,1,1-12.3-6.2l7.448-14.767a6.889,6.889,0,1,1,12.3,6.2l-2.637,5.228,1.19.6,2.637-5.228a8.222,8.222,0,0,0-14.683-7.4L480.2,435.421a8.223,8.223,0,0,0,2.944,10.651Z" transform="translate(-290.54 -97.806)"/><path class="g" d="M485.88,514.431q.331.209.687.388a8.231,8.231,0,0,0,11.044-3.639l7.448-14.767a8.222,8.222,0,1,0-14.683-7.4l-1.956,3.879,1.19.6,1.956-3.879a6.889,6.889,0,1,1,12.3,6.2l-7.448,14.767a6.889,6.889,0,0,1-12.3-6.2l2.564-5.083-1.19-.6-2.564,5.083a8.234,8.234,0,0,0,2.952,10.655Z" transform="translate(-293.997 -147.939)"/><path class="g" d="M294.5,448.868H417.664V380.355H294.5Zm122.631-.533h-122.1V380.888h122.1Z" transform="translate(-155.722 -71.567)"/></g></svg>
