<svg xmlns="http://www.w3.org/2000/svg" width="256.3" height="169.838" viewBox="0 0 256.3 169.838">
    <defs>
        <clipPath id="clip-path">
            <path id="Rectangle_2707" d="M0 0H113.177V160.104H0z" class="cls-1"/>
        </clipPath>
        <clipPath id="clip-path-2">
            <path id="Rectangle_2715" d="M0 0H116.177V162.184H0z"/>
        </clipPath>
        <clipPath id="clip-path-3">
            <path id="Rectangle_2724" d="M0 0H11.962V11.042H0z"/>
        </clipPath>
        <clipPath id="clip-path-4">
            <path id="Rectangle_2733" d="M0 0H12.555V15.618H0z"/>
        </clipPath>
        <style>
            .cls-1{fill:#00afff}.cls-4{fill:#ffb9b9}.cls-5{fill:#222433}.cls-6{fill:#f8af40}.cls-9{fill:#fff}.cls-11{fill:#9f616a}.cls-12{fill:#9f6a9d}.cls-13{fill:#006ea0}
        </style>
    </defs>
    <g id="Group_4120" transform="translate(-51.85 -192.416)">
        <path id="Path_5763" fill="#eee" d="M106.736 0a106.746 106.746 0 0 1 86.254 169.621c-48.186-.247-50.766 0-86.254 0-36.136 0-46.539-.524-87.5-1.738A106.748 106.748 0 0 1 106.736 0z" transform="translate(73 192.416)"/>
        <g id="Group_4004" transform="translate(183.852 201.617)">
            <g id="Group_4003" clip-path="url(#clip-path)">
                <g id="Group_4002" transform="translate(-.628 .327)">
                    <g id="Group_3987" transform="translate(94.664 79.93)">
                        <path id="Path_5633" d="M322.848 262.6c0-.012-2.655 16-5.354 23.671l-6.779-21.322z" class="cls-4" transform="translate(-310.23 -262.114)"/>
                        <path id="Path_5634" d="M316.395 285.657h-.007a.485.485 0 0 1-.455-.338L309.154 264a.485.485 0 0 1 .37-.623l12.132-2.349a.532.532 0 0 1 .134-.007.485.485 0 0 1 .443.458.5.5 0 0 1-.008.116l-.009.05c-.459 2.714-2.874 16.611-5.364 23.691a.485.485 0 0 1-.457.321zm-6.151-21.434L316.4 283.6c2.154-6.881 4.213-18.4 4.748-21.49z" class="cls-4" transform="translate(-309.131 -261.016)"/>
                    </g>
                    <g id="Group_3988" transform="translate(12.42 10.187)">
                        <path id="Path_5635" d="M58.15 64.13c.075-.569.372-3.77.629-6.974l-.333-11.689c-.991-5.411-2.946-11.167-5.115-10.579-1.989.533-.55 3.96.421 10.685-1.892-5.8-3.7-9.925-5.693-9.133-1.973.792-.032 6.644 1.472 11.105-2.248-2.376-5.176-5.722-6.6-4.866-2.038 1.229.34 4.187 1.715 6.288 3.057 4.688 1.2 6.676.113 10.054-.728 2.247.34 4.8 2.167 7.355" class="cls-4" transform="translate(-41.653 -34.363)"/>
                        <path id="Path_5636" d="M45.827 65.766a.484.484 0 0 1-.395-.2c-2.2-3.079-2.934-5.625-2.234-7.786.2-.625.424-1.2.641-1.75.969-2.473 1.668-4.26-.7-7.89-.157-.24-.327-.491-.5-.75-1.1-1.626-2.351-3.47-2.033-4.915a1.994 1.994 0 0 1 .976-1.3c1.435-.864 3.554 1.1 5.7 3.354-1.589-4.925-2.477-8.836-.5-9.628a1.784 1.784 0 0 1 1.468.052c.988.463 1.93 1.776 3 4.28a21.923 21.923 0 0 1-.5-3.7 2.049 2.049 0 0 1 1.357-2.206 1.745 1.745 0 0 1 1.429.25c2.442 1.539 3.9 8.587 4.289 10.71a.468.468 0 0 1 .008.073l.334 11.689a.476.476 0 0 1 0 .053c-.251 3.13-.55 6.388-.631 7a.485.485 0 0 1-.962-.127c.07-.531.362-3.668.624-6.923l-.332-11.626c-.961-5.226-2.47-9.16-3.847-10.027a.777.777 0 0 0-.658-.134c-.969.26-.717 1.819-.055 5.322.263 1.39.561 2.967.829 4.825a.485.485 0 0 1-.942.22c-1.117-3.427-2.784-8.066-4.357-8.8a.825.825 0 0 0-.7-.03c-1.575.632.672 7.3 1.752 10.5a.485.485 0 0 1-.812.488l-.6-.636c-1.659-1.768-4.434-4.73-5.4-4.148a1.035 1.035 0 0 0-.53.681c-.228 1.038.945 2.771 1.889 4.163.178.263.351.519.511.763 2.64 4.049 1.783 6.238.79 8.774-.21.539-.429 1.1-.621 1.694-.6 1.849.088 4.113 2.1 6.925a.485.485 0 0 1-.394.767z" class="cls-4" transform="translate(-40.555 -33.267)"/>
                    </g>
                    <g id="Group_3989" transform="translate(22.435 20.052)">
                        <path id="Path_5637" d="M74.845 82.214c.033-2.851 2.02-5.3 3.2-8.306 1.651-4.162 3.074-6.676 4.123-6.825 2.412-.321-.608 9.9-1.086 15.985" class="cls-4" transform="translate(-74.359 -66.588)"/>
                        <path id="Path_5638" d="M79.983 82.448h-.039a.485.485 0 0 1-.446-.521c.163-2.073.615-4.6 1.05-7.043.612-3.431 1.375-7.7.712-8.393-.021-.022-.04-.042-.127-.03-.282.04-1.4.631-3.736 6.523a31.7 31.7 0 0 1-1.376 2.916 12.142 12.142 0 0 0-1.791 5.218.485.485 0 0 1-.97-.011c.023-2.009.934-3.778 1.9-5.65a30.956 30.956 0 0 0 1.336-2.827c2.414-6.097 3.675-7.014 4.504-7.13a1.078 1.078 0 0 1 .961.321c.954 1 .448 4.158-.457 9.233-.432 2.42-.878 4.922-1.038 6.949a.485.485 0 0 1-.483.445z" class="cls-5" transform="translate(-73.26 -65.483)"/>
                    </g>
                    <g id="Group_3990" transform="translate(74.351 137.492)">
                        <path id="Path_5639" d="M268.016 450.687c.1 5.25 1.222 10.754 5.479 11.93a9.242 9.242 0 0 1 6.89 9.65l-35.972-.145-.032-21.548z" class="cls-6" transform="translate(-243.895 -450.089)"/>
                        <path id="Path_5640" d="M279.284 471.653l-35.972-.145a.485.485 0 0 1-.483-.485l-.032-21.548a.485.485 0 0 1 .485-.485l23.635.113a.485.485 0 0 1 .483.475c.131 6.709 1.855 10.569 5.123 11.472a9.72 9.72 0 0 1 7.245 10.154.485.485 0 0 1-.484.449zM243.8 470.54l35.026.142a8.764 8.764 0 0 0-6.558-8.7c-3.649-1.008-5.607-5.016-5.823-11.914l-22.676-.108z" class="cls-6" transform="translate(-242.795 -448.99)"/>
                    </g>
                    <path id="Path_5641" d="M116.453 123.242c.658 1.783 9.746 15.96 11.123 19.365l11.884-2.174L133.718 110a9.736 9.736 0 0 0-4.3-6.369l-15.4-13.994a10.328 10.328 0 0 0-6.19-3.348c-2.909-.293-7.139-.735-7.843-.892a5.279 5.279 0 0 1-2.343 5.15c-2.784 1.733-5.774-1.07-6.215-3.862-2.318.365-7.494.527-10.405 4.245-16.171 20.65-12.032 19.231-12.032 19.231l-5.6-15.47-18.245 6.6 7.473 20.626a16.02 16.02 0 0 0 12.729 10.41 16.584 16.584 0 0 0 2.361.178 15.991 15.991 0 0 0 5.159-.856c.024-1.022 8.673-21.541 10.008-22.227s19.941.076 24.146-.14a3.429 3.429 0 0 1 3.36 1.347c.893 1.4.807 3.149 1.3 4.7l3.726 2.387z" class="cls-1" transform="translate(-31.32 -59.243)"/>
                    <path id="Path_5642" d="M204.476 107.169h-8.944a.485.485 0 0 1-.485-.489l.16-17.634a.485.485 0 0 1 .485-.481.485.485 0 0 1 .481.489l-.156 17.145h7.962l-.275-17.142a.485.485 0 0 1 .477-.493.479.479 0 0 1 .493.477l.283 17.634a.485.485 0 0 1-.485.493z" class="cls-5" transform="translate(-135.317 -61.444)"/>
                    <g id="Group_3991" transform="translate(0 132.933)">
                        <path id="Path_5643" d="M19.6 435.688c.453 6.094-1.051 15.405-11.1 16.924-4.448.679-7.23 4.639-6.89 9.165l41.746-.145.032-16.528z" class="cls-6" transform="translate(-1.099 -435.202)"/>
                        <path id="Path_5644" d="M.512 461.162a.485.485 0 0 1-.484-.449c-.369-4.908 2.7-8.979 7.3-9.682 10.625-1.607 11.012-12.01 10.685-16.409a.485.485 0 0 1 .663-.487l23.793 9.416a.485.485 0 0 1 .307.453l-.032 16.528a.485.485 0 0 1-.484.484l-41.746.145zm18.515-25.844a20.886 20.886 0 0 1-1.7 9.657 12.291 12.291 0 0 1-9.849 7.016 7.764 7.764 0 0 0-6.5 8.2l40.8-.142.031-15.716z" class="cls-6" transform="translate(.002 -434.101)"/>
                    </g>
                    <g id="Group_3992" transform="translate(16.964 54.18)">
                        <path id="Path_5645" fill="#0c263d" d="M88.518 178.509l-31.54 78.156 25.652 10.346 22.87-56.683 8.283 14.444v37.05h27.675v-40.848a7.828 7.828 0 0 0-.066-1.016l-4.638-10.887-17.39-30.561z" transform="translate(-56.492 -178.025)"/>
                        <path id="Path_5646" d="M81.532 266.4a.482.482 0 0 1-.181-.035L55.7 256.018a.485.485 0 0 1-.268-.63l31.54-78.157a.485.485 0 0 1 .45-.3h30.845a.485.485 0 0 1 .422.245l17.391 30.56a.509.509 0 0 1 .025.05l4.637 10.886a.486.486 0 0 1 .037.142l.02.2a6.831 6.831 0 0 1 .049.866v40.848a.485.485 0 0 1-.485.485h-27.679a.485.485 0 0 1-.485-.485V223.8l-7.722-13.465L81.982 266.1a.485.485 0 0 1-.45.3zM56.51 255.3l24.753 9.982 22.687-56.232a.485.485 0 0 1 .871-.06l8.283 14.444a.484.484 0 0 1 .065.241v36.565h26.7v-40.363a5.925 5.925 0 0 0-.043-.766l-.013-.128-4.6-10.793-17.231-30.29H87.747z" class="cls-5" transform="translate(-55.394 -176.928)"/>
                    </g>
                    <g id="Group_3993" transform="translate(96.72 83.987)">
                        <path id="Path_5647" d="M323.752 280.876c-.469 2.1-2.087 8.26-2.588 9.667-.518 1.471-3.283 1.827-2.7-2.085 1.294-8.777-1.634-8.454-.922-12.608" class="cls-4" transform="translate(-316.942 -275.364)"/>
                        <path id="Path_5648" d="M318.658 290.96a1.682 1.682 0 0 1-.4-.049c-.432-.107-1.808-.684-1.371-3.623.742-5.032.068-6.991-.473-8.564a7.087 7.087 0 0 1-.447-4.055.485.485 0 0 1 .957.164 6.212 6.212 0 0 0 .408 3.576c.576 1.673 1.292 3.755.516 9.022-.252 1.692.168 2.421.644 2.539a1.027 1.027 0 0 0 1.119-.686c.5-1.409 2.111-7.546 2.572-9.611a.485.485 0 1 1 .947.211c-.465 2.084-2.094 8.293-2.6 9.724a2.031 2.031 0 0 1-1.863 1.352z" class="cls-5" transform="translate(-315.842 -274.266)"/>
                    </g>
                    <path id="Rectangle_2700" fill="#2b292d" d="M0 0H0.485V8.797H0z" transform="matrix(.869 -.494 .495 .869 80.609 56.53)"/>
                    <g id="Group_3994" transform="translate(48.504 49.653)">
                        <path id="Path_5649" d="M161.915 163.729h27.675l1.229 4.526h-30.845z" class="cls-1" transform="translate(-159.489 -163.244)"/>
                        <path id="Path_5650" d="M189.72 167.641h-30.845a.485.485 0 0 1-.446-.676l1.941-4.526a.485.485 0 0 1 .446-.294h27.675a.485.485 0 0 1 .468.358l1.229 4.526a.485.485 0 0 1-.469.612zm-30.109-.97h29.474l-.966-3.556h-26.983z" class="cls-5" transform="translate(-158.39 -162.145)"/>
                    </g>
                    <path id="Path_5651" d="M210 116.724a.485.485 0 0 1-.485-.485v-13.416a.485.485 0 0 1 .971 0v13.417a.485.485 0 0 1-.486.484z" class="cls-5" transform="translate(-145.358 -70.999)"/>
                    <path id="Rectangle_2701" d="M0 0H1.94V1.94H0z" class="cls-5" transform="rotate(-45 71.122 -56.648)"/>
                    <path id="Rectangle_2702" d="M0 0H1.94V1.94H0z" class="cls-5" transform="rotate(-45 76.605 -54.377)"/>
                    <path id="Rectangle_2703" d="M0 0H1.94V1.94H0z" class="cls-5" transform="rotate(-45 82.089 -52.105)"/>
                    <path id="Rectangle_2704" d="M0 0H1.94V1.94H0z" class="cls-5" transform="rotate(-45 73.499 -62.377)"/>
                    <path id="Rectangle_2705" d="M0 0H1.94V1.94H0z" class="cls-5" transform="rotate(-45 78.981 -60.105)"/>
                    <path id="Rectangle_2706" d="M0 0H1.94V1.94H0z" class="cls-5" transform="rotate(-45 84.465 -57.834)"/>
                    <path id="Path_5652" d="M57.824 464.139c-3.063 0-8.653-2.161-8.919-2.265a.485.485 0 0 1-.207-.75c.5-.636 4.913-6.229 7.454-6.918a5.13 5.13 0 0 1 6.264 3.553 5.08 5.08 0 0 1-3.556 6.264 4.02 4.02 0 0 1-1.036.116zm.907-.582zm-8.856-2.357c2.312.85 7.009 2.35 8.727 1.885a4.11 4.11 0 0 0 2.879-5.069 4.157 4.157 0 0 0-5.075-2.878c-1.716.47-4.98 4.155-6.531 6.062z" class="cls-5" transform="translate(-33.714 -314.994)"/>
                    <path id="Path_5653" d="M25.462 452.374a.484.484 0 0 1-.1-.01c-.79-.162-7.77-1.631-9.518-3.589a5.1 5.1 0 0 1 7.6-6.787c1.747 1.958 2.425 9.055 2.5 9.858a.485.485 0 0 1-.483.528zm-5.81-11.113a4.127 4.127 0 0 0-3.08 6.869c1.181 1.323 5.938 2.607 8.342 3.146-.266-2.448-1.008-7.319-2.189-8.641a4.084 4.084 0 0 0-2.841-1.367q-.116-.008-.232-.007z" class="cls-5" transform="translate(-10.095 -305.461)"/>
                    <path id="Path_5654" d="M331.9 462.509c-2.008 0-3.707-.135-3.856-.147a.485.485 0 0 1-.412-.66c.117-.3 2.892-7.346 5.15-8.767a5.092 5.092 0 1 1 5.411 8.628c-1.22.764-3.963.946-6.293.946zm-3.117-1.067c2.457.153 7.381.245 8.893-.7a4.122 4.122 0 1 0-4.379-6.986c-1.497.944-3.571 5.411-4.512 7.686zm9.152-.29z" class="cls-5" transform="translate(-227.281 -313.699)"/>
                    <path id="Path_5655" d="M290.2 468.732a4.512 4.512 0 0 1-1.313-.16 5.1 5.1 0 1 1 3.081-9.716c2.5.789 6.712 6.562 7.183 7.217a.485.485 0 0 1-.236.741c-.26.086-5.597 1.918-8.715 1.918zm.243-9.142a4.124 4.124 0 0 0-1.264 8.057c1.7.532 6.452-.782 8.794-1.54-1.478-1.974-4.6-5.793-6.3-6.326a4.1 4.1 0 0 0-1.235-.191z" class="cls-5" transform="translate(-197.952 -318.176)"/>
                    <g id="Group_3996" transform="translate(54.175 .471)">
                        <path id="Path_5662" d="M190.722 10.323a6.3 6.3 0 0 0 .078-1.273 6.155 6.155 0 0 0-12.3.259c0 .408.3 6.907.377 7.29l9.381 1.132-.162-5.011z" class="cls-4" transform="translate(-178.008 -2.682)"/>
                        <path id="Path_5663" d="M187.152 17.071a.5.5 0 0 1-.058 0l-9.381-1.132a.485.485 0 0 1-.418-.39c-.089-.459-.388-7-.386-7.385a6.639 6.639 0 0 1 13.272-.276 6.818 6.818 0 0 1-.08 1.373.485.485 0 0 1-.152.281l-2.466 2.244.155 4.787a.485.485 0 0 1-.485.5zm-8.934-2.051l8.431 1.016-.143-4.445a.485.485 0 0 1 .158-.374l2.5-2.278a5.861 5.861 0 0 0 .044-1.012 5.669 5.669 0 0 0-11.332.24c0 .422.243 5.443.342 6.853zm11.4-5.839z" class="cls-4" transform="translate(-176.909 -1.539)"/>
                    </g>
                    <path id="Path_5664" d="M183.4 53.561q-.122 0-.247-.006a7.29 7.29 0 0 1-6.778-9.291 6.976 6.976 0 0 1 .654-1.576.485.485 0 0 1 .844.479 6.015 6.015 0 0 0-.564 1.361 6.318 6.318 0 0 0 5.881 8.058 6.328 6.328 0 0 0 5.756-9.38.485.485 0 0 1 .849-.47 7.3 7.3 0 0 1-3.212 10.1 7.671 7.671 0 0 1-2.319.674 8.608 8.608 0 0 1-.864.051z" class="cls-5" transform="translate(-122.171 -29.446)"/>
                    <g id="Group_3997" transform="translate(59.122 16.493)">
                        <path id="Path_5665" d="M195.662 65.183l-.008-.412-1.007-7.756 8.45-1.57 1.25 9.533.059.821a4.386 4.386 0 1 1-8.744-.617z" class="cls-4" transform="translate(-194.162 -54.961)"/>
                        <path id="Path_5666" d="M198.9 69.44h-.118a4.786 4.786 0 0 1-3.5-1.639 4.954 4.954 0 0 1-1.2-3.734l-.007-.357-1-7.729a.485.485 0 0 1 .393-.539l8.45-1.57a.485.485 0 0 1 .57.414l1.25 9.533v.028l.059.821a.5.5 0 0 1 0 .052 4.918 4.918 0 0 1-4.9 4.722zm-4.808-13.13l.947 7.3a.47.47 0 0 1 0 .052l.008.412a.448.448 0 0 1 0 .059 3.981 3.981 0 0 0 .961 3.025 3.824 3.824 0 0 0 2.8 1.31h.094a3.943 3.943 0 0 0 3.923-3.761l-.056-.78-1.182-9.012z" class="cls-4" transform="translate(-193.063 -53.861)"/>
                    </g>
                    <g id="Group_3998" transform="translate(53.488)">
                        <path id="Path_5667" d="M183.267 25.189a7.509 7.509 0 0 0 1.093-.043 7.589 7.589 0 0 0 1.919-.5q.2-.081.4-.173a7.28 7.28 0 0 0 3.18-10.126 2.594 2.594 0 0 1-.305-4.691 6.7 6.7 0 0 0 .151-1.739 6.612 6.612 0 0 0-12.475-2.771.465.465 0 0 0 .453.678l7.872-.7.927 6.532-.3 4.668-.263-.148a9.611 9.611 0 0 0-6.555-1.06l-2.474.466a.467.467 0 0 0-.361.33 7.362 7.362 0 0 0-.248 2.681 7.252 7.252 0 0 0 6.988 6.595z" class="cls-6" transform="translate(-175.764 -1.1)"/>
                        <path id="Path_5668" d="M182.415 24.581q-.131 0-.265-.006a7.739 7.739 0 0 1-7.45-7.035 7.848 7.848 0 0 1 .265-2.857.946.946 0 0 1 .735-.674l2.477-.467a10.1 10.1 0 0 1 6.472.895l.249-3.86-.856-6.027-7.413.66a.95.95 0 0 1-.929-1.382 7.1 7.1 0 0 1 13.229 4.836.485.485 0 0 1-.241.32 2.109 2.109 0 0 0-.941 2.638 2.088 2.088 0 0 0 1.189 1.175.485.485 0 0 1 .246.213 7.765 7.765 0 0 1-3.392 10.8q-.217.1-.428.186a8.093 8.093 0 0 1-2.042.529 9.033 9.033 0 0 1-.905.053zm-6.522-9.622a6.883 6.883 0 0 0-.229 2.493 6.768 6.768 0 0 0 6.519 6.153h.008a6.934 6.934 0 0 0 1.022-.042A7.114 7.114 0 0 0 185 23.1c.124-.05.25-.1.374-.163a6.8 6.8 0 0 0 3.041-9.306 3.079 3.079 0 0 1-.393-5.377 6.261 6.261 0 0 0 .1-1.412 6.127 6.127 0 0 0-11.543-2.6l7.835-.7a.485.485 0 0 1 .524.415l.927 6.532a.487.487 0 0 1 0 .1l-.3 4.669a.485.485 0 0 1-.722.392l-.263-.148a9.122 9.122 0 0 0-6.224-1.007z" class="cls-6" transform="translate(-174.666 -.001)"/>
                    </g>
                    <path id="Path_5669" d="M187.105 54.164a2.362 2.362 0 0 1-1.591-.618l-.261-.242a.485.485 0 0 1 .662-.709l.257.24a1.384 1.384 0 0 0 1.061.354 1.32 1.32 0 0 0 .946-.53l.052-.07a.485.485 0 0 1 .776.582l-.052.069a2.311 2.311 0 0 1-1.632.915c-.071.006-.144.009-.218.009z" class="cls-5" transform="translate(-128.416 -36.351)"/>
                    <g id="Group_3999" transform="translate(65.227 7.759)">
                        <ellipse id="Ellipse_910" cx="2.75" cy="2.748" class="cls-4" rx="2.75" ry="2.748" transform="translate(.485 .485)"/>
                        <path id="Path_5670" d="M216.235 31.8a3.233 3.233 0 1 1 3.235-3.233 3.234 3.234 0 0 1-3.235 3.233zm0-5.5a2.263 2.263 0 1 0 2.264 2.263 2.264 2.264 0 0 0-2.264-2.255z" class="cls-5" transform="translate(-213 -25.338)"/>
                    </g>
                    <g id="Group_4000" transform="translate(52.498 7.77)">
                        <path id="Path_5671" d="M177.185 28.477q-.028-.094-.065-.187a2.126 2.126 0 1 0-1.562 2.879" class="cls-9" transform="translate(-172.535 -26.475)"/>
                        <path id="Path_5672" d="M174.044 30.6a2.61 2.61 0 1 1 2.423-3.586c.03.074.057.151.081.228a.485.485 0 0 1-.93.279q-.022-.073-.051-.145a1.641 1.641 0 1 0-1.206 2.222.485.485 0 1 1 .188.952 2.6 2.6 0 0 1-.505.05z" class="cls-5" transform="translate(-171.432 -25.375)"/>
                    </g>
                    <g id="Group_4001" transform="translate(57.743 6.606)">
                        <ellipse id="Ellipse_911" cx="2.126" cy="2.125" class="cls-9" rx="2.126" ry="2.125" transform="matrix(.762 -.648 .648 .762 0 2.753)"/>
                        <path id="Path_5673" d="M192.476 28.123a2.628 2.628 0 0 1-.629-.077 2.6 2.6 0 1 1 .629.077zm-.008-4.25a1.639 1.639 0 1 0 1.407.791 1.64 1.64 0 0 0-1.406-.791z" class="cls-5" transform="translate(-189.474 -22.517)"/>
                    </g>
                    <path id="Path_5674" d="M186.54 29.07a.485.485 0 0 1-.087-.962l1.241-.228a.485.485 0 1 1 .175.954l-1.241.228a.486.486 0 0 1-.088.008z" class="cls-5" transform="translate(-129.079 -19.337)"/>
                    <path id="Path_5675" d="M203.886 26.3a.485.485 0 0 1-.1-.96l5.008-1.028a.485.485 0 1 1 .2.95l-5.007 1.029a.487.487 0 0 1-.101.009z" class="cls-5" transform="translate(-141.114 -16.86)"/>
                    <path id="Path_5676" d="M180.545 34.369a.486.486 0 0 1-.157-.026l-2.052-.7a.485.485 0 0 1-.259-.709l2.464-4.084a.485.485 0 0 1 .831.5l-2.152 3.57 1.482.5a.485.485 0 0 1-.156.944z" class="cls-5" transform="translate(-123.497 -19.853)"/>
                    <circle id="Ellipse_912" cx=".492" cy=".492" r=".492" class="cls-5" transform="rotate(-40.38 43.213 -76.08)"/>
                    <ellipse id="Ellipse_913" cx=".492" cy=".491" class="cls-5" rx=".492" ry=".491" transform="matrix(.928 -.374 .374 .927 54.008 10.442)"/>
                    <path id="Path_5677" d="M165.42 137.757h-.036a.485.485 0 0 1-.449-.519l.809-11.154a.485.485 0 0 1 .968.07l-.809 11.154a.485.485 0 0 1-.483.449z" class="cls-5" transform="translate(-114.427 -87.161)"/>
                    <path id="Path_5678" d="M255.74 137.757a.485.485 0 0 1-.485-.485v-11.154a.485.485 0 0 1 .971 0v11.154a.485.485 0 0 1-.486.485z" class="cls-5" transform="translate(-177.089 -87.161)"/>
                </g>
            </g>
        </g>
        <g id="Group_4021" transform="rotate(180 87.325 180.86)">
            <g id="Group_4020" clip-path="url(#clip-path-2)">
                <g id="Group_4019" transform="translate(-.135 .499)">
                    <g id="Group_4006" transform="translate(66.912 127.029)">
                        <path id="Path_5679" d="M1.277 26.02A18.783 18.783 0 0 0 24.013 0L0 2.123z" class="cls-6" transform="translate(.491 .49)"/>
                        <path id="Path_5680" d="M24.5 0a.322.322 0 0 0-.043 0L.447 2.126A.49.49 0 0 0 0 2.64l1.277 23.9a.49.49 0 0 0 .338.44A19.273 19.273 0 0 0 24.945.278.491.491 0 0 0 24.5 0zM1.006 3.06l23.2-2.051a18.086 18.086 0 0 1 1.676 7.653A18.307 18.307 0 0 1 2.239 26.145z" class="cls-6"/>
                    </g>
                    <g id="Group_4007" transform="translate(52.477 148.165)">
                        <path id="Path_5681" d="M10.765 0a9.135 9.135 0 0 0-5.486 2.385L2.5 5.815 0 3.843a7.825 7.825 0 0 0 2.927 4.72A8.576 8.576 0 0 0 16.4 1.474V.9l-.492.338c-.223.229-.361.2-.654.327a3.8 3.8 0 0 1-3.29-.237A2.559 2.559 0 0 1 10.765 0z" class="cls-6" transform="translate(.491 .49)"/>
                        <path id="Path_5682" d="M11.256 0a.482.482 0 0 0-.079.006l-.042.007a9.561 9.561 0 0 0-5.712 2.514c-.012.012-.024.025-.034.038L2.915 5.619.794 3.948a.49.49 0 0 0-.778.51 8.462 8.462 0 0 0 3.12 5A9.067 9.067 0 0 0 17.379 1.96v-.567a.49.49 0 0 0-.768-.4l-.492.338a.484.484 0 0 0-.072.061.376.376 0 0 1-.214.115 2.868 2.868 0 0 0-.286.1 3.345 3.345 0 0 1-2.87-.225 2.066 2.066 0 0 1-.966-1.075.49.49 0 0 0-.455-.307zM6.135 3.2a8.276 8.276 0 0 1 4.838-2.169 3.017 3.017 0 0 0 1.257 1.225 4.3 4.3 0 0 0 3.71.251 1.955 1.955 0 0 1 .193-.07 1.806 1.806 0 0 0 .26-.1A8.086 8.086 0 0 1 3.7 8.65a6.263 6.263 0 0 1-2.235-2.925l1.221.964a.491.491 0 0 0 .685-.076z" class="cls-6"/>
                    </g>
                    <g id="Group_4008" transform="translate(95.687 56.161)">
                        <path id="Path_5683" d="M12.264 23.917c0 .012-2.684-16.161-5.412-23.917L0 21.543z" class="cls-11" transform="translate(.49 .49)"/>
                        <path id="Path_5684" d="M7.342 0h-.007a.49.49 0 0 0-.46.342L.023 21.885a.49.49 0 0 0 .374.629l12.263 2.374a.506.506 0 0 0 .134.008.491.491 0 0 0 .441-.58l-.009-.052C12.763 21.52 10.319 7.476 7.8.327A.49.49 0 0 0 7.342 0zM1.125 21.657l6.227-19.58c2.162 6.887 4.188 18.167 4.8 21.714z" class="cls-11"/>
                    </g>
                    <g id="Group_4009" transform="translate(76.205 110.408)">
                        <path id="Path_5685" d="M0 17.79a18.815 18.815 0 0 0 16.953-2.553A18.774 18.774 0 0 0 24.781 0z" class="cls-6" transform="translate(.49 .49)"/>
                        <path id="Path_5686" d="M25.271 0a.491.491 0 0 0-.286.092L.2 17.882a.49.49 0 0 0 .13.862 19.306 19.306 0 0 0 17.395-2.62A19.264 19.264 0 0 0 25.762.49a.49.49 0 0 0-.491-.49zM1.58 18.1L24.755 1.464a18.288 18.288 0 0 1-7.6 13.864A18.327 18.327 0 0 1 1.58 18.1z" class="cls-6"/>
                    </g>
                    <g id="Group_4010" transform="translate(12.554 118.688)">
                        <path id="Path_5687" d="M16.185 2.27c.076.575.376 3.809.635 7.046l-.337 11.81c-1 5.467-2.979 11.282-5.17 10.689-2.011-.539-.556-4 .425-10.8-1.913 5.863-3.744 10.028-5.755 9.228-1.995-.8-.033-6.713 1.488-11.22C5.2 21.428 2.24 24.809.8 23.944c-2.06-1.241.343-4.23 1.733-6.353 3.09-4.736 1.21-6.745.114-10.159C1.913 5.161 2.992 2.581 4.839 0" class="cls-11" transform="translate(.49 .49)"/>
                        <path id="Path_5688" d="M5.329 0a.49.49 0 0 0-.4.2C2.7 3.316 1.964 5.889 2.671 8.073c.2.631.429 1.209.648 1.768.979 2.5 1.686 4.3-.707 7.972-.158.242-.33.5-.507.757C.992 20.214-.271 22.076.051 23.537a2.015 2.015 0 0 0 .986 1.317c1.45.874 3.592-1.112 5.763-3.388-1.606 4.977-2.5 8.928-.509 9.728a1.8 1.8 0 0 0 1.483-.053c1-.467 1.951-1.795 3.036-4.325a22.159 22.159 0 0 0-.51 3.734 2.07 2.07 0 0 0 1.372 2.229 1.763 1.763 0 0 0 1.444-.253c2.469-1.555 3.943-8.676 4.336-10.821a.516.516 0 0 0 .008-.074L17.8 9.82a.525.525 0 0 0 0-.053c-.254-3.164-.557-6.455-.638-7.071a.49.49 0 0 0-.972.128c.071.536.366 3.705.631 6.994l-.335 11.746c-.971 5.28-2.5 9.255-3.887 10.132a.786.786 0 0 1-.666.136c-.979-.262-.724-1.838-.055-5.377.266-1.4.567-3 .838-4.876a.49.49 0 0 0-.952-.222c-1.129 3.462-2.815 8.15-4.4 8.894a.835.835 0 0 1-.7.03c-1.592-.639.679-7.373 1.771-10.609a.49.49 0 0 0-.821-.493l-.6.642c-1.689 1.789-4.496 4.779-5.47 4.193a1.045 1.045 0 0 1-.535-.688c-.231-1.049.956-2.8 1.909-4.206.18-.266.355-.524.517-.771 2.669-4.091 1.8-6.3.8-8.865-.215-.546-.435-1.109-.63-1.712C3 5.9 3.694 3.616 5.728.775A.49.49 0 0 0 5.329 0z" class="cls-11"/>
                    </g>
                    <g id="Group_4011" transform="translate(22.677 124.416)">
                        <path id="Path_5689" d="M0 .863c.034 2.88 2.042 5.357 3.235 8.392C4.9 13.461 6.342 16 7.4 16.151c2.438.325-.614-10-1.1-16.151" class="cls-11" transform="translate(.491 .49)"/>
                        <path id="Path_5690" d="M6.8 0h-.043a.49.49 0 0 0-.451.527c.165 2.095.621 4.648 1.061 7.116.619 3.467 1.39 7.781.719 8.48-.021.022-.041.043-.129.031-.285-.041-1.415-.638-3.777-6.59a32.045 32.045 0 0 0-1.389-2.945 12.266 12.266 0 0 1-1.81-5.272.49.49 0 0 0-.49-.484H.485a.49.49 0 0 0-.485.5c.024 2.03.944 3.817 1.919 5.709a31.263 31.263 0 0 1 1.35 2.857c2.442 6.156 3.717 7.082 4.555 7.2A1.09 1.09 0 0 0 8.8 16.8c.965-1.007.453-4.2-.462-9.329C7.9 5.027 7.446 2.5 7.284.452A.49.49 0 0 0 6.8 0z" class="cls-5"/>
                    </g>
                    <g id="Group_4012" transform="translate(75.154)">
                        <path id="Path_5691" d="M23.89 21.8c.1-5.3 1.235-10.865 5.539-12.053A9.339 9.339 0 0 0 36.394 0L15.319.147l-8.55 13.425L6.834.147H.033L0 21.918z" class="cls-12" transform="translate(.491 .49)"/>
                        <path id="Path_5692" d="M36.884 0L15.806.147a.491.491 0 0 0-.41.227L7.758 12.367 7.815.64a.49.49 0 0 0-.49-.492H.523a.49.49 0 0 0-.49.49L0 22.409a.49.49 0 0 0 .49.49l23.89-.114a.49.49 0 0 0 .488-.481c.132-6.779 1.878-10.679 5.182-11.591A9.822 9.822 0 0 0 37.373.454.49.49 0 0 0 36.884 0zM16.08 1.125L36.418.983a8.855 8.855 0 0 1-6.629 8.785c-3.689 1.019-5.668 5.068-5.889 12.038l-22.921.11.034-20.789h5.819L6.769 14.06a.491.491 0 0 0 .9.265z" class="cls-12"/>
                    </g>
                    <path id="Path_5693" d="M72.078 21.048c.666-1.8 5.886-17.607 7.277-21.048l15.978 3.678-5.8 30.754a9.837 9.837 0 0 1-4.349 6.435L58.531 58.131l-.006-.008a11.728 11.728 0 0 1-3.1 1.168 5.333 5.333 0 0 0-2.368-5.2c-2.814-1.751-5.837 1.081-6.282 3.9a18.7 18.7 0 0 1-4.944-4.02C24.152 34.221 24.1 34.27 24.1 34.27L18.442 49.9 0 43.236 7.553 22.4A16.192 16.192 0 0 1 20.42 11.878a16.774 16.774 0 0 1 2.387-.18c1.772 0 5.049-1.733 6.729-1.161.025 1.033 7.253 23.791 8.6 24.483 1.365.7 20.157-.077 24.407.141a3.466 3.466 0 0 0 3.4-1.361c.9-1.414.816-3.182 1.314-4.747l3.766-2.412z" class="cls-13" transform="translate(13.975 76.106)"/>
                    <path id="Path_5694" d="M9.532 0H.491A.49.49 0 0 0 0 .495l.162 17.817a.49.49 0 0 0 .49.486.49.49 0 0 0 .486-.494L.985.98h8.048L8.755 18.3a.49.49 0 0 0 .483.5h.008a.49.49 0 0 0 .49-.482L10.023.5a.49.49 0 0 0-.49-.5z" class="cls-5" transform="translate(60.374 115.618)"/>
                    <path id="Path_5695" d="M1.866 0a.49.49 0 0 0-.488.545 8.222 8.222 0 0 1-.632 4.291 8.931 8.931 0 0 0-.676 4.7.491.491 0 0 0 .974-.116 7.964 7.964 0 0 1 .6-4.186A9.187 9.187 0 0 0 2.353.435.49.49 0 0 0 1.866 0z" class="cls-5" transform="translate(77.588 110.669)"/>
                    <path id="Path_5696" d="M.491 0a.325.325 0 0 0-.045 0A.49.49 0 0 0 0 .535a15.147 15.147 0 0 0 1.84 5.694 14.394 14.394 0 0 1 1.645 5.084.49.49 0 0 0 .973-.121A15.364 15.364 0 0 0 2.7 5.761 14.16 14.16 0 0 1 .98.445.49.49 0 0 0 .491 0z" class="cls-5" transform="translate(50.973 110.669)"/>
                    <g id="Group_4013" transform="translate(0 .147)">
                        <path id="Path_5697" d="M18.209 26.377c.458-6.157-1.063-15.565-11.216-17.1C2.5 8.591-.315 4.589.028.016L25.631 0l9.859 12.935L35.425.163h6.8l.033 16.7z" class="cls-12" transform="translate(.491 .49)"/>
                        <path id="Path_5698" d="M26.122 0L.519.016A.49.49 0 0 0 .03.47c-.373 4.959 2.731 9.072 7.38 9.782 10.74 1.624 11.131 12.135 10.8 16.579a.49.49 0 0 0 .67.492l24.05-9.514a.49.49 0 0 0 .311-.457l-.032-16.7a.49.49 0 0 0-.49-.489h-6.8a.49.49 0 0 0-.49.493l.058 11.307L26.513.193A.491.491 0 0 0 26.122 0zM.985 1L25.879.98l9.712 12.742a.491.491 0 0 0 .881-.3l-.063-12.28h5.819l.031 15.877-23.025 9.11a21.1 21.1 0 0 0-1.721-9.757 12.424 12.424 0 0 0-9.956-7.089A7.845 7.845 0 0 1 .985 1z" class="cls-12"/>
                    </g>
                    <path id="Path_5699" fill="#00c3ae" stroke="#222433" stroke-linejoin="round" stroke-width="0.8px" d="M31.881 89.421L0 10.453 25.93 0l23.116 57.271 8.373-14.594V5.243h27.974v41.272a7.905 7.905 0 0 1-.067 1.027l-4.688 11L63.06 89.421z" transform="translate(17.637 17.165)"/>
                    <g id="Group_4015" transform="translate(97.765 60.092)">
                        <path id="Path_5701" d="M6.393 10.807C5.919 8.684 4.284 2.461 3.777 1.04 3.254-.446.458-.805 1.046 3.147a23.686 23.686 0 0 1 .274 5.541c-.3 3.483-1.73 4.139-1.206 7.2" class="cls-11" transform="translate(.491 .49)"/>
                        <path id="Path_5702" d="M2.847 0a1.7 1.7 0 0 0-.409.049C2 .157.611.741 1.053 3.709c.75 5.084.069 7.063-.478 8.653a7.156 7.156 0 0 0-.452 4.1.49.49 0 0 0 .967-.165 6.274 6.274 0 0 1 .41-3.616c.582-1.69 1.306-3.794.521-9.115-.255-1.71.169-2.446.651-2.566a1.037 1.037 0 0 1 1.131.693c.507 1.423 2.134 7.625 2.6 9.711a.49.49 0 0 0 .957-.213c-.468-2.106-2.115-8.379-2.63-9.825A2.053 2.053 0 0 0 2.847 0z" class="cls-5"/>
                    </g>
                    <g id="Group_4016" transform="translate(49.028 106.096)">
                        <path id="Path_5703" d="M1.962 4.573h27.974L31.178 0H0z" class="cls-13" transform="translate(.491 .49)"/>
                        <path id="Path_5704" d="M31.669 0H.491A.49.49 0 0 0 .04.683L2 5.256a.49.49 0 0 0 .451.3h27.975a.49.49 0 0 0 .473-.361L32.142.619A.49.49 0 0 0 31.668 0zM1.234.98h29.793l-.976 3.593H2.776z" class="cls-5"/>
                    </g>
                    <path id="Path_5705" d="M.49 0A.49.49 0 0 0 0 .49v13.556a.49.49 0 0 0 .981 0V.49A.49.49 0 0 0 .49 0z" class="cls-5" transform="translate(64.854 115.618)"/>
                    <path id="Rectangle_2709" d="M0 0H1.961V1.961H0z" class="cls-5" transform="rotate(45 -121.09 139.2)"/>
                    <path id="Rectangle_2710" d="M0 0H1.961V1.961H0z" class="cls-5" transform="rotate(45 -115.552 136.905)"/>
                    <path id="Rectangle_2711" d="M0 0H1.961V1.961H0z" class="cls-5" transform="rotate(45 -110.01 134.608)"/>
                    <path id="Rectangle_2712" d="M0 0H1.961V1.961H0z" class="cls-5" transform="rotate(45 -118.689 144.99)"/>
                    <path id="Rectangle_2713" d="M0 0H1.961V1.961H0z" class="cls-5" transform="rotate(45 -113.149 142.695)"/>
                    <path id="Rectangle_2714" d="M0 0H1.961V1.961H0z" class="cls-5" transform="rotate(45 -107.609 140.4)"/>
                    <path id="Path_5706" d="M9.328 0C6.231 0 .581 2.184.312 2.289a.49.49 0 0 0-.212.758c.5.642 4.966 6.294 7.534 6.99a5.186 5.186 0 0 0 6.331-3.59 5.133 5.133 0 0 0-3.59-6.329A4.068 4.068 0 0 0 9.328 0zm.916.588zM1.293 2.966c2.337-.859 7.085-2.373 8.821-1.9a4.153 4.153 0 0 1 2.91 5.122A4.2 4.2 0 0 1 7.895 9.09C6.161 8.621 2.86 4.9 1.293 2.966z" class="cls-5" transform="translate(15.043 11.124)"/>
                    <path id="Path_5707" d="M11.028 0a.485.485 0 0 0-.1.01c-.8.163-7.854 1.648-9.62 3.626a5.15 5.15 0 0 0 7.684 6.858c1.766-1.978 2.451-9.149 2.524-9.96A.49.49 0 0 0 11.029 0zM5.155 11.228a4.169 4.169 0 0 1-3.113-6.94c1.193-1.337 6-2.634 8.432-3.178-.268 2.473-1.019 7.395-2.212 8.731a4.129 4.129 0 0 1-2.872 1.382q-.117.005-.235.005z" class="cls-5" transform="translate(4.505 13.379)"/>
                    <path id="Path_5708" d="M4.348 0C2.318 0 .6.136.45.149a.49.49 0 0 0-.416.666c.118.3 2.923 7.422 5.206 8.858A5.146 5.146 0 1 0 10.709.956C9.473.183 6.7 0 4.348 0zM1.2 1.078c2.484-.155 7.462-.247 8.99.708a4.166 4.166 0 1 1-4.429 7.058C4.244 7.889 2.147 3.376 1.2 1.078zm9.251.293z" class="cls-5" transform="translate(101.405 11.463)"/>
                    <path id="Path_5709" d="M4.926 0A4.569 4.569 0 0 0 3.6.163a5.15 5.15 0 1 0 3.113 9.818c2.532-.8 6.785-6.63 7.261-7.292a.49.49 0 0 0-.238-.749C13.472 1.848 8.077 0 4.926 0zm.245 9.237A4.167 4.167 0 0 1 3.893 1.1c1.721-.537 6.522.79 8.889 1.556-1.493 1.993-4.654 5.851-6.363 6.39a4.153 4.153 0 0 1-1.249.192z" class="cls-5" transform="translate(88.319 9.697)"/>
                    <g id="Group_4018" transform="translate(51.388 129.25)">
                        <path id="Path_5716" d="M11.854 18.915a3.514 3.514 0 1 0 4.5-4.832l-.061-.024a11.1 11.1 0 0 0-.348-1.827l1.678-7.007a4.242 4.242 0 0 0-8.252-1.972l-.832 3.475a8.2 8.2 0 0 0-8.464 9.3A8.131 8.131 0 0 0 1 18.829a8.1 8.1 0 0 0-.171 1.087 8.589 8.589 0 0 0 .049 1.829 7.668 7.668 0 0 0 .213 1.029l2.5 1.954a15.06 15.06 0 0 1 5.068-4.246 14.487 14.487 0 0 1 3.195-1.567z" class="cls-11" transform="translate(.491 .49)"/>
                        <path id="Path_5717" d="M13.988 0a4.74 4.74 0 0 0-4.6 3.628l-.744 3.094A8.693 8.693 0 0 0 .08 16.586a8.608 8.608 0 0 0 .892 2.8 8.6 8.6 0 0 0-.143.972A9.038 9.038 0 0 0 .881 22.3a8.153 8.153 0 0 0 .227 1.1.49.49 0 0 0 .169.251l2.5 1.955a.491.491 0 0 0 .682-.076 14.56 14.56 0 0 1 4.936-4.13l.043-.025a17.132 17.132 0 0 1 2.679-1.38 4 4 0 1 0 5.116-5.779 11.11 11.11 0 0 0-.289-1.508l1.647-6.874A4.731 4.731 0 0 0 13.988 0zM9.03 7.708a.49.49 0 0 0 .477-.376l.833-3.476a3.752 3.752 0 0 1 7.3 1.744l-1.678 7.007a.492.492 0 0 0 .013.274A10.762 10.762 0 0 1 16.3 14.6a.511.511 0 0 0 .308.4l.061.024a3.022 3.022 0 1 1-3.883 4.153.491.491 0 0 0-.566-.25 14.668 14.668 0 0 0-3.272 1.591l-.043.025a15.346 15.346 0 0 0-4.9 3.99l-1.995-1.56a7.556 7.556 0 0 1-.158-.813 8.045 8.045 0 0 1-.046-1.72 7.66 7.66 0 0 1 .161-1.019.49.49 0 0 0-.048-.343 7.707 7.707 0 0 1 7.092-11.37z" class="cls-11"/>
                    </g>
                    <path id="Path_5718" d="M.5 0a.49.49 0 1 0-.023.98 7.781 7.781 0 0 1 3.845 1.243.49.49 0 1 0 .54-.819A8.76 8.76 0 0 0 .532 0z" class="cls-5" transform="translate(59.952 135.968)"/>
                    <path id="Path_5719" d="M.49 0a.49.49 0 0 0-.379.8L1.915 3a.49.49 0 0 0 .759-.621L1.634 1.11l1.257.139A.49.49 0 1 0 3 .275L.545 0A.467.467 0 0 0 .49 0z" class="cls-5" transform="translate(65.34 145.751)"/>
                    <path id="Path_5720" d="M2.19 0a.488.488 0 0 0-.276.085l-1.7 1.16a.49.49 0 0 0-.137.668l1.962 3.071a.49.49 0 0 0 .827-.527L1.16 1.787 2.468.895A.49.49 0 0 0 2.191 0z" class="cls-5" transform="translate(52.33 143.351)"/>
                    <circle id="Ellipse_914" cx=".605" cy=".605" r=".605" class="cls-5" transform="matrix(.66 .752 -.752 .659 57.46 146.269)"/>
                    <circle id="Ellipse_915" cx=".605" cy=".605" r=".605" class="cls-5" transform="rotate(48.78 -135.083 131.684)"/>
                    <path id="Path_5721" d="M1.94 0A2.28 2.28 0 0 0 .4.6L.156.828a.49.49 0 1 0 .669.717l.245-.229a1.29 1.29 0 0 1 .99-.33 1.23 1.23 0 0 1 .882.494l.05.067a.49.49 0 0 0 .785-.589L3.728.893A2.229 2.229 0 0 0 2.154.011 2.065 2.065 0 0 0 1.94 0z" class="cls-5" transform="translate(53.785 140.874)"/>
                    <path id="Path_5762" d="M1.866 0a.49.49 0 0 0-.488.545 8.222 8.222 0 0 1-.632 4.291 8.931 8.931 0 0 0-.676 4.7.491.491 0 0 0 .974-.116 7.964 7.964 0 0 1 .6-4.186A9.187 9.187 0 0 0 2.353.435.49.49 0 0 0 1.866 0z" class="cls-5" transform="translate(65.033 73.922)"/>
                </g>
            </g>
        </g>
        <g id="Group_4066" transform="translate(99.199 349.76)">
            <g id="Group_4065" clip-path="url(#clip-path-3)">
                <g id="Group_4064" transform="translate(-.273 .092)">
                    <path id="Path_5744" d="M5.044 11.583L1.633 5.508a1.473 1.473 0 0 1 .851-2.122 1.479 1.479 0 0 1 1.706.663l1.579 2.686-.037-3.959a1.327 1.327 0 0 1 1.322-1.333h.007A1.328 1.328 0 0 1 8.39 2.711l.165 4.271L9.9 4.931a1.331 1.331 0 0 1 1.756-.431l.176.1a1.324 1.324 0 0 1 .5 1.8l-2.945 5.183" class="cls-9" transform="translate(-1.003 -1.001)"/>
                    <path id="Path_5745" d="M4.039 11.024a.443.443 0 0 1-.387-.226L.242 4.723a1.912 1.912 0 0 1 .743-2.605 1.914 1.914 0 0 1 2.582.706l.738 1.256-.021-2.3A1.772 1.772 0 0 1 6.046 0a1.768 1.768 0 0 1 1.78 1.691l.114 2.887.582-.89a1.783 1.783 0 0 1 2.344-.573l.177.1a1.771 1.771 0 0 1 .673 2.4L8.768 10.8A.443.443 0 0 1 8 10.364l2.948-5.186a.885.885 0 0 0-.337-1.2l-.174-.1a.891.891 0 0 0-1.17.286L7.922 6.223A.443.443 0 0 1 7.108 6l-.165-4.273a.883.883 0 0 0-.886-.843.887.887 0 0 0-.887.889l.037 3.957a.443.443 0 0 1-.825.227L2.8 3.271a1.029 1.029 0 0 0-1.785 1.021l3.41 6.075a.442.442 0 0 1-.386.658z" class="cls-5" transform="translate(.002)"/>
                </g>
            </g>
        </g>
        <g id="Group_4099" transform="rotate(7.7 -2494.911 1475.753)">
            <g id="Group_4098" clip-path="url(#clip-path-4)">
                <g id="Group_4097">
                    <g id="Group_4095" transform="translate(6.815)">
                        <ellipse id="Ellipse_924" cx="2.41" cy="2.383" class="cls-9" rx="2.41" ry="2.383" transform="translate(.46 .455)"/>
                        <path id="Path_5758" d="M2.87 5.676A2.854 2.854 0 0 1 0 2.838 2.854 2.854 0 0 1 2.87 0a2.854 2.854 0 0 1 2.87 2.838 2.858 2.858 0 0 1-2.87 2.838zm0-4.766a1.928 1.928 0 1 0 1.949 1.928A1.938 1.938 0 0 0 2.87.911z" class="cls-5"/>
                    </g>
                    <g id="Group_4096" transform="translate(0 3.354)">
                        <ellipse id="Ellipse_925" cx="1.903" cy="1.882" class="cls-9" rx="1.903" ry="1.882" transform="translate(.46 .455)"/>
                        <path id="Path_5759" d="M2.364 4.675A2.351 2.351 0 0 1 0 2.337 2.351 2.351 0 0 1 2.364 0a2.351 2.351 0 0 1 2.363 2.337 2.353 2.353 0 0 1-2.363 2.338zm0-3.764a1.427 1.427 0 1 0 1.442 1.426A1.435 1.435 0 0 0 2.364.911z" class="cls-5"/>
                    </g>
                    <path id="Path_5760" d="M.461 13.235a.462.462 0 0 1-.368-.181.451.451 0 0 1-.075-.4L3.579.33a.461.461 0 0 1 .569-.312.455.455 0 0 1 .316.563L.9 12.9a.46.46 0 0 1-.443.33z" class="cls-5" transform="translate(5.663 2.383)"/>
                    <path id="Path_5761" d="M4.221 10.382a.46.46 0 0 1-.429-.288L.032.623a.454.454 0 0 1 .26-.591.462.462 0 0 1 .6.257l3.758 9.47a.451.451 0 0 1-.048.423.462.462 0 0 1-.381.2z" class="cls-5" transform="translate(1.903 5.236)"/>
                </g>
            </g>
        </g>
        <path id="Line_175" fill="none" stroke="#222433" stroke-linecap="round" stroke-width="1.3px" d="M0 0L255 0" transform="translate(52.5 361.5)"/>
    </g>
</svg>
