<svg xmlns="http://www.w3.org/2000/svg" width="220.819" height="216.581" viewBox="0 0 220.819 216.581"><defs><style>.a{fill:#00b0ff;}.b{fill:#e6e6e6;}.c{fill:#3f3d56;}.d{fill:#fff;}.e{fill:#a0616a;}.f{fill:#2f2e41;}.g{fill:#00bfa6;}</style></defs><path class="a" d="M1487.978-2020.3l175.212-131.146,26.563,216.581Z" transform="translate(-1487.978 2151.445)"/><g transform="translate(15.022 27.37)"><path class="b" d="M263.6,738.9c0,2.363-21.63,2.615-48.252,4.279-26.6,1.662-48.252-1.916-48.252-4.279s21.755-7.118,48.252-4.279C241.973,737.477,263.6,736.54,263.6,738.9Z" transform="translate(-167.099 -588.995)"/><path class="c" d="M686.232,124.769H629.038a12.158,12.158,0,0,0-11.861,9.484l-28.9,128.182a9.826,9.826,0,0,0,9.1,11.976l58.8,2.9a12.982,12.982,0,0,0,13.413-10.655l16.393-90.626,1.22.348,3.137-17.177-1.255-.314,4.576-25.3a7.486,7.486,0,0,0-7.428-8.818Z" transform="translate(-487.983 -124.769)"/><path class="d" d="M655.122,136.395h-6.676a8.4,8.4,0,0,0-8.209,6.611L612.5,270.142a5.206,5.206,0,0,0,4.746,6.3l58.6,3.841a6.743,6.743,0,0,0,7.077-5.533L706.6,143.348a5.906,5.906,0,0,0-5.812-6.953H694.45a2.787,2.787,0,0,0-2.691,2.063h0a2.461,2.461,0,0,1-2.376,1.821H659.316a4.206,4.206,0,0,1-4.194-3.883Z" transform="translate(-506.537 -133.631)"/><path class="e" d="M528.288,401.6l5.167,10.23,15.45,7.024c1.65,2.788,6.893,3,7.274,1.2.428-2.023-6.367-5.279-6.367-5.279l-12.923-8.741-1.131-7.525Z" transform="translate(-442.435 -333.438)"/><path class="e" d="M360.7,575.559l-.953,7.624,5.527.381.572-8Z" transform="translate(-274.234 -438.751)"/><path class="f" d="M522.96,715.947a14.972,14.972,0,0,1-1.364-1.668c-.792-1.1-1.495,4.527-1.495,4.527a10.2,10.2,0,0,0-.572,3.431c.191,1.144,4.574,1.144,5.336.953a36.055,36.055,0,0,1,4.574,0h5.718c4.955-2.287,0-3.812,0-3.812-1.525-.191-6.671-4.955-6.671-4.955l-1.144-2.1c-.762-.191-1.525,2.668-1.525,2.668Z" transform="translate(-435.734 -572.659)"/><path class="e" d="M300.56,575.96l-.953,7.624,5.527.381.572-8Z" transform="translate(-228.392 -439.056)"/><path class="f" d="M462.823,716.348a14.962,14.962,0,0,1-1.364-1.668c-.792-1.1-1.495,4.527-1.495,4.527a8.84,8.84,0,0,0-.572,3.24c.191,1.144,4.574,1.144,5.337.953a31.016,31.016,0,0,1,4.574.191h5.718c4.955-2.287,0-3.812,0-3.812-1.525-.191-6.671-4.955-6.671-4.955l-1.144-2.1c-.762-.191-1.525,2.668-1.525,2.668Z" transform="translate(-389.892 -572.964)"/><path class="f" d="M473.338,492.5c-.762.953-.381,4.193-.381,4.193s-1.334,10.482-.762,11.435-.381,1.715-.953,3.049a30.445,30.445,0,0,0-1.144,4.574c-3.24,2.668-3.049,14.866-3.049,14.866L465.9,541.482c.381,1.144,5.718,1.334,6.48,1.144s3.049-17.344,3.049-17.344l5.146-9.72s-.381,25.92-.381,27.064,5.146.572,6.289.572,1.144-19.059,1.144-19.059l1.143-4.955,6.1-22.68v-2.668l-.953-1.334S474.1,491.548,473.338,492.5Z" transform="translate(-394.88 -404.769)"/><circle class="e" cx="5.908" cy="5.908" r="5.908" transform="translate(80.936 32.651)"/><path class="e" d="M519.824,298.615c-1.2,2.667-.489,6.392,1.906,10.482l-9.72-4.574,1.525-1.334-.381-3.812Z" transform="translate(-430.026 -257.293)"/><path class="g" d="M496.6,319.384a6.1,6.1,0,0,1,2.471,3.562,33.754,33.754,0,0,1,1.451,8.065l.462,8.195,5.718,21.727c-4.955,4.193-7.814,3.24-14.485-.191s-7.433,1.144-7.433,1.144-.572-.191,0-.762,0,0-.572-.572,0,0,.191-.572,0-.191-.191-.381.762-1.906.762-1.906L483.446,343.4l-1.906-20.2c2.287-2.859,8.767-5.337,8.767-5.337l5.908,4.193c1.906.762.381-2.287.381-2.287Z" transform="translate(-406.799 -271.962)"/><path class="e" d="M465.866,391.226l-.762,11.435,9.72,13.913c0,3.24,1.715,4,1.715,4a25.192,25.192,0,0,0,1.715-3.24,3.7,3.7,0,0,0-.572-3.812l-6.671-14.1,2.859-7.052Z" transform="translate(-394.269 -327.89)"/><path class="g" d="M469.717,339.45c-3.24,1.144-3.812,13.532-3.812,13.532,3.812-2.1,8.386,1.334,8.386,1.334s.953-3.24,2.1-7.433a7.284,7.284,0,0,0-1.525-6.861A5.19,5.19,0,0,0,469.717,339.45Z" transform="translate(-394.88 -288.122)"/><path class="f" d="M506.7,262.462c.752-.6,1.778.492,1.778.492l.6-5.415a21.469,21.469,0,0,0,6.168-.15c2.407-.6,2.783,2.181,2.783,2.181a19.328,19.328,0,0,0,.075-3.385c-.15-1.354-2.106-2.708-5.566-3.61s-5.265,3.009-5.265,3.009C504.871,256.787,505.951,263.064,506.7,262.462Z" transform="translate(-425.291 -222.092)"/><path class="b" d="M731.4,275.641a.482.482,0,0,0,.491-.389l13.141-71.527a.475.475,0,0,0-.462-.561l-59.787-.7h-.005a.478.478,0,0,0-.464.371l-15.492,69.205a.475.475,0,0,0,.441.578Z" transform="translate(-549.552 -183.999)"/><path class="b" d="M710.7,529.535a.237.237,0,0,0-.231.184l-.552,2.367a.238.238,0,0,0,.215.291l31.193,2.217a.24.24,0,0,0,.25-.192l.531-2.738a.237.237,0,0,0-.219-.282l-31.172-1.846Z" transform="translate(-580.884 -433.323)"/><path class="b" d="M744.126,568.551a.239.239,0,0,0,.25-.18l.676-2.744a.238.238,0,0,0-.215-.294L705,562.547a.235.235,0,0,0-.245.169l-.7,2.371a.237.237,0,0,0,.209.3Z" transform="translate(-576.416 -458.488)"/><path class="b" d="M735.127,605.551a.238.238,0,0,0,.25-.18l.676-2.744a.238.238,0,0,0-.214-.294L696,599.547a.235.235,0,0,0-.245.169l-.7,2.371a.237.237,0,0,0,.209.3Z" transform="translate(-569.555 -486.693)"/><path class="g" d="M708.011,661.828a.235.235,0,0,0,.253-.179l1.429-5.717a.238.238,0,0,0-.211-.295L685.02,653.58a.242.242,0,0,0-.252.185l-1.219,5.487a.238.238,0,0,0,.21.288Z" transform="translate(-560.786 -527.883)"/></g></svg>