<svg xmlns="http://www.w3.org/2000/svg" width="215.579" height="193.908" viewBox="0 0 215.579 193.908"><defs><style>.a{fill:#a06a9d;stroke:#707070;}.b{fill:#f2f2f2;}.c,.g{fill:#00bfa6;}.c{opacity:0.4;}.d{fill:#3f3d56;}.e{fill:#2f2e41;}.f{fill:#9f616a;}.h{stroke:none;}.i{fill:none;}</style></defs><g transform="translate(-72.693 -253.046)"><g class="a" transform="translate(96.251 253.046) rotate(7)"><rect class="h" width="174" height="174"/><rect class="i" x="0.5" y="0.5" width="173" height="173"/></g><g transform="translate(72.693 253.322)"><path class="b" d="M157.377,173.054l131.55-66.342L235.111,0,98.794,62.375Z" transform="translate(-73.347)"/><circle class="c" cx="8.049" cy="8.049" r="8.049" transform="translate(168.261 119.501)"/><circle class="c" cx="5.646" cy="5.646" r="5.646" transform="translate(155.768 125.748)"/><rect class="b" width="25.242" height="25.242" transform="translate(22.941 116.699) rotate(30)"/><path class="d" d="M756.184,396.824a5.667,5.667,0,1,1,5.667-5.667,5.667,5.667,0,0,1-5.667,5.667Zm0-10.818a5.151,5.151,0,1,0,5.151,5.151A5.151,5.151,0,0,0,756.184,386.005Z" transform="translate(-603.958 -314.914)"/><path class="d" d="M379.184,333.824a5.667,5.667,0,1,1,5.667-5.667A5.667,5.667,0,0,1,379.184,333.824Zm0-10.818a5.151,5.151,0,1,0,5.151,5.151A5.151,5.151,0,0,0,379.184,323.005Z" transform="translate(-324.064 -268.142)"/><path class="d" d="M292.184,682.824a5.667,5.667,0,1,1,5.667-5.667A5.667,5.667,0,0,1,292.184,682.824Zm0-10.818a5.151,5.151,0,1,0,5.151,5.151A5.151,5.151,0,0,0,292.184,672.005Z" transform="translate(-259.472 -527.249)"/><ellipse class="e" cx="8.757" cy="5.28" rx="8.757" ry="5.28" transform="translate(71.111 62.92) rotate(-48.312)"/><circle class="e" cx="22.924" cy="22.924" r="22.924" transform="translate(74.567 53.196)"/><path class="e" d="M226.887,367.755,205.579,369.5a3.526,3.526,0,0,0-3.229,3.259l-.8,10.979a3.526,3.526,0,0,0,3.516,3.78h9.6v.515h3.864v-.515H220.6v.515h3.864v-.515h2.06a3.526,3.526,0,0,0,3.521-3.345l.652-12.723a3.526,3.526,0,0,0-3.809-3.695Z" transform="translate(-196.387 -301.738)"/><path class="f" d="M250.063,461.68l-30.136-14.167-5.409,8.5s15.67,10,16.485,10.818c1.159,1.159,13.651,9.273,18.545,7.985S252.123,462.968,250.063,461.68Z" transform="translate(-206.018 -360.962)"/><path class="e" d="M239.864,641.542,236,650.3h40l-2.905-9.273Z" transform="translate(-175.213 -475.916)"/><path class="f" d="M527.117,463.47s1.545,8.5,0,9.53,10.3,13.651,10.3,13.651l4.894-4.379,1.545-10.045s-4.636-6.439-2.576-12.106S527.117,463.47,527.117,463.47Z" transform="translate(-437.997 -368.934)"/><circle class="f" cx="16.485" cy="16.485" r="16.485" transform="translate(77.272 64.143)"/><path class="g" d="M460.714,511.729s-6.439-9.788-10.045-10.561a26.059,26.059,0,0,0-9.015,0c-2.061.258-9.015-2.318-13.136-.515s0,22.924,0,22.924-4.636,27.045-2.576,34,.515,8.242-.515,9.015,23.439,7.727,23.439,7.727h23.182s0-7.47,2.318-9.273,2.061-39.924,2.061-39.924l7.727-14.939s-1.288-5.667-6.7-5.924a25.3,25.3,0,0,1-10.237-3.1l-3.672,10.567Z" transform="translate(-362.578 -399.936)"/><path class="g" d="M356.684,497.727l-2.318-1.288a33.958,33.958,0,0,1-5.151,0c-.773-.258-10.56-3.348-14.424-1.545a5.942,5.942,0,0,1-6.439-.515s12.621,10.818-2.833,14.167c0,0,.258,1.288,4.121,2.061s4.636,1.545,6.182,2.833a19.934,19.934,0,0,0,6.7,3.091c2.061.515,8.757,4.894,9.788,3.864a27.751,27.751,0,0,0,2.833-4.636Z" transform="translate(-288.427 -395.722)"/><path class="g" d="M612.745,528.513l4.894,2.833s6.439,19.06,5.409,23.7-2.061,3.864-.515,6.954,3.091,3.348,2.061,6.182-.515,9.788-2.061,12.621-9.015,11.848-15.454-3.348S612.745,528.513,612.745,528.513Z" transform="translate(-496.064 -421.099)"/><path class="f" d="M611.548,524.106s-3.606-7.212-4.379-7.727-4.379-18.288-4.379-18.288,5.667-9.273.515-13.394c0,0,9.53-13.394,6.439-13.136s-9.273,10.045-9.273,10.045-1.417-.386-.9-2.447,2.447-9.4.9-9.659-4.636,10.818-4.636,10.818-6.31,11.462-4.379,15.454a49.766,49.766,0,0,0,3.864,6.439l4.379,31.939S608.2,544.454,611.548,524.106Z" transform="translate(-485.595 -377.283)"/><ellipse class="g" cx="2.833" cy="1.288" rx="2.833" ry="1.288" transform="translate(26.015 68.264)"/><path class="f" d="M193.108,404.774H189.5s-7.985-2.576-7.985-8.5,2.318-18.03,9.53-17.773.515,16.227.515,16.227l4.366,1.782.013,5.431Z" transform="translate(-181.517 -309.723)"/><ellipse class="e" cx="14.682" cy="7.47" rx="14.682" ry="7.47" transform="translate(76.37 62.211)"/><ellipse class="f" cx="1.288" cy="2.833" rx="1.288" ry="2.833" transform="translate(109.597 76.12)"/><ellipse class="e" cx="5.28" cy="8.757" rx="5.28" ry="8.757" transform="translate(109.907 58.443) rotate(-25.902)"/></g></g></svg>