<svg xmlns="http://www.w3.org/2000/svg" xmlns:xlink="http://www.w3.org/1999/xlink" width="213.58" height="190" viewBox="0 0 213.58 190"><defs><style>.a{fill:#f8b040;}.b{fill:#85848b;}.c{fill:#504f60;}.d{opacity:0.2;}.e{fill:#00bfa6;}.f{fill:#514e7f;}.g{fill:#464353;}.h{fill:#a1616a;}.i,.t{opacity:0.1;}.j{fill:#33323d;}.k{fill:#8dd070;}.l{fill:#fbbebe;}.m,.q{opacity:0.05;}.n{fill:#3f3d56;}.o{fill:url(#a);}.p{fill:#2d293d;}.r{fill:#ffcdd3;}.s{fill:#575988;}</style><linearGradient id="a" x1="0.5" y1="1" x2="0.5" gradientUnits="objectBoundingBox"><stop offset="0" stop-color="gray" stop-opacity="0.251"/><stop offset="0.54" stop-color="gray" stop-opacity="0.122"/><stop offset="1" stop-color="gray" stop-opacity="0.102"/></linearGradient></defs><circle class="a" cx="95" cy="95" r="95" transform="translate(12)"/><g transform="translate(0 26.251)"><rect class="b" width="213.58" height="1.561" transform="translate(0 136.526)"/><path class="c" d="M798.18,650.3c0,1.2-7,4.7-15.311,4.7s-14.79-3.5-14.79-4.7,6.738-.814,15.058-.814S798.18,649.1,798.18,650.3Z" transform="translate(-628.97 -541.332)"/><path class="d" d="M798.18,653.72c0,1.2-7,4.7-15.311,4.7s-14.79-3.5-14.79-4.7" transform="translate(-628.97 -544.753)"/><path class="e" d="M502.34,532.974a9.29,9.29,0,0,0,4.041-.136c.2-.063.427-.2.407-.407a.493.493,0,0,0-.092-.2,12.569,12.569,0,0,1-1.221-2.326.2.2,0,0,0-.075-.106.192.192,0,0,0-.13,0c-.6.157-1.111.541-1.7.706a2.421,2.421,0,0,1-.928.069c-.269-.031-.635-.252-.879-.224C501.9,531.236,502.236,532.066,502.34,532.974Z" transform="translate(-416.843 -446.036)"/><path class="e" d="M624.2,516.325a7.062,7.062,0,0,0,2.336-2.194.38.38,0,0,0,.063-.189.392.392,0,0,0-.075-.183,7.562,7.562,0,0,0-1.9-2.049,5.539,5.539,0,0,0-1.058.977c-.224.236-.842.61-.849.971,0,.2.236.44.346.611.149.22.289.444.423.672A7.969,7.969,0,0,1,624.2,516.325Z" transform="translate(-513.189 -431.64)"/><path class="f" d="M476.632,541.383a.905.905,0,0,1-.163.59.8.8,0,0,1-.342.2c-1.886.676-4.07-.167-5.952.5-.387.136-.753.334-1.142.464a6.211,6.211,0,0,1-1.424.252c-.665.063-1.335.1-2,.122a4.815,4.815,0,0,1-1.51-.132,1.813,1.813,0,0,1-1.158-.918.881.881,0,0,1-.057-.653.7.7,0,0,1,.124-.2,1.786,1.786,0,0,1,.444-.36l.694-.448a4.657,4.657,0,0,1,1.052-.558c.275-.09.566-.128.844-.2a5.732,5.732,0,0,0,2.411-1.8l.944-1.007a.95.95,0,0,1,.328-.263.908.908,0,0,1,.407-.039,5.441,5.441,0,0,1,2.574.863,3.339,3.339,0,0,0,.635.375,2.267,2.267,0,0,0,1.774-.22c.242-.13.189-.2.291-.435s.35-.38.566-.169a.6.6,0,0,1,.134.256,7.219,7.219,0,0,1,.126,2.1.924.924,0,0,0,.041.326,1.844,1.844,0,0,0,.185.3.676.676,0,0,1,.039.077,2.069,2.069,0,0,1,.136.983Z" transform="translate(-385.846 -451.721)"/><path class="g" d="M476.632,554.979a.905.905,0,0,1-.163.59.8.8,0,0,1-.342.2c-1.886.676-4.07-.167-5.952.5-.387.136-.753.334-1.142.464a6.211,6.211,0,0,1-1.424.252c-.665.063-1.335.1-2,.122a4.815,4.815,0,0,1-1.51-.132,1.813,1.813,0,0,1-1.158-.918.881.881,0,0,1-.057-.653.7.7,0,0,1,.124-.2c.11.23.189.535.258.645a1.321,1.321,0,0,0,.883.637,2.193,2.193,0,0,0,.814-.1c1.709-.423,3.526-.429,5.169-1.07a11.956,11.956,0,0,1,1.693-.651,13.3,13.3,0,0,1,1.831-.149c.965-.077,1.9-.368,2.849-.521a2.07,2.07,0,0,1,.128.989Z" transform="translate(-385.846 -465.317)"/><path class="f" d="M609.407,521.026a3.43,3.43,0,0,1-1.042,1.856,12.133,12.133,0,0,0-1.459,1.6,12.84,12.84,0,0,1-1.343,2.3,3.679,3.679,0,0,1-.814.58,5.681,5.681,0,0,1-1.048.482,7.818,7.818,0,0,1-2.961.161,2.663,2.663,0,0,1-.94-.181,2.843,2.843,0,0,1-.391-.24,1.867,1.867,0,0,1-.61-.61.611.611,0,0,1-.059-.444,1.043,1.043,0,0,1,.283-.431,6.72,6.72,0,0,1,.716-.645,4.291,4.291,0,0,0,.932-.814,2.629,2.629,0,0,0,.36-.814,7.215,7.215,0,0,0,.262-1.557,4.939,4.939,0,0,1,.108-1.042c.151-.537.549-1.017.5-1.573a.392.392,0,0,1,.02-.238.331.331,0,0,1,.187-.116,3.316,3.316,0,0,1,.973-.226,1.133,1.133,0,0,1,.9.354c.138.167.23.407.433.472a.688.688,0,0,0,.309.012,2.591,2.591,0,0,0,1.424-.437,1.776,1.776,0,0,0,.59-1.3c0-.185-.083-.378.2-.407.216-.028.387.2.5.346a4.823,4.823,0,0,1,.952,1.734.511.511,0,0,1,.181-.035.788.788,0,0,1,.649.332A1.293,1.293,0,0,1,609.407,521.026Z" transform="translate(-494.074 -436.466)"/><path class="g" d="M609.708,528.921a3.43,3.43,0,0,1-1.042,1.856,12.141,12.141,0,0,0-1.459,1.6,12.844,12.844,0,0,1-1.343,2.3,3.682,3.682,0,0,1-.814.58,5.675,5.675,0,0,1-1.048.482,7.82,7.82,0,0,1-2.961.161,2.662,2.662,0,0,1-.94-.181,2.83,2.83,0,0,1-.391-.24,1.866,1.866,0,0,1-.61-.61,1.487,1.487,0,0,1,.61-.146c.44.024.761.44,1.182.568.6.181,1.2-.242,1.807-.387.4-.094.814-.069,1.207-.2a2.982,2.982,0,0,0,.893-.541,4.548,4.548,0,0,0,.954-.92,5.908,5.908,0,0,0,.56-1.117,15.979,15.979,0,0,1,1.131-2.165,1.531,1.531,0,0,1,.23-.3,3.2,3.2,0,0,1,.311-.226,2.366,2.366,0,0,0,.718-1.31,2.3,2.3,0,0,1,.161-.437.787.787,0,0,1,.649.332A1.293,1.293,0,0,1,609.708,528.921Z" transform="translate(-494.375 -444.361)"/><path class="h" d="M438.433,202.318a4.316,4.316,0,0,1,1.221,1.424c.285.558,1.927,4.884,1.831,5.513.535-.539,2.645-.627,3.187-1.166.226-.226,1.445-1.353,1.628-1.616s1.542-.814,1.691-1.091c.556-1-3.94-4.766-3.364-5.749a.256.256,0,0,0,.047-.155.252.252,0,0,0-.075-.12,6.741,6.741,0,0,0-1.3-.889,2.062,2.062,0,0,1-.991-1.18,4.273,4.273,0,0,0-1.15.777q-1.237,1.06-2.432,2.163c-.311.289-.914.674-1.058,1.087C437.5,201.761,438.136,202.076,438.433,202.318Z" transform="translate(-365.771 -181.202)"/><path class="f" d="M455.133,214.13a13.244,13.244,0,0,0-1.925,1.575,3.832,3.832,0,0,0-1.221,1.962c-.057.3-.049.61-.1.918-.2,1.333-1.355,2.31-1.864,3.557a6.17,6.17,0,0,0-.324,1.19,14.07,14.07,0,0,0-.234,2.336c-.012.759.733,1.282,1.005,1.99a12.152,12.152,0,0,1,.484,2.163,25.626,25.626,0,0,0,1.221,4.009c1,2.772,4.255,10.433,5.258,13.207,3.075-.771,11.259-2.544,13.982-4.17.908-.541-6.3-6.648-5.327-7.069a.362.362,0,0,0,.273-.511c-.971-4.245-4.007-7.733-5.384-11.866a36,36,0,0,0-1.988-4.023c-.59-1.235-.906-2.6-1.612-3.775a2.38,2.38,0,0,0-.515-.641,3.035,3.035,0,0,0-.568-.344C455.9,214.443,455.521,214.327,455.133,214.13Z" transform="translate(-375.193 -194.615)"/><circle class="h" cx="4.813" cy="4.813" r="4.813" transform="translate(68.013 11.009)"/><path class="g" d="M466.4,205.417a1.614,1.614,0,0,1,1.809-.26.874.874,0,0,1,.537.869l2.387.037a4.793,4.793,0,0,1,1.131.1,1.644,1.644,0,0,1,.944.592c.029.039.061.085.11.092a.175.175,0,0,0,.11-.037,2.072,2.072,0,0,1,1.188-.2,6.42,6.42,0,0,1,3.494,1.534,1.129,1.129,0,0,1,.407.507c.083.271-.016.61.2.8,0,2.238.769,4.33,1.282,6.512a2.921,2.921,0,0,0,.722,1.038,4.185,4.185,0,0,1,.771,1.152c.436,1.131-.165,2.462.258,3.6a6.166,6.166,0,0,0,.814,1.292,3.341,3.341,0,0,1,.7,1.669c.018.273-.016.547,0,.814a4.927,4.927,0,0,0,.2,1.081q.26.985.545,1.968a4.466,4.466,0,0,0,1.66,2.763c-2.289.389-4.7.769-6.884-.026a3.569,3.569,0,0,1-.859-.429,4.948,4.948,0,0,1-1.508-2.43,11.474,11.474,0,0,1-.84-3.136,3.6,3.6,0,0,0-.144-1.017,2.9,2.9,0,0,0-1.351-1.274,6.487,6.487,0,0,1-1.628-1.266,2.53,2.53,0,0,1-.659-1.9c.041-.336.173-.659.185-1a.781.781,0,0,0-.462-.814c-1.667-.5-2.462-2.479-2.833-4.18a13.417,13.417,0,0,1-.214-2.666l-.022-1.736a2.291,2.291,0,0,1-.749-1.646,1.957,1.957,0,0,0-.01-.545,1.5,1.5,0,0,0-.383-.58A5.176,5.176,0,0,1,466.4,205.417Z" transform="translate(-388.679 -187.334)"/><path class="g" d="M439.9,228.531a13.327,13.327,0,0,1-.053,1.616c-.047.2-.128.407-.187.6a3.5,3.5,0,0,0,.222,2.265,12.615,12.615,0,0,0,1.158,2,3.256,3.256,0,0,1,.37.694,3.588,3.588,0,0,1,.142.792,24.6,24.6,0,0,0,.566,3.2c.228.912,2.816,8.705,3.419,9.428a.767.767,0,0,0,.464.315.845.845,0,0,0,.395-.081l1.221-.468a.8.8,0,0,0,.283-.155.728.728,0,0,0,.175-.48c.087-.993-2.507-8.842-2.837-9.78-1-2.833-2.324-5.563-2.973-8.5a6.173,6.173,0,0,0-.873-2.717c-.246-.269-.163-.155-.458-.014a3.344,3.344,0,0,0-.431.226A1.412,1.412,0,0,0,439.9,228.531Z" transform="translate(-367.303 -204.946)"/><path class="g" d="M556.62,320.79" transform="translate(-460.54 -279.571)"/><path class="e" d="M458.29,227.939c.328,1.732.665,3.459,1,5.191l4.778-1.251a3.358,3.358,0,0,0-.407-1.424c-.435-1.093-.446-2.31-.8-3.433-.267-.855-.731-1.64-.981-2.5-.144-.5-.218-1.017-.36-1.524a11.073,11.073,0,0,0-.562-1.455,9.108,9.108,0,0,0-1.042-1.931,3.038,3.038,0,0,0-1.61,1.044,2.254,2.254,0,0,0-.3,1.017c-.083,1.072.305,2.151.177,3.217a9.462,9.462,0,0,0,.1,3.05Z" transform="translate(-381.99 -198.98)"/><path class="g" d="M477.818,333.308a5.707,5.707,0,0,1-.438,3.1,23.987,23.987,0,0,0-.973,4.66,4.032,4.032,0,0,1-.24,1.178c-.151.34-.407.627-.582.95a4.773,4.773,0,0,0-.364,2.861c.069.641.173,1.28.3,1.911a4.833,4.833,0,0,1,.124,2.33c.379-.083.635.407.611.792a2.111,2.111,0,0,0,.037,1.146c.468.171.472.814.458,1.313a11.038,11.038,0,0,0,.326,2.564q1.062,5.108,2.255,10.187c1.72.533,3.728,1.089,5.368.35a1.077,1.077,0,0,0,.68-.684,1.193,1.193,0,0,0-.065-.525l-.777-2.829a5.194,5.194,0,0,1-.279-2.092c.075-.523.3-1.087.047-1.549-.087-.159-.226-.283-.328-.433-.407-.6-.193-1.394-.161-2.116a1.675,1.675,0,0,0-.033-.484,2.417,2.417,0,0,0-.232-.531,8.123,8.123,0,0,1-.9-4.041,1,1,0,0,0-.071-.527,1.7,1.7,0,0,1-.132-.216.59.59,0,0,1,.043-.389,3.562,3.562,0,0,1-.627-.61.877.877,0,0,0,.151-1.372.458.458,0,0,0,.218-.788c-.1-.069-.232-.1-.3-.2-.11-.151-.02-.36.069-.521l.474-.857c.354-.637.433-1.424.814-2.035a15.252,15.252,0,0,0,1.254-2.861l1.369-3.779.922.8a2.914,2.914,0,0,1,.757.863,3.723,3.723,0,0,1,.246,1.034c.338,2.051,1.628,3.83,2.106,5.85a3.852,3.852,0,0,0,.435,1.306,2.849,2.849,0,0,1,.248.374,1.986,1.986,0,0,1,.1.621,2.9,2.9,0,0,0,1.221,2.076c.454.311,1.017.525,1.264,1.017a1.9,1.9,0,0,0,.2.433c.22.264.694.3.787.627.053.185-.045.407.059.57a.54.54,0,0,0,.226.169l1.325.661c1.481.741,2.238,2.442,3.331,3.681a7.939,7.939,0,0,1,1,1.319c.472.844.69,1.9,1.487,2.442a2.25,2.25,0,0,1,.578.429c.25.33.159.792.181,1.207s.34.91.735.783a2.9,2.9,0,0,0,0,1.536,7.733,7.733,0,0,0,4.693-1.9,1.851,1.851,0,0,0,.763-1.282.459.459,0,0,0-.057-.254.726.726,0,0,0-.3-.226c-1.239-.672-1.612-2.228-2.238-3.492a30.249,30.249,0,0,0-2.035-3.111c-1.473-2.228-2.478-4.924-4.707-6.4a3.2,3.2,0,0,1-1.306-1.146c-.136-.3-.153-.641-.26-.95a.825.825,0,0,0-.7-.61,4.264,4.264,0,0,0,.159-1.477,1.866,1.866,0,0,0-.073-.637,3.1,3.1,0,0,0-.328-.631,6.052,6.052,0,0,1-.838-3.256,5.338,5.338,0,0,0-.057-1.756c-.09-.283-.246-.541-.354-.814a5.087,5.087,0,0,1-.254-1.53l-.122-1.956a9.62,9.62,0,0,0-.252-1.933c-.407-1.518-.814-7.877-2.208-8.593s-3.789,4.178-5.358,4.273a6.977,6.977,0,0,0-2.035.393,9.915,9.915,0,0,0-2.772,1.831l-2.885,2.424A10.636,10.636,0,0,1,477.818,333.308Z" transform="translate(-395.658 -281.314)"/><path class="g" d="M415.359,164.364a3.628,3.628,0,0,1,2.8-1.365,6.522,6.522,0,0,1,3.1.777,3.824,3.824,0,0,0,.9.37c.509.1,1.074-.035,1.534.2a1.838,1.838,0,0,1,.676,1.831,3.363,3.363,0,0,0,.183,2.035,4.7,4.7,0,0,1,.352.531,1.756,1.756,0,0,1-.028,1.131,7.328,7.328,0,0,1-.584-.747.688.688,0,0,0-.842-.218c-.263.177-.258.5-.273.788s-.087.635-.36.729a.584.584,0,0,1-.61-.238c-.466-.57-.279-1.479-.741-2.053-.263-.326-.7-.484-.942-.826-.191-.269-.24-.61-.407-.9s-.556-.5-.814-.3a1.1,1.1,0,0,0-.218.291,1.251,1.251,0,0,1-1.485.448,2.486,2.486,0,0,0-.643-.279.8.8,0,0,0-.735.407,1.589,1.589,0,0,0-.2.851,1.96,1.96,0,0,1-.159,1.166,1.206,1.206,0,0,1-.326.309,1.014,1.014,0,0,1-1.127.116.847.847,0,0,1-.252-.79,6.377,6.377,0,0,1,.24-.834c.179-.631-.055-1.341.14-1.935A6.178,6.178,0,0,1,415.359,164.364Z" transform="translate(-347.049 -153.886)"/><path class="e" d="M432.76,206.327a.741.741,0,0,0,.045.442.7.7,0,0,0,.24.23,4.936,4.936,0,0,0,2.267.735.69.69,0,0,1,.313.081.551.551,0,0,1,.132.631,1.643,1.643,0,0,0-.144.672c.059.425.564.61.989.674a2.3,2.3,0,0,0,1.721-.336,2.66,2.66,0,0,0,.71-1.064c1.168-2.684,1.577-5.651,2.759-8.327a1.768,1.768,0,0,0,.177-.558.549.549,0,0,0-.22-.513c-.22-.136-.562-.059-.71-.273-.073-.108-.065-.254-.13-.368-.136-.242-.495-.2-.739-.344-.191-.1-.324-.311-.537-.352a.676.676,0,0,0-.556.24,7.156,7.156,0,0,0-1.445,2.432,28.506,28.506,0,0,1-2.067,3.834,2.236,2.236,0,0,0-.647-1.268c-.364-.073-.83.566-1.028.8A5.12,5.12,0,0,0,432.76,206.327Z" transform="translate(-361.872 -181.493)"/><path class="i" d="M460.269,200.32a.975.975,0,0,0-.755.378,2.153,2.153,0,0,0-.315,1.017,8.841,8.841,0,0,1-1.2,3.219" transform="translate(-381.988 -183.615)"/><path class="i" d="M465.552,204.31a1.162,1.162,0,0,0-.987.592,3.325,3.325,0,0,0-.248,1.005,5.517,5.517,0,0,1-.987,2.114" transform="translate(-386.233 -186.794)"/><path class="j" d="M266.3,362.462v-2.527a7.016,7.016,0,0,0-7.016-7.014h-99.81a7.016,7.016,0,0,0-7.016,7.014v4.66Z" transform="translate(-138.623 -305.163)"/><path class="k" d="M323.364,277.374s-.285,17.675,2.849,23.491,4.477,31.116,4.477,31.116,32.852,3.4,55.744-4.07,71.6-10.522,71.6-10.522l-8.209-55.327s-40.554-2.6-63.623,8.4S323.364,277.374,323.364,277.374Z" transform="translate(-274.744 -232.579)"/><path class="i" d="M323.364,277.374s-.285,17.675,2.849,23.491,4.477,31.116,4.477,31.116,32.852,3.4,55.744-4.07,71.6-10.522,71.6-10.522l-8.209-55.327s-40.554-2.6-63.623,8.4S323.364,277.374,323.364,277.374Z" transform="translate(-274.744 -232.579)"/><path class="k" d="M358.329,299.122s-1.028,14.584,1.551,19.244,2.7,25.463,2.7,25.463,29.565,1.372,50.6-5.787,65.225-11.8,65.225-11.8l-5.022-45.246s-36.567-.376-57.909,9.7S358.329,299.122,358.329,299.122Z" transform="translate(-302.438 -247.871)"/><ellipse class="i" cx="7.676" cy="16.462" rx="7.676" ry="16.462" transform="translate(101.017 50.163) rotate(-7.1)"/><path class="d" d="M382.866,130.66s-39.4,9.971-57.977,27.522-57.69,25.862-57.69,25.862,5.152,16.908,9.918,21.483,13.8,28.245,13.8,28.245,32.308-6.85,51.8-20.988,64.928-31.995,64.928-31.995Z" transform="translate(-230.014 -128.131)"/><path class="k" d="M264.29,171.612s5.15,16.91,9.912,21.485,13.8,28.242,13.8,28.242,32.312-6.847,51.809-20.986,64.926-31.989,64.926-31.989L379.954,118.23s-39.4,9.971-57.975,27.522S264.29,171.612,264.29,171.612Z" transform="translate(-227.696 -118.23)"/><path class="i" d="M264.29,171.612s5.15,16.91,9.912,21.485,13.8,28.242,13.8,28.242,32.312-6.847,51.809-20.986,64.926-31.989,64.926-31.989L379.954,118.23s-39.4,9.971-57.975,27.522S264.29,171.612,264.29,171.612Z" transform="translate(-227.696 -118.23)"/><path class="k" d="M308,194.062s3.5,14.2,7.383,17.84,10.378,23.4,10.378,23.4,28.558-7.769,46.378-21.037,58.461-31.23,58.461-31.23L411.937,141.5s-34.917,10.86-52.138,27S308,194.062,308,194.062Z" transform="translate(-262.512 -136.765)"/><ellipse class="i" cx="7.676" cy="16.462" rx="7.676" ry="16.462" transform="translate(88.11 42.413) rotate(-24.97)"/><path class="i" d="M269.021,384.3v70.2a6.07,6.07,0,0,1-6.072,6.07H158.558a6.07,6.07,0,0,1-6.068-6.07V377.22c2.991,1.111,2.991,1.111,6.068,1.017H262.949a6.072,6.072,0,0,1,6.072,6.06Z" transform="translate(-138.647 -324.518)"/><path class="c" d="M269.021,388.679v70.2a6.072,6.072,0,0,1-6.072,6.07H158.558a6.07,6.07,0,0,1-6.068-6.07V381.6c2.991,1.109,2.991,1.109,6.068,1.017H262.949A6.072,6.072,0,0,1,269.021,388.679Z" transform="translate(-138.647 -328.007)"/><path class="i" d="M594.52,543.936v22.451H572.747a11.226,11.226,0,1,1,0-22.452Z" transform="translate(-464.443 -457.308)"/><path class="j" d="M595.98,541v22.455H574.207a11.226,11.226,0,1,1,0-22.452Z" transform="translate(-465.606 -454.97)"/><circle class="i" cx="4.377" cy="4.377" r="4.377" transform="translate(105.268 93.478)"/><circle class="e" cx="4.377" cy="4.377" r="4.377" transform="translate(105.565 92.883)"/><path class="l" d="M855.086,527.753c.173,1.874-1.245,3.693-.832,5.529.09.393.258.763.32,1.16a4.459,4.459,0,0,1-1.1,3.034l-5.331,7.822a4.856,4.856,0,0,1-.761.94c-1.017.908-2.548.814-3.887,1.085a6.643,6.643,0,0,0-2.6,1.152.167.167,0,0,0-.024.228,2.238,2.238,0,0,0,1.937.91c.14.185,0,.456-.2.588-.287.2-.68.252-.737.737a.8.8,0,0,0,.1.488,1.516,1.516,0,0,0,.932.649c1.846.564,3.84-.427,5.222-1.776s2.373-3.052,3.728-4.426c.751-.759,1.6-1.41,2.377-2.147a27.209,27.209,0,0,0,3.9-5.044,5.627,5.627,0,0,0,.845-1.717c.146-.625.077-1.255.242-1.86a6.851,6.851,0,0,1,1.278-2.09,6.914,6.914,0,0,0,1.453-4.5,4.313,4.313,0,0,0-2.633-3.734,2.34,2.34,0,0,0-1.475-.09,3.5,3.5,0,0,0-1.5,1.194l-1.018,1.17a2.744,2.744,0,0,0-.59.9.938.938,0,0,0,.2,1" transform="translate(-686.918 -441.917)"/><path class="m" d="M855.086,527.753c.173,1.874-1.245,3.693-.832,5.529.09.393.258.763.32,1.16a4.459,4.459,0,0,1-1.1,3.034l-5.331,7.822a4.856,4.856,0,0,1-.761.94c-1.017.908-2.548.814-3.887,1.085a6.643,6.643,0,0,0-2.6,1.152.167.167,0,0,0-.024.228,2.238,2.238,0,0,0,1.937.91c.14.185,0,.456-.2.588-.287.2-.68.252-.737.737a.8.8,0,0,0,.1.488,1.516,1.516,0,0,0,.932.649c1.846.564,3.84-.427,5.222-1.776s2.373-3.052,3.728-4.426c.751-.759,1.6-1.41,2.377-2.147a27.209,27.209,0,0,0,3.9-5.044,5.627,5.627,0,0,0,.845-1.717c.146-.625.077-1.255.242-1.86a6.851,6.851,0,0,1,1.278-2.09,6.914,6.914,0,0,0,1.453-4.5,4.313,4.313,0,0,0-2.633-3.734,2.34,2.34,0,0,0-1.475-.09,3.5,3.5,0,0,0-1.5,1.194l-1.018,1.17a2.744,2.744,0,0,0-.59.9.938.938,0,0,0,.2,1" transform="translate(-686.918 -441.917)"/><path class="n" d="M912.489,768.666a6.171,6.171,0,0,1-3.968.588c-.218-.026-.476-.043-.61.126-.2.244.037.61.285.8a5.871,5.871,0,0,0,2.725,1.121,17.941,17.941,0,0,0,2.666.177,45.075,45.075,0,0,0,7.287-.267,1.032,1.032,0,0,0,.407-.118.745.745,0,0,0,.3-.458,1.816,1.816,0,0,0-.633-1.734,5.312,5.312,0,0,0-1.7-.912l-2.116-.824a5.439,5.439,0,0,0-1.831-.665C914.288,766.574,913.33,768.174,912.489,768.666Z" transform="translate(-740.285 -634.582)"/><path class="m" d="M912.489,768.666a6.171,6.171,0,0,1-3.968.588c-.218-.026-.476-.043-.61.126-.2.244.037.61.285.8a5.871,5.871,0,0,0,2.725,1.121,17.941,17.941,0,0,0,2.666.177,45.075,45.075,0,0,0,7.287-.267,1.032,1.032,0,0,0,.407-.118.745.745,0,0,0,.3-.458,1.816,1.816,0,0,0-.633-1.734,5.312,5.312,0,0,0-1.7-.912l-2.116-.824a5.439,5.439,0,0,0-1.831-.665C914.288,766.574,913.33,768.174,912.489,768.666Z" transform="translate(-740.285 -634.582)"/><path class="g" d="M931.707,592.082c-.881,1.172-1.793,2.525-1.575,3.976a8.864,8.864,0,0,0,.877,2.194,15.474,15.474,0,0,1,.887,3.085c.33,1.534.661,3.073.863,4.632.23,1.76-.851,6.854-.95,8.626a1.823,1.823,0,0,1-.372,1.2c-.116.122-.271.22-.324.378a.647.647,0,0,0,.071.448,4.925,4.925,0,0,0,2.645,2.43,20.93,20.93,0,0,0,5.1,1.341,1.018,1.018,0,0,0,.48-.063.934.934,0,0,0,.37-.425c.885-1.693.035-7.712.047-9.623.012-1.593.389-3.176.319-4.768-.057-1.278-.407-2.527-.523-3.8a22.431,22.431,0,0,1,.564-6.249c.293-1.583.588-3.166.965-4.729a9.077,9.077,0,0,1,1.017-2.745c.407-.657.979-1.207,1.453-1.831a8.266,8.266,0,0,0,1.628-6.052c-.029-.2-3.052.767-3.319.883a10.338,10.338,0,0,0-2.959,1.9,24.862,24.862,0,0,0-1.864,2.306q-1.3,1.585-2.568,3.193Q933.1,590.222,931.707,592.082Z" transform="translate(-758.02 -486.092)"/><path class="m" d="M931.707,591.772c-.881,1.172-1.793,2.527-1.575,3.976a8.847,8.847,0,0,0,.877,2.2,15.458,15.458,0,0,1,.887,3.083c.33,1.536.661,3.075.863,4.631.23,1.762-.851,6.854-.95,8.626a1.829,1.829,0,0,1-.372,1.2c-.116.12-.271.218-.324.376a.645.645,0,0,0,.071.448,4.985,4.985,0,0,0,2.645,2.442,19.658,19.658,0,0,0,5.1.954,1.017,1.017,0,0,0,.48-.063.919.919,0,0,0,.37-.423c.885-1.693.035-7.326.047-9.238.012-1.6.389-3.176.319-4.77-.057-1.278-.407-2.527-.523-3.8a22.438,22.438,0,0,1,.564-6.251c.293-1.581.588-3.164.965-4.729a9.078,9.078,0,0,1,1.017-2.745c.407-.657.979-1.207,1.453-1.831a8.262,8.262,0,0,0,1.628-6.052c-.029-.2-3.052.767-3.319.883a10.387,10.387,0,0,0-2.959,1.9,24.562,24.562,0,0,0-1.864,2.3q-1.3,1.585-2.568,3.195Q933.1,589.91,931.707,591.772Z" transform="translate(-758.02 -485.853)"/><circle class="l" cx="4.939" cy="4.939" r="4.939" transform="translate(158.945 70.298)"/><path class="l" d="M893.25,483.251a6.4,6.4,0,0,0,4.1,2.861l-.372,1.353c-.643,2.324-1.365,4.782-3.16,6.394a2.972,2.972,0,0,0-.5-2.312,8.713,8.713,0,0,0-1.677-1.752l-2.843-2.462a.855.855,0,0,1-.2-.24.722.722,0,0,1,0-.541,6.6,6.6,0,0,1,2.238-2.592,7.755,7.755,0,0,0,1.125-1.31C892.526,481.839,892.878,482.653,893.25,483.251Z" transform="translate(-724.918 -408.222)"/><path class="g" d="M853.031,448.048l-.112-.928c.779.2,1.52-.46,2.019-1.146s.96-1.494,1.719-1.781c.922-.346,1.9.2,2.78.667a8.79,8.79,0,0,0,3.189,1.038,2.1,2.1,0,0,1,.527.085,1.834,1.834,0,0,1,.93,1.577,6.167,6.167,0,0,0,.344,1.929c.2.442.582.769.814,1.2.61,1.168.02,2.765.657,3.911l-1.583-1.451c-.145-.132-.348-.271-.509-.159-.126.09-.136.283-.187.437a.831.831,0,0,1-1.127.407,3.231,3.231,0,0,1-1.017-.922,6.176,6.176,0,0,0-2.511-1.9,3.223,3.223,0,0,0-2.645.175c-.739.417-1.28,1.39-2.186,1.424-1.241.047-1.758-2.265-2.332-3.179a1.119,1.119,0,0,0,.326-1.4C852.209,448,853.013,447.906,853.031,448.048Z" transform="translate(-695.654 -377.777)"/><path class="h" d="M551.39,317.09a9.6,9.6,0,0,0-1.1,1.152,2.306,2.306,0,0,0-.5,1.479.757.757,0,0,0,.142.433.366.366,0,0,0,.407.124.547.547,0,0,0,.2-.179,9.822,9.822,0,0,1,.684-.741c.088-.088.2-.179.322-.147a.344.344,0,0,1,.138.092.936.936,0,0,1,.287.448,1.055,1.055,0,0,1-.315.867,2.221,2.221,0,0,0-.531.785.348.348,0,0,0,0,.252.378.378,0,0,0,.159.134,2.271,2.271,0,0,0,1.921.126c.407-.165.769-.448,1.188-.594a2.751,2.751,0,0,0,.525-.2,1.09,1.09,0,0,0,.466-.7,2.879,2.879,0,0,0,.031-.857,9.851,9.851,0,0,0-.7-3.221.406.406,0,0,0-.118-.171.376.376,0,0,0-.2-.055,4.839,4.839,0,0,0-1.878-.128,1.325,1.325,0,0,0-.444.395C551.978,316.487,551.39,316.953,551.39,317.09Z" transform="translate(-455.098 -275.691)"/><path class="g" d="M528.251,244.971c0-.5-.61-1.7.36-1.774,0-.531-.751-.861-.611-1.424.045-.187.2-.34.222-.531.061-.543-.92-.838-.757-1.359.061-.2.277-.322.324-.523.11-.47-.731-.68-.747-1.162,0-.163.092-.315.083-.478,0-.2-.177-.358-.275-.535-.254-.454-.13-1.156-.594-1.39.307.026.407-.429.281-.708s-.385-.521-.387-.83a1.252,1.252,0,0,0,0-.338c-.086-.3-.572-.322-.653-.61a2.581,2.581,0,0,1-.01-.334c-.033-.23-.269-.376-.49-.442a2,2,0,0,1-.655-.234c-.142-.108-.307-.287-.46-.2-.057.035-.086.1-.128.149-.183.214-.533.12-.763-.037a3.134,3.134,0,0,1-1.162-2.1c-.145-.808-.14-1.642-.322-2.442a5.212,5.212,0,0,0-.22-.733,3.851,3.851,0,0,1-.342-.728c-.037-.468.932-.149,1.3-.1a5.789,5.789,0,0,1,1.056.2,11.3,11.3,0,0,1,1.081.474c1.469.649,3.244.729,4.424,1.819a3.708,3.708,0,0,0,1.221.991,5.53,5.53,0,0,1,.684.177c.56.263.647,1.005.952,1.542a3.026,3.026,0,0,1,.25.448,1.726,1.726,0,0,1,.081.57l.043,1.41a52.011,52.011,0,0,1-.114,7.079,5.8,5.8,0,0,0,.026,2.318c.061.2.146.395.2.6a3.661,3.661,0,0,1,.077.733l.033.914a.285.285,0,0,1-.045.2.293.293,0,0,1-.246.059c-1.272-.114-2.558-.83-3.758-.4" transform="translate(-432.124 -204.033)"/><ellipse class="c" cx="15.05" cy="2.175" rx="15.05" ry="2.175" transform="translate(139.116 106.792)"/><path class="o" d="M722.476,273.147c-.265-1.133-.429-2.129-.429-2.129a4.386,4.386,0,0,0-.492-2.159v-.309h0v-2.279a7.773,7.773,0,0,1,.576-1.194c.407-.716,0-3.341,0-3.341s-1.52-3.7-1.152-6.05-3.122-10.427-3.122-10.427a10.293,10.293,0,0,1,.328-2.308,1.763,1.763,0,0,0,.045-.484v-.041a17.933,17.933,0,0,0-1.278-4.45l.165-5.531a16.262,16.262,0,0,0-.492-7.641c-.446-1.528-.731-2.751-.912-3.7-.02-.106-.041-.2-.057-.307,2.623-.407,4.627-.733,4.627-.733s-1.522-6.367-2.55-7.482-1.85-4.617-1.85-4.617-.535-4.5.33-5.81a8.736,8.736,0,0,0,.987-3.581s1.972-1.424,2.22-2.07a10.557,10.557,0,0,0,.657-2.824c0-.755-.246-1.424-.165-1.831s-.576-1.911-.246-2.627a1.928,1.928,0,0,0,.13-.69.087.087,0,0,0,0-.02h0a9.665,9.665,0,0,0-.173-1.868,5.3,5.3,0,0,0-1.953-1.044l-.043-.171-.112-.448a2.177,2.177,0,0,0-.193-.114v-.163l-.018-.647.309-1.453c.61-2.527-2.765-2.9-2.765-2.9a1.781,1.781,0,0,0-.956-.838c-.678-.238-.112,3.8.2,4.07a15.919,15.919,0,0,1,1.331,2.084h0l.057.1a1.427,1.427,0,0,0-.155.163l.128.877.02.134a3.639,3.639,0,0,0-.539.918,1.98,1.98,0,0,1,.495,1.424,4.562,4.562,0,0,0,.2,1.75c-.037-.043-.47-.511-.9-.4s-1.644.478-1.644.478-.9.159-.814.358-.61,1.074-.61,1.074l-2.43-2.3c-.024-.069-.051-.138-.071-.2a5.6,5.6,0,0,1-.2-1.017,5.558,5.558,0,0,0,.777-.246,1.677,1.677,0,0,0,.672-.431,2.6,2.6,0,0,0,.393-1.048,15.418,15.418,0,0,1,.9-2.01,6.536,6.536,0,0,0,.458-3.618,2.36,2.36,0,0,0-.372-1.058c-.4-.545-1.117-.767-1.64-1.2s-.861-1.1-1.471-1.424a2.918,2.918,0,0,0-1.844-.159,9.937,9.937,0,0,0-3.445,1.253,1.793,1.793,0,0,1-1.152.378,1.5,1.5,0,0,1-.83-.61.209.209,0,0,1,.01-.033.2.2,0,0,1-.026-.033,4.292,4.292,0,0,0-.379,1.819,2.241,2.241,0,0,0,.012.291v.185h0a.465.465,0,0,1-.018.128.926.926,0,0,1-.228.328,2.192,2.192,0,0,0-.2.271.334.334,0,0,1,.033-.1,1.447,1.447,0,0,0-.252.767.784.784,0,0,0,.183.549,2.646,2.646,0,0,0,.4.317,4.631,4.631,0,0,0-.073.814,4.7,4.7,0,0,0,2.291,4.011c.028.067.055.136.081.2a5.794,5.794,0,0,1,.442,2.645,1.231,1.231,0,0,1-.029.191c-.01.063-.061.067-.087.1h0s-4.015.041-4.959-.814-2.385,2.09-2.385,2.09-1.439.279-1.728,0-1.972-.039-1.972-.039A3.628,3.628,0,0,0,690,190.98a7.364,7.364,0,0,0-1.831-1.017h0l-.045-.016h0a2.051,2.051,0,0,0-.906-.114,18.266,18.266,0,0,1-2.55-2.507c-.576-.879-3.317-4.125-3.329-4.139v-.157l-.031-.472a1.692,1.692,0,0,1-.246.02c-.014-.047-.035-.1-.055-.165a9.106,9.106,0,0,0-.582-1.337s0-.6.173-.747a10.285,10.285,0,0,0-.071-2.338s-1.779-4.157-3.372-1.054c0,0-3.012,2.008-.484,4.349,0,0,1.017.488,1.152.875.094.25.435.952.665,1.424l.1.2-.028.024.037.391.016.151c-.476.271-.8.539-.72.741a4.453,4.453,0,0,1,.287,1.074s3.5,4.379,3.948,6.249c0,0,9.375,5.572,12.458,5.968l-.545,2.778a22.149,22.149,0,0,0-.122,2.269c.041.6-.37,3.3-.37,3.3s-.535,3.98-.987,4.538-.37,2.945-.37,2.945a20.111,20.111,0,0,1-.611,3.382,8.641,8.641,0,0,0-.124,3.384s-1.561,3.581,2.179,1.154c0,0,1.831-.114,3.952-.187v.2c0,.273,0,.568-.014.877-.028,2.051-.041,4.884.053,7.016.165,3.781,1.317,11.263,1.317,11.263v3.767a5.121,5.121,0,0,0-.11,1.074,6.992,6.992,0,0,0,1.017,3.763l.289,2.507a9.778,9.778,0,0,1,.688,2.645,1.382,1.382,0,0,1-.028.238,1.6,1.6,0,0,0-.033.385,21.651,21.651,0,0,0,.647,3.866s.041,2.745.452,2.906c.352.136-.47,1.581-.714,2a.563.563,0,0,1-.014-.077l-.051.081a1.948,1.948,0,0,0-.128.7,1,1,0,0,0,.456.965c.781.478,1.2.875.537,1.034a6.906,6.906,0,0,0-.724.153.315.315,0,0,0-.035-.092.435.435,0,0,0-.271.48,2.034,2.034,0,0,0,.242.924,10.08,10.08,0,0,0,1.113,2.035l.315-.035a1.537,1.537,0,0,1-.183.34,1.311,1.311,0,0,1-.464.407,1.436,1.436,0,0,1-.564.193,1.587,1.587,0,0,0-1.164.566,1.214,1.214,0,0,0,.143,1.888l2.94,1.017s5.059.657,4.79-.478-.431-2.129-.431-2.129a4.487,4.487,0,0,0-.407-2.013,2.616,2.616,0,0,0-.179-.3l.179-.018s.37-2.509.863-2.985c.114-.11.14-.2.114-.26.051-.136-.079-.216-.244-.262l-.037.1a2.4,2.4,0,0,0-.49-.055s-.165-1.313.37-1.791a.507.507,0,0,0,.1-.391,2.1,2.1,0,0,0-.057-.535.262.262,0,0,1-.018.033,19.279,19.279,0,0,0-1.18-3.087,3.775,3.775,0,0,1,.289-1.671c.33-.478-.043-6.487-.043-6.487a19.632,19.632,0,0,0-.246-4.257,4.779,4.779,0,0,1,.452-2.947V245.4l-.047-.458a.111.111,0,0,0,0,.028c-.083-.769-.24-2.163-.356-2.806-.165-.916.043-5.291.043-5.291l.739-1.872,1.317,3.225,1.4,4.3a3.671,3.671,0,0,1,.708,1.831v.134a2.347,2.347,0,0,0-.016.287,2.555,2.555,0,0,0,.425,1.532,6.627,6.627,0,0,0,.946,2.546,2.285,2.285,0,0,1,.576,1.512,26.42,26.42,0,0,0,1.017,3.459,5.145,5.145,0,0,1,.289,2h0v.106s.1,1.054.094,1.937v.315a.089.089,0,0,0,0-.022,3.065,3.065,0,0,1-.085.716l-.012.041a.522.522,0,0,1,.014-.149,7.478,7.478,0,0,0-.2,1.831,4.743,4.743,0,0,0,.783,3.052c1.111,1.274,1.809,1.115,1.809,1.115s-.533,1.591-1.192,1.911a.309.309,0,0,0-.069.045.689.689,0,0,0-.016-.094.776.776,0,0,0-.2.594,4.269,4.269,0,0,0,.814,2.358,1.329,1.329,0,0,0,.556.326.891.891,0,0,1-.1.063,2.22,2.22,0,0,1-.226.108,1.184,1.184,0,0,1-.336.087,1.567,1.567,0,0,0-1.164.566,1.212,1.212,0,0,0,.142,1.886l2.94,1.017S722.74,274.28,722.476,273.147Z" transform="translate(-555.361 -164.074)"/><path class="p" d="M797.629,641.64l-2.849-1.017a1.236,1.236,0,0,1-.138-1.888,1.522,1.522,0,0,1,1.127-.566,1.353,1.353,0,0,0,.543-.193,1.3,1.3,0,0,0,.452-.407,2.1,2.1,0,0,0,.324-1.1s3.126-.916,3.98,0a2.314,2.314,0,0,1,.379.556,4.649,4.649,0,0,1,.407,2.012s.159.993.417,2.129S797.629,641.64,797.629,641.64Z" transform="translate(-649.827 -530.686)"/><path class="p" d="M866.069,634.724l-2.849-1.017a1.234,1.234,0,0,1-.138-1.886,1.5,1.5,0,0,1,1.125-.566,1.056,1.056,0,0,0,.326-.087,2.155,2.155,0,0,0,.22-.108,1.8,1.8,0,0,0,.775-1.512s3.124-.916,3.98,0a2.253,2.253,0,0,1,.3.407,4.521,4.521,0,0,1,.476,2.161s.159,1,.407,2.129S866.069,634.724,866.069,634.724Z" transform="translate(-704.34 -525.174)"/><path class="i" d="M810.862,636.455a2.314,2.314,0,0,1,.378.556h0l-4.68.543a2.1,2.1,0,0,0,.324-1.1S810.007,635.539,810.862,636.455Z" transform="translate(-659.619 -530.676)"/><path class="i" d="M876.974,629.974v.877c-.728,1.2-4.251.936-5.274.336a2.162,2.162,0,0,0,.22-.108,1.8,1.8,0,0,0,.775-1.512s3.124-.916,3.98,0a2.253,2.253,0,0,1,.3.407Z" transform="translate(-711.504 -525.19)"/><path class="g" d="M807.24,432.474a7.971,7.971,0,0,0-.556,1.194v3.144c-.8,1.313-4.935.875-5.494.159s-1.144-2.58-.515-2.9,1.154-1.911,1.154-1.911-.678.159-1.752-1.115-.755-4.1-.556-4.774a14.1,14.1,0,0,0,0-2.945,5.917,5.917,0,0,0-.277-2.11,26.274,26.274,0,0,1-1-3.459,2.342,2.342,0,0,0-.558-1.512,6.809,6.809,0,0,1-.916-2.548,2.611,2.611,0,0,1-.4-1.711,3.476,3.476,0,0,0-.678-2.07l-1.353-4.3-1.274-3.223-.716,1.87s-.2,4.377-.039,5.291.407,3.343.407,3.343a4.907,4.907,0,0,0-.437,2.944,20.1,20.1,0,0,1,.228,4.261s.358,6.007.039,6.485a3.884,3.884,0,0,0-.279,1.673s1.628,3.5,1.115,3.978-.358,1.791-.358,1.791,1.113,0,.637.478-.836,2.985-.836,2.985l-4.813.564a10.009,10.009,0,0,1-1.076-2.035c-.637-1.479.118-1.312.759-1.473s.236-.556-.521-1.034-.317-1.553-.317-1.553,1.154-1.949.755-2.108-.438-2.906-.438-2.906-.8-3.256-.6-4.139a7.918,7.918,0,0,0-.637-2.983l-.279-2.507a6.9,6.9,0,0,1-.875-4.737v-3.866s-1.115-7.48-1.274-11.261c-.1-2.422-.073-5.726-.041-7.788.02-1.156.041-1.923.041-1.923l17.191-1.791a14.368,14.368,0,0,0,.311,2.554c.177.944.452,2.167.883,3.7a16.791,16.791,0,0,1,.478,7.639l-.161,5.533s1.512,3.7,1.195,4.973a10.608,10.608,0,0,0-.322,2.312s3.382,8.079,3.024,10.427,1.113,6.05,1.113,6.05S807.638,431.758,807.24,432.474Z" transform="translate(-641.214 -331.471)"/><path class="m" d="M852.05,509.968l5.234-.7S854.319,512.3,852.05,509.968Z" transform="translate(-695.853 -429.697)"/><path class="i" d="M870.314,484.14s.179,1.852-.954,2.548C869.36,486.688,871.389,486.37,870.314,484.14Z" transform="translate(-709.64 -409.681)"/><path class="i" d="M848.255,455.2s-4.375,3.6-5.966,3.3S848.255,455.2,848.255,455.2Z" transform="translate(-687.902 -386.63)"/><path class="i" d="M806.765,521s-3.323.755-3.423,2.09S806.765,521,806.765,521Z" transform="translate(-657.055 -439.04)"/><path class="m" d="M809.669,602.56s-4.695.875-3.362,1.471a22.787,22.787,0,0,0,3.522,1.074S811.346,605.185,809.669,602.56Z" transform="translate(-659.229 -504.003)"/><g class="q" transform="translate(142.238 56.145)"><path d="M800.216,611.79a.926.926,0,0,1-.429-.68l-.049.083s-.438,1.074.319,1.551c.085.055.169.11.244.163.14-.026.291-.047.435-.083C801.378,612.665,800.973,612.268,800.216,611.79Z" transform="translate(-796.323 -566.959)"/><path d="M831.44,609.694c.13-.118.126-.423.047-.814a2.288,2.288,0,0,0-.267,1.152A.994.994,0,0,1,831.44,609.694Z" transform="translate(-821.499 -565.182)"/><path d="M827.508,515.59a5.425,5.425,0,0,0-.318,1.463,5.9,5.9,0,0,1,.364-1.005Z" transform="translate(-818.289 -490.876)"/><path d="M881.248,503.625a1.864,1.864,0,0,0,.043-.435c-.059.3-.1.572-.13.814C881.187,503.88,881.215,503.762,881.248,503.625Z" transform="translate(-861.277 -480.999)"/><path d="M827.762,581.655a2.551,2.551,0,0,0,.118-.885,3.006,3.006,0,0,0-.23,1.117A1.07,1.07,0,0,1,827.762,581.655Z" transform="translate(-818.655 -542.793)"/><path d="M806.228,622a15.787,15.787,0,0,0-.547,2.442l-4.813.555a10.008,10.008,0,0,1-1.076-2.035,3.684,3.684,0,0,1-.136-.35c-.289.132-.407.431-.024,1.3a10.172,10.172,0,0,0,1.079,2.035l4.813-.558s.358-2.507.834-2.985C806.6,622.179,806.45,622.059,806.228,622Z" transform="translate(-796.145 -575.633)"/><path d="M787.183,433.361s.039,2.745.438,2.9h0c.2-.454.336-.885.157-.956-.407-.159-.437-2.906-.437-2.906s-.8-3.256-.6-4.139a7.918,7.918,0,0,0-.637-2.983l-.279-2.507a6.9,6.9,0,0,1-.875-4.737V414.17s-1.115-7.48-1.274-11.261c-.1-2.422-.073-5.726-.041-7.788,0-.372.012-.7.018-.981l-.136.014s-.022.765-.041,1.923c-.033,2.061-.063,5.366.041,7.786.159,3.781,1.272,11.263,1.272,11.263v3.866a6.9,6.9,0,0,0,.877,4.735l.277,2.507a7.962,7.962,0,0,1,.637,2.985C786.383,430.1,787.183,433.361,787.183,433.361Z" transform="translate(-783.448 -394.14)"/><path d="M867.7,624.06a4.654,4.654,0,0,1-.763-1.89c-.49.444.073,2.165.61,2.849.556.716,4.695,1.154,5.494-.161V624.1C871.954,625.165,868.222,624.738,867.7,624.06Z" transform="translate(-849.796 -575.768)"/><path d="M898.958,609.257a8.033,8.033,0,0,0-.558,1.194v.564a8.326,8.326,0,0,1,.407-.8,2.442,2.442,0,0,0,.175-.987S898.964,609.248,898.958,609.257Z" transform="translate(-875.008 -565.461)"/><path d="M863.7,589.431a7.872,7.872,0,0,0,.393-.946s-.678.159-1.752-1.115c-.781-.926-.826-2.676-.714-3.82-.2.678-.519,3.5.556,4.776A2.834,2.834,0,0,0,863.7,589.431Z" transform="translate(-845.552 -545.007)"/><path d="M834.909,483.4a21.2,21.2,0,0,1,.079,2.358,3.231,3.231,0,0,1,.081-.368,13.824,13.824,0,0,0,0-2.944,5.884,5.884,0,0,0-.279-2.11,25.7,25.7,0,0,1-.985-3.463,2.342,2.342,0,0,0-.558-1.512,6.808,6.808,0,0,1-.916-2.548,2.619,2.619,0,0,1-.407-1.711,3.465,3.465,0,0,0-.676-2.07l-1.353-4.3-1.274-3.223-.718,1.872s0,.236-.024.61l.582-1.52,1.274,3.217,1.353,4.3a3.465,3.465,0,0,1,.676,2.069,2.619,2.619,0,0,0,.407,1.711,6.786,6.786,0,0,0,.916,2.548,2.33,2.33,0,0,1,.556,1.512,26.177,26.177,0,0,0,1,3.459A5.883,5.883,0,0,1,834.909,483.4Z" transform="translate(-818.839 -447.801)"/></g><path class="r" d="M863.532,194.608l-.3,1.453.018.647.012.476-1.66.171-.185-.344h0a15.42,15.42,0,0,0-1.288-2.084c-.307-.256-.855-4.3-.2-4.058a1.736,1.736,0,0,1,.924.836S864.12,192.08,863.532,194.608Z" transform="translate(-701.883 -176.08)"/><path class="i" d="M870.3,219.315l-1.661.171-.185-.344h0a1.463,1.463,0,0,1,1.831-.3Z" transform="translate(-708.915 -198.211)"/><path class="e" d="M870.341,220.693l-2.19.507-.047-.326L867.98,220a1.507,1.507,0,0,1,2.12-.289l.11.446Z" transform="translate(-708.541 -198.801)"/><path class="r" d="M684.63,182.721l-2.338,1.253-.2-.44c-.222-.466-.554-1.168-.645-1.424-.138-.387-1.113-.875-1.113-.875-2.442-2.338.468-4.349.468-4.349,1.542-3.1,3.256,1.054,3.256,1.054a10.534,10.534,0,0,1,.071,2.338c-.169.147-.169.747-.169.747a9.179,9.179,0,0,1,.564,1.337C684.591,182.584,684.63,182.721,684.63,182.721Z" transform="translate(-558.299 -164.034)"/><path class="i" d="M695.332,208.614l-2.338,1.254-.2-.44c.33-.277,1.5-1.221,1.884-1.182a2.817,2.817,0,0,0,.553.014C695.293,208.477,695.332,208.614,695.332,208.614Z" transform="translate(-569.001 -189.927)"/><path class="e" d="M695.817,209.948l-2.627,1.294-.053-.564-.037-.391s1.522-1.3,1.972-1.254a2.39,2.39,0,0,0,.686,0l.031.472Z" transform="translate(-569.247 -190.555)"/><path class="r" d="M810.058,221.964s-11.452,1.292-9.312.6a2.863,2.863,0,0,0,2.206-2.483,5.964,5.964,0,0,0-.425-2.645,11.527,11.527,0,0,0-1.017-2.07s8.75-4.815,7-.438a7.057,7.057,0,0,0-.5,2.074,5.857,5.857,0,0,0,.226,2.1A6.253,6.253,0,0,0,810.058,221.964Z" transform="translate(-654.776 -193.785)"/><path class="i" d="M812.536,214.9a7.056,7.056,0,0,0-.5,2.074,4.026,4.026,0,0,1-2.89.647,5.171,5.171,0,0,1-2.593-.214,11.536,11.536,0,0,0-1.017-2.07S814.288,210.518,812.536,214.9Z" transform="translate(-658.807 -193.761)"/><circle class="r" cx="4.735" cy="4.735" r="4.735" transform="translate(145.453 14.69)"/><path class="i" d="M810.058,243.537s-11.452,1.292-9.312.6a2.862,2.862,0,0,0,2.206-2.483,6.388,6.388,0,0,1,2.442-1.3,3.427,3.427,0,0,1,2.076-.035,2.951,2.951,0,0,1,.755.35A6.253,6.253,0,0,0,810.058,243.537Z" transform="translate(-654.776 -215.358)"/><path class="i" d="M870.826,223.4l-2.19.507-.047-.326a1.937,1.937,0,0,1,2.106-.72Z" transform="translate(-709.027 -201.507)"/><path class="i" d="M695.96,211.794l-2.627,1.294-.053-.564a19.161,19.161,0,0,1,2.645-1.174Z" transform="translate(-569.391 -192.401)"/><path class="i" d="M801.143,388.524c-4.438.708-10.746,1.612-11.747,1.306a29.347,29.347,0,0,0-5.8-.147c.02-1.156.041-1.923.041-1.923l17.191-1.791A14.365,14.365,0,0,0,801.143,388.524Z" transform="translate(-641.332 -331.487)"/><path class="n" d="M730.929,249.009s-14.6,2.507-16.171,2.035-9.615.039-9.615.039c-3.622,2.428-2.11-1.154-2.11-1.154a8.9,8.9,0,0,1,.12-3.382,20.663,20.663,0,0,0,.6-3.386s-.079-2.389.358-2.947.956-4.536.956-4.536.4-2.706.358-3.3.118-2.269.118-2.269l.519-2.786c-2.985-.4-12.059-5.968-12.059-5.968-.438-1.87-3.82-6.247-3.82-6.247a4.6,4.6,0,0,0-.279-1.074c-.238-.637,3.343-1.911,3.343-1.911s2.666,3.256,3.223,4.139a17.746,17.746,0,0,0,2.466,2.507,1.919,1.919,0,0,1,.875.114l.047.014h0a7.092,7.092,0,0,1,1.781,1.017,3.459,3.459,0,0,1,2.428.916s1.628-.24,1.911.039,1.671,0,1.671,0,1.392-2.945,2.308-2.09,4.8.814,4.8.814a5.62,5.62,0,0,1,2.564-1.424,3.441,3.441,0,0,1,2.076-.035,2.632,2.632,0,0,1,.814.407l2.362,2.308s.676-.877.6-1.074.8-.358.8-.358,1.154-.358,1.591-.478.838.354.875.4a4.759,4.759,0,0,1-.2-1.75,2.067,2.067,0,0,0-.478-1.424c1.392-3.423,4.536-.558,4.536-.558a6.564,6.564,0,0,1,.041,2.586c-.317.716.317,2.228.238,2.627s.161,1.074.161,1.831a11.188,11.188,0,0,1-.637,2.824c-.23.637-2.149,2.069-2.149,2.069a8.984,8.984,0,0,1-.956,3.581c-.836,1.313-.311,5.8-.311,5.8s.8,3.5,1.791,4.617S730.929,249.009,730.929,249.009Z" transform="translate(-566.694 -193.014)"/><path class="i" d="M779.14,255.2s-.437-1.312-.836-1.424a9.2,9.2,0,0,1-1.154-.517l.256-.49s1.494.407,1.734.849A3.377,3.377,0,0,1,779.14,255.2Z" transform="translate(-636.194 -225.392)"/><path class="i" d="M733.442,246.38c-.079.407-3.622.755-3.622.755l1.791-1.795h0l.045.016h0a7.094,7.094,0,0,1,1.787,1.024Z" transform="translate(-598.495 -219.474)"/><circle class="s" cx="0.317" cy="0.317" r="0.317" transform="translate(124.382 21.126)"/><circle class="s" cx="0.317" cy="0.317" r="0.317" transform="translate(124.789 21.763)"/><circle class="s" cx="0.317" cy="0.317" r="0.317" transform="translate(125.188 22.351)"/><circle class="s" cx="0.317" cy="0.317" r="0.317" transform="translate(125.605 22.986)"/><circle class="s" cx="0.258" cy="0.258" r="0.258" transform="translate(163.175 23.011)"/><circle class="s" cx="0.258" cy="0.258" r="0.258" transform="translate(163.216 23.599)"/><circle class="s" cx="0.258" cy="0.258" r="0.258" transform="translate(163.25 24.185)"/><path class="i" d="M787,317.719c-.039-.047,8.933,11.282,15.9,4.735C802.9,322.457,791.9,323.948,787,317.719Z" transform="translate(-644.039 -277.125)"/><path class="i" d="M761.7,346.66s5.368.147,5.93,1.691v1.608a1.03,1.03,0,0,1-1,0c-.541-.293-3.787-1.941-4.931-1.148Z" transform="translate(-623.888 -300.177)"/><path class="n" d="M762.19,346.66s5.134.14,5.671,1.614v1.53a.985.985,0,0,1-.956,0c-.517-.277-3.62-1.85-4.715-1.093Z" transform="translate(-624.278 -300.177)"/><path class="i" d="M776.1,289.38a17.277,17.277,0,0,0,2.082,3.571,14.014,14.014,0,0,0,3.256,3.148S776.19,290.117,776.1,289.38Z" transform="translate(-635.358 -254.553)"/><path class="i" d="M767.47,258.73s.9,3.866,3.2,5.179Z" transform="translate(-628.484 -230.14)"/><path class="i" d="M760.407,260.645c-.022-.071-.8,3.052,2.975,4.788C763.382,265.433,761.781,264.89,760.407,260.645Z" transform="translate(-622.794 -231.664)"/><path class="i" d="M875.9,247.9a26.845,26.845,0,0,1,2.383,1.791S877.038,247.819,875.9,247.9Z" transform="translate(-714.852 -221.511)"/><path class="p" d="M800.815,192.945a.747.747,0,0,0,.814.739,9.468,9.468,0,0,0,4.273-.407,1.628,1.628,0,0,0,.651-.431,2.68,2.68,0,0,0,.378-1.048,15.249,15.249,0,0,1,.873-2.01,6.734,6.734,0,0,0,.47-3.612,2.441,2.441,0,0,0-.362-1.056c-.383-.547-1.081-.769-1.587-1.2s-.832-1.1-1.425-1.424a2.734,2.734,0,0,0-1.786-.159,9.378,9.378,0,0,0-3.333,1.251,1.7,1.7,0,0,1-1.115.378,1.491,1.491,0,0,1-.814-.629,4.408,4.408,0,0,0-.34,2.065.89.89,0,0,1-.01.311.937.937,0,0,1-.222.328,1.2,1.2,0,0,0-.226,1.488c.153.181.389.281.537.466.267.332.177.814.171,1.237a.637.637,0,0,0,.106.419.61.61,0,0,0,.584.14,1.59,1.59,0,0,1,.623-.059,1.044,1.044,0,0,1,.541.407A7.648,7.648,0,0,1,800.815,192.945Z" transform="translate(-651.907 -169.228)"/><g class="t" transform="translate(144.97 14.061)"><path d="M806.723,207.972a1.628,1.628,0,0,1-.651.431,9.6,9.6,0,0,1-4.273.407.749.749,0,0,1-.816-.741,7.424,7.424,0,0,0-1.207-2.8,1.046,1.046,0,0,0-.541-.417,1.668,1.668,0,0,0-.623.059.61.61,0,0,1-.584-.138.637.637,0,0,1-.106-.419c0-.427.1-.906-.171-1.237-.149-.185-.385-.285-.537-.468a.928.928,0,0,1-.092-.948,1.085,1.085,0,0,0-.067,1.268c.153.181.389.281.537.466.266.334.177.814.171,1.237a.633.633,0,0,0,.1.419.611.611,0,0,0,.586.14,1.59,1.59,0,0,1,.623-.059,1.044,1.044,0,0,1,.541.407,7.439,7.439,0,0,1,1.207,2.8,1.017,1.017,0,0,0,.352.645.987.987,0,0,0,.448.1,9.44,9.44,0,0,0,4.273-.407,1.611,1.611,0,0,0,.651-.431,1.243,1.243,0,0,0,.2-.383A.1.1,0,0,1,806.723,207.972Z" transform="translate(-796.877 -198.776)"/><path d="M799.948,189.625a.7.7,0,0,0,.144-.24.889.889,0,0,0,0-.311,4.416,4.416,0,0,1,.222-1.713l-.026-.031a4.375,4.375,0,0,0-.34,2.063A1.457,1.457,0,0,1,799.948,189.625Z" transform="translate(-799.312 -187.33)"/></g><path class="i" d="M812.08,248.474s5.915.785,6.447-.1" transform="translate(-664.016 -221.888)"/><path class="i" d="M868.59,236.85s3.288,0,4.011,1.237" transform="translate(-709.027 -212.712)"/><path class="n" d="M941.979,765.856a5.215,5.215,0,0,1-3.551,1.327c-.334,0-.8.063-.8.4a.56.56,0,0,0,.1.273,3.266,3.266,0,0,0,1.831,1.439,6.472,6.472,0,0,0,2.216.14l2.167-.112c.407-.022.814-.043,1.221-.094s.851-.134,1.276-.2a16.687,16.687,0,0,1,3.156-.147.956.956,0,0,0,.777-.2c.167-.2.081-.592.018-.9-.13-.629,0-1.288-.12-1.919a3.369,3.369,0,0,0-2.212-2.356c-.977-.37-2.706-.8-3.63-.177A23.892,23.892,0,0,0,941.979,765.856Z" transform="translate(-764.018 -631.802)"/><path class="g" d="M952.547,577.056c.191.91,1.072,1.606,1.1,2.533a3.957,3.957,0,0,1-.891,2.006,13.391,13.391,0,0,0-.91,2.059,31.451,31.451,0,0,1-2.67,5.311,4.25,4.25,0,0,0-.963,2.629,3.94,3.94,0,0,0,.462,1.258l1.526,3.032a8.786,8.786,0,0,1,.779,1.915c.132.576.144,1.172.222,1.758.24,1.86,1.113,3.732.6,5.535-.045.155-.2.342-.328.234a5.8,5.8,0,0,1,.871,2.959,4.124,4.124,0,0,0,.014,1.665,1.823,1.823,0,0,1,.238.655,4.173,4.173,0,0,1-.088.45.992.992,0,0,0,.761.924c.409.136.855.126,1.268.25a7.778,7.778,0,0,1,2.035,1.4,4.333,4.333,0,0,0,2.344.763.59.59,0,0,0,.346-.069.56.56,0,0,0,.191-.419,2.328,2.328,0,0,0-.838-2.023.917.917,0,0,1-.311-.326.787.787,0,0,1-.029-.364,27.427,27.427,0,0,0-.089-5.006,7.6,7.6,0,0,1-.079-1.593,6.509,6.509,0,0,0,.128-1.325,7.036,7.036,0,0,0-.407-1.27,9.15,9.15,0,0,1-.2-2.363,20.723,20.723,0,0,0-.669-4.07,3.079,3.079,0,0,0-.633-1.469c-.317-.332-.83-.649-.71-1.091a1.293,1.293,0,0,1,.291-.433,1.74,1.74,0,0,0,.362-1.327.6.6,0,0,0,.686-.321,10.729,10.729,0,0,0,5.368-6.1,2.016,2.016,0,0,1,.24-.545,2.456,2.456,0,0,1,.983-.637A7.465,7.465,0,0,0,966.12,581a4.653,4.653,0,0,0,1.133-3.286l.063-2.391a1.292,1.292,0,0,0-.045-.468,1.17,1.17,0,0,0-.258-.378,4.6,4.6,0,0,0-2.536-1.367c-.651-.116-1.317-.094-1.976-.149a24.567,24.567,0,0,0-3.818-.407,6.109,6.109,0,0,0-4.743,3.319C953.609,576.5,953.259,577.043,952.547,577.056Z" transform="translate(-772.433 -480.09)"/><path class="e" d="M906.093,497.672a2.672,2.672,0,0,1-.146,1.089.761.761,0,0,1-.893.458c.1-.234-.171-.5-.427-.472a.8.8,0,0,0-.564.484,1.8,1.8,0,0,0-.163,1.1,4.485,4.485,0,0,1,.281,1.388c-.057.391-.344.779-.191,1.142a1.851,1.851,0,0,0,.368.442,1.245,1.245,0,0,1-.132,1.709l3.85.077a2.719,2.719,0,0,0,.478,1.872,11.8,11.8,0,0,0,8.8,5.745.765.765,0,0,0-.185,1.17,1.087,1.087,0,0,0,1.237.071,8.806,8.806,0,0,0,1.058-.794,3.256,3.256,0,0,1,2.175-.586c.482.047.95.2,1.435.228,1.424.075,2.645-.95,4.017-1.37,1-.307,2.133-.307,2.971-.932a1.184,1.184,0,0,0,.553-1.146,1.915,1.915,0,0,0-.407-.674,11.636,11.636,0,0,1-1.113-2.086,12.478,12.478,0,0,0-2.782-3.728,24.888,24.888,0,0,0-2.759-2.092,4.706,4.706,0,0,0-.745-.45,8.347,8.347,0,0,1-1.017-.407,5.423,5.423,0,0,1-1.06-1.192,15.892,15.892,0,0,0-2.875-2,6.82,6.82,0,0,0-1.941-1.315c-.366-.112-.755-.12-1.121-.23-.832-.252-1.439-.991-2.255-1.29a9.047,9.047,0,0,0-2.035-.258,4.763,4.763,0,0,1-2.126-.81,2.524,2.524,0,0,0-.678-.395c-1.032-.313-1.115,1.608-1.221,2.273A21.933,21.933,0,0,0,906.093,497.672Z" transform="translate(-737.131 -416.253)"/><path class="l" d="M863.9,537.724c.173,1.876-1.243,3.693-.83,5.531.088.391.256.763.317,1.16a4.448,4.448,0,0,1-1.1,3.032l-5.331,7.824a4.919,4.919,0,0,1-.761.94c-1.017.906-2.548.814-3.887,1.083a6.716,6.716,0,0,0-2.6,1.152.169.169,0,0,0-.033.234,2.238,2.238,0,0,0,1.935.91c.14.183,0,.456-.193.588-.285.2-.68.25-.737.737a.814.814,0,0,0,.1.488,1.52,1.52,0,0,0,.932.647c1.846.566,3.84-.427,5.222-1.776s2.373-3.052,3.728-4.424c.751-.761,1.6-1.41,2.377-2.147a27.188,27.188,0,0,0,3.9-5.044,5.584,5.584,0,0,0,.844-1.717c.144-.625.077-1.258.242-1.862a6.845,6.845,0,0,1,1.278-2.088,6.9,6.9,0,0,0,1.453-4.5,4.314,4.314,0,0,0-2.633-3.734,2.366,2.366,0,0,0-1.475-.09,3.5,3.5,0,0,0-1.5,1.2l-1.017,1.168a2.724,2.724,0,0,0-.572.9.938.938,0,0,0,.2,1" transform="translate(-693.931 -449.863)"/><path class="e" d="M919.506,511.913a2.916,2.916,0,0,0-1.966.61,2.794,2.794,0,0,0-.5.777,7.74,7.74,0,0,0-.983,3.093,14.155,14.155,0,0,0,.356,2.584,9.885,9.885,0,0,1-.222,2.171,15.078,15.078,0,0,0,2.8-1.078,9.391,9.391,0,0,1,1.642-.853,4.94,4.94,0,0,1,3.034.59c.043-.558-.376-1.53-.332-2.09a2.337,2.337,0,0,1,.124-.692,4.205,4.205,0,0,1,.421-.669,2.739,2.739,0,0,0-.246-3.209,4.469,4.469,0,0,0-2.865-1.221,12.394,12.394,0,0,0-2-.069" transform="translate(-746.836 -431.748)"/></g></svg>