<svg xmlns="http://www.w3.org/2000/svg" xmlns:xlink="http://www.w3.org/1999/xlink" width="100%" height="100%" viewBox="0 0 212.18 30.226"><defs><style>.a{fill:none;}.b{clip-path:url(#a);}.c{clip-path:url(#b);}.d{fill:#0c263d;}.e{fill:#fff;}</style><clipPath id="a"><rect class="a" width="212.18" height="30.226"/></clipPath><clipPath id="b"><path class="a" d="M0,8.956H212.18V-21.27H0Z" transform="translate(0 21.27)"/></clipPath></defs><g class="b" transform="translate(0 0)"><g class="c"><g transform="translate(110.856 0.64)"><path class="d" d="M2.706,0H-6.426V29.487H2.706A14.743,14.743,0,0,0,2.706,0m0,24.884H-1.823V4.6H2.706a10.141,10.141,0,1,1,0,20.281" transform="translate(6.426)"/></g><g transform="translate(136.406 7.594)"><path class="d" d="M3.339,0A11.267,11.267,0,1,0,14.606,11.266,11.28,11.28,0,0,0,3.339,0m0,17.931A6.664,6.664,0,1,1,10,11.266a6.672,6.672,0,0,1-6.665,6.665" transform="translate(7.929)"/></g></g><path class="d" d="M113.359,8.52h4.6V-20.826h-4.6Z" transform="translate(47.73 21.457)"/><path class="d" d="M119.837,8.52h4.6V-20.826h-4.6Z" transform="translate(50.458 21.457)"/><g class="c"><g transform="translate(177.288 7.594)"><path class="d" d="M5.313.648A11.2,11.2,0,0,0-1.351-1.54,11.279,11.279,0,0,0-12.619,9.726,11.28,11.28,0,0,0-1.351,20.994a11.212,11.212,0,0,0,6.665-2.188v2.038h4.6V-1.138h-4.6ZM-1.351,16.391A6.672,6.672,0,0,1-8.016,9.726,6.671,6.671,0,0,1-1.351,3.063,6.67,6.67,0,0,1,5.313,9.726a6.672,6.672,0,0,1-6.665,6.665" transform="translate(12.619 1.54)"/></g><g transform="translate(202.447 7.21)"><path class="d" d="M0,3.339v11.5H4.6V3.339A8.211,8.211,0,0,1,5.99-1.605,4.394,4.394,0,0,1,9.733-3.326v-4.6C3.911-7.929,0-3.4,0,3.339" transform="translate(0 7.929)"/></g><g transform="translate(35.773 7.594)"><path class="e" d="M6.676,3.338A11.278,11.278,0,0,0-4.591-7.928,11.278,11.278,0,0,0-15.856,3.338,11.279,11.279,0,0,0-4.591,14.606,11.279,11.279,0,0,0,6.676,3.338m-17.932,0A6.672,6.672,0,0,1-4.591-3.325,6.67,6.67,0,0,1,2.073,3.338,6.672,6.672,0,0,1-4.591,10a6.673,6.673,0,0,1-6.665-6.665" transform="translate(15.856 7.928)"/></g><g transform="translate(60.317 7.594)"><path class="e" d="M6.677,3.338A11.279,11.279,0,0,0-4.589-7.928,11.278,11.278,0,0,0-15.857,3.338,11.279,11.279,0,0,0-4.589,14.606,11.28,11.28,0,0,0,6.677,3.338m-17.932,0A6.672,6.672,0,0,1-4.589-3.325,6.671,6.671,0,0,1,2.074,3.338,6.672,6.672,0,0,1-4.589,10a6.673,6.673,0,0,1-6.666-6.665" transform="translate(15.857 7.928)"/></g><g transform="translate(84.775 0.631)"><path class="e" d="M5.313,2.712A11.205,11.205,0,0,0-1.352.523,11.278,11.278,0,0,0-12.618,11.789,11.279,11.279,0,0,0-1.352,23.057,11.279,11.279,0,0,0,9.914,11.789c0-.257-.009-.513-.026-.766h.026V-6.44h-4.6ZM-1.352,18.454a6.672,6.672,0,0,1-6.665-6.665A6.671,6.671,0,0,1-1.352,5.126a6.671,6.671,0,0,1,6.665,6.663,6.672,6.672,0,0,1-6.665,6.665" transform="translate(12.618 6.44)"/></g><g transform="translate(0)"><path class="e" d="M10.234,0H3.725L1.686,2.039A14.847,14.847,0,0,0-5.092.416a14.92,14.92,0,0,0-14.9,14.9,14.8,14.8,0,0,0,1.629,6.771l-5.939,5.934h6.513l2.169-2.169A14.861,14.861,0,0,0-5.092,30.226,14.923,14.923,0,0,0,9.813,15.32a15.142,15.142,0,0,0-.178-2.3H-2.792l-4.6,4.6H4.952a10.321,10.321,0,0,1-10.044,8,10.315,10.315,0,0,1-10.3-10.3,10.315,10.315,0,0,1,10.3-10.3A10.236,10.236,0,0,1,2.193,8.035l1.66-1.658s0,0,0,0Z" transform="translate(24.305)"/></g></g></g></svg>
