<svg xmlns="http://www.w3.org/2000/svg" xmlns:xlink="http://www.w3.org/1999/xlink" width="100%" height="100%" viewBox="0 0 135 135"><defs><style>.a{fill:none;}.b{clip-path:url(#a);}.c{clip-path:url(#b);}.d{fill:#0c263d;}.e{fill:#fff;}</style><clipPath id="a"><rect class="a" width="135" height="135"/></clipPath><clipPath id="b"><path class="a" d="M0,78.352H135v-135H0Z" transform="translate(0 56.648)"/></clipPath></defs><g class="b" transform="translate(0 0)"><g class="c"><g transform="translate(0 0.001)"><path class="d" d="M78.351,39.176a67.5,67.5,0,1,1-67.5-67.5,67.5,67.5,0,0,1,67.5,67.5" transform="translate(56.649 28.324)"/></g><g transform="translate(27.166 35.526)"><path class="e" d="M36.386,16.192H19.8L9.934,26.056H36.386A22.079,22.079,0,1,1,30.479,5.514l3.553-3.556s0,0,0,0l13.669-13.67H33.758L29.39-7.339A31.965,31.965,0,0,0-17.074,21.123a31.791,31.791,0,0,0,3.489,14.513L-26.308,48.353h13.955L-7.7,43.7A31.929,31.929,0,0,0,46.422,16.192Z" transform="translate(26.308 11.707)"/></g></g></g></svg>
