<?xml version="1.0" encoding="UTF-8" ?>
<!DOCTYPE svg PUBLIC "-//W3C//DTD SVG 1.1//EN" "http://www.w3.org/Graphics/SVG/1.1/DTD/svg11.dtd">
<svg width="13pt" height="47pt" viewBox="0 0 13 47" version="1.1" xmlns="http://www.w3.org/2000/svg">
<g id="#493545ff">
<path fill="#493545" opacity="1.00" d=" M 2.98 0.00 L 3.06 0.00 C 4.07 1.92 4.23 4.46 6.21 5.72 C 6.93 6.51 8.20 6.98 8.41 8.13 C 9.16 11.85 8.96 15.68 9.45 19.43 C 9.61 22.61 13.10 24.61 12.54 27.95 C 11.94 32.50 10.45 36.87 9.11 41.24 C 8.42 43.01 7.34 45.44 5.02 45.05 C 2.41 43.29 3.17 39.66 2.72 36.97 C 2.54 30.55 -0.49 24.47 0.28 17.99 C 0.88 11.95 2.40 6.04 2.98 0.00 Z" />
</g>
</svg>
