<?xml version="1.0" encoding="UTF-8" ?>
<!DOCTYPE svg PUBLIC "-//W3C//DTD SVG 1.1//EN" "http://www.w3.org/Graphics/SVG/1.1/DTD/svg11.dtd">
<svg width="61pt" height="51pt" viewBox="0 0 61 51" version="1.1" xmlns="http://www.w3.org/2000/svg">
<g id="#ab6f9cff">
<path fill="#ab6f9c" opacity="1.00" d=" M 52.43 4.39 C 54.22 1.78 58.29 3.61 59.13 6.16 C 60.13 7.87 58.79 9.50 58.04 11.00 C 55.41 15.58 52.82 20.19 50.24 24.80 C 50.19 26.34 50.76 28.23 49.26 29.30 C 45.95 32.60 43.41 36.69 39.71 39.58 C 34.60 41.20 29.12 40.22 23.92 39.57 C 19.20 38.94 14.79 36.11 9.93 36.85 C 7.42 37.96 6.19 40.67 4.30 42.54 C 2.78 41.84 1.48 40.57 1.35 38.82 C 0.81 33.58 2.05 28.36 3.65 23.40 C 4.69 20.52 6.14 17.37 9.11 16.05 C 12.16 14.64 15.54 16.09 18.07 17.90 C 21.40 20.23 25.13 21.98 29.07 23.01 C 30.63 23.40 32.30 24.04 33.85 23.21 C 42.61 20.50 49.91 13.24 52.43 4.39 Z" />
</g>
</svg>
