<?xml version="1.0" encoding="UTF-8" ?>
<!DOCTYPE svg PUBLIC "-//W3C//DTD SVG 1.1//EN" "http://www.w3.org/Graphics/SVG/1.1/DTD/svg11.dtd">
<svg width="80pt" height="108pt" viewBox="0 0 80 108" version="1.1" xmlns="http://www.w3.org/2000/svg">
<g id="#555286ff">
<path fill="#555286" opacity="1.00" d=" M 19.60 9.26 C 34.17 6.04 48.83 3.24 63.41 0.04 C 68.50 16.94 72.38 34.20 77.94 50.95 C 80.20 57.91 78.87 65.39 77.61 72.41 C 74.72 78.91 76.12 86.05 76.71 92.86 C 72.60 95.84 67.17 96.36 62.53 94.33 C 62.19 82.68 61.86 71.02 61.34 59.38 C 59.12 53.43 55.81 47.92 52.54 42.48 C 49.81 38.40 46.97 33.98 42.51 31.62 C 38.73 29.81 35.45 33.63 33.07 36.08 C 26.40 44.09 21.19 53.30 16.94 62.78 C 17.38 68.81 18.69 74.78 19.25 80.82 C 20.76 89.12 19.27 97.56 20.03 105.93 C 14.92 107.85 9.46 106.09 4.23 105.73 C 2.42 89.94 1.90 74.05 0.00 58.28 L 0.00 55.11 C 2.28 50.32 4.98 45.69 6.54 40.58 C 9.94 29.77 14.47 19.35 19.60 9.26 Z" />
</g>
</svg>
