<?xml version="1.0" encoding="UTF-8" ?>
<!DOCTYPE svg PUBLIC "-//W3C//DTD SVG 1.1//EN" "http://www.w3.org/Graphics/SVG/1.1/DTD/svg11.dtd">
<svg width="43pt" height="95pt" viewBox="0 0 43 95" version="1.1" xmlns="http://www.w3.org/2000/svg">
<g id="#00afffff">
<path fill="#00afff" opacity="1.00" d=" M 14.77 7.13 C 13.90 2.78 18.99 -0.99 22.95 0.60 C 26.00 1.36 28.08 4.90 27.14 7.93 C 25.74 12.20 23.45 16.10 21.23 19.98 C 18.81 15.86 15.92 11.84 14.77 7.13 Z" />
<path fill="#00afff" opacity="1.00" d=" M 26.59 19.41 C 27.81 15.18 33.95 13.72 37.00 16.83 C 39.87 19.35 39.65 24.24 36.69 26.59 C 33.18 29.50 29.00 31.41 24.95 33.41 C 25.20 28.73 25.19 23.93 26.59 19.41 Z" />
<path fill="#00afff" opacity="1.00" d=" M 11.50 24.57 C 14.26 21.39 20.10 22.37 21.83 26.16 C 23.87 30.18 25.09 34.56 26.13 38.93 C 21.51 37.75 16.68 36.87 12.51 34.45 C 9.22 32.47 8.63 27.15 11.50 24.57 Z" />
<path fill="#00afff" opacity="1.00" d=" M 30.97 46.99 C 34.18 44.32 39.85 45.97 40.93 50.08 C 42.41 53.93 39.36 58.19 35.38 58.57 C 30.99 58.97 26.55 58.85 22.16 58.43 C 24.87 54.47 27.23 50.11 30.97 46.99 Z" />
<path fill="#00afff" opacity="1.00" d=" M 2.58 55.33 C 3.62 51.23 9.48 49.40 12.54 52.41 C 15.76 55.58 18.08 59.51 20.56 63.27 C 15.73 63.54 10.80 64.20 6.04 63.06 C 3.08 61.99 1.48 58.26 2.58 55.33 Z" />
<path fill="#00afff" opacity="1.00" d=" M 22.59 73.56 C 24.77 70.48 30.00 70.85 32.15 73.79 C 34.55 76.59 33.78 81.84 30.19 83.23 C 25.83 84.78 21.15 85.18 16.57 85.55 C 18.31 81.43 20.02 77.24 22.59 73.56 Z" />
<path fill="#00afff" opacity="1.00" d=" M 3.54 81.60 C 5.90 79.95 9.69 80.01 11.51 82.44 C 14.27 86.15 15.91 90.54 17.81 94.72 C 12.86 94.17 7.69 93.94 3.08 91.89 C -0.18 89.41 0.06 83.77 3.54 81.60 Z" />
</g>
</svg>
