<svg xmlns="http://www.w3.org/2000/svg" xmlns:xlink="http://www.w3.org/1999/xlink" width="100%" height="100%" viewBox="0 0 68 68"><defs><style>.a{fill:url(#a);}.b{fill:#42454a;fill-rule:evenodd;}</style><linearGradient id="a" x1="0.5" x2="0.5" y2="1" gradientUnits="objectBoundingBox"><stop offset="0" stop-color="#b1ffbf"/><stop offset="1" stop-color="#fff16d"/></linearGradient></defs><circle class="a" cx="34" cy="34" r="34"/><g transform="translate(-57 31)"><g transform="translate(71 -17)"><path class="b" d="M10.531,27.091l3.057,1.382a15.577,15.577,0,0,0,12.823,0l1.782-.805-4.563-2.06-.154.047a11.865,11.865,0,0,1-8.363-.528L3.77,20l6.761-3.055,3.06,1.384a15.569,15.569,0,0,0,12.817,0l1.781-.806-4.563-2.06-.154.047a11.858,11.858,0,0,1-8.355-.527L3.771,9.854,15.117,4.726a11.866,11.866,0,0,1,9.766,0L36.229,9.854l-11.217,5.07L36.23,20,25.016,25.068,36.23,30.146,24.884,35.273a11.858,11.858,0,0,1-9.767,0L3.77,30.146ZM40,20a3.579,3.579,0,0,0-2.132-3.3l-3.934-1.778,3.933-1.777a3.612,3.612,0,0,0,0-6.591L26.409,1.381a15.566,15.566,0,0,0-12.819,0L2.132,6.559a3.612,3.612,0,0,0,0,6.591l3.932,1.777L2.133,16.7a3.612,3.612,0,0,0,0,6.591l3.932,1.777L2.132,26.851a3.612,3.612,0,0,0,0,6.591L13.591,38.62a15.571,15.571,0,0,0,12.819,0l11.457-5.178a3.612,3.612,0,0,0,0-6.591l-3.934-1.778L37.866,23.3A3.578,3.578,0,0,0,40,20Z" transform="translate(0 0)"/></g></g></svg>