<?xml version="1.0" encoding="UTF-8" ?>
<!DOCTYPE svg PUBLIC "-//W3C//DTD SVG 1.1//EN" "http://www.w3.org/Graphics/SVG/1.1/DTD/svg11.dtd">
<svg width="47px" height="58px" viewBox="0 0 47 58" version="1.1" xmlns="http://www.w3.org/2000/svg">
<g id="#493545ff">
<path fill="#493545" opacity="1.00" d=" M 7.14 3.17 C 11.09 -0.20 16.54 1.92 21.12 2.33 C 26.64 3.39 32.08 0.19 37.55 1.65 C 40.54 2.90 43.04 5.29 46.43 5.55 C 45.39 7.38 44.50 9.49 42.60 10.62 C 37.49 13.79 30.65 12.01 25.77 15.67 C 22.92 17.69 22.60 21.36 21.39 24.37 C 20.43 27.35 18.67 30.40 19.48 33.64 C 20.18 37.13 23.98 38.45 25.86 41.17 C 26.67 43.72 26.02 46.44 26.10 49.06 C 25.99 51.49 27.45 53.56 28.42 55.66 C 21.42 56.86 13.77 54.42 9.56 48.52 C 5.08 43.12 6.89 35.17 2.05 29.96 C -1.39 23.17 7.35 18.44 7.72 12.01 C 7.31 9.14 4.51 5.71 7.14 3.17 Z" />
</g>
</svg>
