<?xml version="1.0" encoding="UTF-8" ?>
<!DOCTYPE svg PUBLIC "-//W3C//DTD SVG 1.1//EN" "http://www.w3.org/Graphics/SVG/1.1/DTD/svg11.dtd">
<svg width="43px" height="95px" viewBox="0 0 43 95" version="1.1" xmlns="http://www.w3.org/2000/svg">
<g id="#00afffff">
<path fill="#00afff" opacity="1.00" d=" M 14.77 7.12 C 13.91 2.79 18.96 -0.97 22.92 0.59 C 26.00 1.34 28.11 4.93 27.13 7.98 C 25.72 12.22 23.45 16.12 21.23 19.98 C 18.81 15.85 15.92 11.83 14.77 7.12 Z" />
<path fill="#00afff" opacity="1.00" d=" M 26.59 19.42 C 27.81 15.17 33.99 13.71 37.04 16.86 C 39.88 19.40 39.63 24.29 36.64 26.62 C 33.15 29.51 28.98 31.42 24.95 33.41 C 25.20 28.73 25.19 23.94 26.59 19.42 Z" />
<path fill="#00afff" opacity="1.00" d=" M 11.52 24.55 C 14.28 21.41 20.05 22.37 21.81 26.12 C 23.87 30.15 25.09 34.55 26.14 38.93 C 21.71 37.83 17.16 36.91 13.08 34.80 C 9.35 33.04 8.44 27.31 11.52 24.55 Z" />
<path fill="#00afff" opacity="1.00" d=" M 30.95 47.01 C 34.18 44.30 39.89 45.98 40.95 50.13 C 42.38 53.96 39.35 58.19 35.39 58.57 C 31.00 58.98 26.55 58.84 22.16 58.44 C 24.86 54.48 27.23 50.12 30.95 47.01 Z" />
<path fill="#00afff" opacity="1.00" d=" M 2.55 55.40 C 3.56 51.24 9.51 49.37 12.58 52.45 C 15.78 55.62 18.10 59.53 20.56 63.27 C 15.72 63.53 10.77 64.21 5.99 63.05 C 3.09 61.96 1.52 58.32 2.55 55.40 Z" />
<path fill="#00afff" opacity="1.00" d=" M 22.59 73.56 C 24.79 70.46 30.07 70.87 32.20 73.86 C 34.54 76.66 33.76 81.82 30.21 83.22 C 25.84 84.78 21.16 85.17 16.57 85.55 C 18.30 81.44 20.01 77.24 22.59 73.56 Z" />
<path fill="#00afff" opacity="1.00" d=" M 3.53 81.61 C 5.90 79.96 9.67 80.00 11.50 82.42 C 14.26 86.15 15.91 90.53 17.81 94.72 C 12.85 94.17 7.69 93.94 3.07 91.89 C -0.18 89.41 0.06 83.77 3.53 81.61 Z" />
</g>
</svg>
