<?xml version="1.0" encoding="UTF-8" ?>
<!DOCTYPE svg PUBLIC "-//W3C//DTD SVG 1.1//EN" "http://www.w3.org/Graphics/SVG/1.1/DTD/svg11.dtd">
<svg width="53px" height="117px" viewBox="0 0 53 117" version="1.1" xmlns="http://www.w3.org/2000/svg">
<g id="#00adfcff">
<path fill="#00adfc" opacity="1.00" d=" M 24.79 14.39 C 22.95 8.36 27.69 2.62 32.94 0.30 C 35.00 6.85 32.36 14.60 25.99 17.62 C 26.77 19.98 27.59 22.33 28.38 24.70 C 30.22 19.66 35.39 16.51 40.64 16.36 C 40.34 22.75 36.00 28.60 29.62 29.93 C 30.04 33.24 30.93 36.58 30.30 39.93 C 33.13 37.08 36.81 34.75 40.99 35.01 C 40.53 38.09 39.73 41.23 37.75 43.71 C 35.75 46.40 32.48 47.58 29.42 48.59 C 28.68 50.29 27.92 51.98 27.12 53.65 C 31.39 51.40 36.18 50.03 41.03 50.22 C 42.88 50.38 45.17 49.69 46.52 51.35 C 47.01 52.51 46.88 53.94 45.71 54.63 C 43.65 55.32 42.02 53.25 40.01 53.46 C 34.12 53.71 28.27 56.04 23.76 59.81 C 21.06 65.68 21.41 72.53 21.68 78.86 C 22.39 88.95 24.50 98.89 27.18 108.63 C 26.39 108.84 24.80 109.28 24.01 109.50 C 20.06 94.80 16.79 79.39 18.95 64.14 C 12.60 62.56 7.74 56.45 8.43 49.80 C 13.67 50.52 18.74 53.90 20.17 59.19 C 21.41 54.79 25.16 51.67 26.24 47.20 C 26.94 44.33 27.82 41.16 26.83 38.27 C 23.30 33.49 18.62 29.16 12.83 27.40 C 11.08 26.75 8.79 28.31 7.45 26.61 C 6.78 25.20 7.46 23.43 9.00 22.98 C 15.91 24.19 22.39 27.63 26.87 33.08 C 26.22 30.01 25.51 26.95 24.68 23.92 C 18.09 24.25 11.83 19.54 10.52 13.04 C 13.98 12.84 17.51 13.19 20.59 14.87 C 19.29 13.87 18.90 10.87 21.10 10.83 C 23.44 9.81 24.27 12.78 24.79 14.39 Z" />
</g>
</svg>
