<?xml version="1.0" encoding="UTF-8" ?>
<!DOCTYPE svg PUBLIC "-//W3C//DTD SVG 1.1//EN" "http://www.w3.org/Graphics/SVG/1.1/DTD/svg11.dtd">
<svg width="8px" height="5px" viewBox="0 0 8 5" version="1.1" xmlns="http://www.w3.org/2000/svg">
<g id="#5c3d5b95">
<path fill="#5c3d5b" opacity="0.58" d=" M 0.00 0.00 L 8.00 0.00 L 8.00 5.00 L 0.00 5.00 L 0.00 0.00 M 0.73 0.64 C 0.71 1.48 0.68 3.16 0.66 4.00 C 2.77 3.96 4.88 3.94 6.99 3.96 C 6.99 3.13 6.99 1.47 6.99 0.64 C 4.90 0.65 2.82 0.65 0.73 0.64 Z" />
</g>
<g id="#9f6a9dff">
<path fill="#9f6a9d" opacity="1.00" d=" M 0.73 0.64 C 2.82 0.65 4.90 0.65 6.99 0.64 C 6.99 1.47 6.99 3.13 6.99 3.96 C 4.88 3.94 2.77 3.96 0.66 4.00 C 0.68 3.16 0.71 1.48 0.73 0.64 Z" />
</g>
</svg>
