<?xml version="1.0" encoding="UTF-8" ?>
<!DOCTYPE svg PUBLIC "-//W3C//DTD SVG 1.1//EN" "http://www.w3.org/Graphics/SVG/1.1/DTD/svg11.dtd">
<svg width="8px" height="5px" viewBox="0 0 8 5" version="1.1" xmlns="http://www.w3.org/2000/svg">
<g id="#5c3d5b95">
<path fill="#5c3d5b" opacity="0.58" d=" M 0.00 0.00 L 8.00 0.00 L 8.00 5.00 L 0.00 5.00 L 0.00 0.00 M 0.73 0.65 C 0.71 1.49 0.67 3.16 0.65 3.99 C 2.77 3.98 4.88 3.97 7.00 3.95 C 6.99 3.13 6.99 1.47 6.99 0.65 C 4.90 0.64 2.82 0.64 0.73 0.65 Z" />
</g>
<g id="#9f6a9dff">
<path fill="#9f6a9d" opacity="1.00" d=" M 0.73 0.65 C 2.82 0.64 4.90 0.64 6.99 0.65 C 6.99 1.47 6.99 3.13 7.00 3.95 C 4.88 3.97 2.77 3.98 0.65 3.99 C 0.67 3.16 0.71 1.49 0.73 0.65 Z" />
</g>
</svg>
