<?xml version="1.0" encoding="UTF-8" ?>
<!DOCTYPE svg PUBLIC "-//W3C//DTD SVG 1.1//EN" "http://www.w3.org/Graphics/SVG/1.1/DTD/svg11.dtd">
<svg width="49pt" height="73pt" viewBox="0 0 49 73" version="1.1" xmlns="http://www.w3.org/2000/svg">
<g id="#0c263dff">
<path fill="#0c263d" opacity="1.00" d=" M 27.97 3.06 C 31.35 1.89 34.78 0.86 38.26 0.01 C 40.85 3.08 43.36 6.24 45.89 9.37 C 44.60 11.71 42.76 14.17 43.39 17.01 C 44.18 20.94 45.95 24.83 45.13 28.93 C 44.75 33.40 41.37 36.74 40.19 40.92 C 38.95 49.80 40.83 58.74 40.74 67.64 C 37.35 69.00 33.64 68.87 30.06 68.73 C 22.65 68.28 15.38 66.64 8.15 65.07 C 11.63 58.29 10.87 50.43 10.27 43.09 C 10.05 39.36 7.53 36.42 5.84 33.26 C 3.23 29.05 2.02 24.20 0.00 19.72 L 0.00 18.27 C 3.52 13.97 6.55 9.29 10.01 4.94 C 11.94 5.14 13.87 5.32 15.80 5.46 C 20.31 10.51 24.89 16.11 31.44 18.52 C 34.29 19.73 38.65 18.42 39.05 14.99 C 37.68 9.39 32.16 6.40 27.97 3.06 Z" />
</g>
</svg>
