<?xml version="1.0" encoding="UTF-8" ?>
<!DOCTYPE svg PUBLIC "-//W3C//DTD SVG 1.1//EN" "http://www.w3.org/Graphics/SVG/1.1/DTD/svg11.dtd">
<svg width="53pt" height="78pt" viewBox="0 0 53 78" version="1.1" xmlns="http://www.w3.org/2000/svg">
<g id="#00afffff">
<path fill="#00afff" opacity="1.00" d=" M 38.49 0.00 L 38.91 0.00 C 43.07 9.46 48.13 18.49 52.13 28.02 C 52.45 39.53 51.72 51.06 51.61 62.58 C 41.74 67.34 31.01 71.57 19.85 70.99 C 14.17 70.82 8.70 67.15 6.38 61.98 C 4.88 58.83 7.37 55.93 9.76 54.18 C 8.90 45.55 7.79 36.93 7.19 28.27 C 7.85 22.76 8.94 17.28 9.93 11.82 C 11.26 8.73 13.47 6.08 15.42 3.36 C 17.40 2.09 19.78 1.65 21.99 0.93 C 26.91 4.14 34.22 4.41 38.49 0.00 Z" />
</g>
</svg>
