<?xml version="1.0" encoding="UTF-8" ?>
<!DOCTYPE svg PUBLIC "-//W3C//DTD SVG 1.1//EN" "http://www.w3.org/Graphics/SVG/1.1/DTD/svg11.dtd">
<svg width="8px" height="5px" viewBox="0 0 8 5" version="1.1" xmlns="http://www.w3.org/2000/svg">
<g id="#90662595">
<path fill="#906625" opacity="0.58" d=" M 0.00 0.00 L 8.00 0.00 L 8.00 5.00 L 0.00 5.00 L 0.00 0.00 M 0.71 0.62 C 0.68 1.46 0.62 3.15 0.59 3.99 C 2.72 3.95 4.86 3.94 7.00 3.94 C 7.00 3.11 6.99 1.44 6.99 0.61 C 4.90 0.63 2.80 0.64 0.71 0.62 Z" />
</g>
<g id="#f8af40ff">
<path fill="#f8af40" opacity="1.00" d=" M 0.71 0.62 C 2.80 0.64 4.90 0.63 6.99 0.61 C 6.99 1.44 7.00 3.11 7.00 3.94 C 4.86 3.94 2.72 3.95 0.59 3.99 C 0.62 3.15 0.68 1.46 0.71 0.62 Z" />
</g>
</svg>
