<?xml version="1.0" encoding="UTF-8" ?>
<!DOCTYPE svg PUBLIC "-//W3C//DTD SVG 1.1//EN" "http://www.w3.org/Graphics/SVG/1.1/DTD/svg11.dtd">
<svg width="49px" height="73px" viewBox="0 0 49 73" version="1.1" xmlns="http://www.w3.org/2000/svg">
<g id="#0c263dff">
<path fill="#0c263d" opacity="1.00" d=" M 28.02 3.17 C 31.33 1.82 34.75 0.71 38.28 0.10 C 41.03 3.13 43.48 6.43 46.03 9.63 C 44.74 11.17 43.45 12.84 43.37 14.94 C 42.45 18.53 45.59 21.45 45.25 25.02 C 45.85 30.29 43.33 35.13 40.48 39.34 C 38.93 48.47 40.36 57.79 41.00 66.96 C 40.22 68.43 38.15 68.30 36.72 68.69 C 26.98 69.31 17.36 67.12 7.92 64.97 C 12.41 57.60 10.51 48.39 9.92 40.23 C 7.09 35.54 4.22 30.83 2.22 25.71 C 1.30 23.47 1.52 20.86 0.00 18.85 L 0.00 18.85 C 3.12 14.00 6.60 9.39 10.11 4.81 C 11.96 5.24 13.83 5.60 15.74 5.31 C 20.34 10.59 25.16 16.51 32.08 18.69 C 35.21 20.01 40.55 17.06 38.56 13.31 C 36.39 8.80 31.92 6.05 28.02 3.17 Z" />
</g>
</svg>
