<?xml version="1.0" encoding="UTF-8" ?>
<!DOCTYPE svg PUBLIC "-//W3C//DTD SVG 1.1//EN" "http://www.w3.org/Graphics/SVG/1.1/DTD/svg11.dtd">
<svg width="53px" height="117px" viewBox="0 0 53 117" version="1.1" xmlns="http://www.w3.org/2000/svg">
<g id="#00afffff">
<path fill="#00afff" opacity="1.00" d=" M 24.61 14.71 C 23.08 8.52 27.51 2.71 32.94 0.25 C 35.01 6.87 32.33 14.55 25.98 17.68 C 26.81 20.01 27.61 22.35 28.25 24.73 C 30.29 19.72 35.32 16.53 40.66 16.32 C 40.34 22.73 36.01 28.56 29.61 29.95 C 30.10 33.24 30.82 36.56 30.36 39.90 C 33.17 37.02 36.84 34.82 41.00 34.96 C 40.51 38.05 39.74 41.24 37.73 43.73 C 35.73 46.42 32.43 47.55 29.39 48.62 C 28.66 50.31 27.91 51.98 27.12 53.64 C 32.70 50.63 39.26 49.53 45.49 50.53 C 47.17 51.23 47.26 53.87 45.62 54.67 C 43.63 55.12 41.96 53.34 39.98 53.47 C 34.79 53.58 29.80 55.62 25.48 58.41 C 22.05 60.29 22.38 64.79 21.74 68.11 C 20.68 81.81 23.68 95.45 27.17 108.62 C 26.38 108.84 24.80 109.28 24.01 109.50 C 20.07 94.81 16.80 79.41 18.94 64.16 C 12.58 62.52 7.76 56.43 8.41 49.75 C 13.64 50.58 18.83 53.89 20.15 59.29 C 21.47 54.66 25.44 51.33 26.43 46.56 C 27.12 43.27 28.35 39.10 25.49 36.47 C 21.24 31.75 15.70 26.51 8.83 27.33 C 6.40 27.29 6.88 23.25 9.05 22.99 C 15.95 24.19 22.38 27.67 26.89 33.08 C 26.22 30.01 25.56 26.94 24.64 23.94 C 23.71 20.83 22.71 17.67 20.75 15.04 C 19.51 13.96 18.70 11.03 21.06 10.83 C 23.67 9.69 24.16 13.04 24.61 14.71 Z" />
</g>
<g id="#009de5ff">
<path fill="#009de5" opacity="1.00" d=" M 10.48 12.96 C 13.98 12.91 17.75 12.98 20.75 15.04 C 22.71 17.67 23.71 20.83 24.64 23.94 C 18.01 24.28 11.76 19.50 10.48 12.96 Z" />
</g>
</svg>
