<?xml version="1.0" encoding="UTF-8" ?>
<!DOCTYPE svg PUBLIC "-//W3C//DTD SVG 1.1//EN" "http://www.w3.org/Graphics/SVG/1.1/DTD/svg11.dtd">
<svg width="5px" height="8px" viewBox="0 0 5 8" version="1.1" xmlns="http://www.w3.org/2000/svg">
<g id="#5c3d5b95">
<path fill="#5c3d5b" opacity="0.58" d=" M 0.00 0.00 L 5.00 0.00 L 5.00 8.00 L 0.00 8.00 L 0.00 0.00 M 0.64 0.73 C 0.64 2.82 0.65 4.90 0.64 6.99 C 1.47 6.99 3.13 6.99 3.96 6.99 C 3.95 4.87 3.97 2.76 4.00 0.65 C 3.16 0.67 1.48 0.71 0.64 0.73 Z" />
</g>
<g id="#9f6a9dff">
<path fill="#9f6a9d" opacity="1.00" d=" M 0.64 0.73 C 1.48 0.71 3.16 0.67 4.00 0.65 C 3.97 2.76 3.95 4.87 3.96 6.99 C 3.13 6.99 1.47 6.99 0.64 6.99 C 0.65 4.90 0.64 2.82 0.64 0.73 Z" />
</g>
</svg>
