<?xml version="1.0" encoding="UTF-8" ?>
<!DOCTYPE svg PUBLIC "-//W3C//DTD SVG 1.1//EN" "http://www.w3.org/Graphics/SVG/1.1/DTD/svg11.dtd">
<svg width="48px" height="79px" viewBox="0 0 48 79" version="1.1" xmlns="http://www.w3.org/2000/svg">
<g id="#00ccb6ff">
<path fill="#00ccb6" opacity="1.00" d=" M 28.66 0.00 L 29.15 0.00 C 34.99 13.98 40.86 27.96 45.75 42.31 C 47.36 47.03 48.30 52.24 46.87 57.12 C 46.15 59.40 44.50 61.46 42.15 62.17 C 34.49 65.14 26.82 68.07 19.19 71.12 C 15.77 72.33 11.90 72.55 9.08 75.08 C 6.86 76.43 4.85 79.50 1.93 78.30 C 0.73 77.02 0.42 75.21 0.00 73.57 L 0.00 64.19 C 6.79 59.83 13.65 55.59 20.47 51.28 C 23.07 51.33 25.78 50.97 27.59 48.90 C 24.42 43.55 20.70 38.52 17.68 33.09 C 15.84 27.10 14.80 20.88 13.27 14.80 C 18.44 9.90 23.57 4.97 28.66 0.00 Z" />
</g>
</svg>
