<?xml version="1.0" encoding="UTF-8" ?>
<!DOCTYPE svg PUBLIC "-//W3C//DTD SVG 1.1//EN" "http://www.w3.org/Graphics/SVG/1.1/DTD/svg11.dtd">
<svg width="57px" height="34px" viewBox="0 0 57 34" version="1.1" xmlns="http://www.w3.org/2000/svg">
<g id="#9f6a9dff">
<path fill="#9f6a9d" opacity="1.00" d=" M 41.46 4.55 C 43.62 3.51 46.08 4.86 47.20 6.79 C 50.25 11.67 50.96 17.89 49.66 23.45 C 48.94 26.60 46.46 29.51 43.06 29.64 C 40.03 29.53 37.08 28.55 34.03 28.67 C 30.77 28.56 27.79 30.01 24.71 30.81 C 19.54 32.09 14.08 31.97 8.89 30.78 C 4.46 30.38 2.98 25.53 0.26 22.75 C 4.81 19.69 7.17 14.56 9.86 9.99 C 11.42 11.45 12.73 13.35 14.66 14.33 C 20.11 13.51 25.49 12.26 30.92 11.30 C 35.28 10.64 38.06 6.94 41.46 4.55 Z" />
</g>
</svg>
