<?xml version="1.0" encoding="UTF-8" ?>
<!DOCTYPE svg PUBLIC "-//W3C//DTD SVG 1.1//EN" "http://www.w3.org/Graphics/SVG/1.1/DTD/svg11.dtd">
<svg width="59px" height="73px" viewBox="0 0 59 73" version="1.1" xmlns="http://www.w3.org/2000/svg">
<g id="#0c263dff">
<path fill="#0c263d" opacity="1.00" d=" M 8.40 0.00 L 8.42 0.00 C 13.26 8.40 18.01 16.86 22.80 25.30 C 26.21 30.69 30.88 35.13 35.19 39.79 C 39.10 43.66 42.75 48.21 48.11 50.13 C 49.90 50.88 52.21 51.62 52.32 53.96 C 52.74 58.49 49.85 62.76 46.29 65.31 C 44.04 67.03 40.22 67.15 38.71 64.40 C 33.85 56.39 28.39 48.76 22.68 41.33 C 20.37 38.34 17.38 35.90 15.52 32.57 C 11.89 26.16 8.19 19.79 4.54 13.38 C 3.28 10.96 1.91 8.56 0.00 6.57 L 0.00 5.30 C 3.66 5.36 5.93 2.20 8.40 0.00 Z" />
</g>
</svg>
