<?xml version="1.0" encoding="UTF-8" ?>
<!DOCTYPE svg PUBLIC "-//W3C//DTD SVG 1.1//EN" "http://www.w3.org/Graphics/SVG/1.1/DTD/svg11.dtd">
<svg width="31px" height="41px" viewBox="0 0 31 41" version="1.1" xmlns="http://www.w3.org/2000/svg">
<g id="#00c3aeff">
<path fill="#00c3ae" opacity="1.00" d=" M 16.16 1.69 C 19.28 5.07 22.70 8.47 23.87 13.08 L 24.17 13.73 L 24.60 14.03 C 26.82 15.34 26.87 18.42 26.66 20.68 C 25.22 23.55 21.37 22.40 18.97 23.84 C 11.98 27.60 7.78 34.63 3.16 40.78 C 2.77 38.60 2.54 36.33 3.30 34.20 C 5.73 26.48 11.75 20.71 15.73 13.84 C 17.88 10.09 17.95 5.58 16.16 1.69 Z" />
</g>
<g id="#d2ae30d7">
<path fill="#d2ae30" opacity="0.84" d=" M 23.87 13.08 C 23.73 11.26 22.53 8.43 24.98 7.59 C 25.00 9.08 25.01 10.58 25.00 12.07 C 26.46 11.68 28.39 9.61 29.61 11.49 C 27.98 12.40 26.35 13.35 24.60 14.03 L 24.17 13.73 L 23.87 13.08 Z" />
</g>
</svg>
