<?xml version="1.0" encoding="UTF-8" ?>
<!DOCTYPE svg PUBLIC "-//W3C//DTD SVG 1.1//EN" "http://www.w3.org/Graphics/SVG/1.1/DTD/svg11.dtd">
<svg width="126px" height="172px" viewBox="0 0 126 172" version="1.1" xmlns="http://www.w3.org/2000/svg">
<g id="#82515fc9">
<path fill="#82515f" opacity="0.79" d=" M 58.03 0.00 L 100.24 0.00 C 98.45 1.39 96.09 1.10 93.97 1.14 C 90.57 1.08 87.17 1.25 83.78 1.21 C 80.14 0.30 76.38 0.14 72.76 1.27 C 67.85 0.94 62.93 1.14 58.02 1.01 L 58.03 0.00 Z" />
</g>
<g id="#955a6bff">
<path fill="#955a6b" opacity="1.00" d=" M 100.24 0.00 L 100.71 0.00 C 100.99 16.84 100.29 33.67 100.51 50.52 C 86.35 50.55 72.19 50.49 58.03 50.54 C 57.97 34.03 57.99 17.52 58.02 1.01 C 62.93 1.14 67.85 0.94 72.76 1.27 C 68.58 3.76 64.86 7.80 64.96 12.98 C 64.33 19.39 69.10 24.77 74.79 26.97 C 72.59 30.96 69.08 33.92 64.93 35.73 C 70.90 38.43 77.18 40.34 83.25 42.80 C 85.23 43.49 87.45 44.68 89.48 43.41 C 92.79 41.83 96.43 40.20 98.53 37.03 C 99.01 35.09 96.84 34.30 95.72 33.23 C 91.91 30.71 90.28 26.25 88.91 22.12 C 90.78 18.77 92.22 14.92 91.31 11.04 C 90.69 6.67 87.31 3.47 83.78 1.21 C 87.17 1.25 90.57 1.08 93.97 1.14 C 96.09 1.10 98.45 1.39 100.24 0.00 Z" />
</g>
<g id="#ffbdc6ff">
<path fill="#ffbdc6" opacity="1.00" d=" M 72.76 1.27 C 76.38 0.14 80.14 0.30 83.78 1.21 C 87.31 3.47 90.69 6.67 91.31 11.04 C 92.22 14.92 90.78 18.77 88.91 22.12 C 90.28 26.25 91.91 30.71 95.72 33.23 C 96.84 34.30 99.01 35.09 98.53 37.03 C 96.43 40.20 92.79 41.83 89.48 43.41 C 87.45 44.68 85.23 43.49 83.25 42.80 C 77.18 40.34 70.90 38.43 64.93 35.73 C 69.08 33.92 72.59 30.96 74.79 26.97 C 69.10 24.77 64.33 19.39 64.96 12.98 C 64.86 7.80 68.58 3.76 72.76 1.27 Z" />
</g>
<g id="#2e200c30">
<path fill="#2e200c" opacity="0.19" d=" M 49.15 45.01 C 50.40 45.60 50.33 46.28 48.95 47.05 C 47.71 46.47 47.77 45.78 49.15 45.01 Z" />
</g>
<g id="#929292ff">
<path fill="#929292" opacity="1.00" d=" M 75.40 86.35 C 85.40 80.68 95.31 74.85 105.26 69.09 C 104.82 71.73 104.55 74.39 104.47 77.07 C 98.60 79.00 92.46 80.70 87.41 84.41 C 80.60 89.06 78.19 97.43 72.71 103.31 C 71.49 103.01 70.48 102.30 69.67 101.35 C 69.87 100.69 70.27 99.35 70.47 98.69 C 70.98 98.46 71.99 98.00 72.50 97.77 C 73.37 93.94 74.32 90.13 75.40 86.35 Z" />
</g>
<g id="#a3a3a3ff">
<path fill="#a3a3a3" opacity="1.00" d=" M 87.41 84.41 C 92.46 80.70 98.60 79.00 104.47 77.07 C 105.00 85.22 105.95 93.33 107.26 101.40 C 107.08 101.66 106.72 102.18 106.53 102.45 C 95.41 104.60 83.96 103.60 72.71 103.31 C 78.19 97.43 80.60 89.06 87.41 84.41 Z" />
</g>
<g id="#9f6a9dff">
<path fill="#9f6a9d" opacity="1.00" d=" M 71.02 120.00 C 70.09 113.84 69.05 107.59 69.67 101.35 C 70.48 102.30 71.49 103.01 72.71 103.31 C 83.96 103.60 95.41 104.60 106.53 102.45 C 111.30 115.31 117.40 127.66 121.22 140.87 C 122.54 146.00 125.57 151.63 122.85 156.83 C 120.15 162.90 111.33 165.03 106.34 160.53 C 107.35 157.96 109.64 155.26 108.62 152.36 C 104.67 148.55 100.31 144.87 95.17 142.79 C 95.18 143.97 95.19 145.16 95.21 146.34 C 95.22 151.90 94.51 157.51 92.88 162.83 C 91.95 165.28 90.91 168.30 88.17 169.20 C 83.91 170.50 78.86 170.91 75.04 168.19 C 71.36 165.49 69.92 160.84 68.69 156.65 C 74.03 151.17 75.51 143.26 75.72 135.88 C 75.12 130.32 71.78 125.52 71.02 120.00 Z" />
</g>
<g id="#8f5f8dff">
<path fill="#8f5f8d" opacity="1.00" d=" M 95.17 142.79 C 100.31 144.87 104.67 148.55 108.62 152.36 C 109.64 155.26 107.35 157.96 106.34 160.53 C 102.77 155.69 99.01 151.00 95.21 146.34 C 95.19 145.16 95.18 143.97 95.17 142.79 Z" />
</g>
</svg>
