<?xml version="1.0" encoding="UTF-8" ?>
<!DOCTYPE svg PUBLIC "-//W3C//DTD SVG 1.1//EN" "http://www.w3.org/Graphics/SVG/1.1/DTD/svg11.dtd">
<svg width="47pt" height="58pt" viewBox="0 0 47 58" version="1.1" xmlns="http://www.w3.org/2000/svg">
<g id="#493545ff">
<path fill="#493545" opacity="1.00" d=" M 5.96 5.93 C 5.90 3.22 8.75 1.72 11.10 1.39 C 14.78 1.00 18.38 2.14 22.03 2.42 C 26.43 2.98 30.67 1.12 35.06 1.25 C 39.36 1.17 42.12 5.44 46.42 5.48 C 45.41 7.35 44.53 9.49 42.60 10.62 C 37.48 13.81 30.63 12.00 25.75 15.68 C 22.93 17.70 22.56 21.35 21.41 24.36 C 20.44 27.34 18.65 30.38 19.47 33.61 C 20.14 37.16 24.04 38.44 25.88 41.23 C 26.68 43.76 25.98 46.44 26.10 49.04 C 25.95 51.49 27.46 53.54 28.44 55.65 C 21.64 56.80 14.21 54.60 9.93 49.00 C 6.69 45.29 6.22 40.27 5.19 35.67 C 4.52 32.17 0.46 29.88 1.26 26.04 C 2.07 20.81 7.21 17.39 7.75 12.08 C 7.28 9.99 6.33 8.04 5.96 5.93 Z" />
</g>
</svg>
