<?xml version="1.0" encoding="UTF-8" ?>
<!DOCTYPE svg PUBLIC "-//W3C//DTD SVG 1.1//EN" "http://www.w3.org/Graphics/SVG/1.1/DTD/svg11.dtd">
<svg width="53px" height="78px" viewBox="0 0 53 78" version="1.1" xmlns="http://www.w3.org/2000/svg">
<g id="#00afffff">
<path fill="#00afff" opacity="1.00" d=" M 38.52 0.00 L 38.92 0.00 C 43.04 9.48 48.18 18.50 52.12 28.05 C 52.47 39.56 51.71 51.10 51.61 62.62 C 40.48 67.80 28.04 72.97 15.56 70.27 C 13.62 69.46 11.82 68.37 10.18 67.06 C 7.98 64.99 5.60 62.31 6.03 59.05 C 6.37 56.88 8.27 55.58 9.75 54.18 C 8.93 45.55 7.77 36.94 7.19 28.30 C 7.84 22.75 8.93 17.25 9.95 11.76 C 11.34 8.66 13.52 5.92 15.57 3.22 C 17.57 2.10 19.84 1.62 22.00 0.94 C 26.94 4.14 34.20 4.40 38.52 0.00 Z" />
</g>
<g id="#0000001a">
<path fill="#000000" opacity="0.10" d=" M 10.18 67.06 C 11.82 68.37 13.62 69.46 15.56 70.27 C 15.36 71.37 15.64 72.73 14.63 73.51 C 11.09 74.36 7.42 74.02 3.83 73.83 C 4.37 72.18 4.38 70.07 5.94 68.97 C 7.27 68.17 8.75 67.65 10.18 67.06 Z" />
</g>
</svg>
