<?xml version="1.0" encoding="UTF-8" ?>
<!DOCTYPE svg PUBLIC "-//W3C//DTD SVG 1.1//EN" "http://www.w3.org/Graphics/SVG/1.1/DTD/svg11.dtd">
<svg width="80px" height="108px" viewBox="0 0 80 108" version="1.1" xmlns="http://www.w3.org/2000/svg">
<g id="#565387ff">
<path fill="#565387" opacity="1.00" d=" M 25.02 8.05 C 37.82 5.38 50.64 2.83 63.42 0.04 C 67.48 13.99 71.12 28.05 75.06 42.03 C 76.77 47.91 79.62 53.70 79.13 59.98 C 78.76 64.93 78.55 69.98 76.89 74.70 C 74.79 80.58 76.33 86.87 76.72 92.91 C 73.70 94.79 70.24 95.91 66.66 95.58 C 64.75 83.83 65.66 71.83 64.69 60.00 C 64.06 56.01 61.73 52.58 59.93 49.05 C 56.74 43.46 53.50 37.69 48.74 33.27 C 47.12 31.51 44.64 31.44 42.43 31.27 C 37.46 30.34 34.07 34.90 31.26 38.24 C 25.60 45.83 20.68 54.09 16.98 62.79 C 17.27 68.59 18.66 74.28 19.16 80.07 C 20.76 88.65 19.30 97.38 20.04 106.03 C 16.28 107.17 12.33 106.78 8.50 106.26 C 7.84 104.23 7.22 102.18 7.04 100.05 C 6.16 88.66 5.32 77.27 4.31 65.90 C 4.07 62.16 2.90 58.18 4.61 54.61 C 9.52 43.50 12.42 31.62 17.65 20.63 C 19.89 16.35 21.00 11.13 25.02 8.05 Z" />
</g>
<g id="#45426cff">
<path fill="#45426c" opacity="1.00" d=" M 19.54 9.25 C 21.36 8.84 23.19 8.45 25.02 8.05 C 21.00 11.13 19.89 16.35 17.65 20.63 C 12.42 31.62 9.52 43.50 4.61 54.61 C 2.90 58.18 4.07 62.16 4.31 65.90 C 5.32 77.27 6.16 88.66 7.04 100.05 C 7.22 102.18 7.84 104.23 8.50 106.26 C 7.07 106.08 5.64 105.92 4.21 105.77 C 2.40 90.04 1.84 74.19 0.00 58.47 L 0.00 55.06 C 2.26 50.28 4.93 45.67 6.50 40.60 C 9.89 29.78 14.44 19.37 19.54 9.25 Z" />
<path fill="#45426c" opacity="1.00" d=" M 42.43 31.27 C 44.64 31.44 47.12 31.51 48.74 33.27 C 53.50 37.69 56.74 43.46 59.93 49.05 C 61.73 52.58 64.06 56.01 64.69 60.00 C 65.66 71.83 64.75 83.83 66.66 95.58 C 65.26 95.20 63.88 94.78 62.51 94.37 C 62.11 82.95 61.85 71.52 61.37 60.11 C 60.81 56.96 58.99 54.21 57.61 51.37 C 53.57 44.02 49.48 36.20 42.43 31.27 Z" />
</g>
</svg>
