<?xml version="1.0" encoding="UTF-8" ?>
<!DOCTYPE svg PUBLIC "-//W3C//DTD SVG 1.1//EN" "http://www.w3.org/Graphics/SVG/1.1/DTD/svg11.dtd">
<svg width="32px" height="77px" viewBox="0 0 32 77" version="1.1" xmlns="http://www.w3.org/2000/svg">
<g id="#9f6a9dff">
<path fill="#9f6a9d" opacity="1.00" d=" M 2.13 0.00 L 3.57 0.00 C 8.78 4.71 16.11 6.35 22.91 7.18 C 27.05 8.85 28.95 13.30 32.00 16.28 L 32.00 16.83 L 31.54 17.07 C 28.17 22.75 25.65 28.88 22.67 34.76 C 20.17 40.97 18.61 47.88 19.54 54.56 C 21.86 60.30 26.09 65.15 27.70 71.23 C 24.99 71.36 21.80 72.59 19.46 70.64 C 14.89 67.36 12.20 62.26 9.36 57.56 C 8.71 52.39 9.66 47.18 9.77 41.99 C 9.85 37.15 11.02 32.14 9.38 27.43 C 7.10 20.72 4.78 13.80 0.13 8.30 C 0.96 5.58 1.86 2.85 2.13 0.00 Z" />
</g>
<g id="#8f5f8dff">
<path fill="#8f5f8d" opacity="1.00" d=" M 9.36 57.56 C 12.20 62.26 14.89 67.36 19.46 70.64 C 21.80 72.59 24.99 71.36 27.70 71.23 C 27.64 74.43 23.87 76.13 21.16 74.89 C 14.30 71.95 10.33 64.70 9.36 57.56 Z" />
</g>
</svg>
