<?xml version="1.0" encoding="UTF-8" ?>
<!DOCTYPE svg PUBLIC "-//W3C//DTD SVG 1.1//EN" "http://www.w3.org/Graphics/SVG/1.1/DTD/svg11.dtd">
<svg width="126px" height="172px" viewBox="0 0 126 172" version="1.1" xmlns="http://www.w3.org/2000/svg">
<g id="#82515fc9">
<path fill="#82515f" opacity="0.79" d=" M 58.01 0.00 L 98.75 0.00 L 100.32 0.77 C 94.80 1.13 89.25 1.24 83.71 1.07 C 80.21 0.46 76.65 0.41 73.13 0.97 C 68.10 1.28 63.05 0.98 58.01 0.99 L 58.01 0.00 Z" />
</g>
<g id="#955a6bff">
<path fill="#955a6b" opacity="1.00" d=" M 98.75 0.00 L 100.45 0.00 C 100.62 16.84 100.49 33.68 100.52 50.52 C 86.35 50.54 72.18 50.51 58.01 50.53 C 57.99 34.02 57.99 17.50 58.01 0.99 C 63.05 0.98 68.10 1.28 73.13 0.97 C 70.32 2.78 67.47 4.91 66.06 8.05 C 63.90 13.04 64.83 19.40 68.85 23.19 C 70.64 24.76 72.76 25.90 74.82 27.06 C 72.44 30.97 68.89 33.91 64.82 35.92 C 72.31 38.41 79.49 41.88 87.12 43.89 C 91.58 43.19 95.81 40.48 98.65 36.97 C 98.34 34.76 96.06 33.77 94.68 32.28 C 91.55 29.80 90.24 25.91 88.94 22.29 C 90.58 18.81 92.25 14.97 91.30 11.05 C 90.69 6.61 87.19 3.47 83.71 1.07 C 89.25 1.24 94.80 1.13 100.32 0.77 L 98.75 0.00 Z" />
</g>
<g id="#ffbdc6ff">
<path fill="#ffbdc6" opacity="1.00" d=" M 73.13 0.97 C 76.65 0.41 80.21 0.46 83.71 1.07 C 87.19 3.47 90.69 6.61 91.30 11.05 C 92.25 14.97 90.58 18.81 88.94 22.29 C 90.24 25.91 91.55 29.80 94.68 32.28 C 96.06 33.77 98.34 34.76 98.65 36.97 C 95.81 40.48 91.58 43.19 87.12 43.89 C 79.49 41.88 72.31 38.41 64.82 35.92 C 68.89 33.91 72.44 30.97 74.82 27.06 C 72.76 25.90 70.64 24.76 68.85 23.19 C 64.83 19.40 63.90 13.04 66.06 8.05 C 67.47 4.91 70.32 2.78 73.13 0.97 Z" />
</g>
<g id="#2e200c30">
<path fill="#2e200c" opacity="0.19" d=" M 49.07 45.01 C 50.36 45.63 50.35 46.31 49.03 47.05 C 47.72 46.43 47.74 45.75 49.07 45.01 Z" />
</g>
<g id="#929292ff">
<path fill="#929292" opacity="1.00" d=" M 75.39 86.38 C 85.37 80.67 95.31 74.88 105.24 69.09 C 104.86 71.72 104.56 74.37 104.46 77.04 C 96.45 79.66 87.58 82.24 82.32 89.35 C 79.12 93.92 76.45 98.86 72.85 103.15 C 72.49 103.02 71.76 102.75 71.39 102.61 C 70.92 102.36 69.99 101.86 69.53 101.61 C 69.77 100.89 70.27 99.45 70.52 98.73 C 71.01 98.49 71.99 98.02 72.48 97.78 C 73.37 93.96 74.32 90.15 75.39 86.38 Z" />
</g>
<g id="#a3a3a3ff">
<path fill="#a3a3a3" opacity="1.00" d=" M 82.32 89.35 C 87.58 82.24 96.45 79.66 104.46 77.04 C 104.88 85.46 106.30 93.82 107.15 102.16 L 106.53 102.37 C 95.47 104.57 84.04 103.76 72.85 103.15 C 76.45 98.86 79.12 93.92 82.32 89.35 Z" />
</g>
<g id="#9f6a9dff">
<path fill="#9f6a9d" opacity="1.00" d=" M 71.18 120.85 C 70.04 114.51 69.27 108.07 69.53 101.61 C 69.99 101.86 70.92 102.36 71.39 102.61 C 71.76 102.75 72.49 103.02 72.85 103.15 C 84.04 103.76 95.47 104.57 106.53 102.37 C 111.25 115.27 117.40 127.62 121.21 140.85 C 122.56 145.97 125.54 151.60 122.87 156.81 C 120.15 162.87 111.62 164.90 106.45 160.72 C 107.40 158.23 108.77 155.80 108.94 153.09 C 105.49 148.41 100.24 145.48 95.29 142.61 C 95.27 143.86 95.25 145.10 95.24 146.35 C 94.92 153.54 94.56 161.34 90.53 167.56 C 87.36 170.54 82.24 170.56 78.20 169.72 C 72.30 168.12 70.22 161.77 68.60 156.58 C 74.14 151.28 75.47 143.23 75.71 135.89 C 75.17 130.62 72.11 126.04 71.18 120.85 Z" />
</g>
<g id="#8f5f8dff">
<path fill="#8f5f8d" opacity="1.00" d=" M 95.29 142.61 C 100.24 145.48 105.49 148.41 108.94 153.09 C 108.77 155.80 107.40 158.23 106.45 160.72 C 102.90 155.79 99.04 151.09 95.24 146.35 C 95.25 145.10 95.27 143.86 95.29 142.61 Z" />
</g>
</svg>
