<?xml version="1.0" encoding="UTF-8" ?>
<!DOCTYPE svg PUBLIC "-//W3C//DTD SVG 1.1//EN" "http://www.w3.org/Graphics/SVG/1.1/DTD/svg11.dtd">
<svg width="83px" height="106px" viewBox="0 0 83 106" version="1.1" xmlns="http://www.w3.org/2000/svg">
<g id="#f8af40ff">
<path fill="#f8af40" opacity="1.00" d=" M 39.65 0.25 C 52.08 4.61 64.20 10.05 76.76 14.15 C 79.27 15.12 82.44 17.59 81.55 20.61 C 76.96 26.02 71.41 30.58 65.32 34.21 C 60.04 37.53 56.15 45.19 60.19 50.84 C 63.21 54.63 61.33 59.79 59.86 63.83 C 58.69 68.45 59.48 73.70 58.08 78.14 C 48.42 80.06 38.21 83.78 32.14 91.98 C 29.06 96.92 26.65 103.49 20.62 105.41 C 20.63 105.56 20.64 105.85 20.65 106.00 L 20.29 106.00 C 21.30 98.70 20.37 91.33 19.58 84.05 C 18.96 78.03 18.10 71.62 14.38 66.64 C 12.07 63.38 7.61 62.09 3.87 63.44 C 3.13 58.16 1.70 53.02 0.16 47.93 C 5.19 39.24 15.13 34.64 24.33 31.53 C 27.82 34.94 33.21 36.52 37.90 34.93 C 40.64 34.08 41.65 30.98 41.19 28.37 C 48.55 28.65 55.08 24.02 60.85 19.92 C 53.62 14.85 46.46 9.69 39.20 4.66 C 38.69 3.21 39.44 1.69 39.65 0.25 Z" />
</g>
</svg>
