<?xml version="1.0" encoding="UTF-8" ?>
<!DOCTYPE svg PUBLIC "-//W3C//DTD SVG 1.1//EN" "http://www.w3.org/Graphics/SVG/1.1/DTD/svg11.dtd">
<svg width="8px" height="5px" viewBox="0 0 8 5" version="1.1" xmlns="http://www.w3.org/2000/svg">
<g id="#91662596">
<path fill="#916625" opacity="0.59" d=" M 0.00 0.00 L 8.00 0.00 L 8.00 5.00 L 0.00 5.00 L 0.00 0.00 M 0.66 0.60 C 0.65 1.45 0.62 3.14 0.61 3.99 C 2.74 3.95 4.87 3.94 7.00 3.93 C 7.00 3.10 6.99 1.45 6.99 0.63 C 4.88 0.63 2.77 0.63 0.66 0.60 Z" />
</g>
<g id="#f8af40ff">
<path fill="#f8af40" opacity="1.00" d=" M 0.66 0.60 C 2.77 0.63 4.88 0.63 6.99 0.63 C 6.99 1.45 7.00 3.10 7.00 3.93 C 4.87 3.94 2.74 3.95 0.61 3.99 C 0.62 3.14 0.65 1.45 0.66 0.60 Z" />
</g>
</svg>
