<?xml version="1.0" encoding="UTF-8" ?>
<!DOCTYPE svg PUBLIC "-//W3C//DTD SVG 1.1//EN" "http://www.w3.org/Graphics/SVG/1.1/DTD/svg11.dtd">
<svg width="5px" height="8px" viewBox="0 0 5 8" version="1.1" xmlns="http://www.w3.org/2000/svg">
<g id="#5c3d5b95">
<path fill="#5c3d5b" opacity="0.58" d=" M 0.00 0.00 L 5.00 0.00 L 5.00 8.00 L 0.00 8.00 L 0.00 0.00 M 0.62 0.71 C 0.64 2.81 0.64 4.90 0.62 6.99 C 1.45 6.99 3.11 7.00 3.93 7.00 C 3.93 4.87 3.94 2.74 4.00 0.61 C 3.15 0.63 1.46 0.69 0.62 0.71 Z" />
</g>
<g id="#9f6a9dff">
<path fill="#9f6a9d" opacity="1.00" d=" M 0.62 0.71 C 1.46 0.69 3.15 0.63 4.00 0.61 C 3.94 2.74 3.93 4.87 3.93 7.00 C 3.11 7.00 1.45 6.99 0.62 6.99 C 0.64 4.90 0.64 2.81 0.62 0.71 Z" />
</g>
</svg>
