<?xml version="1.0" encoding="UTF-8" ?>
<!DOCTYPE svg PUBLIC "-//W3C//DTD SVG 1.1//EN" "http://www.w3.org/Graphics/SVG/1.1/DTD/svg11.dtd">
<svg width="41px" height="20px" viewBox="0 0 41 20" version="1.1" xmlns="http://www.w3.org/2000/svg">
<g id="#7679b4ff">
<path fill="#7679b4" opacity="1.00" d=" M 3.72 1.86 C 13.10 1.10 22.52 0.47 31.93 0.32 C 35.83 0.31 41.72 2.70 39.88 7.61 C 38.67 7.89 37.47 8.16 36.26 8.44 C 28.33 8.20 20.40 8.76 12.48 8.49 C 8.94 7.60 2.88 6.94 3.72 1.86 Z" />
</g>
<g id="#ffbdc6ff">
<path fill="#ffbdc6" opacity="1.00" d=" M 12.48 8.49 C 20.40 8.76 28.33 8.20 36.26 8.44 C 35.73 10.52 35.45 12.67 34.75 14.70 C 33.03 16.75 30.57 18.00 28.78 20.00 L 27.47 20.00 C 23.31 15.26 17.79 11.84 12.48 8.49 Z" />
</g>
</svg>
