<?xml version="1.0" encoding="UTF-8" ?>
<!DOCTYPE svg PUBLIC "-//W3C//DTD SVG 1.1//EN" "http://www.w3.org/Graphics/SVG/1.1/DTD/svg11.dtd">
<svg width="5px" height="8px" viewBox="0 0 5 8" version="1.1" xmlns="http://www.w3.org/2000/svg">
<g id="#5c3d5b95">
<path fill="#5c3d5b" opacity="0.58" d=" M 0.00 0.00 L 5.00 0.00 L 5.00 8.00 L 0.00 8.00 L 0.00 0.00 M 0.65 0.74 C 0.65 2.82 0.65 4.90 0.65 6.99 C 1.48 6.99 3.13 6.99 3.95 6.99 C 3.94 4.88 3.96 2.77 4.00 0.66 C 3.16 0.68 1.49 0.72 0.65 0.74 Z" />
</g>
<g id="#9f6a9dff">
<path fill="#9f6a9d" opacity="1.00" d=" M 0.65 0.74 C 1.49 0.72 3.16 0.68 4.00 0.66 C 3.96 2.77 3.94 4.88 3.95 6.99 C 3.13 6.99 1.48 6.99 0.65 6.99 C 0.65 4.90 0.65 2.82 0.65 0.74 Z" />
</g>
</svg>
