<?xml version="1.0" encoding="UTF-8" ?>
<!DOCTYPE svg PUBLIC "-//W3C//DTD SVG 1.1//EN" "http://www.w3.org/Graphics/SVG/1.1/DTD/svg11.dtd">
<svg width="76px" height="58px" viewBox="0 0 76 58" version="1.1" xmlns="http://www.w3.org/2000/svg">
<g id="#a66477ff">
<path fill="#a66477" opacity="1.00" d=" M 23.57 5.26 C 26.88 4.54 28.61 0.82 32.08 0.48 C 37.56 -0.46 42.69 2.45 48.00 3.24 C 50.00 3.54 51.69 2.19 53.33 1.28 C 58.24 3.17 61.42 7.53 63.86 11.97 C 66.11 16.08 70.04 19.98 75.14 19.25 C 72.50 27.44 65.22 35.20 56.02 34.56 C 52.03 33.95 47.93 36.33 44.13 35.11 C 39.60 30.80 37.57 24.39 32.91 20.12 C 30.81 18.32 28.02 19.81 26.02 20.99 C 23.64 22.42 21.18 24.27 20.37 27.06 C 19.15 30.25 22.51 33.53 20.63 36.62 C 19.49 38.85 19.10 41.33 18.76 43.78 C 18.30 47.94 13.41 49.79 13.11 54.00 C 12.49 58.48 6.90 57.21 3.75 56.95 C 5.08 55.17 6.96 53.50 7.04 51.11 C 6.99 46.61 2.07 43.56 2.79 38.94 C 3.85 34.37 6.54 29.91 5.52 25.07 C 4.11 20.93 0.03 17.70 0.29 13.04 C 1.95 9.61 5.34 6.97 9.05 6.14 C 13.88 5.71 18.80 6.37 23.57 5.26 Z" />
</g>
</svg>
