<?xml version="1.0" encoding="UTF-8" ?>
<!DOCTYPE svg PUBLIC "-//W3C//DTD SVG 1.1//EN" "http://www.w3.org/Graphics/SVG/1.1/DTD/svg11.dtd">
<svg width="5px" height="8px" viewBox="0 0 5 8" version="1.1" xmlns="http://www.w3.org/2000/svg">
<g id="#5c3d5b95">
<path fill="#5c3d5b" opacity="0.58" d=" M 0.00 0.00 L 5.00 0.00 L 5.00 8.00 L 0.00 8.00 L 0.00 0.00 M 0.64 0.74 C 0.64 2.81 0.62 4.88 0.56 6.95 C 1.40 6.97 3.09 6.99 3.94 7.00 C 3.93 4.83 3.93 2.65 3.95 0.47 C 3.12 0.54 1.47 0.67 0.64 0.74 Z" />
</g>
<g id="#9f6a9dff">
<path fill="#9f6a9d" opacity="1.00" d=" M 0.64 0.74 C 1.47 0.67 3.12 0.54 3.95 0.47 C 3.93 2.65 3.93 4.83 3.94 7.00 C 3.09 6.99 1.40 6.97 0.56 6.95 C 0.62 4.88 0.64 2.81 0.64 0.74 Z" />
</g>
</svg>
