<?xml version="1.0" encoding="UTF-8" ?>
<!DOCTYPE svg PUBLIC "-//W3C//DTD SVG 1.1//EN" "http://www.w3.org/Graphics/SVG/1.1/DTD/svg11.dtd">
<svg width="36px" height="23px" viewBox="0 0 36 23" version="1.1" xmlns="http://www.w3.org/2000/svg">
<g id="#88455eff">
<path fill="#88455e" opacity="1.00" d=" M 12.91 2.32 C 16.96 2.00 20.82 -0.45 24.93 0.45 C 27.46 1.08 27.75 3.89 28.39 5.96 C 30.44 6.68 33.56 5.93 34.65 8.27 C 35.71 10.88 33.23 12.99 31.54 14.60 C 28.79 16.90 26.40 19.83 23.01 21.22 C 19.89 22.49 17.18 19.21 14.04 19.90 C 11.28 20.21 8.24 20.83 5.72 19.25 C 1.36 16.98 0.39 11.43 0.46 6.96 C 0.29 4.76 1.83 2.55 4.10 2.36 C 7.04 2.22 9.98 2.83 12.91 2.32 Z" />
</g>
</svg>
