<?xml version="1.0" encoding="UTF-8" ?>
<!DOCTYPE svg PUBLIC "-//W3C//DTD SVG 1.1//EN" "http://www.w3.org/Graphics/SVG/1.1/DTD/svg11.dtd">
<svg width="70px" height="65px" viewBox="0 0 70 65" version="1.1" xmlns="http://www.w3.org/2000/svg">
<g id="#f8af40ff">
<path fill="#f8af40" opacity="1.00" d=" M 54.36 0.00 L 55.68 0.00 C 55.07 1.58 58.00 1.13 58.42 2.54 C 63.08 7.61 60.06 15.26 57.36 20.60 C 53.30 23.29 48.19 24.17 44.36 27.34 C 32.71 36.14 19.66 42.77 7.07 50.10 C 5.95 46.94 2.60 45.53 0.00 43.77 L 0.00 43.68 C 10.45 37.73 20.75 31.51 30.61 24.62 C 37.15 19.99 43.83 15.02 47.98 8.00 C 49.51 6.15 51.09 4.33 52.75 2.58 C 53.80 2.11 54.34 1.25 54.36 0.00 Z" />
</g>
</svg>
