<?xml version="1.0" encoding="UTF-8" ?>
<!DOCTYPE svg PUBLIC "-//W3C//DTD SVG 1.1//EN" "http://www.w3.org/Graphics/SVG/1.1/DTD/svg11.dtd">
<svg width="31px" height="41px" viewBox="0 0 31 41" version="1.1" xmlns="http://www.w3.org/2000/svg">
<g id="#00c3aeff">
<path fill="#00c3ae" opacity="1.00" d=" M 15.80 0.89 C 18.66 4.66 22.36 8.00 23.64 12.73 C 23.77 11.16 23.77 9.59 23.74 8.02 L 24.86 7.99 C 24.83 9.56 24.79 11.13 24.74 12.70 C 26.17 11.80 27.65 10.99 29.26 10.47 C 28.67 12.32 26.72 12.81 25.15 13.52 C 26.17 15.77 27.13 18.22 26.66 20.74 C 25.14 23.66 21.25 22.28 18.86 23.90 C 12.02 27.70 7.69 34.51 3.31 40.76 C 1.46 35.05 5.07 29.59 8.05 25.00 C 11.25 19.73 16.33 15.31 17.35 8.97 C 17.98 6.17 16.80 3.43 15.80 0.89 Z" />
</g>
</svg>
