<?xml version="1.0" encoding="UTF-8" ?>
<!DOCTYPE svg PUBLIC "-//W3C//DTD SVG 1.1//EN" "http://www.w3.org/Graphics/SVG/1.1/DTD/svg11.dtd">
<svg width="5px" height="8px" viewBox="0 0 5 8" version="1.1" xmlns="http://www.w3.org/2000/svg">
<g id="#5c3d5b95">
<path fill="#5c3d5b" opacity="0.58" d=" M 0.00 0.00 L 5.00 0.00 L 5.00 8.00 L 0.00 8.00 L 0.00 0.00 M 0.61 0.70 C 0.61 2.80 0.60 4.89 0.60 6.99 C 1.42 6.99 3.07 7.00 3.89 7.00 C 3.93 4.84 3.95 2.69 3.97 0.53 C 3.13 0.57 1.45 0.66 0.61 0.70 Z" />
</g>
<g id="#9f6a9dff">
<path fill="#9f6a9d" opacity="1.00" d=" M 0.61 0.70 C 1.45 0.66 3.13 0.57 3.97 0.53 C 3.95 2.69 3.93 4.84 3.89 7.00 C 3.07 7.00 1.42 6.99 0.60 6.99 C 0.60 4.89 0.61 2.80 0.61 0.70 Z" />
</g>
</svg>
