<?xml version="1.0" encoding="UTF-8" ?>
<!DOCTYPE svg PUBLIC "-//W3C//DTD SVG 1.1//EN" "http://www.w3.org/Graphics/SVG/1.1/DTD/svg11.dtd">
<svg width="48px" height="79px" viewBox="0 0 48 79" version="1.1" xmlns="http://www.w3.org/2000/svg">
<g id="#00ccb6ff">
<path fill="#00ccb6" opacity="1.00" d=" M 28.67 0.00 L 29.15 0.00 C 35.08 14.21 41.06 28.42 45.98 43.01 C 47.54 47.96 48.52 53.65 46.27 58.54 C 44.69 62.10 40.47 62.65 37.27 64.05 C 29.09 67.01 21.20 70.87 12.73 72.96 C 9.38 74.15 7.14 77.20 3.92 78.60 C 0.90 79.08 0.50 75.50 0.00 73.38 L 0.00 64.19 C 6.82 59.83 13.68 55.54 20.55 51.26 C 23.14 51.35 25.83 50.93 27.59 48.82 C 24.36 43.53 20.69 38.50 17.69 33.08 C 15.82 27.10 14.81 20.87 13.27 14.79 C 18.45 9.91 23.56 4.95 28.67 0.00 Z" />
</g>
</svg>
