<?xml version="1.0" encoding="UTF-8" ?>
<!DOCTYPE svg PUBLIC "-//W3C//DTD SVG 1.1//EN" "http://www.w3.org/Graphics/SVG/1.1/DTD/svg11.dtd">
<svg width="44px" height="96px" viewBox="0 0 44 96" version="1.1" xmlns="http://www.w3.org/2000/svg">
<g id="#00c3aeff">
<path fill="#00c3ae" opacity="1.00" d=" M 15.81 5.24 C 16.84 -1.03 26.96 -1.24 28.19 5.02 C 29.15 10.94 24.57 15.99 22.03 20.99 C 19.52 16.00 15.25 11.15 15.81 5.24 Z" />
<path fill="#00c3ae" opacity="1.00" d=" M 27.52 20.35 C 28.83 16.37 34.26 14.82 37.51 17.40 C 40.57 19.60 40.88 24.53 38.09 27.08 C 34.61 30.33 30.14 32.22 25.95 34.38 C 26.13 29.69 26.16 24.89 27.52 20.35 Z" />
<path fill="#00c3ae" opacity="1.00" d=" M 11.62 26.52 C 13.82 22.70 20.26 22.73 22.42 26.59 C 24.81 30.69 25.88 35.38 27.15 39.91 C 22.55 38.69 17.72 37.87 13.55 35.47 C 10.53 33.72 9.68 29.36 11.62 26.52 Z" />
<path fill="#00c3ae" opacity="1.00" d=" M 31.40 48.31 C 34.36 45.55 40.07 46.42 41.57 50.36 C 43.44 53.96 40.93 58.79 36.95 59.40 C 32.36 60.14 27.68 59.71 23.07 59.45 C 25.63 55.60 27.99 51.50 31.40 48.31 Z" />
<path fill="#00c3ae" opacity="1.00" d=" M 3.80 55.74 C 5.15 51.97 10.72 50.59 13.57 53.45 C 16.75 56.59 19.11 60.44 21.44 64.22 C 16.99 64.53 12.50 64.76 8.06 64.28 C 4.26 63.86 2.12 59.02 3.80 55.74 Z" />
<path fill="#00c3ae" opacity="1.00" d=" M 24.46 73.46 C 27.13 71.57 31.27 72.15 33.20 74.86 C 35.53 77.65 34.73 82.69 31.25 84.13 C 26.88 85.83 22.12 86.01 17.51 86.60 C 19.43 82.05 21.16 77.23 24.46 73.46 Z" />
<path fill="#00c3ae" opacity="1.00" d=" M 2.20 83.20 C 4.60 79.88 10.08 80.08 12.44 83.35 C 15.23 87.06 16.87 91.46 18.72 95.68 C 14.08 95.17 9.30 94.89 4.88 93.23 C 0.95 91.87 -0.52 86.34 2.20 83.20 Z" />
</g>
</svg>
