<?xml version="1.0" encoding="UTF-8" ?>
<!DOCTYPE svg PUBLIC "-//W3C//DTD SVG 1.1//EN" "http://www.w3.org/Graphics/SVG/1.1/DTD/svg11.dtd">
<svg width="57pt" height="34pt" viewBox="0 0 57 34" version="1.1" xmlns="http://www.w3.org/2000/svg">
<g id="#9f6a9dff">
<path fill="#9f6a9d" opacity="1.00" d=" M 41.40 4.56 C 43.31 3.66 45.65 4.52 46.79 6.24 C 49.69 10.18 50.46 15.31 50.22 20.09 C 49.94 23.56 48.77 27.77 45.18 29.14 C 42.86 30.23 40.38 29.26 38.01 28.95 C 34.85 28.51 31.52 28.47 28.50 29.64 C 22.30 32.02 15.40 32.30 8.95 30.79 C 4.44 30.44 3.01 25.49 0.22 22.71 C 4.86 19.77 7.14 14.54 9.85 9.99 C 11.34 11.56 12.94 13.03 14.51 14.52 C 19.95 13.32 25.44 12.34 30.92 11.31 C 35.25 10.63 38.06 7.00 41.40 4.56 Z" />
</g>
</svg>
