<?xml version="1.0" encoding="UTF-8" ?>
<!DOCTYPE svg PUBLIC "-//W3C//DTD SVG 1.1//EN" "http://www.w3.org/Graphics/SVG/1.1/DTD/svg11.dtd">
<svg width="108pt" height="117pt" viewBox="0 0 108 117" version="1.1" xmlns="http://www.w3.org/2000/svg">
<g id="#965664ff">
<path fill="#965664" opacity="1.00" d=" M 45.50 25.46 C 49.02 22.52 53.18 19.39 58.08 20.30 C 65.11 20.92 70.19 28.55 68.35 35.29 C 67.82 38.15 65.87 40.34 63.90 42.33 C 64.61 45.16 65.16 48.52 67.77 50.27 C 71.84 51.84 76.59 52.10 79.98 55.11 C 81.34 59.63 78.27 64.07 76.81 68.25 C 72.50 68.11 68.17 68.54 63.89 68.10 C 59.90 66.91 56.61 64.15 53.66 61.31 C 52.43 61.24 51.21 61.07 50.00 60.81 C 48.48 61.21 46.92 61.28 45.36 61.25 C 45.15 53.16 45.86 45.02 44.99 36.97 C 43.85 33.16 44.53 29.22 45.50 25.46 Z" />
</g>
</svg>
