<?xml version="1.0" encoding="UTF-8" ?>
<!DOCTYPE svg PUBLIC "-//W3C//DTD SVG 1.1//EN" "http://www.w3.org/Graphics/SVG/1.1/DTD/svg11.dtd">
<svg width="34px" height="47px" viewBox="0 0 34 47" version="1.1" xmlns="http://www.w3.org/2000/svg">
<g id="#e18495ff">
<path fill="#e18495" opacity="1.00" d=" M 24.23 0.00 L 24.23 0.00 C 24.67 1.60 26.66 1.29 27.72 2.23 C 31.07 4.20 33.29 8.12 32.79 12.05 C 32.22 17.46 32.99 23.67 29.05 28.03 C 28.09 29.76 25.73 30.27 24.96 32.00 C 25.67 34.74 28.34 36.39 29.77 38.71 C 27.17 41.15 24.62 43.67 21.86 45.93 C 16.30 45.60 10.43 46.02 5.24 43.69 C 5.11 43.29 4.84 42.50 4.70 42.10 C 8.10 39.31 9.78 34.83 9.51 30.49 C 5.59 27.74 4.24 23.08 3.23 18.68 C -0.17 13.47 1.37 5.93 6.50 2.43 C 11.64 -1.49 18.51 1.64 24.23 0.00 Z" />
</g>
</svg>
