<?xml version="1.0" encoding="UTF-8" ?>
<!DOCTYPE svg PUBLIC "-//W3C//DTD SVG 1.1//EN" "http://www.w3.org/Graphics/SVG/1.1/DTD/svg11.dtd">
<svg width="44px" height="96px" viewBox="0 0 44 96" version="1.1" xmlns="http://www.w3.org/2000/svg">
<g id="#00c3aeff">
<path fill="#00c3ae" opacity="1.00" d=" M 15.71 7.01 C 15.22 3.07 19.21 -0.32 23.01 0.41 C 26.94 0.78 29.51 5.39 28.12 8.98 C 26.77 13.29 24.29 17.11 22.03 20.98 C 19.67 16.48 16.28 12.19 15.71 7.01 Z" />
<path fill="#00c3ae" opacity="1.00" d=" M 27.51 20.39 C 28.80 16.38 34.24 14.82 37.50 17.39 C 40.59 19.60 40.88 24.58 38.05 27.12 C 34.57 30.34 30.12 32.23 25.95 34.38 C 26.12 29.70 26.17 24.91 27.51 20.39 Z" />
<path fill="#00c3ae" opacity="1.00" d=" M 11.59 26.57 C 13.75 22.72 20.21 22.71 22.40 26.55 C 24.80 30.66 25.88 35.37 27.15 39.91 C 22.53 38.69 17.68 37.86 13.50 35.44 C 10.53 33.69 9.69 29.39 11.59 26.57 Z" />
<path fill="#00c3ae" opacity="1.00" d=" M 31.45 48.26 C 34.43 45.56 40.08 46.45 41.57 50.36 C 43.44 53.97 40.92 58.80 36.93 59.41 C 32.35 60.14 27.68 59.72 23.07 59.45 C 25.65 55.58 28.01 51.45 31.45 48.26 Z" />
<path fill="#00c3ae" opacity="1.00" d=" M 3.79 55.74 C 5.15 51.98 10.70 50.59 13.56 53.43 C 16.73 56.58 19.10 60.43 21.44 64.22 C 16.97 64.55 12.46 64.75 8.00 64.27 C 4.24 63.81 2.13 59.01 3.79 55.74 Z" />
<path fill="#00c3ae" opacity="1.00" d=" M 24.43 73.49 C 27.08 71.57 31.23 72.14 33.17 74.82 C 35.54 77.62 34.74 82.73 31.20 84.15 C 26.84 85.83 22.10 86.01 17.52 86.60 C 19.43 82.06 21.16 77.25 24.43 73.49 Z" />
<path fill="#00c3ae" opacity="1.00" d=" M 2.20 83.20 C 4.48 80.06 9.58 80.02 12.07 82.92 C 15.13 86.67 16.78 91.30 18.72 95.68 C 14.05 95.17 9.26 94.88 4.83 93.20 C 0.93 91.82 -0.51 86.32 2.20 83.20 Z" />
</g>
</svg>
