<?xml version="1.0" encoding="UTF-8" ?>
<!DOCTYPE svg PUBLIC "-//W3C//DTD SVG 1.1//EN" "http://www.w3.org/Graphics/SVG/1.1/DTD/svg11.dtd">
<svg width="532px" height="51px" viewBox="0 0 532 51" version="1.1" xmlns="http://www.w3.org/2000/svg">
<g id="#a3a3a3ff">
<path fill="#a3a3a3" opacity="1.00" d=" M 490.31 6.27 C 496.66 3.17 504.22 1.33 511.17 3.34 C 512.74 7.04 515.20 10.24 517.55 13.48 C 519.90 17.15 523.39 21.18 522.25 25.85 C 518.32 29.40 512.26 27.08 507.44 27.71 C 498.16 27.27 488.78 26.58 479.78 24.17 C 475.74 23.34 474.30 19.02 473.59 15.48 C 473.29 13.54 473.13 11.59 472.93 9.64 C 478.80 9.19 484.99 9.12 490.31 6.27 Z" />
<path fill="#a3a3a3" opacity="1.00" d=" M 27.50 12.02 C 34.04 10.90 40.51 13.89 46.21 16.82 C 52.33 22.14 60.23 24.24 67.97 25.94 C 66.22 31.16 64.69 37.29 59.49 40.16 C 45.61 41.12 31.67 39.97 17.95 37.86 C 15.75 37.41 13.27 37.14 11.59 35.49 C 9.57 32.85 11.75 29.70 13.34 27.45 C 17.66 21.95 23.11 17.45 27.50 12.02 Z" />
</g>
<g id="#eeeeeeff">
<path fill="#eeeeee" opacity="1.00" d=" M 179.80 5.34 C 239.52 3.36 299.30 3.41 359.00 5.77 C 397.29 7.51 435.68 9.54 473.59 15.48 C 474.30 19.02 475.74 23.34 479.78 24.17 C 488.78 26.58 498.16 27.27 507.44 27.71 C 505.13 31.42 500.88 32.91 496.94 34.18 C 486.54 37.41 475.74 39.04 465.00 40.63 C 404.07 48.67 342.49 49.82 281.13 51.00 L 247.99 51.00 C 218.66 50.39 189.32 50.05 160.01 48.62 C 126.42 47.01 92.79 44.94 59.49 40.16 C 64.69 37.29 66.22 31.16 67.97 25.94 C 60.23 24.24 52.33 22.14 46.21 16.82 C 71.17 12.29 96.48 10.14 121.75 8.32 C 141.08 6.96 160.44 6.06 179.80 5.34 Z" />
</g>
</svg>
