<?xml version="1.0" encoding="UTF-8" ?>
<!DOCTYPE svg PUBLIC "-//W3C//DTD SVG 1.1//EN" "http://www.w3.org/Graphics/SVG/1.1/DTD/svg11.dtd">
<svg width="40px" height="62px" viewBox="0 0 40 62" version="1.1" xmlns="http://www.w3.org/2000/svg">
<g id="#0c263dff">
<path fill="#0c263d" opacity="1.00" d=" M 38.04 0.00 L 38.48 0.00 C 38.73 6.58 36.84 12.96 35.30 19.29 C 33.87 24.04 33.36 29.22 30.49 33.41 C 25.87 40.45 21.25 47.49 16.30 54.30 C 14.87 56.34 12.72 58.29 10.04 58.03 C 5.94 57.89 3.04 53.22 4.57 49.46 C 5.77 46.37 9.58 45.98 11.64 43.68 C 16.76 38.29 19.66 31.29 22.63 24.58 C 25.63 16.59 28.34 8.50 31.16 0.44 C 33.47 0.65 35.79 0.59 38.04 0.00 Z" />
</g>
</svg>
