<?xml version="1.0" encoding="UTF-8" ?>
<!DOCTYPE svg PUBLIC "-//W3C//DTD SVG 1.1//EN" "http://www.w3.org/Graphics/SVG/1.1/DTD/svg11.dtd">
<svg width="8px" height="5px" viewBox="0 0 8 5" version="1.1" xmlns="http://www.w3.org/2000/svg">
<g id="#90662595">
<path fill="#906625" opacity="0.58" d=" M 0.00 0.00 L 8.00 0.00 L 8.00 5.00 L 0.00 5.00 L 0.00 0.00 M 0.71 0.64 C 0.69 1.48 0.64 3.16 0.62 4.00 C 2.74 3.98 4.87 3.97 6.99 3.95 C 6.99 3.12 6.99 1.46 6.99 0.63 C 4.90 0.62 2.81 0.62 0.71 0.64 Z" />
</g>
<g id="#f8af40ff">
<path fill="#f8af40" opacity="1.00" d=" M 0.71 0.64 C 2.81 0.62 4.90 0.62 6.99 0.63 C 6.99 1.46 6.99 3.12 6.99 3.95 C 4.87 3.97 2.74 3.98 0.62 4.00 C 0.64 3.16 0.69 1.48 0.71 0.64 Z" />
</g>
</svg>
