<?xml version="1.0" encoding="UTF-8" ?>
<!DOCTYPE svg PUBLIC "-//W3C//DTD SVG 1.1//EN" "http://www.w3.org/Graphics/SVG/1.1/DTD/svg11.dtd">
<svg width="83px" height="106px" viewBox="0 0 83 106" version="1.1" xmlns="http://www.w3.org/2000/svg">
<g id="#df9d39ff">
<path fill="#df9d39" opacity="1.00" d=" M 39.72 0.05 C 40.63 0.42 41.55 0.78 42.47 1.15 C 42.45 2.36 42.33 3.73 43.61 4.37 C 50.30 9.38 57.43 13.80 63.90 19.10 C 62.76 19.60 61.64 20.12 60.55 20.71 C 60.00 19.26 58.63 18.42 57.46 17.53 C 51.16 13.15 44.92 8.70 38.66 4.26 C 39.02 2.86 39.37 1.46 39.72 0.05 Z" />
<path fill="#df9d39" opacity="1.00" d=" M 5.71 62.87 C 8.48 62.24 11.62 61.17 14.27 62.74 C 18.66 65.39 20.43 70.61 21.54 75.34 C 23.35 84.62 23.58 94.11 24.20 103.52 C 23.05 104.38 21.84 105.16 20.67 106.00 L 20.26 106.00 C 21.35 98.05 20.18 90.05 19.35 82.14 C 18.66 76.52 17.61 70.54 13.88 66.08 C 11.91 63.66 8.72 62.82 5.71 62.87 Z" />
</g>
<g id="#f8af40ff">
<path fill="#f8af40" opacity="1.00" d=" M 43.61 4.37 C 42.33 3.73 42.45 2.36 42.47 1.15 C 52.12 4.93 61.73 8.84 71.49 12.32 C 74.35 13.40 77.54 14.02 79.90 16.08 C 81.17 17.31 82.64 19.50 81.11 21.10 C 76.82 26.19 71.52 30.35 65.89 33.86 C 61.99 36.30 58.81 40.30 58.53 45.04 C 57.92 49.13 62.16 52.00 61.78 56.04 C 61.65 59.46 60.04 62.58 59.52 65.93 C 58.94 69.87 59.04 73.88 58.36 77.81 C 50.66 79.92 42.64 82.09 36.42 87.39 C 30.90 91.61 29.41 99.01 24.20 103.52 C 23.58 94.11 23.35 84.62 21.54 75.34 C 20.43 70.61 18.66 65.39 14.27 62.74 C 11.62 61.17 8.48 62.24 5.71 62.87 C 5.26 62.97 4.34 63.19 3.88 63.30 C 3.00 58.01 1.71 52.80 0.05 47.70 C 5.55 39.35 14.94 34.66 24.15 31.55 C 28.05 34.86 33.74 36.89 38.63 34.59 C 41.00 33.60 41.02 30.79 41.43 28.65 C 48.61 28.37 54.47 23.97 60.55 20.71 C 61.64 20.12 62.76 19.60 63.90 19.10 C 57.43 13.80 50.30 9.38 43.61 4.37 Z" />
</g>
</svg>
