<?xml version="1.0" encoding="UTF-8" ?>
<!DOCTYPE svg PUBLIC "-//W3C//DTD SVG 1.1//EN" "http://www.w3.org/Graphics/SVG/1.1/DTD/svg11.dtd">
<svg width="31px" height="41px" viewBox="0 0 31 41" version="1.1" xmlns="http://www.w3.org/2000/svg">
<g id="#00c3aeff">
<path fill="#00c3ae" opacity="1.00" d=" M 15.79 1.17 C 13.08 6.84 14.88 13.40 18.83 17.98 C 23.47 24.79 30.41 31.85 28.77 40.81 C 24.16 34.67 19.89 27.78 13.04 23.89 C 10.73 22.45 7.48 23.44 5.53 21.39 C 4.58 19.11 5.13 15.38 7.19 14.04 L 7.96 13.77 L 8.19 13.10 C 9.09 8.24 13.09 5.04 15.79 1.17 Z" />
</g>
<g id="#d7b231dc">
<path fill="#d7b231" opacity="0.86" d=" M 7.00 8.00 L 8.31 8.00 C 8.31 9.70 8.33 11.40 8.19 13.10 L 7.96 13.77 L 7.19 14.04 C 5.67 12.99 2.15 12.72 3.04 10.23 C 4.36 10.89 5.68 11.56 7.00 12.24 C 7.00 10.82 7.00 9.41 7.00 8.00 Z" />
</g>
</svg>
