<?xml version="1.0" encoding="UTF-8" ?>
<!DOCTYPE svg PUBLIC "-//W3C//DTD SVG 1.1//EN" "http://www.w3.org/Graphics/SVG/1.1/DTD/svg11.dtd">
<svg width="8px" height="5px" viewBox="0 0 8 5" version="1.1" xmlns="http://www.w3.org/2000/svg">
<g id="#91662696">
<path fill="#916626" opacity="0.59" d=" M 0.00 0.00 L 8.00 0.00 L 8.00 5.00 L 0.00 5.00 L 0.00 0.00 M 0.66 0.62 C 0.67 1.46 0.68 3.15 0.69 4.00 C 2.79 3.96 4.89 3.94 6.99 3.96 C 6.99 3.14 7.00 1.48 7.00 0.65 C 4.89 0.66 2.77 0.65 0.66 0.62 Z" />
</g>
<g id="#f8af40ff">
<path fill="#f8af40" opacity="1.00" d=" M 0.66 0.62 C 2.77 0.65 4.89 0.66 7.00 0.65 C 7.00 1.48 6.99 3.14 6.99 3.96 C 4.89 3.94 2.79 3.96 0.69 4.00 C 0.68 3.15 0.67 1.46 0.66 0.62 Z" />
</g>
</svg>
