<?xml version="1.0" encoding="UTF-8" ?>
<!DOCTYPE svg PUBLIC "-//W3C//DTD SVG 1.1//EN" "http://www.w3.org/Graphics/SVG/1.1/DTD/svg11.dtd">
<svg width="59px" height="73px" viewBox="0 0 59 73" version="1.1" xmlns="http://www.w3.org/2000/svg">
<g id="#0c263dff">
<path fill="#0c263d" opacity="1.00" d=" M 8.19 0.00 L 8.62 0.00 C 13.23 8.74 18.27 17.26 23.17 25.85 C 28.16 33.05 34.57 39.13 40.71 45.33 C 43.59 48.43 47.70 49.67 51.23 51.77 C 53.33 54.03 52.23 57.52 51.01 59.96 C 49.16 63.22 46.07 66.73 41.98 66.52 C 39.71 66.43 38.63 64.15 37.48 62.53 C 33.30 55.54 28.46 48.97 23.56 42.47 C 20.86 38.87 17.36 35.89 15.15 31.92 C 12.23 26.82 9.34 21.71 6.39 16.63 C 4.39 13.23 2.81 9.52 0.00 6.67 L 0.00 5.23 C 3.51 5.05 6.12 2.60 8.19 0.00 Z" />
</g>
</svg>
