<?xml version="1.0" encoding="UTF-8" ?>
<!DOCTYPE svg PUBLIC "-//W3C//DTD SVG 1.1//EN" "http://www.w3.org/Graphics/SVG/1.1/DTD/svg11.dtd">
<svg width="60px" height="77px" viewBox="0 0 60 77" version="1.1" xmlns="http://www.w3.org/2000/svg">
<g id="#9f6a9dff">
<path fill="#9f6a9d" opacity="1.00" d=" M 38.91 5.01 C 45.93 4.10 53.03 3.35 59.51 0.24 C 59.44 2.47 59.47 4.70 59.49 6.93 C 51.28 11.79 49.03 22.16 50.17 31.01 C 51.66 41.34 53.33 51.65 54.37 62.05 C 54.99 66.64 52.75 70.93 52.29 75.43 C 47.17 75.52 42.05 75.71 36.93 75.97 C 36.16 72.50 35.12 68.87 36.13 65.34 C 38.25 58.41 39.19 51.20 40.03 44.03 C 39.98 38.53 35.83 33.69 36.69 28.08 C 37.47 20.39 37.98 12.68 38.91 5.01 Z" />
</g>
</svg>
