<?xml version="1.0" encoding="UTF-8" ?>
<!DOCTYPE svg PUBLIC "-//W3C//DTD SVG 1.1//EN" "http://www.w3.org/Graphics/SVG/1.1/DTD/svg11.dtd">
<svg width="72px" height="79px" viewBox="0 0 72 79" version="1.1" xmlns="http://www.w3.org/2000/svg">
<g id="#00c3aeff">
<path fill="#00c3ae" opacity="1.00" d=" M 32.35 11.87 C 33.30 7.19 36.16 3.08 39.90 0.17 C 49.39 0.55 58.87 1.14 68.35 1.64 C 69.12 3.70 68.82 6.02 69.24 8.16 C 69.69 11.76 71.19 15.40 69.94 19.01 C 68.81 24.07 63.99 26.71 60.58 30.11 C 61.22 41.47 61.77 52.83 62.90 64.15 C 63.28 67.94 64.56 72.45 61.57 75.57 C 57.91 79.06 52.47 77.36 47.95 77.74 C 39.01 78.29 30.07 77.72 21.14 77.66 C 16.39 77.09 11.50 76.94 7.02 78.90 C 2.06 75.09 3.58 68.09 5.96 63.24 C 19.14 63.39 32.17 61.11 45.33 60.73 C 42.80 50.27 38.82 40.24 34.72 30.31 C 32.40 24.52 30.91 18.07 32.35 11.87 Z" />
</g>
</svg>
