<?xml version="1.0" encoding="UTF-8" ?>
<!DOCTYPE svg PUBLIC "-//W3C//DTD SVG 1.1//EN" "http://www.w3.org/Graphics/SVG/1.1/DTD/svg11.dtd">
<svg width="41px" height="20px" viewBox="0 0 41 20" version="1.1" xmlns="http://www.w3.org/2000/svg">
<g id="#7679b4ff">
<path fill="#7679b4" opacity="1.00" d=" M 3.74 1.85 C 13.09 1.20 22.46 0.45 31.83 0.36 C 35.22 0.60 40.28 1.79 40.33 6.04 C 39.99 7.79 38.01 8.00 36.68 8.58 C 36.70 7.94 36.74 6.65 36.76 6.01 C 30.20 6.03 23.64 6.42 17.08 6.53 C 14.65 6.61 12.09 6.56 9.92 7.83 C 6.79 7.33 2.93 5.78 3.74 1.85 Z" />
</g>
<g id="#e5aab2ff">
<path fill="#e5aab2" opacity="1.00" d=" M 17.08 6.53 C 23.64 6.42 30.20 6.03 36.76 6.01 C 36.74 6.65 36.70 7.94 36.68 8.58 C 36.56 8.62 36.32 8.70 36.20 8.74 C 28.93 9.14 21.58 8.20 14.39 9.61 C 12.98 8.84 11.46 8.27 9.92 7.83 C 12.09 6.56 14.65 6.61 17.08 6.53 Z" />
</g>
<g id="#ffbdc6ff">
<path fill="#ffbdc6" opacity="1.00" d=" M 14.39 9.61 C 21.58 8.20 28.93 9.14 36.20 8.74 C 35.84 10.83 35.48 12.91 35.11 14.99 C 32.84 16.53 30.50 18.01 28.59 20.00 L 27.47 20.00 C 23.88 15.71 18.85 12.91 14.39 9.61 Z" />
</g>
</svg>
