<?xml version="1.0" encoding="UTF-8" ?>
<!DOCTYPE svg PUBLIC "-//W3C//DTD SVG 1.1//EN" "http://www.w3.org/Graphics/SVG/1.1/DTD/svg11.dtd">
<svg width="70px" height="65px" viewBox="0 0 70 65" version="1.1" xmlns="http://www.w3.org/2000/svg">
<g id="#f8af40ff">
<path fill="#f8af40" opacity="1.00" d=" M 54.34 0.00 L 55.72 0.00 C 57.53 1.91 60.07 3.54 60.55 6.34 C 61.41 11.23 59.79 16.25 57.33 20.45 C 55.69 21.99 53.40 22.56 51.41 23.51 C 45.28 25.86 40.42 30.40 35.00 33.93 C 25.90 39.46 16.61 44.65 7.39 49.94 C 5.43 47.34 2.84 45.32 0.00 43.76 L 0.00 43.34 C 7.57 39.80 14.50 35.03 21.61 30.66 C 31.01 24.29 41.32 18.31 47.66 8.56 C 49.62 5.74 52.28 3.48 54.26 0.69 L 54.34 0.00 Z" />
</g>
</svg>
