<?xml version="1.0" standalone="no"?>
<!DOCTYPE svg PUBLIC "-//W3C//DTD SVG 1.1//EN" "http://www.w3.org/Graphics/SVG/1.1/DTD/svg11.dtd">
<svg xmlns="http://www.w3.org/2000/svg">
<metadata>Copyright (C) 2023 by original authors @ fontello.com</metadata>
<defs>
<font id="gooddollar" horiz-adv-x="1000" >
<font-face font-family="gooddollar" font-weight="400" font-stretch="normal" units-per-em="1000" ascent="850" descent="-150" />
<missing-glyph horiz-adv-x="1000" />
<glyph glyph-name="arrow-down" unicode="&#xe800;" d="M1274 630a72 72 0 0 1-101 0l-411-411-411 411a72 72 0 0 1-101 0 71 71 0 0 1 0-100l460-460a71 71 0 0 1 51-21c0 0 1 0 1 0s1 0 2 0a71 71 0 0 1 50 21l460 459a71 71 0 0 1 0 101m0 0a72 72 0 0 1-101 0l-411-411-411 411a72 72 0 0 1-101 0 71 71 0 0 1 0-100l460-460a71 71 0 0 1 51-21c0 0 1 0 1 0s1 0 2 0a71 71 0 0 1 50 21l460 459a71 71 0 0 1 0 101" horiz-adv-x="1524" />

<glyph glyph-name="arrow-up" unicode="&#xe801;" d="M1341 33a81 81 0 0 0-114 0l-465 465-465-465a81 81 0 0 0-114 0 81 81 0 0 0 0 114l520 520a80 80 0 0 0 57 24c1 0 1 0 2 0s1 0 2 0a80 80 0 0 0 57-24l520-520a81 81 0 0 0 0-114" horiz-adv-x="1524" />

<glyph glyph-name="arrow-back" unicode="&#xe802;" d="M1164 349a53 53 0 0 1-53 53h-828l253 253a53 53 0 0 1 0 75 53 53 0 0 1-75 0l-341-341a52 52 0 0 1-15-39h0c0 0 0-1 0-1a51 51 0 0 1 3-15 46 46 0 0 1 1-5 52 52 0 0 1 11-17s0 0 0-1l341-341a53 53 0 0 1 38-16 53 53 0 0 1 37 16 53 53 0 0 1 0 75l-251 251h826a53 53 0 0 1 53 53" horiz-adv-x="1268" />

<glyph glyph-name="lock" unicode="&#xe803;" d="M630 494a275 275 0 0 1-274 275 275 275 0 0 1-275-275 41 41 0 0 1 42-41 41 41 0 0 1 41 41 192 192 0 0 0 192 192 192 192 0 0 0 191-192 41 41 0 0 1 42-41 41 41 0 0 1 41 41m-549-288a275 275 0 0 1 275-275 275 275 0 0 1 274 275 275 275 0 0 1-274 274 275 275 0 0 1-275-274m83 0a192 192 0 0 0 192 191 192 192 0 0 0 191-191 192 192 0 0 0-191-192 192 192 0 0 0-192 192m81 0a111 111 0 0 1 111-111 111 111 0 0 1 111 111 111 111 0 0 1-111 111 111 111 0 0 1-111-111m82 0a29 29 0 0 0 28 28 29 29 0 0 0 29-28 29 29 0 0 0-29-29 29 29 0 0 0-28 29" horiz-adv-x="711" />

<glyph glyph-name="arrow-up-circle" unicode="&#xe804;" d="M500 810a378 378 0 1 0-378-379 378 378 0 0 0 378 379z m0-7a372 372 0 1 0-372-372 372 372 0 0 0 372 372m0 7a378 378 0 1 1 378-379 378 378 0 0 1-378 379z m0-7a372 372 0 1 0-372-372 372 372 0 0 0 372 372m0 7a378 378 0 1 1 378-379 378 378 0 0 1-378 379z m106-342a14 14 0 0 0-19 0l-79 79-79-79a14 14 0 0 0-20 0 14 14 0 0 0 0 19l89 89a14 14 0 0 0 9 4c1 0 1 0 1 0s0 0 0 0a14 14 0 0 0 10-4l88-89a14 14 0 0 0 0-19" horiz-adv-x="1000" />

<glyph glyph-name="exchange" unicode="&#xe805;" d="M1355 405v302a49 49 0 0 1-4 18 48 48 0 0 1-44 30h-302a48 48 0 0 1-48-48 48 48 0 0 1 48-48h186l-511-511a48 48 0 0 1 0-68 48 48 0 0 1 34-14 48 48 0 0 1 34 14l511 511v-186a48 48 0 0 1 48-48 48 48 0 0 1 48 48m-585 147a48 48 0 0 1 0 68 48 48 0 0 1-68 0l-511-511v186a48 48 0 0 1-48 48 48 48 0 0 1-48-48v-302a48 48 0 0 1 4-18 48 48 0 0 1 26-26 48 48 0 0 1 18-4h302a48 48 0 0 1 48 48 48 48 0 0 1-48 48h-186z" horiz-adv-x="1450" />

<glyph glyph-name="cake" unicode="&#xe806;" d="M842-41v395a37 37 0 0 1-37 37h-312v159a38 38 0 0 1-36 39 38 38 0 0 1-37-39v-159h-311a37 37 0 0 1-37-37v-395a37 37 0 0 1 37-37h696a37 37 0 0 1 37 37m-73 217c0-1-1-1-1-1a42 42 0 0 0-37-22 42 42 0 0 0-36 22c-1 1-2 1-2 2a116 116 0 0 1-99 56 115 115 0 0 1-99-57c-1 0-1 0-1-1a42 42 0 0 0-37-22 42 42 0 0 0-36 21s0 0 0 0a116 116 0 0 1-101 59 115 115 0 0 1-97-54 37 37 0 0 1-4-4 42 42 0 0 0-37-22 42 42 0 0 0-36 22c0 0-1 0-1 0v143h624z m0-181h-624v91a115 115 0 0 1 37-6 115 115 0 0 1 95 50 36 36 0 0 1 6 8 42 42 0 0 0 37 21 42 42 0 0 0 36-20s0 0 0 0a116 116 0 0 1 101-59 115 115 0 0 1 98 55 35 35 0 0 1 2 3 42 42 0 0 0 37 21 42 42 0 0 0 37-21c0-1 1-2 1-2a115 115 0 0 1 99-56 115 115 0 0 1 38 6z m-227 697a86 86 0 0 1-85 86 86 86 0 0 1-86-86 86 86 0 0 1 86-85 86 86 0 0 1 85 85m-71 0a14 14 0 0 0-14-14 14 14 0 0 0-15 14 14 14 0 0 0 15 15 14 14 0 0 0 14-15" horiz-adv-x="914" />

<glyph glyph-name="camera" unicode="&#xe807;" d="M1098-11v631a47 47 0 0 1-47 47h-335a126 126 0 0 1-121 91 126 126 0 0 1-120-91h-336a47 47 0 0 1-47-47v-631a47 47 0 0 1 47-47h912a47 47 0 0 1 47 47m-93 46h-820v538h820z m-628 269a218 218 0 0 1 218-218 218 218 0 0 1 218 218 218 218 0 0 1-218 218 218 218 0 0 1-218-218m93 0a125 125 0 0 0 125 125 125 125 0 0 0 125-125 125 125 0 0 0-125-124 125 125 0 0 0-125 124" horiz-adv-x="1190" />

<glyph glyph-name="ios-share" unicode="&#xe808;" d="M699-125h-673v673h247v-35h-212v-602h602v602h-212v35h248v-673z m-319 337h-36v535l-116-116-26 25 159 158 160-158-25-25-116 114v-533z" horiz-adv-x="724" />

<glyph glyph-name="profile" unicode="&#xe809;" d="M744-94a372 372 0 0 1-372 372 372 372 0 0 1-372-372 56 56 0 0 1 56-56 56 56 0 0 1 56 56 260 260 0 0 0 260 260 260 260 0 0 0 260-260 56 56 0 0 1 56-56 56 56 0 0 1 56 56m-111 683a262 262 0 0 1-261 261 262 262 0 0 1-261-261 262 262 0 0 1 261-262 262 262 0 0 1 261 262m-111 0a150 150 0 0 0-150-150 150 150 0 0 0-150 150 150 150 0 0 0 150 149 150 150 0 0 0 149-149" horiz-adv-x="744" />

<glyph glyph-name="bonus-reward" unicode="&#xe80a;" d="M500-150l0 0c-276 0-500 224-500 500v0c0 277 224 500 500 500h0c277 0 500-223 500-500v0c0-276-223-500-500-500z m2388 285c-17-17-17-50 0-67 18-18 50-18 68 0 0 0 0 0 3 0-9 23-12 47-12 73l0 0c-9 3-15 6-23 6-15 3-27-3-36-12m-2497 439c-12-12-12-36 0-47l83-83c5-6 14-9 23-9l0 0c3 0 3 0 6 0h3 3c0 0 3 0 3 3h3c3 0 3 3 6 3l0 0 82 83c12 11 12 35 0 47s-35 11-47 0l-27-24v227c0 17-14 32-32 32l0 0c-18 0-32-15-32-32v-227l-24 24c-14 14-35 14-50 3z m138-553l0 0v106c68 8 130 47 168 105 41-29 100-26 138 12 42 41 42 109 0 150s-108 41-150 0h-367c-36 35-94 41-136 12-47-35-58-100-26-147 35-47 100-59 147-27 38-58 97-97 168-105v-103c0 0 0 0 0-3-59-15-100-65-103-127h59c0 38 32 68 70 71 41 0 74-30 74-71h58c0 59-41 112-100 127z m203 338l0 0c9 6 18 6 27 6 12 0 23-6 32-15 9-9 15-21 15-32s-6-24-15-33c-17-17-50-17-67 0 0 0-3 0-3 3 8 21 11 44 11 71z m-458-74c-18-17-50-17-68 0s-18 50 0 68l0 0c9 9 21 15 32 15 9 0 18-3 24-6l0 0c3-30 9-53 12-77 3 0 3 0 0 0z m53 50h347c-12-76-71-138-150-150-97-14-186 53-197 150z" horiz-adv-x="1000" />

<glyph glyph-name="paste" unicode="&#xe80b;" d="M530 53v508a26 26 0 0 1-26 26h-103a69 69 0 0 1 2 16 70 70 0 0 1-70 70 70 70 0 0 1-70-70 71 71 0 0 1 2-16h-104a26 26 0 0 1-26-26v-508a26 26 0 0 1 26-26h343a26 26 0 0 1 26 26m-179 550a18 18 0 0 0-18-18 18 18 0 0 0-18 18 18 18 0 0 0 18 18 18 18 0 0 0 18-18m48-68a68 68 0 0 0-66-55 68 68 0 0 0-67 55z m79-456h-291v456h27a120 120 0 0 1 119-108 120 120 0 0 1 118 108h27z" horiz-adv-x="665" />

<glyph glyph-name="close" unicode="&#xe80c;" d="M883 659a52 52 0 0 1 0 74 52 52 0 0 1-74 0l-309-310-309 310a52 52 0 0 1-74 0 52 52 0 0 1 0-74l310-309-310-309a52 52 0 0 1 0-74 52 52 0 0 1 37-15 52 52 0 0 1 37 15l309 310 309-310a52 52 0 0 1 37-15 52 52 0 0 1 37 15 52 52 0 0 1 0 74l-310 309z" horiz-adv-x="1000" />

<glyph glyph-name="convert" unicode="&#xe80d;" d="M847 557a40 40 0 0 1-40 39h-594l109 108a40 40 0 0 1 0 56 40 40 0 0 1-56 0l-176-176a2 2 0 0 1-1 0 39 39 0 0 1-8-12 40 40 0 0 1-3-15h0c0-1 0-1 0-1a39 39 0 0 1 12-29l175-175a39 39 0 0 1 28-12 39 39 0 0 1 28 12 40 40 0 0 1 0 55l-109 110h595a40 40 0 0 1 40 40m-769-412a40 40 0 0 1 40-40h595l-109-109a40 40 0 0 1 0-56 40 40 0 0 1 28-12 40 40 0 0 1 28 12l176 176a39 39 0 0 1 11 28 6 6 0 0 1 0 1v0a40 40 0 0 1-3 15 40 40 0 0 1-8 12 2 2 0 0 1-1 1l-176 176a40 40 0 0 1-56 0 40 40 0 0 1 0-56l109-108h-594a40 40 0 0 1-40-40" horiz-adv-x="925" />

<glyph glyph-name="backspace" unicode="&#xe80e;" d="M1207 27v645a44 44 0 0 1-44 44h-730a44 44 0 0 1-32-14l-290-324a44 44 0 0 1 0-59l290-321a44 44 0 0 1 32-15h730a44 44 0 0 1 44 44m-88 44h-666l-250 278 250 279h666z m-520 392l112-113-112-113a44 44 0 0 1 0-63 44 44 0 0 1 31-12 44 44 0 0 1 31 13l112 113 113-113a44 44 0 0 1 31-13 44 44 0 0 1 31 12 44 44 0 0 1 0 63l-113 113 113 113a44 44 0 0 1 0 62 44 44 0 0 1-62 0l-113-113-112 113a44 44 0 0 1-62 0 44 44 0 0 1 0-62" horiz-adv-x="1322" />

<glyph glyph-name="edit" unicode="&#xe80f;" d="M927 640a39 39 0 0 1-12 28l-93 93a39 39 0 0 1-56 0l-370-370a39 39 0 0 1-8-12l-82-178a39 39 0 0 1 8-44 39 39 0 0 1 27-11 39 39 0 0 1 17 4l176 84a39 39 0 0 1 11 8l370 370a39 39 0 0 1 12 28m-471-300l243 243 38-39-243-242-72-35z m376 300l-40-40-38 38 40 40z m-394-108a39 39 0 0 1-39 39 322 322 0 0 1-322-322 322 322 0 0 1 322-322 322 322 0 0 1 322 322 39 39 0 0 1-39 39 39 39 0 0 1-39-39 244 244 0 0 0-244-244 244 244 0 0 0-243 244 244 244 0 0 0 243 244 39 39 0 0 1 39 39" horiz-adv-x="1004" />

<glyph glyph-name="envelope" unicode="&#xe810;" d="M1109 65v570a42 42 0 0 1-42 42h-824a42 42 0 0 1-42-42v-570a42 42 0 0 1 42-42h824a42 42 0 0 1 42 42m-824 42v413a430 430 0 0 1 370-211 430 430 0 0 1 370 211v-413z m370 296a338 338 0 0 0-304 190h608a338 338 0 0 0-304-190" horiz-adv-x="1310" />

<glyph glyph-name="gear" unicode="&#xe811;" d="M500 767c-47 0-97-32-110-87-5-21-27-30-45-19-48 30-106 17-140-16-33-34-46-92-16-140l0 0c2-4 4-8 4-13 0-5 0-9-2-14-2-4-5-8-8-11-4-3-8-6-13-7-55-13-87-63-87-110 0-47 32-97 87-110 5-1 9-4 13-7 3-3 6-7 8-11 2-4 2-9 2-14 0-5-2-9-4-13-30-48-17-106 16-140 34-33 92-46 140-16l0 0c4 2 8 4 13 4 5 0 10 0 14-2l0 0c4-2 8-5 11-8 3-4 6-8 7-13 13-55 63-87 110-87 47 0 97 32 110 87v0c1 5 4 9 7 13 3 3 7 6 11 8 4 2 9 2 14 2 5 0 9-2 13-4 48-30 106-17 140 16 33 34 46 92 16 140l0 0c-2 4-4 8-4 13 0 5 0 10 2 14l0 0c2 4 5 8 9 11 3 3 7 6 12 7 55 13 87 63 87 110 0 47-32 97-87 110h0c-5 1-9 4-12 7-4 3-7 7-9 11v0c-2 5-2 9-2 14 0 5 2 9 4 13 30 48 17 106-16 140-34 33-92 46-140 16l0 0c-4-2-8-4-13-4-5 0-9 0-14 2-4 2-8 5-11 9-3 3-6 7-7 12-13 55-63 87-110 87z m0-84c14 0 25-4 29-23 5-17 13-33 24-47 12-13 27-24 43-31 17-7 35-9 52-8 18 1 35 7 51 16 16 10 27 5 37-4 9-10 14-21 4-37-9-16-15-33-16-51-1-17 1-35 8-52 7-16 18-31 31-43 14-11 30-19 47-24 19-4 23-15 23-29 0-14-4-25-23-29-17-4-33-13-47-24-13-12-24-27-31-43-7-17-9-34-8-52 1-18 7-35 16-51 10-16 5-27-4-37-10-9-21-14-37-4-16 9-33 15-51 16-17 1-35-1-52-8-16-7-31-18-43-31-11-14-19-30-24-47-4-19-15-23-29-23-14 0-25 4-29 23-4 17-13 33-24 47-12 13-27 24-43 31-17 7-34 10-52 8-18-1-35-7-51-16-16-10-27-5-37 4-9 10-14 21-4 37 9 16 15 33 16 51 1 17-1 35-8 52-7 16-18 31-31 43-14 11-30 20-47 24-19 4-23 15-23 29 0 14 4 25 23 29 17 5 33 13 47 24 13 12 24 27 31 43 7 17 10 35 8 52-1 18-7 35-16 51v0c-10 16-5 27 4 37 10 9 21 14 37 4l0 0c65-39 152-3 170 70 4 19 15 23 29 23z m0-166c-92 0-167-75-167-167 0-92 75-167 167-167 92 0 167 75 167 167 0 92-75 167-167 167z m0-84c47 0 83-36 83-83 0-46-36-83-83-83-46 0-83 37-83 83 0 47 37 83 83 83z" horiz-adv-x="1000" />

<glyph glyph-name="bridge" unicode="&#xe812;" d="M483 761c-227 0-411-184-411-411 0-227 184-411 411-411 227 0 411 184 411 411 0 227-184 411-411 411z m-477-411c0 264 214 478 477 478 264 0 478-214 478-478 0-264-214-478-478-478-263 0-477 214-477 478z m433 244c12-14 11-35-3-47l-86-75h356c18 0 33-15 33-33 0-18-15-33-33-33h-445c-14 0-26 8-31 21-5 13-1 28 9 37l153 133c14 12 35 11 47-3z m298-321c-5 13-17 21-31 21l-445 0c-18 0-33-14-33-33 0-18 15-33 33-33l356 0-86-75c-14-12-15-33-3-47 12-14 33-15 47-3l153 133c10 9 14 24 9 37z" horiz-adv-x="967" />

<glyph glyph-name="claim-circle" unicode="&#xe813;" d="M1000 350a501 501 0 0 1-500 500 501 501 0 0 1-500-500 501 501 0 0 1 500-500 501 501 0 0 1 500 500m-844-272h1a200 200 0 0 1 143 60 204 204 0 0 1 29 37 201 201 0 0 1 171-97 200 200 0 0 1 143 60 204 204 0 0 1 29 37 201 201 0 0 1 172-97 438 438 0 0 0-344-166 438 438 0 0 0-344 166m782 272a436 436 0 0 0-50-202 138 138 0 0 0-44-8 140 140 0 0 0-140 140 31 31 0 0 1-31 31c0 0-1 0-1 0s-1 0-2 0h0a31 31 0 0 1-30-32 136 136 0 0 0-41-97 139 139 0 0 0-99-42 140 140 0 0 0-140 140 31 31 0 0 1-30 30c-1 0-1 0-1 0s-1 0-1 0h-1a31 31 0 0 1-30-31 136 136 0 0 0-41-97 139 139 0 0 0-99-42 138 138 0 0 0-46 8 436 436 0 0 0-49 202 439 439 0 0 0 438 438 439 439 0 0 0 438-438m-31 56a31 31 0 0 1-43 0l-22-22v207a31 31 0 0 1-31 31 31 31 0 0 1-31-31v-208l-23 23a31 31 0 0 1-44 0 31 31 0 0 1 0-43l75-75a31 31 0 0 1 22-9h0a31 31 0 0 1 7 0c0 1 1 1 2 1a30 30 0 0 1 3 1c1 1 2 1 3 1s2 1 3 2a32 32 0 0 1 3 3c1 0 1 1 1 1l75 75a31 31 0 0 1 0 43m-310-43a31 31 0 0 1 0 43 31 31 0 0 1-44 0l-22-22v207a31 31 0 0 1-31 31 31 31 0 0 1-31-31v-208l-22 23a31 31 0 0 1-44 0 31 31 0 0 1 0-43l75-75a31 31 0 0 1 22-9h0a31 31 0 0 1 6 0c1 1 2 1 3 1a27 27 0 0 1 3 1 28 28 0 0 1 3 2c1 0 2 0 2 1a31 31 0 0 1 5 4l0 0z m-310 0a31 31 0 0 1 0 43 31 31 0 0 1-43 0l-22-22v207a31 31 0 0 1-31 31 31 31 0 0 1-31-31v-208l-23 23a31 31 0 0 1-43 0 31 31 0 0 1 0-43l74-75a31 31 0 0 1 22-9h1a30 30 0 0 1 6 0c1 1 2 1 2 1a29 29 0 0 1 4 1c1 1 1 1 2 2s2 0 3 1a32 32 0 0 1 4 3c0 0 0 1 1 1z" horiz-adv-x="1000" />

<glyph glyph-name="donate-filled" unicode="&#xe814;" d="M1000 350a501 501 0 0 1-500 500 501 501 0 0 1-500-500 501 501 0 0 1 500-500 501 501 0 0 1 500 500m-398 257a32 32 0 0 0-23-9 32 32 0 0 0-23 9l-24 24v-218a32 32 0 0 0-32-33 32 32 0 0 0-32 33v218l-24-24a32 32 0 0 0-23-9 32 32 0 0 0-23 9 33 33 0 0 0 0 46l79 79c0 0 0 0 1 0a32 32 0 0 0 4 4c1 0 1 1 2 1a31 31 0 0 0 4 2c0 0 1 0 2 1a33 33 0 0 0 4 1c0 0 1 0 2 0a31 31 0 0 0 4 0h0a32 32 0 0 0 23-9l79-79a32 32 0 0 0 0-46m127-376a131 131 0 0 0-43-97l-1 0-162-162a33 33 0 0 0-23-10h0a32 32 0 0 0-23 10l-162 162a131 131 0 0 0-44 98 131 131 0 0 0 131 131 131 131 0 0 0 98-45 131 131 0 0 0 98 45 131 131 0 0 0 131-131m-87-50a66 66 0 0 1 22 50 66 66 0 0 1-66 65 66 66 0 0 1-65-65 32 32 0 0 0-33-32 33 33 0 0 0-32 32 66 66 0 0 1-66 65 66 66 0 0 1-66-65 66 66 0 0 1 22-50l2-1 1-1 139-139 140 140c1 0 1 1 2 1" horiz-adv-x="1000" />

<glyph glyph-name="clock-filled" unicode="&#xe815;" d="M1000 350a501 501 0 0 1-500 500 501 501 0 0 1-500-500 501 501 0 0 1 500-500 501 501 0 0 1 500 500m-270-214a33 33 0 0 0-24-10 33 33 0 0 0-23 8l-142 130a95 95 0 0 0-41-9 96 96 0 0 0-96 95 95 95 0 0 0 63 89v274a34 34 0 0 0 33 33 34 34 0 0 0 34-33v-274a95 95 0 0 0 62-89 94 94 0 0 0-8-38l140-128a34 34 0 0 0 2-48m-201 214a28 28 0 0 1-29 28 28 28 0 0 1-29-28 28 28 0 0 1 29-28 28 28 0 0 1 29 28" horiz-adv-x="1000" />

<glyph glyph-name="donate-circle" unicode="&#xe816;" d="M1000 350a501 501 0 0 1-500 500 501 501 0 0 1-500-500 501 501 0 0 1 500-500 501 501 0 0 1 500 500m-62 0a439 439 0 0 0-438-438 439 439 0 0 0-438 438 439 439 0 0 0 438 438 439 439 0 0 0 438-438m-220-113a124 124 0 0 1-125 125 124 124 0 0 1-93-43 124 124 0 0 1-93 43 124 124 0 0 1-124-124 124 124 0 0 1 41-93l154-154a31 31 0 0 1 22-9h0a31 31 0 0 1 22 9l154 154 0 0a124 124 0 0 1 41 93m-61 0a62 62 0 0 0-22-47c0-1-1-1-1-2l-133-133-132 132-1 1-2 2a63 63 0 0 0-21 47 63 63 0 0 0 63 62 63 63 0 0 0 62-62 31 31 0 0 1 31-31 31 31 0 0 1 31 31 63 63 0 0 0 62 62 63 63 0 0 0 63-62m-59 356a31 31 0 0 1 0 44l-75 75a31 31 0 0 1-22 9l0 0a30 30 0 0 1-4-1c-1 0-1 0-2 0a32 32 0 0 1-4-1c-1 0-1 0-2-1a29 29 0 0 1-3-1c-1-1-2-1-2-2a31 31 0 0 1-4-3c-1 0-1 0-1 0l-75-75a31 31 0 0 1 0-44 31 31 0 0 1 22-9 31 31 0 0 1 22 9l22 22v-207a31 31 0 0 1 31-30 31 31 0 0 1 31 30v208l22-23a31 31 0 0 1 22-9 31 31 0 0 1 22 9" horiz-adv-x="1000" />

<glyph glyph-name="clock" unicode="&#xe817;" d="M1000 350a501 501 0 0 1-500 500 501 501 0 0 1-500-500 501 501 0 0 1 500-500 501 501 0 0 1 500 500m-62 0a439 439 0 0 0-438-438 439 439 0 0 0-438 438 439 439 0 0 0 438 438 439 439 0 0 0 438-438m-226-197a31 31 0 0 1-2 44l-129 118a86 86 0 0 1 7 35 87 87 0 0 1-57 82v252a31 31 0 0 1-31 31 31 31 0 0 1-31-31v-252a87 87 0 0 1-57-82 88 88 0 0 1 88-88 88 88 0 0 1 38 9l131-120a31 31 0 0 1 20-8 31 31 0 0 1 23 10m-186 197a26 26 0 0 0-26-26 26 26 0 0 0-26 26 26 26 0 0 0 26 26 26 26 0 0 0 26-26" horiz-adv-x="1000" />

<glyph glyph-name="receive-filled" unicode="&#xe818;" d="M1000 350a501 501 0 0 1-500 500 501 501 0 0 1-500-500 501 501 0 0 1 500-500 501 501 0 0 1 500 500m-395 14l-81-82s0 0 0 0a34 34 0 0 0-5-4c-1 0-2-1-3-1a33 33 0 0 0-3-2 29 29 0 0 0-3-1 28 28 0 0 0-3-1 34 34 0 0 0-7 0h0a33 33 0 0 0-24 9l-81 82a34 34 0 0 0 0 47 34 34 0 0 0 47 0l25-25v226a34 34 0 0 0 33 33 34 34 0 0 0 34-33v-225l24 24a34 34 0 0 0 47 0 34 34 0 0 0 0-47m114-90a215 215 0 0 0-63-154 218 218 0 0 0-156-65 219 219 0 0 0-219 219 34 34 0 0 0 34 33 34 34 0 0 0 33-33 152 152 0 0 1 152-152 151 151 0 0 1 108 45 148 148 0 0 1 44 106 34 34 0 0 0 33 34h0a34 34 0 0 0 34-33" horiz-adv-x="1000" />

<glyph glyph-name="receive-circle" unicode="&#xe819;" d="M895 350a395 395 0 0 1-395 395 395 395 0 0 1-395-395 395 395 0 0 1 395-395 395 395 0 0 1 395 395m-49 0a346 346 0 0 0-346-346 347 347 0 0 0-346 346 347 347 0 0 0 346 346 347 347 0 0 0 346-346m-233-167a156 156 0 0 1 46 112 24 24 0 0 1-24 24h-1a24 24 0 0 1-24-25 108 108 0 0 0-31-77 110 110 0 0 0-79-33 111 111 0 0 0-110 110 24 24 0 0 1-25 25 24 24 0 0 1-24-25 159 159 0 0 1 159-159 158 158 0 0 1 113 48m-36 177a24 24 0 0 1 0 34 24 24 0 0 1-35 0l-17-17v163a24 24 0 0 1-25 25 24 24 0 0 1-24-25v-164l-18 18a24 24 0 0 1-34 0 24 24 0 0 1 0-34l59-59a24 24 0 0 1 17-7h0a25 25 0 0 1 5 0c1 0 1 1 2 1a23 23 0 0 1 3 1 24 24 0 0 1 2 1c1 0 1 0 2 1a26 26 0 0 1 3 3l1 0z" horiz-adv-x="1000" />

<glyph glyph-name="send-circle" unicode="&#xe81a;" d="M895 350a395 395 0 0 1-395 395 395 395 0 0 1-395-395 395 395 0 0 1 395-395 395 395 0 0 1 395 395m-49 0a346 346 0 0 0-346-346 346 346 0 0 0-346 346 346 346 0 0 0 346 346 346 346 0 0 0 346-346m-233-167a156 156 0 0 1 46 112 24 24 0 0 1-24 24h-1a24 24 0 0 1-24-25 108 108 0 0 0-31-77 110 110 0 0 0-79-33 111 111 0 0 0-110 110 24 24 0 0 1-25 25 24 24 0 0 1-24-25 159 159 0 0 1 159-158 158 158 0 0 1 113 47m-36 281a24 24 0 0 1 0 34l-60 59a24 24 0 0 1-16 7c-1 0-1 0-1 0a24 24 0 0 1-4 0c0 0 0 0-1 0a24 24 0 0 1-3-1c0 0-1 0-1 0a25 25 0 0 1-3-2c-1 0-1 0-2 0a25 25 0 0 1-3-4l-60-59a24 24 0 0 1 0-34 24 24 0 0 1 18-7 24 24 0 0 1 17 7l17 18v-164a24 24 0 0 1 25-24 24 24 0 0 1 24 24v164l18-18a24 24 0 0 1 17-7 24 24 0 0 1 18 7" horiz-adv-x="1000" />

<glyph glyph-name="send-filled" unicode="&#xe81b;" d="M1000 350a501 501 0 0 1-500 500 501 501 0 0 1-500-500 501 501 0 0 1 500-500 501 501 0 0 1 500 500m-395 157a33 33 0 0 0-23-10 33 33 0 0 0-24 10l-25 24v-225a34 34 0 0 0-33-33 34 34 0 0 0-34 33v225l-24-24a33 33 0 0 0-23-10 33 33 0 0 0-24 10 34 34 0 0 0 0 47l81 81a34 34 0 0 0 5 5c1 0 2 0 2 1a34 34 0 0 0 4 2c1 0 2 0 2 0a34 34 0 0 0 5 2c0 0 1 0 1 0a33 33 0 0 0 5 0c0 0 1 0 1 0a33 33 0 0 0 23-10l81-81a34 34 0 0 0 0-47m114-233a215 215 0 0 0-63-154 218 218 0 0 0-156-65 219 219 0 0 0-219 219 34 34 0 0 0 34 33 34 34 0 0 0 33-33 152 152 0 0 1 152-152 151 151 0 0 1 108 45 148 148 0 0 1 44 106 34 34 0 0 0 33 34h0a34 34 0 0 0 34-33" horiz-adv-x="1000" />

<glyph glyph-name="social-good-filled" unicode="&#xe81c;" d="M1000 350a501 501 0 0 1-500 500 501 501 0 0 1-500-500 501 501 0 0 1 500-500 501 501 0 0 1 500 500m-196 65a169 169 0 0 0-57-126l-1-1-222-222a34 34 0 0 0-24-10h0a33 33 0 0 0-23 10l-224 223a168 168 0 0 0-57 126 169 169 0 0 0 169 169 169 169 0 0 0 135-68 169 169 0 0 0 135 68 169 169 0 0 0 169-169m-102-76a102 102 0 0 1 35 76 102 102 0 0 1-102 102 102 102 0 0 1-101-101 34 34 0 0 0-34-34 34 34 0 0 0-33 34 102 102 0 0 1-102 101 102 102 0 0 1-102-102 102 102 0 0 1 35-76l2-2 1-1 199-199 201 200c0 1 1 1 1 2" horiz-adv-x="1000" />

<glyph glyph-name="social-good-circle" unicode="&#xe81d;" d="M1000 350a501 501 0 0 1-500 500 501 501 0 0 1-500-500 501 501 0 0 1 500-500 501 501 0 0 1 500 500m-62 0a439 439 0 0 0-438-438 439 439 0 0 0-438 438 439 439 0 0 0 438 438 439 439 0 0 0 438-438m-158 154a155 155 0 0 1-156 155 155 155 0 0 1-124-63 155 155 0 0 1-124 63 155 155 0 0 1-156-155 155 155 0 0 1 53-116l205-206a31 31 0 0 1 22-9h0a31 31 0 0 1 22 9l205 205 1 1a155 155 0 0 1 52 116m-62 0a94 94 0 0 0-32-70c-1-1-1-1-2-2l-184-184-183 183-1 1-2 2a94 94 0 0 0-32 70 94 94 0 0 0 94 94 94 94 0 0 0 93-93 31 31 0 0 1 31-31 31 31 0 0 1 31 31 94 94 0 0 0 93 93 94 94 0 0 0 94-94m-301-381a114 114 0 0 1-33-82 31 31 0 0 1 31-30h0a31 31 0 0 1 31 31 53 53 0 0 0 15 38 54 54 0 0 0 39 16 55 55 0 0 0 54-54 31 31 0 0 1 31-31 31 31 0 0 1 31 31 116 116 0 0 1-116 116 115 115 0 0 1-83-35" horiz-adv-x="1000" />

<glyph glyph-name="system-filled" unicode="&#xe81e;" d="M0 350a500 500 0 1 1 500 500 501 501 0 0 1-500-500m374-250a35 35 0 0 0 0 4c1 34 12 341 18 367a117 117 0 0 0 108 73 113 113 0 0 0 109-74c5-28 17-316 17-370a124 124 0 0 0-36-89 126 126 0 0 0-216 89m0 592a34 34 0 0 0 33 33h1a34 34 0 0 0 33-34 57 57 0 0 1 17-41 59 59 0 0 1 101 41 34 34 0 0 0 67 0 126 126 0 0 0-216-88 124 124 0 0 0-36 89m83-235c-3-17-11-227-16-359a59 59 0 0 1 101-40 57 57 0 0 1 17 42c0 47-11 329-16 358-4 19-41 19-43 19-9 0-40-1-43-20" horiz-adv-x="1000" />

<glyph glyph-name="system" unicode="&#xe81f;" d="M1000 350a501 501 0 0 1-500 500 501 501 0 0 1-500-500 501 501 0 0 1 500-500 501 501 0 0 1 500 500m-62 0a439 439 0 0 0-438-438 439 439 0 0 0-438 438 439 439 0 0 0 438 438 439 439 0 0 0 439-438m-323-314a114 114 0 0 1-33 82 116 116 0 0 1-83 34 116 116 0 0 1-116-116 31 31 0 0 1 31-31 31 31 0 0 1 31 31 55 55 0 0 0 54 54 54 54 0 0 0 39-16 53 53 0 0 0 16-38 31 31 0 0 1 30-31h0a31 31 0 0 1 31 31m0 541a34 34 0 0 1 0 3 116 116 0 0 1-116 116 116 116 0 0 1-82-34 114 114 0 0 1-34-82c0-49 38-315 43-340a74 74 0 0 1 73-69 77 77 0 0 1 73 68c5 23 39 305 43 338m-62 5c-14-121-38-315-42-331 0-1-3-18-12-18-2 0-9 0-12 17-5 28-42 287-42 331a53 53 0 0 0 15 37 54 54 0 0 0 39 17 55 55 0 0 0 54-53" horiz-adv-x="1000" />

<glyph glyph-name="feedback" unicode="&#xe820;" d="M1034 265a537 537 0 0 0-35 75 309 309 0 0 1 24 119 311 311 0 0 1-311 311 311 311 0 0 1-311-311 311 311 0 0 1 311-311 309 309 0 0 1 109 20 598 598 0 0 0 80-33 355 355 0 0 1 124-43 55 55 0 0 1 38 14c36 34 9 86-29 159m-51-78c-17 7-35 15-48 21a337 337 0 0 1-117 41 58 58 0 0 1-21-4 229 229 0 0 0-85-16 230 230 0 0 0-230 230 230 230 0 0 0 230 230 230 230 0 0 0 230-230 228 228 0 0 0-20-93c-14-32 4-70 40-139 6-11 14-26 21-40m-758-140c-13-6-31-14-47-21 6 14 14 28 20 40 36 69 55 106 40 139a228 228 0 0 0-19 93 230 230 0 0 0 100 190 393 393 0 0 0 23 101 311 311 0 0 1-204-291 309 309 0 0 1 23-119 537 537 0 0 0-35-75c-38-73-65-126-29-160a55 55 0 0 1 39-14h0a356 356 0 0 1 123 43 607 607 0 0 0 81 33 310 310 0 0 1 109-19 309 309 0 0 1 207 79 391 391 0 0 0-101 28 228 228 0 0 0-106-26 229 229 0 0 0-85 16c-29 12-68-4-139-37" horiz-adv-x="1160" />

<glyph glyph-name="filter" unicode="&#xe821;" d="M525 180l-60-38-5-3v278a266 266 0 0 0-234 264 57 57 0 0 1-57 58 57 57 0 0 1-57-58 379 379 0 0 1 222-344v-312a64 64 0 0 1 33-56 64 64 0 0 1 31-8 64 64 0 0 1 34 10l190 120a64 64 0 0 1 30 54v192a379 379 0 0 1 223 344 57 57 0 0 1-58 58 57 57 0 0 1-57-58 266 266 0 0 0-235-264" horiz-adv-x="986" />

<glyph glyph-name="add" unicode="&#xe822;" d="M750 353v0a55 55 0 0 1-55 54l-143 0 0 144a55 55 0 0 1-55 54 54 54 0 0 1-54-54v0l0 0 0-144-144 0a54 54 0 0 1-54-54v0a55 55 0 0 1 54-55l144 0 0-143a54 54 0 1 1 109-1v0l0 144 144 0a54 54 0 0 1 54 54m138-2a387 387 0 1 0-388 387 388 388 0 0 0 388-387m112 0a500 500 0 1 1-500-500 501 501 0 0 1 500 500" horiz-adv-x="1000" />

<glyph glyph-name="gooddollar" unicode="&#xe823;" d="M968 419h-256l-152-152h408a341 341 0 0 0-332-265 341 341 0 0 0-341 341 341 341 0 0 0 341 341 339 339 0 0 0 241-100l55 55 0 0 211 211h-216l-67-68a491 491 0 0 1-224 54 494 494 0 0 1-494-493 491 491 0 0 1 54-224l-196-196h215l72 71a492 492 0 0 1 349-144 494 494 0 0 1 493 493 491 491 0 0 1-6 76z" horiz-adv-x="1143" />

<glyph glyph-name="hidden" unicode="&#xe824;" d="M1095 348a52 52 0 0 1-4 25 541 541 0 0 1-178 214l66 67a53 53 0 0 1 0 75 53 53 0 0 1-75 0l-87-87a539 539 0 0 1-218 46 544 544 0 0 1-487-307 49 49 0 0 1-3-12c-1 0-1-1-1-2a58 58 0 0 1-1-8 52 52 0 0 1 2-31 529 529 0 0 1 178-216l-65-65a53 53 0 0 1 0-76 53 53 0 0 1 37-16 53 53 0 0 1 38 16l87 87a543 543 0 0 1 208-46l10 0a542 542 0 0 1 489 310 52 52 0 0 1 4 26m-361 211l-46-46a183 183 0 0 1-88 23 186 186 0 0 1-185-186 184 184 0 0 1 23-87l-74-74a423 423 0 0 0-146 163 436 436 0 0 0 381 229 431 431 0 0 0 135-22m-212-212c0 1-1 2-1 3a79 79 0 0 0 80 79c1 0 2 0 3 0z m157 6c0-1 0-2 0-3a79 79 0 0 0-79-79c-1 0-2 0-3 0z m304-5a436 436 0 0 0-389-229 436 436 0 0 0-128 21l47 47a184 184 0 0 1 87-23 186 186 0 0 1 186 186 183 183 0 0 1-23 87l74 74a434 434 0 0 0 146-163" horiz-adv-x="1201" />

<glyph glyph-name="gooddollar-small" unicode="&#xe825;" d="M675 402h-134l-80-80h214a179 179 0 0 0-174-139 179 179 0 0 0-179 179 179 179 0 0 0 179 179 178 178 0 0 0 126-53l29 29h0l111 111h-113l-36-35a258 258 0 0 1-117 28 259 259 0 0 1-259-259 258 258 0 0 1 28-118l-103-103h113l38 37a258 258 0 0 1 183-75 259 259 0 0 1 259 259 258 258 0 0 1-3 40z" horiz-adv-x="1000" />

<glyph glyph-name="home" unicode="&#xe826;" d="M536-150h-186l-3 0-3 0h-187a43 43 0 0 0-43 43v549h-71a43 43 0 0 0-43 43 43 43 0 0 0 43 43h7a401 401 0 0 0 393 322 401 401 0 0 0 393-322h7a43 43 0 0 0 43-43 43 43 0 0 0-43-43h-71v-549a43 43 0 0 0-43-43h-187l-3 0z m149 86v506h-484v-506h103v250q0 2 0 4t0 2a43 43 0 0 0 43 44h192a43 43 0 0 0 43-44c0 0 0 0 0-1a44 44 0 0 0 0-5v-250z m-189 0v213h-106v-213z m233 592h14a311 311 0 0 1-300 232 311 311 0 0 1-300-232h586z" horiz-adv-x="886" />

<glyph glyph-name="invite" unicode="&#xe827;" d="M972 31a269 269 0 0 1-269 269 269 269 0 0 1-269-269 40 40 0 0 1 41-40 41 41 0 0 1 40 40 188 188 0 0 0 188 188 188 188 0 0 0 188-188 41 41 0 0 1 41-40 40 40 0 0 1 40 40m-80 494a189 189 0 0 1-189 189 189 189 0 0 1-189-189 189 189 0 0 1 189-189 189 189 0 0 1 189 189m-81 0a109 109 0 0 0-108-108 108 108 0 0 0-108 108 108 108 0 0 0 108 108 109 109 0 0 0 108-108m-358-149a41 41 0 0 1-41 41h-77v77a41 41 0 0 1-41 41 41 41 0 0 1-40-41v-77h-78a41 41 0 0 1-40-41 41 41 0 0 1 40-40h78v-78a41 41 0 0 1 40-40 40 40 0 0 1 41 40v78h77a40 40 0 0 1 41 40" horiz-adv-x="1128" />

<glyph glyph-name="location" unicode="&#xe828;" d="M666 485c0 116-82 300-301 300s-300-184-300-300c0-198 141-422 203-509a123 123 0 0 1 96-61h3a109 109 0 0 1 91 57l7 11c133 197 201 366 201 502m-66 0c0-84-33-233-190-464-3-6-6-10-8-12-14-23-23-27-36-28-14 1-26 7-45 33-44 64-190 287-190 471 0 65 42 234 234 234s235-169 235-234m-79-14a156 156 0 0 1-156 155 156 156 0 0 1-155-155 156 156 0 0 1 155-156 156 156 0 0 1 156 156m-66 0a90 90 0 0 0-90-90 90 90 0 0 0-89 90 90 90 0 0 0 89 89 90 90 0 0 0 90-89" horiz-adv-x="731" />

<glyph glyph-name="notifications" unicode="&#xe829;" d="M831 100c-46 46-63 98-63 201v2a302 302 0 0 1-192 281 121 121 0 0 1 13 54 122 122 0 0 1-122 122 122 122 0 0 1-122-122 121 121 0 0 1 13-54 302 302 0 0 1-193-281c0-1 0-1 0-2a8 8 0 0 1 0-1l0-2c0-103-15-151-63-198a45 45 0 0 1-9-49 45 45 0 0 1 41-28h169a196 196 0 0 1 164-84 190 190 0 0 1 162 84h170a45 45 0 0 1 42 28 45 45 0 0 1-10 49m-333 538a32 32 0 0 0-31-31 32 32 0 0 0-31 31 32 32 0 0 0 31 32 32 32 0 0 0 31-32m213-525h-103a45 45 0 0 1-35-15c-4-5-8-10-12-15a104 104 0 0 0-94-53 111 111 0 0 0-97 55c-4 5-7 8-10 12a45 45 0 0 1-35 16h-102a418 418 0 0 1 33 187c0 1 0 2 0 3l0 2a211 211 0 0 0 211 209 211 211 0 0 0 210-208 45 45 0 0 1 0-5v-1a423 423 0 0 1 34-187" horiz-adv-x="933" />

<glyph glyph-name="phone" unicode="&#xe82a;" d="M143 207a157 157 0 0 0 195 66 286 286 0 0 1 73 79 296 296 0 0 1 38 90 157 157 0 0 0-16 207 156 156 0 0 0 104 61 155 155 0 0 0 115-30 30 30 0 0 0 12-29 27 27 0 0 0 0-3 1011 1011 0 0 0-126-369 968 968 0 0 0-305-285 30 30 0 0 0-9-4 30 30 0 0 0-9-1 30 30 0 0 0-15 4 156 156 0 0 0-73 95 156 156 0 0 0 16 119m42-104a96 96 0 0 1 31-49 888 888 0 0 1 271 257 911 911 0 0 1 115 330 96 96 0 0 1-57 10 96 96 0 0 1-64-38 97 97 0 0 1 19-136c1 0 1-1 2-1a30 30 0 0 0 6-7c0-1 0-1 0-1a30 30 0 0 0 4-20 355 355 0 0 0-50-128 342 342 0 0 0-104-106 29 29 0 0 0-10-4 27 27 0 0 0-21 2 97 97 0 0 1-132-35 96 96 0 0 1-10-74" horiz-adv-x="786" />

<glyph glyph-name="privacy" unicode="&#xe82b;" d="M700-14a305 305 0 0 1-305 305 305 305 0 0 1-305-305 46 46 0 0 1 46-46 46 46 0 0 1 46 46 213 213 0 0 0 213 213 213 213 0 0 0 213-213 46 46 0 0 1 46-46 46 46 0 0 1 46 46m-91 560a214 214 0 0 1-214 214 214 214 0 0 1-214-214 214 214 0 0 1 214-214 214 214 0 0 1 214 214m-101 45h-226a123 123 0 0 0 113 77 123 123 0 0 0 113-77m0-91a123 123 0 0 0-113-77 123 123 0 0 0-113 77h226z" horiz-adv-x="790" />

<glyph glyph-name="qrcode" unicode="&#xe82d;" d="M913 497a275 275 0 0 1-275 274 40 40 0 0 1-40-39 40 40 0 0 1 40-40 196 196 0 0 0 195-195 40 40 0 0 1 40-40 40 40 0 0 1 40 40m-293 89a71 71 0 0 1-73-73v-39a71 71 0 0 1 73-73l0-17a20 20 0 0 1 20-20h0a20 20 0 0 1 19 21l0 16a71 71 0 0 1 73 73v39a71 71 0 0 1-73 73z m0-40h39a32 32 0 0 0 33-33v-39a32 32 0 0 0-34-33h-38a32 32 0 0 0-33 33v39a32 32 0 0 0 33 33m1-46l-1-1a19 19 0 0 1 14-24 19 19 0 0 1 5-1 21 21 0 0 1 20 14 20 20 0 0 1-14 25 20 20 0 0 1-25-13m-105 61a20 20 0 0 1-14 24 20 20 0 0 1-24-13l-1-1a20 20 0 0 1 14-24 19 19 0 0 1 5-1 21 21 0 0 1 20 15m-35-30a20 20 0 0 1-20 19l-26 0a68 68 0 0 1-63 36h-38a71 71 0 0 1-73-73v-39a71 71 0 0 1 73-73h38a71 71 0 0 1 73 73v36l16 0a20 20 0 0 1 20 20m-76-56a32 32 0 0 0-33-33h-38a32 32 0 0 0-33 33v39a32 32 0 0 0 33 33h38a32 32 0 0 0 33-33z m-33 15a20 20 0 0 1-13 24 20 20 0 0 1-25-13l0-2a20 20 0 0 1 13-24 18 18 0 0 1 6 0 21 21 0 0 1 19 15m22 243a40 40 0 0 1-39 39 275 275 0 0 1-275-274 40 40 0 0 1 39-40 40 40 0 0 1 40 40 196 196 0 0 0 196 195 40 40 0 0 1 39 40m-314-528a275 275 0 0 1 275-275 40 40 0 0 1 39 39 40 40 0 0 1-39 40 196 196 0 0 0-196 196 40 40 0 0 1-40 39 40 40 0 0 1-39-39m181-64a20 20 0 0 1 14-24 20 20 0 0 1 5-1 21 21 0 0 1 20 15 20 20 0 0 1-14 24 20 20 0 0 1-24-13z m0 103l0-38a20 20 0 0 1 20-19h0a20 20 0 0 1 19 20l0 37a20 20 0 0 1-20 20 20 20 0 0 1-20-20m92-129l144 0a20 20 0 0 1 19 20 20 20 0 0 1-19 20h-23a20 20 0 0 1 7 10 20 20 0 0 1-13 25 20 20 0 0 1-25-14l0-1a19 19 0 0 1 7-20l-77 0v32l18 0a20 20 0 0 1 19 20 20 20 0 0 1-19 19h-1l-17 0 0 105 52 0a20 20 0 0 1 20 20 20 20 0 0 1-20 20l-143 0a20 20 0 0 1-20-20 20 20 0 0 1 20-20h0l51 0 0-33-17 0a20 20 0 0 1-20-20 20 20 0 0 1 20-20h0l17 0 0-68-16 0a20 20 0 0 1-20-20 20 20 0 0 1 20-20h0l16 0v-15c0 0 0-1 0-1a20 20 0 0 1 20-20z m165 344l-1 37a20 20 0 0 1-20 19 20 20 0 0 1-20-20l1-37a20 20 0 0 1 20-20h0a20 20 0 0 1 19 21m89-88l-88 0 0 17a20 20 0 0 1-21 20 20 20 0 0 1-19-20l0-37a19 19 0 0 1 2-7c0 0 0-1 0-1a21 21 0 0 1 2-4c1-1 1-2 1-2a25 25 0 0 1 3-2 20 20 0 0 1 11-4h0l109 0a20 20 0 0 1 19 20 20 20 0 0 1-19 20z m-127-122l-1-1a19 19 0 0 1 14-24 19 19 0 0 1 5-1 21 21 0 0 1 20 14 20 20 0 0 1-14 25 20 20 0 0 1-24-13m-34-7l0 38a20 20 0 0 1-20 19h0a20 20 0 0 1-20-20l0-37a20 20 0 0 1 20-20h0a20 20 0 0 1 20 20m-3 78a19 19 0 0 1 13-24 19 19 0 0 1 6-1 21 21 0 0 1 19 15 20 20 0 0 1-13 25 20 20 0 0 1-25-14z m292 32a20 20 0 0 1-20 20h0l-37-1a20 20 0 0 1-20-20 20 20 0 0 1 20-19h0l37 0a20 20 0 0 1 20 20m-221-146a20 20 0 0 1 20-20h0l16 1a71 71 0 0 1 73-72h39a71 71 0 0 1 73 73v39a71 71 0 0 1-72 73l0 15a20 20 0 0 1-20 20h0a20 20 0 0 1-20-20l0-15c0 0-1 0-1 0h0l-88 0a20 20 0 0 1-20-20 20 20 0 0 1 20-20h0l23 0a76 76 0 0 1-7-33v-1l-16 0a20 20 0 0 1-20-20m76 21a32 32 0 0 0 33 33h39a32 32 0 0 0 33-33v-39a32 32 0 0 0-34-33h-38a32 32 0 0 0-33 33z m33-15a20 20 0 0 1 14-24 19 19 0 0 1 6-1 21 21 0 0 1 19 15 20 20 0 0 1-14 25 20 20 0 0 1-24-14z m-22-243a40 40 0 0 1 40-40 275 275 0 0 1 275 276 40 40 0 0 1-40 39 40 40 0 0 1-40-39 196 196 0 0 0-195-196 40 40 0 0 1-40-40" horiz-adv-x="991" />

<glyph glyph-name="search" unicode="&#xe82e;" d="M902 9l-297 297a286 286 0 0 1 57 170 288 288 0 0 1-288 289 288 288 0 0 1-288-289 288 288 0 0 1 288-288 287 287 0 0 1 170 57l297-297a43 43 0 0 1 30-13 43 43 0 0 1 31 13 43 43 0 0 1 0 61m-327 467a202 202 0 0 0-201-201 202 202 0 0 0-202 201 202 202 0 0 0 202 202 202 202 0 0 0 201-202" horiz-adv-x="1000" />

<glyph glyph-name="settings" unicode="&#xe82f;" d="M1187 350a52 52 0 0 1-52 52h-981a52 52 0 0 1-52-52 52 52 0 0 1 52-52h981a52 52 0 0 1 52 52m0 346a52 52 0 0 1-52 52h-981a52 52 0 0 1-52-52 52 52 0 0 1 52-52h981a52 52 0 0 1 52 52m-583-692a52 52 0 0 1 52-52h479a52 52 0 0 1 52 52 52 52 0 0 1-52 52h-479a52 52 0 0 1-52-52" horiz-adv-x="1289" />

<glyph glyph-name="shown" unicode="&#xe830;" d="M1234 347a59 59 0 0 1-5 29 611 611 0 0 1-554 355 613 613 0 0 1-549-346 55 55 0 0 1-4-13c0-1 0-2 0-3a66 66 0 0 1-2-9 58 58 0 0 1 3-35 607 607 0 0 1 544-356l11 0a611 611 0 0 1 551 349 59 59 0 0 1 5 29m-126 1a491 491 0 0 0-439-259 486 486 0 0 0-424 263 491 491 0 0 0 430 259 490 490 0 0 0 433-263m-222 2a210 210 0 0 1-210 209 210 210 0 0 1-209-209 210 210 0 0 1 209-209 210 210 0 0 1 210 209m-121 0a89 89 0 0 0-89-89 89 89 0 0 0-89 89 89 89 0 0 0 89 89 89 89 0 0 0 89-89" horiz-adv-x="1353" />

<glyph glyph-name="success" unicode="&#xe831;" d="M1267 754a42 42 0 0 1-60 0l-717-718-334 334a42 42 0 0 1-60 0 42 42 0 0 1 0-60l363-364h0l0 0a42 42 0 0 1 30-12 42 42 0 0 1 30 12l748 748a42 42 0 0 1 0 60" horiz-adv-x="1363" />

<glyph glyph-name="trash" unicode="&#xe832;" d="M751 605a37 37 0 0 1-36 37h-138a169 169 0 0 1-165 136 169 169 0 0 1-165-136h-138a37 37 0 0 1-37-37 37 37 0 0 1 37-36h24v-610a37 37 0 0 1 37-37h484a37 37 0 0 1 37 37v610h24a37 37 0 0 1 36 36m-545-36h411v-573h-411z m295 73h-178a95 95 0 0 0 89 62 95 95 0 0 0 89-62m29-538v357a37 37 0 0 1-37 36 37 37 0 0 1-36-36v-357a37 37 0 0 1 36-37 37 37 0 0 1 37 37m-163 0v357a37 37 0 0 1-37 36 37 37 0 0 1-36-36v-357a37 37 0 0 1 36-37 37 37 0 0 1 37 37" horiz-adv-x="824" />

<glyph glyph-name="faq" unicode="&#xe833;" d="M1000 350a501 501 0 0 1-500 500 501 501 0 0 1-500-500 501 501 0 0 1 500-500 501 501 0 0 1 500 500m-113 0a388 388 0 0 0-387-387 388 388 0 0 0-387 387 388 388 0 0 0 387 387 388 388 0 0 0 387-387m-215 67a191 191 0 0 1 13 74 174 174 0 0 1-23 89 161 161 0 0 1-64 61 190 190 0 0 1-91 22 209 209 0 0 1-100-24 168 168 0 0 1-68-66 193 193 0 0 1-24-97 54 54 0 0 1 16-39 58 58 0 0 1 78 0 55 55 0 0 1 15 39 85 85 0 0 0 21 62 82 82 0 0 0 63 21 66 66 0 0 0 50-20 68 68 0 0 0 19-48 105 105 0 0 0-8-43 113 113 0 0 0-20-31 448 448 0 0 0-39-36 182 182 0 0 1-48-63 170 170 0 0 1-17-70 54 54 0 0 1 16-39 54 54 0 0 1 39-16 54 54 0 0 1 40 16 55 55 0 0 1 15 39 109 109 0 0 0 7 35 58 58 0 0 0 19 27 504 504 0 0 1 55 50 194 194 0 0 1 36 57m-240-312a67 67 0 0 1 68-68 67 67 0 0 1 67 68 67 67 0 0 1-67 67 67 67 0 0 1-68-67" horiz-adv-x="1000" />

<glyph glyph-name="username" unicode="&#xe834;" d="M696-15a304 304 0 0 1-303 304 303 303 0 0 1-303-304 46 46 0 0 1 46-45 46 46 0 0 1 45 45 212 212 0 0 0 212 213 212 212 0 0 0 212-213 46 46 0 0 1 46-45 46 46 0 0 1 45 45m-91 506h-424a218 218 0 0 1 212-167 218 218 0 0 1 212 167m-142 94a43 43 0 0 1-43-43 43 43 0 0 1 43-43 43 43 0 0 1 43 43 43 43 0 0 1-43 43m-135 0a43 43 0 0 1-43-43 43 43 0 0 1 43-43 43 43 0 0 1 43 43 43 43 0 0 1-43 43m-147 8h424a218 218 0 0 1-212 167 218 218 0 0 1-212-167" horiz-adv-x="786" />

<glyph glyph-name="receive" unicode="&#xe835;" d="M634-40a363 363 0 0 1 107 261 57 57 0 0 1-57 56h0a57 57 0 0 1-57-57 251 251 0 0 0-74-180 256 256 0 0 0-183-77 257 257 0 0 0-257 258 57 57 0 0 1-56 56 57 57 0 0 1-57-56 371 371 0 0 1 371-371 369 369 0 0 1 263 110m-85 413a57 57 0 0 1 0 80 57 57 0 0 1-80 0l-41-41v381a57 57 0 0 1-57 57 57 57 0 0 1-56-57v-381l-42 42a57 57 0 0 1-80 0 57 57 0 0 1 0-80l138-138a57 57 0 0 1 40-17h1a57 57 0 0 1 11 1c1 1 3 1 5 2a53 53 0 0 1 5 1 57 57 0 0 1 6 3c1 1 3 2 4 3a60 60 0 0 1 8 6l1 1z" horiz-adv-x="741" />

<glyph glyph-name="send" unicode="&#xe836;" d="M634-40a364 364 0 0 1 107 261 57 57 0 0 1-57 56h0a57 57 0 0 1-57-57 251 251 0 0 0-74-180 256 256 0 0 0-183-77 257 257 0 0 0-257 258 57 57 0 0 1-56 56 57 57 0 0 1-57-56 371 371 0 0 1 371-371 369 369 0 0 1 263 110m-85 655a57 57 0 0 1 0 80l-138 138a56 56 0 0 1-39 17c0 0-1 0-2 0a56 56 0 0 1-8-1c-1 0-2 0-2 0a56 56 0 0 1-8-2c-1-1-2-1-3-1a58 58 0 0 1-7-4c-1 0-2-1-3-2a57 57 0 0 1-9-7l-138-137a57 57 0 0 1 0-80 57 57 0 0 1 40-17 57 57 0 0 1 40 17l41 41v-381a57 57 0 0 1 57-57 57 57 0 0 1 57 57v381l42-42a57 57 0 0 1 40-16 57 57 0 0 1 40 16" horiz-adv-x="741" />

<glyph glyph-name="claim-filled" unicode="&#xe837;" d="M500-150a497 497 0 0 0-221 51 506 506 0 0 0-171 138h1a230 230 0 0 1 163 67 233 233 0 0 1 32 42 232 232 0 0 1 82-79 230 230 0 0 1 114-30 230 230 0 0 1 163 68 235 235 0 0 1 33 41 231 231 0 0 1 82-79 230 230 0 0 1 114-30 506 506 0 0 0-171-138 497 497 0 0 0-221-51z m392 258a159 159 0 0 0-159 158 35 35 0 0 1-35 35l-1 0-1 0-1 0-1 0h0a35 35 0 0 1-25-10 35 35 0 0 1-10-25 154 154 0 0 0-46-111 159 159 0 0 0-113-47 159 159 0 0 0-159 158 35 35 0 0 1-36 35l0 0-1 0 0 0-1 0h0a35 35 0 0 1-25-10 35 35 0 0 1-10-25 154 154 0 0 0-46-110 159 159 0 0 0-114-47 159 159 0 0 0-52 8 486 486 0 0 0-56 229 497 497 0 0 0 39 194 510 510 0 0 0 107 161 503 503 0 0 0 159 109 486 486 0 0 0 195 40 486 486 0 0 0 194-40 503 503 0 0 0 159-110 510 510 0 0 0 108-160 497 497 0 0 0 39-194 564 564 0 0 0-57-229 158 158 0 0 0-51-9z m-39 160h0a34 34 0 0 1 7 0 13 13 0 0 1 1 1l1 0 2 1a18 18 0 0 1 2 0 24 24 0 0 1 3 2l0 0 1 0a17 17 0 0 1 2 1 34 34 0 0 1 5 5l0 0 83 82a33 33 0 0 1 10 24 34 34 0 0 1-10 24 34 34 0 0 1-24 9 34 34 0 0 1-24-9l-25-25-1 225a34 34 0 0 1-34 34 34 34 0 0 1-34-34l1-225-26 25a34 34 0 0 1-24 10 34 34 0 0 1-24-10 33 33 0 0 1-10-24 34 34 0 0 1 10-24l83-82a34 34 0 0 1 24-10l0 0h0z m-353 0h0a34 34 0 0 1 7 0 13 13 0 0 1 2 1l1 0 1 1a20 20 0 0 1 2 0 25 25 0 0 1 3 2l1 0 0 0a17 17 0 0 1 2 1 33 33 0 0 1 5 5l0 0 83 82a33 33 0 0 1 10 24 34 34 0 0 1-10 24 34 34 0 0 1-24 10 34 34 0 0 1-24-10l-25-25v227a34 34 0 0 1-34 34 34 34 0 0 1-34-34v-227l-25 25a34 34 0 0 1-24 10 34 34 0 0 1-24-10 33 33 0 0 1-10-24 34 34 0 0 1 10-24l83-82a34 34 0 0 1 24-10l0 0z m-353 0h0a34 34 0 0 1 7 0 13 13 0 0 1 1 1l2 0 1 1a19 19 0 0 1 2 0 27 27 0 0 1 3 2l0 0 1 0a16 16 0 0 1 2 1 34 34 0 0 1 5 5l0 0 83 82a33 33 0 0 1 10 24 34 34 0 0 1-10 23 34 34 0 0 1-24 10 34 34 0 0 1-24-10l-25-24 0 225a34 34 0 0 1-35 33 34 34 0 0 1-34-33l1-226-25 25a34 34 0 0 1-24 10 34 34 0 0 1-25-10 33 33 0 0 1-10-23 34 34 0 0 1 10-24l83-82a34 34 0 0 1 24-10l1 0z" horiz-adv-x="1000" />

<glyph glyph-name="export-wallet" unicode="&#xe838;" d="M147-6h0z m420 779a76 76 0 0 1-75 77 497 497 0 0 1-492-500 502 502 0 0 1 147-356 478 478 0 0 1 346-144 76 76 0 0 1 74 77v0a76 76 0 0 1-76 76 330 330 0 0 0-238 100 349 349 0 0 0-102 247 345 345 0 0 0 341 347 76 76 0 0 1 75 76m648-425v3a61 61 0 0 1-1 9v3a68 68 0 0 1-2 9c-1 1-1 2-1 4a63 63 0 0 1-4 7c-1 2-1 3-2 4a67 67 0 0 1-8 10l-158 160a64 64 0 0 1-91 0 66 66 0 0 1 0-93l47-47h-435a66 66 0 0 1 0-132h436l-48-49a66 66 0 0 1 0-93v0a64 64 0 0 1 91 0l158 160a66 66 0 0 1 18 46" horiz-adv-x="1215" />

<glyph glyph-name="info" unicode="&#xe839;" d="M500 538a59 59 0 1 0 59 59 59 59 0 0 0-59-59z m0-497a60 60 0 0 0-59 57c5 127 12 245 16 263v2a33 33 0 0 0 37 26c1 0 2 0 4 0h3c1 0 3 0 6 0a33 33 0 0 0 36-25c5-29 16-218 16-265a57 57 0 0 0-17-41 59 59 0 0 0-42-17z m0 674a118 118 0 1 1 118-118 118 118 0 0 1-118 118z m-2-264c-39 0-97-24-106-68-6-26-17-246-18-279 0-1 0-3 0-10a126 126 0 0 1 216-83 124 124 0 0 1 36 89c0 53-12 253-17 282-8 46-72 69-111 69z m2-601a500 500 0 1 0 500 500 501 501 0 0 0-500-500z" horiz-adv-x="1000" />

<glyph glyph-name="external-link" unicode="&#xe83a;" d="M458 571c7 0 13-6 13-13 0-7-6-12-13-12l-208 0c-19 0-37-8-50-21l0 0 0 0c-13-13-21-31-21-50l0-375c0-19 8-37 21-50l0 0 0 0c13-13 31-21 50-21l375 0c19 0 37 8 50 21l0 0 0 0c13 13 21 31 21 50l0 208c0 7 5 13 12 13 7 0 13-6 13-13l0-208c0-26-11-49-28-68l0 0 0 0 0 0 0 0c-18-18-43-27-68-28l-375 0c-26 0-49 11-68 28l0 0 0 0 0 0 0 0c-18 18-27 43-28 68l0 375c0 26 11 49 28 68l0 0 0 0 0 0 0 0c18 18 43 27 68 28l208 0z m375 125l2 0c0 0 0 0 0 0 0 0 0 0 0 0 2-1 1 0 2-1 0 0 0 0 1 0 1-1 1 0 1-1 1 0 0 0 2 0 0-1 0-1 0-1 0 0 0 0 0 0l1-1 1-1c0 0 0 0 0 0 0 0 0 0 1 0 0-2 0-1 0-2 1 0 0 0 1-1 0-1 0-1 0-1 1-1 0 0 1-2 0 0 0 0 0 0 0 0 0 0 0 0l0-2 0-208c0-7-6-12-13-12-7 0-12 5-12 12l0 178-395-395c-5-5-13-5-18 0-5 5-5 13 0 18l395 395-178 0c-7 0-12 5-12 12 0 7 5 13 12 13l208 0z" horiz-adv-x="1000" />

<glyph glyph-name="wallet" unicode="&#xe83c;" d="M451 547l51 51h-54l-19-18c-60 30-133 6-163-55-18-36-18-75 0-112l-49-48h55l18 18c49-48 124-48 173 0 24 24 36 55 36 88 0 6 0 12 0 18h-39-67l-36-36h100c-9-46-55-73-100-64-46 9-73 55-64 100 9 46 55 73 100 64 15-3 30-12 39-21l19 15z m242 109v-82c-51 0-94-46-94-97 0-52 43-94 94-94v-82h-539v358h539z m-85 60h-276l276 40v-40z m85-272c-18 0-33 15-33 36 0 18 15 33 33 33v-69z m61-173v415c0 18-15 30-31 30h-54v76h0v0c0 15-12 27-27 27 0 0-3 0-3 0l-522-72c-15-3-24-19-21-34l0-27v-415c0-18 15-30 30-30h600c13 0 28 15 28 30m-560-336l33 164h37l-49-219h-36l-43 158-39-158h-36l-49 216h37l33-161 39 164h31l42-164z m185-55c-3 3-3 9-3 15-12-12-27-15-43-15-15 0-30 6-39 15s-15 22-15 34c0 18 6 30 18 39 12 9 30 15 55 15h21v9c0 10-3 16-6 22-6 6-12 6-21 6-10 0-16-3-22-6-6-3-9-9-9-16h-33c0 10 3 19 9 25 6 9 15 15 24 18s21 6 34 6c18 0 33-6 45-15 12-9 18-21 18-40v-72c0-16 3-28 6-34v-6h-39z m-40 28c7 0 16 3 22 6s12 9 15 15v30h-18c-12 0-25-3-31-6s-9-12-9-18c0-6 3-12 6-15 0-9 6-12 15-12z m146-28h-36v228h36v-228z m79 0h-37v228h37v-228z m109 0c-24 0-43 6-55 21-15 16-21 34-21 58v3c0 15 3 30 9 43 6 12 15 21 27 30 13 6 25 9 37 9 21 0 39-6 51-21 12-15 18-34 18-58v-15h-106c0-12 6-24 13-30 9-9 18-12 30-12 15 0 30 6 39 21l18-18c-6-10-15-19-24-22-12-9-24-9-36-9z m-6 137c-9 0-18-3-25-9s-9-16-12-31h70v3c0 12-3 22-9 28-6 6-12 9-24 9z m142 63v-39h27v-27h-27v-88c0-6 0-9 3-12 3-3 6-3 12-3 3 0 9 0 12 0v-28c-6-3-15-3-21-3-27 0-42 15-42 46v91h-27v27h27v39h36z" horiz-adv-x="848" />

<glyph glyph-name="goodmarket" unicode="&#xe83d;" d="M1147 677c-3-29-27-53-59-53-32 0-59 27-59 59 0 18-12 29-29 29s-30-11-30-29c0-32-26-59-58-59s-59 27-59 59c0 18-12 29-30 29s-29-11-29-29c0-32-27-59-59-59s-59 27-59 59c0 18-12 29-29 29s-30-11-30-29c0-32-26-59-58-59-30 0-56 24-59 53l41 68 29 47h506l44-74 27-41z m-577-373v261c36 45 100 53 147 18 6-6 12-12 18-18 41 50 115 56 165 12 6-3 9-9 12-12 35 47 100 53 147 21 5-6 11-12 17-18v-261h-138v167c-3 15-15 24-29 24h-168c-15 0-27-9-29-24v-167h-142z m200 147h109v-144h-109v144z m436 232c0 6-3 12-6 18 0 0 0 3 0 3l-83 132c-5 9-14 15-26 15h-538c-9 0-21-6-27-15l-82-132c0 0 0-3 0-3-3-6-6-12-6-18 0-47 26-88 71-109v-294c3-15 14-23 29-23h565c14 0 26 8 29 23v294c47 21 74 62 74 109m-1015-748c-9-9-17-17-32-23s-30-9-47-9c-18 0-33 3-47 12s-24 20-33 35c-5 15-11 32-11 53v18c0 32 8 56 23 73 15 18 35 27 65 27 23 0 41-6 56-18 14-12 20-29 23-50h-35c-3 26-18 38-44 38-18 0-30-6-38-17s-12-30-12-53v-15c0-24 6-41 15-53 8-12 23-18 41-18 17 0 32 3 38 12v41h-44v27h79v-80z m30 53c0 15 3 30 8 41 6 12 15 21 27 30 12 6 23 9 38 9 21 0 38-6 50-21s21-32 21-53l0-9c0-14-3-29-9-41s-15-21-27-29-23-9-38-9c-20 0-38 6-53 20-9 15-17 36-17 62l0 0z m35-3c0-14 3-29 9-38 6-9 14-15 26-15s21 6 27 15 9 24 9 41c0 15-3 30-9 39s-15 14-27 14c-12 0-20-6-26-14-6-9-9-24-9-42z m132 3c0 15 3 30 9 41 6 12 15 21 27 30 11 6 23 9 38 9 20 0 38-6 50-21s20-32 20-53l0-9c0-14-3-29-8-41s-15-21-27-29-23-9-38-9c-21 0-38 6-53 20-12 15-18 36-18 62l0 0z m36-3c0-14 3-29 8-38 6-9 15-15 27-15s20 6 26 15 9 24 9 41c0 15-3 30-9 39s-14 14-26 14c-12 0-21-6-27-14-5-9-8-24-8-42z m132 3c0 24 6 44 18 59 11 15 26 21 44 21 17 0 29-6 41-18v79h35v-220h-32l-3 14c-12-11-24-17-41-17-18 0-33 6-44 20s-18 36-18 62z m35-3c0-14 3-29 9-38 6-9 15-15 27-15 14 0 23 6 32 18v68c-6 11-18 17-32 17-12 0-21-6-27-14-6-6-9-18-9-36z m188 133l62-159 59 159h47v-209h-35v67l3 92-62-159h-26l-62 162 3-92v-70h-36v209h47z m300-209c-2 3-2 9-2 14-12-11-24-17-42-17-14 0-29 6-38 15s-15 20-15 32c0 18 6 29 18 38 12 9 29 15 53 15h21v9c0 9-3 14-6 20-6 6-12 6-21 6-9 0-15-3-20-6-6-3-9-8-9-14h-36c0 8 3 17 9 23 6 9 15 15 24 18 9 3 20 6 32 6 18 0 32-6 44-15 12-9 18-21 18-38v-71c0-15 3-26 6-32v-3h-36z m-38 26c6 0 15 3 21 6 6 3 12 9 15 15v29h-18c-12 0-24-3-30-6s-8-11-8-17c0-6 3-12 6-15 0-12 5-12 14-12z m186 97c-6 0-9 0-15 0-15 0-27-5-33-17v-106h-35v156h33l0-18c8 15 20 21 35 21 6 0 9 0 12-3l3-33z m73-56l-15-14v-53h-35v220h35v-126l12 15 44 47h41l-58-65 64-91h-41l-47 67z m168-70c-24 0-41 6-53 20-15 15-21 33-21 56v3c0 15 3 30 9 42 6 11 15 20 26 29s24 9 36 9c20 0 38-6 50-21 12-15 17-32 17-56v-15h-103c0-11 6-23 12-29 9-9 18-12 30-12 14 0 29 6 38 21l18-18c-6-9-15-17-24-20-12-6-24-9-35-9z m-3 132c-9 0-18-3-24-9-6-5-9-14-12-29h68v3c0 12-3 21-9 26-6 6-14 9-23 9z m135 65v-38h27v-27h-27v-85c0-6 0-9 3-12 3-3 6-3 12-3 3 0 9 0 12 0v-29c-9-3-15-3-24-3-26 0-41 15-41 44v88h-27v27h27v38h38z" horiz-adv-x="1647" />

<glyph glyph-name="support2" unicode="&#xe83e;" d="M854 476c-8 17-17 34-25 54 11 26 17 57 17 86 0 122-100 222-223 222-123 0-223-100-223-222 0-123 100-223 223-223 26 0 54 5 77 14 20-6 40-14 57-23 29-14 57-26 89-31 11 0 20 3 28 11 29 23 9 60-20 112m-34-55c-14 3-26 9-34 15-26 14-54 25-83 28-6 0-11 0-14-3-20-8-40-11-60-11-92 0-163 74-163 163 0 91 74 163 163 163 91 0 163-75 163-163 0-23-6-46-15-66-11-23 3-49 29-100 3-6 8-17 14-26m-540-100c-8-5-23-11-34-14 6 11 11 20 14 29 26 48 40 77 29 100-9 20-15 42-15 65 0 55 26 106 72 135 3 25 8 48 17 71-89-31-146-114-146-209 0-28 6-57 17-85-5-17-14-37-25-55-26-51-46-88-20-114 8-6 17-11 28-11l0 0c32 5 60 14 89 31 17 9 37 17 57 23 26-9 51-14 77-14 54 0 106 20 149 57-26 3-49 11-72 20-23-12-48-20-77-20-20 0-40 3-60 11-23 15-51 3-100-20m-149-348c0 8-2 17-8 20s-17 8-34 14-29 12-40 17c-18 12-29 26-29 46 0 17 6 29 20 40 14 11 31 17 51 17 15 0 26-3 38-8s20-12 25-23c6-9 9-20 9-32h-34c0 12-3 20-9 26-6 6-17 9-29 9-11 0-20-3-25-9s-9-11-9-20c0-9 3-14 12-20 5-6 17-9 34-14 17-6 28-12 37-17 9-6 17-15 20-20 6-9 6-18 6-29 0-17-6-31-20-40-15-11-32-14-52-14-14 0-28 3-40 8-11 6-23 15-28 23s-12 20-12 34h35c0-11 2-20 11-25s17-9 31-9c12 0 23 3 29 9 9 3 11 11 11 17z m155-37c-9-12-23-17-43-17-17 0-29 5-37 14s-12 23-12 43v97h35v-97c0-20 8-29 22-29 18 0 29 6 35 17v109h34v-152h-34l0 15z m200 60c0-23-6-43-17-57-12-15-26-20-43-20-17 0-29 5-40 17v-72h-35v209h32l0-14c8 11 23 17 40 17 17 0 31-6 43-20 14-15 20-35 20-60l0 0z m-35 3c0 14-2 25-8 37s-14 14-26 14c-14 0-23-6-28-17v-69c5-11 17-17 31-17 11 0 20 6 26 14 3 6 5 20 5 38z m195-3c0-23-6-43-17-57-12-15-26-20-43-20-17 0-29 5-40 17v-72h-32v209h32l0-14c8 11 23 17 40 17 17 0 31-6 43-20 11-15 17-35 17-60l0 0z m-35 3c0 14-2 25-8 37s-14 14-26 14c-14 0-23-6-28-17v-69c5-11 17-17 31-17 11 0 20 6 26 14 3 6 5 20 5 38z m58 0c0 14 2 28 8 40 6 11 14 20 26 28 11 6 23 9 37 9 20 0 37-6 49-20s20-32 20-52l0-8c0-15-3-29-9-40s-14-20-26-29-23-8-37-8c-20 0-37 5-51 20-12 17-17 34-17 60l0 0z m34-3c0-15 3-29 8-37 6-9 15-15 26-15s20 6 26 15 8 22 8 40c0 14-2 28-8 37s-14 14-26 14c-11 0-20-6-26-14-5-9-8-23-8-40z m214 45c-6 0-8 0-14 0-14 0-26-5-32-17v-103h-34v152h32l0-17c8 14 20 20 34 20 6 0 8 0 11-3l3-32z m69 69v-37h25v-26h-25v-83c0-5 0-8 3-11 2-3 5-3 11-3 3 0 9 0 11 0v-26c-8-3-14-3-22-3-26 0-40 15-40 43v86h-26v26h26v37h37z" horiz-adv-x="1029" />

<glyph glyph-name="invite2" unicode="&#xe83f;" d="M159-121h-35v209h35v-209z m73 156l0-17c12 14 27 20 45 20 32 0 50-17 50-56v-103h-33v100c0 9-3 18-6 21-3 6-11 6-20 6-15 0-24-6-33-18v-109h-35v156h32z m186-109l32 112h35l-53-159h-29l-53 156h35l33-109z m91 151c0 5 3 8 6 14s9 6 14 6 12-3 15-6 6-9 6-14c0-6-3-9-6-12-3-3-9-6-15-6s-11 3-14 6c-3 3-6 6-6 12z m38-198h-35v156h35v-156z m80 195v-39h26v-26h-26v-86c0-5 0-8 2-11 3-3 6-3 12-3 3 0 9 0 12 0v-27c-6-3-12-3-21-3-26 0-41 15-41 44v89h-26v26h26v39h36z m123-195c-23 0-41 6-53 21-15 15-20 32-20 56v3c0 14 2 29 8 41 6 12 15 21 27 29s23 9 35 9c21 0 38-6 50-20 12-15 18-33 18-56v-15h-103c0-12 6-24 12-29s17-12 29-12c15 0 29 6 38 20l18-17c-6-9-15-18-24-21-11-9-20-9-35-9z m-3 133c-9 0-18-3-23-9s-9-15-12-30h67v3c0 12-2 21-8 27-6 6-15 9-24 9z m-43 244c0 123-100 223-223 223-124 0-224-100-224-223 0-18 15-32 33-32l0 0c17 0 32 14 32 32 0 85 70 156 156 156 85 0 156-71 156-156 0-18 14-32 35-32 21 0 35 14 35 32m-64 409c0 85-71 156-156 156-86 0-156-71-156-156 0-86 70-156 156-156 85 0 156 70 156 156m-68 0c0-50-41-88-91-88-50 0-89 41-89 91 0 50 42 88 89 88 50 0 91-41 91-91m-297-124c0 18-15 33-33 33h-67v64c0 18-15 33-33 33-17 0-32-15-32-33v-64h-65c-17 0-32-15-32-33 0 0 0 0 0 0 0-17 15-32 32-32 0 0 0 0 0 0h65v-65c0-17 15-32 32-32 0 0 0 0 0 0 18 0 33 15 33 32 0 0 0 0 0 0v65h65c20 0 35 15 35 32l0 0" horiz-adv-x="824" />

<glyph glyph-name="statistics" unicode="&#xe841;" d="M381-102v266a47 47 0 0 1-48 48h-285a47 47 0 0 1-48-48v-193h0v-73a48 48 0 0 1 95 0v25h1v195h189v-189h1v-31a47 47 0 1 1 95 0m452 0v535a47 47 0 0 1-47 48h-286a47 47 0 0 1-48-48v-462h0v-73a47 47 0 1 1 96 0v26h0v463h189v-457h1v-32a48 48 0 0 1 95 0m453 0v904a47 47 0 0 1-48 48h-286a47 47 0 0 1-47-48v-831h0v-73a47 47 0 1 1 95 0v25h1v833h189v-827h1v-31a48 48 0 0 1 95 0" horiz-adv-x="1286" />

<glyph glyph-name="vote" unicode="&#xe848;" d="M238 808c-62 0-113-50-113-113s51-113 113-113c62 0 113 51 113 113s-51 113-113 113z m0-35c43 0 78-35 78-78s-35-77-78-77c-43 0-77 34-77 77s34 78 77 78z m0-227c-49 0-93-11-127-30-33-19-57-48-57-83s24-63 57-82c34-20 78-31 127-31 49 0 93 11 127 31 33 19 58 48 58 82s-25 64-58 83c-34 19-78 30-127 30z m0-35c43 0 82-10 109-26s40-34 40-52-13-36-40-51-66-26-109-26c-43 0-82 10-109 26s-40 34-40 51 13 37 40 52 66 26 109 26z m210 297a18 18 0 0 1-11-8 18 18 0 0 1 6-25s39-22 39-80-39-80-39-80a18 18 0 0 1-6-24 18 18 0 0 1 25-6s56 35 56 110-56 111-56 111a18 18 0 0 1-14 2z m-48-48a18 18 0 0 1-10-8 18 18 0 0 1 6-24s15-8 15-33-15-32-15-32a18 18 0 0 1-6-25 18 18 0 0 1 24-6s32 21 32 63-32 63-32 63a18 18 0 0 1-14 2z m-289-796l45 139h32l-61-170h-22l6 31z m-41 139l44-139 6-31h-22l-60 170h32z m123-108v2c0 10 1 18 4 26 3 8 7 14 12 20 5 6 11 10 18 14 7 3 15 5 25 5 9 0 17-2 24-5 7-4 14-8 19-14 5-6 9-12 11-20 3-8 4-16 4-26v-2c0-9-1-18-4-25-2-8-6-15-11-21-5-6-11-10-19-13-7-3-15-5-24-5-9 0-18 2-25 5-7 3-13 7-18 13-5 6-9 13-12 21-3 7-4 16-4 25z m28 2v-2c0-6 1-11 2-16s3-10 5-14 6-6 10-8c4-3 8-4 14-4 5 0 9 1 13 4 4 2 7 5 10 8 2 4 4 9 5 14 1 5 2 10 2 16v2c0 6-1 11-2 16-1 5-3 10-5 14-3 4-6 7-10 9-4 2-8 3-13 3s-10-1-14-3c-4-2-7-5-10-9s-4-9-5-14c-1-5-2-10-2-16z m170 62v-20h-71v20h71z m-50 31h28v-122c0-4 0-7 1-9 2-2 3-3 5-4s5-1 7-1c2 0 4 0 6 0 2 1 3 1 4 1l0-21c-2-1-5-2-8-2-3-1-6-1-10-1-7 0-12 1-17 3-5 3-9 6-12 12s-4 12-4 20v124z m127-159c-9 0-17 1-25 4-7 4-14 8-19 13-5 6-9 12-12 20s-4 15-4 24v5c0 9 1 18 4 26 3 8 7 15 12 21 5 6 11 10 18 13 7 3 15 5 23 5 9 0 17-2 24-5 6-3 12-7 16-13 5-5 8-12 10-19 3-8 4-16 4-25v-12h-97v20h69v2c0 5-1 10-3 14-2 5-5 8-8 11-4 3-9 4-15 4-5 0-9-1-13-3-3-2-6-5-9-8-2-4-4-9-5-14-1-5-2-11-2-17v-5c0-6 1-11 2-15 2-5 4-9 7-13s7-6 11-8c4-2 9-3 14-3 7 0 13 2 18 4 5 3 10 7 14 12l14-15c-2-4-6-7-10-11-4-4-10-6-16-9-6-2-13-3-22-3z" horiz-adv-x="571" />

<glyph glyph-name="donate" unicode="&#xe849;" d="M302 745c-41 4-85-11-113-48l-8-9c-46-60-40-146 16-198l165-156c6-5 11-12 24-15 5 0 9 0 14 0 13 3 18 10 23 15l166 156c55 52 62 138 16 198l-8 9c-54 70-158 60-204-11-22 33-54 55-91 59z m-5-46c26-3 50-18 63-45 12-27 53-27 66 0 26 54 97 61 134 14l7-9c32-41 27-99-11-135l-163-153-164 153c-37 36-42 94-10 135l7 9c19 24 46 34 71 31z m-219-766h-36l0 23h36c11 0 20 3 27 7 7 5 12 11 16 20 3 8 5 19 5 30v10c0 9-1 17-3 24-2 7-5 13-9 18-4 5-9 8-15 11-5 2-12 3-20 3h-38v24h38c12 0 22-2 31-6 9-4 18-9 24-16 7-7 12-16 16-26 4-9 5-20 5-33v-9c0-12-1-23-5-33-4-9-9-18-16-25-7-7-15-12-24-16-10-4-20-6-32-6z m-20 170v-170h-29v170h29z m119-108v2c0 10 1 18 4 26 2 8 6 14 11 20 5 6 11 10 18 14 8 3 16 5 25 5 9 0 17-2 25-5 7-4 13-8 18-14 5-6 9-12 12-20 2-8 4-16 4-26v-2c0-9-2-18-4-25-3-8-7-15-12-21-5-6-11-10-18-13-8-3-16-5-25-5-9 0-17 2-25 5-7 3-13 7-18 13-5 6-9 13-11 21-3 7-4 16-4 25z m28 2v-2c0-6 0-11 1-16s3-10 6-14c2-3 5-6 9-8 4-3 9-4 14-4 5 0 10 1 14 4 4 2 7 5 9 8s4 9 6 14c1 5 2 10 2 16v2c0 6-1 11-2 16-2 5-3 10-6 14-2 4-6 7-9 9-4 2-9 3-14 3-5 0-10-1-14-3-4-2-7-5-9-9-3-4-4-9-6-14-1-5-1-10-1-16z m140 35v-99h-28v126h26l2-27z m-5-31l-9 0c0 9 1 17 3 25 3 7 6 13 11 19 4 5 9 9 15 12 7 3 13 4 21 4 6 0 11 0 16-2 5-2 10-4 13-8 4-4 6-9 8-15 2-6 3-13 3-21v-82h-28v82c0 6-1 11-3 14-2 4-4 6-7 8-4 1-8 2-13 2-4 0-9-1-13-3-3-2-7-5-9-8-3-4-5-8-6-12-2-5-2-10-2-15z m180-42v60c0 4 0 8-2 11-2 3-4 6-7 8-4 2-8 2-13 2-4 0-8 0-12-2-3-1-6-4-7-6-2-3-3-6-3-9h-28c0 5 1 10 4 14s5 9 10 13c5 3 10 6 16 8 7 2 14 4 22 4 9 0 18-2 25-5 7-3 13-8 17-15 4-6 7-14 7-24v-56c0-5 0-11 1-15 1-5 2-9 3-12v-2h-28c-2 3-3 7-3 12-1 5-2 9-2 14z m5 51l0-18h-20c-6 0-10 0-14-1-4-1-7-2-10-4-3-2-5-4-6-7-1-3-2-6-2-9s1-6 2-9c2-3 4-5 7-7 3-1 7-2 11-2 6 0 11 1 15 4 4 2 8 5 10 8 3 4 4 7 4 10l9-12c-1-3-2-7-4-10-3-4-6-8-9-11-4-3-8-6-13-8-5-2-11-3-17-3-9 0-16 2-22 5-7 3-12 8-15 13-4 6-6 12-6 19 0 7 1 13 4 18 2 5 6 10 11 13 5 4 11 6 18 8 7 2 15 3 25 3h22z m111 49v-20h-71v20h71z m-51 31h28v-122c0-4 1-7 2-9 1-2 3-3 5-4 2-1 4-1 7-1 2 0 3 0 5 0s3 1 4 1l1-21c-3-1-5-2-9-2-3-1-6-1-10-1-6 0-12 1-17 3-5 3-9 6-12 12-2 5-4 12-4 20v124z m128-159c-10 0-18 1-26 4-7 4-13 8-19 13-5 6-9 12-12 20s-4 15-4 24v5c0 9 2 18 4 26 3 8 7 15 12 21 6 6 12 10 19 13 7 3 14 5 22 5 9 0 17-2 24-5 7-3 12-7 17-13 4-5 7-12 10-19 2-8 3-16 3-25v-12h-97v20h69v2c0 5-1 10-3 14-1 5-4 8-8 11-4 3-9 4-15 4-4 0-9-1-12-3-4-2-7-5-9-8-3-4-5-9-6-14-1-5-2-11-2-17v-5c0-6 1-11 3-15 1-5 3-9 6-13s7-6 11-8c4-2 9-3 14-3 7 0 13 2 18 4 6 3 10 7 14 12l15-15c-3-4-6-7-11-11-4-4-9-6-16-9-6-2-13-3-21-3z" horiz-adv-x="786" />

<glyph glyph-name="rewards-alt" unicode="&#xe84a;" d="M481 808c-55 0-98 0-132-4-34-5-61-14-83-36s-31-48-35-83c-5-33-5-76-5-131v-3c0-55 0-98 5-132 4-34 14-61 35-82s49-31 83-36c34-5 77-5 132-5h3c55 0 98 0 131 5 35 5 62 14 83 36s31 48 36 82c4 34 4 77 4 132v3c0 55 0 98-4 131-5 35-15 62-36 83s-48 31-83 36c-33 4-76 4-131 4z m-17-134c-10 8-22 14-36 18-51 12-98-34-85-85 4-14 10-26 18-37h-99c0 48 0 83 4 111 4 30 12 48 26 62 13 14 32 21 62 25 28 4 63 5 110 5z m-29-139h3c-8-35-38-60-75-60-10 0-18-8-18-18s8-18 18-18c44 0 83 26 101 63v-170c-47 0-82 1-110 4-30 4-49 12-62 26s-22 32-26 62c-4 28-4 63-4 111z m65-33c19-37 57-63 101-63 10 0 18 8 18 18s-8 18-18 18c-36 0-67 25-75 60h176c0-48 0-83-4-111-4-30-12-49-25-62s-32-22-63-26c-27-3-62-4-110-4z m202 68h-99c9 11 15 23 18 37 13 51-33 97-85 85-13-4-26-10-36-18v99c48 0 83-1 110-5 31-4 49-11 63-25 13-14 21-32 25-62 4-28 4-63 4-111z m-202 0v29c0 28 19 51 45 58 25 6 48-17 42-42-7-26-31-45-58-45z m-36 0h-29c-27 0-51 19-57 45-7 25 16 48 41 42 27-7 45-30 45-58z m-429-467h60c13 0 24-2 33-6 9-4 16-10 21-17 5-8 7-17 7-28 0-9-2-16-5-23s-7-11-13-16c-5-4-12-8-20-10l-9-4h-54l0 23h40c7 0 13 1 18 4 5 2 8 5 10 10 3 4 4 9 4 14 0 6-1 11-4 16-2 4-5 7-10 10-5 2-11 3-18 3h-31v-146h-29z m97-170l-40 76 31 1 40-75v-2z m106-2c-10 0-18 1-25 4-8 4-14 8-20 13-5 6-9 12-12 20-2 7-4 15-4 24v5c0 9 2 18 5 26s6 15 12 21c5 6 11 10 18 13 7 3 14 4 22 4 9 0 17-1 24-4 7-3 12-7 17-13 4-5 8-12 10-19 2-8 3-16 3-25v-12h-97v20h69v2c0 5-1 10-3 14-1 5-4 8-8 11-4 3-9 4-15 4-4 0-9-1-12-3-4-2-7-5-9-8-3-4-4-9-6-14-1-5-2-11-2-17v-5c0-6 1-11 3-15 1-5 3-9 6-13 3-3 7-6 11-8 4-2 9-3 14-3 7 0 13 2 18 4 6 3 10 7 14 12l15-15c-3-4-6-7-11-11-4-4-9-6-16-9-6-2-13-3-21-3z m106 30l29 98h18l-5-29-29-97h-16z m-17 98l23-98 2-28h-18l-34 126z m91-97l22 97h28l-34-126h-18z m-24 97l29-97 3-29h-16l-29 97-5 29z m164-100v60c0 4-1 8-3 11-1 3-4 6-7 8-4 2-8 2-13 2-4 0-8 0-11-2-4-1-6-4-8-6-2-3-3-6-3-9h-28c0 5 1 10 4 14s6 9 10 13c5 3 10 6 16 8 7 2 14 3 22 3 9 0 18-1 25-4 7-3 13-8 17-15 5-6 7-14 7-24v-56c0-5 0-11 1-15 1-5 2-9 3-12v-2h-28c-2 3-3 7-3 12-1 5-1 9-1 14z m4 51l0-18h-20c-5 0-10 0-14-1-4-1-7-2-10-4-2-2-4-4-6-7-1-3-2-6-2-9s1-6 3-9c1-3 3-5 6-7 3-1 7-2 11-2 6 0 11 1 15 4 5 2 8 5 10 8 3 4 4 7 4 10l10-12c-1-3-3-7-5-10-3-4-5-8-9-11-4-3-8-6-13-8-5-2-11-3-17-3-8 0-16 2-22 5-7 3-12 8-15 13-4 6-6 12-6 19 0 7 1 13 4 18 3 5 6 10 11 13 5 4 11 6 18 8 7 2 16 3 25 3z m81 25v-102h-28v126h27z m39 25l-1-26c-1 0-3 0-5 1-2 0-4 0-6 0-5 0-9-1-13-2-3-2-6-3-9-6-2-3-4-6-5-9-2-4-3-8-3-12l-6-1c0 8 1 16 2 22s4 13 7 18c3 5 7 9 12 12 5 3 10 4 17 4 1 0 3 0 5 0 2 0 4-1 5-1z m92-101v153h28v-179h-26z m-82 36v2c0 10 1 19 3 26 2 8 6 15 10 21 4 5 9 10 15 13 7 3 13 4 21 4 8 0 14-1 20-4s11-7 15-13c4-5 7-12 9-19 3-8 5-16 6-25v-8c-1-9-3-17-6-25s-5-14-9-19c-4-6-9-10-15-13-6-3-12-4-20-4-8 0-15 2-21 5-6 3-11 7-15 13-4 6-8 13-10 20-2 8-3 17-3 26z m28 2v-2c0-6 0-11 1-16 1-5 3-10 5-13 3-4 5-7 9-9 4-2 8-3 13-3 6 0 12 1 16 4 4 3 7 6 9 11 3 5 4 10 5 16v21c0 5-1 9-3 13-1 4-3 7-5 10-3 3-6 6-9 7-4 2-8 3-13 3-5 0-9-1-13-3-3-2-6-5-9-9-2-4-4-8-5-14-1-5-1-10-1-16z m182-30c0 3-1 6-3 8-1 2-4 4-8 6-3 2-9 4-17 5-6 2-13 4-18 6-6 2-10 4-14 7s-7 7-9 11c-3 4-4 8-4 14 0 5 1 10 4 14 2 5 5 9 9 12s10 6 16 8c6 2 12 3 20 3 10 0 19-1 27-5 7-3 13-8 17-14 4-6 6-13 6-20h-28c0 3-1 6-2 9-2 3-4 5-8 7-3 2-7 3-12 3-5 0-9-1-12-3-3-1-6-3-7-5-2-3-2-5-2-8 0-2 0-4 1-6 1-2 2-3 4-4 2-2 5-3 8-4 3-1 8-2 13-4 9-2 17-4 24-7 7-4 13-8 16-13 4-4 6-11 6-18 0-6-1-11-4-15-2-5-5-9-10-12-4-4-10-6-16-8-6-2-13-3-21-3-11 0-21 2-29 6-8 4-14 9-18 16-4 6-6 13-6 20h27c0-6 2-10 4-13 3-3 6-5 10-6 4-2 8-2 12-2 5 0 10 0 13 2 4 1 6 3 8 5 2 3 3 5 3 8z" horiz-adv-x="952" />

<glyph glyph-name="usegd" unicode="&#xe84b;" d="M452 719v-6c-10 0-20 0-32 0h-42c-12 0-23 0-33 0v6c0 30 24 54 54 54s53-24 53-54z m36-7v7c0 49-40 89-89 89s-89-40-89-89v-7c-4 0-7-1-10-1-21-2-38-7-54-18-5-3-10-7-15-12-13-13-21-29-28-49-6-20-11-45-17-76l0-2c-9-45-16-80-18-108-2-29 0-53 14-74 5-7 10-14 16-20 18-17 41-25 70-28 28-4 64-4 109-4h43c46 0 82 0 110 4 29 3 52 11 70 28 6 6 11 13 16 20 13 21 16 45 14 74-2 28-9 63-18 108l0 2c-7 31-12 56-18 76-6 20-14 36-28 49-4 5-9 9-15 12-15 11-33 16-54 18-3 0-6 1-9 1z m-109-35h40c33 0 56 0 75-2 17-1 28-5 37-11 4-3 7-5 10-9 8-7 14-17 19-34 6-18 10-40 17-73 9-46 16-79 17-105 2-25-1-40-8-52-3-5-7-9-11-13-10-10-24-16-49-19-26-3-60-3-107-3h-40c-48 0-81 0-107 3-25 3-39 9-49 19-4 4-8 8-11 13-7 12-11 27-9 52 2 26 9 59 18 105 6 33 11 55 17 73 5 17 11 27 18 34 3 4 7 6 11 9 8 6 19 10 37 11 18 2 42 2 75 2z m-53-179c9 3 19-2 22-11 8-21 28-36 51-36s43 15 50 36c4 9 14 14 23 11 9-3 14-14 11-23-12-35-45-59-84-59s-72 24-84 59c-4 9 1 20 11 23z m-208-395h29v-114c0-12-3-23-8-32-6-9-13-15-23-20-9-4-20-6-32-6-12 0-23 2-32 6-10 5-17 11-23 20-5 9-8 20-8 32v114h29v-114c0-8 1-14 4-20 3-5 7-9 12-11 5-3 11-4 18-4s13 1 18 4c5 2 9 6 12 11 3 6 4 12 4 20z m129-136c0 3-1 6-2 8-2 2-4 4-8 6-4 2-10 4-18 5-6 2-12 4-18 6-5 2-10 4-14 7-4 3-7 7-9 11-2 4-4 8-4 14 0 5 2 10 4 14 2 5 5 9 9 12s10 6 16 8c6 2 12 3 20 3 10 0 20-1 27-5 8-3 13-8 17-14 4-6 7-13 7-20h-29c0 3 0 6-2 9-2 3-4 5-8 7-3 2-7 3-12 3-5 0-9-1-12-3-3-1-5-3-7-5-1-3-2-5-2-8 0-2 0-4 1-6 1-2 2-3 4-4 2-2 5-3 8-4 3-1 8-2 13-4 9-2 18-4 25-7 7-4 12-8 16-13 3-4 5-11 5-18 0-6-1-11-3-15-3-5-6-9-11-12-4-4-10-6-16-8-6-2-13-3-21-3-11 0-21 2-29 6-8 4-14 9-18 16-4 6-6 13-6 20h27c1-6 2-10 5-13 2-3 6-5 9-6 4-2 8-2 13-2 5 0 9 0 12 2 4 1 6 3 8 5 2 3 3 5 3 8z m107-36c-9 0-18 1-25 4-7 4-14 8-19 13-5 6-9 12-12 20-3 7-4 15-4 24v5c0 9 1 18 4 26 3 8 7 15 12 21 5 6 11 10 18 13 7 3 15 4 23 4 9 0 17-1 23-4 7-3 13-7 17-13 5-5 8-12 10-19 2-8 4-16 4-25v-12h-98v20h70v2c0 5-1 10-3 14-2 5-5 8-8 11-4 3-9 4-15 4-5 0-9-1-13-3-3-2-6-5-9-8-2-4-4-9-5-14-2-5-2-11-2-17v-5c0-6 1-11 2-15 2-5 4-9 7-13s6-6 11-8c4-2 8-3 14-3 7 0 13 2 18 4 5 3 10 7 14 12l14-15c-2-4-6-7-10-11-5-4-10-6-16-9-6-2-14-3-22-3z m264 89v-65c-2-3-6-7-11-10-5-4-12-7-20-10-8-3-19-4-31-4-11 0-21 2-29 5-9 4-17 9-23 16-7 7-12 16-15 26-4 10-5 21-5 34v12c0 13 1 24 4 34 4 10 8 19 14 26 6 7 14 12 22 16 9 3 19 5 29 5 14 0 26-2 35-7 9-5 16-11 21-19 5-8 8-18 9-28h-28c-1 6-3 11-6 16-2 4-6 8-11 11-5 2-11 4-19 4-7 0-13-1-18-4-5-3-9-6-13-11-3-5-5-11-7-18-2-8-3-16-3-25v-12c0-9 1-17 3-25 2-7 5-13 9-18 4-5 8-9 14-11 5-3 11-4 18-4 7 0 12 1 16 2 5 1 8 2 10 4 3 1 5 3 6 4v34h-35v22z m96 110v-35h-18v35z m-3-190v-31h-17v31z m18 37c0 5-1 9-3 12-2 3-5 7-9 9-4 3-9 6-16 8-10 4-19 8-26 12-8 4-13 10-17 16-4 7-6 15-6 24 0 10 2 18 6 25 5 7 11 13 18 16s17 6 28 6c8 0 15-1 22-4 6-2 12-5 16-10 5-5 8-10 11-17 2-7 3-15 3-24h-27c0 5-1 10-2 14-1 4-3 7-5 10-2 2-5 5-8 6-3 2-6 2-10 2-6 0-10-1-14-3-3-2-6-5-8-8-1-4-2-8-2-12 0-5 1-9 2-12s5-6 9-9c4-3 10-5 17-8 10-4 19-8 26-12 7-4 13-10 17-16 4-7 6-15 6-24 0-10-2-19-7-26-4-7-11-12-19-16-8-3-18-5-29-5-7 0-14 1-20 3-7 1-13 4-19 9-5 4-10 9-13 16-3 7-5 16-5 26h28c0-6 1-11 3-15 1-4 4-8 6-10 3-2 6-4 10-5 3-1 7-1 10-1 6 0 11 1 15 3 4 2 7 4 9 8 2 4 3 8 3 12z" horiz-adv-x="810" />

<glyph glyph-name="learn" unicode="&#xe84c;" d="M472 641c9 3 19-3 22-13 2-9-4-19-13-21l-96-24c-9-3-19 3-21 13-3 9 3 19 13 21l95 24z m0-95c9 2 19-3 22-13 2-10-4-19-13-22l-96-24c-9-2-19 4-21 13-3 10 3 20 13 22l95 24z m-346 82c2 10 12 16 21 13l95-24c10-2 16-12 13-21-2-10-12-16-21-13l-95 24c-10 2-16 12-13 21z m0-95c2 10 12 15 21 13l95-24c10-2 16-12 13-22-2-9-12-15-21-13l-95 24c-10 3-16 12-13 22z m440 188c0 35-28 64-65 63-27-1-62-4-89-12-24-7-51-21-72-33-19-11-43-12-63-1-24 12-55 27-82 34-23 6-52 9-75 11-37 2-66-28-66-64v-265c0-37 29-65 64-68 23-1 49-4 68-9 24-6 53-20 76-32 30-16 65-16 95 0 23 12 53 26 76 32 19 5 45 8 68 9 35 3 65 31 65 68z m-63 27c14 1 27-11 27-27v-267c0-17-14-31-31-32-24-1-52-4-75-10-28-8-60-23-84-36-4-2-8-4-13-5v326c11 2 22 6 31 11 21 12 44 24 64 30 22 7 54 10 81 10z m-211-377c-5 1-9 3-13 5-24 13-56 28-84 36-23 6-51 9-74 10-18 1-32 15-32 32v265c0 17 13 29 29 28 23-1 49-4 68-9 23-6 51-19 74-32 10-5 21-8 32-10z m-169-415v-23h-85v23h85z m-77 147v-170h-29v170h29z m153-172c-10 0-18 1-26 4-7 4-14 8-19 13-5 6-9 12-12 20s-4 15-4 24v5c0 9 1 18 4 26 3 8 7 15 12 21 5 6 11 10 18 13 7 3 15 5 23 5 9 0 17-2 24-5 6-3 12-7 16-13 5-5 8-12 10-19 3-8 4-16 4-25v-12h-97v20h69v2c0 5-1 10-3 14-2 5-4 8-8 11-4 3-9 4-15 4-5 0-9-1-12-3-4-2-7-5-9-8-3-4-5-9-6-14-1-5-2-11-2-17v-5c0-6 1-11 2-15 2-5 4-9 7-13 3-3 7-6 11-8 4-2 9-3 14-3 7 0 13 2 18 4 5 3 10 7 14 12l15-15c-3-4-7-7-11-11-4-4-10-6-16-9-6-2-13-3-21-3z m143 28v60c0 4-1 8-3 11-1 3-4 6-7 8-4 2-8 2-13 2-4 0-8 0-11-2-4-1-6-4-8-6-2-3-3-6-3-9h-28c0 5 1 10 4 14s6 9 10 13c5 3 10 6 17 8 6 2 13 4 21 4 9 0 18-2 25-5 7-3 13-8 17-15 5-6 7-14 7-24v-56c0-5 0-11 1-15 1-5 2-9 4-12v-2h-29c-2 3-3 7-3 12-1 5-1 9-1 14z m4 51l0-18h-20c-5 0-10 0-14-1-4-1-7-2-10-4-2-2-4-4-6-7s-2-6-2-9 1-6 3-9c1-3 3-5 6-7 3-1 7-2 11-2 6 0 11 1 15 4 5 2 8 5 11 8 2 4 3 7 3 10l10-12c-1-3-3-7-5-10-2-4-5-8-9-11-4-3-8-6-13-8-5-2-11-3-17-3-8 0-16 2-22 5-7 3-12 8-15 13-4 6-6 12-6 19 0 7 2 13 4 18 3 5 6 10 11 13 5 4 11 6 18 8 7 2 16 3 25 3h22z m81 25v-102h-28v126h27l1-24z m39 25l-1-26c-1 0-3 0-5 1-2 0-4 0-6 0-5 0-9-1-13-2-3-2-6-3-9-6-2-3-4-6-5-9-2-4-2-8-3-12l-6-1c0 8 1 16 2 22s4 13 7 18c3 5 7 9 12 12 5 3 10 5 17 5 1 0 3-1 5-1 2 0 4-1 5-1z m45-28v-99h-28v126h26l2-27z m-5-31l-9 0c0 9 1 17 4 25 2 7 6 13 10 19 4 5 10 9 16 12 6 3 13 5 20 5 6 0 12-1 17-3 5-2 9-4 12-8 4-4 7-9 8-15 2-5 3-13 3-21v-82h-28v82c0 6-1 11-3 14-1 4-4 6-7 8-3 1-8 2-12 2-5 0-10-1-13-3-4-2-7-5-10-8-3-4-5-8-6-12-1-5-2-10-2-15z" horiz-adv-x="619" />

<glyph glyph-name="switch" unicode="&#xe84d;" d="M929 832c14 0 28-6 38-16l286-295c20-21 20-55-1-75-22-21-56-21-76 1l-194 199 0-725c0-29-24-53-53-53-30 0-54 24-54 53l0 725-194-199c-20-22-54-22-75-1-22 20-22 54-2 75l286 295c10 10 24 16 39 16z m-572 0c30 0 54-24 54-53l0-725 193 199c21 22 55 22 76 2 21-21 22-55 1-76l-285-295c-10-10-24-16-39-16-14 0-28 6-38 16l-286 295c-21 21-20 55 1 76 21 20 55 20 76-2l194-199 0 725c0 29 24 53 53 53z" horiz-adv-x="1286" />

<glyph glyph-name="logout" unicode="&#xe84e;" d="M497 556h96v248a47 47 0 0 1-48 46h-191c-89-1-47 0-160 0h-146a47 47 0 0 1-48-46v-908a47 47 0 0 1 48-46h497a47 47 0 0 1 48 46l0 0v248h-96v-201h-401v815h401z m187-369a52 52 0 0 1 74 0l126 126a52 52 0 0 1 15 36c0 1 0 1 0 2a51 51 0 0 1-1 8c0 0 0 1 0 2a51 51 0 0 1-2 7c0 1 0 2-1 3a53 53 0 0 1-3 6c-1 1-1 2-2 3a53 53 0 0 1-6 8l-126 126a52 52 0 0 1-73 0 52 52 0 0 1-16-37 52 52 0 0 1 16-37l37-37-349 0a52 52 0 0 1-52-52 52 52 0 0 1 52-52l350 0-39-38a52 52 0 0 1-15-37 52 52 0 0 1 15-37" horiz-adv-x="899" />

<glyph glyph-name="hamburger_alt" unicode="&#xe84f;" d="M865 558c0-17-14-31-32-31l-666 0c-18 0-32 14-32 31 0 18 14 32 32 32l666 0c18 0 32-14 32-32z m0-208c0-17-14-31-32-31l-666 0c-18 0-32 14-32 31 0 17 14 31 32 31l666 0c18 0 32-14 32-31z m0-208c0-18-14-32-32-32l-666 0c-18 0-32 14-32 32 0 17 14 31 32 31l666 0c18 0 32-14 32-31z" horiz-adv-x="1000" />

<glyph glyph-name="gd-circle" unicode="&#xe850;" d="M500 844c273 0 494-221 494-494l0 0 0-1 0-11 0 0 0-1c-1-41-7-83-19-122-60-213-252-356-474-359l-1 0 0 0c-273 0-494 221-494 494 0 273 221 494 494 494l0 0z m0-88c-227-2-403-180-406-406 0-224 182-406 406-406 226 2 403 180 406 406l0 11c-1 34-7 67-16 100-51 178-207 291-390 295z m265-174l-98-98-25-25c-30 29-70 46-112 46-87 0-158-71-158-158 0-87 71-158 158-158 74 0 137 51 154 123l-189 0 70 70 191 0c2-11 3-23 3-35-1-126-103-229-229-229-61 0-119 24-162 67l-33-33-100 0 91 91c-16 32-25 68-25 104 0 126 103 228 229 229 36 0 72-9 104-25l31 31 100 0z" horiz-adv-x="1000" />

<glyph glyph-name="rewards" unicode="&#xe851;" d="M891 832h-854a19 19 0 0 1-19-19v-224c0-86 119-157 205-161a252 252 0 0 1 222-180v-174c-63-6-144-48-154-97h-50a19 19 0 0 1-19-19l2-90h480l-1 90a19 19 0 0 1-19 19h-50c-10 50-88 91-151 97v174a252 252 0 0 1 222 180c86 4 204 75 204 162v223a19 19 0 0 1-18 19z m-679-365c-60 9-156 60-156 122v205h156z m369-490h-236c12 33 70 0 119 0s105 33 117 0z m-117 308a214 214 0 0 0-213 214v295h427v-296a214 214 0 0 0-214-213z m408 304c0-62-97-113-156-122v31c0 0 0 0 0 1v295h156v-205z" horiz-adv-x="927" />

<glyph glyph-name="time" unicode="&#xe852;" d="M647-148c-133 0-259 52-353 146s-146 220-146 353 52 259 146 353 220 146 353 146 259-52 353-146 146-220 146-353-52-259-146-353-220-146-353-146z m0 901c-107 0-209-41-285-117-76-76-118-178-118-285s42-209 118-285c76-76 178-118 285-118s209 42 285 118c76 76 118 177 118 285s-42 209-118 285c-76 75-177 117-285 117z m225-466c0 27-21 48-48 48h-145v242c0 26-22 48-48 48-27 0-49-21-49-48v-290c0-27 22-48 49-48h193c27 0 48 21 48 48z" horiz-adv-x="1294" />

<glyph glyph-name="check" unicode="&#xe853;" d="M861 466l-247-294c-9-11-22-17-37-17 0 0 0 0 0 0-14 0-27 6-36 16l-106 117c-18 20-16 51 3 69 20 18 51 16 69-4l69-76 211 251c17 21 48 23 68 6 20-17 23-48 6-68z m-214-615c-133 0-259 52-353 146s-146 220-146 353 52 259 146 353 220 146 353 146 259-52 353-146 146-220 146-353-52-259-146-353-220-146-353-146z m0 902c-107 0-209-42-285-118-76-76-118-177-118-285s42-209 118-285c76-76 178-118 285-118s209 42 285 118c76 76 118 178 118 285s-42 209-118 285c-76 76-177 118-285 118z" horiz-adv-x="1294" />

<glyph glyph-name="facebook-1" unicode="&#xe854;" d="M313 506v126a63 63 0 0 0 62 62h125v156h-187a188 188 0 0 1-188-187v-157h-125v-156h125v-500h188v500h125l63 156z" horiz-adv-x="500" />

<glyph glyph-name="telegram" unicode="&#xe855;" d="M491 191l-21-279a73 73 0 0 1 58 27l138 127 288-202c52-28 90-14 104 46l188 849h0c17 75-28 104-79 86l-1109-408c-76-28-75-68-13-87l284-85 658 396c31 20 59 9 36-11z" horiz-adv-x="1250" />

<glyph glyph-name="whatsapp-1" unicode="&#xe856;" d="M721 267c-3 4-9 7-20 12s-60 30-70 33a34 34 0 0 1-10 3 14 14 0 0 1-13-8c-6-10-26-33-32-40a14 14 0 0 0-11-6 25 25 0 0 0-11 4 276 276 0 0 0-82 50 309 309 0 0 0-57 70c-6 11-1 16 4 21s11 12 16 18a67 67 0 0 1 10 16 19 19 0 0 1-1 18c-2 5-23 55-31 76-7 15-13 17-18 17-2 0-4 0-6 0-6 0-12 1-19 1a38 38 0 0 1-27-13 113 113 0 0 1-36-85 195 195 0 0 1 42-105 418 418 0 0 1 174-153 319 319 0 0 1 100-29 163 163 0 0 1 23 4 104 104 0 0 1 69 48 84 84 0 0 1 6 48z m-213 583a491 491 0 0 1-492-488 485 485 0 0 1 59-232l-72-214a50 50 0 0 1 62-64l225 72a497 497 0 0 1 218-51 488 488 0 1 1 0 977z m0-877a394 394 0 0 0-189 49 50 50 0 0 1-40 4l-150-48 48 141a50 50 0 0 1-4 42 385 385 0 0 0-56 201 392 392 0 1 0 391-389z" horiz-adv-x="1000" />

<glyph glyph-name="link" unicode="&#xe857;" d="M937 577a343 343 0 0 1-155 217 365 365 0 0 1-269 48 356 356 0 0 1-226-149 333 333 0 0 1-50-260 343 343 0 0 1 155-218 56 56 0 0 1 30-8 56 56 0 0 1 46 24 52 52 0 0 1-16 74 237 237 0 0 0-107 150 230 230 0 0 0 35 180 246 246 0 0 0 156 103 252 252 0 0 0 186-33 237 237 0 0 0 107-151 231 231 0 0 0-35-179 52 52 0 0 1 16-74 56 56 0 0 1 77 16 333 333 0 0 1 50 260m-714-582a237 237 0 0 0-107 150 230 230 0 0 0 34 180 52 52 0 0 1-16 74 56 56 0 0 1-76-16 333 333 0 0 1-50-260 343 343 0 0 1 155-218 364 364 0 0 1 194-55 361 361 0 0 1 300 157 333 333 0 0 1 50 260 343 343 0 0 1-155 217 56 56 0 0 1-76-15 52 52 0 0 1 16-74 237 237 0 0 0 107-150 231 231 0 0 0-34-180 253 253 0 0 0-342-70" horiz-adv-x="944" />

<glyph glyph-name="twitter-1" unicode="&#xe858;" d="M1231 732a526 526 0 0 0-146-40 251 251 0 0 1 111 139 504 504 0 0 0-160-61 252 252 0 0 1-436-172 260 260 0 0 1 6-58 714 714 0 0 0-521 264 252 252 0 0 1 78-337 249 249 0 0 0-114 31v-3a254 254 0 0 1 202-248 252 252 0 0 0-66-8 223 223 0 0 0-48 4 255 255 0 0 1 236-176 507 507 0 0 0-313-107 473 473 0 0 0-60 3 710 710 0 0 1 387-113 713 713 0 0 1 718 718c0 11 0 22-1 33a503 503 0 0 1 127 131z" horiz-adv-x="1231" />

<glyph glyph-name="logout-1" unicode="&#xe859;" d="M497 556h96v248a47 47 0 0 1-48 46h-191c-89-1-47 0-160 0h-146a47 47 0 0 1-48-46v-908a47 47 0 0 1 48-46h497a47 47 0 0 1 48 46l0 0v248h-96v-201h-401v815h401z m187-369a52 52 0 0 1 74 0l126 126a52 52 0 0 1 15 36c0 1 0 1 0 2a51 51 0 0 1-1 8c0 0 0 1 0 2a51 51 0 0 1-2 7c0 1 0 2-1 3a53 53 0 0 1-3 6c-1 1-1 2-2 3a53 53 0 0 1-6 8l-126 126a52 52 0 0 1-73 0 52 52 0 0 1-16-37 52 52 0 0 1 16-37l37-37-349 0a52 52 0 0 1-52-52 52 52 0 0 1 52-52l350 0-39-38a52 52 0 0 1-15-37 52 52 0 0 1 15-37" horiz-adv-x="899" />

<glyph glyph-name="copy" unicode="&#xe85a;" d="M136 278a42 42 0 0 1 41-42h106a43 43 0 0 1 0 85h-106a42 42 0 0 1-41-43m0 149a42 42 0 0 1 41-43h226a43 43 0 0 1 0 86h-226a42 42 0 0 1-41-43m0 148a42 42 0 0 1 41-42h226a43 43 0 0 1 0 85h-226a42 42 0 0 1-41-43m491-640h-446v47h272a140 140 0 0 1 116 39 182 182 0 0 1 32 126v513h26z m-129 154h-416v676h416z m210-158v733a79 79 0 0 1-75 82h-53v24a79 79 0 0 1-78 80h-425a79 79 0 0 1-77-80v-686a79 79 0 0 1 77-80h23v-73a79 79 0 0 1 75-81h458a79 79 0 0 1 75 81" horiz-adv-x="708" />

<glyph glyph-name="receive-to-address" unicode="&#xe85b;" d="M189 454a58 58 0 0 1 0-80l135-138a55 55 0 0 1 38-16h2a46 46 0 0 1 8 1h3a43 43 0 0 1 7 2c1 0 2 0 3 1a47 47 0 0 1 7 3c1 1 2 1 3 2a51 51 0 0 1 9 7l135 137a57 57 0 0 1 0 80 55 55 0 0 1-79 0h0l-40-40v132h-111v-133l-41 42a55 55 0 0 1-79 0l0 0z m231 295h-111v-50h111z m-110 50h109a55 55 0 0 1-109 0m110-150h-111v-54h111z m307-428a56 56 0 0 1-55 56h-1a56 56 0 0 1-55-57h0a253 253 0 0 0-73-179 249 249 0 0 0-356-4 259 259 0 0 0-76 184 56 56 0 1 1-111 3c0-1 0-2 0-3a367 367 0 0 1 362-371 360 360 0 0 1 260 111h0a367 367 0 0 1 105 260" horiz-adv-x="727" />

<glyph glyph-name="send-to-address" unicode="&#xe85c;" d="M539 616a58 58 0 0 1 0 80l-136 138a55 55 0 0 1-38 16h-2a50 50 0 0 1-8-1h-2a51 51 0 0 1-8-2c-1 0-2-1-3-1a53 53 0 0 1-7-3c-1-1-2-2-3-2a56 56 0 0 1-8-7l-135-138a58 58 0 0 1 0-80 55 55 0 0 1 78 0l40 41v-132h112v133l41-42a55 55 0 0 1 78 0z m-232-296h112v50h-112z m111-50h-109a55 55 0 0 1 109 0m-111 150h112v55h-112z m420-199a56 56 0 0 1-55 56h-1a56 56 0 0 1-55-57v0a253 253 0 0 0-73-180 249 249 0 0 0-179-76 255 255 0 0 0-253 257 56 56 0 1 1-111 0 368 368 0 0 1 364-371 359 359 0 0 1 258 110h0a367 367 0 0 1 105 261" horiz-adv-x="727" />

<glyph glyph-name="privacy-policy" unicode="&#xe883;" d="M813 384h-626a315 315 0 0 0 626 0m-618-114h610a315 315 0 0 0-610 0m714 80a416 416 0 0 1-98 266 401 401 0 0 1-311 143 409 409 0 1 1 409-409" horiz-adv-x="1000" />

<glyph glyph-name="walletconnect" unicode="&#xe899;" d="M332 654c265 259 693 259 958 0l31-31c14-13 14-34 0-47l-108-107c-7-6-18-6-24 0l-44 43c-185 181-484 181-668 0l-47-46c-7-6-17-6-24 0l-109 107c-13 13-13 34 0 47l35 34z m1183-220l97-95c13-13 13-34 0-47l-437-428c-13-13-35-13-48 0 0 0 0 0 0 0l-310 304c-3 3-9 3-12 0 0 0 0 0 0 0l-310-304c-13-13-35-13-48 0 0 0 0 0 0 0l-437 428c-13 13-13 34 0 47l97 95c13 13 35 13 48 0l310-304c3-3 9-3 12 0 0 0 0 0 0 0l310 304c13 13 35 13 48 0 0 0 0 0 0 0l310-304c3-3 8-3 12 0l310 304c13 13 34 13 48 0z" horiz-adv-x="1622" />

<glyph glyph-name="terms-of-use" unicode="&#xe89f;" d="M160 64a46 46 0 0 1 46-45h92a46 46 0 0 1 0 91h-92a46 46 0 0 1-46-46m0 184a46 46 0 0 1 46-46h183a46 46 0 0 1 0 91h-183a46 46 0 0 1-46-45m0 183a46 46 0 0 1 46-46h321a46 46 0 0 1 0 92h-321a46 46 0 0 1-46-46m0 183a46 46 0 0 1 46-46h321a46 46 0 0 1 0 92h-321a46 46 0 0 1-46-46m474-671h-538v814h538z m96-47v907a47 47 0 0 1-48 47h-191c-89-1-138 0-251 0h-192a47 47 0 0 1-48-46v-907a47 47 0 0 1 48-47h634a47 47 0 0 1 48 47" horiz-adv-x="730" />
</font>
</defs>
</svg>
