<svg xmlns="http://www.w3.org/2000/svg" xmlns:xlink="http://www.w3.org/1999/xlink" width="37.122" height="40.028" viewBox="0 0 37.122 40.028"><defs><style>.a{fill:none;}.b{clip-path:url(#a);}.c{fill:rgba(255,255,255,0);stroke:rgba(0,0,0,0);}.d{fill:#fff;}.e{stroke:none;}</style><clipPath id="a"><rect class="a" width="37.122" height="40.028"/></clipPath></defs><g class="b"><g class="c"><rect class="e" width="37.122" height="40.028"/><rect class="a" x="0.5" y="0.5" width="36.122" height="39.028"/></g><g transform="translate(3.477 3.477)"><path class="d" d="M12.707,3.842a11.34,11.34,0,0,0-4.948-7.2A11.339,11.339,0,0,0-.832-4.949,11.343,11.343,0,0,0-8.029,0a11.339,11.339,0,0,0-1.592,8.59,11.337,11.337,0,0,0,4.948,7.2,1.756,1.756,0,0,0,.956.283,1.755,1.755,0,0,0,1.478-.8,1.762,1.762,0,0,0-.516-2.436A7.891,7.891,0,0,1-5.077,1.916,7.835,7.835,0,0,1-.1-1.506a7.832,7.832,0,0,1,5.94,1.1A7.895,7.895,0,0,1,8.163,10.514a1.76,1.76,0,1,0,2.952,1.917,11.339,11.339,0,0,0,1.592-8.59m-22.8,19.241A7.839,7.839,0,0,1-13.512,18.1a7.84,7.84,0,0,1,1.1-5.94,1.76,1.76,0,0,0-.518-2.434,1.758,1.758,0,0,0-2.434.516,11.342,11.342,0,0,0-1.594,8.591,11.342,11.342,0,0,0,4.949,7.2,11.334,11.334,0,0,0,6.2,1.838,11.418,11.418,0,0,0,9.591-5.194,11.346,11.346,0,0,0,1.592-8.59,11.342,11.342,0,0,0-4.949-7.2,1.762,1.762,0,0,0-2.436.518,1.759,1.759,0,0,0,.52,2.434A7.844,7.844,0,0,1,1.93,14.82a7.847,7.847,0,0,1-1.1,5.94,7.906,7.906,0,0,1-10.919,2.323" transform="translate(17.208 5.203)"/></g></g></svg>