<svg xmlns="http://www.w3.org/2000/svg" xmlns:xlink="http://www.w3.org/1999/xlink" width="41.992" height="42.365" viewBox="0 0 41.992 42.365"><defs><style>.a{fill:none;}.b{clip-path:url(#a);}.c{fill:rgba(255,255,255,0);stroke:rgba(0,0,0,0);}.d{fill:#fff;}.e{stroke:none;}</style><clipPath id="a"><rect class="a" width="41.992" height="42.365"/></clipPath></defs><g class="b"><g transform="translate(-58.61 -1400.179)"><g class="c" transform="translate(58.61 1400.179)"><rect class="e" width="41.992" height="42.365"/><rect class="a" x="0.5" y="0.5" width="40.992" height="41.365"/></g><g transform="translate(61.941 1403.51)"><path class="d" d="M14.118,4.654A11.659,11.659,0,0,0,2.472-6.992,1.687,1.687,0,0,0,.785-5.306,1.687,1.687,0,0,0,2.472-3.619a8.282,8.282,0,0,1,8.273,8.273,1.686,1.686,0,0,0,3.373,0M1.74.86A3.006,3.006,0,0,0-1.354,3.953V5.6a3,3,0,0,0,3.07,3.09l.007.723a.843.843,0,0,0,.844.834h.007A.844.844,0,0,0,3.41,9.4L3.4,8.691A3,3,0,0,0,6.448,5.6V3.953A3,3,0,0,0,3.357.86Zm0,1.687H3.357A1.327,1.327,0,0,1,4.763,3.953V5.6A1.328,1.328,0,0,1,3.352,7.009H1.74A1.326,1.326,0,0,1,.334,5.6V3.953A1.326,1.326,0,0,1,1.74,2.547m.008,1.969-.013.043a.823.823,0,0,0,.571,1.028.8.8,0,0,0,.232.035A.874.874,0,0,0,3.362,5a.842.842,0,1,0-1.614-.483m-4.481-2.58A.843.843,0,0,0-3.3.885a.842.842,0,0,0-1.049.566l-.013.043a.824.824,0,0,0,.571,1.028.8.8,0,0,0,.232.035.873.873,0,0,0,.824-.621M-4.22,3.21a.845.845,0,0,0-.853-.834l-1.073.012A2.881,2.881,0,0,0-8.832.86h-1.617a3.006,3.006,0,0,0-3.091,3.093V5.6a3,3,0,0,0,3.091,3.091h1.617A3,3,0,0,0-5.739,5.6V4.069l.685-.007A.844.844,0,0,0-4.22,3.21M-7.426,5.6A1.328,1.328,0,0,1-8.837,7.009h-1.612A1.328,1.328,0,0,1-11.855,5.6V3.953a1.326,1.326,0,0,1,1.406-1.406h1.617A1.326,1.326,0,0,1-7.426,3.953Zm-1.389-.616A.843.843,0,0,0-9.4,3.946a.844.844,0,0,0-1.041.581l-.013.043A.825.825,0,0,0-9.863,5.59a.771.771,0,0,0,.22.032.875.875,0,0,0,.828-.635m.938-10.294A1.687,1.687,0,0,0-9.565-6.992,11.659,11.659,0,0,0-21.211,4.654,1.686,1.686,0,0,0-19.524,6.34a1.685,1.685,0,0,0,1.686-1.686A8.282,8.282,0,0,1-9.565-3.619,1.687,1.687,0,0,0-7.878-5.306M-21.211,17.065A11.66,11.66,0,0,0-9.565,28.711a1.687,1.687,0,0,0,1.687-1.686,1.687,1.687,0,0,0-1.687-1.687,8.282,8.282,0,0,1-8.273-8.273,1.687,1.687,0,0,0-1.686-1.687,1.687,1.687,0,0,0-1.687,1.687m7.7,2.712a.825.825,0,0,0,.588,1.019.832.832,0,0,0,.22.03.873.873,0,0,0,.828-.635.843.843,0,0,0-.581-1.041.843.843,0,0,0-1.041.581Zm-.038-4.362.015,1.577a.841.841,0,0,0,.843.836h.007a.842.842,0,0,0,.836-.849L-11.86,15.4a.845.845,0,0,0-.851-.836.844.844,0,0,0-.836.849m3.884,5.455,6.086-.013a.843.843,0,0,0,.841-.846.843.843,0,0,0-.843-.841h0l-.961,0a.864.864,0,0,0,.3-.445.843.843,0,0,0-.581-1.041.844.844,0,0,0-1.041.581l-.012.043a.811.811,0,0,0,.283.864l-3.23.008,0-1.354.741-.007a.843.843,0,0,0,.834-.851.842.842,0,0,0-.843-.836H-8.1l-.728.008L-8.83,11.7l2.209,0a.843.843,0,0,0,.841-.846.829.829,0,0,0-.844-.839l-6.088.013a.844.844,0,0,0-.841.846.843.843,0,0,0,.843.841h0l2.19,0,0,1.382-.73.008a.843.843,0,0,0-.836.851.843.843,0,0,0,.843.834h.008l.716-.007,0,2.888-.7.007a.843.843,0,0,0-.836.851.843.843,0,0,0,.844.834h.008l.691,0,0,.653c0,.01-.007.018-.007.028a.843.843,0,0,0,.843.841ZM-2.7,6.3l-.013-1.576a.834.834,0,0,0-.851-.836.845.845,0,0,0-.836.851L-4.39,6.32a.842.842,0,0,0,.843.836h.007A.842.842,0,0,0-2.7,6.3m3.749,3.7-3.756.012-.007-.74a.848.848,0,0,0-.851-.836.845.845,0,0,0-.836.851l.015,1.576a.8.8,0,0,0,.058.278c0,.015,0,.032.008.047a.9.9,0,0,0,.127.187c.022.027.033.058.055.08a1.075,1.075,0,0,0,.09.062.832.832,0,0,0,.5.185h0l4.6-.015a.843.843,0,0,0,0-1.686Zm-5.4,5.183-.013.043A.822.822,0,0,0-3.8,16.26a.8.8,0,0,0,.232.035.875.875,0,0,0,.824-.621A.846.846,0,0,0-3.3,14.623a.843.843,0,0,0-1.049.566m-1.419.271-.013-1.577a.845.845,0,0,0-.844-.836h-.008a.844.844,0,0,0-.834.851l.015,1.577a.842.842,0,0,0,.843.834h.008a.841.841,0,0,0,.834-.849M-5.9,12.168A.822.822,0,0,0-5.333,13.2a.794.794,0,0,0,.232.033.873.873,0,0,0,.824-.621.841.841,0,0,0-.565-1.049.841.841,0,0,0-1.049.565ZM6.462,10.817a.843.843,0,0,0-.843-.834H5.61L4.033,10a.843.843,0,0,0,.008,1.686h.007l1.579-.015a.842.842,0,0,0,.834-.851M-2.881,17a.843.843,0,0,0,.843.834h.01l.681-.008A2.992,2.992,0,0,0,1.74,20.849H3.357a3,3,0,0,0,3.091-3.091V16.105A3,3,0,0,0,3.4,13.019l0-.646a.843.843,0,0,0-.844-.834H2.544a.842.842,0,0,0-.834.851l.007.621C1.7,13.01,1.688,13,1.673,13h0l-3.711.013a.844.844,0,0,0-.841.848.844.844,0,0,0,.843.839h0l.979,0a3.234,3.234,0,0,0-.3,1.406v.037l-.693.007A.844.844,0,0,0-2.881,17m3.215-.9A1.324,1.324,0,0,1,1.74,14.7H3.357a1.326,1.326,0,0,1,1.406,1.4v1.652a1.325,1.325,0,0,1-1.411,1.4H1.74a1.325,1.325,0,0,1-1.406-1.4Zm1.406.66a.826.826,0,0,0,.593,1.018.806.806,0,0,0,.217.028.875.875,0,0,0,.829-.636.844.844,0,1,0-1.626-.453ZM.785,27.023a1.688,1.688,0,0,0,1.687,1.687A11.66,11.66,0,0,0,14.118,17.063a1.686,1.686,0,0,0-3.373,0,8.284,8.284,0,0,1-8.273,8.275A1.687,1.687,0,0,0,.785,27.023" transform="translate(21.211 6.992)"/></g></g></g></svg>