<?xml version="1.0" encoding="UTF-8" ?>
<!DOCTYPE svg PUBLIC "-//W3C//DTD SVG 1.1//EN" "http://www.w3.org/Graphics/SVG/1.1/DTD/svg11.dtd">
<svg width="76pt" height="58pt" viewBox="0 0 76 58" version="1.1" xmlns="http://www.w3.org/2000/svg">
<g id="#a66477ff">
<path fill="#a66477" opacity="1.00" d=" M 23.47 5.28 C 26.83 4.63 28.55 0.86 32.03 0.49 C 37.56 -0.47 42.72 2.46 48.07 3.25 C 50.05 3.47 51.73 2.21 53.34 1.28 C 58.29 3.20 61.48 7.62 63.93 12.10 C 66.18 16.17 70.10 19.98 75.14 19.24 C 72.52 27.44 65.23 35.20 56.02 34.56 C 52.05 33.95 48.03 36.27 44.22 35.17 C 39.60 30.89 37.60 24.38 32.90 20.10 C 31.02 18.48 28.49 19.59 26.64 20.63 C 23.46 22.36 19.99 25.10 20.07 29.10 C 20.42 30.97 21.11 32.76 21.30 34.66 C 20.41 37.37 19.04 39.95 18.91 42.87 C 18.80 46.29 16.02 48.51 14.12 51.02 C 12.85 52.70 13.64 55.50 11.55 56.61 C 9.14 57.92 6.33 57.03 3.75 56.94 C 5.10 55.15 7.04 53.43 7.03 50.99 C 6.91 46.53 2.02 43.48 2.80 38.87 C 3.88 34.37 6.47 29.99 5.56 25.21 C 4.22 20.99 -0.00 17.74 0.30 13.02 C 1.98 9.58 5.39 6.93 9.13 6.12 C 13.90 5.72 18.76 6.37 23.47 5.28 Z" />
</g>
</svg>
