<?xml version="1.0" encoding="UTF-8" ?>
<!DOCTYPE svg PUBLIC "-//W3C//DTD SVG 1.1//EN" "http://www.w3.org/Graphics/SVG/1.1/DTD/svg11.dtd">
<svg width="36pt" height="23pt" viewBox="0 0 36 23" version="1.1" xmlns="http://www.w3.org/2000/svg">
<g id="#88455eff">
<path fill="#88455e" opacity="1.00" d=" M 10.97 2.50 C 15.70 2.57 20.06 -0.34 24.80 0.37 C 27.41 1.00 27.76 3.83 28.39 5.96 C 30.44 6.70 33.55 5.92 34.65 8.26 C 35.71 10.88 33.23 12.99 31.54 14.60 C 28.79 16.90 26.40 19.84 23.01 21.22 C 19.90 22.49 17.21 19.24 14.09 19.89 C 11.30 20.21 8.21 20.84 5.68 19.22 C 1.94 17.34 0.80 12.85 0.48 9.01 C 0.42 6.98 0.24 4.36 2.19 3.09 C 4.84 1.45 8.07 2.90 10.97 2.50 Z" />
</g>
</svg>
