<?xml version="1.0" encoding="UTF-8" ?>
<!DOCTYPE svg PUBLIC "-//W3C//DTD SVG 1.1//EN" "http://www.w3.org/Graphics/SVG/1.1/DTD/svg11.dtd">
<svg width="31pt" height="41pt" viewBox="0 0 31 41" version="1.1" xmlns="http://www.w3.org/2000/svg">
<g id="#00c3aeff">
<path fill="#00c3ae" opacity="1.00" d=" M 8.38 12.71 C 9.55 8.01 13.21 4.67 16.05 0.95 C 13.81 5.22 13.98 10.46 16.53 14.56 C 20.40 20.64 25.45 26.05 28.15 32.82 C 29.24 35.37 29.12 38.19 28.69 40.87 C 24.29 34.61 19.87 27.87 13.11 23.92 C 10.81 22.42 7.56 23.47 5.57 21.45 C 4.20 18.84 5.79 16.01 6.76 13.55 C 5.31 12.71 2.78 12.50 2.89 10.32 C 4.36 11.04 5.79 11.83 7.18 12.69 C 7.65 11.25 6.07 8.25 8.15 7.84 C 8.17 9.47 8.19 11.10 8.38 12.71 Z" />
</g>
</svg>
