<?xml version="1.0" encoding="UTF-8" ?>
<!DOCTYPE svg PUBLIC "-//W3C//DTD SVG 1.1//EN" "http://www.w3.org/Graphics/SVG/1.1/DTD/svg11.dtd">
<svg width="32pt" height="77pt" viewBox="0 0 32 77" version="1.1" xmlns="http://www.w3.org/2000/svg">
<g id="#9f6a9dff">
<path fill="#9f6a9d" opacity="1.00" d=" M 2.05 0.00 L 3.35 0.00 C 8.52 4.77 16.05 6.12 22.86 7.13 C 27.18 8.69 28.71 13.49 32.00 16.22 L 32.00 16.69 C 29.94 18.93 29.04 21.94 27.60 24.57 C 24.91 30.59 21.18 36.27 20.19 42.91 C 19.35 47.84 18.02 53.55 21.11 57.99 C 23.66 62.44 26.87 66.80 27.55 72.01 C 27.18 74.76 23.44 75.96 21.14 74.86 C 15.53 72.40 11.62 66.94 10.14 61.09 C 8.16 55.22 9.64 49.03 9.71 43.00 C 9.69 37.60 11.28 31.95 9.15 26.76 C 6.85 20.36 4.80 13.55 0.09 8.43 C 0.76 5.65 2.13 2.90 2.05 0.00 Z" />
</g>
</svg>
