<svg xmlns="http://www.w3.org/2000/svg" xmlns:xlink="http://www.w3.org/1999/xlink" width="70.668" height="110.154" viewBox="0 0 70.668 110.154"><defs><style>.a{fill:none;}.b{clip-path:url(#a);}.c{fill:url(#b);}.d{fill:#f6b9ad;}.e{fill:url(#c);}.f{fill:url(#d);}.g,.m{fill:#fff;}.h{fill:#fa6c77;}.i{fill:#dbdbdb;}.j{fill:url(#e);}.k{fill:url(#f);}.l{fill:url(#g);}.m{opacity:0.2;}.n{fill:url(#h);}.o{fill:url(#i);}.p{fill:url(#j);}</style><clipPath id="a"><rect class="a" width="70.668" height="110.154"/></clipPath><linearGradient id="b" x1="0.5" y1="1" x2="0.5" gradientUnits="objectBoundingBox"><stop offset="0" stop-color="gray" stop-opacity="0.251"/><stop offset="0.54" stop-color="gray" stop-opacity="0.122"/><stop offset="1" stop-color="gray" stop-opacity="0.102"/></linearGradient><linearGradient id="c" x1="0.5" y1="1" x2="0.5" y2="0" xlink:href="#b"/><linearGradient id="d" x1="1.115" y1="1.124" x2="1.115" y2="0.124" xlink:href="#b"/><linearGradient id="e" x1="0.5" y1="1" x2="0.5" y2="0" xlink:href="#b"/><linearGradient id="f" x1="1.17" y1="2.05" x2="1.17" y2="1.05" xlink:href="#b"/><linearGradient id="g" x1="0.5" x2="0.5" y2="1" gradientUnits="objectBoundingBox"><stop offset="0" stop-color="#00afff"/><stop offset="0.1" stop-color="#2dc0f7"/><stop offset="0.2" stop-color="#28c0ef"/><stop offset="0.3" stop-color="#23c0e7"/><stop offset="0.4" stop-color="#1ec1df"/><stop offset="0.5" stop-color="#19c1d7"/><stop offset="0.6" stop-color="#14c1cf"/><stop offset="0.7" stop-color="#0fc2c7"/><stop offset="0.8" stop-color="#0ac2bf"/><stop offset="0.9" stop-color="#05c2b7"/><stop offset="1" stop-color="#00c3af"/></linearGradient><linearGradient id="h" x1="0.5" y1="1" x2="0.5" y2="0" xlink:href="#b"/><linearGradient id="i" x1="0.5" y1="1" x2="0.5" y2="0" xlink:href="#b"/><linearGradient id="j" x1="0.5" y1="1" x2="0.5" y2="0" xlink:href="#b"/></defs><g class="b"><path class="c" d="M444.243,513.305a11.846,11.846,0,0,0-23.485-2.208l-36.408-.988.4,6.255s-5.192,11.979,22.094,15.17v12.107h31.543v-20.13A11.839,11.839,0,0,0,444.243,513.305Z" transform="translate(-373.659 -438.874)"/><path class="d" d="M393.388,570.381s-4.971,11.471,21.159,14.532v11.6h30.208v-30.72L393,564.39Z" transform="translate(-381.047 -492.628)"/><path class="e" d="M344.189,164.912h0a5.569,5.569,0,0,1-7.658,1.74l-16.219-10.688a5.569,5.569,0,0,1-1.74-7.658h0a5.569,5.569,0,0,1,7.652-1.74l16.219,10.688A5.569,5.569,0,0,1,344.189,164.912Z" transform="translate(-316.75 -135.029)"/><path class="d" d="M348.919,168.805h0a5.177,5.177,0,0,1-7.118,1.618l-15.082-9.935a5.177,5.177,0,0,1-1.618-7.118h0a5.177,5.177,0,0,1,7.118-1.618l15.079,9.937A5.177,5.177,0,0,1,348.919,168.805Z" transform="translate(-322.379 -139.507)"/><circle class="d" cx="11.344" cy="11.344" r="11.344" transform="translate(46.628 63.479)"/><rect class="f" width="47.031" height="84.891" rx="12.25" transform="translate(10.685)"/><rect class="g" width="45.759" height="82.598" rx="13.64" transform="translate(11.322 1.148)"/><path class="h" d="M429.768,94.49a3.709,3.709,0,0,1-3.657,3.155h-15.8a3.71,3.71,0,0,1-3.656-3.155h-8.373a1.737,1.737,0,0,0-1.739,1.737V171.2a1.737,1.737,0,0,0,1.737,1.739h39.989A1.737,1.737,0,0,0,440,171.206V96.229a1.737,1.737,0,0,0-1.737-1.739Z" transform="translate(-384.026 -91.272)"/><rect class="i" width="10.198" height="0.637" rx="0.319" transform="translate(29.167 4.207)"/><circle class="i" cx="0.382" cy="0.382" r="0.382" transform="translate(41.149 4.08)"/><path class="j" d="M676.589,363.174h0c-3.292.761-5.552-1.386-6.313-4.677l-7.565-28.089a6.162,6.162,0,0,1,4.6-7.368h0a6.162,6.162,0,0,1,7.368,4.6l6.173,28.809A5.316,5.316,0,0,1,676.589,363.174Z" transform="translate(-611.282 -286.352)"/><rect class="k" width="43.178" height="10.065" transform="translate(26.092 100.089)"/><rect class="l" width="40.844" height="7.877" transform="translate(27.259 101.256)"/><path class="m" d="M.672.672A.672.672,0,0,1,0,0Z" transform="translate(24.871 38.043) rotate(0.13)"/><path class="n" d="M333.016,393.435h0a5.5,5.5,0,0,1-7.566,1.72l-10.879-7.038a5.5,5.5,0,0,1-1.72-7.566h0a5.5,5.5,0,0,1,7.566-1.72l10.878,7.04A5.5,5.5,0,0,1,333.016,393.435Z" transform="translate(-311.873 -333.42)"/><path class="o" d="M338,507.582h0a5.552,5.552,0,0,1-7.635,1.736l-6.738-4.916a5.552,5.552,0,0,1-1.736-7.635h0a5.552,5.552,0,0,1,7.635-1.73l6.738,4.914A5.552,5.552,0,0,1,338,507.582Z" transform="translate(-319.593 -432.667)"/><path class="d" d="M340.99,510.353h0a5.177,5.177,0,0,1-7.118,1.618l-6.283-4.583a5.177,5.177,0,0,1-1.618-7.118h0a5.177,5.177,0,0,1,7.118-1.618l6.283,4.583a5.177,5.177,0,0,1,1.618,7.118Z" transform="translate(-323.122 -435.805)"/><path class="p" d="M335.012,280.245h0a5.528,5.528,0,0,1-7.6,1.727L313.626,273a5.528,5.528,0,0,1-1.727-7.6h0a5.528,5.528,0,0,1,7.6-1.727l13.785,8.975A5.528,5.528,0,0,1,335.012,280.245Z" transform="translate(-311.056 -235.053)"/><g transform="translate(-261 -97.49)"><rect class="g" width="28.764" height="37.224" rx="5" transform="translate(282.076 122.384)"/><g transform="translate(277 119)"><path class="h" d="M-38.894-15.063c0-15.86-2.751-22-18.612-22s-18.612,6.136-18.612,22,2.752,22,18.612,22,18.612-6.135,18.612-22m-12.555-9.013a1.918,1.918,0,0,1-1.362.563,1.92,1.92,0,0,1-1.363-.563L-55.6-25.5v12.962a1.926,1.926,0,0,1-1.927,1.927,1.926,1.926,0,0,1-1.927-1.927V-25.466l-1.389,1.389a1.92,1.92,0,0,1-1.363.563,1.921,1.921,0,0,1-1.363-.563,1.927,1.927,0,0,1,0-2.724l4.678-4.678a1.944,1.944,0,0,1,.3-.242c.034-.023.073-.039.109-.059a1.962,1.962,0,0,1,.228-.119c.036-.014.073-.022.109-.034a1.98,1.98,0,0,1,.258-.074c.026-.006.053,0,.078-.008a1.881,1.881,0,0,1,.283-.029c.025,0,.048.007.072.008a1.919,1.919,0,0,1,1.323.557l4.679,4.68a1.926,1.926,0,0,1,0,2.724m6.524,13.393a12.35,12.35,0,0,1-3.633,8.849,12.521,12.521,0,0,1-8.948,3.749A12.6,12.6,0,0,1-70.087-10.667a1.927,1.927,0,0,1,1.927-1.927,1.928,1.928,0,0,1,1.927,1.927,8.738,8.738,0,0,0,8.728,8.728,8.7,8.7,0,0,0,6.211-2.607,8.52,8.52,0,0,0,2.517-6.1,1.928,1.928,0,0,1,1.91-1.945h.018a1.926,1.926,0,0,1,1.926,1.91" transform="translate(76.118 37.059)"/></g></g><path class="d" d="M338.889,283.477h0a5.177,5.177,0,0,1-7.118,1.618l-12.911-8.406a5.177,5.177,0,0,1-1.618-7.118h0a5.177,5.177,0,0,1,7.118-1.618l12.911,8.407A5.177,5.177,0,0,1,338.889,283.477Z" transform="translate(-315.666 -238.757)"/><path class="d" d="M336.2,396.142h0a5.177,5.177,0,0,1-7.118,1.618l-10.234-6.622a5.177,5.177,0,0,1-1.618-7.118h0a5.177,5.177,0,0,1,7.118-1.625l10.234,6.622A5.177,5.177,0,0,1,336.2,396.142Z" transform="translate(-315.657 -336.507)"/><rect class="d" width="10.325" height="41.224" rx="5.162" transform="translate(51.328 39.275) rotate(-13.01)"/></g></svg>