<?xml version="1.0" encoding="UTF-8" ?>
<!DOCTYPE svg PUBLIC "-//W3C//DTD SVG 1.1//EN" "http://www.w3.org/Graphics/SVG/1.1/DTD/svg11.dtd">
<svg width="360px" height="638px" viewBox="0 0 360 638" version="1.1" xmlns="http://www.w3.org/2000/svg">
<g id="#11111158">
<path fill="#111111" opacity="0.35" d=" M 248.27 0.00 L 262.03 0.00 C 261.10 1.40 260.33 2.91 259.23 4.18 C 257.44 5.38 255.11 5.28 253.07 4.99 C 250.53 4.58 249.74 1.73 248.27 0.00 Z" />
</g>
<g id="#58585858">
<path fill="#585858" opacity="0.35" d=" M 317.92 1.12 C 319.50 0.64 320.02 1.23 319.48 2.88 C 317.88 3.38 317.36 2.80 317.92 1.12 Z" />
<path fill="#585858" opacity="0.35" d=" M 219.12 290.09 C 220.75 289.53 221.30 290.07 220.79 291.70 C 219.17 292.26 218.61 291.72 219.12 290.09 Z" />
<path fill="#585858" opacity="0.35" d=" M 88.48 415.19 C 90.08 414.66 90.60 415.23 90.04 416.91 C 88.44 417.42 87.92 416.85 88.48 415.19 Z" />
</g>
<g id="#55555555">
<path fill="#555555" opacity="0.33" d=" M 25.50 3.04 C 26.91 2.63 27.39 3.12 26.93 4.52 C 25.53 4.92 25.05 4.43 25.50 3.04 Z" />
<path fill="#555555" opacity="0.33" d=" M 321.27 81.09 C 322.55 81.72 322.57 82.42 321.32 83.19 C 320.03 82.56 320.01 81.86 321.27 81.09 Z" />
</g>
<g id="#09090945">
<path fill="#090909" opacity="0.27" d=" M 130.27 8.30 C 131.80 7.77 133.63 7.89 134.57 9.37 C 134.73 10.93 135.27 13.69 133.06 13.97 C 131.78 14.24 130.56 14.09 129.40 13.53 C 128.82 11.93 128.24 9.08 130.27 8.30 Z" />
<path fill="#090909" opacity="0.27" d=" M 258.28 43.27 C 260.35 41.98 264.29 42.16 264.69 45.12 C 265.49 47.86 262.98 50.79 260.11 49.90 C 257.00 49.43 256.97 45.43 258.28 43.27 Z" />
<path fill="#090909" opacity="0.27" d=" M 187.25 120.26 C 188.80 119.89 190.42 120.04 192.00 120.00 C 192.08 122.11 193.13 125.82 189.89 125.92 C 186.68 126.54 185.21 122.38 187.25 120.26 Z" />
<path fill="#090909" opacity="0.27" d=" M 114.31 480.14 C 116.56 479.05 120.30 479.90 120.10 482.97 C 121.02 486.86 115.50 488.47 113.30 485.80 C 112.27 484.08 112.35 481.11 114.31 480.14 Z" />
<path fill="#090909" opacity="0.27" d=" M 46.21 596.07 C 47.57 595.23 49.32 595.55 50.65 596.29 C 51.79 598.40 51.10 601.94 48.06 601.47 C 45.08 601.79 43.85 597.53 46.21 596.07 Z" />
</g>
<g id="#64646464">
<path fill="#646464" opacity="0.39" d=" M 53.32 12.33 C 54.94 11.75 55.48 12.29 54.94 13.94 C 53.30 14.49 52.76 13.95 53.32 12.33 Z" />
<path fill="#646464" opacity="0.39" d=" M 283.31 224.33 C 284.93 223.75 285.47 224.29 284.94 225.94 C 283.30 226.49 282.76 225.96 283.31 224.33 Z" />
<path fill="#646464" opacity="0.39" d=" M 349.33 499.31 C 350.96 498.76 351.49 499.30 350.93 500.95 C 349.28 501.47 348.75 500.93 349.33 499.31 Z" />
</g>
<g id="#8b8b8b8b">
<path fill="#8b8b8b" opacity="0.55" d=" M 265.50 18.91 C 265.92 19.26 266.77 19.95 267.20 20.30 C 266.66 21.21 266.12 22.12 265.59 23.03 C 264.88 22.14 264.17 21.26 263.45 20.38 C 263.96 20.01 264.98 19.28 265.50 18.91 Z" />
<path fill="#8b8b8b" opacity="0.55" d=" M 112.87 336.14 C 114.24 335.68 114.69 336.18 114.23 337.62 C 112.87 338.08 112.41 337.59 112.87 336.14 Z" />
</g>
<g id="#9e9e9e9e">
<path fill="#9e9e9e" opacity="0.62" d=" M 296.29 19.68 C 297.19 19.74 297.65 20.79 298.28 21.33 C 298.38 22.49 296.35 23.44 295.53 22.47 C 294.60 21.61 295.43 20.21 296.29 19.68 Z" />
</g>
<g id="#90909090">
<path fill="#909090" opacity="0.56" d=" M 66.47 21.95 C 67.88 21.48 68.39 21.95 67.98 23.35 C 66.58 23.80 66.08 23.34 66.47 21.95 Z" />
<path fill="#909090" opacity="0.56" d=" M 349.44 87.08 C 352.50 85.58 349.52 90.38 349.44 87.08 Z" />
<path fill="#909090" opacity="0.56" d=" M 301.27 258.17 C 301.81 258.72 301.81 258.72 301.27 258.17 Z" />
<path fill="#909090" opacity="0.56" d=" M 137.13 339.34 C 137.88 339.61 138.63 339.89 139.38 340.17 C 139.22 341.03 139.07 341.89 138.91 342.75 C 137.91 342.46 136.91 342.19 135.91 341.92 C 136.32 341.06 136.73 340.20 137.13 339.34 Z" />
<path fill="#909090" opacity="0.56" d=" M 339.04 533.89 C 340.50 533.49 340.97 533.97 340.46 535.32 C 339.00 535.71 338.52 535.24 339.04 533.89 Z" />
</g>
<g id="#00000033">
<path fill="#000000" opacity="0.20" d=" M 120.96 28.90 C 122.84 28.63 125.03 27.86 126.62 29.35 C 127.35 30.97 127.56 33.73 125.68 34.64 C 124.17 35.38 122.24 35.14 121.15 33.79 C 120.62 32.22 121.00 30.52 120.96 28.90 Z" />
<path fill="#000000" opacity="0.20" d=" M 240.30 134.32 C 242.72 133.13 245.79 135.31 245.04 138.05 C 245.16 141.07 240.81 141.89 239.17 139.79 C 237.79 138.15 238.31 135.19 240.30 134.32 Z" />
<path fill="#000000" opacity="0.20" d=" M 339.97 159.77 C 338.88 157.44 339.34 153.03 342.91 154.08 C 345.96 154.46 345.04 158.16 344.13 160.08 C 342.74 159.97 341.35 159.87 339.97 159.77 Z" />
<path fill="#000000" opacity="0.20" d=" M 269.39 187.44 C 274.16 185.90 274.78 194.66 269.95 194.04 C 266.24 194.35 265.66 187.62 269.39 187.44 Z" />
<path fill="#000000" opacity="0.20" d=" M 228.05 314.00 C 228.05 311.94 226.95 308.18 230.03 307.95 C 232.57 307.12 234.87 309.44 234.05 311.97 C 233.89 315.02 230.07 313.94 228.05 314.00 Z" />
<path fill="#000000" opacity="0.20" d=" M 302.54 369.56 C 304.30 368.50 307.94 368.36 308.12 371.07 C 308.13 372.38 308.09 373.70 307.99 375.02 C 306.19 374.94 304.17 375.57 302.57 374.48 C 301.46 373.09 301.89 371.06 302.54 369.56 Z" />
<path fill="#000000" opacity="0.20" d=" M 98.35 507.42 C 100.45 506.24 104.15 507.07 103.97 509.99 C 104.39 513.36 99.68 514.74 97.68 512.37 C 96.83 510.91 96.78 508.33 98.35 507.42 Z" />
<path fill="#000000" opacity="0.20" d=" M 62.86 608.89 C 65.00 608.40 68.95 607.70 69.06 610.97 C 70.09 614.44 65.10 616.51 63.13 613.75 C 62.61 612.18 62.93 610.49 62.86 608.89 Z" />
</g>
<g id="#84848484">
<path fill="#848484" opacity="0.52" d=" M 220.18 48.33 C 218.75 46.88 219.40 45.33 220.31 43.86 C 221.00 44.74 221.70 45.62 222.40 46.49 C 221.84 46.95 220.73 47.87 220.18 48.33 Z" />
<path fill="#848484" opacity="0.52" d=" M 99.89 441.84 C 100.80 441.38 101.70 440.93 102.61 440.47 C 102.96 441.04 103.65 442.17 104.00 442.74 C 103.08 443.16 102.17 443.59 101.24 444.00 C 100.90 443.46 100.23 442.38 99.89 441.84 Z" />
<path fill="#848484" opacity="0.52" d=" M 275.12 480.06 C 276.77 479.54 277.32 480.08 276.79 481.71 C 275.16 482.23 274.60 481.68 275.12 480.06 Z" />
<path fill="#848484" opacity="0.52" d=" M 124.02 506.11 C 125.63 505.60 126.16 506.17 125.62 507.81 C 124.02 508.34 123.48 507.77 124.02 506.11 Z" />
</g>
<g id="#80808080">
<path fill="#808080" opacity="0.50" d=" M 38.23 45.03 C 39.89 44.54 40.44 45.10 39.90 46.72 C 38.27 47.19 37.71 46.63 38.23 45.03 Z" />
<path fill="#808080" opacity="0.50" d=" M 126.16 101.03 C 127.82 100.53 128.37 101.09 127.82 102.70 C 126.18 103.19 125.63 102.63 126.16 101.03 Z" />
<path fill="#808080" opacity="0.50" d=" M 70.87 110.10 C 73.84 108.51 71.07 113.43 70.87 110.10 Z" />
<path fill="#808080" opacity="0.50" d=" M 199.59 272.09 C 202.55 270.52 199.75 275.44 199.59 272.09 Z" />
<path fill="#808080" opacity="0.50" d=" M 284.96 293.17 C 286.56 292.69 287.09 293.27 286.56 294.91 C 284.94 295.40 284.41 294.82 284.96 293.17 Z" />
<path fill="#808080" opacity="0.50" d=" M 313.88 450.22 C 315.22 449.67 315.67 450.14 315.23 451.62 C 313.89 452.18 313.44 451.71 313.88 450.22 Z" />
<path fill="#808080" opacity="0.50" d=" M 190.31 474.06 C 193.37 472.57 190.38 477.37 190.31 474.06 Z" />
</g>
<g id="#70707070">
<path fill="#707070" opacity="0.44" d=" M 294.62 48.20 C 297.49 46.45 295.04 51.50 294.62 48.20 Z" />
<path fill="#707070" opacity="0.44" d=" M 310.16 129.37 C 311.46 130.05 311.40 130.70 310.01 131.31 C 308.70 130.63 308.75 129.99 310.16 129.37 Z" />
<path fill="#707070" opacity="0.44" d=" M 287.04 195.07 C 290.34 195.39 285.35 198.00 287.04 195.07 Z" />
<path fill="#707070" opacity="0.44" d=" M 54.02 470.13 C 55.40 469.66 55.87 470.14 55.44 471.58 C 54.07 472.05 53.60 471.57 54.02 470.13 Z" />
</g>
<g id="#75757575">
<path fill="#757575" opacity="0.46" d=" M 7.92 49.28 C 9.27 48.93 9.72 49.46 9.27 50.89 C 7.89 51.25 7.44 50.72 7.92 49.28 Z" />
<path fill="#757575" opacity="0.46" d=" M 263.19 319.37 C 264.50 320.04 264.44 320.68 263.02 321.28 C 261.70 320.62 261.76 319.99 263.19 319.37 Z" />
<path fill="#757575" opacity="0.46" d=" M 310.11 365.76 C 311.49 365.20 312.06 365.62 311.83 367.02 C 310.43 367.56 309.86 367.14 310.11 365.76 Z" />
<path fill="#757575" opacity="0.46" d=" M 69.00 370.97 C 70.42 370.54 70.88 371.03 70.38 372.43 C 68.96 372.84 68.50 372.36 69.00 370.97 Z" />
</g>
<g id="#95959595">
<path fill="#959595" opacity="0.58" d=" M 179.41 53.04 C 180.67 52.01 182.11 51.89 183.44 52.88 C 183.02 53.54 182.20 54.85 181.78 55.51 C 180.98 54.70 180.19 53.87 179.41 53.04 Z" />
<path fill="#959595" opacity="0.58" d=" M 162.37 125.29 C 163.31 125.52 164.25 125.80 165.18 126.11 C 164.72 126.87 164.26 127.64 163.80 128.41 C 163.25 128.27 162.14 128.00 161.59 127.86 C 161.79 127.22 162.18 125.93 162.37 125.29 Z" />
</g>
<g id="#6d6d6d6d">
<path fill="#6d6d6d" opacity="0.43" d=" M 240.26 59.37 C 241.92 58.88 242.56 61.45 240.89 61.85 C 239.35 62.38 238.69 59.67 240.26 59.37 Z" />
</g>
<g id="#7c7c7c7c">
<path fill="#7c7c7c" opacity="0.49" d=" M 275.09 67.50 C 276.74 66.97 277.32 67.50 276.85 69.09 C 275.18 69.63 274.59 69.09 275.09 67.50 Z" />
<path fill="#7c7c7c" opacity="0.49" d=" M 248.15 216.55 C 249.81 216.04 250.37 216.58 249.86 218.16 C 248.18 218.67 247.61 218.14 248.15 216.55 Z" />
<path fill="#7c7c7c" opacity="0.49" d=" M 116.05 454.49 C 117.67 453.94 118.26 454.46 117.82 456.08 C 116.18 456.65 115.59 456.12 116.05 454.49 Z" />
</g>
<g id="#5c5c5c5c">
<path fill="#5c5c5c" opacity="0.36" d=" M 81.99 104.19 C 83.59 103.70 84.14 104.27 83.62 105.91 C 82.01 106.42 81.47 105.84 81.99 104.19 Z" />
<path fill="#5c5c5c" opacity="0.36" d=" M 132.40 412.21 C 134.00 411.65 134.53 412.20 134.00 413.88 C 132.40 414.42 131.86 413.86 132.40 412.21 Z" />
<path fill="#5c5c5c" opacity="0.36" d=" M 68.37 423.03 C 69.97 422.51 70.53 423.07 70.06 424.73 C 68.47 425.23 67.90 424.66 68.37 423.03 Z" />
<path fill="#5c5c5c" opacity="0.36" d=" M 149.45 430.24 C 151.05 429.66 151.57 430.21 151.01 431.90 C 149.40 432.45 148.88 431.89 149.45 430.24 Z" />
<path fill="#5c5c5c" opacity="0.36" d=" M 127.18 450.13 C 128.81 449.62 129.37 450.18 128.87 451.81 C 127.25 452.31 126.68 451.75 127.18 450.13 Z" />
<path fill="#5c5c5c" opacity="0.36" d=" M 210.90 519.11 C 212.48 518.62 213.01 519.21 212.47 520.88 C 210.89 521.37 210.36 520.78 210.90 519.11 Z" />
</g>
<g id="#09090946">
<path fill="#090909" opacity="0.27" d=" M 105.35 111.38 C 108.10 110.94 110.06 113.44 109.19 116.08 C 109.02 119.38 104.26 119.77 102.59 117.44 C 100.99 115.16 102.10 111.16 105.35 111.38 Z" />
</g>
<g id="#9c9c9c9c">
<path fill="#9c9c9c" opacity="0.61" d=" M 183.42 112.96 C 184.12 111.51 185.94 109.95 187.03 112.02 C 187.22 114.39 184.73 114.20 183.42 112.96 Z" />
</g>
<g id="#88888888">
<path fill="#888888" opacity="0.53" d=" M 144.04 117.27 C 144.87 116.78 145.71 116.31 146.56 115.85 C 146.89 116.29 147.55 117.18 147.89 117.62 C 147.03 118.23 146.18 118.84 145.34 119.46 C 145.01 118.91 144.37 117.82 144.04 117.27 Z" />
<path fill="#888888" opacity="0.53" d=" M 297.04 148.95 C 298.69 148.41 299.24 148.94 298.69 150.55 C 297.05 151.12 296.50 150.59 297.04 148.95 Z" />
</g>
<g id="#78787878">
<path fill="#787878" opacity="0.47" d=" M 339.15 128.10 C 342.16 126.54 339.35 131.39 339.15 128.10 Z" />
<path fill="#787878" opacity="0.47" d=" M 79.49 394.83 C 80.40 395.25 81.31 395.67 82.22 396.10 C 82.02 396.72 81.62 397.96 81.42 398.57 C 80.58 398.36 79.74 398.14 78.90 397.94 C 79.05 397.16 79.34 395.61 79.49 394.83 Z" />
<path fill="#787878" opacity="0.47" d=" M 320.45 494.23 C 323.36 492.50 320.82 497.52 320.45 494.23 Z" />
<path fill="#787878" opacity="0.47" d=" M 179.87 508.11 C 181.48 507.65 182.00 508.24 181.43 509.88 C 179.81 510.34 179.30 509.76 179.87 508.11 Z" />
</g>
<g id="#0f0f0f1d">
<path fill="#0f0f0f" opacity="0.11" d=" M 276.44 131.36 C 279.80 128.56 284.26 134.12 280.62 136.50 C 277.16 138.88 274.01 133.95 276.44 131.36 Z" />
</g>
<g id="#0d0d0d54">
<path fill="#0d0d0d" opacity="0.33" d=" M 179.00 134.88 C 182.32 133.01 186.16 137.11 184.37 140.36 C 183.36 143.10 180.07 142.20 177.85 142.26 C 176.55 139.91 175.65 135.94 179.00 134.88 Z" />
</g>
<g id="#97979797">
<path fill="#979797" opacity="0.59" d=" M 68.17 136.18 C 70.12 135.88 70.26 138.97 68.80 139.67 C 67.21 139.66 66.33 136.67 68.17 136.18 Z" />
<path fill="#979797" opacity="0.59" d=" M 156.76 462.74 C 157.73 462.89 160.84 462.99 159.73 464.78 C 159.53 465.22 159.14 466.10 158.95 466.54 C 157.50 465.71 156.59 464.47 156.76 462.74 Z" />
</g>
<g id="#0e0e0e55">
<path fill="#0e0e0e" opacity="0.33" d=" M 338.34 137.39 C 340.72 137.05 343.72 137.89 344.66 140.34 C 345.04 142.07 345.04 143.93 344.59 145.65 C 342.53 149.63 335.55 149.39 334.29 144.90 C 333.02 141.82 334.82 137.72 338.34 137.39 Z" />
</g>
<g id="#66666666">
<path fill="#666666" opacity="0.40" d=" M 99.43 137.84 C 100.35 138.70 101.26 139.57 102.16 140.45 C 101.18 141.09 100.19 141.72 99.21 142.36 C 97.79 140.87 98.40 139.30 99.43 137.84 Z" />
<path fill="#666666" opacity="0.40" d=" M 214.41 234.15 C 215.44 232.86 217.45 234.72 216.55 235.95 C 215.51 237.21 213.50 235.38 214.41 234.15 Z" />
<path fill="#666666" opacity="0.40" d=" M 244.75 295.18 C 245.78 294.76 246.81 294.34 247.84 293.93 C 248.17 294.83 248.50 295.74 248.83 296.65 C 248.05 297.05 247.27 297.45 246.49 297.86 C 245.91 296.96 245.33 296.07 244.75 295.18 Z" />
</g>
<g id="#a8a8a8a8">
<path fill="#a8a8a8" opacity="0.66" d=" M 228.39 177.12 C 228.99 176.77 230.20 176.08 230.80 175.73 C 231.19 176.25 231.96 177.29 232.35 177.81 C 230.76 179.45 229.39 179.00 228.39 177.12 Z" />
</g>
<g id="#6b6b6b6b">
<path fill="#6b6b6b" opacity="0.42" d=" M 238.38 187.33 C 239.69 187.98 239.68 188.64 238.35 189.32 C 237.03 188.68 237.04 188.01 238.38 187.33 Z" />
<path fill="#6b6b6b" opacity="0.42" d=" M 35.03 215.01 C 36.46 214.56 36.91 215.03 36.38 216.43 C 34.97 216.89 34.52 216.41 35.03 215.01 Z" />
<path fill="#6b6b6b" opacity="0.42" d=" M 51.00 240.90 C 52.40 240.47 52.85 240.95 52.35 242.36 C 50.94 242.80 50.49 242.32 51.00 240.90 Z" />
<path fill="#6b6b6b" opacity="0.42" d=" M 35.02 276.93 C 36.40 276.43 36.86 276.91 36.39 278.34 C 35.02 278.84 34.56 278.36 35.02 276.93 Z" />
<path fill="#6b6b6b" opacity="0.42" d=" M 29.29 470.96 C 30.81 470.58 31.26 471.05 30.63 472.38 C 29.14 472.74 28.70 472.27 29.29 470.96 Z" />
<path fill="#6b6b6b" opacity="0.42" d=" M 16.13 596.91 C 17.59 596.43 18.06 596.87 17.55 598.26 C 16.11 598.74 15.64 598.29 16.13 596.91 Z" />
</g>
<g id="#b7b7b7b7">
<path fill="#b7b7b7" opacity="0.72" d=" M 24.50 191.26 C 25.89 189.68 28.20 192.27 26.52 193.50 C 25.19 194.90 23.20 192.47 24.50 191.26 Z" />
<path fill="#b7b7b7" opacity="0.72" d=" M 70.33 563.39 C 71.56 561.95 73.94 564.26 72.47 565.49 C 71.20 567.08 68.71 564.69 70.33 563.39 Z" />
</g>
<g id="#b9b9b9b9">
<path fill="#b9b9b9" opacity="0.73" d=" M 3.32 200.41 C 4.55 199.00 6.93 201.24 5.48 202.49 C 4.24 204.13 1.72 201.71 3.32 200.41 Z" />
</g>
<g id="#8e8e8e8e">
<path fill="#8e8e8e" opacity="0.56" d=" M 230.79 217.54 C 231.35 216.73 231.91 215.92 232.47 215.11 C 233.00 216.13 233.75 216.94 234.73 217.54 C 233.34 218.58 231.91 219.59 230.79 217.54 Z" />
<path fill="#8e8e8e" opacity="0.56" d=" M 103.71 521.52 C 104.21 521.20 105.22 520.58 105.72 520.26 C 106.97 521.84 107.52 523.35 105.18 524.32 C 104.69 523.38 104.20 522.44 103.71 521.52 Z" />
</g>
<g id="#1313135d">
<path fill="#131313" opacity="0.36" d=" M 274.68 255.66 C 275.63 252.75 278.84 252.05 281.42 251.33 C 281.60 256.09 280.68 261.09 277.58 264.85 C 274.73 262.79 273.09 259.02 274.68 255.66 Z" />
<path fill="#131313" opacity="0.36" d=" M 277.87 447.78 C 281.28 445.79 285.19 447.18 288.39 448.88 C 287.84 450.73 287.30 452.58 286.76 454.44 C 281.64 454.08 277.22 456.87 272.61 458.61 C 272.22 454.36 273.69 449.61 277.87 447.78 Z" />
<path fill="#131313" opacity="0.36" d=" M 330.13 560.97 C 328.61 556.09 331.80 550.97 336.40 549.23 C 338.16 550.64 341.50 552.99 339.57 555.51 C 336.97 559.05 336.86 563.49 336.68 567.70 C 333.94 566.14 330.87 564.30 330.13 560.97 Z" />
</g>
<g id="#0b0b0b4c">
<path fill="#0b0b0b" opacity="0.30" d=" M 281.42 251.33 C 285.58 252.26 288.38 255.88 288.15 260.17 L 288.12 260.62 C 286.22 264.84 281.58 266.06 277.35 265.19 L 277.58 264.85 C 280.68 261.09 281.60 256.09 281.42 251.33 Z" />
<path fill="#0b0b0b" opacity="0.30" d=" M 31.40 260.67 C 35.96 260.84 40.36 262.16 44.89 262.59 C 44.03 264.43 43.65 266.77 41.73 267.86 C 39.08 269.33 35.27 269.15 33.17 266.78 C 31.54 265.19 31.77 262.73 31.40 260.67 Z" />
</g>
<g id="#0a0a0a48">
<path fill="#0a0a0a" opacity="0.28" d=" M 224.30 254.36 C 226.57 252.71 231.03 253.66 230.88 256.99 C 231.45 260.62 226.33 262.45 224.11 259.84 C 223.06 258.18 223.23 255.97 224.30 254.36 Z" />
</g>
<g id="#1414145e">
<path fill="#141414" opacity="0.37" d=" M 31.40 260.67 C 32.72 258.14 34.79 255.44 38.03 255.84 C 42.02 255.33 44.39 259.14 44.89 262.59 C 40.36 262.16 35.96 260.84 31.40 260.67 Z" />
<path fill="#141414" opacity="0.37" d=" M 121.44 396.44 C 122.90 391.47 129.38 391.00 132.93 394.01 C 130.97 398.17 126.09 398.38 122.32 399.85 C 122.03 398.71 121.74 397.57 121.44 396.44 Z" />
</g>
<g id="#40404040">
<path fill="#404040" opacity="0.25" d=" M 288.15 260.17 C 288.15 260.28 288.13 260.51 288.12 260.62 L 288.15 260.17 Z" />
</g>
<g id="#79797979">
<path fill="#797979" opacity="0.47" d=" M 249.84 264.34 C 250.41 263.98 251.57 263.26 252.15 262.91 C 252.58 263.74 253.02 264.59 253.46 265.43 C 252.90 265.86 251.79 266.72 251.23 267.14 C 250.76 266.21 250.30 265.27 249.84 264.34 Z" />
</g>
<g id="#a6a6a6a6">
<path fill="#a6a6a6" opacity="0.65" d=" M 346.21 270.83 C 344.55 269.35 344.94 267.66 346.80 266.63 C 348.31 268.28 348.07 269.76 346.21 270.83 Z" />
<path fill="#a6a6a6" opacity="0.65" d=" M 48.77 443.27 C 49.33 442.99 50.44 442.41 50.99 442.12 C 52.48 443.69 52.13 445.31 50.00 445.78 C 49.58 444.94 49.18 444.11 48.77 443.27 Z" />
</g>
<g id="#a4a4a4a4">
<path fill="#a4a4a4" opacity="0.64" d=" M 295.75 287.17 C 296.65 286.41 297.59 285.60 298.89 285.96 C 300.08 287.39 298.29 288.26 297.68 289.31 C 297.20 288.78 296.23 287.71 295.75 287.17 Z" />
</g>
<g id="#93939393">
<path fill="#939393" opacity="0.58" d=" M 168.71 315.57 C 169.51 315.72 170.32 315.88 171.13 316.04 C 171.05 316.70 170.88 318.02 170.80 318.69 C 169.81 318.41 168.82 318.15 167.83 317.88 C 168.05 317.31 168.49 316.15 168.71 315.57 Z" />
<path fill="#939393" opacity="0.58" d=" M 100.59 561.23 C 101.34 560.83 102.09 560.44 102.85 560.06 C 103.19 560.95 103.54 561.85 103.89 562.75 C 102.97 562.99 102.05 563.22 101.14 563.47 C 100.96 562.72 100.77 561.97 100.59 561.23 Z" />
</g>
<g id="#d0d0d0d0">
<path fill="#d0d0d0" opacity="0.82" d=" M 299.13 339.15 C 299.82 339.79 299.82 339.79 299.13 339.15 Z" />
</g>
<g id="#0b0b0b4a">
<path fill="#0b0b0b" opacity="0.29" d=" M 99.36 355.49 C 101.82 353.78 105.92 355.75 105.10 359.02 C 105.45 362.74 99.94 363.42 98.14 360.82 C 97.75 359.01 97.49 356.57 99.36 355.49 Z" />
</g>
<g id="#7a7a7a7a">
<path fill="#7a7a7a" opacity="0.48" d=" M 108.04 381.86 C 108.67 381.97 109.93 382.21 110.56 382.32 C 110.35 383.24 110.15 384.17 109.95 385.10 C 109.17 384.95 107.63 384.64 106.86 384.49 C 107.25 383.61 107.64 382.73 108.04 381.86 Z" />
<path fill="#7a7a7a" opacity="0.48" d=" M 91.14 471.64 C 92.01 471.25 92.88 470.88 93.75 470.50 C 94.22 471.28 94.69 472.07 95.16 472.87 C 94.14 473.29 93.12 473.72 92.09 474.16 C 91.78 473.31 91.46 472.47 91.14 471.64 Z" />
</g>
<g id="#0c0c0c4d">
<path fill="#0c0c0c" opacity="0.30" d=" M 132.93 394.01 C 133.88 396.60 135.15 399.77 133.17 402.23 C 131.01 405.71 125.61 406.24 122.86 403.19 C 120.79 401.17 121.11 398.01 121.12 395.38 L 121.44 396.44 C 121.74 397.57 122.03 398.71 122.32 399.85 C 126.09 398.38 130.97 398.17 132.93 394.01 Z" />
<path fill="#0c0c0c" opacity="0.30" d=" M 288.39 448.88 C 291.03 452.24 292.54 457.18 290.07 461.06 C 287.51 465.49 281.23 466.83 276.96 464.12 C 274.86 462.89 273.82 460.60 272.61 458.61 C 277.22 456.87 281.64 454.08 286.76 454.44 C 287.30 452.58 287.84 450.73 288.39 448.88 Z" />
</g>
<g id="#a0a0a0a0">
<path fill="#a0a0a0" opacity="0.63" d=" M 115.13 432.75 C 115.70 432.83 116.84 432.99 117.41 433.07 C 117.22 433.96 117.03 434.86 116.84 435.77 C 115.98 435.47 115.11 435.18 114.24 434.89 C 114.46 434.36 114.91 433.29 115.13 432.75 Z" />
<path fill="#a0a0a0" opacity="0.63" d=" M 0.00 454.04 C 1.80 454.13 1.81 456.78 0.00 456.87 L 0.00 454.04 Z" />
</g>
<g id="#98989898">
<path fill="#989898" opacity="0.60" d=" M 261.07 448.32 C 264.37 448.29 259.64 451.44 261.07 448.32 Z" />
</g>
<g id="#63636363">
<path fill="#636363" opacity="0.39" d=" M 312.15 463.14 C 313.70 462.65 314.35 465.33 312.80 465.69 C 311.18 466.17 310.58 463.55 312.15 463.14 Z" />
</g>
<g id="#44444444">
<path fill="#444444" opacity="0.27" d=" M 161.26 468.38 C 162.92 467.87 163.46 468.42 162.88 470.02 C 161.21 470.51 160.67 469.97 161.26 468.38 Z" />
</g>
<g id="#0b0b0b4b">
<path fill="#0b0b0b" opacity="0.29" d=" M 64.32 480.68 C 61.26 477.51 62.68 471.32 67.03 470.13 C 69.22 469.26 71.46 470.24 73.56 470.85 L 73.46 471.10 C 72.01 473.94 71.83 478.26 68.10 479.09 C 69.30 480.25 70.49 481.44 71.66 482.64 L 71.96 482.95 C 69.33 482.72 66.14 483.02 64.32 480.68 Z" />
</g>
<g id="#1313135e">
<path fill="#131313" opacity="0.37" d=" M 68.10 479.09 C 71.83 478.26 72.01 473.94 73.46 471.10 C 77.03 474.42 76.23 480.66 71.66 482.64 C 70.49 481.44 69.30 480.25 68.10 479.09 Z" />
</g>
<g id="#54545454">
<path fill="#545454" opacity="0.33" d=" M 309.26 542.21 C 310.88 541.62 311.42 542.15 310.88 543.81 C 309.25 544.37 308.71 543.84 309.26 542.21 Z" />
</g>
<g id="#0c0c0c4b">
<path fill="#0c0c0c" opacity="0.29" d=" M 276.07 548.96 C 276.15 547.02 275.20 543.31 278.18 543.32 C 280.29 542.79 282.46 544.72 281.89 546.91 C 281.82 549.95 278.09 549.22 276.07 548.96 Z" />
</g>
<g id="#0c0c0c4c">
<path fill="#0c0c0c" opacity="0.30" d=" M 336.16 549.03 C 339.12 549.38 342.48 549.00 344.95 551.05 C 349.97 554.49 349.58 563.26 344.31 566.31 C 342.06 567.80 339.24 567.52 336.68 567.70 C 336.86 563.49 336.97 559.05 339.57 555.51 C 341.50 552.99 338.16 550.64 336.40 549.23 L 336.16 549.03 Z" />
</g>
<g id="#aaaaaaaa">
<path fill="#aaaaaa" opacity="0.67" d=" M 228.55 589.34 C 229.14 589.07 230.31 588.52 230.90 588.25 C 231.33 589.02 231.75 589.80 232.18 590.58 C 231.67 590.91 230.66 591.57 230.15 591.90 C 229.60 591.05 229.07 590.19 228.55 589.34 Z" />
</g>
<g id="#9b9b9b9b">
<path fill="#9b9b9b" opacity="0.61" d=" M 73.17 602.47 C 74.73 602.56 75.70 605.31 73.86 605.91 C 71.95 606.28 71.57 603.08 73.17 602.47 Z" />
</g>
<g id="#74747474">
<path fill="#747474" opacity="0.45" d=" M 55.57 621.14 C 57.17 620.63 57.71 621.20 57.20 622.86 C 55.59 623.35 55.05 622.77 55.57 621.14 Z" />
</g>
<g id="#99999999">
<path fill="#999999" opacity="0.60" d=" M 231.59 628.52 C 232.59 627.43 234.02 628.87 233.79 630.03 C 233.53 630.44 233.02 631.26 232.77 631.67 C 231.47 631.57 230.50 629.45 231.59 628.52 Z" />
</g>
</svg>
