<?xml version="1.0" encoding="UTF-8" ?>
<!DOCTYPE svg PUBLIC "-//W3C//DTD SVG 1.1//EN" "http://www.w3.org/Graphics/SVG/1.1/DTD/svg11.dtd">
<svg width="345px" height="646px" viewBox="0 0 345 646" version="1.1" xmlns="http://www.w3.org/2000/svg">
<g id="#1212125c">
<path fill="#121212" opacity="0.36" d=" M 241.70 7.69 C 246.09 7.50 250.49 7.51 254.88 7.64 C 254.04 11.12 250.66 13.56 247.07 12.77 C 244.26 12.53 242.87 9.90 241.70 7.69 Z" />
</g>
<g id="#90909090">
<path fill="#909090" opacity="0.56" d=" M 74.44 9.08 C 77.50 7.57 74.54 12.39 74.44 9.08 Z" />
<path fill="#909090" opacity="0.56" d=" M 311.02 9.09 C 314.05 7.56 311.17 12.41 311.02 9.09 Z" />
<path fill="#909090" opacity="0.56" d=" M 169.94 469.08 C 170.83 468.82 171.71 468.57 172.60 468.31 C 172.72 468.97 172.98 470.30 173.10 470.97 C 172.14 471.23 171.18 471.50 170.22 471.79 C 170.15 471.11 170.01 469.76 169.94 469.08 Z" />
<path fill="#909090" opacity="0.56" d=" M 276.73 487.00 C 279.78 485.61 276.72 490.33 276.73 487.00 Z" />
</g>
<g id="#08080845">
<path fill="#080808" opacity="0.27" d=" M 122.00 21.04 C 122.01 18.84 121.63 15.24 124.94 15.68 C 128.17 15.28 128.09 18.80 127.94 21.00 C 125.96 21.15 123.98 21.16 122.00 21.04 Z" />
<path fill="#080808" opacity="0.27" d=" M 252.24 50.27 C 254.91 49.14 258.52 50.79 258.01 54.04 C 258.20 58.32 250.13 58.41 250.66 53.97 C 250.77 52.75 250.71 50.53 252.24 50.27 Z" />
</g>
<g id="#84848484">
<path fill="#848484" opacity="0.52" d=" M 258.37 25.94 C 259.07 26.84 259.77 27.73 260.48 28.62 C 259.28 30.01 258.00 30.08 256.77 28.69 C 257.30 27.77 257.84 26.86 258.37 25.94 Z" />
</g>
<g id="#5c5c5c5c">
<path fill="#5c5c5c" opacity="0.36" d=" M 289.33 26.69 C 290.26 27.31 291.19 27.93 292.13 28.55 C 291.22 29.45 290.31 30.35 289.39 31.24 C 288.37 29.72 287.63 28.09 289.33 26.69 Z" />
<path fill="#5c5c5c" opacity="0.36" d=" M 302.41 137.03 C 304.01 136.57 304.56 137.16 304.04 138.81 C 302.44 139.26 301.90 138.66 302.41 137.03 Z" />
<path fill="#5c5c5c" opacity="0.36" d=" M 53.17 272.03 C 54.79 271.49 55.39 272.04 54.95 273.67 C 53.34 274.19 52.74 273.64 53.17 272.03 Z" />
<path fill="#5c5c5c" opacity="0.36" d=" M 105.12 306.87 C 106.78 306.29 107.36 306.80 106.87 308.41 C 105.22 308.98 104.64 308.47 105.12 306.87 Z" />
<path fill="#5c5c5c" opacity="0.36" d=" M 201.47 308.07 C 203.06 307.56 203.62 308.13 203.14 309.79 C 201.54 310.29 200.99 309.71 201.47 308.07 Z" />
<path fill="#5c5c5c" opacity="0.36" d=" M 0.00 366.08 C 2.72 365.08 2.57 369.61 0.00 367.96 L 0.00 366.08 Z" />
<path fill="#5c5c5c" opacity="0.36" d=" M 235.10 436.94 C 236.78 436.39 237.35 436.91 236.80 438.50 C 235.14 439.05 234.57 438.53 235.10 436.94 Z" />
<path fill="#5c5c5c" opacity="0.36" d=" M 204.12 526.63 C 205.76 526.04 206.33 526.56 205.83 528.17 C 204.18 528.76 203.61 528.25 204.12 526.63 Z" />
</g>
<g id="#a0a0a0a0">
<path fill="#a0a0a0" opacity="0.63" d=" M 60.38 29.05 C 61.66 29.73 61.66 30.44 60.39 31.17 C 59.12 30.53 59.12 29.82 60.38 29.05 Z" />
<path fill="#a0a0a0" opacity="0.63" d=" M 46.11 329.40 C 49.40 329.66 44.53 332.41 46.11 329.40 Z" />
<path fill="#a0a0a0" opacity="0.63" d=" M 269.12 487.39 C 270.45 488.05 270.42 488.68 269.03 489.30 C 267.68 488.66 267.71 488.02 269.12 487.39 Z" />
<path fill="#a0a0a0" opacity="0.63" d=" M 231.54 513.08 C 234.60 511.58 231.64 516.37 231.54 513.08 Z" />
</g>
<g id="#00000033">
<path fill="#000000" opacity="0.20" d=" M 114.23 36.21 C 116.09 36.42 118.81 35.04 119.85 37.21 C 120.34 38.75 119.95 40.39 119.98 41.97 C 118.01 41.90 115.37 42.92 114.06 40.88 C 113.97 39.32 114.13 37.76 114.23 36.21 Z" />
<path fill="#000000" opacity="0.20" d=" M 91.30 102.36 C 93.50 101.28 97.22 101.93 97.02 105.00 C 97.38 108.27 93.52 108.94 91.20 107.76 C 90.13 106.12 90.14 103.95 91.30 102.36 Z" />
<path fill="#000000" opacity="0.20" d=" M 252.21 127.40 C 254.25 127.21 256.58 128.76 256.03 131.06 C 256.23 134.48 250.62 135.23 249.72 132.09 C 248.78 130.21 249.99 127.55 252.21 127.40 Z" />
<path fill="#000000" opacity="0.20" d=" M 98.33 401.37 C 100.41 401.09 102.45 402.91 102.01 405.08 C 102.18 408.13 97.68 409.04 96.08 406.84 C 94.51 404.93 95.63 401.34 98.33 401.37 Z" />
<path fill="#000000" opacity="0.20" d=" M 93.23 514.43 C 95.23 514.24 97.46 515.87 97.03 518.07 C 97.09 521.08 92.75 522.13 91.06 519.92 C 89.50 518.07 90.67 514.52 93.23 514.43 Z" />
<path fill="#000000" opacity="0.20" d=" M 251.19 540.17 C 253.25 539.39 256.21 540.40 256.04 542.98 C 256.58 545.38 253.83 547.30 251.68 546.45 C 248.82 545.74 248.78 541.47 251.19 540.17 Z" />
</g>
<g id="#88888888">
<path fill="#888888" opacity="0.53" d=" M 109.20 49.38 C 110.84 48.86 111.40 49.39 110.88 50.99 C 109.20 51.52 108.64 50.98 109.20 49.38 Z" />
<path fill="#888888" opacity="0.53" d=" M 306.61 264.09 C 309.60 262.53 306.79 267.42 306.61 264.09 Z" />
<path fill="#888888" opacity="0.53" d=" M 18.12 320.11 C 21.42 320.15 16.72 323.21 18.12 320.11 Z" />
<path fill="#888888" opacity="0.53" d=" M 109.14 462.03 C 110.80 461.49 111.37 462.03 110.85 463.65 C 109.22 464.17 108.65 463.63 109.14 462.03 Z" />
<path fill="#888888" opacity="0.53" d=" M 302.54 550.09 C 305.57 548.55 302.67 553.39 302.54 550.09 Z" />
</g>
<g id="#98989898">
<path fill="#989898" opacity="0.60" d=" M 213.40 51.63 C 214.33 52.30 215.27 52.96 216.21 53.62 C 215.24 54.11 214.28 54.60 213.32 55.10 C 211.66 53.99 212.08 52.80 213.40 51.63 Z" />
</g>
<g id="#80808080">
<path fill="#808080" opacity="0.50" d=" M 288.09 55.59 C 291.44 55.74 286.52 58.55 288.09 55.59 Z" />
<path fill="#808080" opacity="0.50" d=" M 232.89 67.18 C 234.47 66.71 235.03 67.29 234.55 68.92 C 232.94 69.42 232.39 68.83 232.89 67.18 Z" />
<path fill="#808080" opacity="0.50" d=" M 268.19 74.99 C 269.84 74.47 270.42 75.02 269.93 76.63 C 268.30 77.13 267.72 76.59 268.19 74.99 Z" />
<path fill="#808080" opacity="0.50" d=" M 173.02 103.08 C 174.64 102.51 175.17 103.05 174.62 104.69 C 173.01 105.29 172.48 104.75 173.02 103.08 Z" />
<path fill="#808080" opacity="0.50" d=" M 242.73 272.72 C 243.45 271.91 244.18 271.11 244.90 270.31 C 245.62 271.12 246.34 271.93 247.07 272.73 C 246.44 273.06 245.16 273.70 244.53 274.02 C 244.08 273.69 243.18 273.04 242.73 272.72 Z" />
<path fill="#808080" opacity="0.50" d=" M 182.68 302.08 C 185.69 300.57 182.77 305.42 182.68 302.08 Z" />
<path fill="#808080" opacity="0.50" d=" M 332.04 541.17 C 333.65 540.64 334.20 541.19 333.69 542.83 C 332.07 543.38 331.52 542.83 332.04 541.17 Z" />
</g>
<g id="#a2a2a2a2">
<path fill="#a2a2a2" opacity="0.64" d=" M 174.36 59.16 C 174.88 59.45 175.93 60.04 176.46 60.33 C 175.88 61.16 175.29 61.99 174.70 62.81 C 174.06 62.18 173.41 61.55 172.77 60.92 C 173.17 60.48 173.96 59.60 174.36 59.16 Z" />
</g>
<g id="#40404040">
<path fill="#404040" opacity="0.25" d=" M 154.44 63.15 C 156.04 62.64 156.58 63.22 156.04 64.87 C 154.44 65.37 153.90 64.79 154.44 63.15 Z" />
</g>
<g id="#70707070">
<path fill="#707070" opacity="0.44" d=" M 184.24 68.36 C 185.54 68.96 185.54 69.63 184.23 70.38 C 182.92 69.78 182.92 69.11 184.24 68.36 Z" />
<path fill="#707070" opacity="0.44" d=" M 156.31 315.26 C 157.58 315.89 157.59 316.60 156.33 317.36 C 155.05 316.72 155.04 316.02 156.31 315.26 Z" />
</g>
<g id="#78787878">
<path fill="#787878" opacity="0.47" d=" M 313.56 89.25 C 316.37 87.40 314.03 92.55 313.56 89.25 Z" />
<path fill="#787878" opacity="0.47" d=" M 332.08 128.65 C 333.69 128.06 334.29 128.57 333.86 130.19 C 332.23 130.79 331.63 130.27 332.08 128.65 Z" />
<path fill="#787878" opacity="0.47" d=" M 88.11 330.58 C 91.43 330.80 86.50 333.52 88.11 330.58 Z" />
<path fill="#787878" opacity="0.47" d=" M 55.46 365.16 C 57.02 364.58 57.60 365.14 57.20 366.82 C 55.63 367.37 55.05 366.82 55.46 365.16 Z" />
<path fill="#787878" opacity="0.47" d=" M 154.52 476.22 C 157.40 474.44 154.94 479.51 154.52 476.22 Z" />
<path fill="#787878" opacity="0.47" d=" M 313.98 501.58 C 317.30 501.53 312.63 504.67 313.98 501.58 Z" />
</g>
<g id="#50505050">
<path fill="#505050" opacity="0.31" d=" M 342.49 94.14 C 344.08 93.62 344.61 94.20 344.08 95.87 C 342.49 96.37 341.96 95.79 342.49 94.14 Z" />
<path fill="#505050" opacity="0.31" d=" M 183.46 481.20 C 185.05 480.64 185.58 481.21 185.04 482.88 C 183.43 483.42 182.91 482.86 183.46 481.20 Z" />
</g>
<g id="#97979797">
<path fill="#979797" opacity="0.59" d=" M 16.19 96.13 C 17.13 95.65 18.07 95.16 19.01 94.69 C 19.56 96.34 19.55 98.44 17.26 98.41 C 16.99 97.84 16.46 96.70 16.19 96.13 Z" />
<path fill="#979797" opacity="0.59" d=" M 66.18 610.15 C 68.19 609.69 68.32 612.97 66.79 613.60 C 65.27 613.47 64.33 610.67 66.18 610.15 Z" />
</g>
<g id="#75757575">
<path fill="#757575" opacity="0.46" d=" M 144.22 111.37 C 145.51 112.07 145.44 112.71 144.01 113.28 C 142.71 112.60 142.78 111.96 144.22 111.37 Z" />
</g>
<g id="#0c0c0c4b">
<path fill="#0c0c0c" opacity="0.29" d=" M 268.96 141.98 C 268.02 138.69 271.87 137.26 274.28 138.77 C 275.09 140.32 274.72 142.12 274.81 143.80 C 272.81 143.83 269.12 145.05 268.96 141.98 Z" />
<path fill="#0c0c0c" opacity="0.29" d=" M 270.21 551.15 C 274.34 548.61 277.15 555.81 272.88 556.84 C 269.38 558.18 267.36 552.96 270.21 551.15 Z" />
</g>
<g id="#0e0e0e55">
<path fill="#0e0e0e" opacity="0.33" d=" M 329.34 144.45 C 335.29 142.58 342.52 147.38 341.53 153.96 C 341.59 161.37 331.76 165.18 326.37 160.58 C 320.74 156.45 322.36 146.09 329.34 144.45 Z" />
</g>
<g id="#54545454">
<path fill="#545454" opacity="0.33" d=" M 224.37 155.83 C 225.98 155.30 226.51 155.86 225.96 157.50 C 224.33 158.02 223.80 157.46 224.37 155.83 Z" />
<path fill="#545454" opacity="0.33" d=" M 282.15 267.79 C 283.80 267.28 284.37 267.82 283.84 269.43 C 282.19 269.93 281.62 269.39 282.15 267.79 Z" />
</g>
<g id="#a8a8a8a8">
<path fill="#a8a8a8" opacity="0.66" d=" M 62.73 159.79 C 63.09 159.19 63.82 157.97 64.18 157.36 C 65.92 158.46 66.56 159.80 64.74 161.31 C 64.23 160.93 63.23 160.17 62.73 159.79 Z" />
</g>
<g id="#aaaaaaaa">
<path fill="#aaaaaa" opacity="0.67" d=" M 222.01 184.43 C 222.47 184.03 223.39 183.24 223.85 182.84 C 225.16 184.28 225.21 185.78 223.61 187.02 C 223.10 186.16 221.80 185.55 222.01 184.43 Z" />
</g>
<g id="#76767676">
<path fill="#767676" opacity="0.46" d=" M 64.63 198.90 C 65.38 198.29 66.13 197.69 66.88 197.09 C 67.42 197.96 67.98 198.84 68.53 199.71 C 68.03 200.08 67.03 200.82 66.53 201.20 C 65.89 200.43 65.26 199.66 64.63 198.90 Z" />
<path fill="#767676" opacity="0.46" d=" M 237.86 303.25 C 238.86 302.61 239.85 301.98 240.85 301.34 C 240.98 302.29 242.83 303.79 241.37 304.28 C 240.00 305.86 238.92 304.21 237.86 303.25 Z" />
</g>
<g id="#74747474">
<path fill="#747474" opacity="0.45" d=" M 48.79 216.14 C 50.39 215.63 50.94 216.20 50.43 217.84 C 48.84 218.36 48.29 217.79 48.79 216.14 Z" />
</g>
<g id="#8a8a8a8a">
<path fill="#8a8a8a" opacity="0.54" d=" M 225.51 222.85 C 225.99 223.22 226.96 223.96 227.44 224.33 C 226.76 225.19 226.09 226.05 225.42 226.91 C 225.04 226.32 224.28 225.12 223.90 224.52 C 224.30 224.10 225.10 223.27 225.51 222.85 Z" />
</g>
<g id="#0c0c0c4c">
<path fill="#0c0c0c" opacity="0.30" d=" M 164.03 224.89 C 166.92 225.14 170.10 224.74 172.68 226.36 C 178.17 229.45 178.24 238.64 172.92 241.95 C 170.17 244.03 166.56 243.27 163.38 243.22 L 163.53 242.86 C 166.06 238.66 164.72 232.65 169.14 229.64 C 167.69 228.03 166.12 226.52 164.40 225.19 L 164.03 224.89 Z" />
<path fill="#0c0c0c" opacity="0.30" d=" M 268.58 258.35 C 270.27 259.28 272.37 259.87 273.41 261.65 C 275.33 264.70 274.46 269.62 270.90 271.07 C 269.23 271.59 267.47 271.63 265.75 271.85 C 266.98 267.41 268.28 262.96 268.58 258.35 Z" />
</g>
<g id="#1313135d">
<path fill="#131313" opacity="0.36" d=" M 158.31 234.07 C 158.01 230.01 160.98 226.84 164.40 225.19 C 166.12 226.52 167.69 228.03 169.14 229.64 C 164.72 232.65 166.06 238.66 163.53 242.86 C 160.44 241.02 157.90 237.86 158.31 234.07 Z" />
<path fill="#131313" opacity="0.36" d=" M 261.65 263.05 C 262.29 259.78 265.86 259.02 268.58 258.35 C 268.28 262.96 266.98 267.41 265.75 271.85 C 262.64 270.13 260.32 266.69 261.65 263.05 Z" />
<path fill="#131313" opacity="0.36" d=" M 21.37 379.38 C 23.95 376.72 27.86 377.45 31.19 377.47 C 30.44 377.74 28.93 378.28 28.17 378.55 C 28.56 379.91 28.94 381.28 29.32 382.65 C 25.20 385.34 24.94 390.58 23.31 394.78 C 17.69 391.90 16.55 383.51 21.37 379.38 Z" />
<path fill="#131313" opacity="0.36" d=" M 219.56 447.89 C 221.28 448.15 223.57 447.42 224.78 449.10 C 226.74 451.05 228.64 453.06 230.73 454.89 C 228.24 456.14 225.19 457.08 222.69 455.30 C 219.96 453.86 219.82 450.58 219.56 447.89 Z" />
<path fill="#131313" opacity="0.36" d=" M 225.34 539.25 C 226.49 535.84 229.92 534.23 233.16 533.38 C 233.77 535.12 234.48 536.84 235.26 538.51 C 231.84 542.13 232.29 547.33 230.71 551.75 C 225.97 549.78 223.18 544.08 225.34 539.25 Z" />
</g>
<g id="#0a0a0a49">
<path fill="#0a0a0a" opacity="0.29" d=" M 58.37 236.42 C 60.47 234.49 65.19 235.64 64.93 238.98 C 65.36 242.55 60.40 244.32 58.15 241.81 C 57.23 240.16 57.08 237.92 58.37 236.42 Z" />
<path fill="#0a0a0a" opacity="0.29" d=" M 151.42 247.61 C 150.39 245.20 152.88 242.20 155.41 243.48 C 158.01 244.16 157.05 247.14 157.00 249.07 C 155.16 248.99 152.04 250.15 151.42 247.61 Z" />
<path fill="#0a0a0a" opacity="0.29" d=" M 218.30 261.30 C 220.78 259.98 224.48 261.99 223.95 264.99 C 224.46 268.91 217.28 269.81 216.75 266.08 C 216.64 264.42 216.32 261.96 218.30 261.30 Z" />
</g>
<g id="#7c7c7c7c">
<path fill="#7c7c7c" opacity="0.49" d=" M 208.02 241.58 C 209.19 240.65 210.60 242.67 209.34 243.47 C 208.15 244.46 206.78 242.38 208.02 241.58 Z" />
<path fill="#7c7c7c" opacity="0.49" d=" M 179.16 492.31 C 180.78 491.77 181.34 492.32 180.84 493.94 C 179.18 494.47 178.63 493.92 179.16 492.31 Z" />
<path fill="#7c7c7c" opacity="0.49" d=" M 48.99 628.60 C 50.19 627.59 51.44 629.73 50.28 630.54 C 49.08 631.59 47.84 629.39 48.99 628.60 Z" />
</g>
<g id="#72727272">
<path fill="#727272" opacity="0.45" d=" M 83.76 246.37 C 85.18 244.71 86.60 245.37 87.86 246.81 C 87.03 247.56 86.19 248.31 85.37 249.08 C 84.96 248.40 84.16 247.05 83.76 246.37 Z" />
</g>
<g id="#bbbbbbbb">
<path fill="#bbbbbb" opacity="0.73" d=" M 180.14 249.13 C 181.93 248.65 182.85 251.66 180.94 252.13 C 179.03 252.69 178.20 249.62 180.14 249.13 Z" />
</g>
<g id="#b9b9b9b9">
<path fill="#b9b9b9" opacity="0.73" d=" M 338.46 275.34 C 339.77 273.69 342.18 276.26 340.52 277.50 C 339.25 278.92 337.05 276.56 338.46 275.34 Z" />
</g>
<g id="#69696969">
<path fill="#696969" opacity="0.41" d=" M 78.94 277.19 C 79.84 276.78 80.74 276.38 81.64 275.98 C 82.05 276.53 82.86 277.62 83.27 278.16 C 82.36 278.74 81.46 279.33 80.56 279.92 C 80.02 279.00 79.48 278.09 78.94 277.19 Z" />
</g>
<g id="#b4b4b4b4">
<path fill="#b4b4b4" opacity="0.71" d=" M 290.39 293.25 C 292.31 292.60 293.11 295.97 291.08 296.22 C 289.28 296.57 288.46 293.61 290.39 293.25 Z" />
<path fill="#b4b4b4" opacity="0.71" d=" M 139.27 345.19 C 141.15 344.55 142.13 347.85 140.05 348.14 C 138.26 348.51 137.37 345.64 139.27 345.19 Z" />
</g>
<g id="#7b7b7b7b">
<path fill="#7b7b7b" opacity="0.48" d=" M 213.18 297.41 C 214.49 298.06 214.45 298.71 213.06 299.34 C 211.73 298.70 211.77 298.05 213.18 297.41 Z" />
</g>
<g id="#0c0c0c4d">
<path fill="#0c0c0c" opacity="0.30" d=" M 200.07 310.81 C 202.30 311.13 204.74 310.96 206.74 312.15 C 210.65 314.52 210.29 321.18 206.28 323.27 C 204.35 324.21 202.12 323.98 200.04 324.18 L 200.20 323.71 C 201.34 320.33 202.49 316.95 203.64 313.57 C 202.61 312.78 201.59 311.99 200.57 311.20 L 200.07 310.81 Z" />
</g>
<g id="#1414145d">
<path fill="#141414" opacity="0.36" d=" M 200.20 323.71 C 195.02 321.27 195.26 313.35 200.57 311.20 C 201.59 311.99 202.61 312.78 203.64 313.57 C 202.49 316.95 201.34 320.33 200.20 323.71 Z" />
</g>
<g id="#58585858">
<path fill="#585858" opacity="0.35" d=" M 217.28 320.22 C 218.89 319.64 219.44 320.18 218.92 321.83 C 217.30 322.39 216.75 321.86 217.28 320.22 Z" />
</g>
<g id="#6b6b6b6b">
<path fill="#6b6b6b" opacity="0.42" d=" M 255.55 326.97 C 256.95 326.56 257.44 327.05 257.02 328.46 C 255.62 328.85 255.13 328.36 255.55 326.97 Z" />
<path fill="#6b6b6b" opacity="0.42" d=" M 342.59 506.87 C 343.98 506.47 344.44 506.98 343.99 508.40 C 342.60 508.78 342.13 508.27 342.59 506.87 Z" />
<path fill="#6b6b6b" opacity="0.42" d=" M 225.31 568.18 C 226.58 568.87 226.56 569.55 225.26 570.23 C 223.98 569.54 223.99 568.85 225.31 568.18 Z" />
</g>
<g id="#6c6c6c6c">
<path fill="#6c6c6c" opacity="0.42" d=" M 131.62 331.17 C 133.20 330.62 133.75 331.17 133.29 332.85 C 131.70 333.39 131.14 332.83 131.62 331.17 Z" />
</g>
<g id="#64646464">
<path fill="#646464" opacity="0.39" d=" M 126.26 361.46 C 127.93 360.92 128.47 361.45 127.90 363.04 C 126.21 363.57 125.66 363.04 126.26 361.46 Z" />
<path fill="#646464" opacity="0.39" d=" M 74.33 421.31 C 75.95 420.76 76.49 421.31 75.94 422.95 C 74.29 423.47 73.76 422.93 74.33 421.31 Z" />
</g>
<g id="#9b9b9b9b">
<path fill="#9b9b9b" opacity="0.61" d=" M 30.74 362.13 C 32.13 361.73 32.58 362.25 32.08 363.70 C 30.73 364.07 30.28 363.55 30.74 362.13 Z" />
<path fill="#9b9b9b" opacity="0.61" d=" M 173.11 515.75 C 174.53 515.25 175.06 515.68 174.70 517.04 C 173.26 517.57 172.73 517.14 173.11 515.75 Z" />
<path fill="#9b9b9b" opacity="0.61" d=" M 221.39 597.02 C 222.74 595.93 224.25 595.97 225.61 597.02 C 224.58 599.40 222.42 599.41 221.39 597.02 Z" />
</g>
<g id="#0b0b0b4c">
<path fill="#0b0b0b" opacity="0.30" d=" M 28.17 378.55 C 28.93 378.28 30.44 377.74 31.19 377.47 C 33.29 379.08 35.98 380.60 36.54 383.43 C 37.13 386.81 36.99 390.86 34.15 393.25 C 31.28 396.20 26.88 395.65 23.18 395.19 L 23.31 394.78 C 24.94 390.58 25.20 385.34 29.32 382.65 C 28.94 381.28 28.56 379.91 28.17 378.55 Z" />
<path fill="#0b0b0b" opacity="0.30" d=" M 224.36 443.49 C 227.74 442.40 232.02 444.43 232.63 448.08 C 233.24 450.58 232.04 452.94 231.01 455.14 L 230.73 454.89 C 228.64 453.06 226.74 451.05 224.78 449.10 C 223.57 447.42 221.28 448.15 219.56 447.89 C 220.95 446.25 222.07 444.00 224.36 443.49 Z" />
<path fill="#0b0b0b" opacity="0.30" d=" M 233.16 533.38 C 235.59 533.79 238.29 534.01 240.20 535.77 C 244.78 539.38 244.31 547.32 239.48 550.51 C 236.97 552.54 233.60 552.18 230.60 552.13 L 230.71 551.75 C 232.29 547.33 231.84 542.13 235.26 538.51 C 234.48 536.84 233.77 535.12 233.16 533.38 Z" />
</g>
<g id="#0d0d0d52">
<path fill="#0d0d0d" opacity="0.32" d=" M 148.24 378.50 C 155.51 378.12 160.03 387.28 155.87 393.03 C 152.46 398.68 143.29 398.48 140.09 392.75 C 136.22 386.90 141.19 378.05 148.24 378.50 Z" />
</g>
<g id="#b0b0b0b0">
<path fill="#b0b0b0" opacity="0.69" d=" M 266.41 389.07 C 267.79 387.68 270.36 389.93 268.58 391.23 C 267.27 392.41 264.97 390.36 266.41 389.07 Z" />
</g>
<g id="#60606060">
<path fill="#606060" opacity="0.38" d=" M 242.10 413.04 C 243.75 412.53 244.30 413.08 243.76 414.70 C 242.12 415.20 241.57 414.65 242.10 413.04 Z" />
</g>
<g id="#99999999">
<path fill="#999999" opacity="0.60" d=" M 261.33 441.14 C 262.14 440.89 262.95 440.64 263.77 440.40 C 263.92 441.03 264.22 442.28 264.37 442.91 C 263.79 443.03 262.64 443.27 262.06 443.39 C 261.81 442.63 261.57 441.88 261.33 441.14 Z" />
</g>
<g id="#9e9e9e9e">
<path fill="#9e9e9e" opacity="0.62" d=" M 132.91 454.21 C 133.87 453.69 134.86 453.22 135.87 452.81 C 135.92 453.68 136.03 455.41 136.09 456.27 C 134.59 456.25 133.32 455.74 132.91 454.21 Z" />
</g>
<g id="#8e8e8e8e">
<path fill="#8e8e8e" opacity="0.56" d=" M 221.16 471.92 C 221.47 472.18 222.08 472.70 222.39 472.96 C 222.78 472.63 223.57 471.97 223.96 471.64 C 224.03 472.49 224.16 474.20 224.22 475.06 C 223.53 475.04 222.15 475.02 221.47 475.01 C 221.39 474.24 221.24 472.69 221.16 471.92 Z" />
<path fill="#8e8e8e" opacity="0.56" d=" M 223.76 637.55 C 224.15 637.03 224.93 636.00 225.32 635.49 C 226.08 636.15 226.84 636.84 227.61 637.52 C 227.10 637.93 226.09 638.74 225.59 639.15 C 225.13 638.75 224.21 637.95 223.76 637.55 Z" />
</g>
<g id="#09090946">
<path fill="#090909" opacity="0.27" d=" M 203.21 489.05 C 204.93 488.44 207.79 488.53 208.41 490.62 C 209.50 492.96 208.04 496.78 205.01 496.11 C 201.07 496.80 200.04 490.60 203.21 489.05 Z" />
</g>
<g id="#8b8b8b8b">
<path fill="#8b8b8b" opacity="0.55" d=" M 247.05 489.99 C 247.79 489.97 249.26 489.92 250.00 489.90 C 250.00 490.59 250.01 491.97 250.02 492.65 C 249.29 492.73 247.84 492.88 247.11 492.96 C 247.10 492.22 247.07 490.73 247.05 489.99 Z" />
</g>
<g id="#93939393">
<path fill="#939393" opacity="0.58" d=" M 16.99 511.14 C 16.17 509.43 16.60 507.76 18.67 507.44 C 18.96 508.04 19.52 509.24 19.81 509.84 C 18.87 510.27 17.93 510.70 16.99 511.14 Z" />
</g>
<g id="#0d0d0d51">
<path fill="#0d0d0d" opacity="0.32" d=" M 328.58 556.82 C 331.89 556.65 335.58 556.40 338.29 558.69 C 343.77 562.71 342.16 572.57 335.64 574.62 C 331.71 576.36 327.56 574.47 324.57 571.86 C 325.11 571.73 326.18 571.47 326.71 571.34 C 327.53 566.67 329.22 562.04 328.60 557.23 L 328.58 556.82 Z" />
</g>
<g id="#16161664">
<path fill="#161616" opacity="0.39" d=" M 323.89 561.83 C 324.74 559.68 326.78 558.45 328.60 557.23 C 329.22 562.04 327.53 566.67 326.71 571.34 C 326.18 571.47 325.11 571.73 324.57 571.86 C 323.35 568.70 322.39 565.07 323.89 561.83 Z" />
</g>
<g id="#acacacac">
<path fill="#acacac" opacity="0.67" d=" M 62.68 571.30 C 63.22 571.01 64.31 570.42 64.86 570.12 C 65.33 570.95 65.80 571.78 66.27 572.63 C 65.71 572.91 64.59 573.48 64.03 573.76 C 63.57 572.94 63.12 572.12 62.68 571.30 Z" />
</g>
</svg>
