<svg xmlns="http://www.w3.org/2000/svg" xmlns:xlink="http://www.w3.org/1999/xlink" width="203.481" height="151.179" viewBox="0 0 203.481 151.179"><defs><style>.a{fill:none;}.b{clip-path:url(#a);}.c{fill:#eee;}.aa,.d{fill:#00afff;}.e{fill:#00c3ae;}.f{fill:#444053;}.g{fill:#0c263d;}.h{fill:#f6f8fb;}.i{opacity:0.05;}.j{fill:url(#b);}.k{fill:#d17483;}.l{fill:#dce6f2;}.aa,.m,.s{opacity:0.1;}.n{fill:#bdd2e8;}.o{fill:url(#c);}.p{fill:#653c5b;}.q{fill:#ffd6db;}.r{fill:#c8a9b4;}.t{fill:url(#e);}.u{fill:url(#f);}.v{fill:url(#g);}.w{fill:#965d7b;}.x{fill:#e8f4ff;}.y{fill:#ffc1c7;}.z{fill:#575a89;}.ab{fill:#ffd037;}.ac{fill:#a8a8a8;}.ad{opacity:0.2;}</style><clipPath id="a"><rect class="a" width="203.482" height="151.179"/></clipPath><linearGradient id="b" x1="0.5" y1="1" x2="0.5" gradientUnits="objectBoundingBox"><stop offset="0" stop-color="gray" stop-opacity="0.251"/><stop offset="0.54" stop-color="gray" stop-opacity="0.122"/><stop offset="1" stop-color="gray" stop-opacity="0.102"/></linearGradient><linearGradient id="c" x1="0.5" x2="0.5" y2="1" gradientUnits="objectBoundingBox"><stop offset="0" stop-color="#00afff"/><stop offset="0.1" stop-color="#2dc0f7"/><stop offset="0.2" stop-color="#28c0ef"/><stop offset="0.3" stop-color="#23c0e7"/><stop offset="0.4" stop-color="#1ec1df"/><stop offset="0.5" stop-color="#19c1d7"/><stop offset="0.6" stop-color="#14c1cf"/><stop offset="0.7" stop-color="#0fc2c7"/><stop offset="0.8" stop-color="#0ac2bf"/><stop offset="0.9" stop-color="#05c2b7"/><stop offset="1" stop-color="#00c3af"/></linearGradient><linearGradient id="e" x1="0.5" y1="1" x2="0.5" y2="0" xlink:href="#b"/><linearGradient id="f" x1="0.5" y1="1" x2="0.5" y2="0" xlink:href="#b"/><linearGradient id="g" x1="0.5" y1="1.039" x2="0.5" y2="0.047" xlink:href="#b"/></defs><g class="b"><path class="c" d="M180.053,67.926c-12.14-.42-23.7-4.341-34.744-8.629s-21.977-9.038-33.834-11.311c-7.621-1.461-16.338-1.668-22.478,2.42-5.911,3.939-7.82,10.718-8.846,17.018-.773,4.738-1.227,9.726.889,14.163,1.471,3.08,4.08,5.669,5.883,8.618,6.278,10.266,1.84,22.923-4.962,32.947-3.189,4.7-6.894,9.192-9.357,14.191S69.01,148.08,71.165,153.2c2.135,5.065,7.224,8.861,12.737,11.534,11.2,5.431,24.386,6.984,37.256,7.865,28.481,1.947,57.112,1.1,85.667.259,10.568-.313,21.182-.628,31.578-2.264,5.774-.906,11.733-2.347,15.926-5.815a13.337,13.337,0,0,0,3.073-17.423c-5.98-9.283-22.51-11.589-26.695-21.551-2.3-5.485.062-11.593,3.407-16.678,7.173-10.912,19.2-20.484,19.829-32.955.433-8.565-5.346-17.143-14.283-21.2-9.366-4.247-22.356-3.712-29.263,3.318C203.278,65.511,190.774,68.3,180.053,67.926Z" transform="translate(-67.7 -47.029)"/><path class="d" d="M161.56,730.835s3.939-.63,6.3,2.153c0,0-1.733,1.366-5.462-.525Z" transform="translate(-142.065 -602.515)"/><path class="e" d="M152.3,730.78s-2.512,3.1-1.279,6.535c0,0,2.048-.82,2.272-5Z" transform="translate(-133.223 -602.52)"/><path class="e" d="M147.28,699.331s1.576-2.889,7.878,1.156a3.537,3.537,0,0,1-3.624,1.786A4.272,4.272,0,0,1,147.28,699.331Z" transform="translate(-130.464 -576.158)"/><path class="e" d="M129.577,702.536s-3.27-.375-3.587,7.109a3.54,3.54,0,0,0,3.545-1.936C131.017,705.343,130.4,704.015,129.577,702.536Z" transform="translate(-113.168 -579.572)"/><path class="e" d="M135,658.72s1.838-5.1,8.509-1.471c0,0-1.523,4.675-7.826,3.2Z" transform="translate(-120.488 -541.725)"/><path class="e" d="M124,619.713s3.468-5.147,9.614-.375c0,0-2.153,4.834-9.088,2.206Z" transform="translate(-111.551 -510.335)"/><path class="e" d="M120.11,582.381s4.046-4.727,10.139,0c0,0-3.834,4.149-10.129,1.208Z" transform="translate(-108.391 -480.251)"/><path class="e" d="M116.75,544.15s4.1-4.937,9.929-.263c0,0-4.622,4.359-9.929,1.418Z" transform="translate(-105.661 -449.051)"/><path class="e" d="M118.71,505.278s4.314-6.357,9.771-2.05c0,0-4.622,5.464-9.771,3.258Z" transform="translate(-107.253 -416.436)"/><path class="e" d="M124,467.445s4.571-6.3,9.876-1.471c0,0-5.41,5.462-9.876,2.626Z" transform="translate(-111.551 -385.906)"/><path class="e" d="M131.136,429.082s5.41-5.922,10.129-3.564c0,0-5.639,6.29-10.366,5.134Z" transform="translate(-117.157 -354.069)"/><path class="e" d="M140.323,390.934s6.25-7.25,9.874-4.832c0,0-4.6,5.627-10.317,6.19Z" transform="translate(-124.452 -322.096)"/><path class="e" d="M153.613,355.416s5.464-5.924,9.456-4.444c0,0-4.675,6.147-10.189,6.3Z" transform="translate(-135.014 -293.764)"/><path class="e" d="M168.863,319.155s6.04-5.673,8.666-4.675c0,0-4.359,6.3-8.929,5.935Z" transform="translate(-147.785 -264.215)"/><path class="e" d="M182.84,279.675s5.2-6.775,8.036-6.25c0,0-3.151,6.04-8.036,6.941Z" transform="translate(-159.354 -230.933)"/><path class="e" d="M196,239.883s4.6-5.2,7.077-5.183c0,0-3.628,6.941-7.267,6.877Z" transform="translate(-169.891 -199.496)"/><path class="e" d="M202.655,185.818,207.093,175s.223,9.781-5,12.829Z" transform="translate(-174.993 -150.995)"/><path class="e" d="M214.572,126.739s.735-9.034.263-9.769c0,0,3.174,7.5-.295,13.761Z" transform="translate(-185.107 -103.85)"/><path class="e" d="M101.154,667.58s-4.6-2.853-7.584,4.127c0,0,4.1,2.718,8.124-2.347Z" transform="translate(-86.829 -550.706)"/><path class="e" d="M86.927,626.665s-5.646-2.577-8.387,4.712c0,0,4.363,2.992,8.9-2.872Z" transform="translate(-74.619 -517.576)"/><path class="e" d="M74.839,584.691s-4.044-4.727-10.129,0c0,0,3.834,4.149,10.129,1.208Z" transform="translate(-63.383 -482.128)"/><path class="e" d="M73,544.15s-4.1-4.937-9.929-.263c0,0,4.624,4.359,9.929,1.418Z" transform="translate(-62.05 -449.051)"/><path class="e" d="M79.21,500.691s-2.874-7.128-9.12-4.057c0,0,3.376,6.314,8.867,5.239Z" transform="translate(-67.754 -411.671)"/><path class="e" d="M86.192,460.852s-2.855-7.243-9.192-3.883c0,0,3.879,6.637,8.91,5Z" transform="translate(-73.367 -379.349)"/><path class="e" d="M107.818,409.651s-1.125-7.94-6.368-8.651c0,0,1.112,8.374,5.669,10.083Z" transform="translate(-93.231 -334.601)"/><path class="e" d="M122.292,371.129s-.439-9.567-4.781-9.9c0,0,.146,7.261,4.292,11.255Z" transform="translate(-106.278 -302.291)"/><path class="e" d="M135.63,335.569s-1.3-7.955-5.44-8.929c0,0,.514,7.706,5.031,10.88Z" transform="translate(-116.58 -274.19)"/><path class="e" d="M159.861,299.055s-.045-8.287-2.576-9.5c0,0-1.572,7.5,1.842,10.563Z" transform="translate(-138.299 -244.057)"/><path class="e" d="M170.526,264.207s-.351-8.535-2.977-9.737c0,0-.9,6.753,2.583,10.3Z" transform="translate(-146.846 -215.558)"/><path class="e" d="M187.945,228.9s-.017-6.941-1.887-8.567c0,0-1.863,7.6.91,9.963Z" transform="translate(-161.471 -187.822)"/><path class="e" d="M193.016,180.811,191.2,169.26s-2.48,9.465,1.908,13.645Z" transform="translate(-165.575 -146.331)"/><path class="e" d="M185.983,132.269s-4.675-7.766-4.579-8.629c0,0,.5,8.139,6.378,12.193Z" transform="translate(-158.186 -109.269)"/><path class="e" d="M180.988,105.765s-4.412-11.03-6.408-11.925a13.986,13.986,0,0,1,6.775,11.61Z" transform="translate(-152.643 -85.059)"/><path class="f" d="M194.38,175.8l-.3-.094c3.724-12.142,4.652-19.884,2.615-21.823l.218-.229C199.072,155.7,198.192,163.356,194.38,175.8Z" transform="translate(-168.485 -133.65)"/><path class="f" d="M139.066,296.255l-.446-.158c.394-1.112.822-2.242,1.268-3.356,3.887-9.685,7.194-18.7,9.317-25.614l.386-.188c-2.125,6.941-5.374,16.288-9.265,25.986C139.888,294.027,139.464,295.149,139.066,296.255Z" transform="translate(-123.429 -225.688)"/><path class="f" d="M128.739,485.536a61.338,61.338,0,0,1-10.3-18.466,68.358,68.358,0,0,1-4.071-21.154c-.287-9.028,1.606-19.111,4.853-28.267l.353.413c-7.286,20.552-4.391,38.164-.551,48.772a60.756,60.756,0,0,0,10.188,18.286Z" transform="translate(-103.701 -348.128)"/><ellipse class="c" cx="83.846" cy="7.713" rx="83.846" ry="7.713" transform="translate(15.538 130.065)"/><circle class="d" cx="57.869" cy="57.869" r="57.869" transform="translate(36.621 26.414)"/><ellipse class="g" cx="6.001" cy="7.86" rx="6.001" ry="7.86" transform="translate(72.986 65.206)"/><ellipse class="g" cx="6.001" cy="7.86" rx="6.001" ry="7.86" transform="translate(103.993 65.206)"/><path class="g" d="M435.317,543.609c0,11.283-18.848,30.291-37.865,30.291S360.31,554.465,360.31,543.18s17.74-.964,36.766-.964S435.317,532.324,435.317,543.609Z" transform="translate(-303.533 -445.822)"/><path class="h" d="M384.274,578.61s34.185,7.608,62.906.214c0,0,3.515,0,1.114,4.063a6.47,6.47,0,0,1-2.626,2.463c-5.534,2.829-26.035,11.189-58.807.527a6.445,6.445,0,0,1-4.254-4.358C382.227,580.124,382.392,578.8,384.274,578.61Z" transform="translate(-321.513 -478.894)"/><path class="i" d="M334.886,266.68s-17.432,11.146-17.29,28.573S334.886,266.68,334.886,266.68Z" transform="translate(-268.831 -225.477)"/><path class="j" d="M726.635,392.792c-.3-1.195-1.028-1.216-1.028-1.216l-.011-.12-.268-2.951a.166.166,0,0,1-.038.039l-.015-.375a1.988,1.988,0,0,0-.019-.212,2.461,2.461,0,0,0,.9-1.259c-.111-.141-.028-.113-.028-.113s-1.821-1.865-1.639-2.836-1.371-2.028-1.371-2.028a13.91,13.91,0,0,1-.563-2.264,27.334,27.334,0,0,0-2.127-3.988,31.668,31.668,0,0,0-3.523-6.293c-1.647-1.891-1.5-2.921-1.5-2.921a3.513,3.513,0,0,1-.366-.64,4.077,4.077,0,0,1-.188-.48c.338-.043.563-.051.563-.051s1.349-.231,1.409-.508a1.761,1.761,0,0,1,.46-.829c.257-.276-.732-5.528-.206-6.886s-.673-7.59-.673-7.59a1.382,1.382,0,0,1,.595-.938l.8-.313h0l.4-.1.054-.013.083-.021.188-.047.054-.015.116-.032.043-.011.188-.058.062-.021.088-.03.068-.026.09-.036.1-.047.058-.03.062-.036.049-.032a.752.752,0,0,0,.073-.058l.038-.037a.561.561,0,0,0,.043-.049.26.26,0,0,0,.024-.038l.011-.015h0a.4.4,0,0,0-.039-.42,3.2,3.2,0,0,0-.713-.733l-.433-.666a.028.028,0,0,1,0-.013.5.5,0,0,1,.022-.109,1.258,1.258,0,0,0,.021-.428h0a.1.1,0,0,0,0-.024,1.087,1.087,0,0,0,.009-.135v-.058a.608.608,0,0,0-.009-.129.146.146,0,0,1,0-.066.947.947,0,0,0-.024-.124c-.009-.041-.011-.049-.019-.073s-.021-.077-.034-.116l-.028-.077c-.013-.036-.028-.073-.043-.109s-.022-.054-.036-.081-.03-.067-.047-.1l-.041-.081c-.013-.026-.034-.064-.052-.1l-.045-.079-.052-.086-.051-.079-.051-.077-.051-.073c-.017-.023-.034-.047-.051-.068l-.049-.068-.045-.058-.047-.06-.039-.049-.041-.051-.032-.036-.034-.039-.023-.026-.024-.026-.013-.015-.013-.013v-.161a.251.251,0,0,0-.011-.088v-.011a5.728,5.728,0,0,1-.047-.587h0a1.541,1.541,0,0,1,.135-.593.281.281,0,0,0-.013-.294.366.366,0,0,1,.019-.039c.129-.249-.116-.463-.424-.623,0-.458-.188-1.386-1.7-1.553,0,0-.887-.6-.03-1.673s-.5-3.825-.5-3.825-.433-1.126-.2-1.591-.27-4.6-.27-4.6,0-3.817-.844-5.44-1.42-4.536-2.394-4.967a5.234,5.234,0,0,1-1.745-1.474l-.454.146c-.079-.116-.158-.233-.233-.349h0a.807.807,0,0,0,.107-.038,1.041,1.041,0,0,0,.49-.456,1.24,1.24,0,0,0,.081-.176h0a1.977,1.977,0,0,0,.109-.687,3.473,3.473,0,0,1,.021-.7,2.707,2.707,0,0,1,.563-.989,4.567,4.567,0,0,0,.842-2.118,3.206,3.206,0,0,0-.535-2.187,4.811,4.811,0,0,1-.647-.938c-.064-.161-.092-.334-.141-.5a2.48,2.48,0,0,0-2.116-1.7c-.8-.073-1.583.231-2.382.221-.927-.011-1.876-.435-2.744-.113a2.7,2.7,0,0,0-1,.75,7.885,7.885,0,0,0-.589.733h0c-.107.15-.208.3-.3.46v.013c-.1.159-.188.323-.274.49a.167.167,0,0,0-.013.124.225.225,0,0,0,.113.107,1.291,1.291,0,0,1,.416.24,1.422,1.422,0,0,0,.152.15c-.026.032-.054.062-.081.1a4.75,4.75,0,0,0,1.792,7.265l.1.21a8.865,8.865,0,0,1,.452,1.231l-.409.038a.514.514,0,0,1-.484.493,15.438,15.438,0,0,0-2,.613,25.56,25.56,0,0,1-3.665,1.534,3,3,0,0,1-1.99.054s-.156,1-1.716.45-1.767.03-1.767.03a58.292,58.292,0,0,0-7.6.308,15.215,15.215,0,0,1-4.6.128s-.015.169-.032.443l-.325-.188c-2.127-1.137-6.05-2.9-6.609-.75-.78,2.988,6.072,4.258,6.072,4.258l.506-.054.332-.036c.064.829.21,1.5.516,1.574.111.028,3.39.021,4.252.424s2.722-.188,2.722-.188a1.808,1.808,0,0,1,1.2.323c.722.428,4.646.43,4.646.43s.279.06,1.283.355a8.539,8.539,0,0,0,2.774.039l4.14.535a15.89,15.89,0,0,1-.03,3.956c-.324,1.054-.064,6.241-.064,6.241s.938,6.312.681,7.061c-.2.58,1.595-.066,2.416-.386.043.171.1.375.159.606,0,.021.028.034.06.041l.068.045c.03.124.06.244.088.356l-.223.06.294.2a3.254,3.254,0,0,0,.118.351c.244.563-1.536,1.593-1.536,1.593a62.348,62.348,0,0,0-6.393,3.939s-1.154.375-1.244.733-1.125.234-1.125.234-.146.388-.264.778a3.492,3.492,0,0,1-.75.992s-1.461.229-1.668,1.005a16.01,16.01,0,0,0-.336,1.823l-1.641,2.986s-4.476,3.335-4.945,4.611l-3.168,2.123s-.522,1.163-1.446,1.2-2.521,1.688-2.521,1.688.469.188,1.157.507c-.041.064-.081.128-.114.188a3.015,3.015,0,0,0-.28.763s-2.063,1.253-3.6.728a16.393,16.393,0,0,0-3.812-.87c-.951-.047-1.626.173-1.429.962.336,1.364,3.722,4.8,5.391,6.425a9.027,9.027,0,0,0,.838.722,8.591,8.591,0,0,0,1.236.792,8.4,8.4,0,0,0,.78.36,6.376,6.376,0,0,0,.88.283,1.487,1.487,0,0,0,1.428-.188c.968-.99.563-1.688.563-1.688l.109-.081,2.667-2,.6-.516.167-.143a3.579,3.579,0,0,1-.9,1.966,12.626,12.626,0,0,1,2.088-.972c.938-.293,1.516-2.063,1.516-2.063s.512-.521,1.422-1.456,1.079-3.326,1.079-3.326,4.669-2.971,6.565-6.4c0,0,.343-.469.938-1.157a3.3,3.3,0,0,0,.615-1.831,3.761,3.761,0,0,1,.885-1.184c.8-.852.694-1.384.694-1.384s.375-.523,1.771-.418,4.675-1.549,4.675-1.549a4.065,4.065,0,0,0,.03.415c-.285.657-.473,1.112-.473,1.112s2.859,11.411,1.713,13.2c-.595.938,1.045.225,2.763-.67.088.107.188.219.3.34a14.634,14.634,0,0,0,1.3,1.238l.056.049s3.482,5.372,4.033,6,.188,2.484.188,2.484.972,6.477,2.3,7.612a3.166,3.166,0,0,0,.915.482,2.219,2.219,0,0,0,.707,1.469s-.015,2.146-1.137,3.054a14.59,14.59,0,0,0-2.457,2.465c-.482.7-.632,1.313.062,1.531,1.2.388,5.408-.55,7.436-1.043a7.768,7.768,0,0,0,2.771-1.272C726.162,393.978,726.774,393.353,726.635,392.792Zm-46.177-21.467c.116.077.231.156.345.236l-.188.15-.077.06a.784.784,0,0,0-.019-.126C680.5,371.543,680.48,371.436,680.458,371.325Z" transform="translate(-554.251 -256.207)"/><path class="k" d="M695.773,387.595l-2.114.223-.5.054s-6.753-1.259-5.984-4.211c.552-2.137,4.419-.388,6.519.75.8.433,1.345.775,1.345.775Z" transform="translate(-569.035 -319.695)"/><path class="l" d="M668.618,611.339l-2.315,1.99-.6.512-1.388.42-3.438-3.035,2.555-2.037.075-.062,2.067-1.647Z" transform="translate(-536.913 -493.527)"/><path class="l" d="M941.628,739.74l-3.268.152.9,3.994,1.225.422,3.412-.285-.092-2.292a2.079,2.079,0,0,0-2.174-1.99Z" transform="translate(-773.151 -609.797)"/><path class="m" d="M721.544,652.875a18.363,18.363,0,0,0-2.414-1.388,1.7,1.7,0,0,1,1.125-.938C720.995,650.394,721.372,651.825,721.544,652.875Z" transform="translate(-595.045 -537.33)"/><path class="m" d="M735.311,660.359c.141-1.668-1.259-3.121-2.791-4.2l2.063-1.649,3.039,3.859Z" transform="translate(-605.923 -540.557)"/><path class="n" d="M762.055,538.062c-.959,3.164-7.552,2.213-8.861,1.088s-2.27-7.552-2.27-7.552.36-1.848-.188-2.465-3.977-5.946-3.977-5.946l-.056-.047a14.436,14.436,0,0,1-1.281-1.229c-1.056-1.157-1.079-1.716-1.079-1.716a24.989,24.989,0,0,0-1.668-5.166,24.474,24.474,0,0,1-1.459-6.594c-.047-.5-.064-.81-.064-.81s-3.23,1.639-4.611,1.536-1.748.417-1.748.417.1.527-.683,1.373a3.777,3.777,0,0,0-.874,1.174,3.251,3.251,0,0,1-.608,1.816c-.591.681-.929,1.148-.929,1.148-1.876,3.4-6.479,6.348-6.479,6.348s-.171,2.375-1.071,3.3l-1.4,1.444s-.578,1.761-1.5,2.052a12.3,12.3,0,0,0-2.063.964c3.8-4.56-5.6-8.154-5.6-8.154s1.572-1.636,2.485-1.677,1.427-1.195,1.427-1.195l3.125-2.11c.461-1.266,4.877-4.573,4.877-4.573l1.619-2.962a15.834,15.834,0,0,1,.332-1.793c.2-.769,1.645-1,1.645-1a3.483,3.483,0,0,0,.732-.985c.115-.385.261-.771.261-.771s1.021.128,1.109-.233,1.227-.728,1.227-.728a60.272,60.272,0,0,1,6.307-3.917s1.756-1.024,1.516-1.581a3,3,0,0,1-.118-.347v-.03q-.032-.107-.062-.225c-.221-.857-.465-2.172-.465-2.172s8.533-4.962,11.334-3.7a3.236,3.236,0,0,1,1.544,2.467,19.325,19.325,0,0,1-.088,6.368,18.278,18.278,0,0,1-.512,2.373,25.587,25.587,0,0,0-.8,5.324s-.088,6.053-.3,7.543a3.685,3.685,0,0,0,.319,2.03,3.5,3.5,0,0,0,.362.634s-.154,1.02,1.478,2.9a31.116,31.116,0,0,1,3.474,6.241s2.107,3.431,2.1,3.958a13.222,13.222,0,0,0,.548,2.251s1.532,1.043,1.352,2.009,1.617,2.814,1.617,2.814S761.946,537.921,762.055,538.062Z" transform="translate(-590.536 -407.588)"/><path class="m" d="M855.67,534.71s1.838.884,1.988,1.938S855.67,534.71,855.67,534.71Z" transform="translate(-705.972 -443.229)"/><path class="m" d="M757.9,515.532l1.005,1.176-.521-2.137-1.1-.071Z" transform="translate(-615.23 -417.988)"/><path class="m" d="M812,580.35c.109.084,1.341,2.84,1.671,2.872S812,580.35,812,580.35Z" transform="translate(-670.494 -480.308)"/><path class="m" d="M866.18,511.443a18.3,18.3,0,0,1-.512,2.373,25.583,25.583,0,0,0-.8,5.324s-.088,6.053-.3,7.543a3.686,3.686,0,0,0,.319,2.03,5.644,5.644,0,0,0-2.32.677c-1,.649-.422,2.427-.422,2.427s-1.446.87-2.928,1.658c-1.056-1.157-1.079-1.716-1.079-1.716a24.985,24.985,0,0,0-1.668-5.166A24.474,24.474,0,0,1,855.009,520a29.13,29.13,0,0,1,2.116-4.208c.662-.925-.128-3.724-.679-5.361l-.152-.1h0l-1.814-1.217h0l-.552-.375-.289-.188.219-.06,12.416-3.407A19.5,19.5,0,0,1,866.18,511.443Z" transform="translate(-704.323 -419.157)"/><path class="o" d="M853.66,504.55l.84.563h0l1.812,1.217h0l.154.1c.552,1.638,1.341,4.436.677,5.361a41.843,41.843,0,0,0-2.626,5.41s2.814,11.319,1.688,13.1,5.959-2.478,5.959-2.478-.58-1.778.424-2.427a6.362,6.362,0,0,1,2.692-.707s1.33-.229,1.39-.5a1.726,1.726,0,0,1,.454-.822c.251-.274-.722-5.485-.2-6.832s-.666-7.53-.666-7.53a1.373,1.373,0,0,1,.589-.938,1.738,1.738,0,0,1,.484-.233l.107-.03c.064-.019.131-.036.188-.049h0c.807-.2,1.688-.375,1.876-.75l-.188-.285-.989-1.527h0a1.136,1.136,0,0,1,.028-.446.787.787,0,0,1,.015-.092h0c.144-.974-.977-2.155-.977-2.155a5.643,5.643,0,0,1-.086-.84v-.009a2.093,2.093,0,0,1,.12-.878Z" transform="translate(-704.339 -415.656)"/><path class="m" d="M870.505,532.415c-.1-.021,6.051.2,7.952,2.626C878.457,535.047,878.524,534.163,870.505,532.415Z" transform="translate(-718.024 -441.364)"/><path class="m" d="M896.35,553.168s1.227,8.816.955,10.353,1.429.546,1.429.546S900.469,551.27,896.35,553.168Z" transform="translate(-739.021 -458.069)"/><path class="m" d="M868.39,504.233a.8.8,0,0,0-.045-.088c-.415-.694-1.27-.839-1.125-1.724h0a.542.542,0,0,1,.022-.114,1.234,1.234,0,0,0,.021-.424h0a3.942,3.942,0,0,0-.983-1.823,5.513,5.513,0,0,1-.081-1.172v-.009a1.53,1.53,0,0,1,.133-.587.274.274,0,0,0-.013-.291c-.229-.388-1.244-.64-1.244-.64l-6.875,1.09c-.812.278-1.587.563-2.294.835-2.122.81-3.626,1.484-3.626,1.484l.051.2c.045.188.12.478.212.814.03.116.6-.021.634.1l.21.461,1.518.42s.124.31.294.8a.35.35,0,0,0,.03.088h0l.124.017c2.868.353,6.841.914,10.373,1.628Z" transform="translate(-703.218 -412.886)"/><path class="o" d="M866.313,503.594l-.107.03c-3.7-.773-7.972-1.375-10.977-1.743h0c-.188-.538-.323-.884-.323-.884l-2.262-.627-.062-.218c-.109-.392-.2-.75-.251-.957l-.051-.2s1.5-.673,3.626-1.482c.707-.272,1.484-.563,2.3-.837l6.873-1.088a4.518,4.518,0,0,1,.732.257c.351.163.67.4.525.673a3.734,3.734,0,0,0-.051,1.767s1.2,1.26.962,2.251.673,1.116,1.1,1.84S867.422,503.305,866.313,503.594Z" transform="translate(-703.218 -411.448)"/><path class="k" d="M852.681,353.277s-9.023.724-7.987-.09c.518-.407.161-1.619-.326-2.727a19.779,19.779,0,0,0-1.1-2.1s6.858-1.981,6.123-.855c-.218.332-.021.972.375,1.709A27.366,27.366,0,0,0,852.681,353.277Z" transform="translate(-695.898 -290.857)"/><path class="m" d="M849.762,349.214c-.188.223-.673-.043-.908.141-.82.642-1.6,1.491-2.716,1.474a4.707,4.707,0,0,1-1.771-.375,19.774,19.774,0,0,0-1.1-2.1s6.858-1.977,6.123-.852C849.175,347.837,849.372,348.477,849.762,349.214Z" transform="translate(-695.898 -290.855)"/><path class="k" d="M843.186,320.232a4.71,4.71,0,1,1-1.331-3.367,4.727,4.727,0,0,1,1.331,3.367Z" transform="translate(-688.15 -265.088)"/><path class="m" d="M865.857,496.617a9.471,9.471,0,0,1-2.21-.233,2.536,2.536,0,0,0-2.138.771,9.216,9.216,0,0,1-3.273.7c-1.022-.18-5.506,2.185-5.506,2.185l-.188.073c-.109-.392-.2-.75-.251-.957l-.051-.2s1.5-.673,3.626-1.482c.707-.272,1.484-.563,2.3-.837l6.873-1.088a4.521,4.521,0,0,1,.732.257A1.56,1.56,0,0,1,865.857,496.617Z" transform="translate(-703.186 -411.415)"/><path class="m" d="M723.946,395.173l-2.114.223a26.438,26.438,0,0,1,.036-3.416c.8.433,1.345.775,1.345.775Z" transform="translate(-597.208 -327.273)"/><path class="l" d="M753.754,364.33s-1.334.422-2.084.717a36.086,36.086,0,0,1-4.515.625.508.508,0,0,1-.476.491,14.749,14.749,0,0,0-1.971.606,24.961,24.961,0,0,1-3.617,1.523,2.934,2.934,0,0,1-1.964.054s-.152.992-1.688.445-1.743.03-1.743.03a57.421,57.421,0,0,0-7.5.306,14.962,14.962,0,0,1-4.536.128s-.411,4.975.45,5.2c.109.03,3.345.021,4.194.42a5.092,5.092,0,0,0,2.684-.188,1.781,1.781,0,0,1,1.186.323c.713.426,4.583.426,4.583.426s.276.058,1.266.351a8.354,8.354,0,0,0,2.735.039l4.084.535a15.888,15.888,0,0,1-.028,3.924c-.319,1.045-.064,6.19-.064,6.19s.938,6.262.673,7,2.771-.54,2.771-.54,4.487-2.367,5.506-2.187a9.247,9.247,0,0,0,3.273-.7,2.541,2.541,0,0,1,2.14-.771,9.388,9.388,0,0,0,2.208.225s.326-1.57-1.66-1.793c0,0-.876-.593-.032-1.658s-.493-3.784-.493-3.784-.426-1.112-.2-1.579-.265-4.564-.265-4.564,0-3.787-.833-5.4-1.4-4.5-2.362-4.926A5.094,5.094,0,0,1,753.754,364.33Z" transform="translate(-598.642 -304.81)"/><path class="m" d="M857.75,432s5.851,2.6,7.423,4.7S857.75,432,857.75,432Z" transform="translate(-707.662 -359.786)"/><path class="m" d="M870.08,455.78s7.072,4.112,6.588,5.155S870.08,455.78,870.08,455.78Z" transform="translate(-717.679 -379.105)"/><path class="m" d="M876.24,477.83a12.849,12.849,0,0,1,3.018,1.621C879.72,480.038,876.24,477.83,876.24,477.83Z" transform="translate(-722.684 -397.019)"/><path class="m" d="M813.82,392.33s5.4,2.9,4.476,4.074S813.82,392.33,813.82,392.33Z" transform="translate(-671.973 -327.557)"/><path class="m" d="M801.524,403.22a21.349,21.349,0,0,1,.9,2.418C802.451,405.992,800.8,403.513,801.524,403.22Z" transform="translate(-661.834 -336.405)"/><path class="m" d="M783,406.18c0,.111,2.814,1.836,1.653,2.29S783,406.18,783,406.18Z" transform="translate(-646.934 -338.809)"/><path class="m" d="M794.41,591.59a3.3,3.3,0,0,0,1.276,1.677C796.586,593.751,794.41,591.59,794.41,591.59Z" transform="translate(-656.203 -489.44)"/><path class="m" d="M749.325,635.29c-.013.912-.167,3.814.576,4.127S749.325,635.29,749.325,635.29Z" transform="translate(-619.558 -524.942)"/><path class="m" d="M759.77,649s1.7,2.872,1.112,3.362-1.262-.683-1.262-.683Z" transform="translate(-627.94 -536.08)"/><path class="m" d="M921.75,682.31a9.542,9.542,0,0,0,2.1.169C924.986,682.439,921.75,682.31,921.75,682.31Z" transform="translate(-759.657 -563.142)"/><path class="m" d="M917,674.051s2.1.39,2.848-.013S917,674.051,917,674.051Z" transform="translate(-755.798 -556.279)"/><path class="m" d="M912.6,659.7s2.1.169,2.523-.544S912.6,659.7,912.6,659.7Z" transform="translate(-752.223 -544.151)"/><path class="m" d="M909.45,655.443s2.013.334,2.35-.131S909.45,655.443,909.45,655.443Z" transform="translate(-749.664 -541.064)"/><path class="m" d="M899,634.23s2.168,1.026,2.409,1.611S899,634.23,899,634.23Z" transform="translate(-741.174 -524.081)"/><path class="m" d="M847.547,320.238a4.71,4.71,0,0,1-1.818,3.656c-.013-.024-.024-.049-.036-.073-.206-.441-.259-.938-.45-1.377a.666.666,0,0,0-.334-.385c-.3-.118-.606.159-.807.409s-.5.531-.8.42a.763.763,0,0,1-.375-.4,4.11,4.11,0,0,1-.659-1.8,8,8,0,0,0,.011-.949,2.039,2.039,0,0,0-.972-1.326,12.132,12.132,0,0,0-1.548-.75,2.3,2.3,0,0,1-.657-.42,4.727,4.727,0,0,1,8.441,2.99Z" transform="translate(-692.51 -265.094)"/><path class="p" d="M835.918,310.287c-.114.266.321.242.51.467a2.1,2.1,0,0,0,.73.5,12.53,12.53,0,0,1,1.548.75,2.037,2.037,0,0,1,.972,1.328,8.385,8.385,0,0,1-.009.947,4.122,4.122,0,0,0,.656,1.8.786.786,0,0,0,.375.4c.308.109.6-.171.8-.42s.5-.527.808-.411a.668.668,0,0,1,.332.384c.188.445.244.938.45,1.379a1.2,1.2,0,0,0,1.144.773.985.985,0,0,0,.7-.514,1.741,1.741,0,0,0,.188-.853,3.4,3.4,0,0,1,.021-.692,2.748,2.748,0,0,1,.548-.981,4.543,4.543,0,0,0,.827-2.1,3.2,3.2,0,0,0-.527-2.168,4.692,4.692,0,0,1-.64-.938c-.062-.159-.09-.33-.139-.5a2.448,2.448,0,0,0-2.088-1.688c-.784-.073-1.561.229-2.349.219-.914-.009-1.857-.431-2.709-.111a2.648,2.648,0,0,0-.989.75,7.59,7.59,0,0,0-1.159,1.688" transform="translate(-689.91 -258.834)"/><path class="q" d="M682.137,659.674l-.109.081s.405.7-.55,1.688c-.448.46-1.4.25-2.275-.1a8.629,8.629,0,0,1-2.814-1.859c-1.645-1.615-4.986-5.02-5.318-6.378-.188-.784.473-1,1.411-.955a15.575,15.575,0,0,1,3.752.865c1.512.52,3.547-.722,3.547-.722a3.058,3.058,0,0,1,.276-.75,1.7,1.7,0,0,1,1.125-.938c.732-.148,1.109,1.283,1.283,2.324a.729.729,0,0,0,.021.126c.083.52.114.915.114.915,1.3-.09,1.853,1.8,1.784,2.763s.375.974.375.974Z" transform="translate(-555.975 -537.375)"/><path class="r" d="M682.028,666.438s.405.7-.55,1.688c-.448.46-1.4.251-2.275-.1a8.6,8.6,0,0,1-2.814-1.859c-1.647-1.615-4.986-5.02-5.318-6.378-.188-.784.473-1,1.411-.955a4.874,4.874,0,0,0,.778,2.452c.844.979,3.255,4.277,6.269,4.314a4.689,4.689,0,0,1,2.611.75Z" transform="translate(-555.975 -544.065)"/><path class="m" d="M700.54,676.355s2.908-2.225,5.352-1.221A12.336,12.336,0,0,0,700.54,676.355Z" transform="translate(-579.942 -557.101)"/><path class="m" d="M718.11,679.81a29.252,29.252,0,0,0,3.333.878C722,680.7,718.585,679.6,718.11,679.81Z" transform="translate(-594.216 -561.089)"/><path class="m" d="M934.53,715.48s3.337.069,3.444.827-1.246.713-1.246.713Z" transform="translate(-770.039 -590.09)"/><path class="q" d="M922.893,750.958l.011.12s.718.022,1.013,1.206c.139.563-.465,1.176-1.148,1.688a7.67,7.67,0,0,1-2.733,1.263c-2,.488-6.153,1.418-7.335,1.035-.685-.223-.536-.829-.06-1.519a13.99,13.99,0,0,1,2.424-2.439c1.1-.9,1.126-3.029,1.126-3.029s-.981-.893-.623-1.863,3.217.506,3.217.506c.544-1.028,2.234-.563,2.934-.052s.914.176.914.176Z" transform="translate(-751.927 -615.771)"/><path class="r" d="M922.9,767.871s.718.023,1.013,1.206c.139.563-.465,1.176-1.148,1.688a7.667,7.667,0,0,1-2.733,1.262c-2,.488-6.153,1.418-7.335,1.036-.685-.223-.536-.829-.06-1.519a4.373,4.373,0,0,0,2.225.563c1.139-.188,4.774-.458,6.224-2.722a4.193,4.193,0,0,1,1.8-1.624Z" transform="translate(-751.927 -632.563)"/><path class="m" d="M942.724,762.515s-.319-3.251,1.592-4.635A11.039,11.039,0,0,0,942.724,762.515Z" transform="translate(-776.68 -624.536)"/><path class="m" d="M948.93,758.517a24.672,24.672,0,0,0,2.232-2.114C951.429,755.977,948.99,758.057,948.93,758.517Z" transform="translate(-781.738 -623.29)"/><path class="m" d="M905.289,510.09s-2.534,1.313-4.378.793S905.289,510.09,905.289,510.09Z" transform="translate(-742.449 -423.228)"/><path class="m" d="M915.208,524.16s-.4.713-2.883.538S915.208,524.16,915.208,524.16Z" transform="translate(-751.466 -434.658)"/><g class="s" transform="translate(145.978 50.503)"><path d="M887.54,345.888l.105-.146c.077-.111.15-.225.218-.341A4.558,4.558,0,0,0,887.54,345.888Z" transform="translate(-877.842 -339.934)"/><path d="M844.487,324.652a1.206,1.206,0,0,1-1.144-.773c-.206-.439-.259-.938-.45-1.379a.668.668,0,0,0-.332-.385c-.3-.116-.606.161-.808.411s-.5.529-.8.42a.775.775,0,0,1-.375-.4,4.085,4.085,0,0,1-.658-1.8,8.432,8.432,0,0,0,0-.949,2.023,2.023,0,0,0-.972-1.326,12.532,12.532,0,0,0-1.548-.75,2.089,2.089,0,0,1-.728-.5c-.188-.225-.626-.2-.51-.467.086-.173.188-.34.281-.5a7.76,7.76,0,0,0-.58.957c-.115.266.321.242.51.467a2.1,2.1,0,0,0,.73.5,12.535,12.535,0,0,1,1.548.75,2.037,2.037,0,0,1,.972,1.328,8.4,8.4,0,0,1-.009.947,4.12,4.12,0,0,0,.656,1.8.786.786,0,0,0,.375.4c.308.109.6-.171.8-.42s.5-.527.808-.411a.668.668,0,0,1,.332.385c.188.445.244.938.45,1.379a1.2,1.2,0,0,0,1.144.773.985.985,0,0,0,.7-.514,1.455,1.455,0,0,0,.079-.174A.921.921,0,0,1,844.487,324.652Z" transform="translate(-835.839 -316.26)"/></g><path class="m" d="M848.73,368.329s2.159-.107,3.6-.058a9.174,9.174,0,0,0,3.564-1.111" transform="translate(-700.334 -307.109)"/><path class="t" d="M187.478,331.25c-.218-1.107-2.264-.929-3.752-.643-.126.024-.248.049-.364.075l.107-.445-.7-.289a18.411,18.411,0,0,0-4.284-1.187c-2.153-.323-5.567-1.015-7.667-2.356-1.908-1.219-2.673-1.572-3.206-1.9v-.287c0-.544-.032-1.043-.073-1.488a6.271,6.271,0,0,0-.236-1.206c-.446-1.48-1.452-1.955-2.459-2.881a9.222,9.222,0,0,0-2.219-1.546,5.94,5.94,0,0,1,.428-1.422c.028-.069.058-.137.086-.206a.026.026,0,0,1,.013-.026c.03-.069.06-.139.09-.2a4.622,4.622,0,0,0,2.414-4.044,4.571,4.571,0,0,0-1.358-3.25q-.11-.108-.226-.209l.218-.071c.463-.165.968-.619.833-1.005h-.068a.388.388,0,0,0-.019-.081.938.938,0,0,1-.563-.212c-.216-.266-.281-.666-.677-1.039a1.846,1.846,0,0,0-.295-.255,2.6,2.6,0,0,0-.955-.4c.028.019.058.034.086.054l.058.045a14.694,14.694,0,0,1-2.42-.48,3.51,3.51,0,0,1-.516-.283l.1.026c-.4-.233-.765-.531-1.184-.75a3.266,3.266,0,0,0-.73-.265l.188.111a4.363,4.363,0,0,0-3.249.521,7.165,7.165,0,0,0-2.579,2.915,12.432,12.432,0,0,0-1.444,6.26,7.609,7.609,0,0,1-.188,3.127c-.326.825-1.011,1.482-1.42,2.273-1.578,3.061,1.328,7.038-.452,10-.643,1.071-1.8,1.78-2.579,2.765s-1.067,2.577-.023,3.316c.75.533,1.818.36,2.712.63a4.314,4.314,0,0,1-1.277,2.416l-.146-.028c-.034.032-.066.066-.1.1l.139.036-.053.051a14.38,14.38,0,0,0,3,.533,4.816,4.816,0,0,0,2.641-.4,3.564,3.564,0,0,0,1.032-.882c0,.188.013.353.024.523a10.169,10.169,0,0,0,.293,2.047c.869,3.15-1.876,5.618-1.876,5.618a9.066,9.066,0,0,0-.919,4.408h0a9.179,9.179,0,0,0,.563,2.7c.026.069.051.137.077.2.051.131.105.259.158.375.081.188.161.351.242.5.053.105.105.2.156.293a6.8,6.8,0,0,0,.6.925q.416-.283.833-.535v.336c.015,1.161-.1,2.626-.1,2.626s-.87,3.108-.957,4-.422,6.428-.422,6.428a16.858,16.858,0,0,1-3.346,5.747c-2.172,2.17-1.688,8.387-1.688,8.387s-1.521,5.235-1,5.491a.532.532,0,0,0,.261.015v.212c-.938.651-1.651,1.178-1.651,1.178a35.3,35.3,0,0,1-.61,5.13c-.349.831.435,1.81.435,1.81s7.738-.214,8.411-.257a11.008,11.008,0,0,0,2.409-.829,13.413,13.413,0,0,0,4.69-2.287,1.469,1.469,0,0,0,.353-.476c.478-1.193-3.847-.3-5.022-.3s-1.3-.895-1.848-1.576a2.168,2.168,0,0,1-.152-1.808l-.113-3.189.516-.208a12.518,12.518,0,0,1,1.825-4.044c1.129-1.319,3.131-6.344,3.174-6.6a3.941,3.941,0,0,1,.912-1.876,17.688,17.688,0,0,0,1.636-3.613s1.876-5.875,3.3-8.9a27.139,27.139,0,0,0,1.609-7.391,7.418,7.418,0,0,1,.8.266s.4-2.572.563-5.507a31.429,31.429,0,0,0-.036-4.5c-.229-2.439-1.653-7.16-1.568-11.553.343.221.677.431.977.619,0-.111.013-.219.021-.33.769.478,1.324.807,1.324.807s4.607,2.553,8.649,2.6,4.738.51,4.738.51l.255-1.054.362-.068C184.706,333.294,187.728,332.52,187.478,331.25Z" transform="translate(-128.362 -255.001)"/><path class="u" d="M255.24,322.7l-.21-.156a.449.449,0,0,1,.086.148Z" transform="translate(-218.002 -270.859)"/><path class="v" d="M252.891,321.362h.126l-.118-.088h.032l-.21-.154a.448.448,0,0,1,.084.146h.047A.412.412,0,0,1,252.891,321.362Z" transform="translate(-216.125 -269.705)"/><rect class="w" width="3.345" height="5.22" transform="translate(27.645 59.355)"/><rect class="m" width="3.345" height="5.22" transform="translate(27.645 59.355)"/><rect class="x" width="3.041" height="4.097" transform="translate(22.246 133.46) rotate(180)"/><path class="y" d="M206.521,363.179c.816.311,1.735,1.96,1.78,3.337a4.072,4.072,0,0,1-.711,1.675l.75-.088c.385-.051.884-.118,1.413-.2.443-.068.906-.143,1.341-.223,1.195-.221,2.172-.486,1.9-.73a.74.74,0,0,1-.129-.634,6.086,6.086,0,0,1,.416-1.411c.058-.148.122-.294.188-.433.276-.63.542-1.126.542-1.126s-2.553-.188-4.69-.276c-.73-.032-1.412-.053-1.934-.054h-.2C206.54,363.015,206.229,363.068,206.521,363.179Z" transform="translate(-178.503 -303.745)"/><path class="z" d="M187.266,551.21s-.375,6.8-1.773,9.8-3.21,8.828-3.21,8.828a18.035,18.035,0,0,1-1.606,3.59,3.954,3.954,0,0,0-.887,1.859c-.043.253-1.985,5.237-3.084,6.547a12.507,12.507,0,0,0-1.773,4.012s-4.815,2.026-5.322,1.773.972-5.44.972-5.44-.465-6.168,1.647-8.321a16.813,16.813,0,0,0,3.253-5.7s.338-5.492.422-6.378.929-3.971.929-3.971a17.276,17.276,0,0,0-.041-3.885C176.5,553.288,187.266,551.21,187.266,551.21Z" transform="translate(-148.521 -456.634)"/><path class="i" d="M187.266,551.21s-.375,6.8-1.773,9.8-3.21,8.828-3.21,8.828a18.035,18.035,0,0,1-1.606,3.59,3.954,3.954,0,0,0-.887,1.859c-.043.253-1.985,5.237-3.084,6.547a12.507,12.507,0,0,0-1.773,4.012s-4.815,2.026-5.322,1.773.972-5.44.972-5.44-.465-6.168,1.647-8.321a16.813,16.813,0,0,0,3.253-5.7s.338-5.492.422-6.378.929-3.971.929-3.971a17.276,17.276,0,0,0-.041-3.885C176.5,553.288,187.266,551.21,187.266,551.21Z" transform="translate(-148.521 -456.634)"/><path class="f" d="M166.083,733.82l.128,3.652a2.224,2.224,0,0,0,.146,1.8c.521.67.655,1.563,1.8,1.563s5.344-.887,4.877.3-4.414,2.7-5.065,2.744-8.167.253-8.167.253a2.111,2.111,0,0,1-.422-1.793,35.885,35.885,0,0,0,.591-5.091S165.83,732.79,166.083,733.82Z" transform="translate(-140.22 -604.864)"/><path class="i" d="M166.244,733.644l.126,3.654a2.215,2.215,0,0,0,.148,1.793c.523.668.655,1.564,1.8,1.564s5.342-.887,4.877.294-4.414,2.7-5.065,2.746-8.173.253-8.173.253a2.149,2.149,0,0,1-.422-1.8,37.1,37.1,0,0,0,.583-5.089S165.99,732.609,166.244,733.644Z" transform="translate(-140.349 -604.72)"/><path class="z" d="M158.211,591.785c.506.253,5.316-1.782,5.316-1.782a12.529,12.529,0,0,1,1.775-4.012c1.1-1.309,3.041-6.293,3.082-6.547a3.932,3.932,0,0,1,.887-1.859,18.036,18.036,0,0,0,1.606-3.59s1.816-5.828,3.21-8.826c.968-2.082,1.446-6,1.651-8.2.088-.968.124-1.6.124-1.6s-10.771,2.063-10.475,2.7a4.075,4.075,0,0,1,.141,1.281c.015,1.152-.1,2.6-.1,2.6s-.844,3.084-.929,3.971-.422,6.378-.422,6.378a16.813,16.813,0,0,1-3.253,5.7c-2.112,2.153-1.647,8.321-1.647,8.321S157.712,591.532,158.211,591.785Z" transform="translate(-139.261 -460.014)"/><path class="m" d="M205.753,592.874s-2.2-.591-2.956.084S205.753,592.874,205.753,592.874Z" transform="translate(-175.483 -490.288)"/><path class="m" d="M203.594,607.678s-3.465-.75-3.506.338S203.594,607.678,203.594,607.678Z" transform="translate(-173.366 -502.305)"/><path class="m" d="M202.37,625s-1.191,1.011-1.941.673S202.37,625,202.37,625Z" transform="translate(-173.535 -516.582)"/><path class="m" d="M194.24,654.25s2.407.887,1.857,1.818-.972,1.056-1.182.8A17.35,17.35,0,0,1,194.24,654.25Z" transform="translate(-168.615 -540.346)"/><path class="f" d="M154.657,738.014l.128,3.654a2.215,2.215,0,0,0,.148,1.793c.523.668.655,1.565,1.8,1.565s5.342-.887,4.877.294-4.414,2.7-5.065,2.746-8.173.253-8.173.253a2.116,2.116,0,0,1-.422-1.8,35.867,35.867,0,0,0,.591-5.089S154.4,736.979,154.657,738.014Z" transform="translate(-130.934 -608.27)"/><path class="m" d="M164.631,763.533s-.105.718-2.365.021S164.631,763.533,164.631,763.533Z" transform="translate(-142.133 -628.889)"/><path class="m" d="M155.335,767.62s-.506.7,1.289,1.015S155.335,767.62,155.335,767.62Z" transform="translate(-136.954 -632.449)"/><path class="m" d="M158.21,764.69s1.775,1.542,2.322,1.542" transform="translate(-139.344 -630.069)"/><path class="m" d="M210.47,363c.784,1.422,2.221,1.176,4.037,2.386.619.415,1.452-.176,2.075-.5.328-.818.726-1.561.726-1.561S212.4,362.981,210.47,363Z" transform="translate(-181.801 -303.727)"/><path class="y" d="M207.45,329.453a4.583,4.583,0,1,0,1.343-3.262A4.6,4.6,0,0,0,207.45,329.453Z" transform="translate(-179.347 -272.735)"/><path class="m" d="M196.914,558.113a4.074,4.074,0,0,1,.141,1.281,15.542,15.542,0,0,1,10.21-2.38c.088-.968.124-1.6.124-1.6S196.618,557.479,196.914,558.113Z" transform="translate(-170.783 -460.046)"/><path class="o" d="M184.027,410.2a9.259,9.259,0,0,0,1.737,4.962c7.316-5.065,13.855-2.238,13.855-2.238s.388-2.551.54-5.464a32.376,32.376,0,0,0-.034-4.463c-.238-2.572-1.788-7.708-1.491-12.29.131-2.017.914-3.9.885-5.451,0-.538-.03-1.034-.069-1.474a6.284,6.284,0,0,0-.231-1.2c-.431-1.471-1.411-1.94-2.388-2.859a8.941,8.941,0,0,0-2.157-1.534,4.3,4.3,0,0,0-4.566.2,5.4,5.4,0,0,0-.72.613,6.82,6.82,0,0,0-.767.938c-.039.054-.075.111-.111.165a5.924,5.924,0,0,0-.563,1.6,62.808,62.808,0,0,0-1.005,7.267,62.019,62.019,0,0,0-.5,9.246,10.361,10.361,0,0,0,.283,2.031c.846,3.125-1.816,5.575-1.816,5.575A9.141,9.141,0,0,0,184.027,410.2Z" transform="translate(-160.31 -315.617)"/><path class="y" d="M340.59,454.336s.445-.064,1.077-.188c1.653-.33,4.6-1.1,4.354-2.358-.21-1.1-2.2-.921-3.645-.638a15.1,15.1,0,0,0-1.517.375Z" transform="translate(-287.512 -375.172)"/><path class="m" d="M221.824,402.554c.887.675,3.084,2.534,4.772,3.844.951.737,2.277,1.608,3.255,2.23.131-2.018.223-3.939.2-5.487a24.182,24.182,0,0,1-1.887-2.4,10.487,10.487,0,0,0-4.943-2.787C221.111,397.486,220.942,401.871,221.824,402.554Z" transform="translate(-190.617 -332.096)"/><path class="m" d="M340.59,455.239s.445-.064,1.077-.188l.709-3a15.115,15.115,0,0,0-1.517.375Z" transform="translate(-287.512 -376.075)"/><path class="x" d="M223.2,396.151a10.413,10.413,0,0,1,4.943,2.788c1.775,2.071,1.126,1.125,4.772,3.506,2.039,1.33,5.355,2.017,7.449,2.335a17.691,17.691,0,0,1,4.162,1.18l.679.285-1.056,4.481s-.675-.465-4.6-.507-8.406-2.577-8.406-2.577-2.872-1.731-4.562-3.041-3.885-3.172-4.778-3.847S221.091,395.686,223.2,396.151Z" transform="translate(-190.596 -330.634)"/><path class="m" d="M205,383.509c.615.375,1.36.221,2.251-.884,2.4-2.99,6.378-.011,9.019,1.76-.431-1.469-1.411-1.94-2.388-2.859-2.833-2.662-6-2.99-8.211.216-.039.054-.075.111-.111.165A5.626,5.626,0,0,0,205,383.509Z" transform="translate(-177.357 -317.08)"/><path class="o" d="M205,381.708c.615.375,1.36.221,2.251-.884a1.037,1.037,0,0,1,.069-.084,3.275,3.275,0,0,1,1.289-.962,3.188,3.188,0,0,1,1.341-.223c2.114.067,4.528,1.827,6.32,3.029-.431-1.471-1.411-1.94-2.388-2.859a8.939,8.939,0,0,0-2.157-1.534,4.3,4.3,0,0,0-4.566.2,5.392,5.392,0,0,0-.72.613,6.821,6.821,0,0,0-.767.938c-.039.054-.075.111-.111.165A5.665,5.665,0,0,0,205,381.708Z" transform="translate(-177.357 -315.617)"/><path class="m" d="M184.07,537.566a9.259,9.259,0,0,0,1.737,4.962c7.316-5.065,13.855-2.238,13.855-2.238s.388-2.551.54-5.464c-2.786-.024-10.718.041-13.38,1.5A17.661,17.661,0,0,1,184.07,537.566Z" transform="translate(-160.353 -443.32)"/><path class="x" d="M184.07,539.366a9.259,9.259,0,0,0,1.737,4.961c7.316-5.065,13.855-2.238,13.855-2.238s.388-2.551.54-5.464c-2.786-.024-10.718.041-13.38,1.5A17.667,17.667,0,0,1,184.07,539.366Z" transform="translate(-160.353 -444.782)"/><path class="m" d="M255.344,325.684l-.2-.154a.448.448,0,0,1,.084.146Z" transform="translate(-218.091 -273.288)"/><path class="m" d="M196.813,355.28a5.538,5.538,0,0,0,.673-.835,11.6,11.6,0,0,0,1.444-9,3.626,3.626,0,0,1-.107-2.047c.334-.9,1.384-1.364,1.863-2.2.583-1.019.178-2.251-.056-3.4a.662.662,0,0,0-.026-.135c-.041-.208-.073-.42-.1-.63a8.747,8.747,0,0,1,.39-3.761c.021-.062.041-.124.064-.188a5.7,5.7,0,0,1,.518-1.086,3.131,3.131,0,0,1,1.835-1.478,1.447,1.447,0,0,0,.632-.236c.475-.414-.066-1.125-.173-1.737a1.808,1.808,0,0,1,1.088-1.756,9.982,9.982,0,0,1,1.8-.627,4.605,4.605,0,0,0-7.117,5.785h-.2c-.632,0-.938.051-.651.161.816.311,1.015,2.574,1.06,3.951a6.823,6.823,0,0,0-.767.938c-.039.054-.075.111-.111.165a5.926,5.926,0,0,0-.563,1.6,98.126,98.126,0,0,0-1.5,16.517Z" transform="translate(-170.67 -272.676)"/><path class="w" d="M171.156,309.648c.343.407-.218.957-.728,1.141a14.81,14.81,0,0,0-2.131.737,1.82,1.82,0,0,0-1.09,1.756c.111.61.649,1.313.174,1.737a1.474,1.474,0,0,1-.632.238,3.762,3.762,0,0,0-2.352,2.562,8.7,8.7,0,0,0-.356,4.575c.227,1.187.688,2.48.083,3.538-.478.835-1.529,1.3-1.863,2.2a3.626,3.626,0,0,0,.107,2.047,11.6,11.6,0,0,1-1.444,9,4.146,4.146,0,0,1-1.362,1.362,4.622,4.622,0,0,1-2.566.394,13.765,13.765,0,0,1-2.919-.531,4.314,4.314,0,0,0,1.4-2.549c-.87-.27-1.9-.1-2.636-.626-1.015-.732-.741-2.313.021-3.29a31.262,31.262,0,0,0,2.508-2.742c1.728-2.938-1.1-6.884.437-9.919.4-.788,1.064-1.439,1.381-2.251a7.826,7.826,0,0,0,.178-3.1,12.557,12.557,0,0,1,1.4-6.211,7.052,7.052,0,0,1,2.5-2.891,3.969,3.969,0,0,1,3.77-.274c.514.266.938.672,1.473.9,1.024.448,2.322.206,3.223.854s.49,1.478,1.621,1.5" transform="translate(-134.445 -257.574)"/><path class="m" d="M212.506,495c-.439.219-1.313,2.2-3.3,3.628S212.506,495,212.506,495Z" transform="translate(-180.414 -410.968)"/><path class="m" d="M206.874,473.9s-2.529,5.277-5.5,6.046S206.874,473.9,206.874,473.9Z" transform="translate(-173.901 -393.826)"/><path class="m" d="M255.309,542.2a13.452,13.452,0,0,0-.675,2.872C254.8,545.3,255.309,542.2,255.309,542.2Z" transform="translate(-217.662 -449.314)"/><path class="m" d="M246.6,542.8a13.452,13.452,0,0,0-.675,2.872C246.092,545.9,246.6,542.8,246.6,542.8Z" transform="translate(-210.585 -449.802)"/><path class="m" d="M236.691,542.5a13.45,13.45,0,0,0-.677,2.872C236.182,545.6,236.691,542.5,236.691,542.5Z" transform="translate(-202.535 -449.558)"/><path class="m" d="M191.63,553.67a13.453,13.453,0,0,0,.8,2.84C192.686,556.626,191.63,553.67,191.63,553.67Z" transform="translate(-166.495 -458.633)"/><path class="m" d="M208.44,547.36a13.421,13.421,0,0,0,.8,2.84C209.5,550.314,208.44,547.36,208.44,547.36Z" transform="translate(-180.152 -453.506)"/><path class="m" d="M198.84,551.57a13.451,13.451,0,0,0,.8,2.84C199.9,554.526,198.84,551.57,198.84,551.57Z" transform="translate(-172.352 -456.927)"/><path class="m" d="M276.566,437.58c-.141.028.422,1.379-1.184,1.463S276.566,437.58,276.566,437.58Z" transform="translate(-234.132 -364.319)"/><path class="m" d="M333.261,455.74s-.619,1.294-1.634,1.548S333.261,455.74,333.261,455.74Z" transform="translate(-280.042 -379.073)"/><path class="m" d="M309.939,451.39s1.352,1.407-.535,1.716S309.939,451.39,309.939,451.39Z" transform="translate(-261.592 -375.539)"/><path class="m" d="M244.215,420.606s-2.759-.846-3.189-.227S244.215,420.606,244.215,420.606Z" transform="translate(-206.597 -350.161)"/><path class="m" d="M216.206,441c-.441.219-1.313,2.2-3.3,3.628S216.206,441,216.206,441Z" transform="translate(-183.417 -367.098)"/><g class="s" transform="translate(18.32 48.618)"><path d="M217.867,307.039a13.317,13.317,0,0,1-1.337-.829,3.1,3.1,0,0,1,.709.263c.405.21.76.506,1.15.737A3.144,3.144,0,0,1,217.867,307.039Z" transform="translate(-205.044 -306.21)"/><path d="M253.114,324.334l-.122-.009a.454.454,0,0,0-.083-.144Z" transform="translate(-234.6 -320.809)"/><path d="M157.082,471.521c-.009.058-.024.116-.036.176a3.611,3.611,0,0,1-1.746-.458A17.878,17.878,0,0,1,157.082,471.521Z" transform="translate(-155.3 -440.283)"/><path d="M163.955,347.536a4.592,4.592,0,0,0,2.566-.394,4.14,4.14,0,0,0,1.362-1.36,11.6,11.6,0,0,0,1.444-9,3.644,3.644,0,0,1-.109-2.047c.336-.9,1.386-1.364,1.865-2.2.606-1.058.144-2.35-.084-3.538a8.713,8.713,0,0,1,.356-4.575,3.779,3.779,0,0,1,2.354-2.564,1.482,1.482,0,0,0,.632-.236c.473-.416-.066-1.126-.174-1.737a1.812,1.812,0,0,1,1.088-1.756,15.7,15.7,0,0,1,2.131-.737c.452-.163.938-.613.812-1l.12.009-.2-.154a.448.448,0,0,1,.083.144c-.975-.084-.628-.868-1.5-1.5l-.084-.054a2.546,2.546,0,0,1,.938.392c.87.627.523,1.413,1.5,1.5.131.375-.36.833-.81,1a14.809,14.809,0,0,0-2.131.737,1.821,1.821,0,0,0-1.09,1.756c.111.61.649,1.313.174,1.737a1.474,1.474,0,0,1-.632.238,3.762,3.762,0,0,0-2.352,2.562,8.715,8.715,0,0,0-.358,4.579c.229,1.187.69,2.48.084,3.538-.478.835-1.529,1.3-1.863,2.2a3.626,3.626,0,0,0,.107,2.047,11.6,11.6,0,0,1-1.444,9,4.163,4.163,0,0,1-1.362,1.362,4.622,4.622,0,0,1-2.566.394,13.763,13.763,0,0,1-2.919-.531c.036-.03.066-.064.1-.1A13.438,13.438,0,0,0,163.955,347.536Z" transform="translate(-160.654 -313.221)"/></g><path class="e" d="M808.732,110.691s-15.793-.951-13.932,10.116a2.689,2.689,0,0,0,1.4,2.844s.028-.82,1.621-.542a7.291,7.291,0,0,0,1.715.083,3.564,3.564,0,0,0,2.1-.867h0s4.44-1.833,6.166-9.09c0,0,1.277-1.581,1.227-1.988l-2.666,1.137a4.755,4.755,0,0,1,.188,3.521s-.086-3.45-.6-3.376c-.105.017-1.386.666-1.386.666s1.568,3.35.375,5.785c0,0,.45-4.127-.872-5.543l-1.876,1.1s1.833,3.461.591,6.282c0,0,.319-4.329-.985-6.014l-1.7,1.326s1.741,3.423.687,5.757c0,0-.137-5.04-1.041-5.421a10.415,10.415,0,0,0-1.713,1.851s1.178,2.474.446,3.782c0,0-.448-3.36-.816-3.376a11.147,11.147,0,0,0-1.636,3.752,8.092,8.092,0,0,1,1.278-3.964,4.459,4.459,0,0,0-2.27,1.176s.231-1.574,2.626-1.711a10.238,10.238,0,0,1,1.551-1.79,9.731,9.731,0,0,0-3.842.443s1.277-1.484,4.281-.81l1.688-1.369s-3.149-.431-4.483.045c0,0,1.536-1.313,4.935-.356l1.827-1.094a16.762,16.762,0,0,0-4.283-.375s1.688-.91,4.817.077l1.313-.587s-1.966-.386-2.542-.446-.608-.219-.608-.219a6.8,6.8,0,0,1,3.7.411A16.263,16.263,0,0,0,808.732,110.691Z" transform="translate(-656.396 -98.733)"/><path class="e" d="M755.812,84.51s-7.128-.431-6.3,4.57a1.22,1.22,0,0,0,.634,1.285s.013-.375.732-.244a3.3,3.3,0,0,0,.777.038,1.619,1.619,0,0,0,.938-.392h0s2.005-.829,2.786-4.108c0,0,.578-.715.563-.9l-1.2.514a2.166,2.166,0,0,1,.088,1.591s-.039-1.559-.27-1.521c-.049,0-.627.3-.627.3a3.566,3.566,0,0,1,.175,2.613s.2-1.865-.4-2.5l-.848.493a3.748,3.748,0,0,1,.266,2.84,5.32,5.32,0,0,0-.445-2.718l-.767.6a3.659,3.659,0,0,1,.3,2.6s-.062-2.277-.469-2.439a4.68,4.68,0,0,0-.775.835s.533,1.126.2,1.709c0,0-.2-1.518-.375-1.523a5.048,5.048,0,0,0-.739,1.688,3.644,3.644,0,0,1,.578-1.791,2.011,2.011,0,0,0-1.026.531s.105-.711,1.191-.773a4.682,4.682,0,0,1,.7-.808,4.409,4.409,0,0,0-1.737.2,1.963,1.963,0,0,1,1.934-.375l.76-.619a6.474,6.474,0,0,0-2.026.021,2.456,2.456,0,0,1,2.229-.161l.827-.5a7.517,7.517,0,0,0-1.936-.167,2.967,2.967,0,0,1,2.178.036l.589-.266s-.887-.174-1.148-.2-.274-.1-.274-.1a3.075,3.075,0,0,1,1.669.188A7.078,7.078,0,0,0,755.812,84.51Z" transform="translate(-619.677 -77.471)"/><ellipse class="c" cx="5.052" cy="0.854" rx="5.052" ry="0.854" transform="translate(193.378 134.205)"/><ellipse class="aa" cx="5.052" cy="0.854" rx="5.052" ry="0.854" transform="translate(0.858 148.403)"/><ellipse class="aa" cx="5.052" cy="0.854" rx="5.052" ry="0.854" transform="translate(30.183 149.472)"/><ellipse class="e" cx="7.543" cy="1.276" rx="7.543" ry="1.276" transform="translate(179.831 142.929)"/><path class="e" d="M1042.93,789.606a2.2,2.2,0,0,0,.718-1.084.965.965,0,0,0-.5-1.107c-.462-.176-.955.145-1.328.467a1.773,1.773,0,0,1-1.292.623,1.966,1.966,0,0,0,.61-1.84.775.775,0,0,0-.171-.375c-.255-.274-.72-.156-1.026.06a3.825,3.825,0,0,0-1.253,3.2,6.145,6.145,0,0,1-.019-1.313,1.351,1.351,0,0,0-.5-1.167,1.5,1.5,0,0,0-.75-.188,1.556,1.556,0,0,0-1.225.349,1.209,1.209,0,0,0,.047,1.5,4.775,4.775,0,0,0,1.27,1.017,2.815,2.815,0,0,1,.906.865.786.786,0,0,1,.068.156h2.75A7.737,7.737,0,0,0,1042.93,789.606Z" transform="translate(-852.439 -647.487)"/><path class="e" d="M89.414,720.81s1.03,1.347-.475,3.376-2.748,3.752-2.251,5.02c0,0,2.273-3.778,4.127-3.83S91.449,723.082,89.414,720.81Z" transform="translate(-81.148 -594.42)"/><path class="m" d="M89.676,720.81a1.618,1.618,0,0,1,.21.422c1.8,2.12,2.767,4.1,1.032,4.149-1.615.045-3.555,2.936-4.018,3.665.015.054.034.111.054.165,0,0,2.273-3.778,4.127-3.83S91.712,723.082,89.676,720.81Z" transform="translate(-81.41 -594.42)"/><path class="ab" d="M110.886,728.674c0,.475-.053.859-.118.859s-.118-.375-.118-.859.066-.249.131-.249S110.886,728.191,110.886,728.674Z" transform="translate(-100.705 -600.56)"/><path class="ab" d="M111.893,731.6c-.416.227-.78.364-.812.308s.281-.289.7-.516.253-.062.283,0S112.309,731.365,111.893,731.6Z" transform="translate(-101.053 -602.919)"/><path class="e" d="M62.658,720.81s-1.03,1.347.476,3.376,2.748,3.752,2.251,5.02c0,0-2.272-3.778-4.127-3.83S60.625,723.082,62.658,720.81Z" transform="translate(-59.836 -594.42)"/><path class="m" d="M62.641,720.81a1.688,1.688,0,0,0-.21.422c-1.8,2.12-2.765,4.1-1.032,4.149,1.617.045,3.564,2.936,4.02,3.665-.017.054-.034.111-.056.165,0,0-2.272-3.778-4.127-3.83S60.607,723.082,62.641,720.81Z" transform="translate(-59.818 -594.42)"/><path class="ab" d="M62.47,728.674c0,.475.053.859.12.859s.118-.375.118-.859-.068-.249-.133-.249S62.47,728.191,62.47,728.674Z" transform="translate(-61.563 -600.56)"/><path class="ab" d="M57.891,731.6c.416.227.778.364.81.308s-.281-.289-.7-.516-.251-.062-.283,0S57.469,731.365,57.891,731.6Z" transform="translate(-57.635 -602.919)"/><path class="ac" d="M64.22,757.929s2.881-.088,3.752-.707,4.431-1.356,4.648-.354,4.331,4.932,1.077,4.958-7.558-.506-8.424-1.036S64.22,757.929,64.22,757.929Z" transform="translate(-62.985 -623.313)"/><path class="ad" d="M73.721,768.185c-3.253.026-7.558-.507-8.424-1.035-.66-.4-.923-1.844-1.011-2.51h-.1s.188,2.324,1.049,2.851,5.172,1.062,8.424,1.035c.938,0,1.264-.341,1.246-.837C74.785,767.992,74.426,768.18,73.721,768.185Z" transform="translate(-62.96 -630.028)"/></g></svg>