<?xml version="1.0" encoding="UTF-8" ?>
<!DOCTYPE svg PUBLIC "-//W3C//DTD SVG 1.1//EN" "http://www.w3.org/Graphics/SVG/1.1/DTD/svg11.dtd">
<svg width="1280px" height="720px" viewBox="0 0 1280 720" version="1.1" xmlns="http://www.w3.org/2000/svg">
<g id="#ffffffff">
<path fill="#ffffff" opacity="1.00" d=" M 0.00 0.00 L 1280.00 0.00 L 1280.00 720.00 L 0.00 720.00 L 0.00 0.00 M 282.48 263.67 C 259.17 267.39 237.57 280.55 223.61 299.57 C 210.39 317.31 204.08 340.01 206.23 362.02 C 207.89 381.70 216.38 400.71 229.75 415.24 C 245.36 432.44 267.75 443.36 290.95 444.84 C 298.63 445.44 306.33 445.13 314.02 445.20 C 346.70 445.18 379.38 445.16 412.05 445.11 C 509.01 444.71 606.00 444.86 702.97 444.71 C 795.30 444.56 887.64 444.55 979.97 444.35 C 1008.60 444.21 1036.54 429.35 1052.80 405.81 C 1070.99 380.30 1074.35 345.15 1061.37 316.64 C 1049.88 290.42 1025.15 270.44 997.00 265.04 C 985.51 262.53 973.69 263.42 962.03 263.20 C 917.01 263.17 872.00 263.15 826.99 263.13 C 773.00 262.87 719.00 262.83 665.01 262.80 C 545.31 262.73 425.62 262.58 305.93 262.43 C 298.10 262.37 290.21 262.36 282.48 263.67 Z" />
</g>
<g id="#f8af40ff">
<path fill="#f8af40" opacity="1.00" d=" M 282.48 263.67 C 290.21 262.36 298.10 262.37 305.93 262.43 C 425.62 262.58 545.31 262.73 665.01 262.80 C 719.00 262.83 773.00 262.87 826.99 263.13 C 872.00 263.15 917.01 263.17 962.03 263.20 C 973.69 263.42 985.51 262.53 997.00 265.04 C 1025.15 270.44 1049.88 290.42 1061.37 316.64 C 1074.35 345.15 1070.99 380.30 1052.80 405.81 C 1036.54 429.35 1008.60 444.21 979.97 444.35 C 887.64 444.55 795.30 444.56 702.97 444.71 C 606.00 444.86 509.01 444.71 412.05 445.11 C 379.38 445.16 346.70 445.18 314.02 445.20 C 306.33 445.13 298.63 445.44 290.95 444.84 C 267.75 443.36 245.36 432.44 229.75 415.24 C 216.38 400.71 207.89 381.70 206.23 362.02 C 204.08 340.01 210.39 317.31 223.61 299.57 C 237.57 280.55 259.17 267.39 282.48 263.67 Z" />
</g>
</svg>
