<?xml version="1.0" encoding="UTF-8" ?>
<!DOCTYPE svg PUBLIC "-//W3C//DTD SVG 1.1//EN" "http://www.w3.org/Graphics/SVG/1.1/DTD/svg11.dtd">
<svg width="1280px" height="720px" viewBox="0 0 1280 720" version="1.1" xmlns="http://www.w3.org/2000/svg">
<g id="#ffffffff">
<path fill="#ffffff" opacity="1.00" d=" M 0.00 0.00 L 1280.00 0.00 L 1280.00 720.00 L 0.00 720.00 L 0.00 0.00 M 282.41 263.68 C 258.66 267.49 236.68 281.11 222.76 300.74 C 209.89 318.57 203.97 341.20 206.31 363.05 C 208.19 382.15 216.41 400.54 229.30 414.74 C 244.94 432.24 267.55 443.36 290.99 444.84 C 299.00 445.46 307.03 445.12 315.05 445.20 C 371.71 445.22 428.34 445.04 484.98 444.87 C 639.64 444.80 794.30 444.61 948.97 444.40 C 959.99 444.34 971.01 444.55 982.03 444.28 C 1001.62 443.66 1020.94 436.39 1036.04 423.89 C 1055.16 408.32 1067.45 384.67 1068.97 360.04 C 1071.55 328.87 1056.37 297.06 1030.59 279.37 C 1015.59 268.83 997.29 263.19 978.97 263.25 C 926.67 263.13 874.36 263.17 822.06 263.13 C 771.39 262.80 720.71 262.87 670.03 262.80 C 548.71 262.74 427.38 262.58 306.06 262.43 C 298.17 262.36 290.21 262.36 282.41 263.68 Z" />
</g>
<g id="#f8af40ff">
<path fill="#f8af40" opacity="1.00" d=" M 282.41 263.68 C 290.21 262.36 298.17 262.36 306.06 262.43 C 427.38 262.58 548.71 262.74 670.03 262.80 C 720.71 262.87 771.39 262.80 822.06 263.13 C 874.36 263.17 926.67 263.13 978.97 263.25 C 997.29 263.19 1015.59 268.83 1030.59 279.37 C 1056.37 297.06 1071.55 328.87 1068.97 360.04 C 1067.45 384.67 1055.16 408.32 1036.04 423.89 C 1020.94 436.39 1001.62 443.66 982.03 444.28 C 971.01 444.55 959.99 444.34 948.97 444.40 C 794.30 444.61 639.64 444.80 484.98 444.87 C 428.34 445.04 371.71 445.22 315.05 445.20 C 307.03 445.12 299.00 445.46 290.99 444.84 C 267.55 443.36 244.94 432.24 229.30 414.74 C 216.41 400.54 208.19 382.15 206.31 363.05 C 203.97 341.20 209.89 318.57 222.76 300.74 C 236.68 281.11 258.66 267.49 282.41 263.68 Z" />
</g>
</svg>
