<?xml version="1.0" encoding="UTF-8" ?>
<!DOCTYPE svg PUBLIC "-//W3C//DTD SVG 1.1//EN" "http://www.w3.org/Graphics/SVG/1.1/DTD/svg11.dtd">
<svg width="1280px" height="720px" viewBox="0 0 1280 720" version="1.1" xmlns="http://www.w3.org/2000/svg">
<g id="#ffffffff">
<path fill="#ffffff" opacity="1.00" d=" M 0.00 0.00 L 1280.00 0.00 L 1280.00 720.00 L 0.00 720.00 L 0.00 0.00 M 290.60 257.81 C 272.40 260.27 254.55 268.35 242.24 282.23 C 237.03 287.92 233.39 294.77 229.54 301.40 C 224.76 309.67 219.96 317.93 215.19 326.21 C 210.01 335.25 206.87 345.51 206.56 355.95 C 205.96 372.14 211.40 388.20 220.55 401.46 C 240.83 430.74 276.75 447.48 312.07 446.82 C 522.38 446.66 732.70 446.31 943.01 446.15 C 954.37 446.10 965.76 446.45 977.10 445.42 C 1005.92 442.13 1033.69 427.54 1051.50 404.45 C 1062.12 390.71 1068.87 373.56 1068.58 356.05 C 1068.44 344.50 1064.95 333.06 1058.74 323.33 C 1051.78 312.25 1044.82 301.18 1037.77 290.17 C 1029.26 276.89 1015.77 267.23 1000.89 262.31 C 987.80 257.72 973.76 257.51 960.05 257.71 C 760.04 257.54 560.03 257.15 360.02 257.13 C 348.69 256.59 337.34 257.16 326.01 256.85 C 314.21 257.21 302.35 256.33 290.60 257.81 Z" />
</g>
<g id="#f8af40ff">
<path fill="#f8af40" opacity="1.00" d=" M 290.60 257.81 C 302.35 256.33 314.21 257.21 326.01 256.85 C 337.34 257.16 348.69 256.59 360.02 257.13 C 560.03 257.15 760.04 257.54 960.05 257.71 C 973.76 257.51 987.80 257.72 1000.89 262.31 C 1015.77 267.23 1029.26 276.89 1037.77 290.17 C 1044.82 301.18 1051.78 312.25 1058.74 323.33 C 1064.95 333.06 1068.44 344.50 1068.58 356.05 C 1068.87 373.56 1062.12 390.71 1051.50 404.45 C 1033.69 427.54 1005.92 442.13 977.10 445.42 C 965.76 446.45 954.37 446.10 943.01 446.15 C 732.70 446.31 522.38 446.66 312.07 446.82 C 276.75 447.48 240.83 430.74 220.55 401.46 C 211.40 388.20 205.96 372.14 206.56 355.95 C 206.87 345.51 210.01 335.25 215.19 326.21 C 219.96 317.93 224.76 309.67 229.54 301.40 C 233.39 294.77 237.03 287.92 242.24 282.23 C 254.55 268.35 272.40 260.27 290.60 257.81 Z" />
</g>
</svg>
