<?xml version="1.0" encoding="UTF-8" ?>
<!DOCTYPE svg PUBLIC "-//W3C//DTD SVG 1.1//EN" "http://www.w3.org/Graphics/SVG/1.1/DTD/svg11.dtd">
<svg width="1280px" height="720px" viewBox="0 0 1280 720" version="1.1" xmlns="http://www.w3.org/2000/svg">
<g id="#f8af40ff">
<path fill="#f8af40" opacity="1.00" d=" M 288.18 263.09 C 298.43 262.21 308.72 262.78 318.99 262.65 C 438.01 262.79 557.04 262.80 676.06 262.99 C 776.02 263.35 876.01 263.15 975.98 263.37 C 986.08 263.28 996.24 264.41 1005.91 267.45 C 1033.38 275.79 1056.00 298.21 1064.63 325.58 C 1073.49 352.45 1068.84 383.37 1052.25 406.32 C 1036.38 428.92 1009.62 443.40 981.99 444.10 C 964.34 444.43 946.67 444.10 929.01 444.27 C 819.00 444.39 708.98 444.51 598.97 444.70 C 498.97 444.77 398.95 444.79 298.96 445.03 C 279.99 445.13 260.94 439.60 245.36 428.68 C 227.30 416.29 213.97 397.17 208.72 375.89 C 204.23 358.09 205.30 338.91 211.75 321.72 C 219.32 301.27 234.61 283.83 253.84 273.58 C 264.43 267.83 276.20 264.31 288.18 263.09 Z" />
</g>
</svg>
