<?xml version="1.0" encoding="UTF-8" ?>
<!DOCTYPE svg PUBLIC "-//W3C//DTD SVG 1.1//EN" "http://www.w3.org/Graphics/SVG/1.1/DTD/svg11.dtd">
<svg width="1280px" height="720px" viewBox="0 0 1280 720" version="1.1" xmlns="http://www.w3.org/2000/svg">
<g id="#ffffffff">
<path fill="#ffffff" opacity="1.00" d=" M 0.00 0.00 L 1280.00 0.00 L 1280.00 720.00 L 0.00 720.00 L 0.00 0.00 M 297.91 278.41 C 274.46 281.13 250.91 287.23 230.60 299.62 C 221.06 305.76 211.32 313.90 208.62 325.45 C 206.92 332.34 210.32 339.11 214.75 344.19 C 212.74 342.23 211.15 339.90 209.45 337.70 C 212.95 357.49 216.75 377.22 220.44 396.97 C 223.55 409.42 235.51 416.82 246.71 421.21 C 262.36 427.22 279.32 428.67 295.95 428.54 C 435.97 428.38 576.00 428.26 716.02 428.18 C 798.69 428.18 881.33 427.74 964.00 427.84 C 981.70 427.68 999.69 428.76 1017.04 424.44 C 1029.11 421.46 1041.67 416.61 1049.57 406.53 C 1053.64 401.57 1054.37 395.03 1055.63 388.98 C 1058.40 375.33 1061.14 361.67 1063.97 348.03 C 1064.35 345.67 1065.43 343.19 1064.40 340.83 C 1063.51 341.95 1063.02 343.29 1062.52 344.61 C 1061.32 346.10 1059.39 346.70 1057.91 347.85 C 1060.74 345.60 1062.33 342.33 1064.48 339.52 C 1068.03 333.85 1067.45 326.34 1064.35 320.60 C 1060.14 312.52 1052.97 306.44 1045.47 301.50 C 1031.35 292.42 1015.30 286.79 999.04 282.96 C 982.35 279.05 965.16 277.48 948.03 277.73 C 744.67 277.59 541.32 277.31 337.96 277.20 C 324.61 277.28 311.20 276.76 297.91 278.41 Z" />
<path fill="#ffffff" opacity="1.00" d=" M 234.68 356.34 C 249.25 361.20 264.65 363.34 279.98 363.38 C 517.65 363.45 755.32 363.31 992.99 363.35 C 1008.90 363.53 1024.94 361.95 1040.17 357.18 C 1017.09 365.63 992.08 363.30 967.98 363.66 C 740.31 363.64 512.64 363.74 284.97 363.71 C 268.01 363.82 250.62 362.54 234.68 356.34 Z" />
</g>
<g id="#00afffff">
<path fill="#00afff" opacity="1.00" d=" M 297.91 278.41 C 311.20 276.76 324.61 277.28 337.96 277.20 C 541.32 277.31 744.67 277.59 948.03 277.73 C 965.16 277.48 982.35 279.05 999.04 282.96 C 1015.30 286.79 1031.35 292.42 1045.47 301.50 C 1052.97 306.44 1060.14 312.52 1064.35 320.60 C 1067.45 326.34 1068.03 333.85 1064.48 339.52 C 1062.33 342.33 1060.74 345.60 1057.91 347.85 C 1052.54 351.89 1046.51 354.98 1040.17 357.18 C 1024.94 361.95 1008.90 363.53 992.99 363.35 C 755.32 363.31 517.65 363.45 279.98 363.38 C 264.65 363.34 249.25 361.20 234.68 356.34 C 227.38 353.55 220.21 349.89 214.75 344.19 C 210.32 339.11 206.92 332.34 208.62 325.45 C 211.32 313.90 221.06 305.76 230.60 299.62 C 250.91 287.23 274.46 281.13 297.91 278.41 Z" />
</g>
<g id="#f8af40ff">
<path fill="#f8af40" opacity="1.00" d=" M 209.45 337.70 C 211.15 339.90 212.74 342.23 214.75 344.19 C 220.21 349.89 227.38 353.55 234.68 356.34 C 250.62 362.54 268.01 363.82 284.97 363.71 C 512.64 363.74 740.31 363.64 967.98 363.66 C 992.08 363.30 1017.09 365.63 1040.17 357.18 C 1046.51 354.98 1052.54 351.89 1057.91 347.85 C 1059.39 346.70 1061.32 346.10 1062.52 344.61 C 1063.02 343.29 1063.51 341.95 1064.40 340.83 C 1065.43 343.19 1064.35 345.67 1063.97 348.03 C 1061.14 361.67 1058.40 375.33 1055.63 388.98 C 1054.37 395.03 1053.64 401.57 1049.57 406.53 C 1041.67 416.61 1029.11 421.46 1017.04 424.44 C 999.69 428.76 981.70 427.68 964.00 427.84 C 881.33 427.74 798.69 428.18 716.02 428.18 C 576.00 428.26 435.97 428.38 295.95 428.54 C 279.32 428.67 262.36 427.22 246.71 421.21 C 235.51 416.82 223.55 409.42 220.44 396.97 C 216.75 377.22 212.95 357.49 209.45 337.70 Z" />
</g>
</svg>
