<?xml version="1.0" encoding="UTF-8" ?>
<!DOCTYPE svg PUBLIC "-//W3C//DTD SVG 1.1//EN" "http://www.w3.org/Graphics/SVG/1.1/DTD/svg11.dtd">
<svg width="1280px" height="720px" viewBox="0 0 1280 720" version="1.1" xmlns="http://www.w3.org/2000/svg">
<g id="#ffffffff">
<path fill="#ffffff" opacity="1.00" d=" M 0.00 0.00 L 1280.00 0.00 L 1280.00 720.00 L 0.00 720.00 L 0.00 0.00 M 282.51 263.66 C 263.67 266.73 245.82 275.78 232.41 289.39 C 217.34 304.34 207.80 324.77 206.18 345.95 C 204.01 369.34 211.53 393.41 226.50 411.49 C 239.21 427.08 257.19 438.28 276.81 442.74 C 289.96 445.96 303.59 445.08 317.00 445.20 C 360.01 445.26 403.03 444.97 446.03 445.12 C 465.68 444.60 485.35 445.00 505.01 444.86 C 657.66 444.79 810.32 444.56 962.97 444.41 C 974.61 444.32 986.43 444.97 997.87 442.31 C 1022.82 437.14 1045.01 420.61 1057.46 398.43 C 1071.57 373.82 1073.08 342.51 1061.38 316.66 C 1050.03 290.76 1025.79 270.95 998.06 265.25 C 985.88 262.45 973.33 263.44 960.96 263.19 C 910.65 263.18 860.34 263.13 810.02 263.12 C 765.37 262.77 720.71 262.91 676.05 262.80 C 552.68 262.75 429.31 262.58 305.95 262.43 C 298.13 262.37 290.24 262.36 282.51 263.66 Z" />
</g>
<g id="#f8af40ff">
<path fill="#f8af40" opacity="1.00" d=" M 282.51 263.66 C 290.24 262.36 298.13 262.37 305.95 262.43 C 429.31 262.58 552.68 262.75 676.05 262.80 C 720.71 262.91 765.37 262.77 810.02 263.12 C 860.34 263.13 910.65 263.18 960.96 263.19 C 973.33 263.44 985.88 262.45 998.06 265.25 C 1025.79 270.95 1050.03 290.76 1061.38 316.66 C 1073.08 342.51 1071.57 373.82 1057.46 398.43 C 1045.01 420.61 1022.82 437.14 997.87 442.31 C 986.43 444.97 974.61 444.32 962.97 444.41 C 810.32 444.56 657.66 444.79 505.01 444.86 C 485.35 445.00 465.68 444.60 446.03 445.12 C 403.03 444.97 360.01 445.26 317.00 445.20 C 303.59 445.08 289.96 445.96 276.81 442.74 C 257.19 438.28 239.21 427.08 226.50 411.49 C 211.53 393.41 204.01 369.34 206.18 345.95 C 207.80 324.77 217.34 304.34 232.41 289.39 C 245.82 275.78 263.67 266.73 282.51 263.66 Z" />
</g>
</svg>
