<?xml version="1.0" encoding="UTF-8" ?>
<!DOCTYPE svg PUBLIC "-//W3C//DTD SVG 1.1//EN" "http://www.w3.org/Graphics/SVG/1.1/DTD/svg11.dtd">
<svg width="1280px" height="720px" viewBox="0 0 1280 720" version="1.1" xmlns="http://www.w3.org/2000/svg">
<g id="#f8af40ff">
<path fill="#f8af40" opacity="1.00" d=" M 294.47 257.54 C 301.30 257.00 308.16 257.22 315.01 257.18 C 532.01 257.26 749.02 257.77 966.02 257.85 C 980.99 257.56 996.31 259.47 1009.89 266.13 C 1020.87 271.38 1030.57 279.46 1037.26 289.68 C 1045.17 302.13 1053.25 314.50 1060.80 327.17 C 1068.99 341.81 1070.41 359.69 1065.85 375.72 C 1059.52 398.89 1042.48 418.01 1022.09 430.10 C 1007.23 438.96 990.29 444.32 973.03 445.60 C 961.36 446.12 949.67 445.76 937.99 445.87 C 853.02 446.27 768.02 446.09 683.03 446.24 C 559.34 446.38 435.66 446.56 311.97 446.70 C 285.37 447.05 258.68 437.85 238.30 420.70 C 223.99 408.70 212.71 392.50 208.53 374.14 C 204.84 358.83 206.65 342.13 214.26 328.26 C 218.85 319.97 223.73 311.84 228.43 303.61 C 232.84 296.15 236.78 288.29 242.73 281.89 C 255.90 267.32 275.14 259.33 294.47 257.54 Z" />
</g>
</svg>
