<?xml version="1.0" encoding="UTF-8" ?>
<!DOCTYPE svg PUBLIC "-//W3C//DTD SVG 1.1//EN" "http://www.w3.org/Graphics/SVG/1.1/DTD/svg11.dtd">
<svg width="1280px" height="720px" viewBox="0 0 1280 720" version="1.1" xmlns="http://www.w3.org/2000/svg">
<g id="#ffffffff">
<path fill="#ffffff" opacity="1.00" d=" M 0.00 0.00 L 1280.00 0.00 L 1280.00 720.00 L 0.00 720.00 L 0.00 0.00 M 282.46 263.67 C 258.19 267.54 235.80 281.68 221.91 301.96 C 209.61 319.59 204.03 341.70 206.31 363.06 C 208.19 382.13 216.39 400.51 229.26 414.71 C 244.46 431.72 266.22 442.70 288.95 444.69 C 299.26 445.57 309.63 445.08 319.97 445.20 C 367.30 445.09 414.63 445.27 461.96 444.87 C 633.29 444.85 804.63 444.55 975.97 444.41 C 986.09 444.49 996.27 443.30 1005.93 440.19 C 1021.40 435.39 1035.44 426.22 1046.20 414.12 C 1065.25 393.10 1073.27 362.80 1067.30 335.08 C 1062.43 310.80 1046.93 288.94 1025.70 276.20 C 1011.99 267.84 995.98 263.37 979.93 263.27 C 912.95 262.99 845.97 263.40 779.00 262.90 C 621.34 262.78 463.67 262.64 306.02 262.43 C 298.15 262.37 290.23 262.36 282.46 263.67 Z" />
</g>
<g id="#f8af40ff">
<path fill="#f8af40" opacity="1.00" d=" M 282.46 263.67 C 290.23 262.36 298.15 262.37 306.02 262.43 C 463.67 262.64 621.34 262.78 779.00 262.90 C 845.97 263.40 912.95 262.99 979.93 263.27 C 995.98 263.37 1011.99 267.84 1025.70 276.20 C 1046.93 288.94 1062.43 310.80 1067.30 335.08 C 1073.27 362.80 1065.25 393.10 1046.20 414.12 C 1035.44 426.22 1021.40 435.39 1005.93 440.19 C 996.27 443.30 986.09 444.49 975.97 444.41 C 804.63 444.55 633.29 444.85 461.96 444.87 C 414.63 445.27 367.30 445.09 319.97 445.20 C 309.63 445.08 299.26 445.57 288.95 444.69 C 266.22 442.70 244.46 431.72 229.26 414.71 C 216.39 400.51 208.19 382.13 206.31 363.06 C 204.03 341.70 209.61 319.59 221.91 301.96 C 235.80 281.68 258.19 267.54 282.46 263.67 Z" />
</g>
</svg>
