<?xml version="1.0" encoding="UTF-8" ?>
<!DOCTYPE svg PUBLIC "-//W3C//DTD SVG 1.1//EN" "http://www.w3.org/Graphics/SVG/1.1/DTD/svg11.dtd">
<svg width="1280px" height="720px" viewBox="0 0 1280 720" version="1.1" xmlns="http://www.w3.org/2000/svg">
<g id="#ffffffff">
<path fill="#ffffff" opacity="1.00" d=" M 0.00 0.00 L 1280.00 0.00 L 1280.00 720.00 L 0.00 720.00 L 0.00 0.00 M 229.85 286.91 C 216.86 300.49 207.76 318.19 205.98 337.02 C 204.25 352.73 208.11 369.01 216.87 382.18 C 221.14 388.40 226.48 393.80 232.14 398.76 C 229.22 396.86 226.83 394.30 224.52 391.73 L 223.87 392.65 C 231.99 403.32 238.39 415.43 248.38 424.56 C 257.63 432.98 269.02 438.91 281.09 442.12 C 295.71 446.25 311.03 445.08 326.03 445.25 C 378.69 445.25 431.37 445.03 484.00 445.11 C 508.00 444.63 532.02 445.00 556.02 444.84 C 688.67 444.82 821.32 444.59 953.97 444.47 C 966.31 444.38 978.85 445.11 990.96 442.16 C 1006.46 438.72 1021.06 430.60 1031.46 418.50 C 1037.62 411.09 1043.06 403.10 1049.19 395.65 L 1048.60 394.56 C 1047.09 396.05 1045.65 397.62 1043.86 398.77 C 1045.93 396.88 1047.95 394.93 1049.97 392.99 C 1059.42 384.01 1065.63 371.88 1068.20 359.16 C 1072.81 336.54 1065.32 312.66 1051.19 294.81 C 1031.50 269.67 999.85 254.60 967.97 254.62 C 820.99 254.39 674.01 254.23 527.02 254.13 C 504.00 254.34 480.99 253.65 457.96 253.94 C 407.65 253.78 357.31 253.80 306.99 253.77 C 278.24 254.00 249.63 265.96 229.85 286.91 Z" />
</g>
<g id="#00afffff">
<path fill="#00afff" opacity="1.00" d=" M 229.85 286.91 C 249.63 265.96 278.24 254.00 306.99 253.77 C 357.31 253.80 407.65 253.78 457.96 253.94 C 480.99 253.65 504.00 254.34 527.02 254.13 C 674.01 254.23 820.99 254.39 967.97 254.62 C 999.85 254.60 1031.50 269.67 1051.19 294.81 C 1065.32 312.66 1072.81 336.54 1068.20 359.16 C 1065.63 371.88 1059.42 384.01 1049.97 392.99 C 1047.95 394.93 1045.93 396.88 1043.86 398.77 C 1034.44 406.10 1023.47 411.43 1011.82 414.05 C 999.15 417.36 985.97 416.54 973.01 416.64 C 864.68 416.67 756.34 416.76 648.01 416.80 C 641.01 416.86 634.00 416.57 627.02 417.18 C 515.02 417.18 403.01 417.26 291.01 417.33 C 270.11 417.64 248.62 412.02 232.14 398.76 C 226.48 393.80 221.14 388.40 216.87 382.18 C 208.11 369.01 204.25 352.73 205.98 337.02 C 207.76 318.19 216.86 300.49 229.85 286.91 Z" />
</g>
<g id="#f8af40ff">
<path fill="#f8af40" opacity="1.00" d=" M 223.87 392.65 L 224.52 391.73 C 226.83 394.30 229.22 396.86 232.14 398.76 C 248.62 412.02 270.11 417.64 291.01 417.33 C 403.01 417.26 515.02 417.18 627.02 417.18 C 634.00 416.57 641.01 416.86 648.01 416.80 C 756.34 416.76 864.68 416.67 973.01 416.64 C 985.97 416.54 999.15 417.36 1011.82 414.05 C 1023.47 411.43 1034.44 406.10 1043.86 398.77 C 1045.65 397.62 1047.09 396.05 1048.60 394.56 L 1049.19 395.65 C 1043.06 403.10 1037.62 411.09 1031.46 418.50 C 1021.06 430.60 1006.46 438.72 990.96 442.16 C 978.85 445.11 966.31 444.38 953.97 444.47 C 821.32 444.59 688.67 444.82 556.02 444.84 C 532.02 445.00 508.00 444.63 484.00 445.11 C 431.37 445.03 378.69 445.25 326.03 445.25 C 311.03 445.08 295.71 446.25 281.09 442.12 C 269.02 438.91 257.63 432.98 248.38 424.56 C 238.39 415.43 231.99 403.32 223.87 392.65 Z" />
</g>
</svg>
