<?xml version="1.0" encoding="UTF-8" ?>
<!DOCTYPE svg PUBLIC "-//W3C//DTD SVG 1.1//EN" "http://www.w3.org/Graphics/SVG/1.1/DTD/svg11.dtd">
<svg width="1280px" height="720px" viewBox="0 0 1280 720" version="1.1" xmlns="http://www.w3.org/2000/svg">
<g id="#ffffffff">
<path fill="#ffffff" opacity="1.00" d=" M 0.00 0.00 L 1280.00 0.00 L 1280.00 720.00 L 0.00 720.00 L 0.00 0.00 M 280.43 265.65 C 254.81 269.89 231.46 285.88 218.31 308.29 C 206.30 328.39 202.84 353.28 208.53 375.95 C 212.68 392.89 221.80 408.54 234.42 420.56 C 251.97 437.65 276.46 447.11 300.92 446.65 C 478.61 446.47 656.31 446.21 834.00 446.12 C 875.67 445.76 917.34 445.87 959.02 445.83 C 972.44 445.64 986.11 446.69 999.23 443.15 C 1015.56 439.13 1030.69 430.46 1042.51 418.51 C 1063.71 397.36 1073.53 365.45 1067.42 336.08 C 1062.60 310.97 1046.14 288.46 1023.75 276.16 C 1010.45 268.78 995.22 264.93 980.02 265.13 C 873.01 264.66 765.99 264.84 658.98 264.67 C 539.99 264.55 421.00 264.39 302.02 264.28 C 294.81 264.28 287.54 264.32 280.43 265.65 Z" />
</g>
<g id="#f8af40ff">
<path fill="#f8af40" opacity="1.00" d=" M 280.43 265.65 C 287.54 264.32 294.81 264.28 302.02 264.28 C 421.00 264.39 539.99 264.55 658.98 264.67 C 765.99 264.84 873.01 264.66 980.02 265.13 C 995.22 264.93 1010.45 268.78 1023.75 276.16 C 1046.14 288.46 1062.60 310.97 1067.42 336.08 C 1073.53 365.45 1063.71 397.36 1042.51 418.51 C 1030.69 430.46 1015.56 439.13 999.23 443.15 C 986.11 446.69 972.44 445.64 959.02 445.83 C 917.34 445.87 875.67 445.76 834.00 446.12 C 656.31 446.21 478.61 446.47 300.92 446.65 C 276.46 447.11 251.97 437.65 234.42 420.56 C 221.80 408.54 212.68 392.89 208.53 375.95 C 202.84 353.28 206.30 328.39 218.31 308.29 C 231.46 285.88 254.81 269.89 280.43 265.65 Z" />
</g>
</svg>
