<?xml version="1.0" encoding="UTF-8" ?>
<!DOCTYPE svg PUBLIC "-//W3C//DTD SVG 1.1//EN" "http://www.w3.org/Graphics/SVG/1.1/DTD/svg11.dtd">
<svg width="1280px" height="720px" viewBox="0 0 1280 720" version="1.1" xmlns="http://www.w3.org/2000/svg">
<g id="#f8af40ff">
<path fill="#f8af40" opacity="1.00" d=" M 263.40 289.45 C 271.25 288.71 279.14 288.47 287.03 288.40 C 510.34 288.59 733.66 288.83 956.97 288.88 C 974.27 288.93 991.58 288.63 1008.86 289.62 C 1021.92 290.71 1035.27 292.25 1047.39 297.58 C 1052.06 299.76 1057.49 303.16 1057.76 308.91 C 1059.94 331.62 1062.16 354.34 1064.31 377.05 C 1064.86 381.22 1061.23 384.17 1058.16 386.26 C 1049.93 391.47 1040.46 394.24 1031.12 396.72 C 1000.73 404.29 969.25 406.27 938.03 406.04 C 732.02 406.18 525.98 406.30 319.96 406.38 C 300.53 406.17 281.11 404.55 261.96 401.30 C 248.05 398.77 233.97 395.84 221.17 389.65 C 216.91 387.29 211.33 384.48 210.76 379.09 C 212.70 355.68 214.87 332.28 216.90 308.87 C 217.19 303.36 222.35 300.04 226.80 297.82 C 238.25 292.50 250.95 290.73 263.40 289.45 Z" />
</g>
</svg>
