<?xml version="1.0" encoding="UTF-8" ?>
<!DOCTYPE svg PUBLIC "-//W3C//DTD SVG 1.1//EN" "http://www.w3.org/Graphics/SVG/1.1/DTD/svg11.dtd">
<svg width="1280px" height="720px" viewBox="0 0 1280 720" version="1.1" xmlns="http://www.w3.org/2000/svg">
<g id="#00afffff">
<path fill="#00afff" opacity="1.00" d=" M 284.58 256.38 C 294.62 254.71 304.82 255.35 314.95 255.22 C 532.95 255.41 750.95 255.81 968.95 255.94 C 977.94 256.19 987.05 255.87 995.87 257.99 C 1026.15 264.02 1052.48 286.35 1063.59 315.13 C 1073.99 341.25 1071.59 372.35 1056.20 396.03 C 1046.89 410.65 1033.05 422.32 1017.09 429.06 C 1003.14 435.18 987.75 436.20 972.80 437.68 C 969.36 438.99 965.55 438.27 961.96 438.57 C 811.46 438.61 660.95 438.84 510.44 438.62 L 510.18 440.18 L 509.35 438.79 C 504.72 438.50 500.05 438.86 495.41 438.65 L 495.00 440.55 L 494.59 438.62 C 483.89 438.74 473.20 438.78 462.51 438.60 L 461.99 440.47 L 461.51 438.62 C 459.38 438.68 457.25 438.67 455.13 438.65 L 455.90 439.41 C 448.96 438.80 442.02 438.55 435.04 438.65 L 435.93 439.47 C 434.82 439.44 432.59 439.38 431.48 439.35 L 430.99 436.45 L 430.54 439.39 C 428.41 439.31 426.28 439.32 424.17 439.36 L 424.87 438.65 C 423.75 438.62 421.50 438.57 420.37 438.54 L 420.59 439.60 L 418.58 439.19 L 417.90 436.31 L 417.54 439.43 C 416.76 439.44 415.19 439.45 414.40 439.45 L 414.55 438.59 C 413.77 438.56 412.21 438.49 411.43 438.45 L 411.71 439.38 C 377.51 439.25 343.31 439.48 309.12 439.36 L 309.84 438.47 C 305.60 438.77 301.22 439.00 297.08 437.85 C 286.49 436.81 275.82 435.52 265.67 432.16 C 244.98 425.36 226.99 410.66 216.40 391.60 C 207.93 376.61 204.16 359.09 205.40 341.93 C 206.82 319.25 217.29 297.43 233.64 281.72 C 247.50 268.33 265.52 259.29 284.58 256.38 Z" />
</g>
</svg>
