<?xml version="1.0" encoding="UTF-8" ?>
<!DOCTYPE svg PUBLIC "-//W3C//DTD SVG 1.1//EN" "http://www.w3.org/Graphics/SVG/1.1/DTD/svg11.dtd">
<svg width="1280px" height="720px" viewBox="0 0 1280 720" version="1.1" xmlns="http://www.w3.org/2000/svg">
<g id="#ffffffff">
<path fill="#ffffff" opacity="1.00" d=" M 0.00 0.00 L 1280.00 0.00 L 1280.00 720.00 L 0.00 720.00 L 0.00 0.00 M 282.51 263.66 C 252.07 268.38 224.88 289.62 213.03 318.06 C 204.40 338.30 203.48 361.71 210.50 382.56 C 217.26 403.01 231.58 420.79 250.02 431.88 C 264.67 440.84 281.86 445.26 299.00 445.20 C 356.65 445.17 414.30 445.17 471.94 444.87 C 628.60 444.81 785.27 444.63 941.93 444.41 C 956.02 444.28 970.12 444.67 984.21 444.17 C 1013.84 442.72 1041.92 425.32 1056.74 399.68 C 1072.55 373.18 1073.38 338.52 1058.79 311.32 C 1044.25 283.14 1013.88 263.94 982.12 263.33 C 946.77 263.05 911.40 263.24 876.05 263.16 C 809.35 263.16 742.70 262.81 676.01 262.80 C 552.68 262.74 429.34 262.58 306.01 262.43 C 298.17 262.37 290.26 262.36 282.51 263.66 Z" />
</g>
<g id="#f8af40ff">
<path fill="#f8af40" opacity="1.00" d=" M 282.51 263.66 C 290.26 262.36 298.17 262.37 306.01 262.43 C 429.34 262.58 552.68 262.74 676.01 262.80 C 742.70 262.81 809.35 263.16 876.05 263.16 C 911.40 263.24 946.77 263.05 982.12 263.33 C 1013.88 263.94 1044.25 283.14 1058.79 311.32 C 1073.38 338.52 1072.55 373.18 1056.74 399.68 C 1041.92 425.32 1013.84 442.72 984.21 444.17 C 970.12 444.67 956.02 444.28 941.93 444.41 C 785.27 444.63 628.60 444.81 471.94 444.87 C 414.30 445.17 356.65 445.17 299.00 445.20 C 281.86 445.26 264.67 440.84 250.02 431.88 C 231.58 420.79 217.26 403.01 210.50 382.56 C 203.48 361.71 204.40 338.30 213.03 318.06 C 224.88 289.62 252.07 268.38 282.51 263.66 Z" />
</g>
</svg>
