<?xml version="1.0" encoding="UTF-8" ?>
<!DOCTYPE svg PUBLIC "-//W3C//DTD SVG 1.1//EN" "http://www.w3.org/Graphics/SVG/1.1/DTD/svg11.dtd">
<svg width="1280px" height="720px" viewBox="0 0 1280 720" version="1.1" xmlns="http://www.w3.org/2000/svg">
<g id="#f8af40ff">
<path fill="#f8af40" opacity="1.00" d=" M 288.15 263.09 C 298.41 262.20 308.72 262.78 319.01 262.65 C 431.36 262.78 543.74 262.80 656.08 262.97 C 758.04 263.27 860.03 263.21 962.00 263.33 C 975.18 263.51 988.62 262.66 1001.49 266.22 C 1030.65 273.38 1055.18 296.36 1064.41 324.90 C 1072.64 349.35 1069.80 377.30 1056.66 399.52 C 1042.04 424.93 1014.31 442.31 984.99 443.91 C 972.66 444.58 960.29 444.08 947.95 444.24 C 748.31 444.46 548.67 444.79 349.03 444.87 C 331.68 445.08 314.33 445.07 296.98 444.95 C 275.56 444.86 254.25 437.02 238.02 423.03 C 223.40 410.64 212.85 393.52 208.48 374.86 C 203.13 352.73 206.46 328.60 217.78 308.82 C 231.98 283.35 259.12 265.78 288.15 263.09 Z" />
</g>
</svg>
