<?xml version="1.0" encoding="UTF-8" ?>
<!DOCTYPE svg PUBLIC "-//W3C//DTD SVG 1.1//EN" "http://www.w3.org/Graphics/SVG/1.1/DTD/svg11.dtd">
<svg width="1280px" height="720px" viewBox="0 0 1280 720" version="1.1" xmlns="http://www.w3.org/2000/svg">
<g id="#00afffff">
<path fill="#00afff" opacity="1.00" d=" M 240.01 309.69 C 274.51 305.57 309.30 304.98 344.00 305.22 C 539.02 305.23 734.04 305.46 929.06 305.51 C 965.04 305.39 1001.13 306.03 1036.87 310.56 C 1044.57 311.69 1052.40 312.64 1059.77 315.26 C 1061.17 315.90 1063.26 316.49 1063.35 318.35 C 1059.74 320.93 1055.23 321.41 1050.99 322.13 C 1034.09 324.43 1017.02 324.76 1000.00 324.75 C 757.35 324.71 514.71 324.71 272.07 324.58 C 256.81 324.45 241.53 323.80 226.38 321.91 C 221.32 321.18 216.11 320.48 211.58 317.93 C 212.08 315.38 214.87 314.74 216.96 313.99 C 224.46 311.71 232.27 310.73 240.01 309.69 Z" />
</g>
<g id="#f8af40ff">
<path fill="#f8af40" opacity="1.00" d=" M 211.58 317.93 C 216.11 320.48 221.32 321.18 226.38 321.91 C 241.53 323.80 256.81 324.45 272.07 324.58 C 514.71 324.71 757.35 324.71 1000.00 324.75 C 1017.02 324.76 1034.09 324.43 1050.99 322.13 C 1055.23 321.41 1059.74 320.93 1063.35 318.35 C 1061.91 342.19 1060.96 366.05 1059.60 389.89 C 1058.98 392.98 1055.28 393.83 1052.77 394.87 C 1040.22 398.63 1027.02 399.25 1014.03 400.08 C 998.70 400.74 983.36 400.51 968.03 400.55 C 755.36 400.73 542.69 400.80 330.03 400.87 C 322.02 400.85 314.01 401.06 306.01 401.02 C 281.67 400.87 257.15 401.52 233.04 397.58 C 227.65 396.52 222.00 395.63 217.22 392.76 C 215.85 392.03 215.06 390.59 215.13 389.05 C 213.82 365.35 213.18 341.61 211.58 317.93 M 249.98 325.53 C 257.25 326.51 264.62 325.83 271.94 326.02 C 276.06 325.86 280.28 326.59 284.32 325.48 C 272.89 325.05 261.41 325.06 249.98 325.53 Z" />
</g>
<g id="#fcaf23ff">
<path fill="#fcaf23" opacity="1.00" d=" M 249.98 325.53 C 261.41 325.06 272.89 325.05 284.32 325.48 C 280.28 326.59 276.06 325.86 271.94 326.02 C 264.62 325.83 257.25 326.51 249.98 325.53 Z" />
</g>
</svg>
