<?xml version="1.0" encoding="UTF-8" ?>
<!DOCTYPE svg PUBLIC "-//W3C//DTD SVG 1.1//EN" "http://www.w3.org/Graphics/SVG/1.1/DTD/svg11.dtd">
<svg width="1280px" height="720px" viewBox="0 0 1280 720" version="1.1" xmlns="http://www.w3.org/2000/svg">
<g id="#f8af40ff">
<path fill="#f8af40" opacity="1.00" d=" M 288.10 263.10 C 293.75 262.63 299.42 262.52 305.09 262.60 C 430.04 262.85 555.01 262.73 679.95 263.06 C 773.99 263.25 868.03 263.22 962.06 263.33 C 975.00 263.51 988.17 262.67 1000.81 266.05 C 1027.87 272.51 1051.17 292.49 1061.86 318.15 C 1073.01 344.09 1071.06 375.21 1056.67 399.51 C 1042.37 424.34 1015.59 441.51 986.99 443.78 C 976.03 444.62 965.03 444.09 954.05 444.24 C 846.37 444.35 738.69 444.50 631.01 444.62 C 525.35 444.84 419.68 444.68 314.02 445.04 C 303.32 444.95 292.52 445.46 281.93 443.61 C 260.86 440.07 241.22 428.81 227.48 412.45 C 214.22 396.86 206.48 376.66 206.03 356.18 C 205.42 336.32 211.53 316.28 223.30 300.25 C 238.30 279.37 262.53 265.54 288.10 263.10 Z" />
</g>
</svg>
