<?xml version="1.0" encoding="UTF-8" ?>
<!DOCTYPE svg PUBLIC "-//W3C//DTD SVG 1.1//EN" "http://www.w3.org/Graphics/SVG/1.1/DTD/svg11.dtd">
<svg width="1280px" height="720px" viewBox="0 0 1280 720" version="1.1" xmlns="http://www.w3.org/2000/svg">
<g id="#00afffff">
<path fill="#00afff" opacity="1.00" d=" M 285.37 256.26 C 294.51 254.81 303.80 255.31 313.01 255.22 C 521.34 255.36 729.68 255.83 938.01 255.88 C 952.36 256.06 966.71 255.80 981.06 256.19 C 1011.54 257.10 1040.66 274.64 1056.39 300.66 C 1072.71 326.87 1074.59 361.68 1060.18 389.12 C 1047.97 413.18 1023.84 430.63 997.20 434.81 C 989.09 436.01 980.95 437.03 972.78 437.70 C 969.67 438.86 966.27 438.33 963.03 438.55 C 808.37 438.68 653.72 438.72 499.07 438.70 C 491.88 438.61 484.69 438.89 477.51 438.54 L 477.01 440.40 L 476.49 438.58 C 470.46 438.87 464.41 438.79 458.42 438.01 L 466.05 439.23 C 461.90 439.26 457.75 439.49 453.62 439.90 L 460.45 438.88 C 455.43 438.14 450.39 437.74 445.34 437.66 L 456.82 438.97 C 451.36 439.59 445.86 439.03 440.41 439.77 L 449.44 438.22 C 446.38 438.58 443.31 438.71 440.24 438.63 L 440.76 439.36 C 439.17 439.42 436.00 439.55 434.42 439.61 L 439.43 438.46 C 435.40 438.82 431.37 438.75 427.36 438.22 L 436.20 439.82 C 434.00 439.69 429.61 439.45 427.41 439.33 L 427.00 435.99 L 426.57 439.34 C 425.54 439.36 423.48 439.40 422.45 439.42 L 421.99 436.01 L 421.57 439.36 C 420.78 439.38 419.20 439.43 418.41 439.46 L 418.65 438.64 C 416.92 438.66 415.21 438.65 413.49 438.63 L 413.16 440.41 L 412.35 438.77 L 410.13 438.52 L 410.83 439.48 C 393.04 439.26 375.24 439.27 357.45 439.48 L 356.99 436.06 L 356.58 439.42 C 340.80 439.35 325.02 439.40 309.24 439.41 L 309.78 438.58 C 305.56 438.67 301.21 439.01 297.09 437.86 C 286.76 436.82 276.34 435.59 266.41 432.39 C 245.41 425.71 227.11 410.88 216.40 391.60 C 207.92 376.60 204.15 359.07 205.40 341.91 C 206.83 319.24 217.30 297.41 233.65 281.71 C 247.70 268.14 266.02 259.05 285.37 256.26 Z" />
</g>
</svg>
