<?xml version="1.0" encoding="UTF-8" ?>
<!DOCTYPE svg PUBLIC "-//W3C//DTD SVG 1.1//EN" "http://www.w3.org/Graphics/SVG/1.1/DTD/svg11.dtd">
<svg width="1280px" height="720px" viewBox="0 0 1280 720" version="1.1" xmlns="http://www.w3.org/2000/svg">
<g id="#f8af40ff">
<path fill="#f8af40" opacity="1.00" d=" M 288.04 263.10 C 294.02 262.60 300.03 262.51 306.03 262.61 C 423.03 262.78 540.03 262.82 657.03 262.95 C 764.34 263.36 871.70 263.12 979.03 263.40 C 997.77 263.41 1016.52 269.27 1031.68 280.34 C 1053.68 296.01 1067.87 322.10 1068.88 349.10 C 1070.47 375.50 1059.59 402.30 1040.09 420.16 C 1028.61 430.87 1014.25 438.48 998.93 441.90 C 986.20 445.03 972.99 444.07 960.02 444.24 C 749.36 444.46 538.70 444.78 328.05 444.91 C 315.35 444.92 302.64 445.35 289.95 444.64 C 266.69 442.80 244.35 431.65 228.93 414.14 C 214.80 398.30 206.47 377.37 206.04 356.14 C 205.43 336.32 211.52 316.33 223.26 300.31 C 238.23 279.41 262.46 265.56 288.04 263.10 Z" />
</g>
</svg>
