<?xml version="1.0" encoding="UTF-8" ?>
<!DOCTYPE svg PUBLIC "-//W3C//DTD SVG 1.1//EN" "http://www.w3.org/Graphics/SVG/1.1/DTD/svg11.dtd">
<svg width="1280px" height="720px" viewBox="0 0 1280 720" version="1.1" xmlns="http://www.w3.org/2000/svg">
<g id="#f8af40ff">
<path fill="#f8af40" opacity="1.00" d=" M 263.31 289.46 C 271.18 288.72 279.08 288.46 286.98 288.41 C 511.97 288.59 736.97 288.83 961.96 288.88 C 981.81 289.00 1001.76 288.28 1021.49 290.91 C 1031.03 292.32 1040.74 294.11 1049.39 298.58 C 1053.09 300.60 1057.13 303.53 1057.65 308.05 C 1059.92 331.07 1062.12 354.09 1064.31 377.11 C 1064.83 381.23 1061.25 384.14 1058.22 386.22 C 1049.83 391.54 1040.16 394.33 1030.64 396.84 C 1001.67 403.97 971.71 406.13 941.96 406.07 C 741.33 406.18 540.66 406.24 340.02 406.42 C 316.93 406.68 293.78 406.08 270.90 402.71 C 253.73 400.04 236.22 396.99 220.48 389.29 C 216.45 386.99 211.24 384.20 210.75 379.07 C 212.72 355.68 214.86 332.29 216.90 308.90 C 217.17 303.38 222.34 300.05 226.80 297.82 C 238.22 292.51 250.89 290.74 263.31 289.46 Z" />
</g>
</svg>
