<?xml version="1.0" encoding="UTF-8" ?>
<!DOCTYPE svg PUBLIC "-//W3C//DTD SVG 1.1//EN" "http://www.w3.org/Graphics/SVG/1.1/DTD/svg11.dtd">
<svg width="1280px" height="720px" viewBox="0 0 1280 720" version="1.1" xmlns="http://www.w3.org/2000/svg">
<g id="#00afffff">
<path fill="#00afff" opacity="1.00" d=" M 285.59 257.95 C 289.72 257.38 293.90 257.27 298.06 257.19 C 522.04 257.33 746.02 257.82 970.00 257.88 C 975.33 257.76 980.65 258.01 985.98 258.30 C 1017.94 260.24 1047.75 280.88 1061.21 309.88 C 1074.78 337.99 1072.53 373.11 1055.03 399.03 C 1038.89 423.92 1009.70 439.38 980.07 439.14 C 758.40 439.34 536.73 439.72 315.06 439.82 C 306.02 439.72 296.96 440.16 287.93 439.47 C 267.85 437.69 248.44 429.05 233.76 415.21 C 218.81 401.28 208.79 382.15 206.02 361.90 C 202.78 339.63 208.08 316.24 220.81 297.67 C 235.36 275.92 259.62 261.07 285.59 257.95 Z" />
</g>
</svg>
