<?xml version="1.0" encoding="UTF-8" ?>
<!DOCTYPE svg PUBLIC "-//W3C//DTD SVG 1.1//EN" "http://www.w3.org/Graphics/SVG/1.1/DTD/svg11.dtd">
<svg width="1280px" height="720px" viewBox="0 0 1280 720" version="1.1" xmlns="http://www.w3.org/2000/svg">
<g id="#ffffffff">
<path fill="#ffffff" opacity="1.00" d=" M 0.00 0.00 L 1280.00 0.00 L 1280.00 720.00 L 0.00 720.00 L 0.00 0.00 M 282.52 263.66 C 259.19 267.38 237.57 280.54 223.60 299.59 C 211.20 316.24 204.86 337.26 205.94 357.99 C 206.78 378.38 214.87 398.37 228.35 413.68 C 240.95 428.19 258.25 438.54 276.99 442.79 C 286.48 445.05 296.30 445.31 306.01 445.20 C 332.01 445.24 358.01 445.12 384.01 445.15 C 582.66 444.61 781.33 444.77 979.99 444.34 C 1009.11 444.22 1037.49 428.81 1053.63 404.60 C 1072.00 377.96 1074.32 341.31 1059.43 312.57 C 1045.27 284.01 1014.95 264.29 983.02 263.37 C 960.67 263.04 938.32 263.25 915.96 263.19 C 840.30 263.26 764.64 262.79 688.98 262.82 C 561.32 262.74 433.66 262.59 306.01 262.43 C 298.17 262.37 290.27 262.36 282.52 263.66 Z" />
</g>
<g id="#f8af40ff">
<path fill="#f8af40" opacity="1.00" d=" M 282.52 263.66 C 290.27 262.36 298.17 262.37 306.01 262.43 C 433.66 262.59 561.32 262.74 688.98 262.82 C 764.64 262.79 840.30 263.26 915.96 263.19 C 938.32 263.25 960.67 263.04 983.02 263.37 C 1014.95 264.29 1045.27 284.01 1059.43 312.57 C 1074.32 341.31 1072.00 377.96 1053.63 404.60 C 1037.49 428.81 1009.11 444.22 979.99 444.34 C 781.33 444.77 582.66 444.61 384.01 445.15 C 358.01 445.12 332.01 445.24 306.01 445.20 C 296.30 445.31 286.48 445.05 276.99 442.79 C 258.25 438.54 240.95 428.19 228.35 413.68 C 214.87 398.37 206.78 378.38 205.94 357.99 C 204.86 337.26 211.20 316.24 223.60 299.59 C 237.57 280.54 259.19 267.38 282.52 263.66 Z" />
</g>
</svg>
