<?xml version="1.0" encoding="UTF-8" ?>
<!DOCTYPE svg PUBLIC "-//W3C//DTD SVG 1.1//EN" "http://www.w3.org/Graphics/SVG/1.1/DTD/svg11.dtd">
<svg width="1280px" height="720px" viewBox="0 0 1280 720" version="1.1" xmlns="http://www.w3.org/2000/svg">
<g id="#f8af40ff">
<path fill="#f8af40" opacity="1.00" d=" M 288.18 263.09 C 298.11 262.22 308.08 262.76 318.03 262.64 C 428.34 262.77 538.65 262.82 648.95 262.95 C 757.29 263.32 865.67 263.15 974.03 263.37 C 983.76 263.24 993.58 263.95 1002.99 266.61 C 1029.14 273.57 1051.46 293.20 1061.86 318.17 C 1072.94 343.92 1071.09 374.81 1056.94 399.03 C 1042.55 424.40 1015.16 441.90 986.01 443.85 C 974.01 444.62 961.98 444.07 949.97 444.24 C 740.96 444.53 531.95 444.69 322.94 444.98 C 310.80 444.92 298.61 445.41 286.51 444.28 C 263.76 441.63 242.22 430.03 227.50 412.48 C 214.25 396.90 206.51 376.73 206.04 356.27 C 205.41 336.40 211.50 316.34 223.28 300.28 C 238.28 279.36 262.56 265.52 288.18 263.09 Z" />
</g>
</svg>
