<?xml version="1.0" encoding="UTF-8" ?>
<!DOCTYPE svg PUBLIC "-//W3C//DTD SVG 1.1//EN" "http://www.w3.org/Graphics/SVG/1.1/DTD/svg11.dtd">
<svg width="1280px" height="720px" viewBox="0 0 1280 720" version="1.1" xmlns="http://www.w3.org/2000/svg">
<g id="#00afffff">
<path fill="#00afff" opacity="1.00" d=" M 212.17 312.96 C 225.00 281.65 255.49 258.74 288.93 254.28 C 297.87 252.93 306.94 253.32 315.95 253.26 C 433.96 253.38 551.98 253.61 670.00 253.71 C 765.01 253.91 860.01 253.74 955.00 254.13 C 967.36 254.34 979.90 253.33 992.08 256.00 C 1022.87 261.93 1050.20 283.72 1062.50 312.62 C 1072.85 336.33 1072.40 364.93 1059.49 387.58 C 1052.04 400.93 1040.60 411.95 1027.17 419.21 C 1013.89 426.09 998.94 429.61 983.98 429.41 C 807.32 429.62 630.66 429.64 453.99 429.80 C 437.98 429.96 421.95 429.41 405.95 430.19 C 373.61 430.14 341.28 430.23 308.94 430.21 C 295.61 430.16 282.03 430.67 269.02 427.26 C 260.51 425.21 252.44 421.64 244.88 417.27 C 227.81 406.95 214.60 390.29 208.89 371.13 C 203.10 352.15 204.50 331.21 212.17 312.96 Z" />
</g>
<g id="#f8af40ff">
<path fill="#f8af40" opacity="1.00" d=" M 244.88 417.27 C 252.44 421.64 260.51 425.21 269.02 427.26 C 282.03 430.67 295.61 430.16 308.94 430.21 C 341.28 430.23 373.61 430.14 405.95 430.19 C 421.95 429.41 437.98 429.96 453.99 429.80 C 630.66 429.64 807.32 429.62 983.98 429.41 C 998.94 429.61 1013.89 426.09 1027.17 419.21 C 1014.90 426.64 1003.04 435.43 988.94 439.09 C 977.28 442.53 965.03 442.39 953.00 442.29 C 855.30 442.36 757.61 442.54 659.92 442.62 C 554.63 442.86 449.32 442.66 344.05 443.03 C 329.71 442.74 315.36 443.57 301.04 442.61 C 288.89 441.43 276.95 437.75 266.39 431.59 C 259.09 427.02 251.99 422.12 244.88 417.27 Z" />
</g>
</svg>
