<?xml version="1.0" encoding="UTF-8" ?>
<!DOCTYPE svg PUBLIC "-//W3C//DTD SVG 1.1//EN" "http://www.w3.org/Graphics/SVG/1.1/DTD/svg11.dtd">
<svg width="1280px" height="720px" viewBox="0 0 1280 720" version="1.1" xmlns="http://www.w3.org/2000/svg">
<g id="#ffffffff">
<path fill="#ffffff" opacity="1.00" d=" M 0.00 0.00 L 1280.00 0.00 L 1280.00 720.00 L 0.00 720.00 L 0.00 0.00 M 282.46 263.67 C 258.45 267.51 236.25 281.38 222.34 301.34 C 210.75 317.69 204.91 337.98 205.93 357.98 C 206.79 378.61 215.06 398.81 228.81 414.20 C 244.04 431.51 266.03 442.70 289.00 444.70 C 299.32 445.57 309.68 445.07 320.02 445.20 C 369.66 445.09 419.31 445.25 468.95 444.87 C 629.98 444.82 791.01 444.60 952.04 444.41 C 963.68 444.25 975.36 444.80 986.99 443.97 C 1015.86 441.64 1042.81 424.20 1057.10 399.06 C 1072.18 373.27 1073.25 339.95 1059.79 313.28 C 1047.31 287.72 1022.04 268.86 993.91 264.46 C 983.37 262.64 972.65 263.42 962.02 263.20 C 911.34 263.18 860.66 263.13 809.99 263.13 C 767.66 262.70 725.32 262.96 682.98 262.79 C 561.33 262.77 439.67 262.57 318.02 262.46 C 306.17 262.63 294.22 261.74 282.46 263.67 Z" />
</g>
<g id="#f8af40ff">
<path fill="#f8af40" opacity="1.00" d=" M 282.46 263.67 C 294.22 261.74 306.17 262.63 318.02 262.46 C 439.67 262.57 561.33 262.77 682.98 262.79 C 725.32 262.96 767.66 262.70 809.99 263.13 C 860.66 263.13 911.34 263.18 962.02 263.20 C 972.65 263.42 983.37 262.64 993.91 264.46 C 1022.04 268.86 1047.31 287.72 1059.79 313.28 C 1073.25 339.95 1072.18 373.27 1057.10 399.06 C 1042.81 424.20 1015.86 441.64 986.99 443.97 C 975.36 444.80 963.68 444.25 952.04 444.41 C 791.01 444.60 629.98 444.82 468.95 444.87 C 419.31 445.25 369.66 445.09 320.02 445.20 C 309.68 445.07 299.32 445.57 289.00 444.70 C 266.03 442.70 244.04 431.51 228.81 414.20 C 215.06 398.81 206.79 378.61 205.93 357.98 C 204.91 337.98 210.75 317.69 222.34 301.34 C 236.25 281.38 258.45 267.51 282.46 263.67 Z" />
</g>
</svg>
