<?xml version="1.0" encoding="UTF-8" ?>
<!DOCTYPE svg PUBLIC "-//W3C//DTD SVG 1.1//EN" "http://www.w3.org/Graphics/SVG/1.1/DTD/svg11.dtd">
<svg width="1280px" height="720px" viewBox="0 0 1280 720" version="1.1" xmlns="http://www.w3.org/2000/svg">
<g id="#ffffffff">
<path fill="#ffffff" opacity="1.00" d=" M 0.00 0.00 L 1280.00 0.00 L 1280.00 720.00 L 0.00 720.00 L 0.00 0.00 M 230.10 310.99 C 223.83 312.34 216.84 312.68 211.58 316.72 L 211.31 316.18 C 212.95 340.41 213.66 364.71 214.92 388.96 C 214.73 391.87 217.52 393.32 219.79 394.28 C 225.11 396.43 230.80 397.41 236.44 398.30 C 252.87 400.64 269.49 401.03 286.05 401.20 C 339.37 401.15 392.68 401.16 445.99 401.09 C 622.64 400.70 799.35 400.89 976.03 400.71 C 995.17 400.72 1014.37 400.93 1033.41 398.72 C 1040.48 397.87 1047.65 396.92 1054.38 394.46 C 1056.70 393.44 1060.05 392.14 1059.80 389.05 C 1061.06 367.37 1061.94 345.66 1063.20 323.98 C 1063.10 322.26 1063.92 320.19 1062.70 318.73 L 1063.74 318.05 C 1061.80 315.19 1058.18 314.65 1055.13 313.72 C 1044.44 311.09 1033.45 309.98 1022.53 308.81 C 999.38 306.66 976.15 305.62 952.91 305.47 C 739.92 305.32 526.93 305.15 313.94 305.19 C 285.93 305.61 257.84 306.83 230.10 310.99 Z" />
</g>
<g id="#00afffff">
<path fill="#00afff" opacity="1.00" d=" M 230.10 310.99 C 257.84 306.83 285.93 305.61 313.94 305.19 C 526.93 305.15 739.92 305.32 952.91 305.47 C 976.15 305.62 999.38 306.66 1022.53 308.81 C 1033.45 309.98 1044.44 311.09 1055.13 313.72 C 1058.18 314.65 1061.80 315.19 1063.74 318.05 L 1062.70 318.73 C 1059.68 320.88 1055.85 321.22 1052.33 321.93 C 1034.67 324.49 1016.79 324.76 998.98 324.75 C 760.01 324.73 521.04 324.66 282.07 324.61 C 267.00 324.70 251.94 324.27 236.93 323.07 C 229.97 322.35 222.96 321.78 216.18 319.96 C 214.36 319.39 212.22 318.74 211.58 316.72 C 216.84 312.68 223.83 312.34 230.10 310.99 Z" />
</g>
<g id="#f8af40ff">
<path fill="#f8af40" opacity="1.00" d=" M 211.31 316.18 L 211.58 316.72 C 212.22 318.74 214.36 319.39 216.18 319.96 C 222.96 321.78 229.97 322.35 236.93 323.07 C 251.94 324.27 267.00 324.70 282.07 324.61 C 521.04 324.66 760.01 324.73 998.98 324.75 C 1016.79 324.76 1034.67 324.49 1052.33 321.93 C 1055.85 321.22 1059.68 320.88 1062.70 318.73 C 1063.92 320.19 1063.10 322.26 1063.20 323.98 C 1061.94 345.66 1061.06 367.37 1059.80 389.05 C 1060.05 392.14 1056.70 393.44 1054.38 394.46 C 1047.65 396.92 1040.48 397.87 1033.41 398.72 C 1014.37 400.93 995.17 400.72 976.03 400.71 C 799.35 400.89 622.64 400.70 445.99 401.09 C 392.68 401.16 339.37 401.15 286.05 401.20 C 269.49 401.03 252.87 400.64 236.44 398.30 C 230.80 397.41 225.11 396.43 219.79 394.28 C 217.52 393.32 214.73 391.87 214.92 388.96 C 213.66 364.71 212.95 340.41 211.31 316.18 Z" />
</g>
</svg>
