<?xml version="1.0" encoding="UTF-8" ?>
<!DOCTYPE svg PUBLIC "-//W3C//DTD SVG 1.1//EN" "http://www.w3.org/Graphics/SVG/1.1/DTD/svg11.dtd">
<svg width="1280px" height="720px" viewBox="0 0 1280 720" version="1.1" xmlns="http://www.w3.org/2000/svg">
<g id="#ffffffff">
<path fill="#ffffff" opacity="1.00" d=" M 0.00 0.00 L 1280.00 0.00 L 1280.00 720.00 L 0.00 720.00 L 0.00 0.00 M 282.42 263.68 C 263.85 266.72 246.24 275.58 232.91 288.89 C 217.80 303.66 208.11 323.90 206.27 344.96 C 204.10 366.05 209.75 387.80 221.79 405.23 C 234.43 423.77 254.11 437.36 275.96 442.55 C 284.78 444.76 293.92 445.25 302.98 445.21 C 342.68 445.19 382.38 445.14 422.08 445.11 C 503.73 444.65 585.38 444.94 667.03 444.72 C 761.70 444.65 856.37 444.53 951.04 444.40 C 962.69 444.26 974.38 444.75 986.02 444.04 C 1015.27 442.02 1042.70 424.45 1057.14 399.00 C 1072.60 372.54 1073.25 338.18 1058.72 311.20 C 1044.30 283.36 1014.41 264.28 983.01 263.37 C 961.99 263.04 940.97 263.25 919.94 263.19 C 836.62 263.23 753.33 262.81 670.01 262.80 C 548.65 262.74 427.28 262.58 305.92 262.43 C 298.08 262.36 290.17 262.36 282.42 263.68 Z" />
</g>
<g id="#f8af40ff">
<path fill="#f8af40" opacity="1.00" d=" M 282.42 263.68 C 290.17 262.36 298.08 262.36 305.92 262.43 C 427.28 262.58 548.65 262.74 670.01 262.80 C 753.33 262.81 836.62 263.23 919.94 263.19 C 940.97 263.25 961.99 263.04 983.01 263.37 C 1014.41 264.28 1044.30 283.36 1058.72 311.20 C 1073.25 338.18 1072.60 372.54 1057.14 399.00 C 1042.70 424.45 1015.27 442.02 986.02 444.04 C 974.38 444.75 962.69 444.26 951.04 444.40 C 856.37 444.53 761.70 444.65 667.03 444.72 C 585.38 444.94 503.73 444.65 422.08 445.11 C 382.38 445.14 342.68 445.19 302.98 445.21 C 293.92 445.25 284.78 444.76 275.96 442.55 C 254.11 437.36 234.43 423.77 221.79 405.23 C 209.75 387.80 204.10 366.05 206.27 344.96 C 208.11 323.90 217.80 303.66 232.91 288.89 C 246.24 275.58 263.85 266.72 282.42 263.68 Z" />
</g>
</svg>
