<?xml version="1.0" encoding="UTF-8" ?>
<!DOCTYPE svg PUBLIC "-//W3C//DTD SVG 1.1//EN" "http://www.w3.org/Graphics/SVG/1.1/DTD/svg11.dtd">
<svg width="1280px" height="720px" viewBox="0 0 1280 720" version="1.1" xmlns="http://www.w3.org/2000/svg">
<g id="#ffffffff">
<path fill="#ffffff" opacity="1.00" d=" M 0.00 0.00 L 1280.00 0.00 L 1280.00 720.00 L 0.00 720.00 L 0.00 0.00 M 293.13 262.22 C 275.91 264.98 259.16 271.09 244.44 280.50 C 230.23 289.63 217.63 302.15 210.88 317.84 C 205.65 330.11 204.60 344.56 210.07 356.93 C 215.20 371.94 221.12 386.66 226.53 401.57 C 231.03 413.82 240.46 423.79 251.65 430.27 C 265.91 438.55 282.61 442.08 299.01 441.87 C 523.35 441.84 747.69 441.44 972.03 441.25 C 984.10 441.33 996.35 440.50 1007.89 436.70 C 1023.71 431.70 1038.73 421.36 1045.78 405.92 C 1050.19 395.26 1054.47 384.56 1058.85 373.89 C 1060.33 370.03 1062.32 366.35 1063.06 362.24 C 1068.16 353.82 1069.56 343.55 1068.38 333.88 C 1066.52 321.02 1060.11 309.14 1051.55 299.50 C 1028.83 274.37 994.50 261.52 961.01 261.31 C 918.35 261.27 875.68 261.21 833.02 261.20 C 783.66 261.06 734.30 261.37 684.95 260.88 C 568.65 260.83 452.34 260.71 336.04 260.60 C 321.73 260.73 307.31 259.81 293.13 262.22 Z" />
<path fill="#ffffff" opacity="1.00" d=" M 259.85 392.99 C 276.03 396.31 292.57 395.23 308.96 395.40 C 393.09 395.41 477.23 395.16 561.36 395.41 C 555.90 395.80 550.43 395.54 544.98 395.62 C 460.32 395.61 375.66 395.67 291.00 395.71 C 280.58 395.74 269.99 395.72 259.85 392.99 Z" />
</g>
<g id="#00afffff">
<path fill="#00afff" opacity="1.00" d=" M 293.13 262.22 C 307.31 259.81 321.73 260.73 336.04 260.60 C 452.34 260.71 568.65 260.83 684.95 260.88 C 734.30 261.37 783.66 261.06 833.02 261.20 C 875.68 261.21 918.35 261.27 961.01 261.31 C 994.50 261.52 1028.83 274.37 1051.55 299.50 C 1060.11 309.14 1066.52 321.02 1068.38 333.88 C 1069.56 343.55 1068.16 353.82 1063.06 362.24 C 1057.93 371.76 1049.54 379.20 1040.15 384.37 C 1029.92 389.96 1018.49 393.04 1006.96 394.38 C 989.68 395.86 972.32 395.02 955.00 395.24 C 823.79 395.30 692.57 395.32 561.36 395.41 C 477.23 395.16 393.09 395.41 308.96 395.40 C 292.57 395.23 276.03 396.31 259.85 392.99 C 239.36 388.57 218.70 376.93 210.07 356.93 C 204.60 344.56 205.65 330.11 210.88 317.84 C 217.63 302.15 230.23 289.63 244.44 280.50 C 259.16 271.09 275.91 264.98 293.13 262.22 Z" />
</g>
<g id="#f8af40ff">
<path fill="#f8af40" opacity="1.00" d=" M 210.07 356.93 C 218.70 376.93 239.36 388.57 259.85 392.99 C 269.99 395.72 280.58 395.74 291.00 395.71 C 375.66 395.67 460.32 395.61 544.98 395.62 C 550.43 395.54 555.90 395.80 561.36 395.41 C 692.57 395.32 823.79 395.30 955.00 395.24 C 972.32 395.02 989.68 395.86 1006.96 394.38 C 1018.49 393.04 1029.92 389.96 1040.15 384.37 C 1049.54 379.20 1057.93 371.76 1063.06 362.24 C 1062.32 366.35 1060.33 370.03 1058.85 373.89 C 1054.47 384.56 1050.19 395.26 1045.78 405.92 C 1038.73 421.36 1023.71 431.70 1007.89 436.70 C 996.35 440.50 984.10 441.33 972.03 441.25 C 747.69 441.44 523.35 441.84 299.01 441.87 C 282.61 442.08 265.91 438.55 251.65 430.27 C 240.46 423.79 231.03 413.82 226.53 401.57 C 221.12 386.66 215.20 371.94 210.07 356.93 Z" />
</g>
</svg>
