<?xml version="1.0" encoding="UTF-8" ?>
<!DOCTYPE svg PUBLIC "-//W3C//DTD SVG 1.1//EN" "http://www.w3.org/Graphics/SVG/1.1/DTD/svg11.dtd">
<svg width="1280px" height="720px" viewBox="0 0 1280 720" version="1.1" xmlns="http://www.w3.org/2000/svg">
<g id="#ffffffff">
<path fill="#ffffff" opacity="1.00" d=" M 0.00 0.00 L 1280.00 0.00 L 1280.00 720.00 L 0.00 720.00 L 0.00 0.00 M 280.46 265.64 C 256.26 269.66 234.05 284.10 220.61 304.62 C 209.07 321.96 204.08 343.40 206.42 364.06 C 208.64 384.94 218.41 404.89 233.41 419.57 C 249.63 435.79 272.05 445.63 294.98 446.50 C 304.65 446.82 314.33 446.58 324.01 446.66 C 500.33 446.38 676.66 446.27 852.99 446.06 C 894.32 445.61 935.67 446.00 977.00 445.80 C 1005.65 446.14 1033.87 431.84 1050.84 408.81 C 1069.59 384.17 1074.53 349.70 1062.97 320.91 C 1052.39 293.44 1027.12 272.28 998.17 266.81 C 987.29 264.46 976.10 265.28 965.05 265.13 C 919.04 264.68 873.02 264.95 827.01 264.80 C 652.69 264.73 478.38 264.43 304.07 264.28 C 296.19 264.27 288.24 264.21 280.46 265.64 Z" />
</g>
<g id="#f8af40ff">
<path fill="#f8af40" opacity="1.00" d=" M 280.46 265.64 C 288.24 264.21 296.19 264.27 304.07 264.28 C 478.38 264.43 652.69 264.73 827.01 264.80 C 873.02 264.95 919.04 264.68 965.05 265.13 C 976.10 265.28 987.29 264.46 998.17 266.81 C 1027.12 272.28 1052.39 293.44 1062.97 320.91 C 1074.53 349.70 1069.59 384.17 1050.84 408.81 C 1033.87 431.84 1005.65 446.14 977.00 445.80 C 935.67 446.00 894.32 445.61 852.99 446.06 C 676.66 446.27 500.33 446.38 324.01 446.66 C 314.33 446.58 304.65 446.82 294.98 446.50 C 272.05 445.63 249.63 435.79 233.41 419.57 C 218.41 404.89 208.64 384.94 206.42 364.06 C 204.08 343.40 209.07 321.96 220.61 304.62 C 234.05 284.10 256.26 269.66 280.46 265.64 Z" />
</g>
</svg>
