<?xml version="1.0" encoding="UTF-8" ?>
<!DOCTYPE svg PUBLIC "-//W3C//DTD SVG 1.1//EN" "http://www.w3.org/Graphics/SVG/1.1/DTD/svg11.dtd">
<svg width="1280px" height="720px" viewBox="0 0 1280 720" version="1.1" xmlns="http://www.w3.org/2000/svg">
<g id="#f8af40ff">
<path fill="#f8af40" opacity="1.00" d=" M 288.12 263.09 C 294.40 262.57 300.70 262.51 307.00 262.63 C 460.02 262.80 613.05 262.83 766.06 263.18 C 836.69 263.25 907.33 263.24 977.97 263.38 C 994.41 263.28 1010.93 267.48 1025.04 275.98 C 1050.37 290.79 1067.43 318.74 1068.82 348.06 C 1070.66 373.83 1060.64 400.16 1042.14 418.19 C 1031.63 428.67 1018.44 436.40 1004.21 440.56 C 994.11 443.63 983.50 444.39 973.00 444.24 C 766.67 444.39 560.35 444.81 354.02 444.86 C 336.37 445.06 318.72 445.10 301.07 444.99 C 284.35 445.39 267.45 441.60 252.84 433.35 C 232.98 422.35 217.47 403.67 210.51 382.04 C 204.95 365.29 204.56 346.94 209.11 329.92 C 214.68 308.94 228.16 290.20 246.22 278.18 C 258.64 269.77 273.20 264.61 288.12 263.09 Z" />
</g>
</svg>
