<?xml version="1.0" encoding="UTF-8" ?>
<!DOCTYPE svg PUBLIC "-//W3C//DTD SVG 1.1//EN" "http://www.w3.org/Graphics/SVG/1.1/DTD/svg11.dtd">
<svg width="1280px" height="720px" viewBox="0 0 1280 720" version="1.1" xmlns="http://www.w3.org/2000/svg">
<g id="#ffffffff">
<path fill="#ffffff" opacity="1.00" d=" M 0.00 0.00 L 1280.00 0.00 L 1280.00 720.00 L 0.00 720.00 L 0.00 0.00 M 293.03 258.00 C 268.02 258.72 243.63 270.44 227.31 289.37 C 213.70 304.95 205.59 325.30 205.06 345.99 C 204.25 366.10 210.40 386.43 222.27 402.70 C 234.68 420.01 253.34 432.67 273.98 437.92 C 288.33 441.89 303.32 440.58 318.02 440.80 C 534.02 440.62 750.01 440.28 966.01 440.16 C 977.40 440.17 988.96 440.37 1000.12 437.70 C 1017.18 433.79 1033.01 424.73 1045.04 412.02 C 1063.01 393.40 1072.28 366.78 1069.73 341.03 C 1067.52 312.68 1050.80 286.07 1026.41 271.53 C 1011.91 262.77 994.92 258.35 978.00 258.66 C 827.67 258.44 677.34 258.25 527.01 258.16 C 473.67 258.26 420.35 257.72 367.02 257.84 C 342.36 257.93 317.68 257.53 293.03 258.00 Z" />
</g>
<g id="#00afffff">
<path fill="#00afff" opacity="1.00" d=" M 293.03 258.00 C 317.68 257.53 342.36 257.93 367.02 257.84 C 420.35 257.72 473.67 258.26 527.01 258.16 C 677.34 258.25 827.67 258.44 978.00 258.66 C 994.92 258.35 1011.91 262.77 1026.41 271.53 C 1050.80 286.07 1067.52 312.68 1069.73 341.03 C 1072.28 366.78 1063.01 393.40 1045.04 412.02 C 1033.01 424.73 1017.18 433.79 1000.12 437.70 C 988.96 440.37 977.40 440.17 966.01 440.16 C 750.01 440.28 534.02 440.62 318.02 440.80 C 303.32 440.58 288.33 441.89 273.98 437.92 C 253.34 432.67 234.68 420.01 222.27 402.70 C 210.40 386.43 204.25 366.10 205.06 345.99 C 205.59 325.30 213.70 304.95 227.31 289.37 C 243.63 270.44 268.02 258.72 293.03 258.00 Z" />
</g>
</svg>
