<?xml version="1.0" encoding="UTF-8" ?>
<!DOCTYPE svg PUBLIC "-//W3C//DTD SVG 1.1//EN" "http://www.w3.org/Graphics/SVG/1.1/DTD/svg11.dtd">
<svg width="1280px" height="720px" viewBox="0 0 1280 720" version="1.1" xmlns="http://www.w3.org/2000/svg">
<g id="#f8af40ff">
<path fill="#f8af40" opacity="1.00" d=" M 301.31 260.41 C 317.18 259.27 333.11 260.31 349.00 259.90 C 386.00 260.19 423.02 260.15 460.04 260.18 C 623.04 260.26 786.05 260.57 949.06 260.71 C 958.68 260.81 968.38 260.30 977.94 261.74 C 989.14 263.32 999.90 267.44 1009.56 273.29 C 1018.73 278.75 1028.41 283.42 1037.01 289.79 C 1049.98 299.59 1059.88 313.42 1064.84 328.92 C 1073.15 354.31 1068.10 383.16 1053.11 405.08 C 1036.15 430.50 1006.63 447.17 976.02 448.02 C 961.02 448.41 946.00 448.03 931.00 448.22 C 729.01 448.40 527.03 448.80 325.05 448.87 C 314.04 449.09 302.98 449.36 292.01 448.27 C 269.00 445.64 247.11 434.52 231.38 417.54 C 216.05 401.30 206.61 379.39 206.25 356.99 C 205.71 337.73 212.16 318.31 224.39 303.38 C 230.74 295.33 238.86 288.86 247.57 283.51 C 254.58 279.24 261.39 274.63 268.55 270.60 C 278.59 264.94 289.86 261.60 301.31 260.41 Z" />
</g>
</svg>
