<?xml version="1.0" encoding="UTF-8" ?>
<!DOCTYPE svg PUBLIC "-//W3C//DTD SVG 1.1//EN" "http://www.w3.org/Graphics/SVG/1.1/DTD/svg11.dtd">
<svg width="1280px" height="720px" viewBox="0 0 1280 720" version="1.1" xmlns="http://www.w3.org/2000/svg">
<g id="#00afffff">
<path fill="#00afff" opacity="1.00" d=" M 269.87 260.74 C 282.64 255.88 296.33 253.79 309.96 253.84 C 408.30 253.89 506.63 254.27 604.98 254.26 C 716.65 254.32 828.32 254.57 939.99 254.67 C 956.30 255.14 972.85 253.43 988.95 256.88 C 1016.06 262.38 1041.15 278.64 1056.20 302.00 C 1065.64 316.71 1070.79 334.46 1069.16 351.97 C 1068.03 364.98 1062.91 377.54 1054.81 387.77 C 1052.67 390.23 1051.14 393.40 1048.39 395.24 C 1047.23 395.67 1046.61 396.50 1046.53 397.73 C 1046.34 397.92 1045.96 398.31 1045.77 398.50 C 1044.19 398.97 1042.63 399.56 1041.33 400.58 C 1026.41 411.73 1007.52 416.76 989.05 416.62 C 873.68 416.68 758.32 416.76 642.96 416.80 C 635.30 416.56 627.66 417.40 620.01 417.18 C 511.67 417.19 403.33 417.25 294.99 417.33 C 284.60 417.41 274.10 416.92 264.01 414.29 C 251.92 411.29 240.44 405.66 230.85 397.70 C 228.62 395.68 226.53 393.50 224.02 391.83 C 216.76 383.14 210.77 373.04 207.95 361.97 C 203.43 344.90 205.93 326.38 213.54 310.58 C 224.67 287.29 245.87 269.65 269.87 260.74 Z" />
</g>
<g id="#f8af40ff">
<path fill="#f8af40" opacity="1.00" d=" M 224.02 391.83 C 226.53 393.50 228.62 395.68 230.85 397.70 C 240.44 405.66 251.92 411.29 264.01 414.29 C 274.10 416.92 284.60 417.41 294.99 417.33 C 403.33 417.25 511.67 417.19 620.01 417.18 C 627.66 417.40 635.30 416.56 642.96 416.80 C 758.32 416.76 873.68 416.68 989.05 416.62 C 1007.52 416.76 1026.41 411.73 1041.33 400.58 C 1042.63 399.56 1044.19 398.97 1045.77 398.50 L 1046.67 398.23 C 1040.41 406.70 1034.44 415.53 1026.98 423.02 C 1013.17 436.39 994.04 443.37 975.01 444.13 C 962.67 444.48 950.32 444.20 937.98 444.29 C 739.66 444.60 541.31 444.72 343.00 445.00 C 328.35 445.04 313.67 445.45 299.02 444.78 C 275.46 443.67 251.90 432.45 238.24 412.86 C 233.56 405.81 228.15 399.20 224.02 391.83 Z" />
<path fill="#f8af40" opacity="1.00" d=" M 1046.53 397.73 C 1046.61 396.50 1047.23 395.67 1048.39 395.24 C 1048.03 395.92 1047.31 397.27 1046.96 397.95 L 1046.53 397.73 Z" />
</g>
</svg>
