<?xml version="1.0" encoding="UTF-8" ?>
<!DOCTYPE svg PUBLIC "-//W3C//DTD SVG 1.1//EN" "http://www.w3.org/Graphics/SVG/1.1/DTD/svg11.dtd">
<svg width="1280px" height="720px" viewBox="0 0 1280 720" version="1.1" xmlns="http://www.w3.org/2000/svg">
<g id="#f8af40ff">
<path fill="#f8af40" opacity="1.00" d=" M 281.42 265.63 C 287.22 264.64 293.13 264.53 299.01 264.44 C 419.33 264.57 539.65 264.75 659.98 264.82 C 757.35 264.78 854.68 265.20 952.05 265.21 C 971.31 265.67 991.27 263.27 1009.75 270.11 C 1038.49 279.70 1061.04 305.32 1067.03 335.01 C 1072.50 360.38 1066.42 387.96 1050.76 408.67 C 1033.64 432.03 1004.96 446.20 976.01 445.69 C 846.31 445.71 716.66 446.08 586.97 446.18 C 496.33 446.23 405.70 446.36 315.06 446.49 C 308.04 446.43 301.01 446.63 294.00 446.28 C 271.68 445.20 249.92 435.63 234.00 419.96 C 220.92 407.31 211.69 390.70 208.00 372.87 C 202.92 348.96 207.81 322.96 221.95 302.93 C 235.58 283.06 257.65 269.39 281.42 265.63 Z" />
</g>
</svg>
