<?xml version="1.0" encoding="UTF-8" ?>
<!DOCTYPE svg PUBLIC "-//W3C//DTD SVG 1.1//EN" "http://www.w3.org/Graphics/SVG/1.1/DTD/svg11.dtd">
<svg width="1280px" height="720px" viewBox="0 0 1280 720" version="1.1" xmlns="http://www.w3.org/2000/svg">
<g id="#ffffffff">
<path fill="#ffffff" opacity="1.00" d=" M 0.00 0.00 L 1280.00 0.00 L 1280.00 720.00 L 0.00 720.00 L 0.00 0.00 M 282.44 263.67 C 257.71 267.62 234.95 282.23 221.12 303.11 C 209.36 320.55 204.08 342.18 206.31 363.09 C 208.18 381.91 216.19 400.06 228.79 414.17 C 241.89 429.06 259.98 439.45 279.43 443.32 C 289.79 445.47 300.43 445.22 310.96 445.20 C 339.65 445.22 368.34 445.12 397.03 445.15 C 493.35 444.73 589.67 444.87 686.00 444.71 C 777.67 444.63 869.34 444.51 961.02 444.41 C 973.70 444.28 986.60 445.12 999.04 442.06 C 1027.15 435.86 1051.43 415.15 1062.29 388.53 C 1073.91 361.01 1070.73 327.82 1053.89 303.11 C 1037.98 279.05 1009.93 263.58 981.05 263.30 C 933.70 263.07 886.35 263.22 839.01 263.13 C 660.69 262.60 482.34 262.78 304.01 262.41 C 296.81 262.41 289.56 262.45 282.44 263.67 Z" />
</g>
<g id="#f8af40ff">
<path fill="#f8af40" opacity="1.00" d=" M 282.44 263.67 C 289.56 262.45 296.81 262.41 304.01 262.41 C 482.34 262.78 660.69 262.60 839.01 263.13 C 886.35 263.22 933.70 263.07 981.05 263.30 C 1009.93 263.58 1037.98 279.05 1053.89 303.11 C 1070.73 327.82 1073.91 361.01 1062.29 388.53 C 1051.43 415.15 1027.15 435.86 999.04 442.06 C 986.60 445.12 973.70 444.28 961.02 444.41 C 869.34 444.51 777.67 444.63 686.00 444.71 C 589.67 444.87 493.35 444.73 397.03 445.15 C 368.34 445.12 339.65 445.22 310.96 445.20 C 300.43 445.22 289.79 445.47 279.43 443.32 C 259.98 439.45 241.89 429.06 228.79 414.17 C 216.19 400.06 208.18 381.91 206.31 363.09 C 204.08 342.18 209.36 320.55 221.12 303.11 C 234.95 282.23 257.71 267.62 282.44 263.67 Z" />
</g>
</svg>
