<?xml version="1.0" encoding="UTF-8" ?>
<!DOCTYPE svg PUBLIC "-//W3C//DTD SVG 1.1//EN" "http://www.w3.org/Graphics/SVG/1.1/DTD/svg11.dtd">
<svg width="1280px" height="720px" viewBox="0 0 1280 720" version="1.1" xmlns="http://www.w3.org/2000/svg">
<g id="#ffffffff">
<path fill="#ffffff" opacity="1.00" d=" M 0.00 0.00 L 1280.00 0.00 L 1280.00 720.00 L 0.00 720.00 L 0.00 0.00 M 282.49 263.66 C 257.25 267.67 234.07 282.81 220.31 304.35 C 209.33 321.25 204.30 341.90 206.22 361.95 C 208.11 384.74 219.21 406.54 236.29 421.71 C 251.78 435.65 272.16 444.08 292.99 444.97 C 302.32 445.45 311.67 445.09 321.01 445.20 C 369.70 445.11 418.39 445.21 467.08 444.87 C 628.37 444.83 789.66 444.61 950.96 444.41 C 962.61 444.26 974.29 444.74 985.94 444.05 C 1014.95 442.06 1042.19 424.80 1056.74 399.69 C 1072.16 373.80 1073.37 340.15 1059.77 313.25 C 1047.03 287.14 1020.92 268.08 992.08 264.18 C 981.79 262.69 971.37 263.43 961.02 263.20 C 910.34 263.18 859.66 263.12 808.98 263.13 C 765.97 262.70 722.96 262.96 679.95 262.79 C 555.61 262.76 431.28 262.57 306.94 262.44 C 298.78 262.36 290.56 262.32 282.49 263.66 Z" />
</g>
<g id="#f8af40ff">
<path fill="#f8af40" opacity="1.00" d=" M 282.49 263.66 C 290.56 262.32 298.78 262.36 306.94 262.44 C 431.28 262.57 555.61 262.76 679.95 262.79 C 722.96 262.96 765.97 262.70 808.98 263.13 C 859.66 263.12 910.34 263.18 961.02 263.20 C 971.37 263.43 981.79 262.69 992.08 264.18 C 1020.92 268.08 1047.03 287.14 1059.77 313.25 C 1073.37 340.15 1072.16 373.80 1056.74 399.69 C 1042.19 424.80 1014.95 442.06 985.94 444.05 C 974.29 444.74 962.61 444.26 950.96 444.41 C 789.66 444.61 628.37 444.83 467.08 444.87 C 418.39 445.21 369.70 445.11 321.01 445.20 C 311.67 445.09 302.32 445.45 292.99 444.97 C 272.16 444.08 251.78 435.65 236.29 421.71 C 219.21 406.54 208.11 384.74 206.22 361.95 C 204.30 341.90 209.33 321.25 220.31 304.35 C 234.07 282.81 257.25 267.67 282.49 263.66 Z" />
</g>
</svg>
