<?xml version="1.0" encoding="UTF-8" ?>
<!DOCTYPE svg PUBLIC "-//W3C//DTD SVG 1.1//EN" "http://www.w3.org/Graphics/SVG/1.1/DTD/svg11.dtd">
<svg width="1280px" height="720px" viewBox="0 0 1280 720" version="1.1" xmlns="http://www.w3.org/2000/svg">
<g id="#00afffff">
<path fill="#00afff" opacity="1.00" d=" M 296.98 261.76 C 308.93 260.15 321.01 260.77 333.04 260.70 C 538.37 260.79 743.66 261.27 948.99 261.38 C 956.35 261.35 963.72 261.33 971.08 261.82 C 992.28 263.58 1013.14 270.38 1030.99 282.02 C 1043.89 290.49 1055.43 301.66 1062.42 315.57 C 1069.63 329.38 1071.16 346.63 1063.95 360.75 C 1057.44 373.55 1045.47 382.69 1032.41 388.12 C 1019.50 392.89 1005.77 395.00 992.04 395.00 C 756.70 395.00 521.37 395.20 286.04 395.31 C 277.80 395.44 269.64 394.46 261.50 393.37 C 246.36 390.16 231.41 383.74 220.51 372.49 C 216.11 367.96 212.66 362.60 210.07 356.86 C 204.83 344.55 205.71 330.30 210.87 318.12 C 217.58 302.28 230.28 289.67 244.60 280.51 C 260.37 270.44 278.46 264.20 296.98 261.76 Z" />
</g>
<g id="#f8af40ff">
<path fill="#f8af40" opacity="1.00" d=" M 210.07 356.86 C 212.66 362.60 216.11 367.96 220.51 372.49 C 231.41 383.74 246.36 390.16 261.50 393.37 C 267.13 395.23 273.11 395.72 278.99 396.01 C 509.00 395.93 739.01 396.13 969.01 395.86 C 984.87 395.72 1000.92 396.66 1016.55 393.39 C 1021.98 392.17 1027.56 391.00 1032.41 388.12 C 1045.47 382.69 1057.44 373.55 1063.95 360.75 C 1059.60 371.91 1054.93 382.95 1050.47 394.07 C 1047.67 400.59 1045.59 407.53 1041.36 413.33 C 1032.65 425.79 1018.73 433.67 1004.29 437.60 C 988.24 442.15 971.42 440.92 954.95 441.14 C 736.62 441.21 518.29 441.70 299.96 441.78 C 282.11 441.97 263.75 438.10 248.65 428.24 C 240.94 423.14 234.19 416.40 229.76 408.24 C 227.01 403.24 225.38 397.74 223.30 392.45 C 218.92 380.58 214.37 368.76 210.07 356.86 Z" />
</g>
<g id="#bcaf7dfe">
<path fill="#bcaf7d" opacity="1.00" d=" M 992.04 395.00 C 1005.77 395.00 1019.50 392.89 1032.41 388.12 C 1027.56 391.00 1021.98 392.17 1016.55 393.39 C 1000.92 396.66 984.87 395.72 969.01 395.86 C 739.01 396.13 509.00 395.93 278.99 396.01 C 273.11 395.72 267.13 395.23 261.50 393.37 C 269.64 394.46 277.80 395.44 286.04 395.31 C 521.37 395.20 756.70 395.00 992.04 395.00 Z" />
</g>
</svg>
