<?xml version="1.0" encoding="UTF-8" ?>
<!DOCTYPE svg PUBLIC "-//W3C//DTD SVG 1.1//EN" "http://www.w3.org/Graphics/SVG/1.1/DTD/svg11.dtd">
<svg width="1280px" height="720px" viewBox="0 0 1280 720" version="1.1" xmlns="http://www.w3.org/2000/svg">
<g id="#00afffff">
<path fill="#00afff" opacity="1.00" d=" M 239.99 309.69 C 274.50 305.57 309.30 304.98 344.02 305.22 C 505.35 305.22 666.68 305.40 828.01 305.45 C 875.32 305.73 922.63 305.16 969.93 305.82 C 992.99 306.56 1016.09 307.75 1038.98 310.84 C 1045.98 311.91 1053.09 312.86 1059.79 315.27 C 1061.19 315.91 1063.26 316.48 1063.35 318.34 C 1059.76 320.93 1055.26 321.40 1051.02 322.13 C 1034.13 324.43 1017.05 324.76 1000.03 324.75 C 789.02 324.75 578.01 324.66 367.00 324.64 C 334.33 324.59 301.65 324.75 268.98 324.54 C 258.60 324.55 248.24 323.82 237.89 323.17 C 229.06 322.02 219.67 322.11 211.58 317.92 C 212.08 315.37 214.88 314.74 216.97 313.98 C 224.46 311.71 232.26 310.73 239.99 309.69 Z" />
</g>
<g id="#f8af40ff">
<path fill="#f8af40" opacity="1.00" d=" M 211.58 317.92 C 219.67 322.11 229.06 322.02 237.89 323.17 C 248.24 323.82 258.60 324.55 268.98 324.54 C 301.65 324.75 334.33 324.59 367.00 324.64 C 578.01 324.66 789.02 324.75 1000.03 324.75 C 1017.05 324.76 1034.13 324.43 1051.02 322.13 C 1055.26 321.40 1059.76 320.93 1063.35 318.34 C 1061.95 341.92 1060.93 365.52 1059.68 389.10 C 1059.83 392.16 1056.47 393.40 1054.16 394.37 C 1044.77 397.65 1034.74 398.45 1024.91 399.39 C 1005.97 400.90 986.96 400.49 967.98 400.55 C 757.00 400.73 546.01 400.80 335.03 400.87 C 313.01 400.79 291.00 401.23 268.99 400.73 C 256.53 400.27 244.03 399.53 231.74 397.34 C 226.79 396.33 221.63 395.43 217.25 392.78 C 215.86 392.05 215.05 390.59 215.13 389.04 C 213.83 365.34 213.17 341.60 211.58 317.92 M 250.04 325.60 C 261.28 326.51 272.61 325.85 283.89 325.99 L 283.85 325.29 C 272.58 325.39 261.29 324.91 250.04 325.60 Z" />
</g>
<g id="#fcaf23ff">
<path fill="#fcaf23" opacity="1.00" d=" M 250.04 325.60 C 261.29 324.91 272.58 325.39 283.85 325.29 L 283.89 325.99 C 272.61 325.85 261.28 326.51 250.04 325.60 Z" />
</g>
</svg>
