<?xml version="1.0" encoding="UTF-8" ?>
<!DOCTYPE svg PUBLIC "-//W3C//DTD SVG 1.1//EN" "http://www.w3.org/Graphics/SVG/1.1/DTD/svg11.dtd">
<svg width="1280px" height="720px" viewBox="0 0 1280 720" version="1.1" xmlns="http://www.w3.org/2000/svg">
<g id="#ffffffff">
<path fill="#ffffff" opacity="1.00" d=" M 0.00 0.00 L 1280.00 0.00 L 1280.00 720.00 L 0.00 720.00 L 0.00 0.00 M 282.40 263.68 C 258.88 267.46 237.12 280.84 223.18 300.16 C 211.04 316.72 204.87 337.52 205.94 358.02 C 206.80 378.64 215.07 398.83 228.81 414.20 C 241.80 428.95 259.68 439.28 278.93 443.22 C 290.46 445.70 302.32 445.15 314.04 445.20 C 371.04 445.20 428.04 445.11 485.04 444.87 C 643.03 444.80 801.02 444.58 959.01 444.41 C 973.36 444.27 988.00 445.32 1001.98 441.34 C 1029.72 434.21 1053.22 412.90 1063.26 386.11 C 1074.01 358.40 1070.01 325.52 1052.67 301.34 C 1036.41 277.96 1008.50 263.25 979.99 263.27 C 925.98 263.11 871.97 263.18 817.96 263.13 C 769.32 262.81 720.67 262.88 672.02 262.80 C 549.99 262.74 427.96 262.58 305.94 262.43 C 298.08 262.37 290.16 262.36 282.40 263.68 Z" />
</g>
<g id="#f8af40ff">
<path fill="#f8af40" opacity="1.00" d=" M 282.40 263.68 C 290.16 262.36 298.08 262.37 305.94 262.43 C 427.96 262.58 549.99 262.74 672.02 262.80 C 720.67 262.88 769.32 262.81 817.96 263.13 C 871.97 263.18 925.98 263.11 979.99 263.27 C 1008.50 263.25 1036.41 277.96 1052.67 301.34 C 1070.01 325.52 1074.01 358.40 1063.26 386.11 C 1053.22 412.90 1029.72 434.21 1001.98 441.34 C 988.00 445.32 973.36 444.27 959.01 444.41 C 801.02 444.58 643.03 444.80 485.04 444.87 C 428.04 445.11 371.04 445.20 314.04 445.20 C 302.32 445.15 290.46 445.70 278.93 443.22 C 259.68 439.28 241.80 428.95 228.81 414.20 C 215.07 398.83 206.80 378.64 205.94 358.02 C 204.87 337.52 211.04 316.72 223.18 300.16 C 237.12 280.84 258.88 267.46 282.40 263.68 Z" />
</g>
</svg>
