<?xml version="1.0" encoding="UTF-8" ?>
<!DOCTYPE svg PUBLIC "-//W3C//DTD SVG 1.1//EN" "http://www.w3.org/Graphics/SVG/1.1/DTD/svg11.dtd">
<svg width="1280px" height="720px" viewBox="0 0 1280 720" version="1.1" xmlns="http://www.w3.org/2000/svg">
<g id="#ffffffff">
<path fill="#ffffff" opacity="1.00" d=" M 0.00 0.00 L 1280.00 0.00 L 1280.00 720.00 L 0.00 720.00 L 0.00 0.00 M 282.48 263.67 C 257.97 267.57 235.37 281.95 221.50 302.55 C 210.46 318.69 204.93 338.50 205.94 358.03 C 206.79 378.41 214.89 398.39 228.37 413.70 C 241.37 428.68 259.39 439.20 278.83 443.20 C 291.04 445.83 303.60 445.10 316.00 445.20 C 349.66 445.16 383.33 445.20 416.99 445.06 C 443.00 445.30 469.00 444.66 495.01 444.87 C 648.01 444.79 801.00 444.60 954.00 444.41 C 968.03 444.09 982.25 445.40 996.12 442.68 C 1024.97 437.32 1050.29 416.76 1061.76 389.80 C 1073.88 362.24 1071.06 328.72 1054.28 303.69 C 1038.43 279.30 1010.14 263.56 981.01 263.30 C 919.65 263.02 858.29 263.28 796.93 263.05 C 759.62 262.73 722.31 262.95 684.99 262.80 C 558.98 262.76 432.97 262.57 306.96 262.44 C 298.79 262.36 290.56 262.31 282.48 263.67 Z" />
</g>
<g id="#f8af40ff">
<path fill="#f8af40" opacity="1.00" d=" M 282.48 263.67 C 290.56 262.31 298.79 262.36 306.96 262.44 C 432.97 262.57 558.98 262.76 684.99 262.80 C 722.31 262.95 759.62 262.73 796.93 263.05 C 858.29 263.28 919.65 263.02 981.01 263.30 C 1010.14 263.56 1038.43 279.30 1054.28 303.69 C 1071.06 328.72 1073.88 362.24 1061.76 389.80 C 1050.29 416.76 1024.97 437.32 996.12 442.68 C 982.25 445.40 968.03 444.09 954.00 444.41 C 801.00 444.60 648.01 444.79 495.01 444.87 C 469.00 444.66 443.00 445.30 416.99 445.06 C 383.33 445.20 349.66 445.16 316.00 445.20 C 303.60 445.10 291.04 445.83 278.83 443.20 C 259.39 439.20 241.37 428.68 228.37 413.70 C 214.89 398.39 206.79 378.41 205.94 358.03 C 204.93 338.50 210.46 318.69 221.50 302.55 C 235.37 281.95 257.97 267.57 282.48 263.67 Z" />
</g>
</svg>
