<?xml version="1.0" encoding="UTF-8" ?>
<!DOCTYPE svg PUBLIC "-//W3C//DTD SVG 1.1//EN" "http://www.w3.org/Graphics/SVG/1.1/DTD/svg11.dtd">
<svg width="1280px" height="720px" viewBox="0 0 1280 720" version="1.1" xmlns="http://www.w3.org/2000/svg">
<g id="#ffffffff">
<path fill="#ffffff" opacity="1.00" d=" M 0.00 0.00 L 1280.00 0.00 L 1280.00 720.00 L 0.00 720.00 L 0.00 0.00 M 268.51 288.86 C 254.79 289.98 240.80 291.59 228.04 297.07 C 223.20 299.34 217.43 302.58 216.76 308.48 C 214.72 331.67 212.68 354.86 210.62 378.04 C 210.12 381.59 212.92 384.40 215.52 386.37 C 221.47 390.69 228.52 393.15 235.46 395.37 C 252.20 400.39 269.56 403.06 286.92 404.77 C 309.21 407.14 331.64 406.52 354.02 406.60 C 542.00 406.45 729.98 406.28 917.96 406.24 C 938.28 406.07 958.64 406.69 978.92 404.99 C 995.77 403.66 1012.58 401.36 1029.03 397.41 C 1038.89 394.89 1048.90 392.10 1057.66 386.76 C 1060.94 384.58 1064.96 381.58 1064.49 377.13 C 1062.40 354.78 1060.15 332.44 1058.07 310.09 C 1057.88 307.42 1057.24 304.65 1055.24 302.74 C 1050.42 297.81 1043.59 295.67 1037.14 293.79 C 1017.56 288.72 997.16 288.71 977.07 288.75 C 751.06 288.70 525.05 288.37 299.04 288.28 C 288.86 288.22 278.67 288.15 268.51 288.86 Z" />
</g>
<g id="#f8af40ff">
<path fill="#f8af40" opacity="1.00" d=" M 268.51 288.86 C 278.67 288.15 288.86 288.22 299.04 288.28 C 525.05 288.37 751.06 288.70 977.07 288.75 C 997.16 288.71 1017.56 288.72 1037.14 293.79 C 1043.59 295.67 1050.42 297.81 1055.24 302.74 C 1057.24 304.65 1057.88 307.42 1058.07 310.09 C 1060.15 332.44 1062.40 354.78 1064.49 377.13 C 1064.96 381.58 1060.94 384.58 1057.66 386.76 C 1048.90 392.10 1038.89 394.89 1029.03 397.41 C 1012.58 401.36 995.77 403.66 978.92 404.99 C 958.64 406.69 938.28 406.07 917.96 406.24 C 729.98 406.28 542.00 406.45 354.02 406.60 C 331.64 406.52 309.21 407.14 286.92 404.77 C 269.56 403.06 252.20 400.39 235.46 395.37 C 228.52 393.15 221.47 390.69 215.52 386.37 C 212.92 384.40 210.12 381.59 210.62 378.04 C 212.68 354.86 214.72 331.67 216.76 308.48 C 217.43 302.58 223.20 299.34 228.04 297.07 C 240.80 291.59 254.79 289.98 268.51 288.86 Z" />
</g>
</svg>
