<?xml version="1.0" encoding="UTF-8" ?>
<!DOCTYPE svg PUBLIC "-//W3C//DTD SVG 1.1//EN" "http://www.w3.org/Graphics/SVG/1.1/DTD/svg11.dtd">
<svg width="1280px" height="720px" viewBox="0 0 1280 720" version="1.1" xmlns="http://www.w3.org/2000/svg">
<g id="#f8af40ff">
<path fill="#f8af40" opacity="1.00" d=" M 288.16 263.09 C 298.07 262.22 308.02 262.76 317.96 262.64 C 422.32 262.72 526.68 262.90 631.04 262.87 C 651.03 263.45 671.02 262.59 691.02 263.11 C 786.00 263.22 880.99 263.22 975.97 263.37 C 985.39 263.31 994.88 264.22 1003.95 266.88 C 1032.28 274.73 1055.82 297.56 1064.63 325.60 C 1073.56 352.66 1068.75 383.85 1051.88 406.85 C 1035.39 430.04 1007.40 444.34 978.95 444.21 C 776.97 444.42 575.00 444.75 373.02 444.87 C 347.33 444.83 321.65 445.24 295.97 444.91 C 272.27 444.64 248.87 434.66 232.30 417.71 C 219.64 405.00 210.92 388.44 207.61 370.82 C 203.42 349.12 207.40 325.90 218.85 306.97 C 233.30 282.47 259.85 265.73 288.16 263.09 Z" />
</g>
</svg>
