<?xml version="1.0" encoding="UTF-8" ?>
<!DOCTYPE svg PUBLIC "-//W3C//DTD SVG 1.1//EN" "http://www.w3.org/Graphics/SVG/1.1/DTD/svg11.dtd">
<svg width="1280px" height="720px" viewBox="0 0 1280 720" version="1.1" xmlns="http://www.w3.org/2000/svg">
<g id="#ffffffff">
<path fill="#ffffff" opacity="1.00" d=" M 0.00 0.00 L 1280.00 0.00 L 1280.00 720.00 L 0.00 720.00 L 0.00 0.00 M 290.54 257.82 C 268.63 260.69 247.08 272.19 235.41 291.42 C 228.66 302.72 222.19 314.20 215.55 325.57 C 210.50 334.23 207.27 344.00 206.65 354.04 C 205.46 372.09 211.87 390.08 222.67 404.41 C 243.10 431.57 277.21 447.16 310.99 446.81 C 526.99 446.68 743.00 446.26 959.00 446.16 C 971.12 446.23 983.34 445.35 995.01 441.89 C 1023.02 433.98 1048.68 415.01 1061.34 388.40 C 1068.57 373.15 1070.93 355.26 1065.95 338.97 C 1062.54 327.28 1054.84 317.62 1048.67 307.33 C 1042.06 297.40 1036.66 286.42 1027.81 278.20 C 1015.42 266.49 998.77 259.87 981.92 258.31 C 973.32 257.38 964.67 257.80 956.06 257.71 C 846.72 257.65 737.39 257.41 628.06 257.35 C 524.03 257.09 420.00 257.37 315.98 256.86 C 307.50 257.10 298.97 256.68 290.54 257.82 Z" />
</g>
<g id="#f8af40ff">
<path fill="#f8af40" opacity="1.00" d=" M 290.54 257.82 C 298.97 256.68 307.50 257.10 315.98 256.86 C 420.00 257.37 524.03 257.09 628.06 257.35 C 737.39 257.41 846.72 257.65 956.06 257.71 C 964.67 257.80 973.32 257.38 981.92 258.31 C 998.77 259.87 1015.42 266.49 1027.81 278.20 C 1036.66 286.42 1042.06 297.40 1048.67 307.33 C 1054.84 317.62 1062.54 327.28 1065.95 338.97 C 1070.93 355.26 1068.57 373.15 1061.34 388.40 C 1048.68 415.01 1023.02 433.98 995.01 441.89 C 983.34 445.35 971.12 446.23 959.00 446.16 C 743.00 446.26 526.99 446.68 310.99 446.81 C 277.21 447.16 243.10 431.57 222.67 404.41 C 211.87 390.08 205.46 372.09 206.65 354.04 C 207.27 344.00 210.50 334.23 215.55 325.57 C 222.19 314.20 228.66 302.72 235.41 291.42 C 247.08 272.19 268.63 260.69 290.54 257.82 Z" />
</g>
</svg>
