<?xml version="1.0" encoding="UTF-8" ?>
<!DOCTYPE svg PUBLIC "-//W3C//DTD SVG 1.1//EN" "http://www.w3.org/Graphics/SVG/1.1/DTD/svg11.dtd">
<svg width="1280px" height="720px" viewBox="0 0 1280 720" version="1.1" xmlns="http://www.w3.org/2000/svg">
<g id="#ffffffff">
<path fill="#ffffff" opacity="1.00" d=" M 0.00 0.00 L 1280.00 0.00 L 1280.00 720.00 L 0.00 720.00 L 0.00 0.00 M 282.45 263.67 C 262.45 266.92 243.65 276.99 229.95 291.92 C 216.54 306.37 207.99 325.30 206.27 344.96 C 204.20 365.08 209.25 385.83 220.19 402.83 C 232.77 422.59 253.19 437.16 275.99 442.56 C 286.12 445.11 296.64 445.32 307.02 445.20 C 374.03 445.27 441.03 444.97 508.03 444.85 C 659.02 444.80 810.01 444.56 961.00 444.41 C 974.01 444.30 987.24 445.13 999.96 441.84 C 1028.21 435.30 1052.41 414.08 1062.88 387.08 C 1073.71 360.07 1070.49 327.92 1054.29 303.71 C 1038.62 279.60 1010.81 263.90 982.02 263.33 C 961.00 263.09 939.97 263.22 918.95 263.19 C 837.98 263.24 757.02 262.82 676.05 262.80 C 552.69 262.74 429.33 262.58 305.97 262.43 C 298.12 262.37 290.21 262.36 282.45 263.67 Z" />
</g>
<g id="#f8af40ff">
<path fill="#f8af40" opacity="1.00" d=" M 282.45 263.67 C 290.21 262.36 298.12 262.37 305.97 262.43 C 429.33 262.58 552.69 262.74 676.05 262.80 C 757.02 262.82 837.98 263.24 918.95 263.19 C 939.97 263.22 961.00 263.09 982.02 263.33 C 1010.81 263.90 1038.62 279.60 1054.29 303.71 C 1070.49 327.92 1073.71 360.07 1062.88 387.08 C 1052.41 414.08 1028.21 435.30 999.96 441.84 C 987.24 445.13 974.01 444.30 961.00 444.41 C 810.01 444.56 659.02 444.80 508.03 444.85 C 441.03 444.97 374.03 445.27 307.02 445.20 C 296.64 445.32 286.12 445.11 275.99 442.56 C 253.19 437.16 232.77 422.59 220.19 402.83 C 209.25 385.83 204.20 365.08 206.27 344.96 C 207.99 325.30 216.54 306.37 229.95 291.92 C 243.65 276.99 262.45 266.92 282.45 263.67 Z" />
</g>
</svg>
