<?xml version="1.0" encoding="UTF-8" ?>
<!DOCTYPE svg PUBLIC "-//W3C//DTD SVG 1.1//EN" "http://www.w3.org/Graphics/SVG/1.1/DTD/svg11.dtd">
<svg width="1280px" height="720px" viewBox="0 0 1280 720" version="1.1" xmlns="http://www.w3.org/2000/svg">
<g id="#00afffff">
<path fill="#00afff" opacity="1.00" d=" M 293.08 258.11 C 309.40 257.59 325.74 258.03 342.07 257.87 C 440.02 258.28 538.00 258.18 635.97 258.30 C 750.30 258.48 864.62 258.58 978.95 258.76 C 995.53 258.63 1012.16 263.02 1026.37 271.61 C 1051.63 286.63 1068.58 314.66 1069.84 344.05 C 1071.50 369.07 1062.02 394.57 1044.49 412.48 C 1031.80 425.68 1014.97 434.82 997.00 438.26 C 987.44 440.18 977.66 440.02 967.98 440.03 C 744.97 440.23 521.95 440.50 298.94 440.74 C 278.03 441.10 257.01 434.35 240.51 421.43 C 224.94 409.44 213.40 392.27 208.30 373.29 C 202.19 350.97 204.83 326.31 215.94 305.97 C 230.78 277.85 261.28 258.85 293.08 258.11 Z" />
</g>
</svg>
