<?xml version="1.0" encoding="UTF-8" ?>
<!DOCTYPE svg PUBLIC "-//W3C//DTD SVG 1.1//EN" "http://www.w3.org/Graphics/SVG/1.1/DTD/svg11.dtd">
<svg width="1280px" height="720px" viewBox="0 0 1280 720" version="1.1" xmlns="http://www.w3.org/2000/svg">
<g id="#f8af40ff">
<path fill="#f8af40" opacity="1.00" d=" M 301.29 260.42 C 315.19 259.47 329.12 260.06 343.03 260.03 C 550.33 260.28 757.67 260.44 964.99 260.76 C 980.42 260.74 995.81 264.92 1009.00 272.96 C 1020.77 280.05 1033.65 285.72 1043.63 295.41 C 1055.36 306.38 1063.58 321.00 1066.94 336.71 C 1072.67 362.76 1065.13 390.90 1048.40 411.48 C 1032.06 432.02 1007.11 445.58 980.92 447.74 C 964.63 448.67 948.29 447.93 931.98 448.21 C 729.99 448.42 528.00 448.79 326.00 448.87 C 316.37 448.92 306.72 449.07 297.09 448.72 C 274.42 447.34 252.38 437.70 235.91 422.08 C 220.01 407.27 209.19 386.85 206.81 365.17 C 204.53 346.44 208.71 326.90 218.92 310.98 C 225.30 300.86 233.98 292.25 244.05 285.80 C 251.13 281.21 258.31 276.79 265.48 272.33 C 276.32 265.73 288.67 261.68 301.29 260.42 Z" />
</g>
</svg>
