<?xml version="1.0" encoding="UTF-8" ?>
<!DOCTYPE svg PUBLIC "-//W3C//DTD SVG 1.1//EN" "http://www.w3.org/Graphics/SVG/1.1/DTD/svg11.dtd">
<svg width="1280px" height="720px" viewBox="0 0 1280 720" version="1.1" xmlns="http://www.w3.org/2000/svg">
<g id="#f8af40ff">
<path fill="#f8af40" opacity="1.00" d=" M 288.11 263.10 C 294.07 262.60 300.05 262.51 306.03 262.61 C 420.03 262.78 534.05 262.82 648.05 262.94 C 758.04 263.33 868.04 263.14 978.04 263.38 C 997.08 263.23 1016.19 269.04 1031.60 280.28 C 1053.63 295.93 1067.85 322.03 1068.87 349.04 C 1070.57 376.43 1058.76 404.18 1037.98 422.08 C 1024.36 434.00 1007.05 441.59 989.07 443.61 C 978.08 444.65 967.03 444.10 956.02 444.24 C 742.04 444.50 528.04 444.75 314.06 444.96 C 306.69 445.13 299.33 444.98 291.96 444.76 C 269.41 443.51 247.49 433.48 231.82 417.22 C 217.11 402.25 207.88 382.00 206.30 361.07 C 204.71 342.07 209.25 322.58 219.24 306.33 C 233.77 282.19 260.07 265.72 288.11 263.10 Z" />
</g>
</svg>
