<?xml version="1.0" encoding="UTF-8" ?>
<!DOCTYPE svg PUBLIC "-//W3C//DTD SVG 1.1//EN" "http://www.w3.org/Graphics/SVG/1.1/DTD/svg11.dtd">
<svg width="1280px" height="720px" viewBox="0 0 1280 720" version="1.1" xmlns="http://www.w3.org/2000/svg">
<g id="#ffffffff">
<path fill="#ffffff" opacity="1.00" d=" M 0.00 0.00 L 1280.00 0.00 L 1280.00 720.00 L 0.00 720.00 L 0.00 0.00 M 282.41 263.68 C 256.24 267.84 232.33 284.02 218.78 306.79 C 206.69 326.72 202.84 351.41 208.13 374.10 C 212.41 393.10 223.08 410.54 237.92 423.14 C 254.19 437.16 275.52 444.99 296.97 445.16 C 326.67 445.31 356.36 445.10 386.05 445.15 C 474.04 444.76 562.06 444.87 650.06 444.76 C 751.72 444.63 853.38 444.55 955.04 444.41 C 970.70 444.12 986.71 445.64 1001.99 441.33 C 1027.95 434.64 1050.26 415.57 1061.17 391.11 C 1072.54 366.23 1071.82 336.20 1059.12 311.95 C 1046.75 287.69 1022.81 269.69 995.98 264.83 C 984.80 262.57 973.35 263.42 962.03 263.20 C 909.03 263.18 856.03 263.11 803.03 263.14 C 782.37 262.60 761.70 263.14 741.04 262.85 C 596.05 262.77 451.05 262.62 306.05 262.43 C 298.16 262.37 290.21 262.36 282.41 263.68 Z" />
</g>
<g id="#f8af40ff">
<path fill="#f8af40" opacity="1.00" d=" M 282.41 263.68 C 290.21 262.36 298.16 262.37 306.05 262.43 C 451.05 262.62 596.05 262.77 741.04 262.85 C 761.70 263.14 782.37 262.60 803.03 263.14 C 856.03 263.11 909.03 263.18 962.03 263.20 C 973.35 263.42 984.80 262.57 995.98 264.83 C 1022.81 269.69 1046.75 287.69 1059.12 311.95 C 1071.82 336.20 1072.54 366.23 1061.17 391.11 C 1050.26 415.57 1027.95 434.64 1001.99 441.33 C 986.71 445.64 970.70 444.12 955.04 444.41 C 853.38 444.55 751.72 444.63 650.06 444.76 C 562.06 444.87 474.04 444.76 386.05 445.15 C 356.36 445.10 326.67 445.31 296.97 445.16 C 275.52 444.99 254.19 437.16 237.92 423.14 C 223.08 410.54 212.41 393.10 208.13 374.10 C 202.84 351.41 206.69 326.72 218.78 306.79 C 232.33 284.02 256.24 267.84 282.41 263.68 Z" />
</g>
</svg>
