<?xml version="1.0" encoding="UTF-8" ?>
<!DOCTYPE svg PUBLIC "-//W3C//DTD SVG 1.1//EN" "http://www.w3.org/Graphics/SVG/1.1/DTD/svg11.dtd">
<svg width="1280px" height="720px" viewBox="0 0 1280 720" version="1.1" xmlns="http://www.w3.org/2000/svg">
<g id="#f8af40ff">
<path fill="#f8af40" opacity="1.00" d=" M 288.11 263.10 C 298.37 262.20 308.68 262.78 318.96 262.65 C 427.99 262.77 537.03 262.81 646.06 262.95 C 751.70 263.28 857.36 263.19 963.01 263.34 C 973.29 263.54 983.67 262.86 993.85 264.63 C 1020.98 268.85 1045.50 286.51 1058.32 310.76 C 1071.81 335.56 1072.59 366.73 1060.49 392.22 C 1049.03 417.08 1025.61 436.10 998.83 441.92 C 986.13 445.03 972.95 444.07 960.01 444.24 C 764.66 444.43 569.30 444.76 373.95 444.87 C 353.61 444.70 333.28 445.31 312.94 444.93 C 302.57 445.01 292.11 445.41 281.86 443.59 C 260.83 440.05 241.23 428.81 227.51 412.49 C 214.24 396.90 206.49 376.70 206.04 356.22 C 205.42 336.35 211.52 316.30 223.30 300.26 C 238.29 279.37 262.53 265.54 288.11 263.10 Z" />
</g>
</svg>
