<?xml version="1.0" encoding="UTF-8" ?>
<!DOCTYPE svg PUBLIC "-//W3C//DTD SVG 1.1//EN" "http://www.w3.org/Graphics/SVG/1.1/DTD/svg11.dtd">
<svg width="1280px" height="720px" viewBox="0 0 1280 720" version="1.1" xmlns="http://www.w3.org/2000/svg">
<g id="#ffffffff">
<path fill="#ffffff" opacity="1.00" d=" M 0.00 0.00 L 1280.00 0.00 L 1280.00 720.00 L 0.00 720.00 L 0.00 0.00 M 278.49 265.71 C 261.89 267.96 244.84 273.66 232.94 285.95 C 228.10 290.94 224.66 297.21 222.99 303.96 C 218.27 321.91 213.57 339.86 208.90 357.83 C 206.82 365.33 207.73 373.42 210.73 380.55 C 216.17 393.67 227.09 403.67 238.78 411.29 C 262.85 426.55 291.65 433.46 319.99 433.29 C 409.00 433.28 498.02 433.09 587.02 433.11 C 611.34 432.64 635.68 432.99 660.02 432.85 C 739.36 432.86 818.70 432.73 898.03 432.70 C 920.38 432.45 942.73 433.00 965.06 432.38 C 992.58 430.61 1020.26 422.26 1042.53 405.64 C 1053.84 396.96 1064.08 385.35 1066.88 370.97 C 1068.27 364.29 1066.76 357.53 1064.76 351.15 C 1060.00 334.58 1055.31 318.00 1050.54 301.44 C 1048.78 295.28 1045.31 289.70 1040.81 285.18 C 1031.45 275.81 1018.73 270.57 1005.95 267.85 C 990.19 264.35 973.96 265.58 957.95 265.35 C 880.96 265.24 803.97 265.17 726.98 265.16 C 702.00 265.02 677.01 265.35 652.04 264.88 C 536.03 264.81 420.02 264.74 304.00 264.59 C 295.49 264.61 286.93 264.45 278.49 265.71 Z" />
</g>
<g id="#f8af40ff">
<path fill="#f8af40" opacity="1.00" d=" M 278.49 265.71 C 286.93 264.45 295.49 264.61 304.00 264.59 C 420.02 264.74 536.03 264.81 652.04 264.88 C 677.01 265.35 702.00 265.02 726.98 265.16 C 803.97 265.17 880.96 265.24 957.95 265.35 C 973.96 265.58 990.19 264.35 1005.95 267.85 C 1018.73 270.57 1031.45 275.81 1040.81 285.18 C 1045.31 289.70 1048.78 295.28 1050.54 301.44 C 1055.31 318.00 1060.00 334.58 1064.76 351.15 C 1066.76 357.53 1068.27 364.29 1066.88 370.97 C 1064.08 385.35 1053.84 396.96 1042.53 405.64 C 1020.26 422.26 992.58 430.61 965.06 432.38 C 942.73 433.00 920.38 432.45 898.03 432.70 C 818.70 432.73 739.36 432.86 660.02 432.85 C 635.68 432.99 611.34 432.64 587.02 433.11 C 498.02 433.09 409.00 433.28 319.99 433.29 C 291.65 433.46 262.85 426.55 238.78 411.29 C 227.09 403.67 216.17 393.67 210.73 380.55 C 207.73 373.42 206.82 365.33 208.90 357.83 C 213.57 339.86 218.27 321.91 222.99 303.96 C 224.66 297.21 228.10 290.94 232.94 285.95 C 244.84 273.66 261.89 267.96 278.49 265.71 Z" />
</g>
</svg>
