<?xml version="1.0" encoding="UTF-8" ?>
<!DOCTYPE svg PUBLIC "-//W3C//DTD SVG 1.1//EN" "http://www.w3.org/Graphics/SVG/1.1/DTD/svg11.dtd">
<svg width="1280px" height="720px" viewBox="0 0 1280 720" version="1.1" xmlns="http://www.w3.org/2000/svg">
<g id="#ffffffff">
<path fill="#ffffff" opacity="1.00" d=" M 0.00 0.00 L 1280.00 0.00 L 1280.00 720.00 L 0.00 720.00 L 0.00 0.00 M 288.26 254.27 C 266.34 257.43 245.68 268.33 230.55 284.47 C 215.21 300.72 205.61 322.59 205.27 345.04 C 204.68 364.46 211.29 384.04 223.72 399.00 C 231.86 409.24 242.74 416.99 254.64 422.29 L 248.77 420.03 C 252.89 423.09 257.28 425.76 261.50 428.67 C 272.35 436.11 285.03 440.72 298.04 442.46 C 309.64 443.72 321.31 443.07 332.95 443.20 C 363.29 443.23 393.64 443.12 423.99 443.15 C 509.62 442.76 595.29 442.86 680.94 442.76 C 775.64 442.65 870.34 442.57 965.04 442.44 C 974.48 442.42 983.95 441.06 992.91 438.05 C 1004.45 434.33 1014.43 427.20 1024.62 420.87 C 1012.25 426.55 998.70 429.74 985.06 429.60 C 945.04 429.70 905.03 429.69 865.01 429.71 C 818.75 429.66 772.49 430.02 726.24 429.64 C 812.80 429.29 899.38 429.49 985.95 429.29 C 1001.21 429.22 1016.38 425.15 1029.71 417.74 C 1043.51 409.94 1054.75 397.77 1061.71 383.55 C 1073.95 358.79 1071.98 328.30 1058.59 304.42 C 1043.19 276.25 1013.10 256.72 981.06 254.36 C 964.38 253.41 947.66 254.11 930.97 253.85 C 725.66 253.77 520.35 253.36 315.04 253.20 C 306.11 253.28 297.11 252.83 288.26 254.27 Z" />
</g>
<g id="#00afffff">
<path fill="#00afff" opacity="1.00" d=" M 288.26 254.27 C 297.11 252.83 306.11 253.28 315.04 253.20 C 520.35 253.36 725.66 253.77 930.97 253.85 C 947.66 254.11 964.38 253.41 981.06 254.36 C 1013.10 256.72 1043.19 276.25 1058.59 304.42 C 1071.98 328.30 1073.95 358.79 1061.71 383.55 C 1054.75 397.77 1043.51 409.94 1029.71 417.74 C 1016.38 425.15 1001.21 429.22 985.95 429.29 C 899.38 429.49 812.80 429.29 726.24 429.64 C 642.83 429.64 559.42 429.73 476.01 429.77 C 452.01 430.03 428.00 429.37 404.02 430.20 C 372.68 430.13 341.34 430.23 310.00 430.21 C 291.32 430.49 271.89 430.48 254.64 422.29 C 242.74 416.99 231.86 409.24 223.72 399.00 C 211.29 384.04 204.68 364.46 205.27 345.04 C 205.61 322.59 215.21 300.72 230.55 284.47 C 245.68 268.33 266.34 257.43 288.26 254.27 Z" />
</g>
<g id="#f8af40ff">
<path fill="#f8af40" opacity="1.00" d=" M 248.77 420.03 L 254.64 422.29 C 271.89 430.48 291.32 430.49 310.00 430.21 C 341.34 430.23 372.68 430.13 404.02 430.20 C 428.00 429.37 452.01 430.03 476.01 429.77 C 559.42 429.73 642.83 429.64 726.24 429.64 C 772.49 430.02 818.75 429.66 865.01 429.71 C 905.03 429.69 945.04 429.70 985.06 429.60 C 998.70 429.74 1012.25 426.55 1024.62 420.87 C 1014.43 427.20 1004.45 434.33 992.91 438.05 C 983.95 441.06 974.48 442.42 965.04 442.44 C 870.34 442.57 775.64 442.65 680.94 442.76 C 595.29 442.86 509.62 442.76 423.99 443.15 C 393.64 443.12 363.29 443.23 332.95 443.20 C 321.31 443.07 309.64 443.72 298.04 442.46 C 285.03 440.72 272.35 436.11 261.50 428.67 C 257.28 425.76 252.89 423.09 248.77 420.03 Z" />
</g>
</svg>
