<?xml version="1.0" encoding="UTF-8" ?>
<!DOCTYPE svg PUBLIC "-//W3C//DTD SVG 1.1//EN" "http://www.w3.org/Graphics/SVG/1.1/DTD/svg11.dtd">
<svg width="1280px" height="720px" viewBox="0 0 1280 720" version="1.1" xmlns="http://www.w3.org/2000/svg">
<g id="#ffffffff">
<path fill="#ffffff" opacity="1.00" d=" M 0.00 0.00 L 1280.00 0.00 L 1280.00 720.00 L 0.00 720.00 L 0.00 0.00 M 285.56 257.85 C 268.27 260.00 251.64 267.20 238.24 278.35 C 221.69 291.95 210.20 311.54 206.43 332.63 C 203.12 351.27 205.57 370.99 213.81 388.08 C 223.62 408.87 241.69 425.54 263.14 433.77 C 276.41 439.02 290.86 440.57 305.04 439.93 C 313.04 439.78 321.04 439.91 329.04 439.87 C 537.05 439.79 745.05 439.49 953.05 439.27 C 964.36 439.13 975.69 439.60 986.99 438.91 C 1013.76 437.22 1039.22 422.50 1054.27 400.33 C 1069.72 378.15 1074.13 348.90 1066.36 323.06 C 1058.43 295.64 1036.78 272.67 1009.85 263.22 C 997.47 258.60 984.15 257.56 971.05 257.80 C 750.68 257.70 530.32 257.23 309.96 257.16 C 301.83 257.19 293.65 256.83 285.56 257.85 Z" />
</g>
<g id="#00afffff">
<path fill="#00afff" opacity="1.00" d=" M 285.56 257.85 C 293.65 256.83 301.83 257.19 309.96 257.16 C 530.32 257.23 750.68 257.70 971.05 257.80 C 984.15 257.56 997.47 258.60 1009.85 263.22 C 1036.78 272.67 1058.43 295.64 1066.36 323.06 C 1074.13 348.90 1069.72 378.15 1054.27 400.33 C 1039.22 422.50 1013.76 437.22 986.99 438.91 C 975.69 439.60 964.36 439.13 953.05 439.27 C 745.05 439.49 537.05 439.79 329.04 439.87 C 321.04 439.91 313.04 439.78 305.04 439.93 C 290.86 440.57 276.41 439.02 263.14 433.77 C 241.69 425.54 223.62 408.87 213.81 388.08 C 205.57 370.99 203.12 351.27 206.43 332.63 C 210.20 311.54 221.69 291.95 238.24 278.35 C 251.64 267.20 268.27 260.00 285.56 257.85 Z" />
</g>
</svg>
