<?xml version="1.0" encoding="UTF-8" ?>
<!DOCTYPE svg PUBLIC "-//W3C//DTD SVG 1.1//EN" "http://www.w3.org/Graphics/SVG/1.1/DTD/svg11.dtd">
<svg width="1280px" height="720px" viewBox="0 0 1280 720" version="1.1" xmlns="http://www.w3.org/2000/svg">
<g id="#ffffffff">
<path fill="#ffffff" opacity="1.00" d=" M 0.00 0.00 L 1280.00 0.00 L 1280.00 720.00 L 0.00 720.00 L 0.00 0.00 M 282.41 263.68 C 263.83 266.73 246.22 275.59 232.89 288.91 C 217.78 303.68 208.11 323.91 206.27 344.97 C 204.10 366.04 209.75 387.78 221.77 405.20 C 234.41 423.76 254.10 437.36 275.95 442.54 C 284.13 444.61 292.60 445.16 301.01 445.22 C 357.35 445.12 413.69 445.25 470.02 444.87 C 627.33 444.82 784.64 444.63 941.95 444.41 C 955.99 444.28 970.04 444.67 984.08 444.18 C 1013.51 442.78 1041.45 425.64 1056.38 400.29 C 1071.78 374.90 1073.44 341.84 1060.64 315.04 C 1049.03 289.95 1025.25 270.87 998.15 265.27 C 986.29 262.52 974.06 263.40 962.00 263.20 C 911.33 263.18 860.67 263.13 810.01 263.13 C 764.35 262.72 718.68 262.93 673.02 262.80 C 550.67 262.74 428.33 262.58 305.98 262.43 C 298.12 262.37 290.19 262.36 282.41 263.68 Z" />
</g>
<g id="#f8af40ff">
<path fill="#f8af40" opacity="1.00" d=" M 282.41 263.68 C 290.19 262.36 298.12 262.37 305.98 262.43 C 428.33 262.58 550.67 262.74 673.02 262.80 C 718.68 262.93 764.35 262.72 810.01 263.13 C 860.67 263.13 911.33 263.18 962.00 263.20 C 974.06 263.40 986.29 262.52 998.15 265.27 C 1025.25 270.87 1049.03 289.95 1060.64 315.04 C 1073.44 341.84 1071.78 374.90 1056.38 400.29 C 1041.45 425.64 1013.51 442.78 984.08 444.18 C 970.04 444.67 955.99 444.28 941.95 444.41 C 784.64 444.63 627.33 444.82 470.02 444.87 C 413.69 445.25 357.35 445.12 301.01 445.22 C 292.60 445.16 284.13 444.61 275.95 442.54 C 254.10 437.36 234.41 423.76 221.77 405.20 C 209.75 387.78 204.10 366.04 206.27 344.97 C 208.11 323.91 217.78 303.68 232.89 288.91 C 246.22 275.59 263.83 266.73 282.41 263.68 Z" />
</g>
</svg>
