<?xml version="1.0" encoding="UTF-8" ?>
<!DOCTYPE svg PUBLIC "-//W3C//DTD SVG 1.1//EN" "http://www.w3.org/Graphics/SVG/1.1/DTD/svg11.dtd">
<svg width="1280px" height="720px" viewBox="0 0 1280 720" version="1.1" xmlns="http://www.w3.org/2000/svg">
<g id="#f8af40ff">
<path fill="#f8af40" opacity="1.00" d=" M 288.06 263.10 C 297.66 262.24 307.31 262.74 316.94 262.65 C 381.31 262.66 445.67 262.80 510.04 262.82 C 613.69 262.76 717.31 263.21 820.96 263.22 C 872.97 263.27 924.98 263.26 977.00 263.37 C 986.75 263.34 996.55 264.52 1005.88 267.44 C 1033.11 275.70 1055.60 297.79 1064.39 324.86 C 1072.64 349.33 1069.81 377.30 1056.65 399.54 C 1042.18 424.65 1014.92 441.94 985.95 443.85 C 973.64 444.62 961.30 444.07 948.98 444.24 C 841.32 444.36 733.67 444.51 626.02 444.62 C 526.67 444.84 427.31 444.69 327.98 444.99 C 315.98 444.91 303.97 445.20 291.98 444.76 C 269.42 443.52 247.48 433.48 231.80 417.20 C 217.09 402.21 207.85 381.94 206.30 360.99 C 204.50 339.60 210.56 317.61 223.28 300.28 C 238.26 279.39 262.48 265.56 288.06 263.10 Z" />
</g>
</svg>
