<?xml version="1.0" encoding="UTF-8" ?>
<!DOCTYPE svg PUBLIC "-//W3C//DTD SVG 1.1//EN" "http://www.w3.org/Graphics/SVG/1.1/DTD/svg11.dtd">
<svg width="1280px" height="720px" viewBox="0 0 1280 720" version="1.1" xmlns="http://www.w3.org/2000/svg">
<g id="#ffffffff">
<path fill="#ffffff" opacity="1.00" d=" M 0.00 0.00 L 1280.00 0.00 L 1280.00 720.00 L 0.00 720.00 L 0.00 0.00 M 282.46 263.67 C 257.95 267.58 235.37 281.96 221.50 302.55 C 210.46 318.69 204.94 338.49 205.93 358.01 C 206.79 378.38 214.86 398.34 228.32 413.64 C 241.13 428.43 258.83 438.89 277.96 443.01 C 287.80 445.24 297.95 445.29 307.99 445.20 C 369.65 445.27 431.31 444.99 492.97 444.87 C 652.31 444.81 811.66 444.55 971.00 444.41 C 982.00 444.59 993.13 444.05 1003.74 440.85 C 1021.18 435.93 1036.94 425.47 1048.47 411.51 C 1066.63 389.81 1073.51 359.34 1066.60 331.91 C 1059.26 300.68 1033.92 274.55 1002.87 266.41 C 988.63 262.22 973.68 263.43 959.05 263.19 C 906.03 263.16 853.00 263.19 799.98 263.07 C 758.65 262.70 717.30 262.95 675.97 262.80 C 552.98 262.75 430.00 262.57 307.01 262.44 C 298.82 262.36 290.56 262.31 282.46 263.67 Z" />
</g>
<g id="#f8af40ff">
<path fill="#f8af40" opacity="1.00" d=" M 282.46 263.67 C 290.56 262.31 298.82 262.36 307.01 262.44 C 430.00 262.57 552.98 262.75 675.97 262.80 C 717.30 262.95 758.65 262.70 799.98 263.07 C 853.00 263.19 906.03 263.16 959.05 263.19 C 973.68 263.43 988.63 262.22 1002.87 266.41 C 1033.92 274.55 1059.26 300.68 1066.60 331.91 C 1073.51 359.34 1066.63 389.81 1048.47 411.51 C 1036.94 425.47 1021.18 435.93 1003.74 440.85 C 993.13 444.05 982.00 444.59 971.00 444.41 C 811.66 444.55 652.31 444.81 492.97 444.87 C 431.31 444.99 369.65 445.27 307.99 445.20 C 297.95 445.29 287.80 445.24 277.96 443.01 C 258.83 438.89 241.13 428.43 228.32 413.64 C 214.86 398.34 206.79 378.38 205.93 358.01 C 204.94 338.49 210.46 318.69 221.50 302.55 C 235.37 281.96 257.95 267.58 282.46 263.67 Z" />
</g>
</svg>
