<?xml version="1.0" encoding="UTF-8" ?>
<!DOCTYPE svg PUBLIC "-//W3C//DTD SVG 1.1//EN" "http://www.w3.org/Graphics/SVG/1.1/DTD/svg11.dtd">
<svg width="1280px" height="720px" viewBox="0 0 1280 720" version="1.1" xmlns="http://www.w3.org/2000/svg">
<g id="#ffffffff">
<path fill="#ffffff" opacity="1.00" d=" M 0.00 0.00 L 1280.00 0.00 L 1280.00 720.00 L 0.00 720.00 L 0.00 0.00 M 231.48 283.49 C 215.61 299.84 205.63 322.11 205.27 345.00 C 204.68 364.46 211.31 384.08 223.76 399.07 C 231.83 409.14 242.52 416.85 254.25 422.12 L 247.76 419.40 C 256.25 424.90 264.26 431.31 273.55 435.46 C 280.99 438.88 288.94 441.11 297.03 442.32 C 307.96 443.69 319.00 443.12 329.99 443.20 C 431.34 443.26 532.66 442.69 634.01 442.82 C 736.33 442.68 838.65 442.61 940.96 442.47 C 951.77 442.35 962.60 442.79 973.40 442.08 C 985.80 440.95 998.04 437.25 1008.70 430.75 C 1014.40 427.26 1020.18 423.91 1025.78 420.25 C 1013.12 426.38 999.11 429.73 985.04 429.60 C 948.36 429.71 911.69 429.68 875.01 429.71 C 825.34 429.64 775.66 430.02 725.99 429.64 C 812.65 429.29 899.32 429.49 985.99 429.30 C 1002.91 429.19 1019.75 424.23 1034.02 415.14 C 1046.40 406.90 1056.47 395.19 1062.61 381.64 C 1073.98 356.99 1071.57 327.15 1058.22 303.76 C 1042.71 275.94 1012.84 256.69 981.04 254.36 C 964.40 253.41 947.72 254.10 931.06 253.85 C 721.70 253.77 512.35 253.32 302.99 253.21 C 276.33 252.98 249.91 264.28 231.48 283.49 Z" />
</g>
<g id="#00afffff">
<path fill="#00afff" opacity="1.00" d=" M 231.48 283.49 C 249.91 264.28 276.33 252.98 302.99 253.21 C 512.35 253.32 721.70 253.77 931.06 253.85 C 947.72 254.10 964.40 253.41 981.04 254.36 C 1012.84 256.69 1042.71 275.94 1058.22 303.76 C 1071.57 327.15 1073.98 356.99 1062.61 381.64 C 1056.47 395.19 1046.40 406.90 1034.02 415.14 C 1019.75 424.23 1002.91 429.19 985.99 429.30 C 899.32 429.49 812.65 429.29 725.99 429.64 C 622.99 429.63 519.99 429.79 416.99 429.79 C 396.68 430.58 376.34 430.01 356.02 430.18 C 335.01 430.22 314.00 430.22 293.00 430.19 C 279.73 429.96 266.35 427.76 254.25 422.12 C 242.52 416.85 231.83 409.14 223.76 399.07 C 211.31 384.08 204.68 364.46 205.27 345.00 C 205.63 322.11 215.61 299.84 231.48 283.49 Z" />
</g>
<g id="#f8af40ff">
<path fill="#f8af40" opacity="1.00" d=" M 247.76 419.40 L 254.25 422.12 C 266.35 427.76 279.73 429.96 293.00 430.19 C 314.00 430.22 335.01 430.22 356.02 430.18 C 376.34 430.01 396.68 430.58 416.99 429.79 C 519.99 429.79 622.99 429.63 725.99 429.64 C 775.66 430.02 825.34 429.64 875.01 429.71 C 911.69 429.68 948.36 429.71 985.04 429.60 C 999.11 429.73 1013.12 426.38 1025.78 420.25 C 1020.18 423.91 1014.40 427.26 1008.70 430.75 C 998.04 437.25 985.80 440.95 973.40 442.08 C 962.60 442.79 951.77 442.35 940.96 442.47 C 838.65 442.61 736.33 442.68 634.01 442.82 C 532.66 442.69 431.34 443.26 329.99 443.20 C 319.00 443.12 307.96 443.69 297.03 442.32 C 288.94 441.11 280.99 438.88 273.55 435.46 C 264.26 431.31 256.25 424.90 247.76 419.40 Z" />
</g>
</svg>
