<?xml version="1.0" encoding="UTF-8" ?>
<!DOCTYPE svg PUBLIC "-//W3C//DTD SVG 1.1//EN" "http://www.w3.org/Graphics/SVG/1.1/DTD/svg11.dtd">
<svg width="1280px" height="720px" viewBox="0 0 1280 720" version="1.1" xmlns="http://www.w3.org/2000/svg">
<g id="#f8af40ff">
<path fill="#f8af40" opacity="1.00" d=" M 288.07 263.10 C 293.70 262.63 299.36 262.52 305.00 262.60 C 424.67 262.81 544.34 262.78 664.00 262.98 C 762.99 263.30 862.00 263.20 961.00 263.32 C 969.01 263.51 977.03 263.15 985.04 263.64 C 1015.20 265.23 1043.67 283.50 1057.95 310.07 C 1071.77 334.97 1072.70 366.44 1060.52 392.15 C 1049.07 417.04 1025.66 436.07 998.88 441.92 C 986.15 445.03 972.95 444.07 959.98 444.24 C 751.98 444.47 543.97 444.75 335.98 444.92 C 327.65 445.40 319.32 444.75 311.00 445.04 C 301.99 444.64 292.91 445.43 283.98 443.92 C 261.68 440.74 240.81 428.85 226.60 411.40 C 212.11 393.85 204.60 370.68 206.20 347.97 C 207.27 328.24 215.19 308.99 228.17 294.11 C 243.21 276.63 265.13 265.33 288.07 263.10 Z" />
</g>
</svg>
