<?xml version="1.0" encoding="UTF-8" ?>
<!DOCTYPE svg PUBLIC "-//W3C//DTD SVG 1.1//EN" "http://www.w3.org/Graphics/SVG/1.1/DTD/svg11.dtd">
<svg width="1280px" height="720px" viewBox="0 0 1280 720" version="1.1" xmlns="http://www.w3.org/2000/svg">
<g id="#ffffffff">
<path fill="#ffffff" opacity="1.00" d=" M 0.00 0.00 L 1280.00 0.00 L 1280.00 720.00 L 0.00 720.00 L 0.00 0.00 M 301.35 260.30 C 287.63 261.49 274.35 266.34 262.81 273.80 C 254.11 279.41 245.01 284.45 236.83 290.81 C 225.89 299.50 217.30 311.07 212.04 324.01 C 205.08 340.98 204.37 360.24 209.03 377.91 C 214.49 398.53 227.48 416.82 244.53 429.51 C 261.27 442.10 282.08 449.01 303.02 449.14 C 354.01 449.29 405.01 448.96 456.00 448.87 C 619.00 448.77 782.00 448.57 945.00 448.33 C 956.67 448.18 968.37 448.69 980.03 447.97 C 1009.75 445.88 1037.81 428.94 1054.00 404.01 C 1068.99 381.39 1073.51 351.63 1064.01 325.99 C 1057.65 308.49 1044.91 293.49 1028.82 284.16 C 1021.02 279.61 1013.17 275.14 1005.30 270.72 C 993.02 263.94 978.98 260.62 964.98 260.59 C 809.65 260.36 654.33 260.20 499.00 260.13 C 441.33 259.80 383.66 259.84 326.00 259.77 C 317.78 259.73 309.55 259.55 301.35 260.30 Z" />
</g>
<g id="#f8af40ff">
<path fill="#f8af40" opacity="1.00" d=" M 301.35 260.30 C 309.55 259.55 317.78 259.73 326.00 259.77 C 383.66 259.84 441.33 259.80 499.00 260.13 C 654.33 260.20 809.65 260.36 964.98 260.59 C 978.98 260.62 993.02 263.94 1005.30 270.72 C 1013.17 275.14 1021.02 279.61 1028.82 284.16 C 1044.91 293.49 1057.65 308.49 1064.01 325.99 C 1073.51 351.63 1068.99 381.39 1054.00 404.01 C 1037.81 428.94 1009.75 445.88 980.03 447.97 C 968.37 448.69 956.67 448.18 945.00 448.33 C 782.00 448.57 619.00 448.77 456.00 448.87 C 405.01 448.96 354.01 449.29 303.02 449.14 C 282.08 449.01 261.27 442.10 244.53 429.51 C 227.48 416.82 214.49 398.53 209.03 377.91 C 204.37 360.24 205.08 340.98 212.04 324.01 C 217.30 311.07 225.89 299.50 236.83 290.81 C 245.01 284.45 254.11 279.41 262.81 273.80 C 274.35 266.34 287.63 261.49 301.35 260.30 Z" />
</g>
</svg>
