<?xml version="1.0" encoding="UTF-8" ?>
<!DOCTYPE svg PUBLIC "-//W3C//DTD SVG 1.1//EN" "http://www.w3.org/Graphics/SVG/1.1/DTD/svg11.dtd">
<svg width="1280px" height="720px" viewBox="0 0 1280 720" version="1.1" xmlns="http://www.w3.org/2000/svg">
<g id="#ffffffff">
<path fill="#ffffff" opacity="1.00" d=" M 0.00 0.00 L 1280.00 0.00 L 1280.00 720.00 L 0.00 720.00 L 0.00 0.00 M 287.49 255.86 C 263.57 258.74 241.02 271.31 225.89 290.05 C 212.67 306.23 204.94 327.02 205.14 347.97 C 204.83 367.97 211.80 387.96 224.34 403.52 C 238.40 421.25 259.56 433.13 282.00 435.99 C 286.97 436.74 292.01 436.42 297.02 436.63 C 521.69 436.50 746.35 436.28 971.01 436.21 C 975.66 436.10 980.34 436.50 984.96 435.72 C 999.72 436.05 1014.35 431.49 1027.06 424.14 C 1048.56 411.71 1064.13 389.57 1068.51 365.12 C 1073.83 337.42 1065.19 307.59 1046.14 286.84 C 1028.63 267.08 1002.44 255.64 976.07 255.85 C 751.40 255.71 526.72 255.27 302.05 255.16 C 297.19 255.18 292.31 255.20 287.49 255.86 Z" />
</g>
<g id="#00afffff">
<path fill="#00afff" opacity="1.00" d=" M 287.49 255.86 C 292.31 255.20 297.19 255.18 302.05 255.16 C 526.72 255.27 751.40 255.71 976.07 255.85 C 1002.44 255.64 1028.63 267.08 1046.14 286.84 C 1065.19 307.59 1073.83 337.42 1068.51 365.12 C 1064.13 389.57 1048.56 411.71 1027.06 424.14 C 1014.35 431.49 999.72 436.05 984.96 435.72 C 980.34 436.50 975.66 436.10 971.01 436.21 C 746.35 436.28 521.69 436.50 297.02 436.63 C 292.01 436.42 286.97 436.74 282.00 435.99 C 259.56 433.13 238.40 421.25 224.34 403.52 C 211.80 387.96 204.83 367.97 205.14 347.97 C 204.94 327.02 212.67 306.23 225.89 290.05 C 241.02 271.31 263.57 258.74 287.49 255.86 Z" />
</g>
</svg>
