<?xml version="1.0" encoding="UTF-8" ?>
<!DOCTYPE svg PUBLIC "-//W3C//DTD SVG 1.1//EN" "http://www.w3.org/Graphics/SVG/1.1/DTD/svg11.dtd">
<svg width="1280px" height="720px" viewBox="0 0 1280 720" version="1.1" xmlns="http://www.w3.org/2000/svg">
<g id="#ffffffff">
<path fill="#ffffff" opacity="1.00" d=" M 0.00 0.00 L 1280.00 0.00 L 1280.00 720.00 L 0.00 720.00 L 0.00 0.00 M 282.43 263.68 C 263.83 266.72 246.20 275.61 232.85 288.94 C 217.52 303.95 207.79 324.60 206.18 346.02 C 203.95 370.09 212.02 394.87 227.86 413.11 C 240.91 428.41 259.15 439.16 278.84 443.20 C 290.71 445.76 302.91 445.13 314.97 445.20 C 345.32 445.18 375.68 445.16 406.03 445.12 C 422.69 444.61 439.35 445.54 456.01 444.88 C 626.01 444.84 796.00 444.58 965.99 444.40 C 977.02 444.42 988.22 444.73 999.02 442.06 C 1027.15 435.87 1051.44 415.14 1062.30 388.51 C 1073.80 361.22 1070.80 328.37 1054.31 303.74 C 1038.46 279.32 1010.17 263.57 981.02 263.30 C 930.34 263.07 879.66 263.21 828.98 263.13 C 775.96 262.87 722.93 262.84 669.91 262.80 C 548.61 262.74 427.31 262.58 306.02 262.43 C 298.15 262.37 290.21 262.36 282.43 263.68 Z" />
</g>
<g id="#f8af40ff">
<path fill="#f8af40" opacity="1.00" d=" M 282.43 263.68 C 290.21 262.36 298.15 262.37 306.02 262.43 C 427.31 262.58 548.61 262.74 669.91 262.80 C 722.93 262.84 775.96 262.87 828.98 263.13 C 879.66 263.21 930.34 263.07 981.02 263.30 C 1010.17 263.57 1038.46 279.32 1054.31 303.74 C 1070.80 328.37 1073.80 361.22 1062.30 388.51 C 1051.44 415.14 1027.15 435.87 999.02 442.06 C 988.22 444.73 977.02 444.42 965.99 444.40 C 796.00 444.58 626.01 444.84 456.01 444.88 C 439.35 445.54 422.69 444.61 406.03 445.12 C 375.68 445.16 345.32 445.18 314.97 445.20 C 302.91 445.13 290.71 445.76 278.84 443.20 C 259.15 439.16 240.91 428.41 227.86 413.11 C 212.02 394.87 203.95 370.09 206.18 346.02 C 207.79 324.60 217.52 303.95 232.85 288.94 C 246.20 275.61 263.83 266.72 282.43 263.68 Z" />
</g>
</svg>
