<?xml version="1.0" encoding="UTF-8" ?>
<!DOCTYPE svg PUBLIC "-//W3C//DTD SVG 1.1//EN" "http://www.w3.org/Graphics/SVG/1.1/DTD/svg11.dtd">
<svg width="1280px" height="720px" viewBox="0 0 1280 720" version="1.1" xmlns="http://www.w3.org/2000/svg">
<g id="#ffffffff">
<path fill="#ffffff" opacity="1.00" d=" M 0.00 0.00 L 1280.00 0.00 L 1280.00 720.00 L 0.00 720.00 L 0.00 0.00 M 266.02 307.14 C 251.94 308.15 237.83 309.41 223.96 312.12 C 219.68 313.11 215.04 313.80 211.57 316.72 L 211.32 316.28 C 212.81 337.52 213.39 358.83 214.52 380.10 C 214.82 383.67 214.46 387.32 215.27 390.83 C 216.52 393.34 219.58 394.14 222.00 395.11 C 232.67 398.47 243.92 399.29 255.00 400.22 C 266.34 400.86 277.69 401.24 289.05 401.21 C 319.68 401.19 350.30 401.12 380.93 401.15 C 414.28 401.27 447.61 400.78 480.95 401.11 C 547.97 400.69 615.00 400.93 682.03 400.84 C 785.66 400.83 889.30 400.74 992.93 400.70 C 1009.83 400.61 1026.81 400.11 1043.51 397.28 C 1048.56 396.20 1053.97 395.40 1058.28 392.34 C 1060.14 391.21 1059.70 388.81 1059.96 386.98 C 1061.07 364.08 1062.35 341.19 1063.38 318.29 L 1063.75 318.06 C 1062.01 315.44 1058.78 314.80 1055.99 313.95 C 1047.85 311.81 1039.48 310.76 1031.14 309.74 C 998.55 306.06 965.71 305.29 932.94 305.41 C 743.63 305.36 554.33 305.18 365.02 305.16 C 332.01 305.26 298.95 304.52 266.02 307.14 Z" />
</g>
<g id="#00afffff">
<path fill="#00afff" opacity="1.00" d=" M 266.02 307.14 C 298.95 304.52 332.01 305.26 365.02 305.16 C 554.33 305.18 743.63 305.36 932.94 305.41 C 965.71 305.29 998.55 306.06 1031.14 309.74 C 1039.48 310.76 1047.85 311.81 1055.99 313.95 C 1058.78 314.80 1062.01 315.44 1063.75 318.06 L 1063.38 318.29 C 1060.05 320.87 1055.75 321.28 1051.76 322.02 C 1034.62 324.43 1017.29 324.76 1000.01 324.75 C 790.00 324.75 579.99 324.66 369.99 324.64 C 335.97 324.58 301.96 324.77 267.95 324.52 C 252.13 324.21 236.24 323.62 220.61 320.98 C 217.50 320.11 213.11 320.11 211.57 316.72 C 215.04 313.80 219.68 313.11 223.96 312.12 C 237.83 309.41 251.94 308.15 266.02 307.14 Z" />
</g>
<g id="#f8af40ff">
<path fill="#f8af40" opacity="1.00" d=" M 211.32 316.28 L 211.57 316.72 C 213.11 320.11 217.50 320.11 220.61 320.98 C 236.24 323.62 252.13 324.21 267.95 324.52 C 301.96 324.77 335.97 324.58 369.99 324.64 C 579.99 324.66 790.00 324.75 1000.01 324.75 C 1017.29 324.76 1034.62 324.43 1051.76 322.02 C 1055.75 321.28 1060.05 320.87 1063.38 318.29 C 1062.35 341.19 1061.07 364.08 1059.96 386.98 C 1059.70 388.81 1060.14 391.21 1058.28 392.34 C 1053.97 395.40 1048.56 396.20 1043.51 397.28 C 1026.81 400.11 1009.83 400.61 992.93 400.70 C 889.30 400.74 785.66 400.83 682.03 400.84 C 615.00 400.93 547.97 400.69 480.95 401.11 C 447.61 400.78 414.28 401.27 380.93 401.15 C 350.30 401.12 319.68 401.19 289.05 401.21 C 277.69 401.24 266.34 400.86 255.00 400.22 C 243.92 399.29 232.67 398.47 222.00 395.11 C 219.58 394.14 216.52 393.34 215.27 390.83 C 214.46 387.32 214.82 383.67 214.52 380.10 C 213.39 358.83 212.81 337.52 211.32 316.28 Z" />
</g>
</svg>
