<?xml version="1.0" encoding="UTF-8" ?>
<!DOCTYPE svg PUBLIC "-//W3C//DTD SVG 1.1//EN" "http://www.w3.org/Graphics/SVG/1.1/DTD/svg11.dtd">
<svg width="1280px" height="720px" viewBox="0 0 1280 720" version="1.1" xmlns="http://www.w3.org/2000/svg">
<g id="#ffffffff">
<path fill="#ffffff" opacity="1.00" d=" M 0.00 0.00 L 1280.00 0.00 L 1280.00 720.00 L 0.00 720.00 L 0.00 0.00 M 278.47 265.70 C 266.23 267.35 254.06 270.88 243.51 277.42 C 234.04 283.24 225.99 292.13 223.23 303.10 C 218.33 321.74 213.39 340.37 208.62 359.04 C 205.02 374.33 213.45 389.48 224.21 399.79 C 243.15 417.81 268.70 427.38 294.17 431.45 C 310.00 434.07 326.09 433.11 342.05 433.29 C 431.70 433.11 521.36 433.35 610.99 432.87 C 718.01 432.86 825.03 432.75 932.05 432.65 C 947.69 432.46 963.44 433.40 978.96 430.95 C 997.02 428.25 1014.74 422.56 1030.64 413.50 C 1042.31 406.77 1053.22 398.05 1060.55 386.59 C 1066.10 377.87 1069.20 366.98 1066.31 356.78 C 1061.14 338.28 1055.80 319.83 1050.53 301.37 C 1046.95 288.79 1036.37 279.53 1024.87 274.13 C 1009.41 266.73 991.97 265.03 975.04 265.34 C 893.36 265.28 811.67 265.16 729.98 265.15 C 703.98 265.05 677.97 265.29 651.98 264.93 C 534.01 264.78 416.02 264.75 298.05 264.60 C 291.51 264.61 284.95 264.75 278.47 265.70 Z" />
</g>
<g id="#f8af40ff">
<path fill="#f8af40" opacity="1.00" d=" M 278.47 265.70 C 284.95 264.75 291.51 264.61 298.05 264.60 C 416.02 264.75 534.01 264.78 651.98 264.93 C 677.97 265.29 703.98 265.05 729.98 265.15 C 811.67 265.16 893.36 265.28 975.04 265.34 C 991.97 265.03 1009.41 266.73 1024.87 274.13 C 1036.37 279.53 1046.95 288.79 1050.53 301.37 C 1055.80 319.83 1061.14 338.28 1066.31 356.78 C 1069.20 366.98 1066.10 377.87 1060.55 386.59 C 1053.22 398.05 1042.31 406.77 1030.64 413.50 C 1014.74 422.56 997.02 428.25 978.96 430.95 C 963.44 433.40 947.69 432.46 932.05 432.65 C 825.03 432.75 718.01 432.86 610.99 432.87 C 521.36 433.35 431.70 433.11 342.05 433.29 C 326.09 433.11 310.00 434.07 294.17 431.45 C 268.70 427.38 243.15 417.81 224.21 399.79 C 213.45 389.48 205.02 374.33 208.62 359.04 C 213.39 340.37 218.33 321.74 223.23 303.10 C 225.99 292.13 234.04 283.24 243.51 277.42 C 254.06 270.88 266.23 267.35 278.47 265.70 Z" />
</g>
</svg>
