<?xml version="1.0" encoding="UTF-8" ?>
<!DOCTYPE svg PUBLIC "-//W3C//DTD SVG 1.1//EN" "http://www.w3.org/Graphics/SVG/1.1/DTD/svg11.dtd">
<svg width="1280px" height="720px" viewBox="0 0 1280 720" version="1.1" xmlns="http://www.w3.org/2000/svg">
<g id="#ffffffff">
<path fill="#ffffff" opacity="1.00" d=" M 0.00 0.00 L 1280.00 0.00 L 1280.00 720.00 L 0.00 720.00 L 0.00 0.00 M 282.37 263.68 C 258.88 267.46 237.14 280.83 223.21 300.12 C 211.06 316.69 204.87 337.48 205.94 357.99 C 206.79 378.84 215.25 399.26 229.26 414.71 C 244.47 431.73 266.26 442.72 289.00 444.70 C 298.65 445.54 308.35 445.09 318.02 445.20 C 367.69 445.11 417.36 445.23 467.02 444.87 C 626.02 444.82 785.02 444.62 944.02 444.41 C 956.68 444.33 969.35 444.56 982.01 444.28 C 1003.24 443.63 1024.13 435.12 1039.72 420.69 C 1060.34 402.11 1071.42 373.64 1068.88 346.02 C 1066.79 317.61 1050.17 290.81 1025.73 276.21 C 1011.76 267.68 995.40 263.23 979.06 263.26 C 926.71 263.13 874.36 263.17 822.01 263.13 C 771.02 262.84 720.02 262.86 669.02 262.80 C 548.03 262.73 427.04 262.58 306.04 262.43 C 298.15 262.37 290.18 262.36 282.37 263.68 Z" />
</g>
<g id="#f8af40ff">
<path fill="#f8af40" opacity="1.00" d=" M 282.37 263.68 C 290.18 262.36 298.15 262.37 306.04 262.43 C 427.04 262.58 548.03 262.73 669.02 262.80 C 720.02 262.86 771.02 262.84 822.01 263.13 C 874.36 263.17 926.71 263.13 979.06 263.26 C 995.40 263.23 1011.76 267.68 1025.73 276.21 C 1050.17 290.81 1066.79 317.61 1068.88 346.02 C 1071.42 373.64 1060.34 402.11 1039.72 420.69 C 1024.13 435.12 1003.24 443.63 982.01 444.28 C 969.35 444.56 956.68 444.33 944.02 444.41 C 785.02 444.62 626.02 444.82 467.02 444.87 C 417.36 445.23 367.69 445.11 318.02 445.20 C 308.35 445.09 298.65 445.54 289.00 444.70 C 266.26 442.72 244.47 431.73 229.26 414.71 C 215.25 399.26 206.79 378.84 205.94 357.99 C 204.87 337.48 211.06 316.69 223.21 300.12 C 237.14 280.83 258.88 267.46 282.37 263.68 Z" />
</g>
</svg>
