<?xml version="1.0" encoding="UTF-8" ?>
<!DOCTYPE svg PUBLIC "-//W3C//DTD SVG 1.1//EN" "http://www.w3.org/Graphics/SVG/1.1/DTD/svg11.dtd">
<svg width="1280px" height="720px" viewBox="0 0 1280 720" version="1.1" xmlns="http://www.w3.org/2000/svg">
<g id="#ffffffff">
<path fill="#ffffff" opacity="1.00" d=" M 0.00 0.00 L 1280.00 0.00 L 1280.00 720.00 L 0.00 720.00 L 0.00 0.00 M 282.47 263.67 C 263.89 266.70 246.27 275.56 232.93 288.86 C 217.57 303.86 207.82 324.52 206.18 345.94 C 204.24 366.96 210.08 388.57 222.21 405.84 C 235.26 424.66 255.60 438.24 278.00 443.02 C 289.47 445.64 301.31 445.18 312.99 445.20 C 363.65 445.10 414.32 445.30 464.97 444.87 C 628.66 444.83 792.34 444.59 956.03 444.41 C 966.01 444.28 976.01 444.71 985.97 444.04 C 1005.37 442.60 1024.21 434.60 1038.69 421.61 C 1059.71 403.25 1071.23 374.75 1068.95 346.95 C 1067.24 320.16 1052.67 294.63 1030.60 279.38 C 1015.63 268.86 997.36 263.20 979.07 263.26 C 923.04 263.13 867.01 263.16 810.98 263.13 C 764.00 262.65 717.00 262.96 670.01 262.80 C 548.66 262.74 427.31 262.58 305.95 262.43 C 298.12 262.37 290.21 262.35 282.47 263.67 Z" />
</g>
<g id="#f8af40ff">
<path fill="#f8af40" opacity="1.00" d=" M 282.47 263.67 C 290.21 262.35 298.12 262.37 305.95 262.43 C 427.31 262.58 548.66 262.74 670.01 262.80 C 717.00 262.96 764.00 262.65 810.98 263.13 C 867.01 263.16 923.04 263.13 979.07 263.26 C 997.36 263.20 1015.63 268.86 1030.60 279.38 C 1052.67 294.63 1067.24 320.16 1068.95 346.95 C 1071.23 374.75 1059.71 403.25 1038.69 421.61 C 1024.21 434.60 1005.37 442.60 985.97 444.04 C 976.01 444.71 966.01 444.28 956.03 444.41 C 792.34 444.59 628.66 444.83 464.97 444.87 C 414.32 445.30 363.65 445.10 312.99 445.20 C 301.31 445.18 289.47 445.64 278.00 443.02 C 255.60 438.24 235.26 424.66 222.21 405.84 C 210.08 388.57 204.24 366.96 206.18 345.94 C 207.82 324.52 217.57 303.86 232.93 288.86 C 246.27 275.56 263.89 266.70 282.47 263.67 Z" />
</g>
</svg>
