<?xml version="1.0" encoding="UTF-8" ?>
<!DOCTYPE svg PUBLIC "-//W3C//DTD SVG 1.1//EN" "http://www.w3.org/Graphics/SVG/1.1/DTD/svg11.dtd">
<svg width="1280px" height="720px" viewBox="0 0 1280 720" version="1.1" xmlns="http://www.w3.org/2000/svg">
<g id="#ffffffff">
<path fill="#ffffff" opacity="1.00" d=" M 0.00 0.00 L 1280.00 0.00 L 1280.00 720.00 L 0.00 720.00 L 0.00 0.00 M 294.04 254.67 C 274.03 257.21 254.76 265.43 239.17 278.23 C 223.17 291.30 210.90 309.54 207.00 330.01 C 203.63 346.58 206.27 364.40 214.89 379.01 C 219.29 386.63 225.56 392.96 232.12 398.74 C 229.15 396.75 226.70 394.12 224.25 391.55 L 224.12 392.82 C 229.15 400.10 234.16 407.41 239.35 414.58 C 252.53 432.42 274.09 442.89 295.95 444.74 C 306.93 445.65 317.96 445.09 328.96 445.25 C 385.98 445.05 443.01 445.39 500.03 444.87 C 651.68 444.87 803.33 444.61 954.97 444.47 C 963.66 444.39 972.39 444.75 981.06 443.84 C 996.67 442.18 1011.97 436.18 1023.97 425.96 C 1034.09 417.31 1040.73 405.57 1049.31 395.56 L 1048.49 394.63 C 1047.06 396.14 1045.58 397.61 1043.86 398.78 C 1047.32 395.63 1050.70 392.36 1053.90 388.93 C 1063.99 377.06 1069.50 361.53 1069.57 345.99 C 1069.61 330.15 1064.50 314.48 1055.83 301.28 C 1039.97 277.14 1013.41 260.72 985.02 256.05 C 976.43 254.46 967.67 254.58 958.98 254.60 C 841.97 254.45 724.97 254.27 607.96 254.20 C 564.98 254.05 521.99 254.37 479.02 253.88 C 427.36 253.88 375.69 253.79 324.03 253.76 C 314.03 253.80 303.99 253.46 294.04 254.67 Z" />
</g>
<g id="#00afffff">
<path fill="#00afff" opacity="1.00" d=" M 294.04 254.67 C 303.99 253.46 314.03 253.80 324.03 253.76 C 375.69 253.79 427.36 253.88 479.02 253.88 C 521.99 254.37 564.98 254.05 607.96 254.20 C 724.97 254.27 841.97 254.45 958.98 254.60 C 967.67 254.58 976.43 254.46 985.02 256.05 C 1013.41 260.72 1039.97 277.14 1055.83 301.28 C 1064.50 314.48 1069.61 330.15 1069.57 345.99 C 1069.50 361.53 1063.99 377.06 1053.90 388.93 C 1050.70 392.36 1047.32 395.63 1043.86 398.78 C 1034.22 406.30 1022.92 411.66 1010.97 414.27 C 998.89 417.30 986.35 416.54 974.01 416.64 C 875.34 416.68 776.66 416.72 677.99 416.80 C 660.34 416.96 642.67 416.42 625.03 417.20 C 515.36 417.17 405.68 417.26 296.00 417.33 C 286.36 417.44 276.62 417.12 267.17 415.02 C 254.45 412.36 242.30 406.84 232.12 398.74 C 225.56 392.96 219.29 386.63 214.89 379.01 C 206.27 364.40 203.63 346.58 207.00 330.01 C 210.90 309.54 223.17 291.30 239.17 278.23 C 254.76 265.43 274.03 257.21 294.04 254.67 Z" />
</g>
<g id="#f8af40ff">
<path fill="#f8af40" opacity="1.00" d=" M 224.12 392.82 L 224.25 391.55 C 226.70 394.12 229.15 396.75 232.12 398.74 C 242.30 406.84 254.45 412.36 267.17 415.02 C 276.62 417.12 286.36 417.44 296.00 417.33 C 405.68 417.26 515.36 417.17 625.03 417.20 C 642.67 416.42 660.34 416.96 677.99 416.80 C 776.66 416.72 875.34 416.68 974.01 416.64 C 986.35 416.54 998.89 417.30 1010.97 414.27 C 1022.92 411.66 1034.22 406.30 1043.86 398.78 C 1045.58 397.61 1047.06 396.14 1048.49 394.63 L 1049.31 395.56 C 1040.73 405.57 1034.09 417.31 1023.97 425.96 C 1011.97 436.18 996.67 442.18 981.06 443.84 C 972.39 444.75 963.66 444.39 954.97 444.47 C 803.33 444.61 651.68 444.87 500.03 444.87 C 443.01 445.39 385.98 445.05 328.96 445.25 C 317.96 445.09 306.93 445.65 295.95 444.74 C 274.09 442.89 252.53 432.42 239.35 414.58 C 234.16 407.41 229.15 400.10 224.12 392.82 Z" />
</g>
</svg>
