<?xml version="1.0" encoding="UTF-8" ?>
<!DOCTYPE svg PUBLIC "-//W3C//DTD SVG 1.1//EN" "http://www.w3.org/Graphics/SVG/1.1/DTD/svg11.dtd">
<svg width="1280px" height="720px" viewBox="0 0 1280 720" version="1.1" xmlns="http://www.w3.org/2000/svg">
<g id="#f8af40ff">
<path fill="#f8af40" opacity="1.00" d=" M 288.02 263.11 C 298.33 262.20 308.68 262.78 319.01 262.65 C 429.02 262.78 539.05 262.80 649.05 262.97 C 753.69 263.28 858.38 263.19 963.03 263.34 C 975.90 263.46 989.01 262.76 1001.56 266.24 C 1030.89 273.46 1055.52 296.71 1064.60 325.50 C 1073.48 352.35 1068.87 383.28 1052.31 406.25 C 1035.87 429.78 1007.65 444.34 978.95 444.21 C 770.98 444.42 563.01 444.79 355.03 444.87 C 336.03 445.08 317.02 445.01 298.02 444.96 C 276.25 445.09 254.51 437.25 238.00 423.02 C 223.05 410.34 212.35 392.70 208.18 373.53 C 203.11 351.07 206.93 326.68 218.86 306.95 C 233.29 282.50 259.77 265.78 288.02 263.11 Z" />
</g>
</svg>
