<?xml version="1.0" encoding="UTF-8" ?>
<!DOCTYPE svg PUBLIC "-//W3C//DTD SVG 1.1//EN" "http://www.w3.org/Graphics/SVG/1.1/DTD/svg11.dtd">
<svg width="1280px" height="720px" viewBox="0 0 1280 720" version="1.1" xmlns="http://www.w3.org/2000/svg">
<g id="#ffffffff">
<path fill="#ffffff" opacity="1.00" d=" M 0.00 0.00 L 1280.00 0.00 L 1280.00 720.00 L 0.00 720.00 L 0.00 0.00 M 268.52 288.86 C 256.07 289.83 243.49 291.35 231.68 295.59 C 226.92 297.41 221.97 299.61 218.69 303.66 C 216.53 306.27 216.66 309.80 216.37 312.98 C 214.45 334.69 212.54 356.41 210.62 378.12 C 210.18 382.75 214.50 385.79 217.94 388.02 C 229.33 394.57 242.35 397.52 255.09 400.21 C 283.34 405.83 312.24 406.99 340.98 406.60 C 533.30 406.47 725.63 406.27 917.95 406.24 C 933.98 406.02 950.01 406.59 966.03 405.74 C 985.50 404.93 1004.96 402.67 1024.03 398.57 C 1035.35 395.94 1046.86 393.04 1057.00 387.18 C 1060.53 384.91 1065.02 381.81 1064.48 377.01 C 1062.32 354.32 1060.12 331.63 1057.93 308.94 C 1057.78 304.25 1053.91 300.94 1050.13 298.82 C 1042.97 294.88 1034.89 293.02 1026.91 291.58 C 1006.46 288.05 985.63 288.85 964.97 288.75 C 742.66 288.68 520.36 288.37 298.05 288.28 C 288.21 288.22 278.34 288.17 268.52 288.86 Z" />
</g>
<g id="#f8af40ff">
<path fill="#f8af40" opacity="1.00" d=" M 268.52 288.86 C 278.34 288.17 288.21 288.22 298.05 288.28 C 520.36 288.37 742.66 288.68 964.97 288.75 C 985.63 288.85 1006.46 288.05 1026.91 291.58 C 1034.89 293.02 1042.97 294.88 1050.13 298.82 C 1053.91 300.94 1057.78 304.25 1057.93 308.94 C 1060.12 331.63 1062.32 354.32 1064.48 377.01 C 1065.02 381.81 1060.53 384.91 1057.00 387.18 C 1046.86 393.04 1035.35 395.94 1024.03 398.57 C 1004.96 402.67 985.50 404.93 966.03 405.74 C 950.01 406.59 933.98 406.02 917.95 406.24 C 725.63 406.27 533.30 406.47 340.98 406.60 C 312.24 406.99 283.34 405.83 255.09 400.21 C 242.35 397.52 229.33 394.57 217.94 388.02 C 214.50 385.79 210.18 382.75 210.62 378.12 C 212.54 356.41 214.45 334.69 216.37 312.98 C 216.66 309.80 216.53 306.27 218.69 303.66 C 221.97 299.61 226.92 297.41 231.68 295.59 C 243.49 291.35 256.07 289.83 268.52 288.86 Z" />
</g>
</svg>
