<?xml version="1.0" encoding="UTF-8" ?>
<!DOCTYPE svg PUBLIC "-//W3C//DTD SVG 1.1//EN" "http://www.w3.org/Graphics/SVG/1.1/DTD/svg11.dtd">
<svg width="1280px" height="720px" viewBox="0 0 1280 720" version="1.1" xmlns="http://www.w3.org/2000/svg">
<g id="#ffffffff">
<path fill="#ffffff" opacity="1.00" d=" M 0.00 0.00 L 1280.00 0.00 L 1280.00 720.00 L 0.00 720.00 L 0.00 0.00 M 301.36 260.28 C 286.88 261.53 272.99 266.94 260.94 274.96 C 250.73 281.61 239.72 287.33 230.97 295.97 C 215.38 310.94 206.09 332.35 206.13 353.99 C 205.55 377.95 215.65 401.63 232.30 418.70 C 248.36 435.54 270.56 446.43 293.74 448.61 C 305.13 449.59 316.58 449.10 328.00 449.15 C 383.67 449.23 439.33 448.77 495.00 448.85 C 650.00 448.75 805.00 448.54 960.00 448.33 C 967.26 448.31 974.55 448.51 981.80 447.83 C 1007.98 445.43 1032.77 431.64 1048.98 410.99 C 1065.93 389.84 1073.16 360.87 1066.58 334.41 C 1062.24 316.49 1051.39 300.34 1036.64 289.33 C 1027.57 282.80 1017.50 277.86 1007.91 272.17 C 994.42 264.12 978.65 260.33 962.99 260.55 C 812.99 260.40 663.00 260.18 513.00 260.13 C 452.34 259.91 391.67 259.78 331.00 259.80 C 321.12 259.84 311.22 259.42 301.36 260.28 Z" />
</g>
<g id="#f8af40ff">
<path fill="#f8af40" opacity="1.00" d=" M 301.36 260.28 C 311.22 259.42 321.12 259.84 331.00 259.80 C 391.67 259.78 452.34 259.91 513.00 260.13 C 663.00 260.18 812.99 260.40 962.99 260.55 C 978.65 260.33 994.42 264.12 1007.91 272.17 C 1017.50 277.86 1027.57 282.80 1036.64 289.33 C 1051.39 300.34 1062.24 316.49 1066.58 334.41 C 1073.16 360.87 1065.93 389.84 1048.98 410.99 C 1032.77 431.64 1007.98 445.43 981.80 447.83 C 974.55 448.51 967.26 448.31 960.00 448.33 C 805.00 448.54 650.00 448.75 495.00 448.85 C 439.33 448.77 383.67 449.23 328.00 449.15 C 316.58 449.10 305.13 449.59 293.74 448.61 C 270.56 446.43 248.36 435.54 232.30 418.70 C 215.65 401.63 205.55 377.95 206.13 353.99 C 206.09 332.35 215.38 310.94 230.97 295.97 C 239.72 287.33 250.73 281.61 260.94 274.96 C 272.99 266.94 286.88 261.53 301.36 260.28 Z" />
</g>
</svg>
