<?xml version="1.0" encoding="UTF-8" ?>
<!DOCTYPE svg PUBLIC "-//W3C//DTD SVG 1.1//EN" "http://www.w3.org/Graphics/SVG/1.1/DTD/svg11.dtd">
<svg width="1280px" height="720px" viewBox="0 0 1280 720" version="1.1" xmlns="http://www.w3.org/2000/svg">
<g id="#f8af40ff">
<path fill="#f8af40" opacity="1.00" d=" M 288.18 263.09 C 298.44 262.21 308.75 262.78 319.04 262.65 C 429.33 262.78 539.64 262.79 649.93 262.98 C 753.93 263.25 858.00 263.22 962.03 263.33 C 975.00 263.52 988.21 262.66 1000.89 266.07 C 1027.91 272.54 1051.16 292.50 1061.85 318.12 C 1073.02 344.06 1071.07 375.21 1056.65 399.52 C 1042.03 424.93 1014.31 442.32 984.98 443.91 C 972.65 444.59 960.29 444.08 947.94 444.24 C 741.97 444.51 535.99 444.74 330.03 444.94 C 317.36 444.96 304.68 445.28 292.00 444.75 C 269.45 443.53 247.51 433.49 231.83 417.23 C 217.09 402.23 207.84 381.92 206.29 360.95 C 204.76 342.23 209.14 323.04 218.87 306.95 C 233.32 282.45 259.87 265.72 288.18 263.09 Z" />
</g>
</svg>
