<?xml version="1.0" encoding="UTF-8" ?>
<!DOCTYPE svg PUBLIC "-//W3C//DTD SVG 1.1//EN" "http://www.w3.org/Graphics/SVG/1.1/DTD/svg11.dtd">
<svg width="1280px" height="720px" viewBox="0 0 1280 720" version="1.1" xmlns="http://www.w3.org/2000/svg">
<g id="#00afffff">
<path fill="#00afff" opacity="1.00" d=" M 212.20 312.89 C 225.04 281.63 255.50 258.75 288.89 254.28 C 298.21 252.88 307.66 253.35 317.04 253.26 C 439.38 253.39 561.71 253.61 684.05 253.73 C 781.39 253.92 878.73 253.73 976.05 254.22 C 1006.90 254.80 1036.75 271.46 1053.93 297.00 C 1070.31 320.68 1074.83 352.69 1063.48 379.42 C 1056.45 396.36 1043.28 410.52 1027.18 419.21 C 1013.90 426.07 998.97 429.62 984.02 429.41 C 801.35 429.62 618.67 429.66 435.99 429.80 C 426.33 429.90 416.65 429.52 407.00 430.18 C 380.34 430.16 353.69 430.19 327.03 430.21 C 311.35 430.03 295.64 430.75 280.00 429.38 C 267.83 427.79 256.01 423.78 245.41 417.59 C 228.11 407.30 214.70 390.54 208.91 371.22 C 203.08 352.19 204.49 331.18 212.20 312.89 Z" />
</g>
<g id="#f8af40ff">
<path fill="#f8af40" opacity="1.00" d=" M 245.41 417.59 C 256.01 423.78 267.83 427.79 280.00 429.38 C 295.64 430.75 311.35 430.03 327.03 430.21 C 353.69 430.19 380.34 430.16 407.00 430.18 C 416.65 429.52 426.33 429.90 435.99 429.80 C 618.67 429.66 801.35 429.62 984.02 429.41 C 998.97 429.62 1013.90 426.07 1027.18 419.21 C 1014.59 426.84 1002.40 435.87 987.85 439.37 C 973.92 443.29 959.32 442.10 945.04 442.29 C 745.03 442.53 545.01 442.79 345.01 442.92 C 336.69 443.46 328.36 442.63 320.04 443.10 C 310.13 443.11 300.08 443.20 290.38 440.89 C 280.56 438.79 271.14 434.83 262.73 429.33 C 256.85 425.28 250.82 421.44 244.97 417.35 L 245.41 417.59 Z" />
</g>
</svg>
