<?xml version="1.0" encoding="UTF-8" ?>
<!DOCTYPE svg PUBLIC "-//W3C//DTD SVG 1.1//EN" "http://www.w3.org/Graphics/SVG/1.1/DTD/svg11.dtd">
<svg width="1280px" height="720px" viewBox="0 0 1280 720" version="1.1" xmlns="http://www.w3.org/2000/svg">
<g id="#ffffffff">
<path fill="#ffffff" opacity="1.00" d=" M 0.00 0.00 L 1280.00 0.00 L 1280.00 720.00 L 0.00 720.00 L 0.00 0.00 M 282.45 263.67 C 259.16 267.40 237.57 280.55 223.61 299.58 C 211.20 316.23 204.86 337.26 205.94 357.99 C 206.79 378.62 215.06 398.83 228.82 414.21 C 241.92 429.08 259.98 439.45 279.40 443.32 C 290.78 445.69 302.45 445.15 313.99 445.20 C 340.98 445.23 367.97 445.10 394.96 445.16 C 477.97 444.75 561.01 444.88 644.04 444.76 C 748.70 444.65 853.36 444.54 958.02 444.41 C 971.31 444.19 984.81 445.29 997.88 442.31 C 1015.04 438.69 1031.01 429.83 1043.25 417.29 C 1061.65 398.77 1071.25 371.98 1068.88 345.99 C 1066.88 319.31 1052.13 293.99 1030.01 278.97 C 1015.14 268.70 997.10 263.21 979.05 263.26 C 928.72 263.13 878.39 263.18 828.05 263.13 C 808.70 263.33 789.35 262.68 769.99 262.94 C 614.99 262.69 459.99 262.69 304.99 262.42 C 297.46 262.39 289.88 262.40 282.45 263.67 Z" />
</g>
<g id="#f8af40ff">
<path fill="#f8af40" opacity="1.00" d=" M 282.45 263.67 C 289.88 262.40 297.46 262.39 304.99 262.42 C 459.99 262.69 614.99 262.69 769.99 262.94 C 789.35 262.68 808.70 263.33 828.05 263.13 C 878.39 263.18 928.72 263.13 979.05 263.26 C 997.10 263.21 1015.14 268.70 1030.01 278.97 C 1052.13 293.99 1066.88 319.31 1068.88 345.99 C 1071.25 371.98 1061.65 398.77 1043.25 417.29 C 1031.01 429.83 1015.04 438.69 997.88 442.31 C 984.81 445.29 971.31 444.19 958.02 444.41 C 853.36 444.54 748.70 444.65 644.04 444.76 C 561.01 444.88 477.97 444.75 394.96 445.16 C 367.97 445.10 340.98 445.23 313.99 445.20 C 302.45 445.15 290.78 445.69 279.40 443.32 C 259.98 439.45 241.92 429.08 228.82 414.21 C 215.06 398.83 206.79 378.62 205.94 357.99 C 204.86 337.26 211.20 316.23 223.61 299.58 C 237.57 280.55 259.16 267.40 282.45 263.67 Z" />
</g>
</svg>
