<?xml version="1.0" encoding="UTF-8" ?>
<!DOCTYPE svg PUBLIC "-//W3C//DTD SVG 1.1//EN" "http://www.w3.org/Graphics/SVG/1.1/DTD/svg11.dtd">
<svg width="1280px" height="720px" viewBox="0 0 1280 720" version="1.1" xmlns="http://www.w3.org/2000/svg">
<g id="#00afffff">
<path fill="#00afff" opacity="1.00" d=" M 219.42 300.15 C 238.24 271.60 272.04 254.35 306.02 253.90 C 347.69 253.80 389.36 253.87 431.02 254.10 C 609.99 254.22 788.97 254.46 967.95 254.72 C 999.10 254.70 1030.03 269.07 1049.80 293.20 C 1059.80 305.39 1066.79 320.23 1068.80 335.92 C 1070.85 350.57 1068.14 365.93 1060.81 378.81 C 1058.13 383.65 1054.65 387.97 1051.31 392.36 C 1050.40 393.40 1049.62 394.67 1048.33 395.28 C 1047.20 395.66 1046.61 396.46 1046.56 397.67 C 1046.37 397.87 1045.97 398.28 1045.78 398.48 C 1041.65 399.77 1038.53 402.83 1034.84 404.92 C 1021.06 413.04 1004.95 416.74 989.03 416.63 C 872.02 416.66 755.01 416.78 638.00 416.79 C 614.69 417.56 591.35 417.01 568.03 417.18 C 483.69 417.24 399.35 417.23 315.01 417.33 C 301.69 417.13 288.30 417.94 275.03 416.39 C 260.02 414.47 245.37 408.91 233.32 399.67 C 230.06 397.19 227.25 394.17 223.94 391.75 C 216.08 382.31 209.77 371.23 207.26 359.09 C 202.83 338.84 208.06 317.26 219.42 300.15 Z" />
</g>
<g id="#f8af40ff">
<path fill="#f8af40" opacity="1.00" d=" M 223.94 391.75 C 227.25 394.17 230.06 397.19 233.32 399.67 C 245.37 408.91 260.02 414.47 275.03 416.39 C 288.30 417.94 301.69 417.13 315.01 417.33 C 399.35 417.23 483.69 417.24 568.03 417.18 C 591.35 417.01 614.69 417.56 638.00 416.79 C 755.01 416.78 872.02 416.66 989.03 416.63 C 1004.95 416.74 1021.06 413.04 1034.84 404.92 C 1038.53 402.83 1041.65 399.77 1045.78 398.48 L 1046.66 398.13 C 1042.98 403.83 1038.55 409.00 1034.55 414.47 C 1020.21 433.96 995.83 444.14 972.02 444.24 C 770.34 444.57 568.65 444.72 366.97 444.95 C 345.63 444.89 324.27 445.40 302.93 444.96 C 282.48 444.68 261.72 437.38 246.93 422.98 C 240.14 416.56 235.32 408.49 229.94 400.96 C 227.91 397.90 225.49 395.09 223.94 391.75 Z" />
<path fill="#f8af40" opacity="1.00" d=" M 1046.56 397.67 C 1046.61 396.46 1047.20 395.66 1048.33 395.28 L 1048.55 396.12 C 1048.16 396.57 1047.39 397.46 1047.00 397.91 L 1046.56 397.67 Z" />
</g>
</svg>
