<?xml version="1.0" encoding="UTF-8" ?>
<!DOCTYPE svg PUBLIC "-//W3C//DTD SVG 1.1//EN" "http://www.w3.org/Graphics/SVG/1.1/DTD/svg11.dtd">
<svg width="1280px" height="720px" viewBox="0 0 1280 720" version="1.1" xmlns="http://www.w3.org/2000/svg">
<g id="#f8af40ff">
<path fill="#f8af40" opacity="1.00" d=" M 288.08 263.10 C 297.68 262.24 307.33 262.74 316.96 262.65 C 383.31 262.66 449.66 262.81 516.01 262.82 C 606.35 262.76 696.65 263.19 786.99 263.18 C 844.66 263.24 902.33 263.29 960.00 263.31 C 973.84 263.59 987.96 262.49 1001.47 266.22 C 1030.87 273.42 1055.55 296.71 1064.62 325.57 C 1073.49 352.42 1068.85 383.34 1052.28 406.29 C 1035.86 429.77 1007.70 444.31 979.06 444.21 C 778.05 444.42 577.04 444.75 376.03 444.87 C 349.34 444.81 322.66 445.22 295.98 444.92 C 272.04 444.64 248.39 434.45 231.79 417.19 C 219.15 404.31 210.58 387.57 207.41 369.82 C 203.56 348.39 207.58 325.57 218.89 306.91 C 233.33 282.47 259.82 265.76 288.08 263.10 Z" />
</g>
</svg>
