<?xml version="1.0" encoding="UTF-8" ?>
<!DOCTYPE svg PUBLIC "-//W3C//DTD SVG 1.1//EN" "http://www.w3.org/Graphics/SVG/1.1/DTD/svg11.dtd">
<svg width="1280px" height="720px" viewBox="0 0 1280 720" version="1.1" xmlns="http://www.w3.org/2000/svg">
<g id="#f8af40ff">
<path fill="#f8af40" opacity="1.00" d=" M 294.38 257.55 C 300.89 257.03 307.42 257.20 313.94 257.18 C 531.62 257.25 749.29 257.78 966.97 257.84 C 982.61 257.57 998.64 259.97 1012.56 267.47 C 1022.91 272.93 1031.87 281.04 1038.13 290.96 C 1045.21 302.17 1052.36 313.33 1059.34 324.61 C 1068.01 338.60 1070.46 356.04 1066.76 372.02 C 1061.79 394.85 1046.17 414.24 1026.99 427.02 C 1013.76 435.84 998.65 441.83 982.95 444.40 C 971.09 446.54 958.99 445.68 947.01 445.87 C 863.37 446.21 779.69 446.11 696.03 446.24 C 568.05 446.35 440.06 446.57 312.08 446.70 C 292.20 446.93 272.26 441.98 254.94 432.19 C 236.32 421.74 220.35 405.68 212.22 385.74 C 204.54 367.50 204.60 345.72 214.27 328.22 C 221.37 315.74 228.52 303.29 235.87 290.96 C 248.28 270.93 271.38 259.59 294.38 257.55 Z" />
</g>
</svg>
