<?xml version="1.0" encoding="UTF-8" ?>
<!DOCTYPE svg PUBLIC "-//W3C//DTD SVG 1.1//EN" "http://www.w3.org/Graphics/SVG/1.1/DTD/svg11.dtd">
<svg width="1280px" height="720px" viewBox="0 0 1280 720" version="1.1" xmlns="http://www.w3.org/2000/svg">
<g id="#f8af40ff">
<path fill="#f8af40" opacity="1.00" d=" M 288.15 263.09 C 297.77 262.24 307.43 262.74 317.07 262.65 C 381.06 262.66 445.05 262.80 509.03 262.82 C 573.68 262.91 638.33 262.78 702.96 263.13 C 788.66 263.17 874.36 263.29 960.05 263.31 C 973.91 263.58 988.03 262.49 1001.55 266.24 C 1030.91 273.46 1055.56 296.74 1064.62 325.57 C 1073.56 352.64 1068.76 383.84 1051.88 406.85 C 1035.39 430.04 1007.40 444.33 978.95 444.21 C 769.29 444.41 559.63 444.80 349.97 444.86 C 341.32 445.31 332.65 444.66 323.99 445.10 C 308.01 444.47 291.72 446.37 276.04 442.39 C 256.98 437.89 239.53 427.00 227.04 411.93 C 214.22 396.60 206.64 376.92 206.08 356.93 C 205.25 336.82 211.39 316.49 223.30 300.26 C 238.30 279.35 262.56 265.53 288.15 263.09 Z" />
</g>
</svg>
