<?xml version="1.0" encoding="UTF-8" ?>
<!DOCTYPE svg PUBLIC "-//W3C//DTD SVG 1.1//EN" "http://www.w3.org/Graphics/SVG/1.1/DTD/svg11.dtd">
<svg width="1280px" height="720px" viewBox="0 0 1280 720" version="1.1" xmlns="http://www.w3.org/2000/svg">
<g id="#00afffff">
<path fill="#00afff" opacity="1.00" d=" M 256.47 287.65 C 277.83 280.34 300.49 277.05 323.04 277.26 C 523.04 277.39 723.05 277.67 923.06 277.82 C 938.28 278.01 953.52 277.34 968.72 278.43 C 990.42 280.18 1012.03 285.00 1031.86 294.12 C 1043.64 299.73 1055.44 306.88 1062.77 317.99 C 1066.04 322.73 1067.22 328.50 1066.89 334.19 L 1066.70 334.32 C 1066.50 334.46 1066.09 334.74 1065.89 334.88 C 1065.64 339.96 1061.94 344.08 1058.35 347.34 C 1053.10 351.75 1046.87 354.78 1040.44 357.05 C 1025.38 361.46 1009.68 363.46 994.00 363.07 C 756.34 363.01 518.67 363.24 281.00 363.13 C 261.31 363.29 241.26 360.12 223.54 351.19 C 217.71 347.55 212.49 342.73 209.46 336.47 C 207.98 331.93 207.91 326.91 209.56 322.41 C 212.38 314.67 218.40 308.64 224.81 303.71 C 234.34 296.58 245.28 291.58 256.47 287.65 Z" />
</g>
<g id="#f8af40ff">
<path fill="#f8af40" opacity="1.00" d=" M 1065.89 334.88 C 1066.09 334.74 1066.50 334.46 1066.70 334.32 C 1062.03 355.50 1058.10 376.84 1053.54 398.04 C 1051.19 407.33 1043.12 413.77 1034.94 417.93 C 1019.52 425.54 1002.03 427.56 985.03 427.69 C 895.68 427.82 806.32 427.75 716.98 427.94 C 576.68 428.26 436.31 428.14 295.98 428.36 C 276.92 428.51 257.17 426.63 239.89 417.99 C 231.07 413.50 222.44 406.31 220.42 396.14 C 216.84 376.24 212.80 356.41 209.46 336.47 C 212.49 342.73 217.71 347.55 223.54 351.19 C 226.33 353.78 230.00 355.01 233.49 356.36 C 250.84 362.87 269.63 364.35 288.02 364.00 C 525.03 363.99 762.04 364.03 999.04 363.98 C 1010.76 363.65 1022.52 362.53 1033.89 359.55 C 1036.15 358.98 1038.55 358.55 1040.44 357.05 C 1046.87 354.78 1053.10 351.75 1058.35 347.34 C 1061.94 344.08 1065.64 339.96 1065.89 334.88 Z" />
</g>
<g id="#9eaf9bff">
<path fill="#9eaf9b" opacity="1.00" d=" M 223.54 351.19 C 241.26 360.12 261.31 363.29 281.00 363.13 C 518.67 363.24 756.34 363.01 994.00 363.07 C 1009.68 363.46 1025.38 361.46 1040.44 357.05 C 1038.55 358.55 1036.15 358.98 1033.89 359.55 C 1022.52 362.53 1010.76 363.65 999.04 363.98 C 762.04 364.03 525.03 363.99 288.02 364.00 C 269.63 364.35 250.84 362.87 233.49 356.36 C 230.00 355.01 226.33 353.78 223.54 351.19 Z" />
</g>
</svg>
