<?xml version="1.0" encoding="UTF-8" ?>
<!DOCTYPE svg PUBLIC "-//W3C//DTD SVG 1.1//EN" "http://www.w3.org/Graphics/SVG/1.1/DTD/svg11.dtd">
<svg width="1280px" height="720px" viewBox="0 0 1280 720" version="1.1" xmlns="http://www.w3.org/2000/svg">
<g id="#ffffffff">
<path fill="#ffffff" opacity="1.00" d=" M 0.00 0.00 L 1280.00 0.00 L 1280.00 720.00 L 0.00 720.00 L 0.00 0.00 M 282.46 263.67 C 257.72 267.61 234.94 282.24 221.11 303.13 C 207.62 323.11 202.73 348.60 207.72 372.17 C 210.92 387.95 218.49 402.81 229.30 414.74 C 244.94 432.24 267.55 443.36 290.99 444.84 C 299.30 445.47 307.64 445.11 315.97 445.20 C 413.32 445.20 510.66 444.69 608.02 444.82 C 731.68 444.63 855.35 444.57 979.01 444.37 C 999.13 444.32 1019.18 437.42 1034.89 424.83 C 1058.17 406.61 1071.40 376.49 1068.96 347.02 C 1067.19 318.74 1051.03 291.90 1026.97 276.97 C 1012.73 267.96 995.89 263.22 979.06 263.26 C 927.69 263.13 876.32 263.18 824.96 263.13 C 772.97 262.83 720.97 262.86 668.97 262.80 C 547.96 262.73 426.95 262.58 305.94 262.43 C 298.10 262.37 290.21 262.36 282.46 263.67 Z" />
</g>
<g id="#f8af40ff">
<path fill="#f8af40" opacity="1.00" d=" M 282.46 263.67 C 290.21 262.36 298.10 262.37 305.94 262.43 C 426.95 262.58 547.96 262.73 668.97 262.80 C 720.97 262.86 772.97 262.83 824.96 263.13 C 876.32 263.18 927.69 263.13 979.06 263.26 C 995.89 263.22 1012.73 267.96 1026.97 276.97 C 1051.03 291.90 1067.19 318.74 1068.96 347.02 C 1071.40 376.49 1058.17 406.61 1034.89 424.83 C 1019.18 437.42 999.13 444.32 979.01 444.37 C 855.35 444.57 731.68 444.63 608.02 444.82 C 510.66 444.69 413.32 445.20 315.97 445.20 C 307.64 445.11 299.30 445.47 290.99 444.84 C 267.55 443.36 244.94 432.24 229.30 414.74 C 218.49 402.81 210.92 387.95 207.72 372.17 C 202.73 348.60 207.62 323.11 221.11 303.13 C 234.94 282.24 257.72 267.61 282.46 263.67 Z" />
</g>
</svg>
