<?xml version="1.0" encoding="UTF-8" ?>
<!DOCTYPE svg PUBLIC "-//W3C//DTD SVG 1.1//EN" "http://www.w3.org/Graphics/SVG/1.1/DTD/svg11.dtd">
<svg width="1280px" height="720px" viewBox="0 0 1280 720" version="1.1" xmlns="http://www.w3.org/2000/svg">
<g id="#ffffffff">
<path fill="#ffffff" opacity="1.00" d=" M 0.00 0.00 L 1280.00 0.00 L 1280.00 720.00 L 0.00 720.00 L 0.00 0.00 M 287.52 255.86 C 256.38 259.50 227.85 279.88 214.33 308.16 C 205.62 325.80 203.01 346.28 206.73 365.57 C 210.52 385.23 221.33 403.45 236.77 416.19 C 253.14 429.91 274.59 437.43 295.95 436.61 C 523.99 436.52 752.04 436.26 980.08 436.21 C 985.67 435.36 991.36 436.04 996.93 434.97 C 1007.26 433.28 1017.31 429.77 1026.39 424.54 C 1047.99 412.29 1063.75 390.32 1068.35 365.91 C 1073.99 338.01 1065.39 307.82 1046.17 286.87 C 1028.64 267.07 1002.40 255.62 975.99 255.86 C 751.34 255.71 526.70 255.27 302.05 255.16 C 297.20 255.18 292.33 255.20 287.52 255.86 Z" />
</g>
<g id="#00afffff">
<path fill="#00afff" opacity="1.00" d=" M 287.52 255.86 C 292.33 255.20 297.20 255.18 302.05 255.16 C 526.70 255.27 751.34 255.71 975.99 255.86 C 1002.40 255.62 1028.64 267.07 1046.17 286.87 C 1065.39 307.82 1073.99 338.01 1068.35 365.91 C 1063.75 390.32 1047.99 412.29 1026.39 424.54 C 1017.31 429.77 1007.26 433.28 996.93 434.97 C 991.36 436.04 985.67 435.36 980.08 436.21 C 752.04 436.26 523.99 436.52 295.95 436.61 C 274.59 437.43 253.14 429.91 236.77 416.19 C 221.33 403.45 210.52 385.23 206.73 365.57 C 203.01 346.28 205.62 325.80 214.33 308.16 C 227.85 279.88 256.38 259.50 287.52 255.86 Z" />
</g>
</svg>
