<?xml version="1.0" encoding="UTF-8" ?>
<!DOCTYPE svg PUBLIC "-//W3C//DTD SVG 1.1//EN" "http://www.w3.org/Graphics/SVG/1.1/DTD/svg11.dtd">
<svg width="1280px" height="720px" viewBox="0 0 1280 720" version="1.1" xmlns="http://www.w3.org/2000/svg">
<g id="#ffffffff">
<path fill="#ffffff" opacity="1.00" d=" M 0.00 0.00 L 1280.00 0.00 L 1280.00 720.00 L 0.00 720.00 L 0.00 0.00 M 294.05 262.08 C 276.70 264.74 259.81 270.78 244.96 280.17 C 230.55 289.32 217.76 301.92 210.91 317.76 C 205.66 330.05 204.58 344.53 210.07 356.93 C 215.12 371.72 220.96 386.23 226.29 400.92 C 229.71 410.46 236.03 418.85 244.02 425.06 C 257.59 435.72 274.89 440.76 291.94 441.73 C 307.30 442.04 322.67 441.79 338.04 441.87 C 548.03 441.78 758.02 441.44 968.00 441.25 C 979.70 441.39 991.56 441.14 1002.95 438.12 C 1017.25 434.47 1031.10 427.03 1040.20 415.16 C 1046.02 407.85 1048.47 398.69 1052.18 390.27 C 1055.85 380.70 1060.31 371.43 1063.46 361.67 C 1069.28 351.20 1070.16 338.39 1066.92 326.95 C 1062.79 311.84 1052.74 299.03 1040.84 289.15 C 1018.28 270.72 989.00 261.23 960.00 261.30 C 916.00 261.29 871.99 261.20 827.99 261.20 C 780.00 261.06 732.01 261.36 684.04 260.88 C 564.05 260.81 444.07 260.73 324.08 260.57 C 314.05 260.45 303.97 260.49 294.05 262.08 Z" />
<path fill="#ffffff" opacity="1.00" d=" M 259.90 393.01 C 267.55 394.21 275.23 395.48 283.01 395.36 C 375.86 395.48 468.72 395.13 561.58 395.41 C 555.73 395.81 549.87 395.54 544.02 395.62 C 458.68 395.61 373.33 395.67 287.99 395.72 C 278.58 395.72 269.04 395.47 259.90 393.01 Z" />
</g>
<g id="#00afffff">
<path fill="#00afff" opacity="1.00" d=" M 294.05 262.08 C 303.97 260.49 314.05 260.45 324.08 260.57 C 444.07 260.73 564.05 260.81 684.04 260.88 C 732.01 261.36 780.00 261.06 827.99 261.20 C 871.99 261.20 916.00 261.29 960.00 261.30 C 989.00 261.23 1018.28 270.72 1040.84 289.15 C 1052.74 299.03 1062.79 311.84 1066.92 326.95 C 1070.16 338.39 1069.28 351.20 1063.46 361.67 C 1056.26 375.05 1043.16 384.36 1029.04 389.33 C 1014.99 394.55 999.83 395.31 985.00 395.23 C 843.86 395.28 702.72 395.32 561.58 395.41 C 468.72 395.13 375.86 395.48 283.01 395.36 C 275.23 395.48 267.55 394.21 259.90 393.01 C 239.40 388.58 218.70 376.95 210.07 356.93 C 204.58 344.53 205.66 330.05 210.91 317.76 C 217.76 301.92 230.55 289.32 244.96 280.17 C 259.81 270.78 276.70 264.74 294.05 262.08 Z" />
</g>
<g id="#f8af40ff">
<path fill="#f8af40" opacity="1.00" d=" M 210.07 356.93 C 218.70 376.95 239.40 388.58 259.90 393.01 C 269.04 395.47 278.58 395.72 287.99 395.72 C 373.33 395.67 458.68 395.61 544.02 395.62 C 549.87 395.54 555.73 395.81 561.58 395.41 C 702.72 395.32 843.86 395.28 985.00 395.23 C 999.83 395.31 1014.99 394.55 1029.04 389.33 C 1043.16 384.36 1056.26 375.05 1063.46 361.67 C 1060.31 371.43 1055.85 380.70 1052.18 390.27 C 1048.47 398.69 1046.02 407.85 1040.20 415.16 C 1031.10 427.03 1017.25 434.47 1002.95 438.12 C 991.56 441.14 979.70 441.39 968.00 441.25 C 758.02 441.44 548.03 441.78 338.04 441.87 C 322.67 441.79 307.30 442.04 291.94 441.73 C 274.89 440.76 257.59 435.72 244.02 425.06 C 236.03 418.85 229.71 410.46 226.29 400.92 C 220.96 386.23 215.12 371.72 210.07 356.93 Z" />
</g>
</svg>
