<?xml version="1.0" encoding="UTF-8" ?>
<!DOCTYPE svg PUBLIC "-//W3C//DTD SVG 1.1//EN" "http://www.w3.org/Graphics/SVG/1.1/DTD/svg11.dtd">
<svg width="1280px" height="720px" viewBox="0 0 1280 720" version="1.1" xmlns="http://www.w3.org/2000/svg">
<g id="#00afffff">
<path fill="#00afff" opacity="1.00" d=" M 285.57 257.95 C 289.68 257.39 293.83 257.27 297.98 257.19 C 518.97 257.32 739.97 257.81 960.97 257.88 C 968.99 257.92 977.02 257.69 985.04 258.26 C 1017.33 259.83 1047.60 280.58 1061.19 309.85 C 1073.78 335.98 1072.85 368.16 1058.49 393.39 C 1044.09 419.51 1015.87 437.38 986.04 438.86 C 971.70 439.52 957.33 439.02 942.98 439.18 C 732.98 439.37 522.98 439.74 312.98 439.82 C 301.64 439.69 290.15 440.54 278.97 438.19 C 258.86 434.43 240.16 423.61 226.90 408.03 C 212.88 391.82 204.96 370.44 205.14 349.00 C 204.92 327.76 212.68 306.60 226.32 290.35 C 241.02 272.56 262.67 260.75 285.57 257.95 Z" />
</g>
</svg>
