<?xml version="1.0" encoding="UTF-8" ?>
<!DOCTYPE svg PUBLIC "-//W3C//DTD SVG 1.1//EN" "http://www.w3.org/Graphics/SVG/1.1/DTD/svg11.dtd">
<svg width="1280px" height="720px" viewBox="0 0 1280 720" version="1.1" xmlns="http://www.w3.org/2000/svg">
<g id="#f8af40ff">
<path fill="#f8af40" opacity="1.00" d=" M 288.16 263.09 C 294.07 262.60 300.01 262.51 305.93 262.61 C 418.96 262.79 532.00 262.80 645.03 262.95 C 749.01 263.26 853.02 263.23 957.02 263.30 C 971.86 263.67 987.00 262.27 1001.51 266.23 C 1030.88 273.44 1055.55 296.72 1064.62 325.56 C 1073.48 352.40 1068.86 383.32 1052.29 406.27 C 1036.63 428.59 1010.34 443.07 983.05 444.04 C 971.38 444.47 959.69 444.13 948.02 444.24 C 731.00 444.52 513.95 444.78 296.96 444.96 C 278.41 444.83 259.92 439.01 244.78 428.27 C 226.74 415.69 213.52 396.36 208.50 374.94 C 204.26 357.42 205.42 338.62 211.74 321.74 C 219.31 301.30 234.58 283.86 253.80 273.60 C 264.40 267.84 276.18 264.32 288.16 263.09 Z" />
</g>
</svg>
