<?xml version="1.0" encoding="UTF-8" ?>
<!DOCTYPE svg PUBLIC "-//W3C//DTD SVG 1.1//EN" "http://www.w3.org/Graphics/SVG/1.1/DTD/svg11.dtd">
<svg width="1280px" height="720px" viewBox="0 0 1280 720" version="1.1" xmlns="http://www.w3.org/2000/svg">
<g id="#f8af40ff">
<path fill="#f8af40" opacity="1.00" d=" M 288.18 263.09 C 298.43 262.21 308.72 262.78 318.99 262.65 C 437.01 262.78 555.03 262.83 673.03 262.98 C 773.34 263.36 873.65 263.14 973.97 263.37 C 984.08 263.22 994.29 264.02 1004.03 266.90 C 1032.31 274.77 1055.80 297.56 1064.62 325.55 C 1073.48 352.39 1068.86 383.30 1052.30 406.25 C 1036.64 428.59 1010.34 443.07 983.04 444.04 C 969.05 444.48 955.04 444.12 941.04 444.24 C 727.02 444.54 512.99 444.75 298.98 444.97 C 268.76 445.62 238.80 430.23 221.91 405.14 C 210.50 388.59 204.81 368.15 206.20 348.09 C 207.24 328.33 215.15 309.05 228.15 294.14 C 243.21 276.61 265.18 265.30 288.18 263.09 Z" />
</g>
</svg>
