<?xml version="1.0" encoding="UTF-8" ?>
<!DOCTYPE svg PUBLIC "-//W3C//DTD SVG 1.1//EN" "http://www.w3.org/Graphics/SVG/1.1/DTD/svg11.dtd">
<svg width="1280px" height="720px" viewBox="0 0 1280 720" version="1.1" xmlns="http://www.w3.org/2000/svg">
<g id="#f8af40ff">
<path fill="#f8af40" opacity="1.00" d=" M 281.47 265.63 C 287.60 264.59 293.84 264.50 300.04 264.44 C 468.69 264.65 637.37 264.82 806.01 264.94 C 817.65 265.47 829.30 264.49 840.94 265.12 C 887.61 265.16 934.29 265.16 980.97 265.25 C 999.73 265.31 1018.46 271.35 1033.48 282.62 C 1057.20 299.94 1070.85 329.75 1068.83 359.01 C 1067.55 384.72 1054.66 409.53 1034.50 425.50 C 1018.66 438.33 998.40 445.54 978.02 445.65 C 876.00 445.86 773.97 445.77 671.96 446.12 C 548.32 446.16 424.68 446.35 301.05 446.49 C 282.08 446.75 263.01 441.39 247.27 430.73 C 229.94 419.21 216.65 401.71 210.36 381.86 C 204.38 363.17 204.61 342.50 211.14 323.99 C 218.24 303.68 233.06 286.22 251.91 275.86 C 261.05 270.72 271.14 267.36 281.47 265.63 Z" />
</g>
</svg>
