<?xml version="1.0" encoding="UTF-8" ?>
<!DOCTYPE svg PUBLIC "-//W3C//DTD SVG 1.1//EN" "http://www.w3.org/Graphics/SVG/1.1/DTD/svg11.dtd">
<svg width="1280px" height="720px" viewBox="0 0 1280 720" version="1.1" xmlns="http://www.w3.org/2000/svg">
<g id="#f8af40ff">
<path fill="#f8af40" opacity="1.00" d=" M 283.15 265.33 C 290.41 264.62 297.71 264.78 305.00 264.76 C 391.34 264.91 477.69 264.76 564.01 265.13 C 695.32 265.22 826.64 265.29 957.96 265.52 C 974.92 265.73 992.18 264.43 1008.79 268.66 C 1022.06 271.90 1035.32 278.07 1043.97 288.99 C 1047.24 293.09 1049.49 297.93 1050.84 302.98 C 1055.86 320.70 1060.99 338.38 1065.97 356.11 C 1068.08 363.19 1067.45 370.91 1064.79 377.76 C 1059.50 391.57 1048.18 402.07 1036.06 410.02 C 1012.05 425.37 983.30 432.51 954.94 432.48 C 753.28 432.71 551.61 432.76 349.98 433.15 C 338.64 433.13 327.31 433.18 315.98 433.12 C 287.33 432.51 258.23 424.87 234.59 408.27 C 222.36 399.42 211.04 387.27 208.41 371.88 C 207.10 365.69 208.51 359.41 210.19 353.44 C 214.04 338.78 217.87 324.12 221.71 309.45 C 223.18 303.78 224.50 297.92 227.72 292.92 C 234.48 282.02 245.96 275.00 257.81 270.76 C 265.97 267.82 274.54 266.19 283.15 265.33 Z" />
</g>
</svg>
