<?xml version="1.0" encoding="UTF-8" ?>
<!DOCTYPE svg PUBLIC "-//W3C//DTD SVG 1.1//EN" "http://www.w3.org/Graphics/SVG/1.1/DTD/svg11.dtd">
<svg width="1280px" height="720px" viewBox="0 0 1280 720" version="1.1" xmlns="http://www.w3.org/2000/svg">
<g id="#ffffffff">
<path fill="#ffffff" opacity="1.00" d=" M 0.00 0.00 L 1280.00 0.00 L 1280.00 720.00 L 0.00 720.00 L 0.00 0.00 M 257.02 287.36 C 245.61 291.32 234.43 296.39 224.72 303.67 C 218.49 308.48 212.62 314.30 209.71 321.76 C 207.79 326.56 207.65 332.12 209.89 336.83 C 211.95 338.38 212.32 341.05 213.76 343.07 C 213.99 343.33 214.46 343.83 214.69 344.09 C 212.28 342.75 210.95 340.61 209.71 338.28 C 212.69 357.28 216.70 376.12 220.04 395.07 C 221.79 406.27 231.38 414.10 241.06 418.73 C 256.55 426.16 273.99 428.31 291.00 428.51 C 470.97 428.37 650.94 428.21 830.90 428.09 C 881.60 427.65 932.31 427.96 983.01 427.82 C 997.18 427.96 1011.52 426.63 1025.03 422.18 C 1033.84 419.21 1042.59 414.86 1048.68 407.64 C 1051.55 404.34 1053.39 400.25 1054.21 395.97 C 1056.98 382.32 1059.74 368.67 1062.53 355.02 C 1063.24 351.46 1063.74 347.83 1065.11 344.43 C 1064.99 343.89 1064.74 342.80 1064.62 342.26 C 1063.26 341.43 1062.83 343.51 1062.20 344.24 C 1060.77 345.40 1059.39 346.61 1057.90 347.67 C 1060.91 345.38 1062.92 342.07 1064.84 338.87 C 1068.67 332.10 1066.78 323.56 1062.52 317.45 C 1055.27 306.83 1043.97 299.86 1032.60 294.36 C 1006.25 282.14 976.90 277.32 947.99 277.73 C 739.31 277.59 530.64 277.29 321.95 277.20 C 299.95 277.00 277.88 280.31 257.02 287.36 Z" />
<path fill="#ffffff" opacity="1.00" d=" M 234.67 356.35 C 240.18 358.20 245.95 358.98 251.50 360.67 C 261.21 362.62 271.16 363.40 281.06 363.39 C 516.72 363.44 752.37 363.31 988.03 363.35 C 995.69 363.22 1003.43 363.80 1010.99 362.30 C 1021.02 362.74 1030.50 359.23 1040.15 357.17 C 1031.26 361.91 1020.92 361.26 1011.31 363.35 C 1008.90 363.99 1006.41 363.50 1003.98 363.56 C 984.98 363.76 965.98 363.62 946.98 363.66 C 725.33 363.63 503.67 363.75 282.02 363.71 C 273.87 363.78 265.73 363.25 257.66 362.15 C 249.85 360.95 241.85 359.87 234.67 356.35 Z" />
</g>
<g id="#00afffff">
<path fill="#00afff" opacity="1.00" d=" M 257.02 287.36 C 277.88 280.31 299.95 277.00 321.95 277.20 C 530.64 277.29 739.31 277.59 947.99 277.73 C 976.90 277.32 1006.25 282.14 1032.60 294.36 C 1043.97 299.86 1055.27 306.83 1062.52 317.45 C 1066.78 323.56 1068.67 332.10 1064.84 338.87 C 1062.92 342.07 1060.91 345.38 1057.90 347.67 C 1056.96 348.35 1056.03 349.02 1055.12 349.69 L 1055.59 349.85 C 1050.60 352.61 1045.57 355.35 1040.15 357.17 C 1030.50 359.23 1021.02 362.74 1010.99 362.30 C 1003.43 363.80 995.69 363.22 988.03 363.35 C 752.37 363.31 516.72 363.44 281.06 363.39 C 271.16 363.40 261.21 362.62 251.50 360.67 C 245.95 358.98 240.18 358.20 234.67 356.35 C 227.36 353.51 220.14 349.88 214.69 344.09 C 214.46 343.83 213.99 343.33 213.76 343.07 C 212.32 341.05 211.95 338.38 209.89 336.83 C 207.65 332.12 207.79 326.56 209.71 321.76 C 212.62 314.30 218.49 308.48 224.72 303.67 C 234.43 296.39 245.61 291.32 257.02 287.36 Z" />
</g>
<g id="#f8af40ff">
<path fill="#f8af40" opacity="1.00" d=" M 209.71 338.28 C 210.95 340.61 212.28 342.75 214.69 344.09 C 220.14 349.88 227.36 353.51 234.67 356.35 C 241.85 359.87 249.85 360.95 257.66 362.15 C 265.73 363.25 273.87 363.78 282.02 363.71 C 503.67 363.75 725.33 363.63 946.98 363.66 C 965.98 363.62 984.98 363.76 1003.98 363.56 C 1006.41 363.50 1008.90 363.99 1011.31 363.35 C 1020.92 361.26 1031.26 361.91 1040.15 357.17 C 1045.57 355.35 1050.60 352.61 1055.59 349.85 L 1055.12 349.69 C 1056.03 349.02 1056.96 348.35 1057.90 347.67 C 1059.39 346.61 1060.77 345.40 1062.20 344.24 C 1062.83 343.51 1063.26 341.43 1064.62 342.26 C 1064.74 342.80 1064.99 343.89 1065.11 344.43 C 1063.74 347.83 1063.24 351.46 1062.53 355.02 C 1059.74 368.67 1056.98 382.32 1054.21 395.97 C 1053.39 400.25 1051.55 404.34 1048.68 407.64 C 1042.59 414.86 1033.84 419.21 1025.03 422.18 C 1011.52 426.63 997.18 427.96 983.01 427.82 C 932.31 427.96 881.60 427.65 830.90 428.09 C 650.94 428.21 470.97 428.37 291.00 428.51 C 273.99 428.31 256.55 426.16 241.06 418.73 C 231.38 414.10 221.79 406.27 220.04 395.07 C 216.70 376.12 212.69 357.28 209.71 338.28 Z" />
</g>
</svg>
