<?xml version="1.0" encoding="UTF-8" ?>
<!DOCTYPE svg PUBLIC "-//W3C//DTD SVG 1.1//EN" "http://www.w3.org/Graphics/SVG/1.1/DTD/svg11.dtd">
<svg width="1280px" height="720px" viewBox="0 0 1280 720" version="1.1" xmlns="http://www.w3.org/2000/svg">
<g id="#00afffff">
<path fill="#00afff" opacity="1.00" d=" M 254.72 274.72 C 273.01 265.44 293.52 260.69 314.00 260.66 C 443.34 260.84 572.67 260.82 701.97 261.18 C 788.32 261.21 874.68 261.29 961.04 261.40 C 989.92 261.57 1018.99 271.19 1041.35 289.66 C 1051.74 298.48 1060.70 309.43 1065.35 322.38 C 1070.06 334.67 1069.90 348.90 1063.96 360.75 C 1062.53 362.99 1061.45 365.47 1059.62 367.43 C 1059.59 367.48 1059.51 367.59 1059.47 367.64 C 1052.92 377.13 1042.85 383.70 1032.33 388.10 C 1018.51 393.36 1003.67 395.19 988.94 395.00 C 760.94 395.01 532.94 395.18 304.94 395.32 C 290.43 395.31 275.83 395.80 261.47 393.35 C 244.45 389.69 227.03 382.01 216.53 367.56 C 215.98 367.29 214.87 366.74 214.32 366.46 C 214.19 366.11 213.94 365.42 213.82 365.07 C 213.33 362.07 211.15 359.68 210.06 356.87 C 204.00 342.61 206.17 325.93 213.53 312.58 C 222.59 295.82 237.96 283.28 254.72 274.72 Z" />
</g>
<g id="#f8af40ff">
<path fill="#f8af40" opacity="1.00" d=" M 210.06 356.87 C 211.15 359.68 213.33 362.07 213.82 365.07 C 213.63 365.25 213.27 365.61 213.08 365.79 C 212.52 362.67 210.88 359.91 210.06 356.87 Z" />
<path fill="#f8af40" opacity="1.00" d=" M 1059.62 367.43 C 1061.45 365.47 1062.53 362.99 1063.96 360.75 C 1059.59 371.90 1054.95 382.94 1050.48 394.04 C 1047.57 400.81 1045.43 408.03 1040.90 413.95 C 1032.72 425.32 1020.08 432.85 1006.83 436.84 C 996.87 440.05 986.35 440.92 975.94 441.13 C 749.95 441.18 523.96 441.71 297.97 441.77 C 278.89 441.68 259.16 436.81 243.97 424.84 C 236.39 418.87 230.26 410.98 226.84 401.93 C 222.42 389.96 217.85 378.06 213.51 366.07 L 214.32 366.46 C 214.87 366.74 215.98 367.29 216.53 367.56 C 227.03 382.01 244.45 389.69 261.47 393.35 C 266.43 395.23 271.82 395.35 277.03 396.00 C 507.36 395.95 737.70 396.12 968.03 395.87 C 985.90 395.79 1004.10 396.85 1021.56 392.24 C 1025.24 391.14 1029.14 390.36 1032.33 388.10 C 1042.85 383.70 1052.92 377.13 1059.47 367.64 C 1059.51 367.59 1059.59 367.48 1059.62 367.43 Z" />
</g>
<g id="#51aed2fb">
<path fill="#51aed2" opacity="1.00" d=" M 1059.47 367.64 C 1059.51 367.59 1059.59 367.48 1059.62 367.43 C 1059.59 367.48 1059.51 367.59 1059.47 367.64 Z" />
</g>
<g id="#bdaf7cff">
<path fill="#bdaf7c" opacity="1.00" d=" M 988.94 395.00 C 1003.67 395.19 1018.51 393.36 1032.33 388.10 C 1029.14 390.36 1025.24 391.14 1021.56 392.24 C 1004.10 396.85 985.90 395.79 968.03 395.87 C 737.70 396.12 507.36 395.95 277.03 396.00 C 271.82 395.35 266.43 395.23 261.47 393.35 C 275.83 395.80 290.43 395.31 304.94 395.32 C 532.94 395.18 760.94 395.01 988.94 395.00 Z" />
</g>
</svg>
