<?xml version="1.0" encoding="UTF-8" ?>
<!DOCTYPE svg PUBLIC "-//W3C//DTD SVG 1.1//EN" "http://www.w3.org/Graphics/SVG/1.1/DTD/svg11.dtd">
<svg width="1280px" height="720px" viewBox="0 0 1280 720" version="1.1" xmlns="http://www.w3.org/2000/svg">
<g id="#ffffffff">
<path fill="#ffffff" opacity="1.00" d=" M 0.00 0.00 L 1280.00 0.00 L 1280.00 720.00 L 0.00 720.00 L 0.00 0.00 M 285.60 257.84 C 269.96 259.79 254.85 265.84 242.20 275.24 C 226.56 286.76 214.74 303.37 209.04 321.95 C 202.34 343.58 204.00 367.73 213.84 388.15 C 223.14 407.77 239.77 423.76 259.70 432.35 C 271.43 437.53 284.23 439.92 297.01 440.03 C 320.02 439.70 343.05 439.97 366.07 439.83 C 570.41 439.77 774.75 439.43 979.10 439.25 C 991.46 439.21 1003.86 437.04 1015.26 432.17 C 1031.85 425.19 1046.22 413.07 1055.89 397.89 C 1069.91 376.26 1073.75 348.54 1066.58 323.83 C 1059.23 297.60 1039.38 275.26 1014.18 264.89 C 1000.92 259.17 986.35 257.49 972.02 257.80 C 747.03 257.71 522.04 257.20 297.06 257.16 C 293.23 257.20 289.40 257.33 285.60 257.84 Z" />
</g>
<g id="#00afffff">
<path fill="#00afff" opacity="1.00" d=" M 285.60 257.84 C 289.40 257.33 293.23 257.20 297.06 257.16 C 522.04 257.20 747.03 257.71 972.02 257.80 C 986.35 257.49 1000.92 259.17 1014.18 264.89 C 1039.38 275.26 1059.23 297.60 1066.58 323.83 C 1073.75 348.54 1069.91 376.26 1055.89 397.89 C 1046.22 413.07 1031.85 425.19 1015.26 432.17 C 1003.86 437.04 991.46 439.21 979.10 439.25 C 774.75 439.43 570.41 439.77 366.07 439.83 C 343.05 439.97 320.02 439.70 297.01 440.03 C 284.23 439.92 271.43 437.53 259.70 432.35 C 239.77 423.76 223.14 407.77 213.84 388.15 C 204.00 367.73 202.34 343.58 209.04 321.95 C 214.74 303.37 226.56 286.76 242.20 275.24 C 254.85 265.84 269.96 259.79 285.60 257.84 Z" />
</g>
</svg>
