<?xml version="1.0" encoding="UTF-8" ?>
<!DOCTYPE svg PUBLIC "-//W3C//DTD SVG 1.1//EN" "http://www.w3.org/Graphics/SVG/1.1/DTD/svg11.dtd">
<svg width="1280px" height="720px" viewBox="0 0 1280 720" version="1.1" xmlns="http://www.w3.org/2000/svg">
<g id="#00afffff">
<path fill="#00afff" opacity="1.00" d=" M 256.43 287.66 C 277.17 280.57 299.14 277.24 321.04 277.26 C 532.03 277.39 743.01 277.72 953.99 277.83 C 976.03 277.99 998.13 281.49 1018.93 288.85 C 1032.35 293.72 1045.64 300.03 1056.09 309.96 C 1062.78 316.19 1067.98 324.91 1066.84 334.38 L 1066.59 334.47 C 1066.41 334.54 1066.06 334.67 1065.88 334.73 C 1065.31 342.12 1058.94 347.39 1053.09 351.13 C 1038.67 359.83 1021.52 362.16 1005.01 363.29 C 994.66 363.59 984.31 363.41 973.97 363.46 C 750.66 363.43 527.34 363.54 304.03 363.51 C 288.03 363.35 271.91 364.26 256.05 361.64 C 245.38 359.96 234.73 357.19 225.18 352.02 C 218.46 348.39 212.41 343.05 209.30 335.94 C 207.90 331.35 208.00 326.32 209.77 321.85 C 212.67 314.39 218.51 308.56 224.74 303.76 C 234.28 296.61 245.23 291.60 256.43 287.66 Z" />
</g>
<g id="#f8af40ff">
<path fill="#f8af40" opacity="1.00" d=" M 1065.88 334.73 C 1066.06 334.67 1066.41 334.54 1066.59 334.47 C 1066.73 334.50 1067.00 334.56 1067.14 334.59 C 1065.60 336.03 1065.94 338.32 1065.38 340.18 C 1061.50 359.06 1057.73 377.96 1053.84 396.83 C 1052.89 401.74 1050.19 406.17 1046.66 409.65 C 1038.14 418.04 1026.44 422.17 1014.99 424.74 C 999.60 428.23 983.75 427.66 968.09 427.74 C 811.71 427.68 655.37 428.15 499.00 428.18 C 433.34 428.22 367.68 428.28 302.02 428.36 C 281.51 428.70 260.19 427.65 241.36 418.72 C 232.21 414.33 223.09 407.32 220.61 396.97 C 216.84 376.63 212.87 356.32 209.30 335.94 C 212.41 343.05 218.46 348.39 225.18 352.02 C 234.73 357.19 245.38 359.96 256.05 361.64 C 271.91 364.26 288.03 363.35 304.03 363.51 C 527.34 363.54 750.66 363.43 973.97 363.46 C 984.31 363.41 994.66 363.59 1005.01 363.29 C 1021.52 362.16 1038.67 359.83 1053.09 351.13 C 1058.94 347.39 1065.31 342.12 1065.88 334.73 Z" />
</g>
</svg>
