<svg width="314" height="189" viewBox="0 0 314 189" fill="none" xmlns="http://www.w3.org/2000/svg">
<path d="M168.112 188.003C235 188.003 289.224 139.425 289.224 79.5013C289.224 19.5777 228.888 58.5 162 58.5C95.1117 58.5 47 19.5777 47 79.5013C47 139.425 101.224 188.003 168.112 188.003Z" fill="#F7F7F7"/>
<path d="M23.6245 176.912L23.294 176.3C27.7248 173.902 33.2391 170.918 36.1193 166.021C38.9586 161.194 39.0223 154.639 36.2856 148.913C33.9566 144.041 29.6784 139.676 23.9136 136.29C22.7765 135.622 21.5829 134.989 20.4285 134.376C17.6382 132.897 14.7529 131.366 12.3738 129.196C9.09705 126.205 6.61779 121.188 8.46566 116.718C9.07339 115.292 10.0687 114.064 11.3385 113.175C12.6083 112.286 14.1018 111.771 15.6494 111.689L15.6886 112.383C14.2708 112.458 12.9025 112.93 11.739 113.744C10.5754 114.558 9.66316 115.682 9.10579 116.989C7.38863 121.142 9.74457 125.855 12.842 128.682C15.156 130.793 18.0018 132.303 20.7538 133.762C21.9148 134.378 23.1153 135.014 24.2654 135.69C30.1502 139.147 34.5235 143.615 36.9124 148.613C39.7475 154.544 39.6731 161.35 36.7182 166.374C33.7398 171.438 28.1312 174.473 23.6245 176.912Z" fill="#04C899"/>
<path d="M20.0525 115.353C23.4103 115.353 26.1323 114.03 26.1323 112.398C26.1323 110.766 23.4103 109.443 20.0525 109.443C16.6947 109.443 13.9727 110.766 13.9727 112.398C13.9727 114.03 16.6947 115.353 20.0525 115.353Z" fill="#04C899"/>
<path d="M24.9177 134.821C28.2755 134.821 30.9976 133.498 30.9976 131.866C30.9976 130.234 28.2755 128.911 24.9177 128.911C21.5599 128.911 18.8379 130.234 18.8379 131.866C18.8379 133.498 21.5599 134.821 24.9177 134.821Z" fill="#04C899"/>
<path d="M13.7986 137.95C17.1564 137.95 19.8784 136.627 19.8784 134.995C19.8784 133.363 17.1564 132.04 13.7986 132.04C10.4408 132.04 7.71875 133.363 7.71875 134.995C7.71875 136.627 10.4408 137.95 13.7986 137.95Z" fill="#04C899"/>
<path d="M31.1697 154.289C34.5275 154.289 37.2495 152.966 37.2495 151.334C37.2495 149.702 34.5275 148.379 31.1697 148.379C27.8119 148.379 25.0898 149.702 25.0898 151.334C25.0898 152.966 27.8119 154.289 31.1697 154.289Z" fill="#04C899"/>
<path d="M43.3298 154.289C46.6876 154.289 49.4097 152.966 49.4097 151.334C49.4097 149.702 46.6876 148.379 43.3298 148.379C39.972 148.379 37.25 149.702 37.25 151.334C37.25 152.966 39.972 154.289 43.3298 154.289Z" fill="#04C899"/>
<path d="M314.001 5.36389H118.475V98.2038H314.001V5.36389Z" fill="#E6E6E6"/>
<path d="M308.409 13.3251H124.064V90.7843H308.409V13.3251Z" fill="white"/>
<path d="M313.917 0H118.391V8.31184H313.917V0Z" fill="#00AFFF"/>
<path d="M124.563 5.38516C125.413 5.38516 126.103 4.69542 126.103 3.84459C126.103 2.99375 125.413 2.30402 124.563 2.30402C123.713 2.30402 123.023 2.99375 123.023 3.84459C123.023 4.69542 123.713 5.38516 124.563 5.38516Z" fill="white"/>
<path d="M130.407 5.38516C131.257 5.38516 131.946 4.69542 131.946 3.84459C131.946 2.99375 131.257 2.30402 130.407 2.30402C129.556 2.30402 128.867 2.99375 128.867 3.84459C128.867 4.69542 129.556 5.38516 130.407 5.38516Z" fill="white"/>
<path d="M136.251 5.38516C137.101 5.38516 137.79 4.69542 137.79 3.84459C137.79 2.99375 137.101 2.30402 136.251 2.30402C135.4 2.30402 134.711 2.99375 134.711 3.84459C134.711 4.69542 135.4 5.38516 136.251 5.38516Z" fill="white"/>
<path d="M206.517 31.7076C206.32 31.7076 206.13 31.7863 205.99 31.9262C205.85 32.0662 205.771 32.256 205.771 32.454C205.771 32.6519 205.85 32.8418 205.99 32.9817C206.13 33.1217 206.32 33.2003 206.517 33.2003H247.445C247.643 33.2003 247.832 33.1217 247.972 32.9817C248.112 32.8418 248.191 32.6519 248.191 32.454C248.191 32.256 248.112 32.0662 247.972 31.9262C247.832 31.7863 247.643 31.7076 247.445 31.7076H206.517Z" fill="#E6E6E6"/>
<path d="M206.518 36.1862C206.32 36.1866 206.131 36.2654 205.991 36.4053C205.852 36.5452 205.773 36.7348 205.773 36.9325C205.773 37.1302 205.852 37.3198 205.991 37.4597C206.131 37.5996 206.32 37.6784 206.518 37.6788H227.412C227.609 37.6784 227.799 37.5996 227.938 37.4597C228.078 37.3198 228.156 37.1302 228.156 36.9325C228.156 36.7348 228.078 36.5452 227.938 36.4053C227.799 36.2654 227.609 36.1866 227.412 36.1862H206.518Z" fill="#E6E6E6"/>
<path d="M205.488 57.8627C205.29 57.8627 205.101 57.9414 204.961 58.0813C204.821 58.2213 204.742 58.4111 204.742 58.6091C204.742 58.807 204.821 58.9968 204.961 59.1368C205.101 59.2768 205.29 59.3554 205.488 59.3554H282.227C282.425 59.3554 282.615 59.2768 282.754 59.1368C282.894 58.9968 282.973 58.807 282.973 58.6091C282.973 58.4111 282.894 58.2213 282.754 58.0813C282.615 57.9414 282.425 57.8627 282.227 57.8627H205.488Z" fill="#E6E6E6"/>
<path d="M205.486 62.3412C205.289 62.3417 205.1 62.4205 204.96 62.5604C204.821 62.7003 204.742 62.8899 204.742 63.0876C204.742 63.2853 204.821 63.4749 204.96 63.6148C205.1 63.7547 205.289 63.8335 205.486 63.8339H262.192C262.39 63.8335 262.579 63.7547 262.719 63.6148C262.858 63.4749 262.937 63.2853 262.937 63.0876C262.937 62.8899 262.858 62.7003 262.719 62.5604C262.579 62.4205 262.39 62.3417 262.192 62.3412H205.486Z" fill="#E6E6E6"/>
<path d="M205.486 66.7184C205.289 66.7188 205.1 66.7976 204.96 66.9375C204.821 67.0775 204.742 67.2671 204.742 67.4647C204.742 67.6624 204.821 67.852 204.96 67.9919C205.1 68.1318 205.289 68.2106 205.486 68.2111H282.225C282.423 68.2106 282.612 68.1318 282.752 67.9919C282.891 67.852 282.97 67.6624 282.97 67.4647C282.97 67.2671 282.891 67.0775 282.752 66.9375C282.612 66.7976 282.423 66.7188 282.225 66.7184H205.486Z" fill="#E6E6E6"/>
<path d="M205.486 71.1969C205.289 71.1973 205.1 71.2761 204.96 71.4161C204.821 71.556 204.742 71.7456 204.742 71.9432C204.742 72.1409 204.821 72.3305 204.96 72.4704C205.1 72.6103 205.289 72.6892 205.486 72.6896H262.192C262.39 72.6892 262.579 72.6103 262.719 72.4704C262.858 72.3305 262.937 72.1409 262.937 71.9432C262.937 71.7456 262.858 71.556 262.719 71.4161C262.579 71.2761 262.39 71.1973 262.192 71.1969H205.486Z" fill="#E6E6E6"/>
<path d="M165.368 60.8917C168.955 60.8917 171.863 57.982 171.863 54.3928C171.863 50.8035 168.955 47.8939 165.368 47.8939C161.781 47.8939 158.873 50.8035 158.873 54.3928C158.873 57.982 161.781 60.8917 165.368 60.8917Z" fill="#A0616A"/>
<path d="M163.311 49.1937C163.311 49.1937 166.342 50.006 167.912 50.331C169.481 50.6559 169.319 49.7352 169.319 49.7352C169.319 49.7352 171.376 50.006 171.267 49.7894C171.159 49.5728 172.133 48.4355 170.997 47.1357C169.86 45.8359 170.185 44.8611 170.185 44.8611H169.211L168.94 44.4819H167.425C167.425 44.4819 165.749 43.0118 162.772 43.4451C159.796 43.8783 156.275 45.0235 155.951 46.8107C155.906 47.0531 155.848 47.3225 155.781 47.6069C154.967 51.0456 156.697 54.263 158.491 57.307C158.931 58.0551 161.064 59.6864 161.009 58.5672C160.955 57.4479 159.09 54.9344 160.389 54.7719C161.688 54.6094 163.907 51.3058 163.311 49.1937Z" fill="#2F2E41"/>
<path d="M161.684 75.4026C160.43 75.3023 159.187 75.0978 157.967 74.7915L158.035 73.4955L158.604 63.1907L158.609 63.1116H170.05L171.845 72.5999L172.087 73.8801C171.613 74.0645 171.134 74.2383 170.645 74.3911C170.639 74.3911 170.639 74.3964 170.634 74.3964C169.955 74.6071 169.265 74.7915 168.57 74.9442C167.646 75.1437 166.711 75.288 165.769 75.3763C165.042 75.4485 164.311 75.4837 163.579 75.4816C162.947 75.4817 162.31 75.4553 161.684 75.4026Z" fill="#00AFFF"/>
<path d="M154.328 73.5693C153.854 73.3638 153.396 73.1425 152.944 72.9107L152.749 72.8106C152.617 72.7421 152.48 72.6684 152.349 72.5946C152.17 72.4945 151.996 72.3944 151.827 72.2943C151.664 72.1995 151.496 72.0994 151.333 71.9993C151.322 71.994 151.317 71.9888 151.306 71.9888C150.738 71.6252 150.18 71.2512 149.643 70.8455C149.553 70.7771 149.464 70.7086 149.374 70.6401L149.279 69.1228L149.416 69.0385L158.603 63.1907L158.73 63.1116L158.74 63.1064L160.035 63.1116V67.9374C160.767 68.9964 161.262 71.2143 161.568 74.1171C161.61 74.5334 161.647 74.9601 161.684 75.4026C160.43 75.3022 159.186 75.0978 157.966 74.7915C157.835 74.7652 157.708 74.7336 157.577 74.6967C156.809 74.4957 156.054 74.253 155.313 73.9696C155.086 73.8853 154.865 73.7958 154.644 73.7062L154.623 73.6957C154.528 73.6535 154.423 73.6114 154.328 73.5693Z" fill="#2F2E41"/>
<path d="M152.349 72.5946C152.169 72.4945 151.996 72.3944 151.827 72.2943C151.664 72.1995 151.496 72.0994 151.332 71.9993C151.322 71.994 151.317 71.9888 151.306 71.9888C150.737 71.6252 150.179 71.2512 149.642 70.8455C149.553 70.777 149.463 70.7086 149.374 70.6401C149.332 70.6032 149.29 70.5716 149.242 70.5347C148.905 70.2766 148.579 70.0079 148.263 69.7234C148.247 69.7129 148.237 69.697 148.221 69.6865C148.54 69.4411 148.897 69.2505 149.279 69.1228L149.653 69.2334L152.317 70.0342L152.333 71.1142L152.349 72.5946Z" fill="#2F2E41"/>
<path d="M174.782 72.6104C174.624 72.6947 174.466 72.779 174.308 72.858C174.271 72.8791 174.24 72.8949 174.208 72.9107C173.997 73.0161 173.792 73.1214 173.582 73.2215C173.576 73.2268 173.566 73.2268 173.566 73.2321C173.555 73.2373 173.539 73.2426 173.529 73.2479C173.055 73.4744 172.576 73.6851 172.086 73.88C171.612 74.0645 171.133 74.2383 170.644 74.3911C170.638 74.3911 170.638 74.3964 170.633 74.3964C169.954 74.6071 169.264 74.7915 168.569 74.9442C168.561 74.5115 168.618 74.08 168.738 73.664L168.743 73.5903L169.196 66.2568L168.59 63.1116L170.328 62.8535L179.884 68.0006C179.884 68.0006 178.831 69.0543 174.508 71.2986C174.126 71.497 174.687 72.1573 174.782 72.6104Z" fill="#2F2E41"/>
<path d="M165.654 74.1119C164.969 74.1751 164.274 74.2067 163.579 74.2067C162.905 74.2067 162.237 74.1804 161.568 74.1171C161.61 74.5334 161.647 74.9601 161.684 75.4026C162.311 75.4553 162.948 75.4816 163.579 75.4816C164.311 75.4837 165.042 75.4485 165.77 75.3763C166.711 75.288 167.646 75.1438 168.57 74.9443C168.563 74.5115 168.619 74.08 168.739 73.6641L168.744 73.5903C167.728 73.8378 166.695 74.0121 165.654 74.1119ZM185.55 44.5461C184.437 41.3482 182.641 38.4316 180.286 35.9997C177.931 33.5678 175.075 31.6791 171.916 30.4654C168.757 29.2517 165.371 28.7421 161.995 28.9722C158.619 29.2023 155.333 30.1666 152.368 31.7977C149.402 33.4289 146.828 35.6877 144.825 38.4166C142.821 41.1456 141.437 44.279 140.768 47.5983C140.099 50.9176 140.161 54.343 140.951 57.6356C141.741 60.9282 143.24 64.0088 145.342 66.6625C145.552 66.9259 145.768 67.1893 145.989 67.4422C146.01 67.4632 146.021 67.4791 146.037 67.4949C146.58 68.1221 147.158 68.7184 147.769 69.2808C147.916 69.4178 148.069 69.5548 148.221 69.6865C148.237 69.697 148.248 69.7128 148.264 69.7234C148.58 70.0079 148.906 70.2765 149.243 70.5347C149.29 70.5716 149.332 70.6032 149.374 70.6401C149.464 70.7086 149.554 70.777 149.643 70.8455C150.18 71.2512 150.738 71.6252 151.307 71.9887C151.317 71.9887 151.323 71.994 151.333 71.9993C151.496 72.0994 151.665 72.1994 151.828 72.2943C151.997 72.3944 152.17 72.4945 152.349 72.5946C152.481 72.6683 152.618 72.7421 152.749 72.8106L152.944 72.9107C153.397 73.1425 153.855 73.3638 154.329 73.5692C154.424 73.6114 154.529 73.6535 154.624 73.6957L154.645 73.7062C154.866 73.7958 155.087 73.8853 155.313 73.9696C156.054 74.253 156.81 74.4957 157.577 74.6967C157.709 74.7335 157.835 74.7651 157.967 74.7915C159.187 75.0978 160.43 75.3022 161.684 75.4026C162.311 75.4553 162.948 75.4816 163.579 75.4816C164.311 75.4837 165.042 75.4485 165.769 75.3762C166.711 75.288 167.646 75.1437 168.57 74.9442C169.265 74.7915 169.955 74.6071 170.634 74.3964C170.64 74.3964 170.64 74.3911 170.645 74.3911C171.134 74.2383 171.614 74.0645 172.087 73.8801C172.577 73.6851 173.056 73.4744 173.53 73.2479C173.541 73.2426 173.556 73.2373 173.567 73.2321C173.567 73.2268 173.577 73.2268 173.583 73.2215C173.793 73.1214 173.999 73.0161 174.209 72.9107C174.241 72.8949 174.272 72.8791 174.309 72.858C174.467 72.779 174.625 72.6947 174.783 72.6104C174.794 72.6051 174.799 72.5999 174.809 72.5946C175.225 72.3628 175.636 72.1205 176.042 71.8623C176.152 71.7938 176.263 71.7253 176.373 71.6463C176.536 71.5462 176.694 71.4356 176.847 71.3249C177.052 71.1827 177.258 71.0352 177.458 70.8824C177.524 70.8396 177.588 70.7921 177.647 70.7402C178.137 70.3714 178.611 69.9815 179.063 69.5706C182.497 66.5092 184.946 62.4975 186.101 58.043C187.255 53.5886 187.064 48.8915 185.55 44.5461L185.55 44.5461ZM178.669 68.2114C178.099 68.7479 177.501 69.2544 176.879 69.7286C176.742 69.834 176.599 69.9394 176.458 70.0342C176.32 70.1396 176.184 70.2397 176.042 70.3345C175.92 70.4188 175.799 70.5031 175.673 70.5821C175.662 70.5926 175.647 70.5979 175.636 70.6084C175.546 70.6717 175.452 70.7296 175.362 70.7876C175.083 70.9614 174.794 71.1353 174.509 71.2986C174.441 71.3355 174.378 71.3776 174.309 71.4145C174.272 71.4356 174.236 71.4566 174.193 71.4777C174.036 71.5673 173.877 71.6463 173.72 71.7306C173.699 71.7464 173.672 71.7517 173.651 71.7675C173.643 71.7687 173.636 71.7724 173.63 71.778C173.52 71.836 173.409 71.8886 173.299 71.9413C173.204 71.9887 173.114 72.0361 173.019 72.0783C172.635 72.2627 172.24 72.4365 171.845 72.5998C171.429 72.7684 171.008 72.9212 170.582 73.0634C170.476 73.1003 170.366 73.1425 170.255 73.1741C169.755 73.3321 169.255 73.4744 168.744 73.5903C167.728 73.8378 166.695 74.0121 165.654 74.1118C164.969 74.1751 164.274 74.2067 163.579 74.2067C162.905 74.2067 162.237 74.1803 161.568 74.1171C160.375 74.0079 159.194 73.8 158.035 73.4955C157.993 73.4849 157.946 73.4744 157.904 73.4638C156.954 73.2159 156.023 72.899 155.119 72.5156C155.071 72.4945 155.019 72.4787 154.976 72.4576C154.924 72.4365 154.876 72.4207 154.834 72.3996C154.782 72.3786 154.734 72.3575 154.687 72.3364C154.292 72.1626 153.908 71.9729 153.523 71.778L153.344 71.6832C153.002 71.5041 152.665 71.3196 152.333 71.1142C152.218 71.0509 152.097 70.9772 151.981 70.9035C151.849 70.8244 151.717 70.7401 151.591 70.6558C151.56 70.6348 151.528 70.6137 151.496 70.5926C151.201 70.3924 150.901 70.1922 150.617 69.9762C150.417 69.8287 150.222 69.6865 150.027 69.5337C149.901 69.4389 149.775 69.3388 149.654 69.2334C149.575 69.1755 149.496 69.107 149.417 69.0385C149.311 68.9489 149.206 68.8594 149.101 68.7645C148.938 68.6328 148.785 68.4853 148.637 68.3483C148.045 67.8017 147.484 67.2212 146.958 66.6098C146.779 66.4096 146.61 66.2094 146.447 65.9987C146.409 65.9572 146.374 65.9132 146.342 65.867C143.691 62.5187 142.072 58.471 141.681 54.2175C141.29 49.964 142.145 45.6886 144.141 41.913C146.138 38.1374 149.189 35.0247 152.923 32.9547C156.657 30.8847 160.912 29.9468 165.17 30.2556C169.427 30.5644 173.503 32.1064 176.899 34.6935C180.296 37.2806 182.867 40.801 184.298 44.8252C185.729 48.8494 185.959 53.2034 184.959 57.3561C183.96 61.5088 181.774 65.2806 178.669 68.2114L178.669 68.2114Z" fill="#3F3D56"/>
<path d="M56.78 172.673L61.0393 172.673L63.0655 156.233L56.7793 156.234L56.78 172.673Z" fill="#A0616A"/>
<path d="M55.6953 171.281L64.0834 171.281H64.0837C65.5014 171.281 66.8611 171.845 67.8635 172.848C68.866 173.851 69.4292 175.211 69.4293 176.63V176.804L55.6956 176.804L55.6953 171.281Z" fill="#2F2E41"/>
<path d="M72.7624 172.673L77.0218 172.673L79.0479 156.233L72.7617 156.234L72.7624 172.673Z" fill="#A0616A"/>
<path d="M71.6758 171.281L80.0639 171.281H80.0642C81.4819 171.281 82.8415 171.845 83.844 172.848C84.8465 173.851 85.4097 175.211 85.4098 176.63V176.804L71.676 176.804L71.6758 171.281Z" fill="#2F2E41"/>
<path d="M43.8568 107.713C44.2054 107.34 44.4679 106.894 44.6259 106.408C44.7838 105.922 44.8333 105.408 44.7709 104.9C44.7086 104.393 44.5358 103.906 44.2648 103.472C43.9938 103.039 43.6312 102.671 43.2025 102.393L46.1619 90.3282L40.0847 92.495L38.2061 103.62C37.7875 104.371 37.6589 105.25 37.8447 106.091C38.0306 106.931 38.5179 107.673 39.2145 108.178C39.911 108.683 40.7683 108.914 41.6239 108.828C42.4795 108.743 43.274 108.346 43.8568 107.713Z" fill="#9E616A"/>
<path d="M89.0707 106.67C88.7221 106.297 88.4596 105.851 88.3017 105.365C88.1437 104.879 88.0942 104.365 88.1566 103.857C88.219 103.35 88.3917 102.863 88.6627 102.43C88.9337 101.996 89.2963 101.628 89.725 101.35L86.7656 89.2853L92.8428 91.4521L94.7214 102.577C95.14 103.328 95.2686 104.208 95.0828 105.048C94.897 105.888 94.4096 106.631 93.7131 107.135C93.0166 107.64 92.1593 107.871 91.3037 107.785C90.448 107.7 89.6535 107.303 89.0707 106.67Z" fill="#9E616A"/>
<path d="M49.4609 99.2562L55.3646 168.459L64.0029 167.671L67.46 114.187L70.5375 135.364L71.1538 169.004L78.9707 168.483L83.3114 132.293L82.2465 97.2451L52.571 94.238L49.4609 99.2562Z" fill="#2F2E41"/>
<path d="M65.7006 36.2827C70.6483 36.2827 74.6591 32.2693 74.6591 27.3185C74.6591 22.3677 70.6483 18.3543 65.7006 18.3543C60.753 18.3543 56.7422 22.3677 56.7422 27.3185C56.7422 32.2693 60.753 36.2827 65.7006 36.2827Z" fill="#A0616A"/>
<path d="M62.8634 20.1472C62.8634 20.1472 67.044 21.2677 69.209 21.7159C71.374 22.1641 71.15 20.8942 71.15 20.8942C71.15 20.8942 73.9869 21.2677 73.8375 20.9689C73.6882 20.6701 75.032 19.1013 73.4643 17.3085C71.8965 15.5156 72.3445 14.171 72.3445 14.171H71.0007L70.6274 13.6481H68.5371C68.5371 13.6481 66.2261 11.6203 62.1201 12.2179C58.0141 12.8155 53.1584 14.3951 52.7105 16.8603C52.6497 17.1947 52.5697 17.5661 52.4769 17.9585C51.3541 22.7016 53.7397 27.1395 56.214 31.3382C56.822 32.3701 59.7634 34.6202 59.6882 33.0764C59.6129 31.5326 57.0404 28.0655 58.8321 27.8414C60.6238 27.6173 63.6846 23.0605 62.8634 20.1472Z" fill="#2F2E41"/>
<path d="M56.3799 39.3448H72.1568L83.3123 98.2962C83.3123 98.2962 73.5867 99.1283 68.028 101.214C62.4693 103.3 53.2285 96.4494 53.2285 96.4494L56.3799 39.3448Z" fill="#00AFFF"/>
<path d="M58.3495 46.0021V39.3448L56.5632 39.3339L43.5117 47.6373L46.3438 93.1307C46.3438 93.1307 49.6956 108.308 54.7797 108.151C59.8637 107.993 63.7838 53.887 58.3495 46.0021Z" fill="#2F2E41"/>
<path d="M47.7023 48.8941L43.51 47.6374C43.51 47.6374 40.4065 48.5465 40.4065 51.6752C40.4065 54.804 37.7324 99.2562 37.7324 99.2562L46.2271 100.007L48.0497 77.4007L47.7023 48.8941Z" fill="#2F2E41"/>
<path d="M70.9803 43.6795L70.1446 39.3449L72.5436 38.9863L81.2291 42.4627C81.2291 42.4627 89.0461 99.6498 85.5719 101.388C82.0977 103.126 79.7519 101.779 79.7519 101.779C79.7519 101.779 68.3249 59.6015 70.3474 53.9002L70.9803 43.6795Z" fill="#2F2E41"/>
<path d="M75.1484 43.3319L76.6307 42.6863C76.6307 42.6863 80.9815 40.5289 83.45 44.8853C85.9184 49.2418 94.6039 97.9116 94.6039 97.9116L87.4574 99.2562L82.1146 81.7408L75.1484 43.3319Z" fill="#2F2E41"/>
<path d="M132.714 177H0.347419C0.255278 177 0.16691 176.963 0.101756 176.898C0.0366027 176.833 0 176.745 0 176.652C0 176.56 0.0366027 176.472 0.101756 176.407C0.16691 176.341 0.255278 176.305 0.347419 176.305H132.714C132.806 176.305 132.895 176.341 132.96 176.407C133.025 176.472 133.062 176.56 133.062 176.652C133.062 176.745 133.025 176.833 132.96 176.898C132.895 176.963 132.806 177 132.714 177Z" fill="#CACACA"/>
</svg>
