<svg width="268" height="217" viewBox="0 0 268 217" fill="none" xmlns="http://www.w3.org/2000/svg">
<g clip-path="url(#clip0_224_6211)">
<path opacity="0.1" d="M137.86 217.003C204.748 217.003 258.972 168.425 258.972 108.501C258.972 48.5777 204.748 0 137.86 0C70.9717 0 16.748 48.5777 16.748 108.501C16.748 168.425 70.9717 217.003 137.86 217.003Z" fill="#D03737"/>
<path opacity="0.1" d="M44.6563 170.951C69.3193 170.951 89.3126 167.84 89.3126 164.003C89.3126 160.166 69.3193 157.055 44.6563 157.055C19.9933 157.055 0 160.166 0 164.003C0 167.84 19.9933 170.951 44.6563 170.951Z" fill="#D03737"/>
<path opacity="0.1" d="M66.1192 204.052C75.712 204.052 83.4884 202.44 83.4884 200.451C83.4884 198.461 75.712 196.849 66.1192 196.849C56.5265 196.849 48.75 198.461 48.75 200.451C48.75 202.44 56.5265 204.052 66.1192 204.052Z" fill="#D03737"/>
<path opacity="0.1" d="M184.805 190.195C194.398 190.195 202.174 188.583 202.174 186.593C202.174 184.604 194.398 182.992 184.805 182.992C175.212 182.992 167.436 184.604 167.436 186.593C167.436 188.583 175.212 190.195 184.805 190.195Z" fill="#D03737"/>
<path opacity="0.1" d="M125.866 187.172C141.466 187.172 154.111 185.022 154.111 182.369C154.111 179.716 141.466 177.566 125.866 177.566C110.267 177.566 97.6211 179.716 97.6211 182.369C97.6211 185.022 110.267 187.172 125.866 187.172Z" fill="#D03737"/>
<path opacity="0.1" d="M209.09 167.855C241.627 167.855 268.003 163.708 268.003 158.592C268.003 153.477 241.627 149.33 209.09 149.33C176.554 149.33 150.178 153.477 150.178 158.592C150.178 163.708 176.554 167.855 209.09 167.855Z" fill="#D03737"/>
<path d="M12.2099 142.426C10.8866 145.01 10.2685 147.9 10.4185 150.802C10.5686 153.704 11.4813 156.514 13.0641 158.947C13.5834 159.729 14.0611 160.292 14.4427 160.44C16.2731 161.162 19.9391 162.937 19.9391 162.937L28.7665 159.455C28.7665 159.455 30.1996 151.845 31.5549 145.311C32.4792 140.855 33.3723 136.901 33.7384 136.208C34.6523 134.501 33.7384 115.916 33.7384 115.916C33.7384 115.916 24.911 115.322 22.4835 122.153L21.4216 124.238L12.2099 142.426Z" fill="#A8A8A8"/>
<path opacity="0.1" d="M23.9294 144.48C29.296 150.654 31.5599 145.314 31.5599 145.314C32.4842 140.857 33.3774 136.904 33.7434 136.21C34.6573 134.503 33.7434 115.919 33.7434 115.919C33.7434 115.919 24.916 115.324 22.4885 122.155L21.4266 124.24C20.7464 129.705 20.0739 140.036 23.9294 144.48Z" fill="white"/>
<path d="M25.1094 161.689L56.2649 158.076L61.8236 121.36L57.6202 111.824C55.8443 107.763 53.3852 104.039 50.3506 100.816C48.2346 98.5769 45.6772 96.4242 42.9875 95.3426C42.6199 95.1939 42.2446 95.0651 41.8633 94.9569C41.4249 94.8232 40.9613 94.7953 40.5101 94.8755C40.0589 94.9556 39.633 95.1416 39.267 95.4182C35.4245 98.1521 34.051 109.776 33.6071 115.371C33.4244 117.671 33.115 119.958 32.6802 122.223L25.1094 161.689Z" fill="#A8A8A8"/>
<path opacity="0.1" d="M45.8498 120.964L39.359 136.992C42.7602 134.496 47.7996 120.899 47.7996 120.899L52.3146 136.401L48.7161 120.062C49.2429 116.514 49.3961 112.921 49.173 109.34C48.8874 105.238 45.0527 98.6551 42.9705 95.34C42.6029 95.1913 42.2276 95.0625 41.8463 94.9542C41.4079 94.8206 40.9443 94.7927 40.4931 94.8728C40.042 94.953 39.616 95.1389 39.25 95.4155C40.8857 98.7124 44.9748 106.956 46.2211 109.406C47.8022 112.491 45.8498 120.964 45.8498 120.964Z" fill="white"/>
<path d="M51.1504 162.937H68.0549C68.7502 162.937 69.4384 162.795 70.0774 162.52C70.7165 162.245 71.2931 161.842 71.7723 161.337C72.2514 160.831 72.6231 160.232 72.8646 159.578C73.1062 158.923 73.2126 158.226 73.1774 157.529C72.8035 150.253 71.8558 137.279 69.6023 129.043C68.3846 124.6 66.9696 122.267 65.6715 121.118C65.0627 120.528 64.2768 120.157 63.4361 120.062C62.7983 120.007 62.1601 120.163 61.6187 120.505C58.4797 123.526 54.8138 139.421 54.8138 139.421L51.1504 162.937Z" fill="#A8A8A8"/>
<path opacity="0.1" d="M66.7561 148.84C67.4519 150.776 67.7271 153.01 66.7561 155.186L62.9889 157.055C62.9889 157.055 52.8633 152.747 54.094 143.917C54.094 143.917 54.4263 142.093 57.9131 142.233C59.8741 142.328 61.7624 143.008 63.3373 144.184C64.9122 145.361 66.1024 146.982 66.7561 148.84Z" fill="white"/>
<path opacity="0.1" d="M62.7316 125.629C62.6148 122.533 64.2894 121.459 65.6732 121.118C65.0645 120.528 64.2785 120.157 63.4378 120.062C62.4746 120.872 61.7919 121.967 61.488 123.19L57.957 140.466C57.957 140.466 62.9289 130.818 62.7316 125.629Z" fill="white"/>
<path d="M46.7015 139.291L55.0719 150.784L56.5232 160.271L51.1437 162.937L43.3886 164.657C42.6417 164.824 41.8737 164.874 41.1116 164.806L19.9492 162.937L22.8285 156.236L32.7723 142.223L46.7015 139.291Z" fill="#A8A8A8"/>
<path opacity="0.1" d="M43.4615 135.345C43.4615 135.345 49.1734 135.739 47.0288 145.59C44.8843 155.442 22.8184 156.231 22.8184 156.231C22.8184 156.231 27.5073 147.891 34.7198 141.915C35.5298 141.246 36.3113 140.547 37.0564 139.802C38.7155 138.136 41.8881 135.21 43.4615 135.345Z" fill="white"/>
<path opacity="0.1" d="M48.5996 142.773C48.5996 142.773 56.3392 149.843 55.6096 160.724L48.5996 142.773Z" fill="black"/>
<path opacity="0.1" d="M61.6204 120.505C61.6204 120.505 53.4992 131.347 52.5879 148.03L61.6204 120.505Z" fill="black"/>
<path opacity="0.1" d="M33.7465 115.911C33.7465 115.911 37.6773 133.828 27.8633 147.334L33.7465 115.911Z" fill="black"/>
<path d="M105.339 182.27H147.695C148.105 182.268 148.507 182.159 148.862 181.955C149.217 181.751 149.514 181.458 149.723 181.104C149.932 180.751 150.046 180.349 150.055 179.938C150.064 179.527 149.966 179.121 149.772 178.759L128.605 139.281C128.402 138.902 128.101 138.586 127.733 138.365C127.366 138.145 126.945 138.029 126.517 138.029C126.089 138.029 125.669 138.145 125.302 138.365C124.934 138.586 124.633 138.902 124.43 139.281L103.252 178.759C103.058 179.122 102.96 179.529 102.969 179.941C102.978 180.353 103.094 180.755 103.304 181.109C103.514 181.462 103.812 181.755 104.169 181.959C104.526 182.162 104.929 182.269 105.339 182.27ZM129.212 175.056H123.822V169.648H129.212V175.056ZM129.212 166.041H123.822V155.223H129.212V166.041Z" fill="#930000"/>
<path opacity="0.1" d="M105.339 182.27H147.695C148.105 182.268 148.507 182.159 148.862 181.955C149.217 181.751 149.514 181.458 149.723 181.104C149.932 180.751 150.046 180.349 150.055 179.938C150.064 179.527 149.966 179.121 149.772 178.759L128.605 139.281C128.402 138.902 128.101 138.586 127.733 138.365C127.366 138.145 126.945 138.029 126.517 138.029C126.089 138.029 125.669 138.145 125.302 138.365C124.934 138.586 124.633 138.902 124.43 139.281L103.252 178.759C103.058 179.122 102.96 179.529 102.969 179.941C102.978 180.353 103.094 180.755 103.304 181.109C103.514 181.462 103.812 181.755 104.169 181.959C104.526 182.162 104.929 182.269 105.339 182.27ZM129.212 175.056H123.822V169.648H129.212V175.056ZM129.212 166.041H123.822V155.223H129.212V166.041Z" fill="#D03737"/>
<path d="M105.339 183.573H147.695C148.105 183.571 148.507 183.462 148.862 183.258C149.217 183.054 149.514 182.761 149.723 182.407C149.932 182.054 150.046 181.652 150.055 181.241C150.064 180.83 149.966 180.424 149.772 180.062L128.605 140.584C128.402 140.205 128.101 139.889 127.733 139.668C127.366 139.448 126.945 139.332 126.517 139.332C126.089 139.332 125.669 139.448 125.302 139.668C124.934 139.889 124.633 140.205 124.43 140.584L103.252 180.062C103.058 180.425 102.96 180.832 102.969 181.244C102.978 181.656 103.094 182.058 103.304 182.412C103.514 182.765 103.812 183.058 104.169 183.262C104.526 183.465 104.929 183.573 105.339 183.573ZM129.212 176.359H123.822V170.951H129.212V176.359ZM129.212 167.344H123.822V156.526H129.212V167.344Z" fill="#D03737"/>
<path d="M60.7035 61.694C60.675 62.2387 60.945 62.7365 61.1034 63.2577C61.3654 64.2644 61.3393 65.3249 61.0281 66.3174C60.7373 67.3599 60.2492 68.4623 60.6205 69.4813C60.7061 69.7211 60.836 69.94 60.9138 70.1798C61.2358 71.1701 60.6386 72.2126 59.9844 73.0231L62.5521 74.8292C62.927 75.1412 63.373 75.3551 63.8503 75.4521C64.3306 75.5094 64.8888 75.2514 64.9874 74.7771C65.0212 74.6155 64.9874 74.4461 65.0186 74.2819C65.0502 74.0696 65.132 73.868 65.2571 73.6938C65.3822 73.5197 65.547 73.3782 65.7378 73.2811C66.1234 73.0913 66.5535 73.0111 66.9814 73.0492C68.5573 73.1352 69.897 74.1751 71.3302 74.8423C72.2751 75.253 73.2542 75.5791 74.2562 75.817C74.8248 75.9655 75.4557 76.1011 75.9698 75.817C76.4838 75.5329 76.7201 74.8735 76.6812 74.2767C76.6013 73.6831 76.4167 73.1086 76.1359 72.5801C75.8526 72.0522 75.6819 71.4708 75.6349 70.873C75.6349 69.9973 76.1126 69.1998 76.2735 68.3398C76.4994 67.1175 76.0399 65.8743 75.4791 64.7641C74.9183 63.6538 74.238 62.5853 73.9654 61.376C73.9113 61.0095 73.8164 60.6502 73.6824 60.3049C73.5525 60.0427 73.3766 59.8061 73.1632 59.6064C72.1999 58.6499 70.8265 58.1965 69.4816 58.0974C68.1367 57.9984 66.7789 58.2199 65.4444 58.4519C64.9352 58.5248 64.4338 58.6443 63.9463 58.8089C63.2497 59.0868 62.5883 59.4463 61.9757 59.8801C61.3682 60.3023 60.7425 60.9199 60.7035 61.694Z" fill="#464353"/>
<g opacity="0.1">
<path opacity="0.1" d="M75.6271 70.3387C75.6271 70.4169 75.6271 70.4951 75.6427 70.5707C75.7232 69.807 76.123 69.0903 76.2658 68.3267C76.321 68.0208 76.3375 67.709 76.3151 67.3989C76.3151 67.5344 76.2892 67.6595 76.2658 67.8055C76.1022 68.6655 75.6167 69.463 75.6271 70.3387Z" fill="black"/>
<path opacity="0.1" d="M61.277 64.3002C61.3076 63.7728 61.2488 63.2441 61.1031 62.7365C60.9494 62.341 60.8236 61.9352 60.7266 61.522C60.7266 61.5767 60.7059 61.6288 60.7033 61.6836C60.6747 62.2283 60.9447 62.726 61.1031 63.2473C61.2034 63.5899 61.2618 63.9434 61.277 64.3002Z" fill="black"/>
<path opacity="0.1" d="M76.6578 74.1334C76.6396 74.3663 76.5672 74.5916 76.4463 74.7913C76.3255 74.9909 76.1595 75.1593 75.962 75.2827C75.4427 75.5668 74.817 75.4313 74.2484 75.2827C73.246 75.0452 72.2667 74.7181 71.3224 74.3054C69.8892 73.6408 68.5495 72.6009 66.9736 72.5149C66.5457 72.4768 66.1156 72.557 65.73 72.7469C65.5392 72.8439 65.3744 72.9855 65.2493 73.1596C65.1241 73.3337 65.0424 73.5353 65.0108 73.7476C64.9926 73.9118 65.0108 74.0812 64.9796 74.2428C64.8784 74.7172 64.3228 74.9752 63.8424 74.9178C63.3652 74.8209 62.9192 74.6069 62.5443 74.2949L60.2362 72.6687C60.1505 72.786 60.0648 72.9006 59.9766 73.0075L62.5443 74.8162C62.9192 75.1281 63.3652 75.3421 63.8424 75.4391C64.3228 75.4964 64.881 75.2384 64.9796 74.7641C65.0134 74.6025 64.9796 74.4331 65.0108 74.2689C65.0424 74.0566 65.1241 73.8549 65.2493 73.6808C65.3744 73.5067 65.5392 73.3652 65.73 73.2681C66.1156 73.0783 66.5457 72.998 66.9736 73.0362C68.5495 73.1222 69.8892 74.162 71.3224 74.8266C72.2667 75.2393 73.246 75.5664 74.2484 75.8039C74.817 75.9525 75.4479 76.088 75.962 75.8039C76.476 75.5199 76.7123 74.8605 76.6734 74.2637C76.6708 74.2194 76.663 74.1777 76.6578 74.1334Z" fill="black"/>
<path opacity="0.1" d="M60.9131 70.1667C60.9451 70.2715 60.9686 70.3787 60.9832 70.4873C61.0234 70.205 60.9995 69.9172 60.9131 69.6455C60.8352 69.4057 60.7054 69.1868 60.6197 68.947C60.5573 68.773 60.5171 68.5917 60.5003 68.4075C60.462 68.7656 60.5027 69.1278 60.6197 69.4683C60.7054 69.708 60.8352 69.9296 60.9131 70.1667Z" fill="black"/>
</g>
<path d="M63.9616 169.059C63.9438 169.133 63.9018 169.199 63.8422 169.247C63.779 169.28 63.7082 169.295 63.6371 169.291C62.7128 169.312 61.7885 169.291 60.8668 169.356C59.9945 169.432 59.1195 169.617 58.2498 169.518C57.9715 169.528 57.6971 169.45 57.4645 169.297C57.2319 169.143 57.0527 168.921 56.9516 168.66C56.8967 168.547 56.8482 168.43 56.8062 168.311C56.5666 167.697 56.4459 167.042 56.4505 166.382C56.4505 166.208 56.4505 166.038 56.4505 165.861C56.4392 165.67 56.414 165.48 56.3752 165.293C56.2965 165.078 56.3058 164.841 56.4012 164.634C56.7699 163.959 57.6604 163.823 58.3458 163.771C59.9338 163.651 61.5306 163.769 63.0841 164.12C63.2061 164.72 63.3437 165.314 63.4891 165.908C63.5964 166.344 63.7106 166.779 63.8318 167.211C63.9131 167.479 63.979 167.751 64.0291 168.027C64.0933 168.371 64.0701 168.726 63.9616 169.059Z" fill="#464353"/>
<path opacity="0.06" d="M63.962 169.059C63.9442 169.133 63.9022 169.199 63.8426 169.247C63.7794 169.28 63.7086 169.295 63.6375 169.291C62.7132 169.312 61.7889 169.291 60.8673 169.356C59.9949 169.432 59.1199 169.617 58.2502 169.518C57.9719 169.528 57.6975 169.45 57.4649 169.297C57.2323 169.143 57.0531 168.921 56.952 168.66C56.8972 168.547 56.8486 168.43 56.8066 168.311H57.139C58.232 168.311 59.3276 168.272 60.4207 168.272C60.7504 168.272 61.0827 168.256 61.4099 168.217C61.737 168.178 62.0044 168.123 62.303 168.087C62.75 168.044 63.1989 168.026 63.6479 168.032H64.0166C64.0841 168.374 64.0653 168.727 63.962 169.059Z" fill="black"/>
<path d="M83.0837 164.219C82.7943 164.558 82.4247 164.819 82.0088 164.978C80.1603 165.759 78.0235 165.408 76.1152 164.772C75.6884 164.613 75.2501 164.486 74.8041 164.394C74.3972 164.337 73.9869 164.308 73.576 164.308C73.2827 164.308 72.9893 164.284 72.6959 164.266C71.9534 164.219 71.2134 164.146 70.4761 164.073C69.962 164.035 69.4516 163.958 68.9495 163.841C68.8067 163.805 68.6695 163.748 68.5418 163.675C68.4329 163.626 68.3398 163.548 68.2736 163.449C68.2074 163.35 68.1708 163.234 68.168 163.114C68.1887 162.783 68.5314 162.593 68.8326 162.45C71.5042 161.29 74.4069 160.787 77.2888 160.383C77.5819 160.334 77.8674 160.246 78.1377 160.122C78.4623 159.992 78.496 160.206 78.657 160.445C78.7331 160.556 78.82 160.659 78.9166 160.753C79.2296 161.037 79.5972 161.253 79.9967 161.389C80.6977 161.65 81.448 161.72 82.149 161.967C82.3611 162.041 82.564 162.139 82.754 162.259C82.9216 162.351 83.0661 162.48 83.1765 162.636C83.2869 162.793 83.3601 162.972 83.3907 163.161C83.4213 163.351 83.4083 163.544 83.3529 163.728C83.2974 163.911 83.2009 164.079 83.0707 164.219H83.0837Z" fill="#464353"/>
<path opacity="0.06" d="M83.0831 164.219C82.7937 164.558 82.4241 164.819 82.0082 164.978C80.1597 165.759 78.0229 165.408 76.1146 164.772C75.6878 164.613 75.2495 164.486 74.8035 164.394C74.3966 164.337 73.9863 164.308 73.5755 164.308C73.2821 164.308 72.9887 164.284 72.6953 164.266C72.9342 164.039 73.1782 163.818 73.4275 163.604C73.6081 163.435 73.8162 163.297 74.0428 163.198C74.3249 163.105 74.6257 163.084 74.9177 163.138C76.4028 163.344 77.7373 164.389 79.2354 164.297C79.9333 164.217 80.6084 163.998 81.2215 163.654C81.7202 163.45 82.1646 163.132 82.5197 162.726C82.6268 162.586 82.7086 162.428 82.7611 162.259C82.9288 162.351 83.0733 162.48 83.1837 162.636C83.294 162.793 83.3673 162.972 83.3979 163.161C83.4284 163.351 83.4155 163.544 83.36 163.728C83.3046 163.911 83.2081 164.079 83.0779 164.219H83.0831Z" fill="black"/>
<path d="M82.5614 118.926C82.3018 119.447 81.9695 120.013 81.4087 120.174C80.5934 120.409 79.8094 119.674 79.4537 118.903C78.9689 117.77 78.8774 116.507 79.194 115.317C79.342 114.714 79.5679 114.136 79.6951 113.531C79.7869 113.022 79.8425 112.508 79.8613 111.991C79.938 111.22 79.9197 110.443 79.8068 109.677C79.3888 107.438 77.4701 105.767 76.8314 103.568C76.5095 102.471 76.525 101.303 76.5432 100.159C76.5372 99.8696 76.5668 99.5808 76.6315 99.2988C76.6508 99.222 76.6769 99.1469 76.7094 99.0747C77.1378 98.1208 78.4074 97.9905 79.2901 97.4354C79.7782 97.1305 80.8868 96.1479 81.297 97.0445C81.3856 97.2441 81.4518 97.453 81.4944 97.6673C81.6631 98.4648 81.5956 99.4005 81.6372 100.154C81.7955 103 82.5017 105.84 82.1746 108.671C82.0966 109.153 82.0584 109.641 82.0604 110.13C82.1305 111.355 82.8938 112.416 83.2443 113.589C83.7843 115.353 83.3507 117.274 82.5614 118.926Z" fill="#FBBEBE"/>
<path opacity="0.1" d="M81.5074 97.6725C81.3145 97.6022 81.1031 97.6022 80.9102 97.6725L79.1525 98.1938C78.5366 98.3587 77.9363 98.5776 77.3585 98.8479C77.1063 98.9722 76.8671 99.1215 76.6445 99.2936C76.6638 99.2167 76.6899 99.1417 76.7224 99.0695C77.1508 98.1156 78.4204 97.9853 79.3031 97.4301C79.7912 97.1252 80.8998 96.1427 81.3101 97.0392C81.3994 97.2422 81.4656 97.4546 81.5074 97.6725Z" fill="black"/>
<path d="M81.6222 97.4745C81.5163 97.4099 81.3968 97.3711 81.2732 97.3611C81.1497 97.3512 81.0256 97.3703 80.9108 97.4171L79.1531 97.9384C78.5371 98.1033 77.9368 98.3222 77.359 98.5925C77.0524 98.7423 76.7655 98.9296 76.5049 99.1503C75.6844 97.7195 75.4663 96.0228 75.3158 94.3809C75.2327 93.4244 75.1704 92.4654 75.134 91.5141C75.0933 90.8295 75.1072 90.1428 75.1755 89.4604C75.2742 88.6786 75.5001 87.9149 75.6403 87.1383C75.7238 86.6836 75.7776 86.2239 75.8013 85.7622C75.8686 84.7534 75.8224 83.7401 75.6637 82.7416C75.5127 81.6803 75.2712 80.634 74.9419 79.6142C74.7757 79.1477 74.5758 78.6968 74.3941 78.2381L74.3318 78.0765C74.0035 77.2358 73.7354 76.3727 73.5295 75.4938C73.4464 75.1341 73.4412 74.7562 73.166 74.5112C73.4244 74.48 73.6849 74.4696 73.9449 74.48C73.9968 74.48 74.0488 74.48 74.1007 74.48C75.1673 74.5473 76.1948 74.908 77.0709 75.5225C78.1991 76.3396 79.0566 77.4782 79.5321 78.7906C80.08 80.2579 80.1708 81.8529 80.2409 83.4192C80.3811 86.498 80.4677 89.5786 80.5006 92.6608C80.5006 93.2524 80.5265 93.8831 80.864 94.3705C80.9588 94.4906 81.0455 94.6168 81.1237 94.7484C81.2457 95.009 81.2275 95.2983 81.3262 95.5615C81.3986 95.7195 81.481 95.8727 81.5728 96.0202C81.6891 96.2434 81.7538 96.49 81.7624 96.7417C81.7709 96.9934 81.723 97.2439 81.6222 97.4745Z" fill="#464353"/>
<path d="M64.3414 66.8829C64.0817 66.7969 63.8221 66.7057 63.5625 66.6223L64.1025 66.664C64.1925 66.7247 64.273 66.7984 64.3414 66.8829Z" fill="#FBBEBE"/>
<path d="M74.9727 76.2887C74.9207 76.4659 74.8688 76.6431 74.8117 76.8099C74.6799 77.2382 74.5194 77.657 74.3314 78.0635C74.0371 78.7314 73.6206 79.3378 73.1033 79.8514C72.9325 80.0319 72.723 80.171 72.4906 80.2579C72.294 80.3084 72.0908 80.3278 71.8883 80.3153C71.1959 80.3153 70.5036 80.3048 69.8112 80.284C69.2722 80.29 68.7342 80.2367 68.2067 80.125C67.6261 79.966 67.0742 79.7163 66.571 79.3849C64.6316 78.1808 63.0375 76.346 62.3547 74.1725C62.269 73.8962 62.2093 73.5652 62.3988 73.3489C62.5853 73.1962 62.8202 73.1157 63.0608 73.1222H63.092C63.6502 73.0492 64.188 72.864 64.6732 72.5775C64.9874 72.416 65.2408 72.1562 65.3949 71.8373C65.5001 71.4594 65.492 71.0587 65.3716 70.6854L64.7952 68.0583C64.7351 67.6376 64.5778 67.2368 64.3356 66.8881C64.5044 66.9481 64.6731 67.0028 64.8549 67.0497C66.4594 67.4849 68.2145 67.2217 69.7878 67.7925C70.3902 68.014 70.9925 68.4128 71.1743 69.033C71.478 70.0755 70.4629 71.1571 70.7537 72.1996C70.9484 72.9084 71.6676 73.3176 72.3114 73.6486L72.745 73.8701L73.9471 74.4826L74.1133 74.566L74.1392 74.579C74.5183 74.7719 74.9181 75.0117 75.0505 75.4208C75.107 75.7117 75.08 76.0127 74.9727 76.2887Z" fill="#FBBEBE"/>
<path opacity="0.1" d="M78.1401 82.408C78.0961 83.0742 77.9344 83.7273 77.6624 84.3366C77.1412 85.3905 76.8617 86.5482 76.8446 87.7246C76.6447 91.243 75.3128 95.4312 77.221 98.3866C77.2678 98.4596 77.3145 98.5326 77.3586 98.6081C77.052 98.7579 76.7651 98.9452 76.5045 99.1659C75.684 97.7351 75.4659 96.0384 75.3154 94.3965C75.2323 93.44 75.17 92.481 75.1336 91.5297C75.0929 90.8451 75.1068 90.1584 75.1752 89.476C75.2738 88.6942 75.4997 87.9305 75.6399 87.1539C75.7234 86.6992 75.7772 86.2395 75.8009 85.7778C75.8682 84.769 75.822 83.7557 75.6633 82.7572C75.5123 81.6959 75.2708 80.6496 74.9415 79.6298C74.7753 79.1633 74.5754 78.7124 74.3937 78.2537L74.3314 78.0921C74.0371 78.76 73.6206 79.3665 73.1033 79.88C72.9325 80.0605 72.723 80.1996 72.4906 80.2866C72.294 80.3371 72.0908 80.3564 71.8882 80.3439C71.1959 80.3439 70.5036 80.3335 69.8112 80.3126C69.2722 80.3186 68.7342 80.2653 68.2067 80.1536C67.6261 79.9947 67.0742 79.7449 66.571 79.4135C64.6316 78.2094 63.0375 76.3747 62.3547 74.2011C62.269 73.9248 62.2093 73.5938 62.3988 73.3775C62.5853 73.2248 62.8202 73.1443 63.0608 73.1508H63.092L65.4287 76.0515C65.6967 76.3585 65.9236 76.6993 66.1037 77.0653C66.1386 77.1881 66.2113 77.2967 66.3114 77.3754C66.3927 77.4127 66.4819 77.4288 66.571 77.4223C68.7649 77.4223 71.6883 77.4223 73.8822 77.4223C73.8894 77.0321 73.777 76.6491 73.5603 76.3251C73.4928 76.3408 73.4019 76.346 73.5421 76.3043C73.4152 75.4583 73.1429 74.6408 72.7372 73.8883C72.713 73.8366 72.6861 73.7862 72.6568 73.7372C72.4824 73.4793 72.3525 73.1939 72.2725 72.8928C72.5495 72.8041 72.8471 72.8041 73.1241 72.8928C73.4434 73.0309 73.6096 73.3775 73.7498 73.6981C73.8692 73.9587 73.9887 74.2376 74.0951 74.5112C74.0951 74.5399 74.1211 74.5712 74.1315 74.5998C74.3579 75.1391 74.5031 75.7091 74.5624 76.2913C74.578 76.505 74.6299 76.776 74.8065 76.8464C74.8343 76.8591 74.8643 76.8662 74.8948 76.8672C75.0776 76.8001 75.2761 76.789 75.4652 76.8354C75.6543 76.8818 75.8254 76.9836 75.9566 77.1278C76.212 77.4215 76.3905 77.7744 76.4759 78.1547C76.5603 78.5349 76.6839 78.9052 76.8446 79.2597C77.1795 79.9008 76.668 80.1875 77.273 80.5811C77.5559 80.7373 77.7993 80.9566 77.9844 81.2222C78.1555 81.5923 78.2098 82.006 78.1401 82.408Z" fill="black"/>
<path opacity="0.1" d="M63.0606 164.131C63.1827 164.73 63.3203 165.324 63.4657 165.918L63.4501 165.955C62.2636 165.434 61.0485 164.889 59.753 164.774C58.5509 164.67 57.2449 164.996 56.4271 165.872C56.4157 165.681 56.3906 165.491 56.3518 165.303C56.2731 165.089 56.2824 164.852 56.3778 164.644C56.7464 163.969 57.637 163.833 58.3224 163.781C59.9103 163.661 61.5072 163.779 63.0606 164.131Z" fill="black"/>
<path opacity="0.1" d="M73.2884 76.8021C73.4104 76.8021 73.3663 76.8021 73.3066 76.823C73.2469 76.8438 73.1482 76.8438 73.2884 76.8021Z" fill="black"/>
<path opacity="0.1" d="M78.9296 160.753C77.7718 161.494 76.6837 162.339 75.6791 163.278C75.3873 163.592 75.0394 163.847 74.6535 164.032C74.255 164.16 73.834 164.204 73.4177 164.159C71.7844 164.093 70.1564 163.931 68.5418 163.675C68.4329 163.626 68.3398 163.548 68.2736 163.449C68.2074 163.35 68.1708 163.234 68.168 163.114C68.1887 162.783 68.5314 162.593 68.8326 162.45C71.5042 161.29 74.4069 160.787 77.2888 160.383C77.5819 160.334 77.8674 160.246 78.1377 160.122C78.4623 159.992 78.496 160.206 78.657 160.445C78.7371 160.557 78.8285 160.66 78.9296 160.753Z" fill="black"/>
<path d="M59.8819 73.7789C60.2636 74.1203 60.6998 74.3966 61.0866 74.7276C62.1251 75.6111 62.7794 76.8464 63.4233 78.0505C63.0414 78.189 62.6285 78.217 62.2316 78.1312C62.0274 79.2875 62.0619 80.4734 62.3328 81.6157C61.8133 81.9735 61.4098 82.4764 61.1723 83.0622C60.9877 83.6566 60.8608 84.2676 60.7932 84.8865C60.4194 87.5987 60.0438 90.3109 59.6664 93.0231C59.6588 93.2885 59.568 93.5448 59.4068 93.7554C59.3347 93.8139 59.2687 93.8793 59.2095 93.9509C59.13 94.1262 59.0987 94.3196 59.1186 94.5112C59.103 94.7015 58.9784 94.9282 58.7889 94.9021C58.6968 94.88 58.6152 94.8266 58.5578 94.751C58.3682 94.5494 58.1946 94.3333 58.0386 94.1046C56.5067 97.0549 55.7694 100.234 54.9593 103.461C54.3804 105.76 53.8014 108.084 53.7728 110.456C53.7807 111.578 53.8509 112.699 53.9831 113.813L54.2116 116.101C54.396 117.941 54.5803 119.784 54.7802 121.623C54.91 122.791 55.0398 123.969 55.4578 125.069C56.081 126.739 55.3903 128.624 55.6552 130.391C55.8629 131.775 56.2757 133.205 55.8603 134.54C55.6941 135.074 55.4033 135.561 55.1852 136.077C54.6504 137.36 54.5959 138.785 54.5491 140.174C54.4651 141.392 54.5103 142.615 54.6841 143.823C54.9074 145.071 55.4085 146.294 55.3099 147.555C55.1722 149.351 53.8533 150.886 53.6924 152.679C53.5651 154.11 54.1908 155.491 54.8633 156.76C55.3592 157.696 54.6686 158.905 54.4063 159.935C53.8871 161.952 54.7516 164.063 55.8109 165.853C55.8379 165.915 55.8858 165.965 55.9459 165.994C56.068 166.038 56.177 165.918 56.2575 165.817C57.0546 164.79 58.4669 164.402 59.7625 164.514C61.058 164.626 62.2705 165.163 63.4596 165.694L65.1446 161.928C65.4302 161.29 65.721 160.599 65.5782 159.914C65.4769 159.424 65.1628 159.009 64.9395 158.561C64.4203 157.503 64.3943 156.27 64.3891 155.084L64.3579 148.387C65.6717 146.729 66.4739 144.759 66.9802 142.7C67.7569 145.596 67.8104 148.639 67.136 151.561C67.0112 152.003 66.9243 152.454 66.8763 152.911C66.7751 154.769 68.2264 156.341 68.6133 158.16C68.6508 158.299 68.6613 158.444 68.6444 158.587C68.6009 158.763 68.528 158.931 68.4289 159.082C67.7331 160.349 67.8084 161.884 67.9097 163.328C69.7303 163.646 71.5699 163.844 73.4164 163.919C73.8327 163.961 74.2531 163.918 74.6523 163.792C75.0383 163.607 75.3862 163.35 75.6778 163.036C76.8566 161.923 78.1509 160.94 79.5385 160.104C78.7636 158.813 77.6791 157.738 76.384 156.977C76.802 156.359 77.7548 156.408 78.3104 155.913C78.5894 155.636 78.7716 155.276 78.8297 154.886C79.0374 153.865 78.7804 152.801 78.5233 151.798C78.0248 149.823 77.5238 147.839 76.7059 145.973C76.3361 145.206 76.0101 144.419 75.7297 143.615C75.0495 141.368 75.5246 138.923 75.0105 136.627C74.8444 135.892 74.577 135.134 74.7639 134.402C75.0495 133.273 76.3217 132.603 76.6021 131.472C77.6068 127.446 77.786 123.273 78.3572 119.163C78.4849 118.378 78.5535 117.584 78.5623 116.789C78.5623 115.958 78.4143 115.134 78.3546 114.305C78.1209 110.988 79.1776 107.678 78.9076 104.363C78.7347 102.32 78.0642 100.351 76.9552 98.629C75.0469 95.671 76.3788 91.4854 76.5787 87.967C76.5937 86.7906 76.8724 85.6326 77.3939 84.579C77.6682 83.9703 77.8309 83.317 77.8743 82.6504C77.9543 82.2394 77.9035 81.8136 77.7289 81.4333C77.5462 81.1666 77.3033 80.9469 77.0201 80.7922C76.4151 80.396 76.9266 80.1094 76.5917 79.4682C76.4306 79.1139 76.307 78.7435 76.223 78.3632C76.138 77.9835 75.9595 77.6314 75.7037 77.339C75.5725 77.1947 75.4014 77.0929 75.2123 77.0465C75.0232 77.0001 74.8247 77.0112 74.6419 77.0783C74.3952 77.0783 74.3277 76.75 74.3069 76.5024C74.2368 75.5954 73.863 74.7432 73.4969 73.9092C73.3567 73.5886 73.1905 73.242 72.8712 73.1039C72.5931 73.0166 72.2951 73.0166 72.017 73.1039C72.0974 73.4061 72.2282 73.6925 72.4039 73.9509C72.8539 74.7434 73.1532 75.613 73.2866 76.5154C73.027 76.5936 73.5462 76.5154 73.2866 76.5154C73.5191 76.8405 73.6386 77.2334 73.6267 77.6335C71.4354 77.6335 68.512 77.6335 66.3181 77.6335C66.229 77.6405 66.1396 77.6244 66.0585 77.5866C65.9585 77.5072 65.885 77.399 65.8482 77.2764C65.6697 76.9103 65.4426 76.5702 65.1732 76.2652L62.6028 73.083C62.5458 72.9999 62.4702 72.9312 62.3822 72.8824C62.2761 72.8523 62.1637 72.8523 62.0576 72.8824C61.2242 73.0048 60.6089 73.3541 59.8819 73.7789Z" fill="#D03737"/>
<path opacity="0.1" d="M69.1047 116.896C69.5478 116.89 69.9845 117.003 70.3691 117.224C70.56 117.337 70.7183 117.498 70.8285 117.691C70.9386 117.883 70.9969 118.102 70.9974 118.324C70.9688 118.817 70.5924 119.208 70.3198 119.627C70.151 119.883 70.0166 120.16 69.9199 120.451C69.8901 120.517 69.8828 120.591 69.8992 120.662C69.9303 120.761 70.0368 120.81 70.1276 120.855C70.4579 121.005 70.7401 121.244 70.9423 121.546C71.1446 121.848 71.2589 122.201 71.2726 122.564C71.2492 123.581 70.26 124.404 70.3146 125.431C70.3393 125.645 70.3757 125.857 70.4236 126.067C70.5424 126.942 70.4212 127.833 70.0731 128.645C69.759 129.463 69.3306 130.232 68.9931 131.042C68.0818 133.245 67.8844 135.684 67.9545 138.079C68.0091 139.705 67.4353 141.253 66.916 142.802C67.2094 139.683 67.2875 136.548 67.1497 133.419C67.1133 132.57 67.0069 131.767 67.0458 130.915C67.1081 129.562 67.8611 128.332 68.0532 127.005C68.1622 126.247 68.0895 125.475 68.1077 124.709C68.1441 123.146 68.5673 121.603 68.5958 120.034C68.6322 118.926 68.5309 117.785 69.1047 116.896Z" fill="black"/>
<path d="M58.2719 74.3366C57.7557 74.5949 57.2727 74.9152 56.8335 75.2905C56.3746 75.7482 55.9908 76.276 55.6963 76.8542C55.3378 77.5097 55.0162 78.1849 54.7331 78.8766C54.367 79.7732 54.0633 80.7661 54.3151 81.7018C54.5436 82.5488 55.1901 83.2081 55.6366 83.9613C56.0832 84.7145 56.3454 85.598 56.6881 86.4242C57.1451 87.5266 57.7708 88.5535 58.2225 89.6585C58.6743 90.7635 58.9469 92.0041 58.6613 93.1534C58.5782 93.4922 58.0304 93.7554 58.0304 94.1021C58.0304 94.6754 58.856 95.2983 59.4038 95.4651C60.0347 95.6606 60.7228 95.3687 61.2394 94.9439C62.1871 94.1907 62.7635 93.0622 63.1892 91.9259C63.8747 90.1015 64.2407 88.1651 64.5705 86.2418C64.8093 84.8292 65.0326 83.414 65.1598 81.991C65.2767 80.7088 65.313 79.3848 64.9755 78.1547C64.6606 77.0257 64.0479 76.0028 63.2022 75.1941C62.5272 74.5425 61.4212 73.6668 60.4398 73.6434C59.6635 73.6408 58.9365 73.9692 58.2719 74.3366Z" fill="#464353"/>
<path d="M65.6519 105.754C65.6238 105.932 65.5574 106.102 65.4574 106.252C65.3575 106.402 65.2263 106.528 65.073 106.622C64.7666 106.809 64.4327 106.946 64.0838 107.029C63.388 107.232 62.6506 107.42 61.947 107.24C61.3941 107.059 60.8835 106.767 60.4464 106.382L52.5848 100.341C51.9532 99.8919 51.3725 99.3746 50.853 98.7984C50.5548 98.4265 50.2808 98.0356 50.0326 97.6282C49.7041 97.1619 49.4468 96.6489 49.2693 96.1062C49.2059 95.8674 49.1745 95.6211 49.1758 95.3739C49.1737 95.1401 49.2309 94.9096 49.342 94.7041C49.5315 94.3861 49.9365 94.321 50.2689 94.2324C51.3843 93.9429 52.542 93.8546 53.6882 93.9718C53.7889 93.9669 53.8884 93.995 53.9718 94.0519C54.0551 94.1088 54.1178 94.1913 54.1503 94.2871C54.3243 94.6077 54.4749 94.9413 54.6306 95.2749C54.8697 95.8436 55.1813 96.3789 55.5575 96.8672C55.92 97.2628 56.3058 97.6361 56.7129 97.9853C57.5437 98.7672 58.2239 99.7054 59.1093 100.425C60.1348 101.256 61.381 101.754 62.5494 102.366C63.7177 102.979 64.8704 103.774 65.4572 104.959C65.5933 105.202 65.6607 105.477 65.6519 105.754Z" fill="#FBBEBE"/>
<path opacity="0.1" d="M74.7533 63.6069C74.7536 65.2524 74.1278 66.8358 73.0037 68.0333C71.8796 69.2309 70.3422 69.9522 68.7059 70.0497C67.0696 70.1472 65.458 69.6136 64.2006 68.5579C62.9433 67.5023 62.1352 66.0043 61.9415 64.3704C61.7479 62.7365 62.1833 61.0901 63.1589 59.7677C64.1344 58.4454 65.5763 57.5472 67.1897 57.2566C68.8031 56.966 70.4662 57.3051 71.8388 58.2045C73.2114 59.104 74.1899 60.4958 74.5742 62.0953C74.6934 62.5903 74.7535 63.0977 74.7533 63.6069Z" fill="black"/>
<path d="M74.7533 63.3463C74.7536 64.9917 74.1278 66.5751 73.0037 67.7727C71.8796 68.9703 70.3422 69.6916 68.7059 69.7891C67.0696 69.8866 65.458 69.3529 64.2006 68.2973C62.9433 67.2416 62.1352 65.7437 61.9415 64.1097C61.7479 62.4758 62.1833 60.8294 63.1589 59.5071C64.1344 58.1848 65.5763 57.2865 67.1897 56.9959C68.8031 56.7053 70.4662 57.0444 71.8388 57.9439C73.2114 58.8433 74.1899 60.2351 74.5742 61.8347C74.6934 62.3296 74.7535 62.8371 74.7533 63.3463Z" fill="#FBBEBE"/>
<path opacity="0.1" d="M54.6306 95.2644C54.3347 95.4547 53.8959 95.3921 53.5298 95.3087C52.0863 94.9856 50.4922 94.7536 49.1758 95.3739C49.1737 95.1401 49.2309 94.9096 49.342 94.7041C49.5315 94.3861 49.9365 94.321 50.2689 94.2324C51.3843 93.9429 52.542 93.8546 53.6882 93.9718C53.7889 93.9669 53.8884 93.995 53.9718 94.0519C54.0551 94.1088 54.1178 94.1913 54.1503 94.2871C54.3243 94.5972 54.4749 94.9308 54.6306 95.2644Z" fill="black"/>
<path d="M51.9178 86.4893C51.5985 87.5318 51.3363 88.6029 50.7106 89.4864C50.5037 89.7188 50.348 89.9923 50.2536 90.2891C50.2465 90.5083 50.2107 90.7257 50.1472 90.9355C50.0589 91.1127 49.872 91.23 49.7967 91.4124C49.685 91.673 49.8304 92.0092 49.6824 92.2542C49.6131 92.3526 49.5301 92.4403 49.4358 92.5148C49.0827 92.8432 48.9944 93.3671 48.9866 93.8518C48.9788 94.3366 49.0256 94.8317 48.8672 95.2878C50.238 94.4669 51.9827 94.7119 53.5405 95.0611C53.9741 95.1575 54.5115 95.2305 54.7919 94.8813C55.0723 94.532 54.9114 94.0733 54.9503 93.6538C55.0022 93.1064 55.3761 92.653 55.6072 92.1552C55.8668 91.5949 55.9551 90.9694 56.155 90.3856C56.5678 89.1581 57.4531 88.1573 58.0217 86.9975C58.2322 86.5987 58.3578 86.1602 58.3904 85.7101C58.3708 85.1266 58.219 84.5552 57.9464 84.0395C57.4061 82.8384 56.7633 81.6865 56.0252 80.5967C55.6955 80.1093 55.1269 79.2076 54.6154 79.9868C54.2 80.6149 53.9404 81.415 53.634 82.1031C52.9738 83.5288 52.4007 84.9936 51.9178 86.4893Z" fill="#464353"/>
<path d="M75.3442 76.3721C74.5646 76.426 73.7829 76.3044 73.0562 76.0163C72.3294 75.7282 71.6759 75.2808 71.1434 74.7067C71.0537 74.6247 70.9889 74.5191 70.9565 74.4018C70.9416 74.2493 70.9842 74.0968 71.0759 73.9744C71.3875 73.4922 71.9249 73.1742 72.1741 72.6556C72.4234 72.137 72.3377 71.5402 72.3611 70.972C72.4026 69.953 72.8024 68.9444 72.8362 67.941C72.8482 67.6842 72.829 67.4269 72.7791 67.1748C72.6596 66.8003 72.5863 66.4126 72.561 66.0202C72.5947 65.2566 73.2802 64.6624 73.3944 63.9092C73.5424 62.9501 72.7505 62.1161 71.9534 61.5636C71.3456 61.1405 70.6859 60.798 69.9906 60.5446C69.5636 60.3911 69.1215 60.2836 68.6717 60.2241C67.8333 60.1103 66.9798 60.2061 66.1871 60.5029C65.859 60.6272 65.5483 60.7936 65.2628 60.9981C65.0928 61.106 64.9511 61.2535 64.85 61.4281C64.7668 61.6247 64.7295 61.8377 64.7409 62.051C64.7254 63.1169 64.8448 64.2506 64.3385 65.1784C64.0789 65.6762 63.6375 66.0802 63.422 66.6066C63.3338 66.8257 63.2787 67.0567 63.2585 67.2921C63.2325 67.5362 63.2195 67.7815 63.2195 68.027C63.2039 69.4005 63.2195 70.8495 63.9153 72.0406C64.1608 72.4006 64.3837 72.7758 64.5826 73.1638C64.679 73.3601 64.7237 73.578 64.7123 73.7965C64.7009 74.0151 64.6339 74.2271 64.5177 74.4122C64.3771 74.5811 64.1993 74.715 63.9984 74.8031C63.4829 75.0514 62.9219 75.1902 62.3505 75.2109C61.7791 75.2315 61.2097 75.1335 60.6777 74.923C61.2998 74.3313 61.727 73.5631 61.9024 72.721C62.0778 71.879 61.9929 71.0033 61.6591 70.211C61.4716 69.891 61.3497 69.5365 61.3008 69.1685C61.3269 68.837 61.415 68.5134 61.5605 68.2147C61.9164 67.2353 61.9715 66.1713 61.7189 65.1602C61.5605 64.5399 61.2853 63.9405 61.2359 63.302C61.1947 62.82 61.2157 62.3347 61.2983 61.8581C61.4405 61.0055 61.8148 60.2088 62.3797 59.5562C62.9446 58.9036 63.6782 58.4204 64.4995 58.1599C64.6319 58.1156 64.7591 58.0739 64.9045 58.0374C65.5344 57.8971 66.178 57.828 66.8232 57.8316C68.2641 57.7846 69.7258 57.7429 71.1148 58.1208C71.9303 58.3352 72.689 58.7266 73.3373 59.2676C73.7975 59.6559 74.1648 60.1431 74.4121 60.6932C74.5473 61.01 74.6491 61.3402 74.7159 61.6783C74.7756 61.9572 74.8198 62.2386 74.8639 62.5201C75.178 64.5243 75.4922 66.5675 75.1573 68.5691C75.0249 69.351 74.7938 70.1328 74.6899 70.9303C74.4381 72.7677 74.8924 74.5946 75.3442 76.3721Z" fill="#464353"/>
<path d="M66.1196 78.947C66.3863 78.947 66.6025 78.73 66.6025 78.4622C66.6025 78.1945 66.3863 77.9775 66.1196 77.9775C65.8529 77.9775 65.6367 78.1945 65.6367 78.4622C65.6367 78.73 65.8529 78.947 66.1196 78.947Z" fill="white"/>
<path d="M74.27 78.7177C74.5367 78.7177 74.7529 78.5006 74.7529 78.2329C74.7529 77.9652 74.5367 77.7482 74.27 77.7482C74.0033 77.7482 73.7871 77.9652 73.7871 78.2329C73.7871 78.5006 74.0033 78.7177 74.27 78.7177Z" fill="white"/>
<path opacity="0.1" d="M66.1205 53.964L65.082 51.9963C65.1479 51.9176 65.2199 51.8444 65.2975 51.7774C65.4475 51.6846 65.6231 51.6426 65.7986 51.6575L66.1205 53.964Z" fill="black"/>
<path opacity="0.1" d="M68.9827 51.5663L67.8066 53.3124L67.1367 51.3969C67.4226 51.2736 67.7319 51.2149 68.0428 51.2248C68.3729 51.2853 68.6905 51.4007 68.9827 51.5663Z" fill="black"/>
<g opacity="0.1">
<path opacity="0.1" d="M64.5177 73.8962C64.3771 74.0651 64.1993 74.199 63.9984 74.2871C63.0777 74.7293 62.0275 74.8174 61.0464 74.5347C60.9324 74.674 60.8092 74.8054 60.6777 74.9282C61.2097 75.1387 61.7791 75.2367 62.3505 75.2161C62.9219 75.1955 63.4829 75.0567 63.9984 74.8084C64.1993 74.7202 64.3771 74.5864 64.5177 74.4174C64.607 74.2873 64.668 74.1397 64.6966 73.9844C64.7252 73.829 64.7209 73.6693 64.6838 73.5157C64.6579 73.6535 64.6011 73.7836 64.5177 73.8962Z" fill="black"/>
<path opacity="0.1" d="M61.7001 65.168C61.7849 65.5095 61.8345 65.8588 61.8481 66.2105C61.878 65.6847 61.8281 65.1575 61.7001 64.6468C61.5417 64.0265 61.2665 63.4271 61.2172 62.7886C61.2172 62.7078 61.2172 62.627 61.2042 62.5436C61.1917 62.799 61.1961 63.055 61.2172 63.3098C61.2665 63.9483 61.5417 64.5477 61.7001 65.168Z" fill="black"/>
<path opacity="0.1" d="M75.1387 68.5769C75.2489 67.8877 75.2959 67.1898 75.2789 66.4919C75.2698 67.0159 75.223 67.5385 75.1387 68.0557C75.0063 68.8375 74.7752 69.6194 74.6714 70.4169C74.6178 70.8447 74.5978 71.276 74.6117 71.7069C74.6187 71.4498 74.6387 71.1932 74.6714 70.9381C74.7752 70.1406 75.0063 69.3666 75.1387 68.5769Z" fill="black"/>
<path opacity="0.1" d="M61.6494 69.695C61.5134 69.4384 61.4038 69.1685 61.3223 68.8896C61.3002 68.9836 61.2898 69.0798 61.2911 69.1763C61.34 69.5443 61.4619 69.8988 61.6494 70.2188C61.84 70.6557 61.95 71.1237 61.9739 71.6001C62.0209 70.948 61.9096 70.2943 61.6494 69.695Z" fill="black"/>
<path opacity="0.1" d="M72.7786 67.1643C72.8014 67.2833 72.8179 67.4033 72.8279 67.524C72.8279 67.4849 72.8279 67.4484 72.8279 67.4093C72.8399 67.1525 72.8208 66.8952 72.7708 66.6431C72.7137 66.3695 72.6202 66.0984 72.5761 65.8221C72.5632 65.8839 72.5554 65.9467 72.5527 66.0098C72.5806 66.4025 72.6565 66.7902 72.7786 67.1643Z" fill="black"/>
<path opacity="0.1" d="M71.1442 74.175C71.1042 74.1331 71.067 74.0887 71.0326 74.0421C70.9687 74.1466 70.9421 74.2697 70.9573 74.3913C70.9897 74.5086 71.0545 74.6143 71.1442 74.6963C71.6767 75.2703 72.3302 75.7178 73.057 76.0059C73.7838 76.294 74.5655 76.4156 75.345 76.3616C75.3009 76.1896 75.2567 76.0202 75.2152 75.8404C74.457 75.8754 73.7002 75.7446 72.9973 75.457C72.2944 75.1695 71.6621 74.7321 71.1442 74.175Z" fill="black"/>
<path opacity="0.1" d="M73.3899 63.414C73.3886 63.4045 73.3886 63.3949 73.3899 63.3854C73.5378 62.4263 72.746 61.5923 71.9489 61.0398C71.3411 60.6167 70.6814 60.2742 69.9861 60.0208C69.5591 59.8672 69.1169 59.7598 68.6672 59.7002C67.8287 59.5865 66.9753 59.6823 66.1825 59.9791C65.8544 60.1033 65.5437 60.2698 65.2583 60.4742C65.0882 60.5822 64.9466 60.7297 64.8455 60.9043C64.7622 61.1008 64.7249 61.3139 64.7364 61.5272C64.7364 61.707 64.7364 61.8868 64.7364 62.0692V62.0484C64.7249 61.8351 64.7622 61.6221 64.8455 61.4255C64.9466 61.2509 65.0882 61.1034 65.2583 60.9955C65.5437 60.791 65.8544 60.6246 66.1825 60.5003C66.9753 60.2035 67.8287 60.1077 68.6672 60.2214C69.1169 60.281 69.5591 60.3885 69.9861 60.542C70.6814 60.7954 71.3411 61.1379 71.9489 61.561C72.611 62.0093 73.2626 62.6556 73.3899 63.414Z" fill="black"/>
<path opacity="0.1" d="M64.3377 64.6624C64.0781 65.1602 63.6368 65.5641 63.4213 66.0906C63.3331 66.3096 63.2779 66.5406 63.2577 66.776C63.2317 67.0201 63.2187 67.2655 63.2188 67.511C63.2188 67.7325 63.2188 67.9566 63.2188 68.1808C63.2188 68.1313 63.2188 68.0817 63.2188 68.0322C63.2187 67.7867 63.2317 67.5414 63.2577 67.2973C63.2779 67.0619 63.3331 66.8309 63.4213 66.6118C63.6368 66.0906 64.0677 65.6814 64.3377 65.1836C64.7558 64.4018 64.748 63.5026 64.7402 62.6087C64.7747 63.316 64.6365 64.0209 64.3377 64.6624Z" fill="black"/>
</g>
<path opacity="0.1" d="M74.6989 61.6965C74.6632 61.7476 74.6213 61.794 74.5743 61.8347C74.4827 61.9104 74.3803 61.9719 74.2705 62.0171C73.515 62.3455 73.5462 61.2743 73.1515 60.9069C72.8984 60.7195 72.5879 60.6273 72.274 60.6462C71.5141 60.608 70.7534 60.5741 69.9918 60.5446C68.7222 60.4977 67.4552 60.4742 66.1882 60.5029C65.5807 60.5133 64.9749 60.5385 64.3708 60.5785C63.6698 60.6254 62.9169 60.7166 62.3198 61.0502C62.1153 61.1631 61.9304 61.3083 61.7719 61.4802C61.6291 61.6366 61.4786 61.8347 61.2812 61.8712C61.4235 61.0185 61.7978 60.2219 62.3627 59.5692C62.9276 58.9166 63.6612 58.4334 64.4825 58.173C65.8121 57.1789 67.4729 56.739 69.118 56.9455C70.7631 57.1519 72.265 57.9886 73.3099 59.2806C73.7701 59.6689 74.1374 60.1561 74.3848 60.7062C74.5238 61.0243 74.6291 61.3563 74.6989 61.6965Z" fill="black"/>
<path d="M74.2696 61.4959C73.5141 61.8243 73.5452 60.7531 73.1506 60.3857C72.8975 60.1983 72.5869 60.1061 72.273 60.125C69.6421 59.9513 67.0034 59.9287 64.3699 60.0573C63.4327 60.1198 62.4045 60.2606 61.7736 60.959C61.6127 61.1362 61.4439 61.3656 61.2024 61.3578C61.122 60.8365 61.0648 60.2945 61.0259 59.7602C61.0023 59.56 61.0129 59.3573 61.057 59.1607C61.122 58.9366 61.2699 58.7464 61.3452 58.5274C61.4194 58.249 61.4457 57.9599 61.4231 57.6726C61.4345 56.6093 61.7192 55.567 62.2495 54.6465C62.7799 53.7261 63.5379 52.9586 64.4504 52.4185C64.6794 52.3061 64.8918 52.1622 65.0813 51.9911C65.1471 51.9124 65.2192 51.8392 65.2968 51.7722C65.4467 51.6794 65.6224 51.6374 65.7979 51.6523C65.9225 51.6523 66.0575 51.6523 66.1666 51.6523C66.5023 51.6152 66.8306 51.5273 67.1402 51.3917C67.426 51.2684 67.7353 51.2097 68.0463 51.2197C68.3763 51.2801 68.694 51.3955 68.9861 51.5611C69.1266 51.629 69.2736 51.6823 69.4249 51.72C69.6612 51.7748 69.9052 51.7722 70.1415 51.8191C70.5242 51.9169 70.8876 52.079 71.2163 52.2986C71.6087 52.511 71.9718 52.7738 72.2964 53.0805C72.6494 53.4854 72.932 53.9471 73.1324 54.4461C73.4763 55.1356 73.7377 55.8634 73.9113 56.6145C74.1216 57.6935 74.0178 58.861 74.5162 59.841C74.82 60.456 75.0978 61.1389 74.2696 61.4959Z" fill="#FED253"/>
<path opacity="0.1" d="M61.1094 60.6776C61.1094 60.6776 66.4915 55.7623 74.5063 59.8384C74.5063 59.8384 65.4582 57.7716 61.1094 60.6776Z" fill="black"/>
<path d="M2.46463 85.7935C1.73248 84.5894 0.631648 83.487 0.803004 82.1213C2.81773 82.3533 4.7286 81.8607 6.57457 81.0033C8.42053 80.1458 10.1341 79.033 11.8632 77.941C12.5435 77.511 13.2211 77.0888 13.8961 76.6978C14.9658 76.0828 16.0277 75.3947 17.1155 74.7927C18.6733 73.9327 20.2622 73.229 22.0121 73.0935C22.3291 73.0686 22.6472 73.0608 22.965 73.07C25.1199 73.1117 27.3527 73.6929 29.248 72.7234L29.3649 72.6608C30.4397 72.0692 31.2212 71.0632 32.1429 70.2475C32.8055 69.6722 33.527 69.169 34.2952 68.7463C35.6946 67.9645 37.2109 67.339 38.6414 66.6014C39.0076 66.4121 39.3553 66.1887 39.6799 65.9342L39.924 65.7388L39.9785 65.6919C40.0382 65.6423 40.0979 65.5928 40.1551 65.5407L40.2667 65.4417L40.3809 65.3374L40.4692 65.254L40.612 65.1185L40.6276 65.1003L40.8535 64.8761L40.9443 64.7849L41.1027 64.6207L41.1962 64.5269C41.3545 64.3627 41.5129 64.1959 41.6739 64.0343C41.8349 63.8727 42.053 63.6538 42.2477 63.474L42.4346 63.3072L42.4891 63.2603L42.6397 63.1352L42.7098 63.0752L42.8578 62.9606L42.9305 62.9032C43.0032 62.8485 43.0785 62.7964 43.1538 62.7442C43.2231 62.6961 43.296 62.6534 43.3719 62.6165L42.8864 61.4359L44.2832 60.8574L63.5477 107.782L62.1483 108.361L51.1296 81.5167L51.0517 81.5949C48.4992 84.1233 45.3726 85.9908 41.9413 87.0366H41.9205C40.0019 87.6178 37.8547 88.0296 36.2398 89.1086C35.6672 89.4822 35.1696 89.9605 34.7729 90.5185C34.3939 91.0606 34.1291 91.6783 33.7344 92.1995C33.6591 92.296 33.576 92.3898 33.493 92.4784C33.0208 92.9482 32.4984 93.3643 31.9352 93.7189L31.6885 93.8883C30.0158 95.0698 28.273 96.1482 26.47 97.1174C25.4295 97.6611 24.3446 98.1145 23.2272 98.4726C22.4146 98.7333 21.576 98.9235 20.7633 99.1815C20.2167 99.3477 19.6858 99.5622 19.177 99.8227C17.801 100.545 16.7443 101.676 15.7447 102.882C14.8697 103.94 14.0389 105.061 13.0783 106.025C12.4759 106.625 11.5595 107.193 10.8325 106.841L10.6845 106.755C10.7079 106.716 10.726 106.677 10.7468 106.635C11.3206 105.429 10.6144 103.938 9.66416 102.971C9.5655 102.869 9.46425 102.77 9.36039 102.676C9.25654 102.583 9.06961 102.416 8.92162 102.286C8.10898 101.584 7.24441 100.933 6.68102 100.029C6.251 99.2689 5.95913 98.4385 5.81905 97.5761C5.55942 96.3486 5.38546 95.0846 4.72081 94.0395C4.28464 93.3489 3.63556 92.7599 3.16304 92.0979C2.86434 91.7061 2.66799 91.2456 2.59185 90.7583C2.4854 89.9113 2.87744 89.0825 3.02543 88.2381C3.06946 88.008 3.08775 87.7738 3.07995 87.5396C3.02572 86.9146 2.81397 86.3137 2.46463 85.7935Z" fill="url(#paint0_linear_224_6211)"/>
<path d="M61.6578 107.958L63.0332 107.389L44.0897 61.2531L42.7143 61.8222L61.6578 107.958Z" fill="#D6D8E1"/>
<path d="M5.18501 93.8753C5.83668 94.9048 6.01064 96.1453 6.26248 97.352C6.40216 98.2002 6.68954 99.0172 7.11146 99.7654C7.66707 100.654 8.51606 101.295 9.31312 101.983C9.45852 102.111 9.60391 102.244 9.74411 102.369C9.84536 102.46 9.94662 102.559 10.0427 102.656C10.9773 103.607 11.6706 105.074 11.1072 106.26C11.0899 106.3 11.0699 106.34 11.0474 106.377C11.0931 106.408 11.1408 106.436 11.1902 106.461C11.9068 106.81 12.8077 106.252 13.3997 105.661C14.3447 104.712 15.1626 103.612 16.0219 102.572C17.0033 101.384 18.0445 100.271 19.3971 99.5621C19.8965 99.3053 20.4178 99.0942 20.9549 98.9314C21.752 98.6707 22.5776 98.4857 23.3773 98.2355C24.4756 97.8829 25.5422 97.4374 26.5655 96.9037C28.3413 95.9497 30.0579 94.8888 31.7062 93.7268L31.9502 93.56C32.5037 93.2118 33.0174 92.8037 33.482 92.3429C33.5651 92.2543 33.6456 92.1631 33.7209 92.0666C34.1207 91.5454 34.3829 90.9486 34.7594 90.4143C35.1498 89.8655 35.6395 89.3951 36.203 89.0278C37.7919 87.9671 39.9001 87.5605 41.7876 86.9898H41.8084C45.1813 85.9598 48.2549 84.1238 50.7656 81.6392C50.9737 81.4647 51.1292 81.2355 51.2147 80.9773C51.2952 80.6098 51.0979 80.2449 50.9084 79.9217C50.6877 79.5412 50.4722 79.1607 50.2593 78.775C49.3018 77.0258 48.447 75.2218 47.6993 73.3724C47.5358 72.9658 47.3774 72.5618 47.2242 72.1527C46.8313 71.1102 46.473 70.0529 46.1494 68.9809C46.0429 68.6265 45.9391 68.2694 45.8404 67.9124C45.8222 67.8446 45.8015 67.7716 45.7833 67.6935C45.3523 65.9551 44.7759 61.8868 43.0001 63.1039C42.4719 63.483 41.9807 63.9115 41.5331 64.3836C41.1878 64.7354 40.8503 65.0977 40.4946 65.4469C40.2049 65.7329 39.8989 66.0018 39.5781 66.2522C39.2526 66.5024 38.905 66.7223 38.5396 66.909C37.1298 67.6335 35.6396 68.2408 34.2661 69.0174C33.5098 69.4323 32.7996 69.9268 32.1475 70.4925C31.2414 71.2952 30.4729 72.2856 29.4162 72.8668L29.302 72.9293C27.4379 73.8806 25.244 73.3098 23.1228 73.2681C22.8111 73.2602 22.4991 73.2681 22.1882 73.2916C20.4668 73.4219 18.8934 74.1151 17.372 74.9621C16.3023 75.5564 15.2586 76.2288 14.2071 76.836C13.5425 77.2191 12.8778 77.6335 12.208 78.0583C10.51 79.1321 8.78867 80.2579 7.0154 81.0711C5.198 81.8999 3.32087 82.395 1.3399 82.1683C1.17114 83.5105 2.2512 84.5947 2.97297 85.7779C3.31963 86.2865 3.52978 86.8762 3.5831 87.4902C3.59264 87.7198 3.57609 87.9497 3.53377 88.1756C3.38838 89.007 3.01451 89.8201 3.10798 90.6567C3.18165 91.1337 3.3736 91.5845 3.66618 91.9676C4.11794 92.6165 4.75403 93.1977 5.18501 93.8753Z" fill="#F86D70"/>
<path d="M57.9704 99.304C57.9704 99.304 60.2447 101.295 62.5502 102.356C64.8557 103.417 63.3291 107.222 63.3291 107.222C63.3291 107.222 60.886 107.785 59.175 105.397C57.4641 103.01 57.9704 99.304 57.9704 99.304Z" fill="#FBBEBE"/>
<path d="M180.526 133.198C180.526 133.198 174.502 141.154 169.504 141.22C164.507 141.285 161.573 144.571 163.946 146.625C166.319 148.678 192.178 145.452 192.178 145.452C192.178 145.452 192.422 135.674 190.181 134.245C187.941 132.817 180.526 133.198 180.526 133.198Z" fill="#444176"/>
<path d="M245.29 142.749C245.29 142.749 246.212 149.051 243.363 153.349C240.515 157.646 248.509 159.304 248.509 159.304C248.509 159.304 254.317 160.928 254.74 155.168C255.164 149.408 255.026 145.004 254.481 144.535C253.936 144.065 253.481 140.826 253.481 140.826L245.29 142.749Z" fill="#444176"/>
<path d="M154.108 154.652C154.108 154.652 153.897 134.269 173.99 125.984L178.655 117.073L180.893 111.6C181.704 109.618 182.979 107.861 184.61 106.479C186.241 105.097 188.181 104.131 190.264 103.662L193.883 102.846L195.002 98.113C195.598 95.5832 196.919 93.2839 198.802 91.499C200.685 89.7141 203.047 88.5216 205.597 88.0687C207.798 87.6586 210.031 87.4493 212.27 87.4432C213.26 87.4582 214.23 87.7301 215.085 88.2324C215.939 88.7347 216.65 89.4505 217.148 90.3101C217.148 90.3101 236.184 90.099 237.028 100.503C237.028 100.503 238.934 110.055 241.683 111.754C241.683 111.754 246.336 110.693 250.988 117.487L256.064 134.897C256.064 134.897 269.388 147.422 265.369 158.874C265.369 158.874 259.87 166.729 231.952 161.42C231.952 161.42 202.131 170.542 186.257 158.032C186.255 158.048 159.819 163.143 154.108 154.652Z" fill="#A8A8A8"/>
<path opacity="0.1" d="M167.432 151.467C167.432 151.467 171.664 145.522 171.451 141.274C171.238 137.026 172.448 126.68 172.448 126.68" stroke="black" stroke-miterlimit="10"/>
<path opacity="0.1" d="M182.873 135.543C182.873 135.543 187.102 127.688 186.679 123.443C186.679 123.443 191.121 115.363 194.504 116.01" stroke="black" stroke-miterlimit="10"/>
<path opacity="0.1" d="M206.139 113.25C206.139 113.25 217.77 109.004 218.406 105.608" stroke="black" stroke-miterlimit="10"/>
<path opacity="0.1" d="M210.367 123.018C210.367 123.018 222.635 117.498 222.635 116.01H228.765C228.765 116.01 237.649 127.688 236.592 132.783" stroke="black" stroke-miterlimit="10"/>
<path opacity="0.1" d="M224.752 131.509C224.752 131.509 212.907 130.659 208.676 134.058C204.444 137.456 196.831 139.153 196.831 139.153C196.831 139.153 192.389 148.707 190.696 150.404C189.003 152.1 186.254 158.048 186.254 158.048" stroke="black" stroke-miterlimit="10"/>
<path opacity="0.1" d="M224.75 142.762C224.75 142.762 226.017 147.219 227.71 149.768C229.403 152.317 231.939 161.444 231.939 161.444" stroke="black" stroke-miterlimit="10"/>
<path opacity="0.1" d="M244.631 155.713C244.631 155.713 247.315 163.211 249.675 163.284" stroke="black" stroke-miterlimit="10"/>
<path opacity="0.1" d="M227.047 123.529C227.047 123.529 234.021 125.421 236.936 130.005C239.852 134.589 248.757 138.746 248.757 138.746" stroke="black" stroke-miterlimit="10"/>
<path opacity="0.1" d="M230.037 100.943C230.037 100.943 230.037 110.709 232.787 110.709C235.536 110.709 241.671 111.769 241.671 111.769" stroke="black" stroke-miterlimit="10"/>
<path opacity="0.1" d="M216.563 89.3458C216.563 89.3458 215.86 106.216 212.264 110.584" stroke="black" stroke-miterlimit="10"/>
<g opacity="0.05">
<path opacity="0.05" d="M255.627 134.694L250.551 117.284C245.899 110.49 241.246 111.551 241.246 111.551C238.497 109.851 236.594 100.297 236.594 100.297C235.747 89.893 216.711 90.1067 216.711 90.1067C216.213 89.2457 215.5 88.529 214.643 88.0265C213.786 87.5241 212.815 87.2531 211.822 87.2399C210.924 87.2399 210.005 87.2686 209.086 87.3442C209.605 87.3963 210.103 87.4701 210.579 87.5657L212.059 90.1146C212.059 90.1146 231.092 89.9009 231.939 100.305C231.939 100.305 233.844 109.859 236.594 111.558C236.594 111.558 241.246 110.495 245.899 117.292L250.975 134.701C250.975 134.701 264.299 147.227 260.28 158.678C260.28 158.678 257.567 162.554 246.28 163.023C261.497 163.583 264.932 158.678 264.932 158.678C268.951 147.219 255.627 134.694 255.627 134.694Z" fill="black"/>
<path opacity="0.05" d="M181.179 157.834C176.702 158.643 172.174 159.14 167.629 159.322C172.928 159.525 178.44 158.95 181.992 158.46C181.716 158.248 181.446 158.045 181.179 157.834Z" fill="black"/>
<path opacity="0.05" d="M226.863 161.233C220.352 163.066 213.65 164.129 206.893 164.402C216.642 164.756 225.877 162.715 229.683 161.736C228.764 161.582 227.832 161.407 226.863 161.233Z" fill="black"/>
</g>
<path d="M57.8594 194.347C57.8594 194.347 63.6777 194.167 65.4302 192.913C67.1827 191.66 74.377 190.164 74.8132 192.173C75.2494 194.183 83.5549 202.168 76.9863 202.223C70.4176 202.278 61.7279 201.196 59.978 200.125C58.228 199.054 57.8594 194.347 57.8594 194.347Z" fill="#A8A8A8"/>
<path opacity="0.2" d="M77.1057 201.522C70.5371 201.577 61.8447 200.495 60.0948 199.437C58.7629 198.621 58.2306 195.697 58.0541 194.349H57.8594C57.8594 194.349 58.2281 199.059 59.978 200.127C61.7279 201.196 70.4203 202.278 76.9863 202.225C78.8842 202.21 79.5385 201.532 79.5021 200.529C79.2399 201.133 78.5155 201.511 77.1057 201.522Z" fill="black"/>
<path d="M199.704 179.7C199.704 179.7 192.852 178.324 191.027 176.489C189.202 174.654 180.979 171.449 180.065 173.74C179.152 176.031 167.736 183.826 175.499 185.207C183.261 186.588 193.766 187.031 196.051 186.124C198.336 185.217 199.704 179.7 199.704 179.7Z" fill="#A8A8A8"/>
<path opacity="0.2" d="M175.499 184.342C183.264 185.715 193.766 186.166 196.051 185.256C197.788 184.558 198.998 181.204 199.476 179.643L199.704 179.692C199.704 179.692 198.333 185.191 196.051 186.109C193.769 187.026 183.264 186.567 175.499 185.191C173.258 184.795 172.617 183.862 172.858 182.684C173.051 183.461 173.832 184.052 175.499 184.342Z" fill="black"/>
<path opacity="0.1" d="M134.099 29.9322H132.469C132.772 29.9322 133.062 29.8114 133.277 29.5963C133.491 29.3813 133.611 29.0896 133.611 28.7855C133.611 28.4813 133.491 28.1897 133.277 27.9746C133.062 27.7595 132.772 27.6387 132.469 27.6387H119.259C118.956 27.6387 118.665 27.7595 118.451 27.9746C118.237 28.1897 118.117 28.4813 118.117 28.7855C118.117 29.0896 118.237 29.3813 118.451 29.5963C118.665 29.8114 118.956 29.9322 119.259 29.9322H120.889C120.596 29.9462 120.32 30.073 120.117 30.2863C119.914 30.4996 119.801 30.7829 119.801 31.0776C119.801 31.3723 119.914 31.6556 120.117 31.8689C120.32 32.0822 120.596 32.209 120.889 32.223H118.607C118.304 32.223 118.014 32.3439 117.799 32.5589C117.585 32.774 117.465 33.0656 117.465 33.3698C117.465 33.6739 117.585 33.9656 117.799 34.1806C118.014 34.3957 118.304 34.5165 118.607 34.5165H131.817C132.12 34.5165 132.411 34.3957 132.625 34.1806C132.839 33.9656 132.96 33.6739 132.96 33.3698C132.96 33.0656 132.839 32.774 132.625 32.5589C132.411 32.3439 132.12 32.223 131.817 32.223H134.099C134.254 32.2304 134.408 32.2063 134.553 32.1521C134.698 32.0978 134.83 32.0147 134.942 31.9076C135.054 31.8005 135.143 31.6717 135.204 31.529C135.265 31.3864 135.296 31.2328 135.296 31.0776C135.296 30.9224 135.265 30.7688 135.204 30.6262C135.143 30.4835 135.054 30.3547 134.942 30.2477C134.83 30.1406 134.698 30.0574 134.553 30.0032C134.408 29.9489 134.254 29.9248 134.099 29.9322Z" fill="#D03737"/>
<path opacity="0.1" d="M185.407 70.2788H183.777C184.07 70.2647 184.347 70.1379 184.549 69.9247C184.752 69.7114 184.865 69.428 184.865 69.1334C184.865 68.8387 184.752 68.5553 184.549 68.3421C184.347 68.1288 184.07 68.002 183.777 67.9879H170.554C170.399 67.9805 170.245 68.0047 170.1 68.0589C169.955 68.1131 169.823 68.1963 169.711 68.3034C169.599 68.4105 169.51 68.5393 169.449 68.6819C169.388 68.8246 169.357 68.9782 169.357 69.1334C169.357 69.2886 169.388 69.4421 169.449 69.5848C169.51 69.7275 169.599 69.8562 169.711 69.9633C169.823 70.0704 169.955 70.1536 170.1 70.2078C170.245 70.262 170.399 70.2862 170.554 70.2788H172.184C171.891 70.2928 171.614 70.4196 171.412 70.6329C171.209 70.8462 171.096 71.1295 171.096 71.4242C171.096 71.7189 171.209 72.0022 171.412 72.2155C171.614 72.4288 171.891 72.5556 172.184 72.5696H169.902C169.599 72.5696 169.309 72.6904 169.094 72.9055C168.88 73.1206 168.76 73.4122 168.76 73.7164C168.76 74.0205 168.88 74.3122 169.094 74.5272C169.309 74.7423 169.599 74.8631 169.902 74.8631H183.109C183.412 74.8631 183.703 74.7423 183.917 74.5272C184.132 74.3122 184.252 74.0205 184.252 73.7164C184.252 73.4122 184.132 73.1206 183.917 72.9055C183.703 72.6904 183.412 72.5696 183.109 72.5696H185.407C185.562 72.577 185.716 72.5529 185.861 72.4987C186.006 72.4444 186.138 72.3613 186.25 72.2542C186.362 72.1471 186.451 72.0183 186.512 71.8756C186.573 71.733 186.604 71.5794 186.604 71.4242C186.604 71.269 186.573 71.1154 186.512 70.9728C186.451 70.8301 186.362 70.7013 186.25 70.5943C186.138 70.4872 186.006 70.404 185.861 70.3498C185.716 70.2955 185.562 70.2714 185.407 70.2788Z" fill="#D03737"/>
<path opacity="0.1" d="M109.38 62.8146H107.749C107.904 62.822 108.058 62.7979 108.203 62.7436C108.348 62.6894 108.48 62.6062 108.592 62.4991C108.704 62.3921 108.793 62.2633 108.854 62.1206C108.915 61.978 108.946 61.8244 108.946 61.6692C108.946 61.514 108.915 61.3604 108.854 61.2178C108.793 61.0751 108.704 60.9463 108.592 60.8392C108.48 60.7321 108.348 60.649 108.203 60.5947C108.058 60.5405 107.904 60.5164 107.749 60.5238H94.5369C94.3824 60.5164 94.2281 60.5405 94.0833 60.5947C93.9384 60.649 93.806 60.7321 93.6941 60.8392C93.5822 60.9463 93.4932 61.0751 93.4323 61.2178C93.3714 61.3604 93.3401 61.514 93.3401 61.6692C93.3401 61.8244 93.3714 61.978 93.4323 62.1206C93.4932 62.2633 93.5822 62.3921 93.6941 62.4991C93.806 62.6062 93.9384 62.6894 94.0833 62.7436C94.2281 62.7979 94.3824 62.822 94.5369 62.8146H96.1673C96.0129 62.8072 95.8586 62.8314 95.7137 62.8856C95.5689 62.9398 95.4365 63.023 95.3246 63.1301C95.2127 63.2372 95.1236 63.3659 95.0628 63.5086C95.0019 63.6513 94.9705 63.8048 94.9705 63.96C94.9705 64.1152 95.0019 64.2688 95.0628 64.4115C95.1236 64.5541 95.2127 64.6829 95.3246 64.79C95.4365 64.8971 95.5689 64.9803 95.7137 65.0345C95.8586 65.0887 96.0129 65.1128 96.1673 65.1054H93.8826C93.5796 65.1054 93.2891 65.2263 93.0748 65.4413C92.8606 65.6564 92.7402 65.948 92.7402 66.2522C92.7402 66.5563 92.8606 66.848 93.0748 67.063C93.2891 67.2781 93.5796 67.3989 93.8826 67.3989H107.093C107.396 67.3989 107.686 67.2781 107.9 67.063C108.115 66.848 108.235 66.5563 108.235 66.2522C108.235 65.948 108.115 65.6564 107.9 65.4413C107.686 65.2263 107.396 65.1054 107.093 65.1054H109.375C109.529 65.1128 109.683 65.0887 109.828 65.0345C109.973 64.9803 110.106 64.8971 110.217 64.79C110.329 64.6829 110.418 64.5541 110.479 64.4115C110.54 64.2688 110.572 64.1152 110.572 63.96C110.572 63.8048 110.54 63.6513 110.479 63.5086C110.418 63.3659 110.329 63.2372 110.217 63.1301C110.106 63.023 109.973 62.9398 109.828 62.8856C109.683 62.8314 109.529 62.8072 109.375 62.8146H109.38Z" fill="#D03737"/>
</g>
<defs>
<linearGradient id="paint0_linear_224_6211" x1="-188298" y1="17080.3" x2="-203475" y2="17080.3" gradientUnits="userSpaceOnUse">
<stop stop-color="#808080" stop-opacity="0.25"/>
<stop offset="0.54" stop-color="#808080" stop-opacity="0.12"/>
<stop offset="1" stop-color="#808080" stop-opacity="0.1"/>
</linearGradient>
<clipPath id="clip0_224_6211">
<rect width="268" height="217" fill="white"/>
</clipPath>
</defs>
</svg>
