<svg xmlns="http://www.w3.org/2000/svg" width="14.001" height="26" viewBox="0 0 14.001 26"><defs><style>.a{fill:#0c263d;}.b{fill:#fff;}</style></defs><g transform="translate(-138 -1703)"><path class="a" d="M-3307.187,17A1.866,1.866,0,0,1-3309,15.09V-7.091A1.866,1.866,0,0,1-3307.187-9h10.372A1.866,1.866,0,0,1-3295-7.091V15.091A1.866,1.866,0,0,1-3296.814,17Zm-.99-6.067h12.354V-5.533h-12.354Z" transform="translate(3447 1712)"/><circle class="b" cx="1" cy="1" r="1" transform="translate(144 1725)"/><path class="b" d="M25.444,3.888h1.777a.444.444,0,1,0,0-.888H25.444a.444.444,0,0,0,0,.888Z" transform="translate(117.758 1701.333)"/><path class="b" d="M32.444,3.888h.444a.444.444,0,1,0,0-.888h-.444a.444.444,0,0,0,0,.888Z" transform="translate(113.921 1701.333)"/></g></svg> 