<svg xmlns="http://www.w3.org/2000/svg" width="206.391" height="173.887" viewBox="0 0 206.391 173.887"><defs><style>.a{fill:#eee;}.b{fill:none;stroke:#9f6a9d;stroke-miterlimit:10;stroke-width:3px;}.c{fill:#2f2e41;}.d,.f{opacity:0.1;}.e{fill:#fbbebe;}.g{fill:#00afff;}</style></defs><g transform="translate(0 1.489)"><g transform="translate(2)"><path class="a" d="M379.195,325.2a1.413,1.413,0,0,0,.256-.787c0-1.714-3.49-3.1-7.794-3.1s-7.788,1.4-7.788,3.1a1.491,1.491,0,0,0,.319.894c-4.79.534-8.018,1.538-8.018,2.682,0,1.711,7.153,3.1,15.961,3.1s15.961-1.386,15.961-3.1C388.089,326.758,384.464,325.7,379.195,325.2Z" transform="translate(-358.17 -257.016)"/><path class="a" d="M762.261,108.863a2.269,2.269,0,0,0,.408-1.255c0-2.715-5.538-4.918-12.369-4.918s-12.369,2.2-12.369,4.918a2.327,2.327,0,0,0,.51,1.4c-7.606.849-12.73,2.441-12.73,4.265,0,2.715,11.326,4.918,25.335,4.918s25.335-2.2,25.335-4.918C776.379,111.337,770.624,109.664,762.261,108.863Z" transform="translate(-571.988 -92.832)"/><path class="a" d="M429.26,108.863a2.268,2.268,0,0,0,.408-1.255c0-2.715-5.538-4.918-12.369-4.918s-12.369,2.2-12.369,4.918a2.328,2.328,0,0,0,.51,1.4c-7.606.849-12.73,2.441-12.73,4.265,0,2.715,11.341,4.918,25.335,4.918s25.335-2.2,25.335-4.918C443.379,111.337,437.624,109.664,429.26,108.863Z" transform="translate(-377.719 -102.475)"/><path class="b" d="M410.13,202.359a1.712,1.712,0,0,1,2.11.629,5.048,5.048,0,0,1,.733,2.274c.265,1.762.456,3.785-.73,5.115a16.625,16.625,0,0,1,13.711-11.067" transform="translate(-403.082 -170.297)"/><path class="b" d="M671.6,106.88a1.119,1.119,0,0,1,1.359.4,3.191,3.191,0,0,1,.468,1.463c.17,1.133.3,2.432-.468,3.279a10.688,10.688,0,0,1,8.807-7.115" transform="translate(-533.919 -104.91)"/><path class="b" d="M843.6,291.88a1.119,1.119,0,0,1,1.359.4,3.189,3.189,0,0,1,.468,1.463c.17,1.133.3,2.432-.468,3.279a10.688,10.688,0,0,1,8.808-7.115" transform="translate(-681.051 -234.943)"/></g><g transform="translate(27 18.011)"><path class="c" d="M541.8,154.177c-1.024.857-1.747,1.955-2.871,2.728a17.132,17.132,0,0,1-4.785,1.787c-1.653.5-3.35,1.285-4.015,2.646-.565,1.165-.239,2.517-.718,3.709-.514,1.266-1.849,2.153-2.871,3.175a8.194,8.194,0,0,0-2.393,7.369c.361,1.787,1.349,3.438,1.936,5.182a23.787,23.787,0,0,1,.919,6.584c.187,4.156.371,8.353-.565,12.442-.239,1.026-.885,16.633-2.137,16.6,3.321-.285,6.661-.316,10-.349l50.006-.479c-2.3-3.015-3.776-20.83-4.264-24.383-.842-6.125,1.2-12.257,1.436-18.423a5.225,5.225,0,0,0-.294-2.357,19.6,19.6,0,0,1-1.263-2.261c-.33-1.16.333-2.35.354-3.541.043-2.393-2.393-4.228-4.323-6-1.861-1.706-3.409-3.644-5.331-5.307a12.867,12.867,0,0,0-7.082-3.328,19.175,19.175,0,0,0-6.659.957c-2.577.689-5.025,1.56-7.759,1.517C546.1,152.395,544.239,152.646,541.8,154.177Z" transform="translate(-476.111 -149.931)"/><g class="d" transform="translate(51.362 12.865)"><path d="M742.077,204.506a3.34,3.34,0,0,0,.3.751,4.416,4.416,0,0,0-.385-1.558A2.87,2.87,0,0,0,742.077,204.506Z" transform="translate(-693.304 -203.7)"/><path d="M538.778,367.64l-.277.024A1.306,1.306,0,0,0,538.778,367.64Z" transform="translate(-538.5 -328.416)"/></g><path class="e" d="M589.8,631.7a2.109,2.109,0,0,1-1.053.428,126.575,126.575,0,0,1-18.528,2.668,159.391,159.391,0,0,1-16.528-.239,106.309,106.309,0,0,1-16.38-1.656,41.744,41.744,0,0,0,4.139-14.31,42.252,42.252,0,0,0,.165-6.58,7.37,7.37,0,0,0-.1-.787c-.256-1.574-.888-3.854-.313-4.993.737-1.464,3.567-1.512,4.95-1.785,2.349-.462,4.711-.847,7.082-1.17a270.729,270.729,0,0,1,28.4-1.857c1.273-.038,2.79.048,3.453,1.137a3.778,3.778,0,0,1,.333,2.086q-.065,2.323.045,4.646a62.149,62.149,0,0,0,4.35,20.019C590.132,630.089,590.421,631.113,589.8,631.7Z" transform="translate(-486.237 -493.887)"/><path class="e" d="M571.761,345.969a11.542,11.542,0,0,1-3.828,2.787,47.824,47.824,0,0,1-5.228,2.316,1.883,1.883,0,0,0,.239,1.859c2.807,5.45,6.563,10.867,12.229,13.21a31.417,31.417,0,0,0,9.231,1.775,8.94,8.94,0,0,0,2.924-.062,7.534,7.534,0,0,0,2.632-1.4,24.55,24.55,0,0,0,9.5-16.205c.076-.572.076-1.273-.414-1.579a1.917,1.917,0,0,0-1.031-.146c-2.294.024-4.328-1.675-5.388-3.706a18.852,18.852,0,0,1-1.6-6.654c0-.05-13.49-.335-14.707-.345-1.9-.017-2.527.206-2.711,2.153C573.415,342.119,573.175,344.218,571.761,345.969Z" transform="translate(-505.422 -293.069)"/><path class="f" d="M571.761,345.969a11.542,11.542,0,0,1-3.828,2.787,47.824,47.824,0,0,1-5.228,2.316,1.883,1.883,0,0,0,.239,1.859c2.807,5.45,6.563,10.867,12.229,13.21a31.417,31.417,0,0,0,9.231,1.775,8.94,8.94,0,0,0,2.924-.062,7.534,7.534,0,0,0,2.632-1.4,24.55,24.55,0,0,0,9.5-16.205c.076-.572.076-1.273-.414-1.579a1.917,1.917,0,0,0-1.031-.146c-2.294.024-4.328-1.675-5.388-3.706a18.852,18.852,0,0,1-1.6-6.654c0-.05-13.49-.335-14.707-.345-1.9-.017-2.527.206-2.711,2.153C573.415,342.119,573.175,344.218,571.761,345.969Z" transform="translate(-505.422 -293.069)"/><ellipse class="e" cx="18.423" cy="18.423" rx="18.423" ry="18.423" transform="translate(58.635 13.616)"/><path class="g" d="M445.081,373.257c.2,2.584-27.568,5-28.616,1.816a2.468,2.468,0,0,1-2.673.479,20.027,20.027,0,0,1-2.536-1.371,15.51,15.51,0,0,0-4.644-1.3c-2.591-.438-5.6-.758-7.52,1.038-.663.62-1.115,1.436-1.78,2.058-1.163,1.081-2.807,1.419-4.307,1.914a50.214,50.214,0,0,0-6.206,2.871,55,55,0,0,1-15.119,4.886c-1.117.189-2.242.342-3.35.608a7.9,7.9,0,0,0-4.17,2.211,9.837,9.837,0,0,0,4.931,3.072l18.447,6.029a32.087,32.087,0,0,1,8.022,3.457c4.046,2.7,6.678,7.135,8.118,11.779s1.811,9.544,2.17,14.394c.156,2.108.828,21.271,0,23.223a48.442,48.442,0,0,0,12.92-.213c4.118-.627,8.19-1.79,12.355-1.751,4.546.045,8.951,1.519,13.432,2.316s9.427.821,13.2-1.723c-.8-1.084-1.457-19.6-1.488-20.941l-.1-6.372a9.455,9.455,0,0,1,.153-2.3,21.775,21.775,0,0,1,1.8-3.783c1.113-2.462.957-5.276,1.019-7.977s.44-5.6,2.266-7.58a9.408,9.408,0,0,1,4.57-2.474,47.545,47.545,0,0,1,8.944-1.038,80.076,80.076,0,0,0,28.233-7.353,5.536,5.536,0,0,0-2.893-2.28c-2.665-1.232-5.489-2.5-8.412-2.22-1.414.134-2.814.627-4.223.447a28.268,28.268,0,0,1-3.814-1.29,25.517,25.517,0,0,0-3.022-.467,26.9,26.9,0,0,1-6.673-2.266l-5.446-2.393a9.938,9.938,0,0,1-3.917-2.536c-.321-.4-.579-.849-.928-1.225a5.2,5.2,0,0,0-2.271-1.29,7.355,7.355,0,0,0-3.271-.359,19.233,19.233,0,0,0-2.237.586C452.455,374.92,448.741,373.91,445.081,373.257Z" transform="translate(-354.54 -319.778)"/><path class="c" d="M572.549,724.176a178.2,178.2,0,0,1-29.86,4.546h-25.3q-6.783-.462-13.37-1.412a47.513,47.513,0,0,1,5.314-10.934,5.726,5.726,0,0,0,.828-1.584,8.342,8.342,0,0,0,.16-1.606,7.773,7.773,0,0,1,1.828-4.484q.746.407,1.507.782a48.254,48.254,0,0,0,18.409,4.941,70.9,70.9,0,0,0,10.1-.2c7.575-.61,15.452-2.017,21.553-6.484.256-.187.51-.38.761-.579,2.964,2.632,4.68,6.666,5.907,10.437C571.121,719.8,571.8,722,572.549,724.176Z" transform="translate(-460.914 -574.335)"/><path class="f" d="M645.105,714.66a2.648,2.648,0,0,0,.364,2.3,1.864,1.864,0,0,0-.388-2.086Z" transform="translate(-568.145 -580.04)"/><path class="e" d="M547.232,388.311a6.564,6.564,0,0,1,2.988-.971,6.452,6.452,0,0,1,4.187,2.029,21.438,21.438,0,0,1,2.938,3.259,4.036,4.036,0,0,1,.907,1.955,1.59,1.59,0,0,1-1.041,1.713,1.835,1.835,0,0,1-1.29-.261c-1.637-.9-2.85-2.96-4.706-2.759-1.273.136-2.134,1.321-2.831,2.393a10.457,10.457,0,0,0-1.524,3.046,3.531,3.531,0,0,0,.627,3.225,6.135,6.135,0,0,0,2.287,1.3,15.941,15.941,0,0,1,4.874,3.163,4.044,4.044,0,0,1,1.436,2.393,1.705,1.705,0,0,1-1.577,1.943,2.523,2.523,0,0,1-1.17-.51,16.288,16.288,0,0,0-5.472-2.735,17.673,17.673,0,0,0-6.221.316q-3.393.507-6.819.723a5.7,5.7,0,0,1-2.027-.132c-2.259-.7-2.917-3.572-2.653-5.649.28-2.22,1.914-2.725,3.622-3.828C538.573,395.776,542.138,391.086,547.232,388.311Z" transform="translate(-480.714 -330.774)"/><path class="e" d="M640.646,388.311a6.574,6.574,0,0,0-2.991-.971,6.452,6.452,0,0,0-4.187,2.029,21.435,21.435,0,0,0-2.936,3.259,4.054,4.054,0,0,0-.9,1.955,1.589,1.589,0,0,0,1.038,1.713,1.842,1.842,0,0,0,1.292-.261c1.637-.9,2.85-2.96,4.7-2.759,1.275.136,2.137,1.321,2.831,2.393a10.4,10.4,0,0,1,1.524,3.046,3.538,3.538,0,0,1-.627,3.225,6.117,6.117,0,0,1-2.287,1.3,15.97,15.97,0,0,0-4.876,3.163,4.057,4.057,0,0,0-1.436,2.393,1.7,1.7,0,0,0,1.577,1.943,2.514,2.514,0,0,0,1.17-.51,16.289,16.289,0,0,1,5.472-2.735,17.673,17.673,0,0,1,6.221.316c2.256.354,4.532.6,6.812.737a5.714,5.714,0,0,0,2.029-.132c2.256-.7,2.914-3.572,2.653-5.649-.282-2.22-1.914-2.725-3.625-3.828C649.305,395.776,645.742,391.086,640.646,388.311Z" transform="translate(-556.479 -330.774)"/><path class="c" d="M580.463,213.778c1.072-1.694,2.345-3.531,4.084-3.728,2.428-.275,4.326,2.761,6.742,3.153,3.11.507,6.168-3.474,9.092-2.019,1.436.718,2.508,2.708,4.067,2.67,1.079-.024,1.957-1.036,2.673-2.029a37.843,37.843,0,0,0,3.194-5.292c-2.969-3.4-7.288-4.182-11.319-4.8l-6.778-1.041a13.6,13.6,0,0,0-4.914-.153,13.42,13.42,0,0,0-4.163,1.933c-1.584,1-5.309,2.594-6.281,4.445-.677,1.285.254,1.883,1.127,3.177Q579.219,211.935,580.463,213.778Z" transform="translate(-516.144 -188.299)"/><path class="f" d="M379.044,430.22a35.651,35.651,0,0,1-8.936.636,24.1,24.1,0,0,0-3.524-.074,28.891,28.891,0,0,0-4.144.94c-7.128,1.754-14.576.041-21.852-.921a12.022,12.022,0,0,0-3.871-.067,11.009,11.009,0,0,0-3.273,1.359,39.537,39.537,0,0,0-4.785,3.2c-1.586,1.239-3.187,2.818-3.3,4.826a5.969,5.969,0,0,0,2.232,4.493c3.445,3.189,8.561,4.149,13.174,3.285,1.754-.328,3.465-.892,5.237-1.089,1.816-.2,3.651,0,5.477-.086,3.709-.165,7.259-1.455,10.86-2.352a52.31,52.31,0,0,1,17.212-1.349.371.371,0,0,1-.51-.261,10.572,10.572,0,0,1-.438-3.68C378.625,436.072,378.766,433.22,379.044,430.22Z" transform="translate(-324.877 -363.421)"/><path class="g" d="M377.044,431.22a35.648,35.648,0,0,1-8.936.636,24.1,24.1,0,0,0-3.524-.074,28.889,28.889,0,0,0-4.144.94c-7.128,1.754-14.576.041-21.852-.921a12.021,12.021,0,0,0-3.871-.067,11.009,11.009,0,0,0-3.273,1.359,39.538,39.538,0,0,0-4.785,3.2c-1.586,1.239-3.187,2.818-3.3,4.826a5.969,5.969,0,0,0,2.232,4.493c3.445,3.189,8.561,4.149,13.174,3.285,1.754-.328,3.465-.892,5.237-1.089,1.816-.2,3.651,0,5.477-.086,3.709-.165,7.259-1.455,10.86-2.352a52.309,52.309,0,0,1,17.212-1.349.371.371,0,0,1-.51-.261,10.57,10.57,0,0,1-.438-3.68C376.625,437.072,376.766,434.22,377.044,431.22Z" transform="translate(-323.355 -364.182)"/><path class="f" d="M730,424.266c3.646.83,12.422,1.2,16.16,1.072,1.706-.053,3.407-.206,5.113-.2,2.924,0,5.843.479,8.759.285,3.768-.258,7.47-1.644,11.229-1.287a24.547,24.547,0,0,1,5.386,1.354c1.761.589,3.68,1.254,4.919,2.684A10.681,10.681,0,0,1,783.513,433a7.179,7.179,0,0,1,.239,2.9c-.356,1.821-2.034,3.053-3.644,3.972a12.3,12.3,0,0,1-6.221,1.979,13.891,13.891,0,0,1-3.828-.8c-3.572-1.122-7.223-2.393-10.956-2.113-2.61.2-5.218,1.163-7.786.644a29.95,29.95,0,0,1-4.307-1.636c-3.5-1.28-12.377-.94-16.085-.586.215-2.084.189-4.185.4-6.271a11.27,11.27,0,0,0-.184-4.771A3.956,3.956,0,0,0,730,424.266Z" transform="translate(-632.932 -358.742)"/><path class="g" d="M731,426.266c3.646.83,12.422,1.2,16.16,1.072,1.706-.053,3.407-.206,5.113-.2,2.924,0,5.843.478,8.759.285,3.768-.258,7.47-1.644,11.229-1.287a24.549,24.549,0,0,1,5.386,1.354c1.761.589,3.68,1.254,4.919,2.684A10.682,10.682,0,0,1,784.513,435a7.181,7.181,0,0,1,.239,2.9c-.357,1.821-2.034,3.053-3.644,3.972a12.3,12.3,0,0,1-6.221,1.979,13.894,13.894,0,0,1-3.828-.8c-3.572-1.122-7.223-2.393-10.956-2.113-2.61.2-5.218,1.163-7.786.644a29.953,29.953,0,0,1-4.307-1.637c-3.5-1.28-12.377-.94-16.086-.586.215-2.084.189-4.185.4-6.271a11.27,11.27,0,0,0-.184-4.771A3.958,3.958,0,0,0,731,426.266Z" transform="translate(-633.694 -360.265)"/><path class="e" d="M561.6,270.565c-.56-.146-.775-.854-1.28-1.139a1.236,1.236,0,0,0-1.5.364,2.59,2.59,0,0,0-.522,1.555,5.881,5.881,0,0,0,3.685,5.675,23.969,23.969,0,0,1-.574-6.647Z" transform="translate(-502.157 -240.864)"/><path class="e" d="M718.455,270.565c.56-.146.773-.854,1.278-1.139a1.236,1.236,0,0,1,1.5.364,2.573,2.573,0,0,1,.522,1.555,5.881,5.881,0,0,1-3.685,5.675,23.971,23.971,0,0,0,.574-6.647Z" transform="translate(-623.778 -240.864)"/><path class="f" d="M607.012,228.867c-.718.993-1.594,2.005-2.673,2.029-1.562.038-2.632-1.948-4.067-2.67-2.912-1.455-5.962,2.527-9.092,2.019-2.417-.392-4.307-3.429-6.742-3.153-1.739.2-3.012,2.034-4.084,3.728q-1.244-1.84-2.486-3.685a16.007,16.007,0,0,1-1.23-1.763c-.464,1.139.407,1.742,1.23,2.96s1.656,2.457,2.486,3.685c1.072-1.694,2.345-3.532,4.084-3.728,2.429-.275,4.326,2.761,6.742,3.153,3.11.507,6.168-3.474,9.092-2.019,1.436.718,2.507,2.708,4.067,2.67,1.079-.024,1.957-1.036,2.673-2.029a37.863,37.863,0,0,0,3.194-5.292c-.129-.148-.263-.292-.4-.431a38.216,38.216,0,0,1-2.795,4.527Z" transform="translate(-516.054 -206.628)"/></g></g></svg>