<svg xmlns="http://www.w3.org/2000/svg" xmlns:xlink="http://www.w3.org/1999/xlink" width="284.793" height="192.715" viewBox="0 0 284.793 192.715"><defs><style>.a,.d{fill:none;}.b{clip-path:url(#a);}.c{fill:#eee;}.d{stroke:#0c263d;stroke-miterlimit:10;}.e{fill:#fbbebe;}.f{fill:#fa6c77;}.g{opacity:0.1;}.h{fill:#0c263d;}.i{fill:#00afff;}.j{fill:#a0616a;}.k{fill:#009181;}.l,.o,.p{fill:#00c3ae;}.l{opacity:0.497;}.m{fill:#55536e;}.n{fill:#3f3d56;}.p{opacity:0.995;}</style><clipPath id="a"><rect class="a" width="284.793" height="192.715"/></clipPath></defs><g class="b"><path class="c" d="M831.938,194.641A17.585,17.585,0,0,1,849.5,177.974c.534,0,1.062.028,1.585.075a23.364,23.364,0,0,1,40.388-.019c.441-.033.884-.055,1.333-.055a17.585,17.585,0,0,1,17.561,16.666" transform="translate(-629.734 -147.176)"/><path class="d" d="M844.569,189.976a17.585,17.585,0,0,1,17.561-16.666c.534,0,1.062.028,1.584.075a23.364,23.364,0,0,1,40.388-.019c.441-.033.884-.055,1.333-.055A17.585,17.585,0,0,1,923,189.975" transform="translate(-638.702 -143.863)"/><path class="c" d="M155.988,376.824c1.494-30.731,25.5-55.161,54.9-55.161,1.671,0,3.321.092,4.954.247,13.069-23.8,37.107-38.456,63.114-38.469s50.058,14.615,63.148,38.405c1.378-.11,2.764-.184,4.168-.184,29.4,0,53.405,24.431,54.9,55.161" transform="translate(-135.393 -235.009)"/><path class="d" d="M197.794,361.384c1.494-30.731,25.5-55.161,54.9-55.161,1.671,0,3.321.092,4.954.247,13.069-23.8,37.107-38.456,63.114-38.469s50.058,14.615,63.148,38.405c1.378-.11,2.764-.184,4.168-.184,29.4,0,53.405,24.431,54.9,55.161" transform="translate(-165.076 -223.646)"/><path class="c" d="M84.962,146.249a23.794,23.794,0,0,1,23.761-22.55c.723,0,1.437.038,2.144.1a31.613,31.613,0,0,1,54.647-.026c.6-.045,1.2-.075,1.8-.075a23.794,23.794,0,0,1,23.761,22.55" transform="translate(-84.962 -105.743)"/><path class="d" d="M102.053,139.937a23.794,23.794,0,0,1,23.761-22.55c.723,0,1.437.038,2.144.1a31.613,31.613,0,0,1,54.647-.026c.6-.045,1.2-.075,1.8-.075a23.794,23.794,0,0,1,23.761,22.55" transform="translate(-97.097 -101.261)"/><path class="e" d="M491.017,336.921s4.06,9.859-2.03,12.179c0,0,8.7,3.77,10.729,2.9s3.48-2.9,3.48-3.48-2.03-.87-2.03-.87-3.77.29-.87-9.279Z" transform="translate(-377.751 -271.806)"/><circle class="e" cx="7.249" cy="7.249" r="7.249" transform="translate(110.68 56.331)"/><ellipse class="f" cx="6.379" cy="8.989" rx="6.379" ry="8.989" transform="translate(106.998 53.114)"/><ellipse class="f" cx="6.379" cy="8.989" rx="6.379" ry="8.989" transform="translate(102.592 50.368)"/><ellipse class="f" cx="3.19" cy="4.494" rx="3.19" ry="4.494" transform="translate(99.677 48.571)"/><path class="e" d="M536.988,281.718s1.74-3.48,8.119-5.219,18.848-22.617,18.848-22.617-.58-12.469,2.32-8.7.58,11.309.58,11.309l-7.482,12.924a28.15,28.15,0,0,1-5.182,6.5c-4.626,4.306-12.892,11.89-13.722,11.89C539.307,287.808,536.988,281.718,536.988,281.718Z" transform="translate(-412.944 -205.155)"/><path class="e" d="M501.988,543.921s2.03,24.647,1.45,26.967-2.32,6.959.58,20.588-.58,12.759-.58,12.759l9.279,4.06s-3.19-15.658-2.61-20.008.29-13.339,2.03-19.428,2.03-23.2,2.03-23.2Z" transform="translate(-387.129 -424.95)"/><path class="g" d="M501.988,543.921s2.03,24.647,1.45,26.967-2.32,6.959.58,20.588-.58,12.759-.58,12.759l9.279,4.06s-3.19-15.658-2.61-20.008.29-13.339,2.03-19.428,2.03-23.2,2.03-23.2Z" transform="translate(-387.129 -424.95)"/><path class="h" d="M511.6,745.428c-.719.5-2.566,1.006-6.018-2.662,0,0-2.03-2.9-3.77,0s-.58,3.19.58,4.64c1.12,1.4,10.075,10.905,13.825,10.52a1.791,1.791,0,0,0,.383-.081c3.48-1.16-1.45-4.93-1.45-4.93s-3.232-4.972-3.25-7.32a.194.194,0,0,0-.3-.167Z" transform="translate(-386.462 -565.221)"/><path class="e" d="M379.651,533.921s-4.929,11.309-6.959,17.108c-1.066,3.045-4.289,4.011-7.111,4.243a24.321,24.321,0,0,0-9.937,2.995c-4.058,2.278-9.6,4.863-13.109,4.361-6.089-.87-1.16,8.7-1.16,8.7s8.989-5.509,17.4-6.089,17.4-1.45,21.458-6.669,13.918-21.748,13.918-21.748Z" transform="translate(-270.031 -415.534)"/><path class="h" d="M323.745,632.112s-2.9-2.03-.58-4.06a14.024,14.024,0,0,0,3.19-3.77s-4.06-4.35-5.509-2.03-7.829,12.759-6.379,15.948,2.9,4.06,4.639.58,6.128-6.219,6.128-6.219Z" transform="translate(-251.1 -478.393)"/><path class="i" d="M492.159,372.915s-.964,1.928-9.922.072a5.5,5.5,0,0,0-6.063,2.828c-1.124,2.247-1.269,5.509,2.646,9.569,0,0,6.959,7.829,3.48,11.019s16.528-2.03,16.528-2.03-2.61-1.74-.29-6.959c1.823-4.1,1.676-6.412.264-8.2a8.955,8.955,0,0,1-1.693-3.784c-.4-1.941-1.374-4.374-3.79-4.546,0,0-2.54-.149-2.72.506S492.739,372.625,492.159,372.915Z" transform="translate(-368.178 -296.687)"/><path class="e" d="M407.769,385.666c-.06-.409-.133-.815-.185-1.225-.175-1.4-.841-4.792-3.143-4.208-2.888.732-6.078,7.981-6.078,7.981s-2.61,8.119-6.379,10.149-14.208,12.469-14.208,12.469-8.7,2.32-5.509,4.639,7.249-1.45,7.249-1.45l10.256-6.153a29.36,29.36,0,0,0,9.046-8.505c2.137-3.094,4.812-6.671,6.507-7.852a5.59,5.59,0,0,0,2.191-2.865A6.65,6.65,0,0,0,407.769,385.666Z" transform="translate(-293.008 -303.692)"/><path class="i" d="M423.231,449.661s-13.339-1.74-20.878,7.249-13.049,6.379-12.469,7.829S418.3,483.3,434.54,481.267A140.378,140.378,0,0,0,452.3,478.21a5.058,5.058,0,0,0,2.8-1.875,5.134,5.134,0,0,1,1.413-1.283,2.51,2.51,0,0,0,.675-3.541c-4.6-6.654-17.084-24.279-20.61-24.749C432.22,446.181,423.231,449.661,423.231,449.661Z" transform="translate(-306.937 -352.014)"/><ellipse class="f" cx="4.639" cy="3.335" rx="4.639" ry="3.335" transform="translate(113.404 52.734)"/><path class="j" d="M806.19,164.259a32.873,32.873,0,0,1,1.209-4.51c.524-1.433,1.187-2.656,1.926-2.656,1.791,0-6.27-7.614-6.27-7.614s-.506.941-1.344,2.208a31.237,31.237,0,0,1-2.006,2.732,14.979,14.979,0,0,1-3.368,3.122C792.754,159.781,806.19,164.259,806.19,164.259Z" transform="translate(-600.028 -135.143)"/><path class="j" d="M908.03,302.834s17.96,11.347,12.426,13.212-14.7-11.466-14.7-11.466Z" transform="translate(-679.839 -247.059)"/><path class="k" d="M807.963,213.209s8.6,6.272,11.115,11.044,15.583,15.374,15.583,15.374-2.7,5.331-4,5.01-28.2-20.33-31.029-21.95S801.113,211.058,807.963,213.209Z" transform="translate(-603.091 -182.046)"/><path class="l" d="M807.963,213.209s8.6,6.272,11.115,11.044,15.583,15.374,15.583,15.374-2.7,5.331-4,5.01-28.2-20.33-31.029-21.95S801.113,211.058,807.963,213.209Z" transform="translate(-603.091 -182.046)"/><path class="j" d="M913.912,252.964s20.154,6.718,15.227,9.853S912.12,255.2,912.12,255.2Z" transform="translate(-686.666 -210.869)"/><path class="m" d="M857.057,566.729s8.509-3.583,7.614,1.791-4.927,10.3-4.927,12.988-7.614,8.509-8.957,7.166,2.239-6.718,1.344-9.853a99.9,99.9,0,0,1-1.791-10.3Z" transform="translate(-639.622 -437.913)"/><path class="g" d="M857.057,566.729s8.509-3.583,7.614,1.791-4.927,10.3-4.927,12.988-7.614,8.509-8.957,7.166,2.239-6.718,1.344-9.853a99.9,99.9,0,0,1-1.791-10.3Z" transform="translate(-639.622 -437.913)"/><path class="m" d="M847.79,580.63s8.509-3.583,7.614,1.791-4.927,10.3-4.927,12.988-7.614,8.509-8.957,7.166,2.239-6.718,1.344-9.853a99.881,99.881,0,0,1-1.791-10.3Z" transform="translate(-632.906 -448.002)"/><path class="n" d="M796.123,470.744s26.424,25.081,25.528,27.32-6.718,7.166-6.718,7.166S794.779,478.805,796.123,470.744Z" transform="translate(-600.713 -369.484)"/><path class="g" d="M796.123,470.744s26.424,25.081,25.528,27.32-6.718,7.166-6.718,7.166S794.779,478.805,796.123,470.744Z" transform="translate(-600.713 -369.484)"/><path class="h" d="M729.469,312.308s6.718,6.718,4.927,19.706,1.344,25.528,4.927,29.559,18.362,27.32,18.362,27.32-6.27,10.3-11.2,4.927-19.706-27.32-19.706-27.32S713.346,340.076,712,332.91s-1.791-18.362,1.792-20.6S729.469,312.308,729.469,312.308Z" transform="translate(-539.829 -255.09)"/><path class="g" d="M812.961,149.813c5.231,1.084,4.712,1.294,7.927,2.423.018-.054.036-.1.054-.143.493-1.173.8.367,1.514.367,1.791,0-6.27-7.614-6.27-7.614s-.3.564-.829,1.411c-.157.246-.327.515-.515.8-.157.237-.327.488-.506.748Z" transform="translate(-612.364 -131.853)"/><circle class="j" cx="8.509" cy="8.509" r="8.509" transform="translate(201.262 7.171)"/><path class="o" d="M736.813,175.737s12.988,1.344,15.675,7.166-16.571,34.038-17.915,34.486-20.154,2.687-20.154,2.687.9-28.663,18.362-39.412C732.782,180.663,736.813,178.872,736.813,175.737Z" transform="translate(-541.969 -153.786)"/><path class="p" d="M798.473,186.515s9.853,4.031,13.436,8.062,18.81,11.2,18.81,11.2-1.344,5.822-2.687,5.822-32.246-12.988-35.381-13.884S791.307,186.068,798.473,186.515Z" transform="translate(-597.745 -161.43)"/><path class="n" d="M836.808,127.663s2.239-2.239-2.239-4.031c0,0,4.479-1.791,5.374-4.479s4.031-7.166,6.718,0,7.614,16.571-8.509,16.571c0,0-4.031.9-4.031-2.687a6.718,6.718,0,0,1,2.687-5.374Z" transform="translate(-627.909 -110.863)"/></g></svg>