<svg xmlns="http://www.w3.org/2000/svg" xmlns:xlink="http://www.w3.org/1999/xlink" width="100%" height="100%" viewBox="0 0 248.327 194.594"><defs><style>.a{fill:#eee;}.b,.t{fill:none;}.b{stroke:#535461;stroke-miterlimit:10;stroke-width:2px;}.c{fill:#00afff;}.d{fill:#00c3ae;}.e{fill:url(#a);}.f{fill:#333;}.g{fill:#fdb797;}.h{fill:#252a62;}.i{opacity:0.1;}.j{fill:#fa6c77;}.k{fill:#72351c;}.l{fill:url(#b);}.m{fill:url(#c);}.n{fill:url(#d);}.o{fill:#ffc533;}.p{fill:#9f6a9d;}.q{fill:#535461;}.r{fill:#0c263d;}.s{fill:#fff;}</style><linearGradient id="a" x1="0.5" y1="1" x2="0.5" gradientUnits="objectBoundingBox"><stop offset="0" stop-color="gray" stop-opacity="0.251"/><stop offset="0.54" stop-color="gray" stop-opacity="0.122"/><stop offset="1" stop-color="gray" stop-opacity="0.102"/></linearGradient><linearGradient id="b" x1="0.5" y1="1" x2="0.5" y2="0" xlink:href="#a"/><linearGradient id="c" x1="0.501" y1="1" x2="0.501" y2="0.003" xlink:href="#a"/><linearGradient id="d" x1="0.5" y1="1" x2="0.5" y2="0" xlink:href="#a"/></defs><g transform="translate(0 0)"><path class="a" d="M204.677,91.069c-3.289,1.712-6.583,3.867-8.257,7.175-1.231,2.434-1.455,5.225-1.658,7.94L192.328,138.6c-.541,7.224-1.133,14.647-4.287,21.171-5.433,11.237-16.263,17.649-25.144,26.417-14.553,14.369-13.8,38.59-2.871,55.877a36.278,36.278,0,0,0,20.908,15.451c5.068,1.379,10.363,1.623,15.61,1.858,43.948,1.906,85.341,2.67,129.348,2.293,5.225-.046,10.593-.135,15.415-2.12,6.661-2.74,11.448-8.771,14.745-15.175s5.409-13.357,8.527-19.848c6.383-13.252,11.352-24.053,20.4-35.637,4.99-6.383,9.66-13.146,12.462-20.746,4.454-12.078,3.675-26.285-3.286-37.116-3.007-4.681-7.1-8.735-9.149-13.909-2.859-7.234-1.263-15.337-.581-23.085s-.065-16.595-6.028-21.59c-3.291-2.756-7.651-3.843-11.9-4.465-20.34-2.975-40.77,2.913-60.94,6.883-17.8,3.516-35.842,5.528-53.9,7.132C235.635,83.418,219.3,83.456,204.677,91.069Z" transform="translate(-151.89 -67.166)"/><path class="b" d="M327.829,484.2s-7.873-26.728,1.477-46.4a42.2,42.2,0,0,0,3.413-26.485,71,71,0,0,0-3.748-12.441" transform="translate(-278.931 -309.162)"/><path class="c" d="M329.912,336.951c0,3.275-5.931,12.773-5.931,12.773s-5.931-9.5-5.931-12.773a5.931,5.931,0,0,1,11.862,0Z" transform="translate(-274.057 -259.662)"/><path class="c" d="M366,395.3c-1.78,2.75-11.921,7.5-11.921,7.5s.184-11.2,1.963-13.947A5.931,5.931,0,1,1,366,395.3Z" transform="translate(-300.343 -299.878)"/><path class="c" d="M358.643,504.393c-2.924,1.474-14.063.457-14.063.457s5.793-9.566,8.722-11.048a5.931,5.931,0,1,1,5.341,10.591Z" transform="translate(-293.413 -377.956)"/><path class="c" d="M338.643,592.288c-2.634,1.947-13.793,2.829-13.793,2.829s4.111-10.418,6.742-12.365a5.931,5.931,0,1,1,7.053,9.536Z" transform="translate(-279.018 -442.465)"/><path class="c" d="M303.148,422.635c2.35,2.283,13.3,4.646,13.3,4.646s-2.68-10.872-5.03-13.155a5.931,5.931,0,0,0-8.265,8.508Z" transform="translate(-261.874 -319.069)"/><path class="c" d="M276.235,521.263c2.924,1.474,14.063.457,14.063.457s-5.812-9.574-8.735-11.048a5.931,5.931,0,1,0-5.341,10.591Z" transform="translate(-241.162 -390.263)"/><path class="c" d="M269.786,624.348c2.634,1.947,13.793,2.829,13.793,2.829s-4.111-10.418-6.742-12.365a5.931,5.931,0,1,0-7.053,9.536Z" transform="translate(-237.09 -465.854)"/><path class="d" d="M329.912,336.951c0,3.275-5.931,12.773-5.931,12.773s-5.931-9.5-5.931-12.773a5.931,5.931,0,0,1,11.862,0Z" transform="translate(-274.057 -259.662)"/><path class="d" d="M366,395.3c-1.78,2.75-11.921,7.5-11.921,7.5s.184-11.2,1.963-13.947A5.931,5.931,0,1,1,366,395.3Z" transform="translate(-300.343 -299.878)"/><path class="d" d="M358.643,504.393c-2.924,1.474-14.063.457-14.063.457s5.793-9.566,8.722-11.048a5.931,5.931,0,1,1,5.341,10.591Z" transform="translate(-293.413 -377.956)"/><path class="d" d="M338.643,592.288c-2.634,1.947-13.793,2.829-13.793,2.829s4.111-10.418,6.742-12.365a5.931,5.931,0,1,1,7.053,9.536Z" transform="translate(-279.018 -442.465)"/><path class="d" d="M303.148,422.635c2.35,2.283,13.3,4.646,13.3,4.646s-2.68-10.872-5.03-13.155a5.931,5.931,0,0,0-8.265,8.508Z" transform="translate(-261.874 -319.069)"/><path class="d" d="M276.235,521.263c2.924,1.474,14.063.457,14.063.457s-5.812-9.574-8.735-11.048a5.931,5.931,0,1,0-5.341,10.591Z" transform="translate(-241.162 -390.263)"/><path class="d" d="M269.786,624.348c2.634,1.947,13.793,2.829,13.793,2.829s-4.111-10.418-6.742-12.365a5.931,5.931,0,1,0-7.053,9.536Z" transform="translate(-237.09 -465.854)"/><path class="b" d="M886.2,431.063s-7.873-26.725,1.469-46.4a42.2,42.2,0,0,0,3.413-26.485,70.988,70.988,0,0,0-3.749-12.44" transform="translate(-686.294 -270.401)"/><path class="c" d="M888.292,283.811c0,3.275-5.931,12.773-5.931,12.773s-5.931-9.5-5.931-12.773a5.931,5.931,0,0,1,11.862,0Z" transform="translate(-681.426 -220.893)"/><path class="c" d="M924.381,342.2c-1.78,2.75-11.921,7.5-11.921,7.5s.184-11.2,1.963-13.947a5.932,5.932,0,0,1,9.958,6.448Z" transform="translate(-707.711 -261.139)"/><path class="c" d="M917.063,451.019c-2.923,1.474-14.063.457-14.063.457s5.812-9.574,8.735-11.048a5.931,5.931,0,1,1,5.328,10.591Z" transform="translate(-700.81 -338.953)"/><path class="c" d="M897.023,539.138c-2.634,1.947-13.793,2.829-13.793,2.829s4.111-10.418,6.742-12.365a5.93,5.93,0,1,1,7.051,9.537Z" transform="translate(-686.387 -403.689)"/><path class="c" d="M861.554,369.5c2.35,2.283,13.3,4.646,13.3,4.646s-2.68-10.867-5.022-13.163a5.937,5.937,0,1,0-8.273,8.516Z" transform="translate(-669.26 -280.296)"/><path class="c" d="M834.652,468.123c2.924,1.474,14.063.457,14.063.457s-5.8-9.574-8.722-11.048a5.931,5.931,0,1,0-5.341,10.591Z" transform="translate(-648.567 -351.495)"/><path class="c" d="M828.166,571.208c2.634,1.947,13.793,2.829,13.793,2.829s-4.111-10.418-6.742-12.365a5.931,5.931,0,1,0-7.053,9.536Z" transform="translate(-644.458 -427.086)"/><path class="d" d="M888.292,283.811c0,3.275-5.931,12.773-5.931,12.773s-5.931-9.5-5.931-12.773a5.931,5.931,0,0,1,11.862,0Z" transform="translate(-681.426 -220.893)"/><path class="d" d="M924.381,342.2c-1.78,2.75-11.921,7.5-11.921,7.5s.184-11.2,1.963-13.947a5.932,5.932,0,0,1,9.958,6.448Z" transform="translate(-707.711 -261.139)"/><path class="d" d="M917.063,451.019c-2.923,1.474-14.063.457-14.063.457s5.812-9.574,8.735-11.048a5.931,5.931,0,1,1,5.328,10.591Z" transform="translate(-700.81 -338.953)"/><path class="d" d="M897.023,539.138c-2.634,1.947-13.793,2.829-13.793,2.829s4.111-10.418,6.742-12.365a5.93,5.93,0,1,1,7.051,9.537Z" transform="translate(-686.387 -403.689)"/><path class="d" d="M861.554,369.5c2.35,2.283,13.3,4.646,13.3,4.646s-2.68-10.867-5.022-13.163a5.937,5.937,0,1,0-8.273,8.516Z" transform="translate(-669.26 -280.296)"/><path class="d" d="M834.652,468.123c2.924,1.474,14.063.457,14.063.457s-5.8-9.574-8.722-11.048a5.931,5.931,0,1,0-5.341,10.591Z" transform="translate(-648.567 -351.495)"/><path class="d" d="M828.166,571.208c2.634,1.947,13.793,2.829,13.793,2.829s-4.111-10.418-6.742-12.365a5.931,5.931,0,1,0-7.053,9.536Z" transform="translate(-644.458 -427.086)"/><path class="e" d="M688.131,331.98a.2.2,0,0,1,.019-.1c.019-.035,0-.019,0-.027a1.264,1.264,0,0,0,0-.2s-.362-.7-.784-1.65h0a13.019,13.019,0,0,1-1.26-4.3s-6.32-22.117-10.593-24.532c0,0-3.516-6.261-3.478-9.785a19.925,19.925,0,0,0-.27-3.362c-.625-3.886-1.666-11.326-.714-12.687,1.209-1.728,3.224-9.247-1.588-14.923l.844-.13s-.046-.057-.122-.168l.122-.019s-1.861-2.234-1.861-7.17a30.3,30.3,0,0,1,2.6-11.232q.384-.93.7-1.842a9.258,9.258,0,0,0,2.434-1.752l.086-.089.1-.095a15.791,15.791,0,0,0,3.6-6.558,31.226,31.226,0,0,0,1.312-6.8,64.279,64.279,0,0,0,0-7.537c-.122-2.932-.27-5.95-1.444-8.625a20.824,20.824,0,0,1-1.366-3.145,18.4,18.4,0,0,1-.327-2.307,12.331,12.331,0,0,0-4.184-7.932,9.728,9.728,0,0,0-8.606-2,14.03,14.03,0,0,0-4.6,2.5,15.546,15.546,0,0,0-1.7,1.485c-1.7,1.663-2.975,3.843-1.747,6.134q.135.249.289.487a8.362,8.362,0,0,0,3.94,12.189l.219.384h.024a13.9,13.9,0,0,1,1.523,3.786,11.649,11.649,0,0,0-2.164,2,39.066,39.066,0,0,0-4.04,5.536,19.747,19.747,0,0,1-2.145,3.015c-.993,1.174-2.164,3.464-2.164,7.727v.971c-5.239,5.7-25.668,1.523-25.668,1.523-2.461-.957-5.325.2-6.667.876a.811.811,0,0,0-.27,1.241c2.164,2.607,7.486,1.044,7.486,1.044s19.142,3.345,20.63,4.46c1.011.76,2.8.141,3.838-.333l-.214.241.27-.133-1.471,13.233h.022l-.022.187s.341-.03.884-.068l.454,1.176h-.038l.471,1.114h0l.387.917c-1.155,4.176-5.809,21.365-5.32,25.289,0,0-2.975,7.061-1.858,10.967,0,0-4.089,29.365-6.691,30.852l.365.165c-2.778,1.588-8.827,4.573-13,3.18,0,0-2.6.744,1.487,3.345,0,0,16.727,4.46,18.958,2.975l-.37-6.429.189.068c.027-.362.27-3.021,1.3-4.232,0,0,6.691-18.215,6.32-27.507l6.245-15.091a17.349,17.349,0,0,0,2.118,4.127l2.6,6.691,4.276,5.577s13.382,21.187,12.441,27.507l.314.078c-1.252,2.229-4.368,6.8-8.865,6.8,0,0-3.9,4.089,3.345,3.532,0,0,9.106-.557,15.8-4.276Z" transform="translate(-492.897 -158.755)"/><path class="f" d="M662.086,701.33s-8.6,5.736-13.979,3.943c0,0-2.51.717,1.433,3.227,0,0,16.132,4.3,18.282,2.867l-.541-9.32Z" transform="translate(-514.277 -529.823)"/><path class="f" d="M824.311,698.492s-3.405,7.708-9.141,7.708c0,0-3.765,3.943,3.226,3.4,0,0,8.781-.541,15.234-4.122l-3.086-8.043Z" transform="translate(-635.994 -526.985)"/><path class="g" d="M623.1,373.105l1.352,3.5,8.776-.627-.9-5.915Z" transform="translate(-465.433 -269.978)"/><path class="h" d="M708.912,461.42S703,482.4,703.536,486.693c0,0-2.867,6.81-1.793,10.574,0,0-3.943,28.318-6.453,29.749,0,0,7.3,3.3,7.527,3.226,2.51-.9-.179,0-.179,0s.179-2.867,1.255-4.122c0,0,6.453-17.566,6.093-26.525l8.6-20.792Z" transform="translate(-549.274 -354.795)"/><path class="i" d="M708.912,461.42S703,482.4,703.536,486.693c0,0-2.867,6.81-1.793,10.574,0,0-3.943,28.318-6.453,29.749,0,0,7.3,3.3,7.527,3.226,2.51-.9-.179,0-.179,0s.179-2.867,1.255-4.122c0,0,6.453-17.566,6.093-26.525l8.6-20.792Z" transform="translate(-549.274 -354.795)"/><path class="h" d="M741.69,448.24l3.943,9.32s3.048,15.234,6.274,19.356l2.51,6.453,4.124,5.379s12.906,20.432,12.008,26.525c0,0,8.065,2.164,7.886-.541,0,0-1.972-3.764-1.972-5.736,0,0-6.093-21.327-10.218-23.659,0,0-3.386-6.039-3.354-9.436a19.212,19.212,0,0,0-.271-3.245c-.6-3.748-1.606-10.921-.687-12.232,1.255-1.793,3.4-10.036-2.688-15.594Z" transform="translate(-583.126 -342.692)"/><path class="i" d="M822.977,514.752s-1.972-3.765-1.972-5.736c0,0-6.093-21.327-10.218-23.659,0,0-3.386-6.039-3.354-9.436a19.224,19.224,0,0,0-.27-3.245c-.6-3.748-1.606-10.921-.687-12.232,1.255-1.793,3.4-10.036-2.688-15.594l-1.039.2c5.825,5.552,3.713,13.62,2.475,15.391s1.082,14.518,1.082,14.518c-.9,3.048,3.226,10.4,3.226,10.4,4.122,2.331,10.217,23.659,10.217,23.659,0,1.971,1.972,5.736,1.972,5.736.059.887-.782,1.247-1.934,1.331C821.524,516.183,823.058,515.94,822.977,514.752Z" transform="translate(-627.672 -342.707)"/><path class="g" d="M772.17,273.8s3.4,5.2,2.51,6.81l8.781-2.164s-2.331-2.51-1.793-8.6Z" transform="translate(-605.362 -215.027)"/><path class="i" d="M759.058,297.8s-7.348-1.623-12.008,3.943a37.746,37.746,0,0,0-3.9,5.339,19.04,19.04,0,0,1-2.066,2.907c-1.166,1.377-2.594,4.343-1.923,10.393L737,339.734s6.274-.541,7.886,0,12.906-1.255,12.906-1.255-4.481-5.376.717-17.922A30.448,30.448,0,0,0,759.058,297.8Z" transform="translate(-579.704 -235.262)"/><path class="j" d="M759.058,297.136s-7.348-1.623-12.008,3.943a37.744,37.744,0,0,0-3.9,5.339,19.039,19.039,0,0,1-2.066,2.907c-1.166,1.377-2.594,4.343-1.923,10.393L737,339.074s6.274-.541,7.886,0,12.906-1.255,12.906-1.255-4.481-5.376.717-17.922A30.448,30.448,0,0,0,759.058,297.136Z" transform="translate(-579.704 -234.781)"/><path class="i" d="M753.375,359s-6.991,10.044-10.212,11.837l-1.793.9S752.658,359,753.375,359Z" transform="translate(-582.892 -280.075)"/><path class="g" d="M663.765,339.449s4.6-1.809,6.569,4.189a1.438,1.438,0,0,1-.308,1.425l-10.742,11.591s-3.048,1.793-4.481.717-19.894-4.3-19.894-4.3-5.125,1.506-7.218-1.006a.776.776,0,0,1,.252-1.2c1-.506,2.669-.214,4.638-.457a16.323,16.323,0,0,1,4.543.095c6.147.963,20.63,2.553,22.877-3.351C662.867,339.63,663.765,339.449,663.765,339.449Z" transform="translate(-499.824 -265.624)"/><path class="i" d="M761.24,339.581s5.555-.9,6.81,4.66v-.36S766.438,337.791,761.24,339.581Z" transform="translate(-597.388 -265.667)"/><path class="i" d="M782.342,271.22l-9.512,3.943s.43.654.941,1.571a9.5,9.5,0,0,0,3.27.133,6.885,6.885,0,0,0,5.2-1.972A16.966,16.966,0,0,1,782.342,271.22Z" transform="translate(-605.844 -216.034)"/><circle class="g" cx="8.065" cy="8.065" r="8.065" transform="translate(162.686 44.79)"/><path class="i" d="M766.3,222.088c.176.622-.341,1.2-.714,1.725-1.306,1.847-1.066,4.362-.468,6.542a4.361,4.361,0,0,0,1.685,2.764,9.8,9.8,0,0,0,2.556.652,5.826,5.826,0,0,1,3.516,3.026,11.265,11.265,0,0,1,1.082,4.614,23.341,23.341,0,0,1-3.178,13.146,7.752,7.752,0,0,0,6.585-2.4,15.187,15.187,0,0,0,3.472-6.323,30.114,30.114,0,0,0,1.266-6.553,62.094,62.094,0,0,0,0-7.27c-.116-2.826-.251-5.728-1.393-8.316a20.308,20.308,0,0,1-1.317-3.034,17.744,17.744,0,0,1-.316-2.223,11.9,11.9,0,0,0-4.035-7.651,9.407,9.407,0,0,0-8.3-1.928,13.477,13.477,0,0,0-4.425,2.407c-2.18,1.658-4.681,4.327-3.143,7.167A7.124,7.124,0,0,0,766.3,222.088Z" transform="translate(-595.536 -170.324)"/><path class="k" d="M766.946,221.45c.176.622-.341,1.2-.714,1.725-1.306,1.847-1.066,4.362-.468,6.542a4.36,4.36,0,0,0,1.685,2.764,9.8,9.8,0,0,0,2.556.652,5.827,5.827,0,0,1,3.516,3.026,11.265,11.265,0,0,1,1.082,4.614,23.341,23.341,0,0,1-3.183,13.154,7.752,7.752,0,0,0,6.585-2.4,15.187,15.187,0,0,0,3.472-6.323,30.114,30.114,0,0,0,1.266-6.553,62.094,62.094,0,0,0,0-7.27c-.116-2.826-.251-5.728-1.393-8.316a20.3,20.3,0,0,1-1.317-3.034,17.721,17.721,0,0,1-.316-2.223,11.9,11.9,0,0,0-4.035-7.651,9.407,9.407,0,0,0-8.3-1.928,13.476,13.476,0,0,0-4.424,2.407c-2.18,1.658-4.682,4.327-3.143,7.167A7.143,7.143,0,0,0,766.946,221.45Z" transform="translate(-596.003 -169.864)"/><path class="i" d="M790.4,401.7s3.405,0,4.66-1.623" transform="translate(-618.662 -310.044)"/><path class="i" d="M790.4,406.343s3.405,0,4.66-1.623" transform="translate(-618.662 -313.43)"/><path class="i" d="M795.56,334.51s-.541,4.3-2.51,6.274" transform="translate(-620.595 -262.208)"/><path class="l" d="M514.825,731.5v-.043l-.065.022Z" transform="translate(-417.568 -551.804)"/><path class="m" d="M511.25,730.478a.312.312,0,0,0,.122-.022C510.955,730.31,508.849,729.618,511.25,730.478Z" transform="translate(-414.182 -550.779)"/><path class="n" d="M415.4,250.29c-1.368-.668-4.289-1.809-6.8-.865,0,0-24.07,4.771-27.1-2.937q-.214-.541-.414-1.041a11.2,11.2,0,0,0,.078-1.523,10.712,10.712,0,0,0-.133-1.869,6.536,6.536,0,0,0-1.02-2.526,16.4,16.4,0,0,1-1.458-3.167,11.989,11.989,0,0,0-6.877-7.032,11.435,11.435,0,0,1,1.6-4.176h.024l.224-.379a8.265,8.265,0,0,0,5.322-7.651,8.029,8.029,0,0,0-1.376-4.494c2.544-.409,1.674-2.573.1-4.428a12.1,12.1,0,0,0-.976-1.022,11.4,11.4,0,0,0-5.579-3.018c-.252-.054-.506-.095-.76-.13a10.547,10.547,0,0,0-9.174,1.122A4.727,4.727,0,0,0,356.572,202a4.6,4.6,0,1,0,0,9.2h.27a9.631,9.631,0,0,0-.27,2.21,9.979,9.979,0,0,0,7.716,9.606l.078.073a1.655,1.655,0,0,1-.024.23l.019.016a10.688,10.688,0,0,1-1.266,3.878l-.168-.041c-3.5,2.434-4.763,6.126-4.733,9.971a23.125,23.125,0,0,0,2.164,9.466,8.654,8.654,0,0,1,.681,3.516c-.068,4.165-1.985,9.163-3.289,12.089-.517,1.16-8.005,19.269-8.005,19.269l.17-.043-.17.411a9.362,9.362,0,0,1,4.89.154,8,8,0,0,0,6.128-.865,8,8,0,0,0,1.02,2.456c.971,1.352-.089,8.687-.727,12.524a19.057,19.057,0,0,0-.27,3.321c.035,3.481-3.546,9.663-3.546,9.663-4.36,2.385-10.8,24.221-10.8,24.221a12.552,12.552,0,0,1-1.285,4.243h0c-.427.944-.811,1.623-.811,1.623a1.2,1.2,0,0,0,0,.2v.027a1.023,1.023,0,0,0,.019.1l-2.488,6.277c6.823,3.67,16.111,4.222,16.111,4.222,7.391.541,3.413-3.486,3.413-3.486-4.6,0-7.762-4.511-9.041-6.71l.322-.078c-.947-6.239,12.711-27.158,12.711-27.158l4.36-5.506,2.653-6.634a17.009,17.009,0,0,0,2.164-4.073l6.366,14.891c-.379,9.176,6.445,27.158,6.445,27.158,1.057,1.2,1.3,3.821,1.323,4.178l.192-.065-.379,6.347c2.274,1.469,19.334-2.937,19.334-2.937,4.17-2.569,1.517-3.3,1.517-3.3-4.257,1.374-10.428-1.574-13.252-3.14l.37-.162c-2.653-1.469-6.823-30.46-6.823-30.46,1.139-3.854-1.893-10.818-1.893-10.818.346-2.677-1.834-11.67-3.592-18.3a36.239,36.239,0,0,0,6.721-.687c-.141-.089-.27-.184-.414-.27.27-.051.414-.084.414-.084-5.858-3.746-9.2-16.4-10.637-23.564a7.572,7.572,0,0,0,1.16.811l1.893.917-.216-.235c1.057.468,2.88,1.082,3.913.327,1.517-1.1,21.038-4.4,21.038-4.4s5.409,1.544,7.635-1.03a.787.787,0,0,0-.279-1.247Z" transform="translate(-291.435 -165.534)"/><circle class="o" cx="9.679" cy="9.679" r="9.679" transform="translate(66.348 40.038)"/><path class="g" d="M432.881,275.787s-3.4,5.2-2.51,6.81l-8.781-2.164s2.331-2.51,1.793-8.6Z" transform="translate(-349.595 -216.479)"/><path class="i" d="M427.55,273.21l9.5,3.943s-.43.655-.941,1.571a9.5,9.5,0,0,1-3.27.132,6.885,6.885,0,0,1-5.2-1.972A18.163,18.163,0,0,0,427.55,273.21Z" transform="translate(-353.944 -217.486)"/><circle class="g" cx="8.065" cy="8.065" r="8.065" transform="translate(71.278 45.328)"/><circle class="o" cx="4.481" cy="4.481" r="4.481" transform="translate(61.866 38.604)"/><path class="i" d="M420.688,225.95c-2.018-.035-4.311-.441-5.823.892-1.082.957-1.374,2.5-1.742,3.905-.541,2.1-1.779,4.416-3.932,4.73a4.319,4.319,0,0,1-3.57-1.409,12.038,12.038,0,0,1-2.107-3.356,8.222,8.222,0,0,1-1.082-3.757,7.9,7.9,0,0,1,1.909-4.233,17.629,17.629,0,0,1,1.88-2.218,10.547,10.547,0,0,1,15.591,1.052C423.492,223.594,424.328,226.012,420.688,225.95Z" transform="translate(-335.617 -176.882)"/><path class="o" d="M420.028,225.29c-2.018-.035-4.311-.441-5.823.892-1.082.957-1.374,2.5-1.742,3.905-.541,2.1-1.78,4.416-3.932,4.73a4.319,4.319,0,0,1-3.57-1.409,12.038,12.038,0,0,1-2.107-3.356,8.223,8.223,0,0,1-1.082-3.757,7.9,7.9,0,0,1,1.909-4.232,17.627,17.627,0,0,1,1.88-2.218,10.547,10.547,0,0,1,15.591,1.052C422.83,222.934,423.668,225.352,420.028,225.29Z" transform="translate(-335.136 -176.4)"/><path class="f" d="M518.116,703.32s8.6,5.736,13.979,3.943c0,0,2.51.717-1.433,3.226,0,0-16.132,4.3-18.282,2.867l.541-9.32Z" transform="translate(-415.832 -531.274)"/><path class="f" d="M358.67,700.482s3.4,7.708,9.141,7.708c0,0,3.765,3.943-3.226,3.4,0,0-8.781-.541-15.234-4.122l3.086-8.043Z" transform="translate(-296.892 -528.437)"/><path class="p" d="M463.747,463.41s5.915,20.97,5.377,25.271c0,0,2.867,6.81,1.793,10.574,0,0,3.943,28.318,6.453,29.749,0,0-7.3,3.3-7.526,3.227-2.51-.9.178,0,.178,0s-.178-2.867-1.255-4.122c0,0-6.453-17.565-6.093-26.525l-8.6-20.792Z" transform="translate(-373.291 -356.247)"/><path class="i" d="M463.747,463.41s5.915,20.97,5.377,25.271c0,0,2.867,6.81,1.793,10.574,0,0,3.943,28.318,6.453,29.749,0,0-7.3,3.3-7.526,3.227-2.51-.9.178,0,.178,0s-.178-2.867-1.255-4.122c0,0-6.453-17.565-6.093-26.525l-8.6-20.792Z" transform="translate(-373.291 -356.247)"/><path class="p" d="M394.7,450.223l-3.943,9.32s-3.048,15.234-6.274,19.356l-2.51,6.453-4.122,5.376s-12.906,20.432-12.008,26.525c0,0-8.065,2.164-7.886-.541,0,0,1.972-3.765,1.972-5.736,0,0,6.093-21.327,10.217-23.659,0,0,3.386-6.039,3.354-9.436a19.217,19.217,0,0,1,.27-3.245c.6-3.748,1.606-10.921.687-12.232-1.255-1.793-3.4-10.036,2.688-15.594Z" transform="translate(-303.173 -344.137)"/><path class="i" d="M357.99,516.732s1.972-3.765,1.972-5.736c0,0,6.093-21.327,10.217-23.659,0,0,3.386-6.039,3.354-9.436a19.218,19.218,0,0,1,.27-3.245c.6-3.748,1.606-10.921.687-12.232-1.255-1.793-3.4-10.036,2.688-15.594l1.039.2c-5.844,5.555-3.729,13.636-2.491,15.394s-1.082,14.518-1.082,14.518c.9,3.048-3.226,10.4-3.226,10.4C367.3,489.671,361.2,511,361.2,511c0,1.971-1.972,5.736-1.972,5.736-.06.887.782,1.247,1.934,1.331C359.434,518.166,357.9,517.922,357.99,516.732Z" transform="translate(-303.193 -344.151)"/><path class="i" d="M389.351,302l6.661,1.639a11.526,11.526,0,0,1,8.113,7.383,16.269,16.269,0,0,0,1.377,3.094,6.5,6.5,0,0,1,.963,2.469,11.953,11.953,0,0,1-1.59,7.821s3.032,22.763,10.9,27.961c0,0-7.683,1.769-14.418-.419a14.922,14.922,0,0,0-13.333,1.92l-.168.122a7.394,7.394,0,0,1-6.337,1.22,8.6,8.6,0,0,0-4.625-.149s7.083-17.684,7.573-18.82c1.65-3.838,4.354-11.324,2.461-15.58C384.3,314.735,383.339,305.954,389.351,302Z" transform="translate(-316.992 -238.49)"/><path class="q" d="M389.351,300.71l6.661,1.639a11.526,11.526,0,0,1,8.113,7.383,16.267,16.267,0,0,0,1.377,3.094,6.5,6.5,0,0,1,.963,2.469,11.953,11.953,0,0,1-1.59,7.821s3.032,22.763,10.9,27.961c0,0-7.683,1.769-14.418-.419a14.922,14.922,0,0,0-13.333,1.92l-.168.122a7.394,7.394,0,0,1-6.337,1.212,8.6,8.6,0,0,0-4.625-.149s7.083-17.685,7.573-18.82c1.65-3.84,4.354-11.326,2.461-15.594C384.3,313.435,383.339,305.013,389.351,300.71Z" transform="translate(-316.992 -237.549)"/><path class="i" d="M449.76,361s6.991,10.036,10.217,11.829l1.793.9S450.477,361,449.76,361Z" transform="translate(-370.147 -281.534)"/><path class="g" d="M456.024,341.439s-4.6-1.809-6.569,4.189a1.439,1.439,0,0,0,.308,1.425l10.742,11.594s3.048,1.793,4.481.717,19.894-4.3,19.894-4.3,5.09,1.5,7.2-.982a.8.8,0,0,0-.23-1.222c-1.112-.56-3.145-.541-5.333-.727a8.653,8.653,0,0,0-2.266.1c-4.679.83-21.987,3.41-24.459-3.086C456.922,341.618,456.024,341.439,456.024,341.439Z" transform="translate(-369.872 -267.076)"/><path class="i" d="M455.91,341.569s-5.555-.9-6.81,4.66v-.36S450.712,339.776,455.91,341.569Z" transform="translate(-369.666 -267.117)"/><path class="b" d="M602.422,574.421s-4.262-14.469.811-25.119a22.855,22.855,0,0,0,1.847-14.334,38.447,38.447,0,0,0-2.031-6.729" transform="translate(-480.3 -403.544)"/><path class="c" d="M603.55,494.667c0,1.774-3.21,6.915-3.21,6.915s-3.21-5.138-3.21-6.915a3.212,3.212,0,0,1,6.423,0Z" transform="translate(-477.661 -376.708)"/><path class="c" d="M623.083,526.271c-.963,1.487-6.453,4.057-6.453,4.057s.1-6.061,1.063-7.551a3.211,3.211,0,0,1,5.39,3.491Z" transform="translate(-491.888 -398.489)"/><path class="c" d="M619.071,585.317c-1.582.811-7.621.246-7.621.246s3.145-5.182,4.73-5.982a3.211,3.211,0,1,1,2.891,5.733Z" transform="translate(-488.108 -440.749)"/><path class="c" d="M608.26,632.914c-1.425,1.055-7.47,1.531-7.47,1.531s2.226-5.639,3.651-6.694a3.211,3.211,0,1,1,3.819,5.163Z" transform="translate(-480.331 -475.684)"/><path class="c" d="M588.86,540.846c1.271,1.236,7.2,2.515,7.2,2.515s-1.452-5.888-2.723-7.121a3.21,3.21,0,1,0-4.476,4.6Z" transform="translate(-470.86 -408.659)"/><path class="c" d="M574.536,594.454c1.582.811,7.621.246,7.621.246s-3.148-5.182-4.719-5.98a3.211,3.211,0,1,0-2.891,5.734Z" transform="translate(-459.897 -447.417)"/><path class="c" d="M571,650.264c1.425,1.055,7.47,1.531,7.47,1.531s-2.226-5.639-3.651-6.694A3.211,3.211,0,0,0,571,650.264Z" transform="translate(-457.647 -488.342)"/><path class="d" d="M603.55,494.667c0,1.774-3.21,6.915-3.21,6.915s-3.21-5.138-3.21-6.915a3.212,3.212,0,0,1,6.423,0Z" transform="translate(-477.661 -376.708)"/><path class="d" d="M623.083,526.271c-.963,1.487-6.453,4.057-6.453,4.057s.1-6.061,1.063-7.551a3.211,3.211,0,0,1,5.39,3.491Z" transform="translate(-491.888 -398.489)"/><path class="d" d="M619.071,585.317c-1.582.811-7.621.246-7.621.246s3.145-5.182,4.73-5.982a3.211,3.211,0,1,1,2.891,5.733Z" transform="translate(-488.108 -440.749)"/><path class="d" d="M608.26,632.914c-1.425,1.055-7.47,1.531-7.47,1.531s2.226-5.639,3.651-6.694a3.211,3.211,0,1,1,3.819,5.163Z" transform="translate(-480.331 -475.684)"/><path class="d" d="M588.86,540.846c1.271,1.236,7.2,2.515,7.2,2.515s-1.452-5.888-2.723-7.121a3.21,3.21,0,1,0-4.476,4.6Z" transform="translate(-470.86 -408.659)"/><path class="d" d="M574.536,594.454c1.582.811,7.621.246,7.621.246s-3.148-5.182-4.719-5.98a3.211,3.211,0,1,0-2.891,5.734Z" transform="translate(-459.897 -447.417)"/><path class="d" d="M571,650.264c1.425,1.055,7.47,1.531,7.47,1.531s-2.226-5.639-3.651-6.694A3.211,3.211,0,0,0,571,650.264Z" transform="translate(-457.647 -488.342)"/><path class="r" d="M-16.649-8.324a20,20,0,0,1-20,20,20,20,0,0,1-20-20,20,20,0,0,1,20-20,20,20,0,0,1,20,20" transform="translate(158.117 81.082) rotate(11)"/><path class="s" d="M-7.732-3.441h-4.916L-15.57-.518h7.838a6.553,6.553,0,0,1-6.376,5.08A6.549,6.549,0,0,1-20.649-1.98a6.549,6.549,0,0,1,6.541-6.541A6.5,6.5,0,0,1-9.482-6.6l1.053-1.054h0l4.05-4.05H-8.511L-9.8-10.413a9.417,9.417,0,0,0-4.3-1.03A9.474,9.474,0,0,0-23.572-1.98a9.42,9.42,0,0,0,1.034,4.3l-3.77,3.768h4.135L-20.8,4.711a9.435,9.435,0,0,0,6.687,2.774A9.474,9.474,0,0,0-4.645-1.98a9.509,9.509,0,0,0-.114-1.461Z" transform="translate(137.397 70.849) rotate(11)"/><path class="t" d="M0-16.648H40v-40H0Z" transform="translate(97.104 98.076) rotate(11)"/></g></svg>
