<?xml version="1.0" encoding="UTF-8" ?>
<!DOCTYPE svg PUBLIC "-//W3C//DTD SVG 1.1//EN" "http://www.w3.org/Graphics/SVG/1.1/DTD/svg11.dtd">
<svg width="444px" height="170px" viewBox="0 0 444 170" version="1.1" xmlns="http://www.w3.org/2000/svg">
<g id="#243748d8">
<path fill="#243748" opacity="0.85" d=" M 187.31 12.03 C 209.87 2.89 235.23 0.92 258.94 6.40 C 293.24 14.18 323.01 37.83 339.89 68.48 C 358.02 67.18 376.53 71.48 392.18 80.75 C 421.01 97.50 439.47 129.85 440.59 163.01 L 438.81 163.00 C 437.69 140.14 428.77 117.63 413.38 100.63 C 395.01 79.81 366.63 67.70 338.83 70.56 C 325.26 45.58 303.31 25.06 276.94 14.19 C 251.42 3.52 222.03 2.22 195.79 11.07 C 165.65 20.66 140.34 42.99 125.28 70.61 C 118.37 69.81 111.39 70.00 104.51 70.94 C 98.33 71.85 92.18 73.21 86.37 75.57 C 65.34 82.87 47.77 98.73 36.89 118.01 C 29.15 131.74 24.78 147.29 23.94 163.01 C 23.48 163.00 22.56 162.98 22.10 162.97 C 23.22 139.56 32.32 116.48 48.14 99.11 C 56.91 89.32 67.75 81.48 79.69 76.02 C 87.98 72.45 96.74 69.89 105.73 68.93 C 111.86 68.24 118.03 68.01 124.17 68.66 C 138.09 43.42 160.55 22.92 187.31 12.03 Z" />
</g>
<g id="#eeeeeeff">
<path fill="#eeeeee" opacity="1.00" d=" M 195.79 11.07 C 223.78 7.54 252.82 14.99 276.10 30.82 C 293.03 42.15 306.88 57.80 316.77 75.57 C 336.45 73.68 356.57 79.20 373.03 90.03 C 399.38 107.30 415.86 137.90 417.05 169.25 C 278.10 169.28 139.16 169.18 0.21 169.30 C 0.97 145.48 10.66 122.02 26.93 104.59 C 40.73 89.54 59.62 79.56 79.69 76.02 C 67.75 81.48 56.91 89.32 48.14 99.11 C 32.32 116.48 23.22 139.56 22.10 162.97 C 22.56 162.98 23.48 163.00 23.94 163.01 C 24.78 147.29 29.15 131.74 36.89 118.01 C 47.77 98.73 65.34 82.87 86.37 75.57 C 91.49 74.99 96.67 75.16 101.80 75.55 C 102.70 74.01 103.60 72.48 104.51 70.94 C 111.39 70.00 118.37 69.81 125.28 70.61 C 140.34 42.99 165.65 20.66 195.79 11.07 Z" />
<path fill="#eeeeee" opacity="1.00" d=" M 163.42 19.48 C 171.08 16.12 179.21 14.04 187.31 12.03 C 160.55 22.92 138.09 43.42 124.17 68.66 C 118.03 68.01 111.86 68.24 105.73 68.93 C 119.42 47.18 139.60 29.35 163.42 19.48 Z" />
</g>
</svg>
