<?xml version="1.0" encoding="UTF-8" ?>
<!DOCTYPE svg PUBLIC "-//W3C//DTD SVG 1.1//EN" "http://www.w3.org/Graphics/SVG/1.1/DTD/svg11.dtd">
<svg width="67px" height="66px" viewBox="0 0 67 66" version="1.1" xmlns="http://www.w3.org/2000/svg">
<g id="#fbbebeff">
<path fill="#fbbebe" opacity="1.00" d=" M 59.36 1.44 C 61.66 -0.03 64.24 1.90 64.83 4.22 C 66.55 9.30 67.52 16.18 62.73 19.93 C 56.12 25.06 52.38 32.74 46.94 38.91 C 38.74 48.26 26.81 52.75 16.84 59.78 C 14.13 61.77 10.53 63.31 7.17 62.13 C 5.47 61.62 3.23 59.72 4.86 57.93 C 7.59 54.75 12.19 54.60 15.58 52.50 C 21.75 46.42 27.98 40.35 34.75 34.92 C 37.33 32.74 40.66 31.46 42.74 28.71 C 49.57 20.41 50.16 7.91 59.36 1.44 Z" />
</g>
</svg>
