<?xml version="1.0" encoding="UTF-8" ?>
<!DOCTYPE svg PUBLIC "-//W3C//DTD SVG 1.1//EN" "http://www.w3.org/Graphics/SVG/1.1/DTD/svg11.dtd">
<svg width="146pt" height="63pt" viewBox="0 0 146 63" version="1.1" xmlns="http://www.w3.org/2000/svg">
<g id="#eeeeeeff">
<path fill="#eeeeee" opacity="1.00" d=" M 60.14 12.58 C 65.78 12.56 71.52 12.07 77.01 13.66 C 87.27 16.15 96.10 23.11 101.58 32.05 C 111.35 31.47 121.39 35.69 127.35 43.54 C 131.28 48.43 133.27 54.59 133.77 60.78 C 89.18 60.76 44.59 60.63 0.00 60.93 L 0.00 58.57 C 0.87 55.62 1.34 52.54 2.66 49.74 C 6.15 41.78 13.31 35.69 21.60 33.20 C 21.70 33.42 21.89 33.85 21.98 34.06 C 20.38 34.79 18.87 35.69 17.43 36.69 L 17.76 37.81 L 16.32 37.18 L 16.77 38.64 L 15.27 38.28 L 15.79 39.66 L 14.78 39.39 C 13.90 40.73 13.03 42.09 12.27 43.51 L 11.26 43.69 C 11.36 44.16 11.57 45.10 11.67 45.57 L 10.15 45.66 C 10.31 46.12 10.61 47.05 10.76 47.51 L 9.67 47.54 C 8.76 50.96 7.79 54.39 7.36 57.92 C 7.67 57.94 8.30 57.99 8.61 58.01 C 8.64 57.19 8.69 55.53 8.72 54.70 C 9.26 53.30 9.56 51.83 9.70 50.34 L 10.26 50.38 C 11.88 43.73 16.69 38.45 22.18 34.61 C 23.58 33.08 25.61 32.57 27.61 32.57 L 27.28 31.35 C 29.06 31.67 30.85 31.98 32.63 32.32 C 32.89 31.82 33.40 30.82 33.65 30.32 C 36.11 30.31 38.57 30.31 41.03 30.31 C 42.09 28.73 43.15 27.13 43.69 25.29 L 44.29 25.57 C 45.57 22.87 48.13 21.02 50.40 19.18 L 50.46 18.70 C 53.31 17.56 55.31 14.85 58.43 14.36 L 58.51 13.18 C 59.03 13.39 60.06 13.81 60.57 14.01 L 60.14 12.58 Z" />
<path fill="#eeeeee" opacity="1.00" d=" M 34.91 28.73 C 39.79 21.95 46.90 16.97 54.78 14.31 C 54.84 14.54 54.96 15.00 55.01 15.23 C 53.73 15.57 52.49 16.05 51.30 16.67 L 51.61 17.76 C 48.89 16.94 48.16 20.91 45.87 21.70 C 44.91 23.45 42.53 24.34 42.48 26.56 L 41.33 26.62 C 41.39 27.15 41.50 28.22 41.56 28.76 L 39.81 28.39 L 39.70 29.46 C 37.22 29.48 32.25 29.50 29.76 29.52 L 34.91 28.73 Z" />
</g>
</svg>
