<?xml version="1.0" encoding="UTF-8" ?>
<!DOCTYPE svg PUBLIC "-//W3C//DTD SVG 1.1//EN" "http://www.w3.org/Graphics/SVG/1.1/DTD/svg11.dtd">
<svg width="99px" height="65px" viewBox="0 0 99 65" version="1.1" xmlns="http://www.w3.org/2000/svg">
<g id="#fbbebeff">
<path fill="#fbbebe" opacity="1.00" d=" M 61.51 29.66 C 65.25 19.68 69.24 9.78 73.67 0.08 C 82.12 1.76 90.65 3.09 99.00 5.22 L 99.00 5.57 C 98.82 5.57 98.47 5.57 98.30 5.57 C 91.16 17.25 84.15 29.04 76.29 40.26 C 73.72 44.09 70.02 47.16 65.70 48.82 C 56.65 52.46 46.76 52.93 37.15 53.68 C 26.89 54.79 17.39 59.16 8.41 64.00 C 6.96 60.47 5.38 56.86 5.22 52.99 C 5.18 50.88 6.64 48.64 8.97 48.81 C 17.02 49.83 24.49 45.82 31.40 42.24 C 37.04 38.94 43.38 36.84 49.91 36.38 C 54.45 36.04 59.71 34.28 61.51 29.66 Z" />
</g>
</svg>
