<?xml version="1.0" encoding="UTF-8" ?>
<!DOCTYPE svg PUBLIC "-//W3C//DTD SVG 1.1//EN" "http://www.w3.org/Graphics/SVG/1.1/DTD/svg11.dtd">
<svg width="72pt" height="75pt" viewBox="0 0 72 75" version="1.1" xmlns="http://www.w3.org/2000/svg">
<g id="#00c3aeff">
<path fill="#00c3ae" opacity="1.00" d=" M 37.98 5.07 C 39.56 3.10 40.85 -0.09 43.96 0.48 C 50.40 1.28 56.81 3.27 62.34 6.72 C 65.15 8.56 67.97 11.46 67.73 15.08 C 67.20 20.88 64.84 26.31 62.57 31.61 C 56.41 44.97 49.17 57.84 40.96 70.04 C 39.78 71.45 38.92 73.75 36.74 73.64 C 24.56 73.99 12.36 73.62 0.17 73.50 C 1.02 63.44 3.49 53.55 6.90 44.06 C 11.66 31.11 19.06 18.64 30.32 10.34 C 32.77 8.43 35.82 7.34 37.98 5.07 Z" />
</g>
</svg>
