<?xml version="1.0" encoding="UTF-8" ?>
<!DOCTYPE svg PUBLIC "-//W3C//DTD SVG 1.1//EN" "http://www.w3.org/Graphics/SVG/1.1/DTD/svg11.dtd">
<svg width="82px" height="152px" viewBox="0 0 82 152" version="1.1" xmlns="http://www.w3.org/2000/svg">
<g id="#0c263dff">
<path fill="#0c263d" opacity="1.00" d=" M 12.27 2.36 C 19.19 1.96 26.17 2.64 32.96 3.98 C 41.02 12.71 43.02 25.66 41.55 37.13 C 40.01 47.83 40.31 58.79 42.46 69.39 C 44.01 76.60 46.25 84.00 51.36 89.55 C 61.99 103.95 71.45 119.18 81.14 134.23 C 78.05 138.72 74.40 143.56 68.92 145.17 C 64.96 146.24 61.86 143.17 59.70 140.31 C 49.18 127.01 39.72 112.93 30.11 98.99 C 27.65 95.57 26.01 91.66 24.09 87.94 C 17.64 74.56 11.07 61.21 5.72 47.35 C 2.29 39.03 1.62 29.91 1.47 21.01 C 1.65 15.78 1.71 10.14 4.56 5.56 C 6.17 2.98 9.53 2.69 12.27 2.36 Z" />
</g>
</svg>
