<?xml version="1.0" encoding="UTF-8" ?>
<!DOCTYPE svg PUBLIC "-//W3C//DTD SVG 1.1//EN" "http://www.w3.org/Graphics/SVG/1.1/DTD/svg11.dtd">
<svg width="35px" height="43px" viewBox="0 0 35 43" version="1.1" xmlns="http://www.w3.org/2000/svg">
<g id="#3f3d56ff">
<path fill="#3f3d56" opacity="1.00" d=" M 9.74 12.76 C 11.16 9.97 12.39 6.04 16.03 5.63 C 19.22 6.17 20.55 9.55 21.66 12.18 C 23.47 17.08 25.73 21.90 26.41 27.13 C 26.85 30.45 26.42 34.35 23.66 36.61 C 19.37 40.31 13.37 40.40 8.01 40.82 C 5.26 40.95 1.43 41.24 0.37 37.96 C -0.19 34.80 0.43 31.20 2.72 28.82 C 3.86 27.32 5.71 26.07 5.71 23.99 C 4.75 22.01 2.67 21.09 0.93 19.94 C 4.28 18.20 8.17 16.45 9.74 12.76 Z" />
</g>
</svg>
