<?xml version="1.0" encoding="UTF-8" ?>
<!DOCTYPE svg PUBLIC "-//W3C//DTD SVG 1.1//EN" "http://www.w3.org/Graphics/SVG/1.1/DTD/svg11.dtd">
<svg width="444px" height="170px" viewBox="0 0 444 170" version="1.1" xmlns="http://www.w3.org/2000/svg">
<g id="#172d41e8">
<path fill="#172d41" opacity="0.91" d=" M 187.43 11.98 C 213.87 1.33 244.15 0.48 271.07 9.93 C 300.30 19.91 324.98 41.57 339.87 68.50 C 366.67 66.39 393.87 77.24 412.35 96.65 C 429.49 114.30 439.64 138.44 440.59 163.00 L 438.84 163.00 C 437.46 133.51 422.73 104.61 398.64 87.29 C 381.58 74.79 359.92 68.46 338.81 70.51 C 323.79 42.78 298.29 20.59 268.13 10.94 C 244.79 3.26 218.99 3.28 195.68 11.07 C 165.61 20.72 140.30 42.96 125.29 70.58 C 118.38 69.84 111.41 69.98 104.53 70.91 C 98.20 71.87 91.90 73.28 85.95 75.67 C 66.74 82.49 50.41 96.44 39.53 113.57 C 30.15 128.33 24.82 145.56 23.94 163.01 C 23.50 163.00 22.60 162.98 22.15 162.97 C 23.20 139.81 32.16 116.99 47.66 99.68 C 56.55 89.59 67.65 81.53 79.87 75.95 C 88.11 72.44 96.79 69.91 105.71 68.93 C 111.85 68.27 118.04 68.05 124.20 68.68 C 138.12 43.38 160.65 22.90 187.43 11.98 Z" />
</g>
<g id="#eeeeeeff">
<path fill="#eeeeee" opacity="1.00" d=" M 195.68 11.07 C 219.12 8.15 243.35 12.80 264.24 23.75 C 286.43 35.23 304.69 53.73 316.75 75.55 C 342.63 73.13 369.10 83.33 387.35 101.70 C 405.43 119.31 415.98 144.10 417.05 169.24 C 278.03 169.26 139.02 169.24 0.00 169.25 L 0.00 168.81 C 0.85 156.59 3.45 144.44 8.34 133.18 C 18.05 110.29 36.72 91.10 59.87 81.74 C 66.28 79.00 73.11 77.53 79.87 75.95 C 67.65 81.53 56.55 89.59 47.66 99.68 C 32.16 116.99 23.20 139.81 22.15 162.97 C 22.60 162.98 23.50 163.00 23.94 163.01 C 24.82 145.56 30.15 128.33 39.53 113.57 C 50.41 96.44 66.74 82.49 85.95 75.67 C 91.19 74.94 96.53 75.14 101.78 75.57 C 102.70 74.02 103.61 72.46 104.53 70.91 C 111.41 69.98 118.38 69.84 125.29 70.58 C 140.30 42.96 165.61 20.72 195.68 11.07 Z" />
<path fill="#eeeeee" opacity="1.00" d=" M 135.67 35.71 C 150.73 23.79 168.73 16.07 187.43 11.98 C 160.65 22.90 138.12 43.38 124.20 68.68 C 118.04 68.05 111.85 68.27 105.71 68.93 C 113.70 56.25 123.88 44.97 135.67 35.71 Z" />
</g>
</svg>
