<?xml version="1.0" encoding="UTF-8" ?>
<!DOCTYPE svg PUBLIC "-//W3C//DTD SVG 1.1//EN" "http://www.w3.org/Graphics/SVG/1.1/DTD/svg11.dtd">
<svg width="198px" height="82px" viewBox="0 0 198 82" version="1.1" xmlns="http://www.w3.org/2000/svg">
<g id="#152b3fe6">
<path fill="#152b3f" opacity="0.90" d=" M 80.68 15.94 C 92.85 10.30 107.12 9.41 119.92 13.39 C 132.62 17.32 143.68 26.04 150.55 37.41 C 161.28 37.10 172.25 40.45 180.32 47.68 C 188.55 54.93 194.23 65.63 194.17 76.72 C 193.78 76.85 193.01 77.11 192.62 77.24 C 192.07 65.56 186.19 54.19 176.74 47.27 C 169.08 41.50 159.24 38.55 149.69 39.55 C 142.47 27.51 130.77 18.04 117.07 14.55 C 106.87 11.79 95.85 12.33 85.91 15.90 C 73.92 19.92 64.05 28.82 57.54 39.53 C 53.53 39.09 49.50 39.42 45.53 40.10 C 45.17 40.55 44.46 41.45 44.10 41.91 C 41.95 42.03 39.68 41.77 37.67 42.69 C 27.12 47.29 18.78 56.73 15.59 67.80 C 14.63 70.98 14.32 74.29 13.73 77.55 C 11.76 76.80 12.50 74.65 12.58 73.14 C 14.28 59.96 22.86 48.05 34.66 41.99 C 38.42 40.13 42.44 38.74 46.58 38.06 C 49.93 37.60 53.32 37.45 56.70 37.52 C 62.32 28.14 70.76 20.56 80.68 15.94 Z" />
</g>
<g id="#eeeeeeff">
<path fill="#eeeeee" opacity="1.00" d=" M 46.58 38.06 C 54.56 26.61 67.08 18.79 80.68 15.94 C 70.76 20.56 62.32 28.14 56.70 37.52 C 53.32 37.45 49.93 37.60 46.58 38.06 Z" />
<path fill="#eeeeee" opacity="1.00" d=" M 57.54 39.53 C 64.05 28.82 73.92 19.92 85.91 15.90 C 92.74 14.29 99.94 15.67 106.59 17.57 C 119.37 21.43 130.46 30.28 137.25 41.76 C 149.94 40.91 162.91 46.21 171.11 55.97 C 176.91 62.72 180.16 71.39 180.83 80.23 C 120.59 80.29 60.36 80.20 0.12 80.28 C 0.56 69.91 5.17 59.81 12.82 52.78 C 18.72 46.95 26.59 43.56 34.66 41.99 C 22.86 48.05 14.28 59.96 12.58 73.14 C 12.50 74.65 11.76 76.80 13.73 77.55 C 14.32 74.29 14.63 70.98 15.59 67.80 C 18.78 56.73 27.12 47.29 37.67 42.69 C 39.68 41.77 41.95 42.03 44.10 41.91 C 44.46 41.45 45.17 40.55 45.53 40.10 C 49.50 39.42 53.53 39.09 57.54 39.53 Z" />
</g>
</svg>
