<?xml version="1.0" encoding="UTF-8" ?>
<!DOCTYPE svg PUBLIC "-//W3C//DTD SVG 1.1//EN" "http://www.w3.org/Graphics/SVG/1.1/DTD/svg11.dtd">
<svg width="198px" height="82px" viewBox="0 0 198 82" version="1.1" xmlns="http://www.w3.org/2000/svg">
<g id="#eeeeeeff">
<path fill="#eeeeee" opacity="1.00" d=" M 46.49 37.98 C 54.71 26.70 67.05 18.66 80.77 15.97 C 79.62 16.94 78.35 17.75 77.13 18.62 L 76.32 18.43 C 74.68 19.62 73.01 20.78 71.30 21.88 L 71.74 22.70 C 71.38 22.66 70.66 22.57 70.30 22.52 C 69.10 23.75 67.84 24.92 66.49 25.97 L 66.56 26.90 L 65.10 26.17 L 65.93 27.60 L 64.39 27.26 L 64.67 28.68 L 63.97 28.50 C 62.90 29.85 61.73 31.12 60.51 32.34 C 60.57 32.67 60.68 33.33 60.74 33.66 L 59.81 33.33 C 58.93 34.76 58.00 36.16 57.17 37.62 C 52.59 38.20 48.01 38.52 43.40 38.72 L 46.49 37.98 Z" />
<path fill="#eeeeee" opacity="1.00" d=" M 84.47 16.14 L 84.20 15.60 C 105.05 12.76 126.75 23.57 137.24 41.76 C 150.14 40.89 163.32 46.38 171.50 56.43 C 177.06 63.12 180.18 71.60 180.82 80.24 C 120.58 80.28 60.34 80.22 0.10 80.27 C 0.65 62.06 15.03 45.63 32.92 42.43 L 33.23 41.41 C 34.49 43.31 31.31 43.78 30.38 44.85 L 30.65 45.05 C 28.75 46.14 27.11 47.60 25.35 48.89 L 25.72 49.82 L 24.18 49.29 L 24.79 50.81 L 23.09 50.02 L 23.69 51.07 C 22.33 52.48 20.84 53.85 20.06 55.69 L 19.79 55.28 C 18.77 57.03 17.70 58.78 17.08 60.73 L 16.07 60.58 C 16.26 61.06 16.63 62.02 16.81 62.50 L 15.75 62.54 C 14.27 67.39 12.20 72.57 13.09 77.65 C 13.84 74.53 14.59 71.39 14.67 68.16 L 15.44 68.57 C 15.46 67.72 15.51 66.02 15.54 65.17 L 16.11 65.47 C 16.89 62.92 18.01 60.50 19.37 58.21 C 20.22 56.99 21.05 55.75 21.80 54.47 L 22.04 54.32 C 24.29 51.68 26.72 49.17 29.46 47.03 L 29.30 46.77 C 30.37 46.27 31.44 45.77 32.50 45.25 L 32.91 45.01 C 33.25 44.80 33.95 44.38 34.29 44.17 L 35.07 43.80 C 36.15 43.26 37.20 42.68 38.28 42.13 L 38.27 41.51 C 40.24 41.65 42.21 41.75 44.18 41.87 C 44.58 41.12 44.99 40.36 45.39 39.61 C 49.73 39.43 54.00 38.58 58.33 38.37 C 58.42 37.82 58.61 36.73 58.70 36.18 L 59.15 36.64 C 59.98 35.32 60.90 34.05 61.74 32.74 C 61.95 32.45 62.38 31.89 62.59 31.61 C 64.83 29.21 67.15 26.91 69.51 24.64 C 69.83 24.41 70.46 23.95 70.78 23.72 C 74.92 20.46 79.61 18.10 84.47 16.14 Z" />
</g>
</svg>
