<?xml version="1.0" encoding="UTF-8" ?>
<!DOCTYPE svg PUBLIC "-//W3C//DTD SVG 1.1//EN" "http://www.w3.org/Graphics/SVG/1.1/DTD/svg11.dtd">
<svg width="23px" height="110px" viewBox="0 0 23 110" version="1.1" xmlns="http://www.w3.org/2000/svg">
<g id="#e1ababff">
<path fill="#e1abab" opacity="1.00" d=" M 1.60 0.09 C 8.59 1.10 15.59 2.04 22.58 3.12 C 22.29 14.11 21.86 25.13 20.44 36.04 C 19.89 40.46 18.44 44.70 17.77 49.10 C 16.46 57.36 16.59 65.74 15.82 74.05 C 14.85 82.35 17.00 90.53 18.30 98.66 C 19.09 102.40 19.06 106.26 19.87 110.00 L 18.57 110.00 C 18.52 109.81 18.42 109.42 18.37 109.22 C 13.68 107.00 8.88 105.02 4.12 102.95 C 5.10 102.09 6.42 101.35 6.56 99.90 C 7.71 94.31 6.37 88.60 5.43 83.07 C 2.76 70.61 0.56 57.49 4.15 44.96 C 4.24 29.98 2.55 15.03 1.60 0.09 Z" />
</g>
</svg>
