<?xml version="1.0" encoding="UTF-8" ?>
<!DOCTYPE svg PUBLIC "-//W3C//DTD SVG 1.1//EN" "http://www.w3.org/Graphics/SVG/1.1/DTD/svg11.dtd">
<svg width="82px" height="152px" viewBox="0 0 82 152" version="1.1" xmlns="http://www.w3.org/2000/svg">
<g id="#0c263dff">
<path fill="#0c263d" opacity="1.00" d=" M 9.06 2.85 C 17.03 1.36 25.17 2.78 33.10 3.87 C 40.62 12.65 43.01 24.89 41.66 36.16 C 39.57 51.13 40.35 66.85 45.95 81.02 C 47.63 85.64 51.25 89.06 53.98 93.04 C 63.43 106.48 72.27 120.35 81.13 134.18 C 78.10 138.73 74.41 143.54 68.95 145.16 C 64.99 146.24 61.87 143.19 59.71 140.32 C 49.20 127.04 39.75 112.97 30.14 99.04 C 28.87 97.21 27.71 95.30 26.75 93.29 C 19.64 78.83 12.51 64.34 6.50 49.38 C 1.87 38.61 0.97 26.58 1.78 15.01 C 2.32 10.35 3.37 3.65 9.06 2.85 Z" />
</g>
</svg>
