<?xml version="1.0" encoding="UTF-8" ?>
<!DOCTYPE svg PUBLIC "-//W3C//DTD SVG 1.1//EN" "http://www.w3.org/Graphics/SVG/1.1/DTD/svg11.dtd">
<svg width="99px" height="65px" viewBox="0 0 99 65" version="1.1" xmlns="http://www.w3.org/2000/svg">
<g id="#fbbebeff">
<path fill="#fbbebe" opacity="1.00" d=" M 61.51 29.64 C 65.26 19.67 69.25 9.77 73.66 0.07 C 82.09 1.88 90.59 3.38 99.00 5.28 L 99.00 5.57 C 98.84 5.61 98.51 5.68 98.35 5.71 C 90.85 17.44 83.95 29.56 75.83 40.88 C 73.61 44.01 70.61 46.59 67.12 48.20 C 58.28 52.18 48.42 52.83 38.87 53.54 C 28.00 54.30 17.87 58.88 8.41 64.01 C 6.90 60.01 4.63 55.78 5.51 51.40 C 6.32 47.92 10.49 49.00 13.08 48.94 C 20.89 48.25 27.78 44.07 34.61 40.55 C 39.67 37.95 45.31 36.72 50.96 36.24 C 55.19 35.81 59.88 33.89 61.51 29.64 Z" />
</g>
</svg>
