<?xml version="1.0" encoding="UTF-8" ?>
<!DOCTYPE svg PUBLIC "-//W3C//DTD SVG 1.1//EN" "http://www.w3.org/Graphics/SVG/1.1/DTD/svg11.dtd">
<svg width="23px" height="110px" viewBox="0 0 23 110" version="1.1" xmlns="http://www.w3.org/2000/svg">
<g id="#e1ababff">
<path fill="#e1abab" opacity="1.00" d=" M 1.60 0.08 C 8.59 1.11 15.60 2.03 22.58 3.12 C 22.29 14.12 21.86 25.13 20.44 36.04 C 19.89 40.47 18.43 44.71 17.77 49.12 C 16.38 58.04 16.58 67.11 15.64 76.08 C 15.20 83.71 17.11 91.19 18.30 98.66 C 19.11 102.40 19.03 106.27 19.88 110.00 L 18.63 110.00 C 18.54 109.81 18.36 109.42 18.27 109.23 C 13.63 106.93 8.82 105.02 4.08 102.94 C 6.74 101.70 6.98 98.60 7.02 96.04 C 6.95 88.50 4.87 81.19 3.63 73.80 C 1.97 64.30 1.48 54.45 4.14 45.08 C 4.26 30.06 2.54 15.07 1.60 0.08 Z" />
</g>
</svg>
