<?xml version="1.0" encoding="UTF-8" ?>
<!DOCTYPE svg PUBLIC "-//W3C//DTD SVG 1.1//EN" "http://www.w3.org/Graphics/SVG/1.1/DTD/svg11.dtd">
<svg width="44px" height="50px" viewBox="0 0 44 50" version="1.1" xmlns="http://www.w3.org/2000/svg">
<g id="#00afffff">
<path fill="#00afff" opacity="1.00" d=" M 26.14 1.02 C 29.06 0.32 32.77 -0.51 35.13 1.95 C 38.14 4.62 37.73 9.07 39.65 12.37 C 40.95 14.80 43.12 17.09 42.79 20.06 C 43.01 25.76 38.43 30.42 38.99 36.15 C 39.07 37.83 40.17 39.22 40.86 40.69 C 31.20 42.50 21.58 46.28 11.65 45.41 C 12.91 43.41 14.82 41.42 14.26 38.83 C 13.08 32.41 8.49 27.38 4.45 22.52 C 1.45 18.88 -0.04 13.55 2.10 9.13 C 3.71 5.38 8.03 3.17 12.02 3.84 C 17.81 4.70 24.02 6.55 29.65 4.05 C 28.45 3.08 27.28 2.07 26.14 1.02 Z" />
</g>
</svg>
