<?xml version="1.0" encoding="UTF-8" ?>
<!DOCTYPE svg PUBLIC "-//W3C//DTD SVG 1.1//EN" "http://www.w3.org/Graphics/SVG/1.1/DTD/svg11.dtd">
<svg width="25px" height="28px" viewBox="0 0 25 28" version="1.1" xmlns="http://www.w3.org/2000/svg">
<g id="#fbbebeff">
<path fill="#fbbebe" opacity="1.00" d=" M 3.56 0.16 C 8.91 0.84 14.24 1.77 19.57 2.61 C 18.63 7.11 16.62 11.97 18.47 16.48 C 19.31 19.24 23.35 17.85 24.39 20.46 C 24.54 20.44 24.85 20.40 25.00 20.38 L 25.00 20.76 C 24.85 20.72 24.54 20.62 24.39 20.57 C 22.84 23.21 20.31 25.95 17.09 26.31 C 11.22 25.64 5.66 23.42 0.30 21.04 L 0.00 21.83 L 0.00 20.97 C 2.31 19.97 4.29 18.22 5.09 15.77 C 6.77 10.62 5.22 5.12 3.56 0.16 Z" />
</g>
</svg>
