<?xml version="1.0" encoding="UTF-8" ?>
<!DOCTYPE svg PUBLIC "-//W3C//DTD SVG 1.1//EN" "http://www.w3.org/Graphics/SVG/1.1/DTD/svg11.dtd">
<svg width="44px" height="50px" viewBox="0 0 44 50" version="1.1" xmlns="http://www.w3.org/2000/svg">
<g id="#00afffff">
<path fill="#00afff" opacity="1.00" d=" M 26.16 0.99 C 29.05 0.36 32.71 -0.51 35.07 1.90 C 38.14 4.56 37.72 9.05 39.65 12.37 C 40.95 14.80 43.12 17.09 42.79 20.06 C 43.02 25.77 38.42 30.43 38.99 36.16 C 39.07 37.84 40.19 39.22 40.84 40.70 C 31.19 42.48 21.57 46.30 11.64 45.41 C 12.84 43.41 14.80 41.53 14.27 38.97 C 13.16 32.48 8.51 27.42 4.45 22.52 C 1.43 18.86 -0.05 13.50 2.13 9.07 C 3.74 5.38 8.00 3.19 11.95 3.84 C 17.80 4.75 23.97 6.41 29.73 4.16 C 28.52 3.13 27.31 2.09 26.16 0.99 Z" />
</g>
</svg>
