<?xml version="1.0" encoding="UTF-8" ?>
<!DOCTYPE svg PUBLIC "-//W3C//DTD SVG 1.1//EN" "http://www.w3.org/Graphics/SVG/1.1/DTD/svg11.dtd">
<svg width="161px" height="227px" viewBox="0 0 161 227" version="1.1" xmlns="http://www.w3.org/2000/svg">
<g id="#fbbebeff">
<path fill="#fbbebe" opacity="1.00" d=" M 140.79 9.62 C 142.72 7.74 145.41 9.57 146.77 11.23 C 152.93 18.61 154.67 28.66 154.51 38.02 C 154.72 47.13 153.20 56.19 150.96 64.99 C 150.67 66.21 150.19 67.37 149.56 68.45 C 137.57 89.13 125.63 109.82 113.63 130.49 C 107.54 140.79 100.04 150.24 91.50 158.62 C 72.96 175.80 54.46 193.05 35.15 209.38 C 31.67 212.17 28.33 215.20 24.45 217.40 C 22.22 218.83 20.31 216.28 19.05 214.76 C 13.43 206.65 9.85 197.37 6.11 188.30 C 14.66 175.30 29.29 167.80 43.87 163.59 C 51.03 161.85 56.97 157.19 62.44 152.47 C 76.33 139.85 87.93 125.00 99.08 109.97 C 112.22 91.93 124.57 73.31 136.14 54.22 C 135.91 42.45 135.60 30.59 137.42 18.92 C 138.03 15.69 138.60 12.20 140.79 9.62 Z" />
</g>
</svg>
