<?xml version="1.0" encoding="UTF-8" ?>
<!DOCTYPE svg PUBLIC "-//W3C//DTD SVG 1.1//EN" "http://www.w3.org/Graphics/SVG/1.1/DTD/svg11.dtd">
<svg width="161pt" height="227pt" viewBox="0 0 161 227" version="1.1" xmlns="http://www.w3.org/2000/svg">
<g id="#fbbebeff">
<path fill="#fbbebe" opacity="1.00" d=" M 140.80 9.59 C 142.53 7.93 144.93 9.26 146.30 10.71 C 151.35 16.26 153.45 23.79 154.28 31.09 C 155.04 41.14 154.21 51.29 151.89 61.10 C 151.26 63.60 150.92 66.24 149.55 68.47 C 137.67 88.97 125.82 109.49 113.93 129.98 C 107.66 140.66 99.92 150.47 91.02 159.07 C 71.77 176.86 52.64 194.81 32.48 211.58 C 29.38 213.80 26.63 216.88 22.85 217.90 C 20.78 217.22 19.45 215.33 18.24 213.63 C 13.15 205.74 9.65 196.97 6.11 188.31 C 14.65 175.30 29.27 167.81 43.84 163.60 C 50.79 161.93 56.59 157.48 61.92 152.92 C 73.55 142.50 83.55 130.41 93.03 118.04 C 108.55 97.58 122.79 76.16 136.14 54.23 C 135.91 42.46 135.60 30.59 137.42 18.91 C 138.03 15.68 138.61 12.19 140.80 9.59 Z" />
</g>
</svg>
