<?xml version="1.0" encoding="UTF-8" ?>
<!DOCTYPE svg PUBLIC "-//W3C//DTD SVG 1.1//EN" "http://www.w3.org/Graphics/SVG/1.1/DTD/svg11.dtd">
<svg width="146px" height="63px" viewBox="0 0 146 63" version="1.1" xmlns="http://www.w3.org/2000/svg">
<g id="#0c263dff">
<path fill="#0c263d" opacity="1.00" d=" M 55.28 13.95 C 65.50 8.53 77.95 7.36 88.85 11.41 C 97.72 14.46 105.01 20.94 110.05 28.74 C 126.69 27.27 142.21 41.78 142.35 58.38 C 141.95 58.20 141.14 57.83 140.74 57.65 C 139.84 52.92 138.87 48.08 136.12 44.02 C 130.49 34.81 119.52 29.54 108.82 30.46 C 105.15 24.48 100.19 19.22 94.02 15.80 C 84.60 10.41 72.88 9.22 62.62 12.85 C 53.59 15.78 45.97 22.30 41.18 30.45 C 38.61 30.48 36.05 30.56 33.48 30.65 C 31.87 30.11 30.20 30.71 28.98 31.80 C 17.71 35.46 9.58 46.23 8.88 58.02 C 8.44 58.00 7.55 57.96 7.11 57.95 C 7.69 47.74 13.44 38.22 22.12 32.86 C 26.08 30.81 30.31 29.20 34.78 28.76 C 36.53 28.72 38.29 28.71 40.04 28.72 C 43.81 22.62 49.10 17.56 55.28 13.95 Z" />
</g>
<g id="#eeeeeeff">
<path fill="#eeeeee" opacity="1.00" d=" M 41.18 30.45 C 45.97 22.30 53.59 15.78 62.62 12.85 C 77.98 10.49 93.72 18.85 101.57 32.03 C 109.24 31.69 117.08 34.00 122.97 39.00 C 129.47 44.32 133.22 52.46 133.78 60.78 C 89.19 60.64 44.59 60.92 0.00 60.64 L 0.00 59.74 C 0.76 54.11 2.53 48.49 6.08 43.97 C 9.99 38.55 15.91 35.06 22.12 32.86 C 13.44 38.22 7.69 47.74 7.11 57.95 C 7.55 57.96 8.44 58.00 8.88 58.02 C 9.58 46.23 17.71 35.46 28.98 31.80 C 30.54 32.40 33.35 33.23 33.48 30.65 C 36.05 30.56 38.61 30.48 41.18 30.45 Z" />
<path fill="#eeeeee" opacity="1.00" d=" M 34.78 28.76 C 39.89 21.81 47.25 16.90 55.28 13.95 C 49.10 17.56 43.81 22.62 40.04 28.72 C 38.29 28.71 36.53 28.72 34.78 28.76 Z" />
</g>
</svg>
