<svg width="31" height="42" viewBox="0 0 31 42" fill="none" xmlns="http://www.w3.org/2000/svg">
<g clip-path="url(#clip0_8329_224)">
<path d="M26.0787 18.125V18.1025C25.9811 17.7466 25.8143 17.4135 25.5879 17.1221C25.3614 16.8307 25.0798 16.5868 24.759 16.4044C24.4383 16.2219 24.0847 16.1044 23.7186 16.0586C23.3524 16.0128 22.9808 16.0396 22.625 16.1375C21.3462 16.5125 19.5912 17.0375 18.2675 17.42C18.3905 17.0376 18.3785 16.6247 18.2337 16.25C17.8962 15.4063 16.955 15.0275 16.1675 15.0275H12.5C12.1327 15.0033 11.7877 14.8428 11.5325 14.5775C11.1405 14.2153 10.6262 14.0145 10.0925 14.015H7.12624C6.49631 14.0278 5.89722 14.2901 5.46057 14.7444C5.02393 15.1986 4.78544 15.8076 4.79749 16.4375V21.1588C4.78543 21.8 5.02815 22.4199 5.47243 22.8824C5.91671 23.345 6.52628 23.6125 7.16749 23.6263H10.7337C11.1913 23.6243 11.6378 23.4859 12.0162 23.2288H12.0537C13.0921 23.8102 14.2611 24.1186 15.4512 24.125C16.1582 24.127 16.8614 24.0208 17.5362 23.81L24.1587 21.7888H24.2075C24.5714 21.6718 24.9087 21.4841 25.1999 21.2365C25.491 20.9888 25.7304 20.6861 25.9043 20.3457C26.0782 20.0052 26.1831 19.6338 26.213 19.2527C26.243 18.8717 26.1973 18.4884 26.0787 18.125ZM7.16749 22.1263C6.92406 22.1127 6.6959 22.0033 6.53287 21.822C6.36985 21.6407 6.28522 21.4023 6.29749 21.1588V16.4525C6.28523 16.2203 6.36562 15.9928 6.521 15.8198C6.67639 15.6468 6.89407 15.5426 7.12624 15.53H10.0887C10.2478 15.5285 10.4011 15.589 10.5162 15.6988C10.6283 15.7991 10.746 15.893 10.8687 15.98V22.1113C10.8238 22.115 10.7787 22.115 10.7337 22.1113L7.16749 22.1263ZM23.6975 20.375L17.09 22.3775C16.5599 22.5446 16.007 22.6281 15.4512 22.625C14.512 22.6247 13.5881 22.386 12.7662 21.9313L12.3687 21.7175V16.535H12.4962H16.1675C16.2944 16.5232 16.4223 16.5426 16.54 16.5916C16.6577 16.6407 16.7615 16.7178 16.8425 16.8163C16.895 16.9513 16.7975 17.3975 16.0362 18.1213L15.605 18.5375L15.9012 19.0513C16.205 19.5763 16.5012 19.49 17.7537 19.1338C18.3462 18.965 19.1375 18.7363 19.925 18.5038C21.4925 18.0463 23.06 17.5775 23.06 17.5775C23.3948 17.4997 23.7468 17.5552 24.0414 17.7323C24.3361 17.9094 24.5503 18.1941 24.6387 18.5263C24.7066 18.709 24.7359 18.9039 24.7247 19.0985C24.7135 19.2931 24.662 19.4833 24.5735 19.657C24.4851 19.8308 24.3616 19.9843 24.2108 20.1079C24.06 20.2314 23.8852 20.3224 23.6975 20.375Z" fill="white"/>
<path d="M22.4563 6.35375C22.9986 6.35375 23.5287 6.19288 23.9796 5.8915C24.4305 5.59012 24.7819 5.16178 24.9892 4.66066C25.1966 4.15954 25.2507 3.60818 25.1446 3.07633C25.0385 2.54447 24.7771 2.05604 24.3933 1.67281C24.0096 1.28959 23.5208 1.02881 22.9888 0.923464C22.4568 0.818116 21.9055 0.872937 21.4046 1.08099C20.9038 1.28904 20.476 1.64098 20.1752 2.09227C19.8744 2.54356 19.7143 3.07392 19.715 3.61625C19.717 4.34232 20.0066 5.03803 20.5203 5.55109C21.0341 6.06415 21.7302 6.35276 22.4563 6.35375ZM22.4563 2.375C22.7018 2.375 22.9418 2.4478 23.1459 2.58419C23.35 2.72058 23.5091 2.91443 23.603 3.14124C23.697 3.36805 23.7216 3.61762 23.6737 3.8584C23.6258 4.09918 23.5076 4.32035 23.334 4.49394C23.1604 4.66754 22.9392 4.78575 22.6984 4.83365C22.4577 4.88154 22.2081 4.85696 21.9813 4.76301C21.7545 4.66907 21.5606 4.50997 21.4242 4.30585C21.2878 4.10173 21.215 3.86174 21.215 3.61625C21.215 3.45324 21.2471 3.29184 21.3095 3.14124C21.3719 2.99065 21.4633 2.85381 21.5786 2.73855C21.6938 2.62329 21.8307 2.53186 21.9813 2.46948C22.1319 2.4071 22.2933 2.375 22.4563 2.375Z" fill="white"/>
<path d="M21.5675 14.5175H22.805C23.5257 14.5165 24.2167 14.2298 24.7263 13.7201C25.236 13.2105 25.5227 12.5195 25.5237 11.7988V9.66501C25.5227 8.94426 25.236 8.25331 24.7263 7.74366C24.2167 7.23401 23.5257 6.94725 22.805 6.94626H21.68C20.9592 6.94725 20.2683 7.23401 19.7586 7.74366C19.249 8.25331 18.9622 8.94426 18.9612 9.66501V11.7875C18.9549 12.4923 19.2236 13.1717 19.7103 13.6815C20.1969 14.1913 20.8632 14.4912 21.5675 14.5175ZM20.465 9.66501C20.465 9.34178 20.5934 9.03178 20.8219 8.80322C21.0505 8.57466 21.3605 8.44626 21.6837 8.44626H22.8087C23.1317 8.44725 23.4411 8.57597 23.6694 8.80431C23.8978 9.03266 24.0265 9.34208 24.0275 9.66501V11.7988C24.0265 12.1217 23.8978 12.4311 23.6694 12.6595C23.4411 12.8878 23.1317 13.0165 22.8087 13.0175H21.5712C21.2622 12.9926 20.9749 12.849 20.7694 12.617C20.5638 12.3849 20.4561 12.0823 20.4687 11.7725L20.465 9.66501Z" fill="white"/>
</g>
<path d="M4.92188 36.1855H6.14258C6.10352 36.651 5.97331 37.0661 5.75195 37.4307C5.5306 37.792 5.21973 38.0768 4.81934 38.2852C4.41895 38.4935 3.93229 38.5977 3.35938 38.5977C2.91992 38.5977 2.52441 38.5195 2.17285 38.3633C1.82129 38.2038 1.52018 37.9792 1.26953 37.6895C1.01888 37.3965 0.826823 37.0433 0.693359 36.6299C0.563151 36.2165 0.498047 35.7542 0.498047 35.2432V34.6523C0.498047 34.1413 0.564779 33.679 0.698242 33.2656C0.834961 32.8522 1.03027 32.499 1.28418 32.2061C1.53809 31.9098 1.84245 31.6836 2.19727 31.5273C2.55534 31.3711 2.95736 31.293 3.40332 31.293C3.96973 31.293 4.44824 31.3971 4.83887 31.6055C5.22949 31.8138 5.53223 32.1019 5.74707 32.4697C5.96517 32.8376 6.09863 33.2591 6.14746 33.7344H4.92676C4.89421 33.4284 4.82259 33.1663 4.71191 32.9482C4.60449 32.7301 4.44499 32.5641 4.2334 32.4502C4.02181 32.333 3.74512 32.2744 3.40332 32.2744C3.12337 32.2744 2.87923 32.3265 2.6709 32.4307C2.46257 32.5348 2.28841 32.6878 2.14844 32.8896C2.00846 33.0915 1.90267 33.3405 1.83105 33.6367C1.7627 33.9297 1.72852 34.265 1.72852 34.6426V35.2432C1.72852 35.6012 1.75944 35.9268 1.82129 36.2197C1.88639 36.5094 1.98405 36.7585 2.11426 36.9668C2.24772 37.1751 2.41699 37.3363 2.62207 37.4502C2.82715 37.5641 3.07292 37.6211 3.35938 37.6211C3.70768 37.6211 3.98926 37.5658 4.2041 37.4551C4.4222 37.3444 4.58659 37.1833 4.69727 36.9717C4.8112 36.7568 4.88607 36.4948 4.92188 36.1855ZM11.709 37.5283V38.5H8.13965V37.5283H11.709ZM8.48145 31.3906V38.5H7.25586V31.3906H8.48145ZM15.5225 32.3379L13.3984 38.5H12.1143L14.79 31.3906H15.6104L15.5225 32.3379ZM17.2998 38.5L15.1709 32.3379L15.0781 31.3906H15.9033L18.5889 38.5H17.2998ZM17.1973 35.8633V36.835H13.3301V35.8633H17.1973ZM20.6934 31.3906V38.5H19.4678V31.3906H20.6934ZM22.7148 31.3906H23.8086L25.8643 36.874L27.915 31.3906H29.0088L26.2939 38.5H25.4248L22.7148 31.3906ZM22.2168 31.3906H23.2568L23.4375 36.1367V38.5H22.2168V31.3906ZM28.4668 31.3906H29.5117V38.5H28.2861V36.1367L28.4668 31.3906Z" fill="white"/>
<defs>
<clipPath id="clip0_8329_224">
<rect width="24" height="24" fill="white" transform="translate(3.5 0.5)"/>
</clipPath>
</defs>
</svg>
