<svg width="39" height="42" viewBox="0 0 39 42" fill="none" xmlns="http://www.w3.org/2000/svg">
<path d="M11.9507 14.4082L18.9033 20.9395C19.1428 21.1644 19.2625 21.2769 19.4037 21.3046C19.4673 21.3171 19.5327 21.3171 19.5963 21.3046C19.7375 21.2769 19.8572 21.1644 20.0967 20.9395L27.0493 14.4082C29.0055 12.5706 29.243 9.5466 27.5978 7.42607L27.2885 7.02734C25.3203 4.49058 21.3696 4.91601 19.9867 7.81365C19.7913 8.22296 19.2087 8.22296 19.0133 7.81365C17.6304 4.91601 13.6797 4.49058 11.7115 7.02735L11.4022 7.42607C9.75695 9.5466 9.9945 12.5706 11.9507 14.4082Z" stroke="white" stroke-width="2"/>
<path d="M2.78809 38.5H1.26953L1.2793 37.5283H2.78809C3.22754 37.5283 3.59538 37.4323 3.8916 37.2402C4.19108 37.0482 4.41569 36.7731 4.56543 36.415C4.71842 36.057 4.79492 35.6305 4.79492 35.1357V34.75C4.79492 34.3659 4.75098 34.0257 4.66309 33.7295C4.57845 33.4333 4.4515 33.1842 4.28223 32.9824C4.11621 32.7806 3.91113 32.6276 3.66699 32.5234C3.42611 32.4193 3.14779 32.3672 2.83203 32.3672H1.24023V31.3906H2.83203C3.30404 31.3906 3.73535 31.4704 4.12598 31.6299C4.5166 31.7861 4.85352 32.0124 5.13672 32.3086C5.42318 32.6048 5.6429 32.9596 5.7959 33.373C5.94889 33.7865 6.02539 34.2487 6.02539 34.7598V35.1357C6.02539 35.6468 5.94889 36.109 5.7959 36.5225C5.6429 36.9359 5.42318 37.2907 5.13672 37.5869C4.85026 37.8799 4.50846 38.1061 4.11133 38.2656C3.71745 38.4219 3.27637 38.5 2.78809 38.5ZM1.94824 31.3906V38.5H0.722656V31.3906H1.94824ZM12.9248 34.75V35.1406C12.9248 35.6777 12.8548 36.1595 12.7148 36.5859C12.5749 37.0124 12.3747 37.3753 12.1143 37.6748C11.8571 37.9743 11.5479 38.2038 11.1865 38.3633C10.8252 38.5195 10.4248 38.5977 9.98535 38.5977C9.54915 38.5977 9.15039 38.5195 8.78906 38.3633C8.43099 38.2038 8.12012 37.9743 7.85645 37.6748C7.59277 37.3753 7.3877 37.0124 7.24121 36.5859C7.09798 36.1595 7.02637 35.6777 7.02637 35.1406V34.75C7.02637 34.2129 7.09798 33.7327 7.24121 33.3096C7.38444 32.8831 7.58626 32.5202 7.84668 32.2207C8.11035 31.918 8.42122 31.6885 8.7793 31.5322C9.14062 31.3727 9.53939 31.293 9.97559 31.293C10.415 31.293 10.8154 31.3727 11.1768 31.5322C11.5381 31.6885 11.849 31.918 12.1094 32.2207C12.3698 32.5202 12.57 32.8831 12.71 33.3096C12.8532 33.7327 12.9248 34.2129 12.9248 34.75ZM11.6992 35.1406V34.7402C11.6992 34.3431 11.6602 33.9932 11.582 33.6904C11.5072 33.3844 11.3949 33.1289 11.2451 32.9238C11.0986 32.7155 10.918 32.5592 10.7031 32.4551C10.4883 32.3477 10.2458 32.2939 9.97559 32.2939C9.7054 32.2939 9.46452 32.3477 9.25293 32.4551C9.04134 32.5592 8.86068 32.7155 8.71094 32.9238C8.56445 33.1289 8.45215 33.3844 8.37402 33.6904C8.2959 33.9932 8.25684 34.3431 8.25684 34.7402V35.1406C8.25684 35.5378 8.2959 35.8893 8.37402 36.1953C8.45215 36.5013 8.56608 36.7601 8.71582 36.9717C8.86882 37.18 9.05111 37.3379 9.2627 37.4453C9.47428 37.5495 9.71517 37.6016 9.98535 37.6016C10.2588 37.6016 10.5013 37.5495 10.7129 37.4453C10.9245 37.3379 11.1035 37.18 11.25 36.9717C11.3965 36.7601 11.5072 36.5013 11.582 36.1953C11.6602 35.8893 11.6992 35.5378 11.6992 35.1406ZM19.79 31.3906V38.5H18.5645L15.376 33.4072V38.5H14.1504V31.3906H15.376L18.5742 36.4932V31.3906H19.79ZM24.1064 32.3379L21.9824 38.5H20.6982L23.374 31.3906H24.1943L24.1064 32.3379ZM25.8838 38.5L23.7549 32.3379L23.6621 31.3906H24.4873L27.1729 38.5H25.8838ZM25.7812 35.8633V36.835H21.9141V35.8633H25.7812ZM30.2783 31.3906V38.5H29.0625V31.3906H30.2783ZM32.5098 31.3906V32.3672H26.8506V31.3906H32.5098ZM38.1006 37.5283V38.5H34.3262V37.5283H38.1006ZM34.6729 31.3906V38.5H33.4473V31.3906H34.6729ZM37.6074 34.3594V35.3164H34.3262V34.3594H37.6074ZM38.0762 31.3906V32.3672H34.3262V31.3906H38.0762Z" fill="white"/>
</svg>
