<svg width="69" height="42" viewBox="0 0 69 42" fill="none" xmlns="http://www.w3.org/2000/svg">
<path d="M43.3334 1.17499H25.3334C24.0584 1.17499 23.0084 2.22499 23.0084 3.49999V10.475C23.0084 11.75 24.0584 12.8 25.3334 12.8H43.3334C44.6084 12.8 45.6584 11.75 45.6584 10.475V3.49999C45.6584 2.22499 44.6084 1.17499 43.3334 1.17499ZM44.0084 10.475C44.0084 10.85 43.7084 11.15 43.3334 11.15H25.3334C24.9584 11.15 24.6584 10.85 24.6584 10.475V3.49999C24.6584 3.12499 24.9584 2.82499 25.3334 2.82499H43.3334C43.7084 2.82499 44.0084 3.12499 44.0084 3.49999V10.475Z" fill="white"/>
<path d="M30.5084 15.05H25.3334C24.0584 15.05 23.0084 16.1 23.0084 17.375V21.5C23.0084 22.775 24.0584 23.825 25.3334 23.825H30.5084C31.7834 23.825 32.8334 22.775 32.8334 21.5V17.375C32.8709 16.1 31.8209 15.05 30.5084 15.05ZM31.1834 21.5C31.1834 21.875 30.8834 22.175 30.5084 22.175H25.3334C24.9584 22.175 24.6584 21.875 24.6584 21.5V17.375C24.6584 17 24.9584 16.7 25.3334 16.7H30.5084C30.8834 16.7 31.1834 17 31.1834 17.375V21.5Z" fill="white"/>
<path d="M43.3334 15.05H38.1584C36.8834 15.05 35.8334 16.1 35.8334 17.375V21.5C35.8334 22.775 36.8834 23.825 38.1584 23.825H43.3334C44.6084 23.825 45.6584 22.775 45.6584 21.5V17.375C45.6584 16.1 44.6084 15.05 43.3334 15.05ZM44.0084 21.5C44.0084 21.875 43.7084 22.175 43.3334 22.175H38.1584C37.7834 22.175 37.4834 21.875 37.4834 21.5V17.375C37.4834 17 37.7834 16.7 38.1584 16.7H43.3334C43.7084 16.7 44.0084 17 44.0084 17.375V21.5Z" fill="white"/>
<path d="M3.12146 38.5H1.60291L1.61267 37.5283H3.12146C3.56091 37.5283 3.92875 37.4323 4.22498 37.2402C4.52445 37.0482 4.74906 36.7731 4.8988 36.415C5.0518 36.057 5.1283 35.6305 5.1283 35.1357V34.75C5.1283 34.3659 5.08435 34.0257 4.99646 33.7295C4.91182 33.4333 4.78487 33.1842 4.6156 32.9824C4.44958 32.7806 4.24451 32.6276 4.00037 32.5234C3.75948 32.4193 3.48116 32.3672 3.16541 32.3672H1.57361V31.3906H3.16541C3.63741 31.3906 4.06873 31.4704 4.45935 31.6299C4.84998 31.7861 5.18689 32.0124 5.47009 32.3086C5.75655 32.6048 5.97628 32.9596 6.12927 33.373C6.28227 33.7865 6.35876 34.2487 6.35876 34.7598V35.1357C6.35876 35.6468 6.28227 36.109 6.12927 36.5225C5.97628 36.9359 5.75655 37.2907 5.47009 37.5869C5.18363 37.8799 4.84184 38.1061 4.4447 38.2656C4.05082 38.4219 3.60974 38.5 3.12146 38.5ZM2.28162 31.3906V38.5H1.05603V31.3906H2.28162ZM10.2504 32.3379L8.12634 38.5H6.84216L9.51794 31.3906H10.3383L10.2504 32.3379ZM12.0277 38.5L9.8988 32.3379L9.80603 31.3906H10.6312L13.3168 38.5H12.0277ZM11.9252 35.8633V36.835H8.05798V35.8633H11.9252ZM16.8129 35.8486H14.9623V34.877H16.8129C17.1351 34.877 17.3955 34.8249 17.5941 34.7207C17.7927 34.6165 17.9375 34.4733 18.0287 34.291C18.1231 34.1055 18.1703 33.8939 18.1703 33.6562C18.1703 33.4316 18.1231 33.2217 18.0287 33.0264C17.9375 32.8278 17.7927 32.6683 17.5941 32.5479C17.3955 32.4274 17.1351 32.3672 16.8129 32.3672H15.3383V38.5H14.1127V31.3906H16.8129C17.363 31.3906 17.8301 31.4883 18.2142 31.6836C18.6016 31.8757 18.8962 32.1426 19.098 32.4844C19.2998 32.8229 19.4008 33.2103 19.4008 33.6465C19.4008 34.1055 19.2998 34.4993 19.098 34.8281C18.8962 35.1569 18.6016 35.4092 18.2142 35.585C17.8301 35.7607 17.363 35.8486 16.8129 35.8486ZM23.1996 35.8486H21.349V34.877H23.1996C23.5219 34.877 23.7823 34.8249 23.9808 34.7207C24.1794 34.6165 24.3243 34.4733 24.4154 34.291C24.5098 34.1055 24.557 33.8939 24.557 33.6562C24.557 33.4316 24.5098 33.2217 24.4154 33.0264C24.3243 32.8278 24.1794 32.6683 23.9808 32.5479C23.7823 32.4274 23.5219 32.3672 23.1996 32.3672H21.725V38.5H20.4994V31.3906H23.1996C23.7497 31.3906 24.2168 31.4883 24.601 31.6836C24.9883 31.8757 25.2829 32.1426 25.4847 32.4844C25.6866 32.8229 25.7875 33.2103 25.7875 33.6465C25.7875 34.1055 25.6866 34.4993 25.4847 34.8281C25.2829 35.1569 24.9883 35.4092 24.601 35.585C24.2168 35.7607 23.7497 35.8486 23.1996 35.8486ZM33.8295 37.5283V38.5H30.2601V37.5283H33.8295ZM30.6019 31.3906V38.5H29.3763V31.3906H30.6019ZM36.0853 31.3906V38.5H34.8597V31.3906H36.0853ZM40.2748 35.2871H38.4633L38.4535 34.3936H40.0355C40.3024 34.3936 40.5287 34.3545 40.7142 34.2764C40.903 34.195 41.0463 34.0794 41.1439 33.9297C41.2416 33.7767 41.2904 33.5928 41.2904 33.3779C41.2904 33.1403 41.2448 32.9466 41.1537 32.7969C41.0625 32.6471 40.9226 32.5381 40.7338 32.4697C40.5482 32.4014 40.3106 32.3672 40.0209 32.3672H38.8344V38.5H37.6088V31.3906H40.0209C40.4115 31.3906 40.7598 31.4281 41.0658 31.5029C41.375 31.5778 41.6371 31.695 41.8519 31.8545C42.07 32.0107 42.2344 32.2093 42.3451 32.4502C42.459 32.6911 42.516 32.9775 42.516 33.3096C42.516 33.6025 42.446 33.8711 42.306 34.1152C42.1661 34.3561 41.9594 34.5531 41.6859 34.7061C41.4125 34.859 41.0723 34.9502 40.6654 34.9795L40.2748 35.2871ZM40.2211 38.5H38.0775L38.6293 37.5283H40.2211C40.4978 37.5283 40.7289 37.4827 40.9144 37.3916C41.1 37.2972 41.2383 37.1686 41.3295 37.0059C41.4239 36.8398 41.4711 36.6462 41.4711 36.4248C41.4711 36.1937 41.4304 35.9935 41.349 35.8242C41.2676 35.6517 41.139 35.5199 40.9633 35.4287C40.7875 35.3343 40.558 35.2871 40.2748 35.2871H38.8978L38.9076 34.3936H40.6996L40.9779 34.7305C41.3685 34.7435 41.6892 34.8298 41.9398 34.9893C42.1937 35.1488 42.3825 35.3555 42.5062 35.6094C42.6299 35.8633 42.6918 36.1367 42.6918 36.4297C42.6918 36.8822 42.5925 37.2614 42.3939 37.5674C42.1986 37.8734 41.917 38.1061 41.5492 38.2656C41.1814 38.4219 40.7386 38.5 40.2211 38.5ZM43.9271 31.3906H46.4418C46.9821 31.3906 47.4427 31.472 47.8236 31.6348C48.2045 31.7975 48.4958 32.0384 48.6976 32.3574C48.9027 32.6732 49.0052 33.0638 49.0052 33.5293C49.0052 33.8841 48.9401 34.1966 48.8099 34.4668C48.6797 34.737 48.4958 34.9648 48.2582 35.1504C48.0205 35.3327 47.7373 35.4743 47.4086 35.5752L47.0375 35.7559H44.7767L44.767 34.7842H46.4613C46.7543 34.7842 46.9984 34.7321 47.1937 34.6279C47.389 34.5238 47.5355 34.3822 47.6332 34.2031C47.7341 34.0208 47.7845 33.8158 47.7845 33.5879C47.7845 33.3405 47.7357 33.1257 47.6381 32.9434C47.5437 32.7578 47.3972 32.6162 47.1986 32.5186C47 32.4176 46.7478 32.3672 46.4418 32.3672H45.1527V38.5H43.9271V31.3906ZM47.9847 38.5L46.3148 35.3066L47.599 35.3018L49.2933 38.4365V38.5H47.9847ZM52.9945 32.3379L50.8705 38.5H49.5863L52.2621 31.3906H53.0824L52.9945 32.3379ZM54.7719 38.5L52.6429 32.3379L52.5502 31.3906H53.3754L56.0609 38.5H54.7719ZM54.6693 35.8633V36.835H50.8021V35.8633H54.6693ZM56.8568 31.3906H59.3715C59.9118 31.3906 60.3724 31.472 60.7533 31.6348C61.1342 31.7975 61.4255 32.0384 61.6273 32.3574C61.8324 32.6732 61.9349 33.0638 61.9349 33.5293C61.9349 33.8841 61.8698 34.1966 61.7396 34.4668C61.6094 34.737 61.4255 34.9648 61.1879 35.1504C60.9502 35.3327 60.667 35.4743 60.3383 35.5752L59.9672 35.7559H57.7064L57.6967 34.7842H59.391C59.684 34.7842 59.9281 34.7321 60.1234 34.6279C60.3187 34.5238 60.4652 34.3822 60.5629 34.2031C60.6638 34.0208 60.7142 33.8158 60.7142 33.5879C60.7142 33.3405 60.6654 33.1257 60.5677 32.9434C60.4733 32.7578 60.3269 32.6162 60.1283 32.5186C59.9297 32.4176 59.6774 32.3672 59.3715 32.3672H58.0824V38.5H56.8568V31.3906ZM60.9144 38.5L59.2445 35.3066L60.5287 35.3018L62.223 38.4365V38.5H60.9144ZM63.6 31.3906L65.2504 34.7842L66.9008 31.3906H68.2582L65.8656 35.8828V38.5H64.6302V35.8828L62.2377 31.3906H63.6Z" fill="white"/>
</svg>
