<svg xmlns="http://www.w3.org/2000/svg" xmlns:xlink="http://www.w3.org/1999/xlink" width="1000" height="500" viewBox="0 0 1000 500">
  <defs>
    <clipPath id="clip-Logo_Wide">
      <rect width="1000" height="500"/>
    </clipPath>
  </defs>
  <g id="Logo_Wide" data-name="Logo Wide" clip-path="url(#clip-Logo_Wide)">
    <g id="New_Logo" data-name="New Logo" transform="translate(149.374 196.052)">
      <g id="Group_138" data-name="Group 138" transform="translate(366.379 1.431)">
        <path id="Path_40" data-name="Path 40" d="M10.517,0H-19.664V97.454H10.517A48.727,48.727,0,0,0,10.517,0m0,82.242H-4.452V15.21H10.517a33.516,33.516,0,0,1,0,67.032" transform="translate(19.664 0.033)" fill="#151d3d"/>
        <path id="Path_41" data-name="Path 41" d="M12.976,0A37.236,37.236,0,1,0,50.215,37.236,37.278,37.278,0,0,0,12.976,0m0,59.261A22.025,22.025,0,1,1,35,37.236,22.049,22.049,0,0,1,12.976,59.261" transform="translate(108.705 23.018)" fill="#151d3d"/>
        <path id="Path_43" data-name="Path 43" d="M346.875,33.263h15.211V-63.729H346.875Z" transform="translate(-180.852 63.729)" fill="#151d3d"/>
        <path id="Path_44" data-name="Path 44" d="M366.7,33.263h15.21V-63.729H366.7Z" transform="translate(-170.251 63.729)" fill="#151d3d"/>
        <g id="Group_63" data-name="Group 63" transform="translate(219.56 23.019)">
          <path id="Path_45" data-name="Path 45" d="M20.652,2.52A37.034,37.034,0,0,0-1.375-4.712,37.278,37.278,0,0,0-38.612,32.522,37.278,37.278,0,0,0-1.375,69.759a37.043,37.043,0,0,0,22.027-7.231v6.735h15.21V-3.384H20.652ZM-1.375,54.549A22.05,22.05,0,0,1-23.4,32.522,22.049,22.049,0,0,1-1.375,10.5,22.048,22.048,0,0,1,20.652,32.522,22.049,22.049,0,0,1-1.375,54.549" transform="translate(38.612 4.712)" fill="#151d3d"/>
        </g>
        <g id="Group_64" data-name="Group 64" transform="translate(302.71 21.751)">
          <path id="Path_46" data-name="Path 46" d="M0,12.976V50.984H15.21V12.976c0-6.666,1.627-12.469,4.585-16.337,2.921-3.829,6.97-5.69,12.369-5.69v-15.21C12.925-24.261,0-9.295,0,12.976" transform="translate(0 24.261)" fill="#151d3d"/>
        </g>
      </g>
      <g id="Group_139" data-name="Group 139">
        <g id="Group_125" data-name="Group 125" transform="translate(118.229 25.098)">
          <path id="Path_47" data-name="Path 47" d="M25.951,12.976A37.277,37.277,0,0,0-11.286-24.26,37.276,37.276,0,0,0-48.52,12.976,37.276,37.276,0,0,0-11.286,50.213,37.276,37.276,0,0,0,25.951,12.976m-59.264,0A22.051,22.051,0,0,1-11.286-9.048,22.048,22.048,0,0,1,10.741,12.976,22.049,22.049,0,0,1-11.286,35,22.052,22.052,0,0,1-33.313,12.976" transform="translate(48.52 24.26)" fill="#151d3d"/>
        </g>
        <g id="Group_126" data-name="Group 126" transform="translate(199.35 25.098)">
          <path id="Path_48" data-name="Path 48" d="M25.952,12.976A37.279,37.279,0,0,0-11.285-24.26,37.277,37.277,0,0,0-48.522,12.976,37.276,37.276,0,0,0-11.285,50.213,37.278,37.278,0,0,0,25.952,12.976m-59.264,0A22.049,22.049,0,0,1-11.285-9.048,22.051,22.051,0,0,1,10.742,12.976,22.052,22.052,0,0,1-11.285,35,22.05,22.05,0,0,1-33.312,12.976" transform="translate(48.522 24.26)" fill="#151d3d"/>
        </g>
        <g id="Group_127" data-name="Group 127" transform="translate(280.181 2.084)">
          <path id="Path_49" data-name="Path 49" d="M20.652,10.54A37.034,37.034,0,0,0-1.375,3.308,37.276,37.276,0,0,0-38.612,40.542,37.276,37.276,0,0,0-1.375,77.779,37.276,37.276,0,0,0,35.859,40.542c0-.85-.029-1.7-.084-2.531h.084V-19.707H20.652ZM-1.375,62.569A22.052,22.052,0,0,1-23.4,40.542,22.051,22.051,0,0,1-1.375,18.519,22.051,22.051,0,0,1,20.652,40.542,22.052,22.052,0,0,1-1.375,62.569" transform="translate(38.612 19.707)" fill="#151d3d"/>
        </g>
        <g id="Group_128" data-name="Group 128">
          <path id="Path_50" data-name="Path 50" d="M39.779,0H18.269L11.531,6.74a49.079,49.079,0,0,0-22.4-5.364A49.314,49.314,0,0,0-60.13,50.635a48.977,48.977,0,0,0,5.383,22.378L-74.373,92.625h21.526l7.166-7.166A49.12,49.12,0,0,0-10.873,99.9,49.314,49.314,0,0,0,38.388,50.635a49.9,49.9,0,0,0-.586-7.607H-3.268L-18.48,58.238h40.8A34.111,34.111,0,0,1-10.873,84.686,34.091,34.091,0,0,1-44.922,50.635,34.088,34.088,0,0,1-10.873,16.586,33.829,33.829,0,0,1,13.2,26.556l5.486-5.481s0,0,.006.006Z" transform="translate(74.373)" fill="#151d3d"/>
        </g>
      </g>
    </g>
  </g>
</svg>
