<svg width="1080" height="196" viewBox="0 0 1080 196" fill="none" xmlns="http://www.w3.org/2000/svg">
<g clip-path="url(#clip0_239_5482)">
<path d="M621.414 2.28796H574.122V155.02H621.414C663.582 155.02 697.774 120.825 697.774 78.6538C697.774 36.4826 663.582 2.28796 621.414 2.28796ZM621.414 131.168H597.956V26.1239H621.414C650.419 26.1239 673.94 49.6464 673.94 78.6538C673.94 107.661 650.419 131.184 621.414 131.184" fill="#00AFFF"/>
<path d="M800.194 49.6464C790.197 42.2652 778.1 38.3004 765.673 38.3161C733.471 38.3474 707.365 64.4557 707.318 96.6601C707.349 128.88 733.455 154.973 765.673 155.02C778.1 155.02 790.197 151.055 800.194 143.689V154.236H824.029V40.4004H800.194V49.6464ZM765.673 131.184C746.618 131.168 731.183 115.716 731.168 96.6601C731.183 77.6038 746.634 62.1677 765.673 62.152C784.728 62.1677 800.163 77.6038 800.194 96.6601C800.179 115.716 784.728 131.152 765.673 131.184Z" fill="#00AFFF"/>
<path d="M861.182 40.4004H837.348V196H861.182V143.689C871.18 151.071 883.277 155.035 895.704 155.02C927.921 154.988 954.012 128.88 954.059 96.6601C954.028 64.4558 927.921 38.3475 895.704 38.3162C883.277 38.3162 871.18 42.281 861.182 49.6465V40.4004ZM895.704 131.184C876.649 131.168 861.214 115.716 861.182 96.6601C861.198 77.6039 876.649 62.1678 895.704 62.1521C914.758 62.1678 930.194 77.6039 930.209 96.6601C930.194 115.716 914.743 131.152 895.704 131.184Z" fill="#00AFFF"/>
<path d="M987.139 40.4004H963.304V196H987.139V143.689C997.136 151.071 1009.23 155.035 1021.66 155.02C1053.88 154.988 1079.97 128.88 1080.02 96.6601C1079.98 64.4558 1053.88 38.3475 1021.66 38.3162C1009.23 38.3162 997.136 42.281 987.139 49.6465V40.4004ZM1021.66 131.184C1002.61 131.168 987.17 115.716 987.139 96.6601C987.154 77.6039 1002.61 62.1678 1021.66 62.1521C1040.71 62.1678 1056.15 77.6039 1056.17 96.6601C1056.15 115.716 1040.7 131.152 1021.66 131.184Z" fill="#00AFFF"/>
<path d="M301.963 97.6787C301.932 65.4587 275.825 39.3661 243.608 39.3191C211.406 39.3504 185.299 65.4587 185.268 97.6787C185.299 129.899 211.406 155.991 243.608 156.038C275.825 156.007 301.932 129.899 301.963 97.6787ZM209.102 97.6787C209.118 78.6225 224.568 63.1864 243.623 63.1707C262.678 63.1864 278.113 78.6225 278.145 97.6787C278.129 116.735 262.678 132.171 243.623 132.187C224.568 132.171 209.133 116.719 209.102 97.6787Z" fill="#00AFFF"/>
<path d="M429.079 97.6787C429.048 65.4587 402.941 39.3661 370.724 39.3191C338.506 39.3504 312.415 65.4587 312.368 97.6787C312.399 129.899 338.506 156.007 370.724 156.038C402.941 156.007 429.032 129.899 429.079 97.6787ZM336.218 97.6787C336.234 78.6225 351.684 63.1864 370.739 63.1707C389.794 63.1864 405.229 78.6382 405.26 97.6787C405.229 116.735 389.794 132.171 370.739 132.187C351.684 132.171 336.249 116.719 336.218 97.6787Z" fill="#00AFFF"/>
<path d="M531.906 50.6651C521.909 43.284 509.811 39.3191 497.385 39.3348C465.167 39.3661 439.077 65.4744 439.03 97.6788C439.061 129.899 465.167 156.007 497.385 156.038C529.603 156.007 555.694 129.899 555.725 97.6788C555.725 96.3467 555.678 95.0147 555.6 93.714H555.725V3.25964H531.891V50.6651H531.906ZM497.385 132.202C478.33 132.187 462.895 116.735 462.879 97.6788C462.911 78.6226 478.346 63.1864 497.385 63.1707C516.44 63.1864 531.875 78.6226 531.906 97.6788C531.891 116.735 516.44 132.171 497.385 132.202Z" fill="#00AFFF"/>
<path d="M178.874 0H145.168L134.606 10.5624C123.731 5.01479 111.712 2.13129 99.5052 2.16263C56.8982 2.20964 22.3613 36.749 22.3142 79.3591C22.3142 91.5513 25.1975 103.571 30.7448 114.431L0 145.147H33.7378L44.9732 133.911C59.4211 148.406 79.0557 156.556 99.5209 156.54C142.144 156.493 176.665 121.953 176.712 79.3277C176.712 75.3316 176.398 71.3511 175.787 67.4019H111.43L87.5959 91.2379H151.53C145.936 115.466 124.389 132.657 99.5209 132.688C70.0611 132.657 46.1955 108.774 46.1642 79.3277C46.1955 49.8658 70.0611 25.9986 99.5209 25.9672C113.671 25.9359 127.257 31.5618 137.239 41.5914L145.842 33.0036L178.874 0Z" fill="#00AFFF"/>
</g>
<defs>
<clipPath id="clip0_239_5482">
<rect width="1080" height="196" fill="white"/>
</clipPath>
</defs>
</svg>
