<svg width="29" height="42" viewBox="0 0 29 42" fill="none" xmlns="http://www.w3.org/2000/svg">
<path d="M14.7456 2.75C9.95209 2.75 6.01146 6.413 5.62724 11.0833H4.66671C4.36283 11.0833 4.08898 11.2667 3.97324 11.5477C3.8575 11.8287 3.92275 12.1517 4.13847 12.3657L5.81828 14.0324C6.11069 14.3225 6.58235 14.3225 6.87476 14.0324L8.55457 12.3657C8.7703 12.1517 8.83554 11.8287 8.7198 11.5477C8.60406 11.2667 8.33021 11.0833 8.02633 11.0833H7.13349C7.5132 7.25167 10.7715 4.25 14.7456 4.25C17.5151 4.25 19.9394 5.70845 21.2823 7.89279C21.4992 8.24565 21.9611 8.35585 22.314 8.13892C22.6668 7.92199 22.777 7.46007 22.5601 7.10721C20.9537 4.49427 18.054 2.75 14.7456 2.75Z" fill="white"/>
<path d="M23.5078 10.9666C23.2157 10.6778 22.7456 10.6778 22.4534 10.9666L20.7671 12.6333C20.5508 12.8471 20.4851 13.1703 20.6006 13.4517C20.7162 13.733 20.9902 13.9167 21.2944 13.9167H22.1935C21.8122 17.7462 18.5426 20.75 14.5494 20.75C11.7669 20.75 9.33255 19.2903 7.98464 17.1061C7.76711 16.7536 7.30501 16.6442 6.95252 16.8618C6.60002 17.0793 6.49062 17.5414 6.70815 17.8939C8.32076 20.507 11.2307 22.25 14.5494 22.25C19.3573 22.25 23.3142 18.5892 23.6998 13.9167H24.6668C24.971 13.9167 25.245 13.733 25.3606 13.4517C25.4762 13.1703 25.4104 12.8471 25.1941 12.6333L23.5078 10.9666Z" fill="white"/>
<path d="M5.12958 36.6689C5.12958 36.5225 5.10679 36.3923 5.06122 36.2783C5.0189 36.1644 4.9424 36.0602 4.83173 35.9658C4.72105 35.8714 4.5648 35.7803 4.36298 35.6924C4.16441 35.6012 3.9105 35.5085 3.60126 35.4141C3.26272 35.3099 2.95022 35.1943 2.66376 35.0674C2.38055 34.9372 2.13316 34.7874 1.92157 34.6182C1.70998 34.4456 1.54559 34.2487 1.42841 34.0273C1.31122 33.8027 1.25262 33.5439 1.25262 33.251C1.25262 32.9613 1.31285 32.6976 1.43329 32.46C1.55699 32.2223 1.73114 32.0173 1.95575 31.8447C2.18361 31.6689 2.45217 31.5339 2.76141 31.4395C3.07066 31.3418 3.41246 31.293 3.7868 31.293C4.31415 31.293 4.76825 31.3906 5.14911 31.5859C5.53322 31.7812 5.82782 32.0433 6.0329 32.3721C6.24123 32.7008 6.3454 33.0638 6.3454 33.4609H5.12958C5.12958 33.2266 5.07912 33.0199 4.97821 32.8408C4.88055 32.6585 4.73081 32.5153 4.52899 32.4111C4.33042 32.307 4.07815 32.2549 3.77216 32.2549C3.48244 32.2549 3.24156 32.2988 3.0495 32.3867C2.85744 32.4746 2.71421 32.5934 2.61981 32.7432C2.52541 32.8929 2.47821 33.0622 2.47821 33.251C2.47821 33.3844 2.50913 33.5065 2.57098 33.6172C2.63283 33.7246 2.72723 33.8255 2.85419 33.9199C2.98114 34.0111 3.14065 34.0973 3.3327 34.1787C3.52476 34.2601 3.751 34.3382 4.01141 34.4131C4.40529 34.5303 4.74872 34.6605 5.04169 34.8037C5.33466 34.9437 5.5788 35.1032 5.77411 35.2822C5.96942 35.4613 6.11591 35.6647 6.21356 35.8926C6.31122 36.1172 6.36005 36.3727 6.36005 36.6592C6.36005 36.9587 6.29983 37.2288 6.17938 37.4697C6.05894 37.7074 5.88641 37.9108 5.6618 38.0801C5.44045 38.2461 5.17352 38.3747 4.86102 38.4658C4.55178 38.5537 4.20673 38.5977 3.82587 38.5977C3.48407 38.5977 3.14716 38.5521 2.81512 38.4609C2.48635 38.3698 2.18687 38.2314 1.91669 38.0459C1.6465 37.8571 1.43166 37.6227 1.27216 37.3428C1.11265 37.0596 1.0329 36.7292 1.0329 36.3516H2.25848C2.25848 36.5827 2.29755 36.7796 2.37567 36.9424C2.45705 37.1051 2.56936 37.2386 2.71259 37.3428C2.85581 37.4437 3.02183 37.5186 3.21063 37.5674C3.40269 37.6162 3.60777 37.6406 3.82587 37.6406C4.11233 37.6406 4.35158 37.5999 4.54364 37.5186C4.73895 37.4372 4.88544 37.3232 4.98309 37.1768C5.08075 37.0303 5.12958 36.861 5.12958 36.6689ZM9.22626 36.9033L10.6423 31.3906H11.3845L11.3015 32.8115L9.78778 38.5H9.0163L9.22626 36.9033ZM8.16669 31.3906L9.31415 36.8594L9.41669 38.5H8.59637L6.95087 31.3906H8.16669ZM12.9909 36.8447L14.1237 31.3906H15.3444L13.6989 38.5H12.8786L12.9909 36.8447ZM11.6725 31.3906L13.0739 36.918L13.279 38.5H12.5075L11.0182 32.8115L10.9401 31.3906H11.6725ZM18.8063 32.3379L16.6823 38.5H15.3981L18.0739 31.3906H18.8942L18.8063 32.3379ZM20.5837 38.5L18.4548 32.3379L18.362 31.3906H19.1872L21.8727 38.5H20.5837ZM20.4811 35.8633V36.835H16.614V35.8633H20.4811ZM25.3688 35.8486H23.5182V34.877H25.3688C25.6911 34.877 25.9515 34.8249 26.1501 34.7207C26.3487 34.6165 26.4935 34.4733 26.5847 34.291C26.6791 34.1055 26.7263 33.8939 26.7263 33.6562C26.7263 33.4316 26.6791 33.2217 26.5847 33.0264C26.4935 32.8278 26.3487 32.6683 26.1501 32.5479C25.9515 32.4274 25.6911 32.3672 25.3688 32.3672H23.8942V38.5H22.6686V31.3906H25.3688C25.919 31.3906 26.3861 31.4883 26.7702 31.6836C27.1576 31.8757 27.4522 32.1426 27.654 32.4844C27.8558 32.8229 27.9567 33.2103 27.9567 33.6465C27.9567 34.1055 27.8558 34.4993 27.654 34.8281C27.4522 35.1569 27.1576 35.4092 26.7702 35.585C26.3861 35.7607 25.919 35.8486 25.3688 35.8486Z" fill="white"/>
</svg>
