<svg id="undraw_connection_b38q" xmlns="http://www.w3.org/2000/svg" width="230" height="177.888" viewBox="0 0 230 177.888">
  <path id="Path_5584" data-name="Path 5584" d="M350.466,227.074a62.988,62.988,0,1,1,44.54-18.449A62.988,62.988,0,0,1,350.466,227.074Zm0-125.566a62.578,62.578,0,1,0,62.578,62.578A62.649,62.649,0,0,0,350.466,101.508Z" transform="translate(-236.594 -83.734)" fill="#3f3d56"/>
  <path id="Path_5585" data-name="Path 5585" d="M595.366,647.781a13.859,13.859,0,0,1-5.162,6.982,11.932,11.932,0,0,1,4.224-15.614A13.859,13.859,0,0,1,595.366,647.781Z" transform="translate(-476.189 -511.396)" fill="#00bfa6"/>
  <path id="Path_5586" data-name="Path 5586" d="M567.276,647.781a13.859,13.859,0,0,0,5.162,6.982,11.932,11.932,0,0,0-4.224-15.614A13.859,13.859,0,0,0,567.276,647.781Z" transform="translate(-458.71 -511.396)" fill="#00bfa6"/>
  <path id="Path_5587" data-name="Path 5587" d="M546.007,663.62a13.86,13.86,0,0,1,3.592,7.905,11.932,11.932,0,0,1-11.591-11.283A13.859,13.859,0,0,1,546.007,663.62Z" transform="translate(-435.727 -528.162)" fill="#3f3d56"/>
  <path id="Path_5588" data-name="Path 5588" d="M598.092,663.62a13.859,13.859,0,0,0-3.592,7.905,11.932,11.932,0,0,0,11.591-11.283A13.859,13.859,0,0,0,598.092,663.62Z" transform="translate(-480.628 -528.162)" fill="#3f3d56"/>
  <path id="Path_5589" data-name="Path 5589" d="M567.276,109.131a13.859,13.859,0,0,1,5.162-6.982,13.859,13.859,0,0,1,.938,8.632,13.859,13.859,0,0,1-5.162,6.982A13.859,13.859,0,0,1,567.276,109.131Z" transform="translate(-458.71 -84.575)" fill="#00bfa6"/>
  <path id="Path_5590" data-name="Path 5590" d="M595.366,109.131a13.859,13.859,0,0,0-5.162-6.982,13.859,13.859,0,0,0-.938,8.632,13.859,13.859,0,0,0,5.162,6.982A13.859,13.859,0,0,0,595.366,109.131Z" transform="translate(-476.189 -84.575)" fill="#00bfa6"/>
  <path id="Path_5591" data-name="Path 5591" d="M598.092,110.071a13.859,13.859,0,0,1-3.592-7.905,11.932,11.932,0,0,1,11.591,11.283A13.859,13.859,0,0,1,598.092,110.071Z" transform="translate(-480.628 -84.588)" fill="#3f3d56"/>
  <path id="Path_5592" data-name="Path 5592" d="M546.007,110.071a13.86,13.86,0,0,0,3.592-7.905,11.932,11.932,0,0,0-11.591,11.283A13.859,13.859,0,0,0,546.007,110.071Z" transform="translate(-435.727 -84.588)" fill="#3f3d56"/>
  <path id="Path_5631" data-name="Path 5631" d="M0,0H81.547V82.924H0Z" transform="translate(3.001 2.601)" fill="#00bfa6"/>
  <path id="Path_5593" data-name="Path 5593" d="M99.7,22.935H22.935v77.644h4.117V27.347H99.7Z" transform="translate(-18.229 -18.229)" fill="#3f3d56"/>
  <path id="Path_5594" data-name="Path 5594" d="M99.7,22.935H22.935v77.644h4.117V27.347H99.7Z" transform="translate(-18.229 -18.229)" opacity="0.3"/>
  <path id="Path_5595" data-name="Path 5595" d="M103.883,44.437H43V55.025h57.645v62.645h15V44.437Z" transform="translate(-34.18 -35.32)" opacity="0.1"/>
  <path id="Path_5596" data-name="Path 5596" d="M39.5,16.495V103.55h86.173V16.495Zm81.467,82.35H44.206V21.2h76.762Z" transform="translate(-39.5 -16.495)" fill="#3f3d56"/>
  <path id="Path_5597" data-name="Path 5597" d="M318.211,456.438s3.9,7.55,6.088,9.254-3.531,3.775-3.531,3.775L314.071,459Z" transform="translate(-257.736 -366.173)" fill="#a0616a"/>
  <path id="Path_5598" data-name="Path 5598" d="M189.865,366.821s18.144,4.749,19.727,7.915,6.454,10.837,6.454,10.837l-7.184,5.723L201.8,380.7l-19.483-8.767Z" transform="translate(-153.014 -294.943)" fill="#2f2e41"/>
  <path id="Path_5599" data-name="Path 5599" d="M327.707,496.774s-1.7-1.461-2.192-.487-1.948,5.967-1.948,5.967,2.07,1.948,6.332.731a2.666,2.666,0,0,1,2.8,0c1.7.852,8.037-.852,7.793-3.653s-6.7-2.557-6.7-2.557-2.718-3.045-3.064-1.888.141,1.279.141,1.279S328.681,498.478,327.707,496.774Z" transform="translate(-265.284 -396.524)" fill="#2f2e41"/>
  <path id="Path_5600" data-name="Path 5600" d="M237.541,492.641l-1.218,10.229h5.967s-.487-7.915-.365-8.889S237.541,492.641,237.541,492.641Z" transform="translate(-195.94 -394.948)" fill="#a0616a"/>
  <path id="Path_5601" data-name="Path 5601" d="M250.385,382.845s3.288,4.871,1.339,5.236-3.531-5.236-3.531-5.236Z" transform="translate(-205.375 -307.679)" fill="#a0616a"/>
  <path id="Path_5602" data-name="Path 5602" d="M136.738,376.7s-2.435,7.184,7.184,9.133,12.542,3.531,12.542,3.531l1.218,12.42,8.4.487s4.018-18.874-1.218-21.31-16.317-5.236-16.317-5.236Z" transform="translate(-116.568 -302.019)" fill="#2f2e41"/>
  <path id="Path_5603" data-name="Path 5603" d="M227.607,522.847a15.365,15.365,0,0,1,1.948-.852s1.07-2.469,3.031-2.208l4.275,6.227s6.454,4.627,1.948,5.845a16.655,16.655,0,0,1-8.037.244l-1.827-1.339s.244-1.339-1.339-1.1c0,0-3.288-1.339-3.166-2.314s2.708-5.214,2.708-5.214Z" transform="translate(-186.493 -416.509)" fill="#2f2e41"/>
  <circle id="Ellipse_906" data-name="Ellipse 906" cx="4.871" cy="4.871" r="4.871" transform="translate(37.278 41.253)" fill="#a0616a"/>
  <path id="Path_5604" data-name="Path 5604" d="M204.969,233.878s-4.384,3.166-5.236,3.288,4.018,6.088,4.018,6.088,2.314-3.775,3.775-4.262S204.969,233.878,204.969,233.878Z" transform="translate(-166.777 -189.277)" fill="#a0616a"/>
  <path id="Path_5605" data-name="Path 5605" d="M150.586,244.029s-1.827-2.435-2.922-2.435-10.959,1.1-11.812,9.254-.365,22.406-.365,22.406-.731-3.531,7.428-2.07c0,0,9.742-2.07,11.446-2.07S156.8,251.7,156.8,251.7l-2.773-4.3S152.778,249.752,150.586,244.029Z" transform="translate(-115.682 -195.409)" fill="#d0cde1"/>
  <path id="Path_5606" data-name="Path 5606" d="M225.793,286.105l1.827.974,2.192,13.395,3.044,6.941s-3.288-1.132-3.531.226l-4.871-7.045Z" transform="translate(-186.506 -230.788)" fill="#d0cde1"/>
  <path id="Path_5607" data-name="Path 5607" d="M224.788,204.649l2.65.331c-.051.539-.037,1.207.441,1.462.225.12.51.114.709.273.479.382.01,1.2.281,1.752l.775.205a1.5,1.5,0,0,0,2.036.611,2.906,2.906,0,0,0,1.02-1.471,3.724,3.724,0,0,0,.426-2.1c-.151-.765-.776-1.4-.8-2.18-.013-.349.061-.783-.233-.971a1.242,1.242,0,0,0-.43-.114c-.677-.141-1.054-.842-1.559-1.315-1.058-.99-2.683-.965-4.129-.878a3.668,3.668,0,0,0-1.215.212,3.541,3.541,0,0,0-1.145.913,11.963,11.963,0,0,0-2.043,2.707,4.8,4.8,0,0,0-.486,3.295c-.027-.106.893-.8,1.008-.909a2.387,2.387,0,0,0,.587-.916C223.131,204.619,223.762,204.521,224.788,204.649Z" transform="translate(-183.735 -162.52)" fill="#2f2e41"/>
  <path id="Path_5608" data-name="Path 5608" d="M162.1,281.777l.365,8.524,5.416,6.352-4.929-7.083Z" transform="translate(-128.844 -223.964)" opacity="0.1"/>
  <path id="Path_5609" data-name="Path 5609" d="M114.625,293.054l4.262,9.863,5.48,4.505-5.845-4.018Z" transform="translate(-91.107 -232.927)" opacity="0.1"/>
  <path id="Path_5610" data-name="Path 5610" d="M250.109,348.216l2.575,1.771a.711.711,0,0,1,.2.875l-.344.711.08.055-.391.808-.08-.055-2.837,5.854a.549.549,0,0,1-.817.261l-2.42-1.665a.818.818,0,0,1-.226-1.006l3.581-7.391a.459.459,0,0,1,.683-.218Z" transform="translate(-203.44 -280.094)" fill="#3f3d56"/>
  <path id="Path_5611" data-name="Path 5611" d="M207.976,339.882l2.772,1.907,3.616-7.462-2.772-1.907Z" transform="translate(-165.305 -264.216)" fill="#fff"/>
  <path id="Path_5612" data-name="Path 5612" d="M233.7,377.276s4.83,3.347,3.147,4.394-5.19-3.6-5.19-3.6Z" transform="translate(-192.229 -303.253)" fill="#a0616a"/>
  <path id="Path_5613" data-name="Path 5613" d="M152.9,256.431s-6.332,1.827-4.505,7.428c.441,1.351.973,2.8,1.528,4.225,1.745,4.476,3.708,8.683,3.708,8.683l5.5,4.976,7.4,2.086.852-.731s.244-2.314-.852-2.557a13.533,13.533,0,0,1-2.8-1.218l-4.384-6.454S159.229,256.8,152.9,256.431Z" transform="translate(-125.787 -207.202)" fill="#d0cde1"/>
  <path id="Path_5632" data-name="Path 5632" d="M0,0H79.606V80.95H0Z" transform="translate(227.07 145.142) rotate(180)" fill="#00bfa6"/>
  <path id="Path_5614" data-name="Path 5614" d="M733.389,322.881h74.934v75.8H804.3V327.188H733.389Z" transform="translate(-582.917 -256.634)" fill="#3f3d56"/>
  <path id="Path_5615" data-name="Path 5615" d="M733.389,322.881h74.934v75.8H804.3V327.188H733.389Z" transform="translate(-582.917 -256.634)" opacity="0.3"/>
  <path id="Path_5616" data-name="Path 5616" d="M744.873,343.871H804.3v10.336H748.031V415.36H733.389V343.871Z" transform="translate(-582.917 -273.318)" opacity="0.1"/>
  <path id="Path_5617" data-name="Path 5617" d="M750.5,316.987v84.983h84.121V316.987Zm4.594,4.594h74.934v75.8H755.094Z" transform="translate(-604.621 -255.333)" fill="#3f3d56"/>
  <path id="Path_5618" data-name="Path 5618" d="M935.926,499.809a7.036,7.036,0,0,0-5.4-3.2s-3.492-.447-5.733,4.215c-2.088,4.345-4.97,8.54-.464,9.557l.814-2.533.5,2.722a17.635,17.635,0,0,0,1.928.033c4.825-.156,9.421.046,9.273-1.686C936.656,506.612,937.669,502.754,935.926,499.809Z" transform="translate(-740.893 -398.09)" fill="#2f2e41"/>
  <path id="Path_5619" data-name="Path 5619" d="M885.462,610.265l-.381,6.86,11.179,1.143.381-7.114-3.811-2.414Z" transform="translate(-703.485 -483.843)" fill="#a0616a"/>
  <path id="Path_5620" data-name="Path 5620" d="M920.065,663.685c-.335-3.241-13.644-4.712-16.842-5.019l-1.2-.7-.381-4.065s-11.814-1.016-12.7-1.143-1.651,1.524-1.651,1.906a9.035,9.035,0,0,1-.834,3.408c-1.441,1.158-5.835,4.8-5.835,6.183,0,1.651,3.493,22.421,3.493,22.421L884.5,691l3.557.635-.254-13.465s1.27-7.749-.508-9.908v-.889s5.216-1.359,7.055-2.839a7.308,7.308,0,0,1,2.856-.151c.113.067.244.135.389.205a.59.59,0,0,1,.053.054l.014-.022c2.378,1.113,8.479,2.517,10.974,2.118a8.732,8.732,0,0,1,5.589,1.016c-1.4,1.778-.381,6.86-.381,6.86l.127,10.925,1.778,2.159h2.413v-5.97S920.447,667.369,920.065,663.685Z" transform="translate(-708.046 -522.209)" fill="#2f2e41"/>
  <circle id="Ellipse_907" data-name="Ellipse 907" cx="4.192" cy="4.192" r="4.192" transform="translate(184.327 101.715)" fill="#a0616a"/>
  <path id="Path_5621" data-name="Path 5621" d="M933.147,545.676s.635,2.795-.254,3.049a12.024,12.024,0,0,0-2.032.889l-1.016,3.3v3.3l12.322,1.4.381-1.143v-1.651l-1.4-2.541-.635-.635s-2.795-3.049-2.16-5.97Z" transform="translate(-747.169 -437.102)" fill="#a0616a"/>
  <path id="Path_5622" data-name="Path 5622" d="M987.686,594.9a34.769,34.769,0,0,1,0,6.479,28.157,28.157,0,0,0-.254,5.081l-2.795-.508v-6.86l.635-3.684Z" transform="translate(-790.72 -476.224)" fill="#a0616a"/>
  <circle id="Ellipse_908" data-name="Ellipse 908" cx="2.591" cy="2.591" r="2.591" transform="translate(187.485 95.94)" fill="#2f2e41"/>
  <path id="Path_5623" data-name="Path 5623" d="M949.844,483.364a2.591,2.591,0,0,1,2.318-2.577,2.622,2.622,0,0,0-.273-.015,2.591,2.591,0,1,0,.273,5.168A2.591,2.591,0,0,1,949.844,483.364Z" transform="translate(-762.632 -385.515)" fill="#2f2e41"/>
  <path id="Path_5624" data-name="Path 5624" d="M910.1,487.147l-3.541-1.855-4.89.759-1.011,4.468,2.518-.1.7-1.641v1.614l1.162-.045.674-2.613.421,2.782,4.131-.084Z" transform="translate(-715.863 -385.723)" fill="#2f2e41"/>
  <path id="Path_5625" data-name="Path 5625" d="M895.238,818.356s1.8.848,2.333,1.166,2.651-.318,2.227,1.591a9.2,9.2,0,0,1-2.227,3.711s-.848.954-.848,1.591-2.121,5.514-4.665,5.3a2.289,2.289,0,0,1-2.121-2.757l.53-2.757s1.06-4.666,1.272-4.559a4.638,4.638,0,0,1,.742.848A4.7,4.7,0,0,0,895.238,818.356Z" transform="translate(-715.428 -653.835)" fill="#d0cde1"/>
  <path id="Path_5626" data-name="Path 5626" d="M1026.85,802.877s-1.8.848-2.333,1.166-2.651-.318-2.227,1.591a9.2,9.2,0,0,0,2.227,3.711s.848.954.848,1.591,2.121,5.514,4.666,5.3a2.289,2.289,0,0,0,2.121-2.757l-.53-2.757s-1.06-4.666-1.272-4.559a4.641,4.641,0,0,0-.742.848A4.7,4.7,0,0,1,1026.85,802.877Z" transform="translate(-820.603 -641.532)" fill="#d0cde1"/>
  <path id="Path_5627" data-name="Path 5627" d="M959.253,646.891v-1.008h-.224v-.448a.784.784,0,0,0-.784-.784h-2.688a.784.784,0,0,0-.784.784v7.505a.784.784,0,0,0,.784.784h2.688a.784.784,0,0,0,.784-.784v-4.7h.224v-1.008h-.224v-.336Z" transform="translate(-766.982 -515.769)" fill="#d0cde1"/>
  <circle id="Ellipse_909" data-name="Ellipse 909" cx="0.448" cy="0.448" r="0.448" transform="translate(189.582 130.673)" fill="#3f3d56"/>
  <path id="Path_5628" data-name="Path 5628" d="M901.352,584.372l-2.286,9.4a2.648,2.648,0,0,0,1.143,3.3A48.174,48.174,0,0,0,906.814,600s4.065,5.589,4.573,3.3-3.049-5.208-3.049-5.208l-6.225-3.938,2.414-6.606Z" transform="translate(-722.551 -467.859)" fill="#a0616a"/>
  <path id="Path_5629" data-name="Path 5629" d="M975.016,641.916s1.906-.254,1.778,1.905-2.668,2.414-2.668,2.414-1.143,4.827-2.795,3.938.889-5.716.889-5.716l2.16-1.651Z" transform="translate(-779.701 -513.589)" fill="#a0616a"/>
  <path id="Path_5630" data-name="Path 5630" d="M914.462,564.109l2.032-4.192-4.065,1.4a4.7,4.7,0,0,0-2.414,3.811c-.127,2.668,2.922,4.065,2.922,4.065s.508,3.811.254,4.319a8.329,8.329,0,0,0,0,2.541s4.891-1.334,7.3.318a4.545,4.545,0,0,0,4.383.7s-.127-3.176.889-3.684a3.7,3.7,0,0,0,1.016-4.446s2.032.254,1.905-1.651a5,5,0,0,0-2.795-4.319c-1.651-.762-1.834-.884-1.834-.884L926.4,566.4v1.143a20.029,20.029,0,0,0-8.248-2.867,5.464,5.464,0,0,0-3.693,1.216h0Z" transform="translate(-731.406 -448.421)" fill="#2f2e41"/>
</svg>
