<svg xmlns="http://www.w3.org/2000/svg" xmlns:xlink="http://www.w3.org/1999/xlink" width="328.061" height="448" viewBox="0 0 328.061 448"><defs><style>.a,.h{fill:#0c263d;}.a,.d{stroke:rgba(0,0,0,0);stroke-miterlimit:10;}.b,.c{fill:#fff;}.b{font-size:12px;font-family:Roboto-Regular, Roboto;}.d{fill:url(#a);}.e{fill:url(#b);}.f{fill:url(#c);}.g{fill:url(#d);}.h{font-size:14px;font-family:RobotoSlab-Regular, Roboto Slab;letter-spacing:0.03em;}.i{font-size:40px;font-family:RobotoSlab-Bold, Roboto Slab;font-weight:700;letter-spacing:-0.005em;}</style><linearGradient id="a" x1="0.5" x2="0.5" y2="1" gradientUnits="objectBoundingBox"><stop offset="0" stop-color="#33bfff"/><stop offset="0.1" stop-color="#2dc0f7"/><stop offset="0.2" stop-color="#28c0ef"/><stop offset="0.3" stop-color="#23c0e7"/><stop offset="0.4" stop-color="#1ec1df"/><stop offset="0.5" stop-color="#19c1d7"/><stop offset="0.6" stop-color="#14c1cf"/><stop offset="0.7" stop-color="#0fc2c7"/><stop offset="0.8" stop-color="#0ac2bf"/><stop offset="0.9" stop-color="#05c2b7"/><stop offset="1" stop-color="#00c3af"/></linearGradient><radialGradient id="b" cx="0.5" cy="0.5" r="0.5" gradientUnits="objectBoundingBox"><stop offset="0" stop-color="#fff"/><stop offset="1" stop-color="#f2f2f2"/></radialGradient><radialGradient id="c" cx="0.5" r="0.5" gradientTransform="matrix(0.158, 0.987, -0.987, 0.158, 0.915, -0.073)" xlink:href="#b"/><radialGradient id="d" cx="0.5" r="0.5" gradientTransform="translate(0.5 -0.207) rotate(45)" xlink:href="#b"/></defs><rect class="a" width="221.677" height="61.985" rx="20" transform="translate(93.562 251.024)"/><text class="b" transform="translate(224.765 278.128)"><tspan x="-62.408" y="0">You receive G$ rewards</tspan><tspan x="-71.933" y="15">for every friend who claims</tspan></text><path class="a" d="M20,380.75a20,20,0,0,1-20-20V338.783a20,20,0,0,1,20-20H199.392a20,20,0,0,1,20,20V360.75a20,20,0,0,1-20,20Zm0-206.86a20,20,0,0,1-20-20V131.924a20,20,0,0,1,20-20H199.393a20,20,0,0,1,20,20v21.965a20,20,0,0,1-20,20ZM102.209,61.966A19.312,19.312,0,0,1,82.916,42.633v-23.3A19.312,19.312,0,0,1,102.209,0H285.036a19.312,19.312,0,0,1,19.292,19.333v23.3a19.312,19.312,0,0,1-19.292,19.333Z" transform="translate(10.911 37.289)"/><path class="c" d="M362.229,359.732a64.43,64.43,0,0,0-43.2,15.493,27.805,27.805,0,0,1-30.8,3.639l-40.767-19.506a27.8,27.8,0,0,1-14.853-26.967q.063-.84.107-1.7A28.1,28.1,0,0,1,245.138,308.6L294.7,275.693a27.963,27.963,0,0,1,30.863.1,64.389,64.389,0,0,0,38.3,10.521,64.893,64.893,0,0,0-2.877-129.717A64.3,64.3,0,0,0,326.75,166.4a27.932,27.932,0,0,1-28.837.63l-54.152-31.324a28.113,28.113,0,0,1-13.842-25.955c1.821-34.34-24.18-65.572-60.035-68.09-36.748-2.582-68.656,26.422-69.435,63.321A64.749,64.749,0,0,0,197.213,162.8a27.855,27.855,0,0,1,27.791,0l57.255,33.118a27.644,27.644,0,0,1,13.9,24.425c0,.1,0,.2-.005.293a28.019,28.019,0,0,1-12.439,22.927L236.677,274.8a27.65,27.65,0,0,1-31.282-.386,64.35,64.35,0,0,0-37.11-11.9,64.89,64.89,0,1,0-.257,129.78,64.313,64.313,0,0,0,30.589-7.691,27.652,27.652,0,0,1,25.753-.189l57.679,28.207a28.213,28.213,0,0,1,14.884,21.268,64.777,64.777,0,1,0,65.3-74.159Z" transform="translate(-100.435 -41.501)"/><path class="d" d="M253.258,433.325h0a57.677,57.677,0,0,1-56.845-49.3,35.655,35.655,0,0,0-18.79-26.765L152.463,344.95h0l-.166-.081-32.42-15.857a35.317,35.317,0,0,0-16.006-3.862A34.887,34.887,0,0,0,87.378,329.3a57.358,57.358,0,0,1-27.118,6.817h0A57.5,57.5,0,0,1,2.841,277.18c.726-30.967,26.486-56.158,57.425-56.158h.224a56.939,56.939,0,0,1,32.9,10.545,34.537,34.537,0,0,0,20.1,6.394,35.079,35.079,0,0,0,19.461-5.881l20.939-13.9,2.806-1.863h0l23.29-15.466a35.38,35.38,0,0,0,15.716-28.923l.005-.266a34.946,34.946,0,0,0-17.562-30.937l-16.021-9.268L120.9,107.6a35.032,35.032,0,0,0-17.52-4.7,35.463,35.463,0,0,0-17.564,4.677A57.452,57.452,0,0,1,.013,56.3,57.857,57.857,0,0,1,57.569,0c1.338,0,2.7.047,4.036.142C92.6,2.319,116.48,29.4,114.831,60.52a35.347,35.347,0,0,0,17.495,32.7l54.148,31.324a34.952,34.952,0,0,0,17.488,4.687,35.587,35.587,0,0,0,18.895-5.448A57.126,57.126,0,0,1,253.2,115.1h0a57.5,57.5,0,0,1,57.424,58.8,57.576,57.576,0,0,1-54.866,56.236c-.858.037-1.709.055-2.559.055h0a57.1,57.1,0,0,1-31.4-9.384,35.685,35.685,0,0,0-19.616-5.892,34.791,34.791,0,0,0-19.308,5.819L167,231.276h0l-33.681,22.366a35.612,35.612,0,0,0-15.691,27.84q-.039.77-.1,1.515a35.111,35.111,0,0,0,18.814,34.058l8.7,4.164,32.164,15.393a35.1,35.1,0,0,0,38.8-4.636,57.36,57.36,0,0,1,37.25-13.749h.211c.278,0,.556,0,.834.01h.014a57.549,57.549,0,0,1-1.061,115.087Z" transform="translate(7.337 7.337)"/><circle class="e" cx="47.751" cy="47.751" r="47.751" transform="translate(17 17)"/><circle class="f" cx="47.751" cy="47.751" r="47.751" transform="matrix(0.158, -0.987, 0.987, 0.158, 13, 325.303)"/><circle class="g" cx="47.751" cy="47.751" r="47.751" transform="translate(193 179.53) rotate(-45)"/><circle class="e" cx="47.751" cy="47.751" r="47.751" transform="translate(213 334.998)"/><text class="h" transform="translate(65 52)"><tspan x="-18.192" y="0">STEP</tspan><tspan class="i"><tspan x="-20.164" y="36">01</tspan></tspan></text><text class="h" transform="translate(260 167)"><tspan x="-18.192" y="0">STEP</tspan><tspan class="i"><tspan x="-22.38" y="36">02</tspan></tspan></text><text class="h" transform="translate(68 273)"><tspan x="-18.192" y="0">STEP</tspan><tspan class="i"><tspan x="-22.185" y="36">03</tspan></tspan></text><text class="h" transform="translate(261 370)"><tspan x="-18.192" y="0">STEP</tspan><tspan class="i"><tspan x="-22.595" y="36">04</tspan></tspan></text><text class="b" transform="translate(221.566 63.762)"><tspan x="-52.787" y="0">Copy this invite link </tspan><tspan x="-69.182" y="15">and send it to your friends</tspan></text><text class="b" transform="translate(98.358 168.816)"><tspan x="-68.81" y="0">From the link, your friends</tspan><tspan x="-61.254" y="15" xml:space="preserve"> sign up for GoodDollar</tspan><tspan x="-50.824" y="30">and claim free G$’s</tspan></text><text class="b" transform="translate(101.566 382.658)"><tspan x="-29.736" y="0">Cha-ching! </tspan><tspan x="-71.376" y="15">More G$’s for you to spend</tspan></text></svg>