<svg xmlns="http://www.w3.org/2000/svg" xmlns:xlink="http://www.w3.org/1999/xlink" width="92.005" height="92" viewBox="0 0 92.005 92"><defs><style>.a{fill:#00c3ae;}.b{fill:none;}.c{clip-path:url(#a);}.d{clip-path:url(#b);}</style><clipPath id="a"><rect class="b" width="92.005" height="92"/></clipPath><clipPath id="b"><rect class="a" width="92" height="92"/></clipPath></defs><g class="c"><g class="d"><path class="a" d="M257.027,385.545h-.062a46.587,46.587,0,0,0,15.714,12.628,46.16,46.16,0,0,0,40.681-.014,46.526,46.526,0,0,0,15.714-12.628,21.141,21.141,0,0,1-18-10.1,21.641,21.641,0,0,1-3.03,3.859,21.168,21.168,0,0,1-33.014-3.78,21.434,21.434,0,0,1-2.976,3.788,21.1,21.1,0,0,1-15.024,6.242m79.2-31.748a3.086,3.086,0,0,1-.92,2.2l-7.619,7.555-.016.013a3.547,3.547,0,0,1-.46.373c-.06.035-.119.068-.181.1l-.065.032-.038.022a2.08,2.08,0,0,1-.254.133,1.817,1.817,0,0,1-.206.068l-.114.032-.116.035a1.319,1.319,0,0,1-.149.041,3.134,3.134,0,0,1-.614.062h-.027l-.008,0h-.027a3.13,3.13,0,0,1-2.219-.912l-7.619-7.555a3.084,3.084,0,0,1,0-4.4,3.155,3.155,0,0,1,4.437,0l2.319,2.3-.054-20.716a3.136,3.136,0,0,1,6.271,0l.054,20.662,2.265-2.243a3.161,3.161,0,0,1,4.44,0,3.091,3.091,0,0,1,.92,2.2m-32.424,0a3.075,3.075,0,0,1-.92,2.2l-7.619,7.555-.016.014a3.044,3.044,0,0,1-.46.373c-.06.035-.116.068-.179.1l-.068.035-.041.022a2.261,2.261,0,0,1-.254.133,2.009,2.009,0,0,1-.216.07l-.105.03-.114.035a1.493,1.493,0,0,1-.149.041,3.141,3.141,0,0,1-.617.062h-.057a3.119,3.119,0,0,1-2.216-.912l-7.622-7.555a3.091,3.091,0,0,1,0-4.4,3.155,3.155,0,0,1,4.437,0l2.319,2.3V332.957a3.137,3.137,0,0,1,6.274,0v20.881l2.262-2.243a3.161,3.161,0,0,1,4.44,0,3.092,3.092,0,0,1,.92,2.2m-32.5.014a3.063,3.063,0,0,1-.92,2.2l-7.622,7.557h-.016a3.218,3.218,0,0,1-.46.373,1.607,1.607,0,0,1-.189.1l-.057.027-.043.024c-.081.049-.165.092-.249.133a1.428,1.428,0,0,1-.208.065l-.116.032-.108.033a.928.928,0,0,1-.154.043,3.141,3.141,0,0,1-.617.062h-.027l0,.014h-.027a3.118,3.118,0,0,1-2.219-.912l-7.622-7.555a3.09,3.09,0,0,1,0-4.4,3.155,3.155,0,0,1,4.437,0l2.321,2.3-.057-20.716a3.137,3.137,0,0,1,6.274,0l.054,20.662,2.265-2.243a3.158,3.158,0,0,1,4.437,0,3.08,3.08,0,0,1,.92,2.2m67.7,3.474a45.764,45.764,0,0,0-3.62-17.859,46.925,46.925,0,0,0-9.865-14.769,46.285,46.285,0,0,0-14.61-10.052,45.127,45.127,0,0,0-35.811-.016,46.3,46.3,0,0,0-14.61,10.052,46.934,46.934,0,0,0-9.867,14.769A45.669,45.669,0,0,0,247,357.266a44.7,44.7,0,0,0,5.2,21.033,14.681,14.681,0,0,0,15.224-3.518,14.128,14.128,0,0,0,4.223-10.161,3.172,3.172,0,0,1,.917-2.268,3.218,3.218,0,0,1,2.286-.969h.257a3.228,3.228,0,0,1,3.241,3.209,14.676,14.676,0,0,0,25.083,10.2,14.131,14.131,0,0,0,4.226-10.161,3.165,3.165,0,0,1,.917-2.268,3.213,3.213,0,0,1,2.289-.969h.344a3.227,3.227,0,0,1,3.244,3.206,14.617,14.617,0,0,0,19.326,13.751A51.9,51.9,0,0,0,339,357.282" transform="translate(-247 -310.89)"/></g></g></svg>