<?xml version="1.0" encoding="UTF-8"?>
<svg width="100%" height="100%" viewBox="0 0 96 96" xmlns="http://www.w3.org/2000/svg" xmlns:xlink="http://www.w3.org/1999/xlink" version="1.1">
 <!-- Generated by Pixelmator Pro 2.0.3 -->
 <g id="group">
  <path id="Path" d="M95 48.211 C95 74.052 74.052 95 48.211 95 22.371 95 1.423 74.052 1.423 48.211 1.423 22.371 22.371 1.423 48.211 1.423 74.052 1.423 95 22.371 95 48.211 Z" fill="#00afff" fill-opacity="1" stroke="none"/>
  <g id="group-1">
   <g id="group-2">
    <path id="Path-1" d="M64.837 43.28 L51.952 43.28 44.294 50.949 64.837 50.949 C63.087 58.567 56.405 64.039 48.591 64.25 40.776 64.462 33.807 59.36 31.648 51.846 29.489 44.334 32.686 36.311 39.419 32.34 46.154 28.371 54.721 29.459 60.249 34.986 L63.007 32.228 73.623 21.615 62.794 21.615 59.405 25.005 C51.712 21.093 42.54 21.455 35.181 25.964 27.822 30.473 23.333 38.479 23.325 47.109 23.321 51.026 24.248 54.887 26.031 58.374 L16.154 68.252 26.992 68.252 30.603 64.645 C38.195 72.224 49.799 74.062 59.363 69.201 68.925 64.34 74.279 53.881 72.628 43.28 Z" fill="#ffffff" fill-opacity="1" stroke="none"/>
   </g>
  </g>
 </g>
</svg>
