<svg viewBox="0 0 512 512" fill="none" xmlns="http://www.w3.org/2000/svg">
<g clip-path="url(#clip0_173_80)">
<path d="M256.06 511.277C396.954 511.277 511.171 396.824 511.171 255.639C511.171 114.453 396.954 0 256.06 0C115.167 0 0.949951 114.453 0.949951 255.639C0.949951 396.824 115.167 511.277 256.06 511.277Z" fill="#B4F9BA"/>
<path d="M195.219 106.421L253.535 72.6745C255.196 71.7144 257.256 71.7144 258.916 72.6745L412.611 161.594C414.271 162.554 415.293 164.33 415.309 166.251L415.517 227.406C415.517 229.343 414.495 231.136 412.818 232.095L354.582 265.794C351.006 267.875 346.518 265.282 346.502 261.138L346.311 206.253C346.311 204.334 345.273 202.557 343.612 201.597L195.219 115.766C191.627 113.686 191.627 108.502 195.219 106.421Z" fill="#010101"/>
<path d="M157.539 383.432L99.2399 349.701C97.5632 348.742 96.5413 346.965 96.5413 345.03V167.191C96.5413 165.271 97.5632 163.494 99.224 162.518L151.983 131.748C153.659 130.772 155.72 130.772 157.381 131.748L215.616 165.447C219.193 167.527 219.209 172.696 215.632 174.791L168.302 202.394C166.642 203.354 165.62 205.13 165.62 207.066V378.776C165.62 382.936 161.133 385.529 157.539 383.449V383.432Z" fill="#010101"/>
<path d="M415.567 277.55V345.012C415.567 346.947 414.545 348.724 412.869 349.684L259.175 438.603C257.514 439.563 255.47 439.563 253.809 438.603L200.843 408.201C199.166 407.24 198.128 405.448 198.128 403.512V336.131C198.128 331.986 202.6 329.394 206.192 331.442L253.714 358.724C255.374 359.685 257.419 359.669 259.078 358.724L407.472 272.862C411.064 270.781 415.551 273.374 415.551 277.534L415.567 277.55Z" fill="#010101"/>
</g>
<defs>
<clipPath id="clip0_173_80">
<rect width="512" height="512" fill="white"/>
</clipPath>
</defs>
</svg>
