<?xml version="1.0" encoding="UTF-8" standalone="no"?>
<svg
   version="1.1"
   x="0"
   y="0"
   width="34"
   height="36"
   viewBox="0 0 48 47.999999"
   id="svg167"
   xmlns="http://www.w3.org/2000/svg"
   xmlns:svg="http://www.w3.org/2000/svg">
  <defs
     id="defs171" />
  <g
     id="Layer_1"
     transform="translate(-5.3745324,-1.6756706)">
    <g
       id="g152"
       transform="matrix(0.11396169,0,0,0.16555181,5.1554431,0.92410174)">
      <path
         d="m 212.519,286.519 -181.019,-75 181.019,-75 181.02,75 z"
         fill="#888888"
         id="path148" />
      <path
         d="m 212.519,286.519 -181.019,-75 181.019,-75 181.02,75 z"
         fill-opacity="0"
         stroke="#ffffff"
         stroke-width="20"
         id="path150" />
    </g>
    <g
       id="g158"
       transform="matrix(0.11396169,0,0,0.16555181,5.1554431,0.92410174)">
      <path
         d="m 212.519,224.5 -181.019,-75 181.019,-75 181.02,75 z"
         fill="#888888"
         id="path154" />
      <path
         d="m 212.519,224.5 -181.019,-75 181.019,-75 181.02,75 z"
         fill-opacity="0"
         stroke="#ffffff"
         stroke-width="20"
         id="path156" />
    </g>
    <g
       id="g164"
       transform="matrix(0.11396169,0,0,0.16555181,5.1554431,0.92410174)">
      <path
         d="M 212.519,162.5 31.5,87.5 l 181.019,-75 181.02,75 z"
         fill="#888888"
         id="path160" />
      <path
         d="M 212.519,162.5 31.5,87.5 l 181.019,-75 181.02,75 z"
         fill-opacity="0"
         stroke="#ffffff"
         stroke-width="20"
         id="path162" />
    </g>
  </g>
</svg>
