<?xml version="1.0" encoding="UTF-8" standalone="no"?>
<!-- Created with Inkscape (http://www.inkscape.org/) -->

<svg
   width="30"
   height="20"
   viewBox="0 0 30.293127 20.060625"
   version="1.1"
   id="svg368"
   xmlns="http://www.w3.org/2000/svg"
  style="margin:auto"
   xmlns:svg="http://www.w3.org/2000/svg">
  <defs
     id="defs365" />
  <g
     id="layer1"
     transform="matrix(3.8160825,0,0,3.80397,-162.37195,-165.20038)">
    <path
       fill="currentColor"
       fill-rule="evenodd"
       d="m 46.206315,46.087897 h -1.825627 v 0.722577 h 0.844286 l -0.0029,0.908049 a 0.3852336,0.38523312 0 0 1 -0.113771,0.0844 1.058334,1.0583327 0 0 1 -0.173302,0.07064 1.4038801,1.4038783 0 0 1 -0.210344,0.04815 1.4941031,1.4941013 0 0 1 -0.227806,0.0172 0.79692555,0.79692456 0 0 1 -0.718345,-0.376767 2.0491993,2.0491968 0 0 1 -0.238125,-1.075001 v -0.687917 a 2.4974039,2.4974007 0 0 1 0.07011,-0.624416 1.5240011,1.5239992 0 0 1 0.189177,-0.452437 0.85434017,0.8543391 0 0 1 0.280193,-0.277019 0.67997964,0.67997879 0 0 1 0.35031,-0.09446 0.77311303,0.77311207 0 0 1 0.579702,0.194469 0.99536319,0.99536195 0 0 1 0.236537,0.579702 h 0.95991 a 2.2404932,2.2404904 0 0 0 -0.162984,-0.650346 1.4062614,1.4062596 0 0 0 -0.345017,-0.491331 1.4885468,1.488545 0 0 0 -0.541338,-0.307975 2.3857496,2.3857466 0 0 0 -0.751417,-0.105833 1.7756199,1.7756177 0 0 0 -0.733955,0.151341 1.6811637,1.6811616 0 0 0 -0.588698,0.440267 2.097089,2.0970864 0 0 0 -0.392378,0.703527 2.8977186,2.897715 0 0 0 -0.140758,0.941122 v 0.681302 a 3.0355666,3.0355628 0 0 0 0.134937,0.940857 1.9843764,1.9843739 0 0 0 0.383647,0.700088 1.653647,1.6536449 0 0 0 0.599017,0.436827 1.9595055,1.959503 0 0 0 0.784755,0.151342 2.9501062,2.9501025 0 0 0 0.602721,-0.05847 2.778127,2.7781235 0 0 0 0.506148,-0.153194 2.0216826,2.0216801 0 0 0 0.39079,-0.211667 1.3649864,1.3649847 0 0 0 0.259292,-0.230452 z m 0.704056,0.736335 a 2.2981724,2.2981695 0 0 0 0.119327,0.75512 1.7232324,1.7232303 0 0 0 0.348457,0.60034 1.5832677,1.5832657 0 0 0 0.564092,0.396875 1.9253743,1.9253719 0 0 0 0.762001,0.142875 1.9034138,1.9034115 0 0 0 0.756708,-0.142875 1.5700386,1.5700366 0 0 0 0.560652,-0.396875 1.7462512,1.746249 0 0 0 0.34687,-0.60034 2.3053162,2.3053133 0 0 0 0.119062,-0.75512 v -0.0725 a 2.2947328,2.29473 0 0 0 -0.119062,-0.751681 1.7282595,1.7282574 0 0 0 -0.348722,-0.600339 1.6081386,1.6081366 0 0 0 -0.562239,-0.398991 2.0671911,2.0671885 0 0 0 -1.51871,0 1.6091969,1.6091949 0 0 0 -0.560652,0.398991 1.7237616,1.7237595 0 0 0 -0.348457,0.600339 2.2878537,2.2878509 0 0 0 -0.119327,0.751681 v 0.07223 z m 0.973932,-0.07223 a 1.9563305,1.956328 0 0 1 0.04577,-0.429948 1.1173362,1.1173348 0 0 1 0.143404,-0.357717 0.6966484,0.69664753 0 0 1 0.623624,-0.333639 0.73474843,0.73474751 0 0 1 0.374915,0.08943 0.71252341,0.71252252 0 0 1 0.25056,0.24421 1.140355,1.1403536 0 0 1 0.141817,0.357717 1.9563305,1.956328 0 0 1 0.04577,0.429948 v 0.07223 a 2.0124222,2.0124197 0 0 1 -0.04577,0.438678 1.1183945,1.1183931 0 0 1 -0.141817,0.357717 0.6934734,0.69347253 0 0 1 -0.618331,0.332052 0.74559634,0.74559541 0 0 1 -0.376768,-0.08943 0.72972133,0.72972042 0 0 1 -0.254,-0.242623 1.0961695,1.0961681 0 0 1 -0.143404,-0.357717 2.0124222,2.0124197 0 0 1 -0.04577,-0.438678 v -0.0725 z m -0.462227,-2.725207 a 0.39475861,0.39475812 0 0 0 0.0979,0.135995 0.46593157,0.46593099 0 0 0 0.150812,0.08943 0.58393582,0.58393509 0 0 0 0.385234,0 0.46593157,0.46593099 0 0 0 0.150812,-0.08943 0.39475861,0.39475812 0 0 0 0.0979,-0.135995 0.42148154,0.42148101 0 0 0 0,-0.33708 0.41327945,0.41327893 0 0 0 -0.0979,-0.137583 0.44979198,0.44979142 0 0 0 -0.150812,-0.09102 0.58367124,0.58367051 0 0 0 -0.385234,0 0.44979198,0.44979142 0 0 0 -0.150812,0.09128 0.41327945,0.41327893 0 0 0 -0.0979,0.137583 0.42148154,0.42148101 0 0 0 0,0.337079 z m 1.681693,0.0034 a 0.41222112,0.41222061 0 0 0 0.0979,0.137584 0.44979198,0.44979142 0 0 0 0.150813,0.09128 0.58393582,0.58393509 0 0 0 0.385233,0 0.44979198,0.44979142 0 0 0 0.150813,-0.09128 0.41222112,0.41222061 0 0 0 0.0979,-0.137584 0.42148154,0.42148101 0 0 0 0.03519,-0.171979 0.41327945,0.41327893 0 0 0 -0.03519,-0.16854 0.39475861,0.39475812 0 0 0 -0.0979,-0.135995 0.46619616,0.46619558 0 0 0 -0.150813,-0.08943 0.58367124,0.58367051 0 0 0 -0.385233,0 0.46619616,0.46619558 0 0 0 -0.150813,0.08943 0.39475861,0.39475812 0 0 0 -0.0979,0.135995 0.40904612,0.40904561 0 0 0 -0.03519,0.16854 0.41698362,0.4169831 0 0 0 0.03519,0.172244 z"
       data-name="-e-logo_top"
       id="path132"
       style="stroke-width:0.264583" />
  </g>
</svg>
