<svg xmlns="http://www.w3.org/2000/svg" xmlns:xlink="http://www.w3.org/1999/xlink" width="100%" height="100%" viewBox="0 0 188.986 115.352"><defs><style>.a,.c,.d,.e{opacity:0.5;}.b,.e{fill:#00c3ae;}.c,.g{fill:#00afff;}.d{fill:#fa6c77;}.f{fill:url(#a);}.h{fill:#eee;}.i{opacity:0.1;}.j{fill:#fda57d;}.k{fill:#0c263d;}.l{fill:#333;}</style><linearGradient id="a" x1="0.5" y1="1" x2="0.5" gradientUnits="objectBoundingBox"><stop offset="0" stop-color="gray" stop-opacity="0.251"/><stop offset="0.54" stop-color="gray" stop-opacity="0.122"/><stop offset="1" stop-color="gray" stop-opacity="0.102"/></linearGradient></defs><g class="a" transform="translate(3.724 28.669)"><rect class="b" width="0.583" height="3.306" transform="translate(1.361)"/><rect class="b" width="0.583" height="3.306" transform="translate(3.306 1.361) rotate(90)"/></g><g class="a" transform="translate(155.436 109.207)"><rect class="b" width="0.583" height="3.306" transform="translate(1.361)"/><rect class="b" width="0.583" height="3.306" transform="translate(3.306 1.361) rotate(90)"/></g><g class="a" transform="translate(155.667 12.125)"><rect class="b" width="0.583" height="3.306" transform="translate(1.361)"/><rect class="b" width="0.583" height="3.306" transform="translate(3.306 1.361) rotate(90)"/></g><g class="a" transform="translate(43.435 15.966)"><rect class="b" width="0.583" height="3.306" transform="translate(1.361)"/><rect class="b" width="0.583" height="3.306" transform="translate(3.306 1.361) rotate(90)"/></g><g class="a" transform="translate(167.597 79.215)"><rect class="b" width="0.583" height="3.306" transform="translate(1.361)"/><rect class="b" width="0.583" height="3.306" transform="translate(3.306 1.361) rotate(90)"/></g><g class="a" transform="translate(0 97.657)"><rect class="b" width="0.583" height="3.306" transform="translate(1.363)"/><rect class="b" width="0.583" height="3.306" transform="translate(3.306 1.361) rotate(90)"/></g><path class="c" d="M219.1,351.551a.715.715,0,0,1-.4-.864.349.349,0,0,0,.016-.079h0a.35.35,0,0,0-.643-.238h0a.349.349,0,0,0-.04.07.715.715,0,0,1-.864.4.35.35,0,0,0-.079-.016h0a.35.35,0,0,0-.238.643h0a.351.351,0,0,0,.07.04.715.715,0,0,1,.4.864.353.353,0,0,0-.016.079h0a.35.35,0,0,0,.643.238h0a.351.351,0,0,0,.04-.07.715.715,0,0,1,.864-.4.351.351,0,0,0,.079.016h0a.35.35,0,0,0,.238-.643h0A.352.352,0,0,0,219.1,351.551Z" transform="translate(-198.455 -340.61)"/><path class="c" d="M280.576,729.891a.715.715,0,0,1-.4-.864.349.349,0,0,0,.016-.079h0a.35.35,0,0,0-.643-.238h0a.349.349,0,0,0-.04.07.715.715,0,0,1-.864.4.351.351,0,0,0-.079-.016h0a.35.35,0,0,0-.238.643h0a.352.352,0,0,0,.07.04.715.715,0,0,1,.4.864.348.348,0,0,0-.016.079h0a.35.35,0,0,0,.643.238h0a.352.352,0,0,0,.04-.07.715.715,0,0,1,.864-.4.343.343,0,0,0,.079.016h0a.35.35,0,0,0,.238-.643h0A.352.352,0,0,0,280.576,729.891Z" transform="translate(-244.471 -633.47)"/><path class="c" d="M839.576,228.891a.715.715,0,0,1-.4-.864.344.344,0,0,0,.016-.079h0a.35.35,0,0,0-.643-.238h0a.355.355,0,0,0-.04.07.715.715,0,0,1-.863.4.352.352,0,0,0-.079-.016h0a.35.35,0,0,0-.238.643h0a.354.354,0,0,0,.07.04.715.715,0,0,1,.4.864.358.358,0,0,0-.016.079h0a.35.35,0,0,0,.643.238h0a.348.348,0,0,0,.04-.07.715.715,0,0,1,.864-.4.35.35,0,0,0,.079.016h0a.35.35,0,0,0,.238-.643h0A.352.352,0,0,0,839.576,228.891Z" transform="translate(-705.547 -220.234)"/><path class="c" d="M832.126,319.281a.715.715,0,0,1-.4-.864.355.355,0,0,0,.016-.079h0a.35.35,0,0,0-.643-.238h0a.365.365,0,0,0-.04.07.715.715,0,0,1-.864.4.35.35,0,0,0-.079-.016h0a.35.35,0,0,0-.238.643h0a.35.35,0,0,0,.07.04.715.715,0,0,1,.4.864.358.358,0,0,0-.016.079h0a.35.35,0,0,0,.643.238h0a.345.345,0,0,0,.04-.07.715.715,0,0,1,.864-.4.352.352,0,0,0,.079.016h0a.35.35,0,0,0,.238-.643h0A.354.354,0,0,0,832.126,319.281Z" transform="translate(-699.402 -294.79)"/><path class="c" d="M832.664,40.911a.715.715,0,0,1-.4-.864.354.354,0,0,0,.016-.079h0a.35.35,0,0,0-.643-.238h0a.353.353,0,0,0-.04.07.715.715,0,0,1-.862.4.352.352,0,0,0-.079-.016h0a.35.35,0,0,0-.238.643h0a.352.352,0,0,0,.07.04.715.715,0,0,1,.4.864.357.357,0,0,0-.016.079h0a.35.35,0,0,0,.643.238h0a.344.344,0,0,0,.04-.07.715.715,0,0,1,.857-.408.351.351,0,0,0,.079.016h0a.35.35,0,0,0,.238-.643h0A.352.352,0,0,0,832.664,40.911Z" transform="translate(-643.906 -8.001)"/><path class="c" d="M1000.816,497.951a.715.715,0,0,1-.4-.864.344.344,0,0,0,.016-.079h0a.35.35,0,0,0-.643-.238h0a.37.37,0,0,0-.04.07.714.714,0,0,1-.863.4.355.355,0,0,0-.079-.016h0a.35.35,0,0,0-.238.643h0a.351.351,0,0,0,.07.04.715.715,0,0,1,.4.872.355.355,0,0,0-.016.079h0a.35.35,0,0,0,.643.238h0a.347.347,0,0,0,.04-.07.715.715,0,0,1,.864-.4.353.353,0,0,0,.079.016h0a.35.35,0,0,0,.238-.643h0A.349.349,0,0,0,1000.816,497.951Z" transform="translate(-838.541 -442.161)"/><circle class="d" cx="1.167" cy="1.167" r="1.167" transform="translate(180.026 97.926)"/><circle class="d" cx="1.167" cy="1.167" r="1.167" transform="translate(15.713 86.125)"/><circle class="d" cx="1.167" cy="1.167" r="1.167" transform="translate(175.812 7.27)"/><circle class="d" cx="1.167" cy="1.167" r="1.167" transform="translate(102.201 3.486)"/><circle class="d" cx="1.167" cy="1.167" r="1.167" transform="translate(6.505 57.09)"/><circle class="e" cx="1.167" cy="1.167" r="1.167" transform="translate(60.306 0.448)"/><circle class="d" cx="1.167" cy="1.167" r="1.167" transform="translate(140.555 77.948)"/><g class="a" transform="translate(64.943 8.854)"><path class="f" d="M501.6,239.393c-2.26-2.267-5.555-3.169-9.284-2.54a18.567,18.567,0,0,0-9.81,5.313,11.475,11.475,0,0,0-2.053,2.817,11.5,11.5,0,0,0-2.036-2.918h0a18.645,18.645,0,0,0-9.722-5.481c-3.712-.7-7.021.151-9.319,2.379s-3.25,5.509-2.671,9.234a18.551,18.551,0,0,0,5.171,9.9c5.882,6.068,17.621,3.7,18.119,3.593l.147-.03.452.1c.5.112,12.191,2.684,18.175-3.281a18.614,18.614,0,0,0,5.345-9.8C504.75,244.958,503.858,241.66,501.6,239.393ZM478,258.181c-2.836.382-9.906.9-13.417-2.72a14.821,14.821,0,0,1-4.153-7.839A6.643,6.643,0,0,1,462,241.665a5.244,5.244,0,0,1,1.913-1.172,7.881,7.881,0,0,1,4.085-.207,14.843,14.843,0,0,1,7.708,4.4C479.216,248.313,478.473,255.364,478,258.181Zm22.384-10.148A14.819,14.819,0,0,1,496.1,255.8c-3.574,3.561-10.633,2.92-13.461,2.489-.422-2.831-1.041-9.892,2.531-13.454a14.828,14.828,0,0,1,7.78-4.264,7.911,7.911,0,0,1,4.082.277,5.243,5.243,0,0,1,1.892,1.205,6.643,6.643,0,0,1,1.464,5.984Z" transform="translate(-456.537 -236.344)"/></g><path class="g" d="M485.936,263.611l-1.118.236c-.475.1-11.707,2.367-17.342-3.439a17.812,17.812,0,0,1-4.95-9.46c-.552-3.57.35-6.711,2.554-8.843A9.838,9.838,0,0,1,474,239.829a17.8,17.8,0,0,1,9.3,5.245h0c5.627,5.807,3.01,16.962,2.894,17.434Zm-16.5-20.038a5.018,5.018,0,0,0-1.831,1.121,6.341,6.341,0,0,0-1.5,5.7,14.181,14.181,0,0,0,3.975,7.5c3.358,3.465,10.123,2.978,12.837,2.6.45-2.7,1.158-9.447-2.2-12.912h0a14.162,14.162,0,0,0-7.373-4.2A7.52,7.52,0,0,0,469.433,243.572Z" transform="translate(-396.404 -230.178)"/><path class="g" d="M583.43,265.044l-.254-1.114c-.107-.475-2.531-11.674,3.2-17.381h0a17.78,17.78,0,0,1,9.393-5.08,9.833,9.833,0,0,1,8.878,2.43c2.163,2.169,3.015,5.325,2.4,8.885a17.859,17.859,0,0,1-5.113,9.377c-5.723,5.7-16.913,3.246-17.388,3.137Zm16.847-19.751a7.555,7.555,0,0,0-3.9-.266,14.15,14.15,0,0,0-7.445,4.08h0c-3.418,3.407-2.827,10.16-2.423,12.874,2.706.412,9.46,1.027,12.881-2.382a14.184,14.184,0,0,0,4.1-7.431,6.333,6.333,0,0,0-1.4-5.721,5.016,5.016,0,0,0-1.813-1.153Z" transform="translate(-495.554 -231.563)"/><g class="a" transform="translate(33.744 30.497)"><path class="h" d="M218.111,320.21H109.21V342h5.658v63.065h97.584V342h5.658Z" transform="translate(-109.21 -320.21)"/></g><rect class="h" width="95.114" height="77.195" transform="translate(40.637 37.085)"/><rect class="g" width="17.921" height="63.411" transform="translate(79.234 50.87)"/><rect class="i" width="95.114" height="19.299" transform="translate(40.637 32.949)"/><rect class="h" width="106.141" height="19.299" transform="translate(35.123 31.57)"/><rect class="g" width="17.921" height="19.299" transform="translate(79.234 31.57)"/><path class="f" d="M720.752,219.106c-.336-.972-4.015,1.766-4.015,1.766l-.848-.051-1.631-1.51,1.139-1.139-9.563-8.2a2.412,2.412,0,0,0-1.869-.562l-7.948.993a3.364,3.364,0,0,0-.711-1.549,17.115,17.115,0,0,0-3.167-3.386l-.969-6.536.823-1.235a4.154,4.154,0,0,1-.448-.151l.175-.261-.065-.018.082-.095h-.011l2.062-2.379a.9.9,0,0,0-.068-1.247l-4.591-3.483a2.529,2.529,0,0,0,.2-1.051,1.968,1.968,0,0,0-1.314-1.916,10.147,10.147,0,0,0-2.011-.71,6.6,6.6,0,0,0-3.477.051l-.06-.07c-1.414-1.615-3.265.7-3.337.8l-7.242,8.058a1.472,1.472,0,0,0,.357,1.962l3.833,2.875-.012.025.217.163a.908.908,0,0,1-.676.569l.587.294a.676.676,0,0,1-.312.117l2.687,1.344c0,1.4.144,7.79,2.416,10.929a5.806,5.806,0,0,0,.825,1.06s.193-.105.547-.275l.406.811a4.749,4.749,0,0,0,4.921,2.579l12.613-1.8-.133.4.072-.011-4.089,12.262.676.226-.012.025.095.04-.85,1.606-2.677,2.058s7.823,3.922,8.647,3.3-2.883-3.3-2.883-3.3l-.207-.823.9-1.9.755.252,6.063-12.129h0l.207-.412,4.1,5.131,1.156-1.156.124.126.011-.011,1.6,1.622,1.161,3.171S721.094,220.077,720.752,219.106Zm-31.826-23.581-.081-.093a7.688,7.688,0,0,1-2.318,1.853v-.674l.046-.04v-.293a4.449,4.449,0,0,0,1.26-4.518l2.661,2.048Zm-9.041-7.6-.065-.065.065.063Zm-2.128,4.288q-.026.319-.021.645a6.7,6.7,0,0,0,.053.941,2.93,2.93,0,0,0,1.331,2.4c.7.368,1.161.35,1.456.1l.031.028a3.152,3.152,0,0,0,.326,1.226,12.965,12.965,0,0,1-4.234-1.7s0,.054.011.152l-1.1-1.1Z" transform="translate(-569.03 -185.802)"/><path class="j" d="M643.511,378.3l-1.8,3.4,2.8,1.2,1.8-3.8Z" transform="translate(-514.684 -337.627)"/><path class="k" d="M801.466,438.59l.2.8s3.6,2.6,2.8,3.2-8.408-3.2-8.408-3.2l2.6-2Z" transform="translate(-671.641 -393.317)"/><path class="i" d="M649.573,380.434l-2.831-.944-.843,1.591,2.8,1.2Z" transform="translate(-518.14 -338.609)"/><path class="j" d="M725,330.491l2.7,2.736,1.985-2.311L726.6,328.06Z" transform="translate(-583.384 -296.189)"/><path class="i" d="M727.233,328.82l-1.6,2.431,1.025,1.039,2.079-2.079Z" transform="translate(-583.903 -296.815)"/><path class="k" d="M911.663,375.269l.823.049s3.56-2.654,3.892-1.711-5.571,7.054-5.571,7.054l-1.128-3.08Z" transform="translate(-765.357 -340.541)"/><path class="j" d="M746.162,206.6l4.155-4.807a.876.876,0,0,0-.067-1.21l-9.041-6.856-1.1,1.713,7.007,5.394-2.978,3.262Z" transform="translate(-625.492 -192.341)"/><path class="i" d="M765.094,243.31,763.64,244.9l2.02,2.507,2.083-2.4A6.074,6.074,0,0,1,765.094,243.31Z" transform="translate(-644.9 -233.236)"/><path class="j" d="M680.948,210.691l-4.7-3.535a1.43,1.43,0,0,1-.35-1.9l7.039-7.832,1.44,1.44-4.861,6.068,2.876,2.885Z" transform="translate(-572.344 -195.384)"/><path class="i" d="M700.12,249.788l.769.578,1.44-2.878-1.808-1.808A10.6,10.6,0,0,1,700.12,249.788Z" transform="translate(-592.507 -235.19)"/><path class="k" d="M646.538,306.478l-4.318,12.953,4.318,1.44,7.2-14.393-5.756-1.438Z" transform="translate(-515.105 -277.201)"/><path class="i" d="M664.715,308.758l-.215.648,4.533-.648,1.771,2.214,1.107-2.214-5.758-1.438Z" transform="translate(-533.482 -279.082)"/><path class="j" d="M717.07,191.243s1.845-2.377,3.244-.778-2.206,1.8-2.206,1.8Z" transform="translate(-606.488 -189.192)"/><path class="k" d="M729.29,323.449l1.391,2.784a4.614,4.614,0,0,0,4.779,2.5l16.857-2.409,5.758,7.195,4.318-4.318-9.284-7.962a2.342,2.342,0,0,0-1.815-.547Z" transform="translate(-616.567 -297.05)"/><path class="i" d="M700.15,246s.378,4.674-1.06,4.835l2.878,1.44s-.159,8.475,2.878,11.514a26.133,26.133,0,0,1,11.514-2.878c5.909.159-1.44-5.756-1.44-5.756l-.972-6.552.8-1.2a6.013,6.013,0,0,1-2.8-1.8h0a6.414,6.414,0,0,1-4.225,2.356h-.688a12.945,12.945,0,0,1-6.888-1.752Z" transform="translate(-591.658 -235.125)"/><path class="b" d="M698.63,243.709s.378,4.674-1.06,4.835l2.878,1.438s-.159,8.475,2.878,11.514a26.134,26.134,0,0,1,11.514-2.878c5.909.159-1.44-5.756-1.44-5.756l-.972-6.552.8-1.2a6.014,6.014,0,0,1-2.8-1.8h0a6.413,6.413,0,0,1-4.225,2.356h-.688a13.094,13.094,0,0,1-6.891-1.958Z" transform="translate(-590.404 -233.236)"/><path class="j" d="M725.26,238.054v1.606a3.071,3.071,0,0,0,.9,2.17l3.418,3.418,1.139-2.277a2.854,2.854,0,0,0,.3-1.277V238.05Z" transform="translate(-613.243 -228.897)"/><path class="i" d="M725.51,241.066v.175a4.316,4.316,0,0,0,5.751,0V239.46H725.51Z" transform="translate(-613.45 -230.06)"/><circle class="j" cx="4.318" cy="4.318" r="4.318" transform="translate(110.577 3.398)"/><path class="i" d="M712.152,198.366h7.2s2.878-2.878,0-4.318a9.853,9.853,0,0,0-1.953-.69,6.424,6.424,0,0,0-7.976,6.991,2.855,2.855,0,0,0,1.293,2.333C713.751,204.283,712.152,198.366,712.152,198.366Z" transform="translate(-600.135 -191.867)"/><path class="l" d="M712.152,197.226h7.2s2.878-2.878,0-4.318a9.852,9.852,0,0,0-1.953-.69,6.424,6.424,0,0,0-7.976,6.991,2.855,2.855,0,0,0,1.293,2.333C713.751,203.143,712.152,197.226,712.152,197.226Z" transform="translate(-600.135 -190.927)"/><ellipse class="j" cx="0.399" cy="0.701" rx="0.399" ry="0.701" transform="translate(111.827 7.072)"/><path class="i" d="M544.67,238.471l.2-.6.6.4Z" transform="translate(-434.644 -221.798)"/><path class="i" d="M774.918,297.85a8.54,8.54,0,0,0-2.778,2.044" transform="translate(-651.911 -278.221)"/><path class="i" d="M610.341,220.75l-.2.6-.4-.6Z" transform="translate(-488.315 -207.677)"/><path class="l" d="M712.152,197.226h7.2s2.878-2.878,0-4.318a9.852,9.852,0,0,0-1.953-.69,6.424,6.424,0,0,0-7.976,6.991,2.855,2.855,0,0,0,1.293,2.333C713.751,203.143,712.152,197.226,712.152,197.226Z" transform="translate(-600.135 -190.927)"/></svg>
