<svg xmlns="http://www.w3.org/2000/svg" xmlns:xlink="http://www.w3.org/1999/xlink" width="198.648" height="200.186" viewBox="0 0 198.648 200.186"><defs><style>.a{fill:#6c63ff;}.b{fill:#eee;}.c{fill:url(#a);}.d{fill:#fdb797;}.e{fill:#00afff;}.f{clip-path:url(#b);}.g,.h{opacity:0.1;}.i{fill:#42454a;}.j{fill:#0c263d;}.k{fill:#00c3ae;}.l{fill:#333;}.m{fill:#f55f44;}.m,.n,.o,.p{opacity:0.5;}.n{fill:#4d8af0;}.o,.q{fill:#47e6b1;}</style><linearGradient id="a" x1="0.5" y1="1" x2="0.5" gradientUnits="objectBoundingBox"><stop offset="0" stop-color="gray" stop-opacity="0.251"/><stop offset="0.54" stop-color="gray" stop-opacity="0.122"/><stop offset="1" stop-color="gray" stop-opacity="0.102"/></linearGradient><clipPath id="b"><path class="a" d="M510.664,191.8s-9.705,2.911-23.295-1.457-41.736,6.308-41.736,6.308-22.324,0-55.325-14.073c0,0,15.044,14.559,4.368,23.295s-.971,21.353,11.647,26.206,13.588,14.559,12.618,23.78,0,.486,0,.486,37.853-6.794,47.56,16.5l48.044-75.711S517.458,191.318,510.664,191.8Z" transform="translate(-390.099 -182.58)"/></clipPath></defs><g transform="translate(0 0)"><path class="b" d="M135.919,86.78c-8.655,33.918-38.487,58.421-73.483,59.43-18.5.533-37.964-5.584-52.121-27.034C-14.993,80.832,11.922,54.3,30.682,41.689a117.575,117.575,0,0,0,24.268-21.8C67.627,4.853,92.006-13.832,121,15.393,142.015,36.575,141.684,64.187,135.919,86.78Z" transform="matrix(-0.809, -0.588, 0.588, -0.809, 112.69, 200.186)"/><g transform="translate(5.013 11.25)"><path class="c" d="M295.06,131.5c.511-.416-1.324-.872-.884-1.363v.351c3.487-3.558,3.364-7.869,1.936-11.8l-.472-.175c-2.242-5.926-7.379-10.9-7.379-10.9l.768.322c-.238-.246-.374-.384-.374-.384,31.858,13.59,54.024,14.382,56.5,14.428a140.939,140.939,0,0,1,26.225-6.851,54.608,54.608,0,0,1,11.024-.618l3.827-16.43.073.044a9.772,9.772,0,0,1,3.263-6.377c3.234-2.526.825,9.095.825,9.095l-.265-.125-1.355,14.632.66.553a50.294,50.294,0,0,0,11.768,2.029,8.282,8.282,0,0,1-1.789-2.386,1.591,1.591,0,0,1-1.441-.428,1.954,1.954,0,0,1-.317-.443,4.22,4.22,0,0,1-.422-.908,28.152,28.152,0,0,1-1.919-6.535,8.2,8.2,0,0,1,1.687-6.408c1.522-1.695,4.3-2.339,6.16-1.031a11.112,11.112,0,0,0,1.42,1.044c1.614.781,3.4-.486,4.907-1.464,1.746-1.138,4.053-1.954,5.863-.921a3.589,3.589,0,0,1,1.343,1.378,4.383,4.383,0,0,1,.666,2.639,6.146,6.146,0,0,1-1.984,3.907,3.387,3.387,0,0,1-1.3.848,2.411,2.411,0,0,1-.384.084,8.273,8.273,0,0,1,1.2,6.23l.67,4.053a2.311,2.311,0,0,1,1.113,1.482,12.715,12.715,0,0,1,5.665,2l11,11c2.854,1.936.917,5.5.917,5.5l-6.42,19.259-.355-.265c-1.317,2.4-5.182,9.02-5.924,5.719-.908-4,1.919-7.631,1.919-7.631h.035l.731-.94,2.687-14.317-3.4-3.376-4.568-.666-.2,29.645c8.356,22.011,5.025,32.1,5.025,32.1l-5.025,27.513-.937-.155-.226.906-.083-.029-.407,2.03h.733l.917,2.752s4.687-.1,4.585.917-2.65,2.752-9.172.917l-1.835-1.835s-.917-.917.917-2.752h.131l.509-3.562-.639-.107,5.506-27.519c-4.585-3.771-12.839-18.341-12.839-18.341s-5.61,14.572-10.2,18.341l2.86,27.511-.639.107.5,3.562h.13c1.835,1.835.917,2.752.917,2.752l-1.835,1.835c-6.525,1.835-9.07.1-9.172-.917s4.585-.917,4.585-.917l.917-2.752h.733l-.528-2.641-.094-.282-1.029.171L388.048,197.1s-2.176-15.9,4.948-35.767l-14.635,20.523-11.58,18.259a24.826,24.826,0,0,0-2.251-4.222l-8.379-7.828c-9.74-5.794-22.742-6.141-30.772-5.663l-7.4.8-3.481-18.339a21.09,21.09,0,0,0-9.417-6.55c-9.081-3.493-16.7-10.908-16.635-18.119-.132.148-.261.3-.384.445C287.963,137.448,291.659,134.282,295.06,131.5Zm98.206,27.2.01-.338-.422.664Z" transform="translate(-288.055 -87.667)"/><path class="d" d="M335.093,413.151h.035l1.629-2.1,2.637,2.637-.292.438.332.081s-5.322,10.279-6.208,6.377S335.093,413.151,335.093,413.151Z" transform="translate(-201.834 -345.981)"/><path class="e" d="M510.664,191.8s-9.705,2.911-23.295-1.457-41.736,6.308-41.736,6.308-22.324,0-55.325-14.073c0,0,15.044,14.559,4.368,23.295s-.971,21.353,11.647,26.206,13.588,14.559,12.618,23.78,0,.486,0,.486,37.853-6.794,47.56,16.5l48.044-75.711S517.458,191.318,510.664,191.8Z" transform="translate(-387.905 -161.358)"/><g class="f" transform="translate(2.193 21.222)"><path class="g" d="M269.579,84.18l-120.84,86.869L141.46,149.7Z" transform="translate(-124.965 -89.247)"/><path class="g" d="M256.068,225.79,189.1,293.732l-9.707-7.279Z" transform="translate(-118.733 -203.679)"/></g><g class="h" transform="translate(1.817 21.278)"><path d="M509.963,198.885s-9.705,2.911-23.295-1.457-41.732,6.31-41.732,6.31-18.059,0-45.7-10.241c-2.186-5.781-7.195-10.628-7.195-10.628,33.009,14.073,55.325,14.073,55.325,14.073s28.148-10.676,41.736-6.308,23.295,1.457,23.295,1.457c6.794-.486,3.882,5.339,3.882,5.339l-2,3.149C513.863,199.519,512.7,198.69,509.963,198.885Z" transform="translate(-391.825 -182.87)"/><path d="M1017.172,298.65a12.21,12.21,0,0,0,1.393-1.33,9.593,9.593,0,0,1-3.819,8.124,15.145,15.145,0,0,0-2.146,2.123C1012.507,304.453,1013.856,301.364,1017.172,298.65Z" transform="translate(-1012.596 -275.355)"/></g><path class="d" d="M335.27,693.239l.894,4.474h3.579l-.9-6.262Z" transform="translate(-230.611 -558.75)"/><path class="g" d="M338.5,700.806l.251.756,3.529-1.008-.251-.5Z" transform="translate(-233.767 -565.7)"/><path class="d" d="M241.882,693.239l-.894,4.474H237.41l.894-6.262Z" transform="translate(-114.054 -558.75)"/><path class="g" d="M241.123,700.806l-.251,1.008-3.531-1.259v-.5Z" transform="translate(-113.283 -565.7)"/><path class="d" d="M519.347,107.741s.1-4.483,3.249-6.951.793,8.865.793,8.865Z" transform="translate(-422.226 -94.98)"/><path class="i" d="M357.35,791.42h4.472l.894,2.687s4.571-.1,4.472.894-2.583,2.687-8.943.894l-1.789-1.789S355.561,793.209,357.35,791.42Z" transform="translate(-234.011 -653.352)"/><path class="i" d="M486.074,791.42H481.6l-.894,2.687s-4.571-.1-4.472.894,2.583,2.687,8.943.894l1.789-1.789S487.863,793.209,486.074,791.42Z" transform="translate(-376.936 -653.352)"/><path class="j" d="M352.676,474.51h25.037c8.149,21.466,4.843,31.305,4.843,31.305l-4.843,26.832-5.374-.894,3.062-26.826c-4.472-3.677-10.21-17.888-10.21-17.888s-5.735,14.2-10.2,17.888l3.062,26.832-5.374.894-4.843-26.832S344.521,495.976,352.676,474.51Z" transform="translate(-248.98 -397.262)"/><path class="g" d="M404.583,476.32s-14.2,5.374-25.043,0Z" transform="translate(-275.837 -398.725)"/><path class="k" d="M303.432,253.744l7.155,7.155L307.9,275.209l3.577,2.687,6.26-18.783s1.888-3.477-.894-5.374l-10.734-10.734s-4.606-3.086-7.773-1.5,5.157,12.129,5.157,12.129" transform="translate(-173.982 -208.607)"/><path class="k" d="M412.4,167.521l-.894,32.2s-14.2,5.374-25.043,0l.894-30.311.228-1-.165-.493L376.67,159c-2.946-1.622-1.389-5.26-1.389-5.26l4.491-19.282,3.813,2.338-1.343,14.5,7.654,6.349.192-.01v.048l19.62-.892" transform="translate(-282.739 -122.473)"/><rect class="d" width="7.155" height="8.049" rx="3.577" transform="translate(112.615 29.893)"/><path class="g" d="M434.5,232.506a8.047,8.047,0,0,1-6.909-.768,3.591,3.591,0,0,1,3.362-2.359h0a3.589,3.589,0,0,1,3.547,3.126Z" transform="translate(-314.957 -199.176)"/><circle class="d" cx="8.049" cy="8.049" r="8.049" transform="translate(109.025 17.372)"/><path class="g" d="M403.457,143.841a4.145,4.145,0,0,0,1.5-.084,3.3,3.3,0,0,0,1.267-.829,6.006,6.006,0,0,0,1.936-3.811,4,4,0,0,0-1.837-3.717c-1.766-1.006-4.017-.211-5.719.9-1.464.96-3.213,2.19-4.786,1.428a10.878,10.878,0,0,1-1.386-1.017c-1.817-1.276-4.523-.647-6.007,1.006a7.981,7.981,0,0,0-1.645,6.251,27.615,27.615,0,0,0,1.875,6.374,3.092,3.092,0,0,0,.6,1.119c.944.969,2.712.217,3.334-.985,1.08-2.09,0-5.713,2.552-6.932C397.172,142.572,401.275,143.7,403.457,143.841Z" transform="translate(-280.796 -122.859)"/><path class="l" d="M404.087,142.8a4.145,4.145,0,0,0,1.5-.084,3.3,3.3,0,0,0,1.267-.829,6.006,6.006,0,0,0,1.936-3.811,4,4,0,0,0-1.837-3.717c-1.766-1.006-4.017-.211-5.719.9-1.464.96-3.213,2.19-4.786,1.428a10.88,10.88,0,0,1-1.386-1.017c-1.817-1.276-4.523-.647-6.007,1.006a7.981,7.981,0,0,0-1.645,6.251c.255,2.207.877,9.249,1.645,11.33.121.411,1.727.68,2,1.007.944.969,1.544-4.628,2.166-5.829,1.081-2.09,0-5.713,2.552-6.932C397.8,141.532,401.907,142.661,404.087,142.8Z" transform="translate(-281.546 -122.018)"/><ellipse class="d" cx="0.894" cy="1.789" rx="0.894" ry="1.789" transform="translate(111.741 23.632)"/><path class="g" d="M230.41,234.71l-2.27,1.063,2.27,2.775Z" transform="translate(-100.815 -189.666)"/><path class="g" d="M350.4,236.75l1.512,1.681-1.008,1.512-.589-1.681Z" transform="translate(-245.665 -191.314)"/><path class="e" d="M388.83,251.7v1.457s10.622-1.94,10.893-4.854l-7.011.486Z" transform="translate(-272.772 -214.465)"/><path class="e" d="M456.483,251.7v1.457s-10.623-1.94-10.893-4.854l7.011.486Z" transform="translate(-340.373 -214.465)"/><path class="g" d="M672.032,276.36l-34.942,8.25,12.618,5.339Z" transform="translate(-620.344 -223.322)"/><path class="e" d="M395.1,235.83s0-3.05-2.034-3.05-4.067,6.1-4.067,6.1Z" transform="translate(-268.189 -201.924)"/><circle class="m" cx="1.332" cy="1.332" r="1.332" transform="translate(169.631 55.026)"/><circle class="m" cx="1.332" cy="1.332" r="1.332" transform="translate(152.99 86.312)"/><circle class="m" cx="1.332" cy="1.332" r="1.332" transform="translate(11.981 2.439)"/><path class="n" d="M635.627,89.877a.816.816,0,0,0,.455-.985.382.382,0,0,1-.017-.09h0a.409.409,0,0,1,.735-.271h0a.384.384,0,0,1,.046.081.816.816,0,0,0,.983.453.383.383,0,0,1,.09-.017h0a.409.409,0,0,1,.271.735h0a.384.384,0,0,1-.081.046.816.816,0,0,0-.449.983.388.388,0,0,1,.017.09h0a.409.409,0,0,1-.735.271h0a.384.384,0,0,1-.046-.081.816.816,0,0,0-.985-.455.383.383,0,0,1-.09.017h0a.409.409,0,0,1-.273-.733h0A.383.383,0,0,1,635.627,89.877Z" transform="translate(-558.516 -85.226)"/><path class="n" d="M976.682,511.867a.816.816,0,0,0,.455-.984.382.382,0,0,1-.017-.09h0a.409.409,0,0,1,.735-.271h0a.38.38,0,0,1,.046.081.816.816,0,0,0,.985.455.382.382,0,0,1,.09-.017h0a.409.409,0,0,1,.271.735h0a.383.383,0,0,1-.081.046.816.816,0,0,0-.455.985.381.381,0,0,1,.017.09h0a.409.409,0,0,1-.735.271h0a.385.385,0,0,1-.046-.081.816.816,0,0,0-.984-.455.385.385,0,0,1-.09.017h0a.409.409,0,0,1-.271-.735h0A.384.384,0,0,1,976.682,511.867Z" transform="translate(-964.676 -426.23)"/><circle class="o" cx="1.332" cy="1.332" r="1.332" transform="translate(59.638 122.256)"/><circle class="o" cx="1.332" cy="1.332" r="1.332" transform="translate(169.631 112.938)"/><circle class="o" cx="1.332" cy="1.332" r="1.332" transform="translate(63.613 16.418)"/><g class="p" transform="translate(169.411)"><rect class="q" width="0.666" height="3.771" transform="translate(1.553)"/><rect class="q" width="0.666" height="3.771" transform="translate(3.771 1.553) rotate(90)"/></g><g class="p" transform="translate(157.207 36.166)"><rect class="q" width="0.666" height="3.771" transform="translate(1.553)"/><rect class="q" width="0.666" height="3.771" transform="translate(3.771 1.553) rotate(90)"/></g><g class="p" transform="translate(35.78 19.969)"><rect class="q" width="0.666" height="3.771" transform="translate(1.555)"/><rect class="q" width="0.666" height="3.771" transform="translate(3.771 1.553) rotate(90)"/></g></g></g></svg>