<svg xmlns="http://www.w3.org/2000/svg" xmlns:xlink="http://www.w3.org/1999/xlink" width="70.668" height="110.154" viewBox="0 0 70.668 110.154"><defs><style>.a{fill:none;}.b{clip-path:url(#a);}.c{fill:url(#b);}.d{fill:#f6b9ad;}.e{fill:url(#c);}.f{fill:url(#d);}.g,.m{fill:#fff;}.h{fill:#00c3ae;}.i{fill:#dbdbdb;}.j{fill:url(#e);}.k{fill:url(#f);}.l{fill:url(#g);}.m{opacity:0.2;}.n{fill:url(#h);}.o{fill:url(#i);}.p{fill:url(#j);}</style><clipPath id="a"><rect class="a" width="70.668" height="110.154"/></clipPath><linearGradient id="b" x1="0.5" y1="1" x2="0.5" gradientUnits="objectBoundingBox"><stop offset="0" stop-color="gray" stop-opacity="0.251"/><stop offset="0.54" stop-color="gray" stop-opacity="0.122"/><stop offset="1" stop-color="gray" stop-opacity="0.102"/></linearGradient><linearGradient id="c" x1="0.5" y1="1" x2="0.5" y2="0" xlink:href="#b"/><linearGradient id="d" x1="1.115" y1="1.124" x2="1.115" y2="0.124" xlink:href="#b"/><linearGradient id="e" x1="0.5" y1="1" x2="0.5" y2="0" xlink:href="#b"/><linearGradient id="f" x1="1.17" y1="2.05" x2="1.17" y2="1.05" xlink:href="#b"/><linearGradient id="g" x1="0.5" x2="0.5" y2="1" gradientUnits="objectBoundingBox"><stop offset="0" stop-color="#00afff"/><stop offset="0.1" stop-color="#2dc0f7"/><stop offset="0.2" stop-color="#28c0ef"/><stop offset="0.3" stop-color="#23c0e7"/><stop offset="0.4" stop-color="#1ec1df"/><stop offset="0.5" stop-color="#19c1d7"/><stop offset="0.6" stop-color="#14c1cf"/><stop offset="0.7" stop-color="#0fc2c7"/><stop offset="0.8" stop-color="#0ac2bf"/><stop offset="0.9" stop-color="#05c2b7"/><stop offset="1" stop-color="#00c3af"/></linearGradient><linearGradient id="h" x1="0.5" y1="1" x2="0.5" y2="0" xlink:href="#b"/><linearGradient id="i" x1="0.5" y1="1" x2="0.5" y2="0" xlink:href="#b"/><linearGradient id="j" x1="0.5" y1="1" x2="0.5" y2="0" xlink:href="#b"/></defs><g class="b"><path class="c" d="M444.243,513.305a11.846,11.846,0,0,0-23.485-2.208l-36.408-.988.4,6.255s-5.192,11.979,22.094,15.17v12.107h31.543v-20.13A11.839,11.839,0,0,0,444.243,513.305Z" transform="translate(-373.659 -438.874)"/><path class="d" d="M393.388,570.381s-4.971,11.471,21.159,14.532v11.6h30.208v-30.72L393,564.39Z" transform="translate(-381.047 -492.628)"/><path class="e" d="M344.189,164.912h0a5.569,5.569,0,0,1-7.658,1.74l-16.219-10.688a5.569,5.569,0,0,1-1.74-7.658h0a5.569,5.569,0,0,1,7.652-1.74l16.219,10.688A5.569,5.569,0,0,1,344.189,164.912Z" transform="translate(-316.75 -135.029)"/><path class="d" d="M348.919,168.805h0a5.177,5.177,0,0,1-7.118,1.618l-15.082-9.935a5.177,5.177,0,0,1-1.618-7.118h0a5.177,5.177,0,0,1,7.118-1.618l15.079,9.937A5.177,5.177,0,0,1,348.919,168.805Z" transform="translate(-322.379 -139.507)"/><circle class="d" cx="11.344" cy="11.344" r="11.344" transform="translate(46.628 63.479)"/><rect class="f" width="47.031" height="84.891" rx="12.25" transform="translate(10.685)"/><rect class="g" width="45.759" height="82.598" rx="13.64" transform="translate(11.322 1.148)"/><path class="h" d="M429.768,94.49a3.709,3.709,0,0,1-3.657,3.155h-15.8a3.71,3.71,0,0,1-3.656-3.155h-8.373a1.737,1.737,0,0,0-1.739,1.737V171.2a1.737,1.737,0,0,0,1.737,1.739h39.989A1.737,1.737,0,0,0,440,171.206V96.229a1.737,1.737,0,0,0-1.737-1.739Z" transform="translate(-384.026 -91.272)"/><rect class="i" width="10.198" height="0.637" rx="0.319" transform="translate(29.167 4.207)"/><circle class="i" cx="0.382" cy="0.382" r="0.382" transform="translate(41.149 4.08)"/><path class="j" d="M676.589,363.174h0c-3.292.761-5.552-1.386-6.313-4.677l-7.565-28.089a6.162,6.162,0,0,1,4.6-7.368h0a6.162,6.162,0,0,1,7.368,4.6l6.173,28.809A5.316,5.316,0,0,1,676.589,363.174Z" transform="translate(-611.282 -286.352)"/><rect class="k" width="43.178" height="10.065" transform="translate(26.092 100.089)"/><rect class="l" width="40.844" height="7.877" transform="translate(27.259 101.256)"/><path class="m" d="M.672.672A.672.672,0,0,1,0,0Z" transform="translate(24.871 38.043) rotate(0.13)"/><path class="n" d="M333.016,393.435h0a5.5,5.5,0,0,1-7.566,1.72l-10.879-7.038a5.5,5.5,0,0,1-1.72-7.566h0a5.5,5.5,0,0,1,7.566-1.72l10.878,7.04A5.5,5.5,0,0,1,333.016,393.435Z" transform="translate(-311.873 -333.42)"/><path class="o" d="M338,507.582h0a5.552,5.552,0,0,1-7.635,1.736l-6.738-4.916a5.552,5.552,0,0,1-1.736-7.635h0a5.552,5.552,0,0,1,7.635-1.73l6.738,4.914A5.552,5.552,0,0,1,338,507.582Z" transform="translate(-319.593 -432.667)"/><path class="d" d="M340.99,510.353h0a5.177,5.177,0,0,1-7.118,1.618l-6.283-4.583a5.177,5.177,0,0,1-1.618-7.118h0a5.177,5.177,0,0,1,7.118-1.618l6.283,4.583a5.177,5.177,0,0,1,1.618,7.118Z" transform="translate(-323.122 -435.805)"/><path class="p" d="M335.012,280.245h0a5.528,5.528,0,0,1-7.6,1.727L313.626,273a5.528,5.528,0,0,1-1.727-7.6h0a5.528,5.528,0,0,1,7.6-1.727l13.785,8.975A5.528,5.528,0,0,1,335.012,280.245Z" transform="translate(-311.056 -235.053)"/><g transform="translate(-148.01 -105.498)"><rect class="g" width="26.891" height="36.974" rx="10" transform="translate(169.555 130.513)"/><g transform="translate(166.193 128.832)"><path class="h" d="M-41.5-14.21c0-15.753-1.052-21.849-16.807-21.849s-16.807,4.413-16.807,20.168S-74.066,4.277-58.311,4.277-41.5-.136-41.5-15.891m-10.79-.784-4.646,4.646c-.006.007-.013.009-.018.016a1.964,1.964,0,0,1-.273.223c-.048.031-.1.054-.15.081a1.9,1.9,0,0,1-.179.094,1.646,1.646,0,0,1-.2.061,1.582,1.582,0,0,1-.161.048,1.935,1.935,0,0,1-.374.038h-.033a1.908,1.908,0,0,1-1.353-.561l-4.648-4.647a1.913,1.913,0,0,1,0-2.706,1.913,1.913,0,0,1,2.706,0l1.414,1.414V-30.844a1.913,1.913,0,0,1,1.914-1.914,1.913,1.913,0,0,1,1.914,1.914V-18l1.38-1.38a1.913,1.913,0,0,1,2.706,0,1.913,1.913,0,0,1,0,2.706m6.481,5.133a12.262,12.262,0,0,1-3.609,8.789A12.433,12.433,0,0,1-58.311.972a12.511,12.511,0,0,1-12.5-12.5,1.914,1.914,0,0,1,1.914-1.914,1.913,1.913,0,0,1,1.914,1.914,8.679,8.679,0,0,0,8.67,8.67,8.634,8.634,0,0,0,6.169-2.591,8.464,8.464,0,0,0,2.5-6.062,1.914,1.914,0,0,1,1.9-1.93h.018a1.914,1.914,0,0,1,1.913,1.9" transform="translate(75.118 36.059)"/></g></g><path class="d" d="M338.889,283.477h0a5.177,5.177,0,0,1-7.118,1.618l-12.911-8.406a5.177,5.177,0,0,1-1.618-7.118h0a5.177,5.177,0,0,1,7.118-1.618l12.911,8.407A5.177,5.177,0,0,1,338.889,283.477Z" transform="translate(-315.666 -238.757)"/><path class="d" d="M336.2,396.142h0a5.177,5.177,0,0,1-7.118,1.618l-10.234-6.622a5.177,5.177,0,0,1-1.618-7.118h0a5.177,5.177,0,0,1,7.118-1.625l10.234,6.622A5.177,5.177,0,0,1,336.2,396.142Z" transform="translate(-315.657 -336.507)"/><rect class="d" width="10.325" height="41.224" rx="5.162" transform="translate(51.328 39.275) rotate(-13.01)"/></g></svg>