<svg xmlns="http://www.w3.org/2000/svg" xmlns:xlink="http://www.w3.org/1999/xlink" width="70.668" height="110.154"><defs><linearGradient id="b" x1=".5" y1="1" x2=".5" gradientUnits="objectBoundingBox"><stop offset="0" stop-color="gray" stop-opacity=".251"/><stop offset=".54" stop-color="gray" stop-opacity=".122"/><stop offset="1" stop-color="gray" stop-opacity=".102"/></linearGradient><linearGradient id="c" x1=".5" y1="1" x2=".5" y2="0" xlink:href="#b"><stop offset="0" stop-color="gray" stop-opacity=".251"/><stop offset=".54" stop-color="gray" stop-opacity=".122"/><stop offset="1" stop-color="gray" stop-opacity=".102"/></linearGradient><linearGradient id="d" x1="1" y1="1" x2="1" y2="0" xlink:href="#b"><stop offset="0" stop-color="gray" stop-opacity=".251"/><stop offset=".54" stop-color="gray" stop-opacity=".122"/><stop offset="1" stop-color="gray" stop-opacity=".102"/></linearGradient><linearGradient id="e" x1=".5" y1="1" x2=".5" y2="0" xlink:href="#b"><stop offset="0" stop-color="gray" stop-opacity=".251"/><stop offset=".54" stop-color="gray" stop-opacity=".122"/><stop offset="1" stop-color="gray" stop-opacity=".102"/></linearGradient><linearGradient id="f" x1="1" y1="2" x2="1" y2="1" xlink:href="#b"><stop offset="0" stop-color="gray" stop-opacity=".251"/><stop offset=".54" stop-color="gray" stop-opacity=".122"/><stop offset="1" stop-color="gray" stop-opacity=".102"/></linearGradient><linearGradient id="g" x1=".5" x2=".5" y2="1" gradientUnits="objectBoundingBox"><stop offset="0" stop-color="#00afff"/></linearGradient><linearGradient id="h" x1=".5" y1="1" x2=".5" y2="0" xlink:href="#b"><stop offset="0" stop-color="gray" stop-opacity=".251"/><stop offset=".54" stop-color="gray" stop-opacity=".122"/><stop offset="1" stop-color="gray" stop-opacity=".102"/></linearGradient><linearGradient id="i" x1=".5" y1="1" x2=".5" y2="0" xlink:href="#b"><stop offset="0" stop-color="gray" stop-opacity=".251"/><stop offset=".54" stop-color="gray" stop-opacity=".122"/><stop offset="1" stop-color="gray" stop-opacity=".102"/></linearGradient><linearGradient id="j" x1=".5" y1="1" x2=".5" y2="0" xlink:href="#b"><stop offset="0" stop-color="gray" stop-opacity=".251"/><stop offset=".54" stop-color="gray" stop-opacity=".122"/><stop offset="1" stop-color="gray" stop-opacity=".102"/></linearGradient><clipPath id="a"><path fill="none" d="M0 0h70.668v110.154H0z"/></clipPath><style>.d{fill:#f6b9ad}.g{fill:#fff}.h{fill:#00c3ae}.i{fill:#dbdbdb}</style></defs><g clip-path="url(#a)"><path d="M444.243 513.305a11.846 11.846 0 00-23.485-2.208l-36.408-.988.4 6.255s-5.192 11.979 22.094 15.17v12.107h31.543v-20.13a11.839 11.839 0 005.856-10.206z" transform="translate(-373.659 -438.874)" fill="url(#b)"/><path class="d" d="M12.341 77.753S7.37 89.224 33.5 92.285v11.6h30.208v-30.72l-51.755-1.403z"/><path d="M344.189 164.912a5.569 5.569 0 01-7.658 1.74l-16.219-10.688a5.569 5.569 0 01-1.74-7.658 5.569 5.569 0 017.652-1.74l16.219 10.688a5.569 5.569 0 011.746 7.658z" transform="translate(-316.75 -135.029)" fill="url(#c)"/><path class="d" d="M26.54 29.298a5.177 5.177 0 01-7.118 1.618L4.34 20.981a5.177 5.177 0 01-1.618-7.118 5.177 5.177 0 017.118-1.618l15.079 9.937a5.177 5.177 0 011.621 7.116z"/><circle class="d" cx="11.344" cy="11.344" r="11.344" transform="translate(46.628 63.479)"/><rect width="47.031" height="84.891" rx="12.25" transform="translate(10.685)" fill="url(#d)"/><rect class="g" width="45.759" height="82.598" rx="13.64" transform="translate(11.322 1.148)"/><path class="h" d="M45.742 3.218a3.709 3.709 0 01-3.657 3.155h-15.8a3.71 3.71 0 01-3.656-3.155h-8.373a1.737 1.737 0 00-1.739 1.737v74.973a1.737 1.737 0 001.737 1.739h39.989a1.737 1.737 0 001.731-1.733V4.957a1.737 1.737 0 00-1.737-1.739z"/><rect class="i" width="10.198" height=".637" rx=".319" transform="translate(29.167 4.207)"/><circle class="i" cx=".382" cy=".382" r=".382" transform="translate(41.149 4.08)"/><path d="M676.589 363.174c-3.292.761-5.552-1.386-6.313-4.677l-7.565-28.089a6.162 6.162 0 014.6-7.368 6.162 6.162 0 017.368 4.6l6.173 28.809a5.316 5.316 0 01-4.263 6.725z" transform="translate(-611.282 -286.352)" fill="url(#e)"/><path transform="translate(26.092 100.089)" fill="url(#f)" d="M0 0h43.178v10.065H0z"/><path transform="translate(27.259 101.256)" fill="url(#g)" d="M0 0h40.844v7.877H0z"/><path d="M25.541 38.717a.672.672 0 01-.67-.674z" opacity=".2" fill="#fff"/><path d="M333.016 393.435a5.5 5.5 0 01-7.566 1.72l-10.879-7.038a5.5 5.5 0 01-1.72-7.566 5.5 5.5 0 017.566-1.72l10.878 7.04a5.5 5.5 0 011.721 7.564z" transform="translate(-311.873 -333.42)" fill="url(#h)"/><path d="M338 507.582a5.552 5.552 0 01-7.635 1.736l-6.738-4.916a5.552 5.552 0 01-1.736-7.635 5.552 5.552 0 017.635-1.73l6.738 4.914a5.552 5.552 0 011.736 7.631z" transform="translate(-319.593 -432.667)" fill="url(#i)"/><path class="d" d="M17.868 74.548a5.177 5.177 0 01-7.118 1.618l-6.283-4.583a5.177 5.177 0 01-1.618-7.118 5.177 5.177 0 017.118-1.618l6.283 4.583a5.177 5.177 0 011.618 7.118z"/><path d="M335.012 280.245a5.528 5.528 0 01-7.6 1.727L313.626 273a5.528 5.528 0 01-1.727-7.6 5.528 5.528 0 017.6-1.727l13.785 8.975a5.528 5.528 0 011.728 7.597z" transform="translate(-311.056 -235.053)" fill="url(#j)"/><g transform="translate(-148.01 -105.498)"><rect class="g" width="26.891" height="36.974" rx="10" transform="translate(169.555 130.513)"/><path class="h" d="M199.811 150.681c0-15.753-1.052-21.849-16.807-21.849s-16.807 4.413-16.807 20.168 1.048 20.168 16.803 20.168 16.811-4.413 16.811-20.168m-10.79-.784l-4.646 4.646c-.006.007-.013.009-.018.016a1.964 1.964 0 01-.273.223c-.048.031-.1.054-.15.081a1.9 1.9 0 01-.179.094 1.646 1.646 0 01-.2.061 1.582 1.582 0 01-.161.048 1.935 1.935 0 01-.374.038h-.033a1.908 1.908 0 01-1.353-.561l-4.648-4.647a1.913 1.913 0 010-2.706 1.913 1.913 0 012.706 0l1.414 1.414v-12.876a1.913 1.913 0 011.914-1.914 1.913 1.913 0 011.914 1.914v12.844l1.38-1.38a1.913 1.913 0 012.706 0 1.913 1.913 0 010 2.706m6.481 5.133a12.262 12.262 0 01-3.609 8.789 12.433 12.433 0 01-8.892 3.724 12.511 12.511 0 01-12.5-12.5 1.914 1.914 0 011.914-1.914 1.913 1.913 0 011.914 1.914 8.679 8.679 0 008.67 8.67 8.634 8.634 0 006.169-2.591 8.464 8.464 0 002.5-6.062 1.914 1.914 0 011.9-1.93h.018a1.914 1.914 0 011.913 1.9"/></g><path class="d" d="M23.223 44.72a5.177 5.177 0 01-7.118 1.618L3.194 37.932a5.177 5.177 0 01-1.618-7.118 5.177 5.177 0 017.118-1.618l12.911 8.407a5.177 5.177 0 011.618 7.117zM20.543 59.635a5.177 5.177 0 01-7.118 1.618L3.191 54.631a5.177 5.177 0 01-1.618-7.118 5.177 5.177 0 017.118-1.625l10.234 6.622a5.177 5.177 0 011.618 7.125z"/><rect class="d" width="10.325" height="41.224" rx="5.162" transform="rotate(-13.01 197.887 -205.438)"/></g></svg>
