<svg xmlns="http://www.w3.org/2000/svg" xmlns:xlink="http://www.w3.org/1999/xlink" width="100%" height="100%" viewBox="0 0 176.136 76.279"><defs><style>.a{fill:#00afff;}.b{clip-path:url(#a);}</style><clipPath id="a"><rect class="a" width="98.46" height="76.279"/></clipPath></defs><g transform="translate(-82.96 -115.808)"><g transform="translate(160.636 115.808)"><g transform="translate(0 0)"><g class="b"><path class="a" d="M1058.518,516.395a7.5,7.5,0,0,1-7.392,6.68,7.579,7.579,0,0,1-7.574-7.574,3.787,3.787,0,0,0-7.574,0,7.574,7.574,0,1,1-15.148,0,3.787,3.787,0,1,0-7.574,0,7.574,7.574,0,1,1-15.148,0,3.787,3.787,0,0,0-7.574,0,7.582,7.582,0,0,1-7.574,7.574,7.5,7.5,0,0,1-7.4-6.722l5.188-8.646,3.712-6.01h65.171l5.84,9.559Zm-74,47.952V530.475a15.083,15.083,0,0,0,9.8-5.063,14.945,14.945,0,0,0,22.723,0,14.948,14.948,0,0,0,22.722,0,15.084,15.084,0,0,0,9.8,5.06v33.872h-17.921V542.59c0-1.67-1.693-3.026-3.787-3.026h-21.628c-2.094,0-3.787,1.356-3.787,3.026v21.757Zm25.495-18.731h14.05v18.731h-14.05ZM1066.27,515.5a3.688,3.688,0,0,0-.735-2.125c-.049-.1-.034-.212-.091-.307l-10.464-17.136a3.779,3.779,0,0,0-3.23-1.81H982.33a3.771,3.771,0,0,0-3.23,1.81L968.632,513.07c-.057.1-.041.212-.091.314a3.7,3.7,0,0,0-.731,2.117,15.163,15.163,0,0,0,9.135,13.891v37.98c0,1.67,1.693,3.026,3.787,3.026h72.617c2.094,0,3.787-1.356,3.787-3.026v-37.98a15.163,15.163,0,0,0,9.135-13.891" transform="translate(-967.808 -494.119)"/></g></g></g><g transform="translate(82.96 129.814)"><path class="a" d="M-20.274,16.388a3.2,3.2,0,0,1,3.2-3.2H32.988L17.663-2.135a3.2,3.2,0,0,1,0-4.523,3.2,3.2,0,0,1,4.523,0L42.822,13.982a3.166,3.166,0,0,1,.922,2.334h0c0,.025.013.047.013.073a3.053,3.053,0,0,1-.174.869,2.774,2.774,0,0,1-.066.322,3.164,3.164,0,0,1-.682,1.052c-.006.006-.006.013-.013.019L22.192,39.28A3.2,3.2,0,1,1,17.67,34.76L32.842,19.585h-49.92a3.2,3.2,0,0,1-3.2-3.2" transform="translate(20.274 7.593)"/></g></g></svg>
