<svg xmlns="http://www.w3.org/2000/svg" width="47.776" height="37" viewBox="0 0 47.776 37">
    <defs>
        <style>
            .cls-4{opacity:.2}
        </style>
    </defs>
    <g id="Group_3984" transform="translate(-154.999 -243.5)">
        <path id="Union_35" fill="#00c3ae" d="M-3405-13766a1 1 0 0 1-1-1v-28a1 1 0 0 1 1-1h42a1 1 0 0 1 1 1v28a1 1 0 0 1-1 1h-38.771l-3.23 3.5z" transform="translate(3561 14043)"/>
        <g id="undraw_Loving_it_re_jfh4" transform="translate(158.051 244)">
            <path id="Path_5517" fill="#3f3d56" stroke="#3f3d56" d="M583.946 210.956a.722.722 0 0 1-.42-.686v-31.604a1.57 1.57 0 0 1 1.447-1.666H626.3a1.57 1.57 0 0 1 1.447 1.666v26.649a1.57 1.57 0 0 1-1.447 1.666h-38.985l-2.667 3.752a.6.6 0 0 1-.486.268.565.565 0 0 1-.216-.044zm1.027-33.586a1.221 1.221 0 0 0-1.126 1.3v31.605a.359.359 0 0 0 .207.337.286.286 0 0 0 .345-.11l2.764-3.887H626.3a1.221 1.221 0 0 0 1.126-1.3v-26.649a1.221 1.221 0 0 0-1.126-1.3z" transform="translate(-583.526 -177)"/>
        </g>
        <g id="Group_3979" transform="rotate(82 -49.7 232.237)">
            <path id="Path_5572" fill="#fff" d="M18.955 8.126l.338-2.037-4.219-.889.173-5.2h-2.064l-.159 4.761-5.679-1.2L7.463 0H5.4l-.1 3.124-4.15-.879-.343 2.037 4.418.936-.135 4.038L.338 8.249 0 10.286l5.02 1.064-.168 5.026h2.065l.153-4.592 5.679 1.2-.113 3.388H14.7l.1-2.954 3.348.709.338-2.037-3.616-.766.13-4.035zm-6.135 2.767L7.14 9.69l.135-4.038 5.679 1.2z"/>
            <path id="Path_5573" d="M5.549 5.242L5.683 1.2 0 0v.12L5.114 1.2l-.131 3.922z" class="cls-4" transform="translate(7.84 5.652)"/>
            <path id="Path_5574" d="M.566 4.761L.724 0H.155L0 4.642z" class="cls-4" transform="translate(13.028)"/>
            <path id="Path_5576" d="M.566 3.124L.67 0H.1L0 3z" class="cls-4" transform="translate(5.298)"/>
            <path id="Path_5578" d="M0 0v.12L5.114 1.2 5 4.592h.57L5.683 1.2z" class="cls-4" transform="translate(7.636 11.784)"/>
            <path id="Path_5579" d="M4.287 6.891l.566.12.135-4.038L.57 2.037.888.117.338 0 0 2.037l4.418.936z" class="cls-4" transform="translate(.807 2.245)"/>
            <path id="Path_5580" d="M.57 2.037L.888.117.338 0 0 2.037 5.02 3.1l-.167 5.026h.57L5.59 3.1z" class="cls-4" transform="translate(0 8.249)"/>
        </g>
    </g>
</svg>
