<svg xmlns="http://www.w3.org/2000/svg" xmlns:xlink="http://www.w3.org/1999/xlink" width="100%" height="100%" viewBox="0 0 196.423 110.509"><defs><style>.a{fill:#fff;}.b,.q{fill:none;stroke:#00afff;stroke-linecap:round;stroke-dasharray:6 6;}.b{stroke-miterlimit:10;}.c{fill:url(#a);}.d{fill:#be7c5e;}.e{fill:url(#b);}.f{fill:url(#c);}.g{fill:#cbcbcb;}.h{fill:#dbdbdb;}.i{fill:url(#d);}.j{fill:url(#e);}.k{fill:url(#f);}.l{fill:url(#g);}.m{fill:url(#h);}.n{fill:url(#i);}.o{fill:#00afff;}.p{clip-path:url(#j);}.q{stroke-linejoin:round;}.r{clip-path:url(#k);}</style><linearGradient id="a" x1="0.5" y1="1" x2="0.5" gradientUnits="objectBoundingBox"><stop offset="0" stop-color="gray" stop-opacity="0.251"/><stop offset="0.54" stop-color="gray" stop-opacity="0.122"/><stop offset="1" stop-color="gray" stop-opacity="0.102"/></linearGradient><linearGradient id="b" x1="0.5" y1="1" x2="0.5" y2="0" xlink:href="#a"/><linearGradient id="c" x1="1.241" y1="1.124" x2="1.241" y2="0.124" xlink:href="#a"/><linearGradient id="d" x1="0.5" y1="1" x2="0.5" y2="0" xlink:href="#a"/><linearGradient id="e" x1="1.307" y1="2.047" x2="1.307" y2="1.047" xlink:href="#a"/><linearGradient id="f" x1="0.5" x2="0.5" y2="1" gradientUnits="objectBoundingBox"><stop offset="0" stop-color="#33bfff"/><stop offset="0.1" stop-color="#2dc0f7"/><stop offset="0.2" stop-color="#28c0ef"/><stop offset="0.3" stop-color="#23c0e7"/><stop offset="0.4" stop-color="#1ec1df"/><stop offset="0.5" stop-color="#19c1d7"/><stop offset="0.6" stop-color="#14c1cf"/><stop offset="0.7" stop-color="#0fc2c7"/><stop offset="0.8" stop-color="#0ac2bf"/><stop offset="0.9" stop-color="#05c2b7"/><stop offset="1" stop-color="#00c3af"/></linearGradient><linearGradient id="g" x1="0.5" y1="1" x2="0.5" y2="0" xlink:href="#a"/><linearGradient id="h" x1="0.5" y1="1" x2="0.5" y2="0" xlink:href="#a"/><linearGradient id="i" x1="0.5" y1="1" x2="0.5" y2="0" xlink:href="#a"/><clipPath id="j"><path class="a" d="M0,.764H15.42V-12.73H0Z" transform="translate(0 12.73)"/></clipPath><clipPath id="k"><path class="a" d="M0,25.972H44.227v-38.7H0Z" transform="translate(0 12.73)"/></clipPath></defs><g transform="translate(0.5)"><g transform="translate(-87.077 -202)"><g transform="translate(87.077 202)"><circle class="b" cx="43.463" cy="43.463" r="43.463" transform="translate(9.219 10.425)"/><circle class="b" cx="52.682" cy="52.682" r="52.682" transform="translate(0 1.205)"/><path class="c" d="M490.436,513.122a11.884,11.884,0,0,0-23.561-2.216l-36.525-.991.4,6.275s-5.208,12.017,22.165,15.219v12.146H484.56V523.362A11.877,11.877,0,0,0,490.436,513.122Z" transform="translate(-400.494 -438.451)"/><path class="d" d="M439.389,570.18s-4.987,11.508,21.227,14.578V596.4h30.306V565.578L439,564.17Z" transform="translate(-407.878 -492.177)"/><path class="e" d="M390.274,164.754h0a5.587,5.587,0,0,1-7.683,1.746l-16.272-10.722a5.587,5.587,0,0,1-1.746-7.683h0a5.587,5.587,0,0,1,7.677-1.746l16.272,10.722A5.587,5.587,0,0,1,390.274,164.754Z" transform="translate(-343.617 -134.775)"/><path class="d" d="M395,168.61h0a5.194,5.194,0,0,1-7.141,1.623l-15.13-9.975a5.194,5.194,0,0,1-1.623-7.141h0a5.194,5.194,0,0,1,7.141-1.623l15.127,9.969A5.194,5.194,0,0,1,395,168.61Z" transform="translate(-349.243 -139.216)"/><circle class="d" cx="11.381" cy="11.381" r="11.381" transform="translate(65.91 63.683)"/><rect class="f" width="47.183" height="85.164" rx="12.25" transform="translate(29.851)"/><rect class="a" width="45.907" height="82.863" rx="13.64" transform="translate(30.488 1.152)"/><path class="g" d="M475.875,94.28a3.721,3.721,0,0,1-3.669,3.165H456.352a3.721,3.721,0,0,1-3.667-3.165h-8.4a1.743,1.743,0,0,0-1.744,1.743v75.219a1.743,1.743,0,0,0,1.743,1.744H484.4a1.743,1.743,0,0,0,1.744-1.743V96.024A1.743,1.743,0,0,0,484.4,94.28Z" transform="translate(-410.9 -91.05)"/><rect class="h" width="10.231" height="0.64" rx="0.32" transform="translate(48.391 4.22)"/><circle class="h" cx="0.383" cy="0.383" r="0.383" transform="translate(60.412 4.093)"/><path class="i" d="M722.634,363.085h0c-3.3.764-5.57-1.39-6.334-4.692l-7.589-28.181a6.181,6.181,0,0,1,4.617-7.392h0a6.181,6.181,0,0,1,7.392,4.617l6.193,28.908A5.33,5.33,0,0,1,722.634,363.085Z" transform="translate(-637.987 -286.014)"/><rect class="d" width="10.358" height="41.357" rx="5.179" transform="translate(70.623 39.403) rotate(-13.01)"/><rect class="j" width="43.317" height="10.097" transform="translate(45.306 100.411)"/><rect class="k" width="40.975" height="7.902" transform="translate(46.477 101.582)"/><path class="l" d="M379.092,393.275h0A5.52,5.52,0,0,1,371.5,395l-10.913-7.061a5.52,5.52,0,0,1-1.725-7.591h0a5.52,5.52,0,0,1,7.591-1.725l10.913,7.061A5.52,5.52,0,0,1,379.092,393.275Z" transform="translate(-338.751 -333.065)"/><path class="m" d="M384.059,507.4h0a5.57,5.57,0,0,1-7.659,1.741l-6.759-4.929a5.57,5.57,0,0,1-1.741-7.659h0a5.57,5.57,0,0,1,7.659-1.741l6.759,4.93A5.57,5.57,0,0,1,384.059,507.4Z" transform="translate(-346.458 -432.241)"/><path class="d" d="M387.033,510.225h0a5.194,5.194,0,0,1-7.141,1.623l-6.3-4.589a5.194,5.194,0,0,1-1.623-7.141h0a5.194,5.194,0,0,1,7.141-1.623l6.3,4.6A5.194,5.194,0,0,1,387.033,510.225Z" transform="translate(-349.977 -435.436)"/><path class="d" d="M382.266,395.969h0a5.194,5.194,0,0,1-7.141,1.623l-10.267-6.644a5.194,5.194,0,0,1-1.623-7.141h0a5.194,5.194,0,0,1,7.141-1.623l10.267,6.644A5.194,5.194,0,0,1,382.266,395.969Z" transform="translate(-342.525 -336.147)"/><path class="n" d="M381.089,280.061h0a5.546,5.546,0,0,1-7.626,1.733l-13.829-9a5.546,5.546,0,0,1-1.733-7.626h0a5.546,5.546,0,0,1,7.626-1.733l13.829,9A5.546,5.546,0,0,1,381.089,280.061Z" transform="translate(-337.926 -234.727)"/><g transform="translate(-179.051 -1595.975)"><circle class="o" cx="13" cy="13" r="13" transform="translate(219.975 1625.975)"/><g class="p" transform="translate(224.644 1631.916)"><g transform="translate(0 0.001)"><path class="a" d="M.739.329H-2.717L-4.772,2.384H.739A4.607,4.607,0,0,1-3.744,5.955a4.6,4.6,0,0,1-4.6-4.6,4.6,4.6,0,0,1,4.6-4.6A4.57,4.57,0,0,1-.491-1.9l.74-.74a0,0,0,0,1,0,0L3.1-5.483H.191l-.909.909A6.633,6.633,0,0,0-3.744-5.3,6.662,6.662,0,0,0-10.4,1.356a6.62,6.62,0,0,0,.727,3.023l-2.651,2.649h2.908l.969-.968a6.636,6.636,0,0,0,4.7,1.95A6.661,6.661,0,0,0,2.909,1.356,6.633,6.633,0,0,0,2.829.329Z" transform="translate(12.322 5.483)"/></g></g></g><path class="d" d="M384.961,283.329h0a5.194,5.194,0,0,1-7.141,1.623l-12.953-8.434a5.194,5.194,0,0,1-1.623-7.141h0a5.194,5.194,0,0,1,7.141-1.623l12.951,8.434A5.194,5.194,0,0,1,384.961,283.329Z" transform="translate(-342.533 -238.463)"/></g></g><path class="q" d="M104.009,4.814H30.469L-9.7,27.372" transform="translate(71.072 11.79)"/><circle class="o" cx="36" cy="36" r="36" transform="translate(123.923 2)"/><g class="r" transform="translate(135.254 17.534)"><g transform="translate(-0.001 0.002)"><path class="a" d="M25.14,11.187H15.226l-5.892,5.9H25.14A13.192,13.192,0,1,1,21.61,4.805l2.122-2.122a0,0,0,0,1,0,0L31.9-5.483H23.568L20.96-2.874A19.1,19.1,0,0,0-6.8,14.133,18.989,18.989,0,0,0-4.718,22.8l-7.6,7.6h8.339L-1.2,27.625A19.081,19.081,0,0,0,31.135,11.187Z" transform="translate(12.322 5.483)"/></g></g></g></svg>
