<svg width="64" height="64" viewBox="0 0 64 64" fill="none" xmlns="http://www.w3.org/2000/svg">
<path fill-rule="evenodd" clip-rule="evenodd" d="M20.8972 4.95707C20.8803 4.96455 20.7953 5.00383 20.6124 5.18672L5.18672 20.6124C5.00383 20.7953 4.96455 20.8803 4.95707 20.8972C4.95271 20.9066 4.92308 20.9708 4.92308 21.1692V42.8308C4.92308 43.0292 4.95235 43.0926 4.95672 43.1021C4.9642 43.1189 5.00383 43.2047 5.18672 43.3876L20.6124 58.8133C20.7953 58.9962 20.8803 59.0355 20.8972 59.0429C20.9033 59.0457 20.9641 59.0769 21.1692 59.0769H42.8308C43.0293 59.0769 43.0926 59.0476 43.1021 59.0433C43.1189 59.0358 43.2047 58.9962 43.3876 58.8133L58.8133 43.3876C58.9962 43.2047 59.0355 43.1197 59.0429 43.1028C59.0473 43.0934 59.0769 43.0293 59.0769 42.8308V21.1692C59.0769 20.9707 59.0476 20.9074 59.0433 20.8979C59.0358 20.8811 58.9962 20.7953 58.8133 20.6124L43.3876 5.18672C43.2047 5.00383 43.1197 4.96455 43.1028 4.95707C43.0934 4.95271 43.0292 4.92308 42.8308 4.92308H21.1692C20.9708 4.92308 20.9066 4.95271 20.8972 4.95707ZM18.8977 0.45831C19.63 0.13283 20.3897 0 21.1692 0H42.8308C43.6103 0 44.37 0.13283 45.1023 0.45831C45.8239 0.779038 46.3953 1.23206 46.8688 1.70558L62.2944 17.1312C62.7679 17.6047 63.221 18.1761 63.5417 18.8977C63.8672 19.63 64 20.3897 64 21.1692V42.8308C64 43.6103 63.8672 44.37 63.5417 45.1023C63.221 45.8239 62.7679 46.3953 62.2944 46.8688L46.8688 62.2944C46.3953 62.7679 45.8239 63.221 45.1023 63.5417C44.37 63.8672 43.6103 64 42.8308 64H21.1692C20.3897 64 19.63 63.8672 18.8977 63.5417C18.1761 63.221 17.6047 62.7679 17.1312 62.2944L1.70558 46.8688C1.23206 46.3953 0.779038 45.8239 0.45831 45.1023C0.13283 44.37 0 43.6103 0 42.8308V21.1692C0 20.3897 0.13283 19.63 0.45831 18.8977C0.779038 18.1761 1.23206 17.6047 1.70558 17.1312L17.1312 1.70558C17.6047 1.23206 18.1761 0.779038 18.8977 0.45831Z" fill="#FA6C77"/>
<path fill-rule="evenodd" clip-rule="evenodd" d="M32 16.4103C33.3595 16.4103 34.4615 17.5123 34.4615 18.8718V32C34.4615 33.3595 33.3595 34.4615 32 34.4615C30.6405 34.4615 29.5385 33.3595 29.5385 32V18.8718C29.5385 17.5123 30.6405 16.4103 32 16.4103Z" fill="#FA6C77"/>
<path fill-rule="evenodd" clip-rule="evenodd" d="M29.5385 45.1282C29.5385 43.7687 30.6405 42.6667 32 42.6667H32.0328C33.3923 42.6667 34.4944 43.7687 34.4944 45.1282C34.4944 46.4877 33.3923 47.5897 32.0328 47.5897H32C30.6405 47.5897 29.5385 46.4877 29.5385 45.1282Z" fill="#FA6C77"/>
</svg>
