<svg xmlns="http://www.w3.org/2000/svg" width="61" height="25" viewBox="0 0 61 25"><defs><style>.a{fill:#fff;}</style></defs><path class="a" d="M-25.993-21.135a2.272,2.272,0,0,0-3.2,0l-1.63,1.621V-34.594a2.254,2.254,0,0,0-2.261-2.247,2.254,2.254,0,0,0-2.261,2.247v15.119l-1.672-1.661a2.271,2.271,0,0,0-3.2,0,2.237,2.237,0,0,0,0,3.178L-34.72-12.5a2.264,2.264,0,0,0,1.6.659l.02,0h0l.018,0h0a2.253,2.253,0,0,0,.443-.045c.058-.011.111-.034.168-.049a2.2,2.2,0,0,0,.256-.079c.062-.025.117-.061.176-.092s.146-.07.214-.115a2.312,2.312,0,0,0,.279-.227c.02-.019.044-.032.063-.051l5.49-5.457a2.237,2.237,0,0,0,0-3.178m-22.761,3.179a2.237,2.237,0,0,0,0-3.178,2.272,2.272,0,0,0-3.2,0l-1.63,1.621V-34.594a2.253,2.253,0,0,0-2.261-2.247A2.254,2.254,0,0,0-58.1-34.594v15.119l-1.671-1.661a2.271,2.271,0,0,0-3.2,0,2.237,2.237,0,0,0,0,3.178l5.492,5.458a2.262,2.262,0,0,0,1.6.659l.02,0h.02a2.3,2.3,0,0,0,.442-.044c.066-.013.127-.038.19-.056a1.962,1.962,0,0,0,.233-.072,2.073,2.073,0,0,0,.211-.11c.059-.032.121-.058.178-.1a2.287,2.287,0,0,0,.332-.27l.012-.011Zm-22.7,0a2.238,2.238,0,0,0,0-3.178,2.272,2.272,0,0,0-3.2,0l-1.63,1.62v-15.08a2.254,2.254,0,0,0-2.261-2.247A2.254,2.254,0,0,0-80.8-34.594v15.119l-1.671-1.661a2.272,2.272,0,0,0-3.2,0,2.237,2.237,0,0,0,0,3.178l5.491,5.458a2.262,2.262,0,0,0,1.6.659l.021,0h.02a2.247,2.247,0,0,0,.443-.045c.062-.012.12-.035.18-.053a2.125,2.125,0,0,0,.243-.074c.068-.029.13-.067.194-.1s.133-.065.2-.105a2.319,2.319,0,0,0,.3-.241c.015-.014.033-.024.048-.038Z" transform="translate(86.33 36.841)"/></svg>