<svg xmlns="http://www.w3.org/2000/svg" xmlns:xlink="http://www.w3.org/1999/xlink" width="158" height="128" viewBox="0 0 158 128"><defs><style>.a{fill:#eee;}.b,.g{fill:#00afff;}.b{opacity:0.4;}.c{fill:#3f3d56;}.d{fill:#2f2e41;}.e{fill:#9f616a;}.f{fill:url(#a);}</style><linearGradient id="a" x1="0.5" x2="0.5" y2="1" gradientUnits="objectBoundingBox"><stop offset="0" stop-color="#00afff"/><stop offset="0.1" stop-color="#2dc0f7"/><stop offset="0.2" stop-color="#28c0ef"/><stop offset="0.3" stop-color="#23c0e7"/><stop offset="0.4" stop-color="#1ec1df"/><stop offset="0.5" stop-color="#19c1d7"/><stop offset="0.6" stop-color="#14c1cf"/><stop offset="0.7" stop-color="#0fc2c7"/><stop offset="0.8" stop-color="#0ac2bf"/><stop offset="0.9" stop-color="#05c2b7"/><stop offset="1" stop-color="#00c3af"/></linearGradient></defs><path class="a" d="M141.707,127.021,238.07,78.326,198.649,0,98.794,45.783Z" transform="translate(-80.07)"/><circle class="b" cx="5.922" cy="5.922" r="5.922" transform="translate(123.183 87.694)"/><circle class="b" cx="4.154" cy="4.154" r="4.154" transform="translate(114.139 92.285)"/><rect class="a" width="18.573" height="18.573" transform="translate(16.88 85.541) rotate(30)"/><path class="c" d="M754.687,393.829a4.169,4.169,0,1,1,4.169-4.169,4.17,4.17,0,0,1-4.169,4.169Zm0-7.96a3.79,3.79,0,1,0,3.79,3.79A3.791,3.791,0,0,0,754.687,385.869Z" transform="translate(-643.127 -333.696)"/><path class="c" d="M377.687,330.829a4.169,4.169,0,1,1,4.169-4.169A4.169,4.169,0,0,1,377.687,330.829Zm0-7.96a3.79,3.79,0,1,0,3.79,3.79,3.79,3.79,0,0,0-3.79-3.79Z" transform="translate(-337.28 -282.604)"/><path class="c" d="M290.687,679.829a4.169,4.169,0,1,1,4.169-4.169A4.169,4.169,0,0,1,290.687,679.829Zm0-7.96a3.79,3.79,0,1,0,3.79,3.79A3.79,3.79,0,0,0,290.687,671.869Z" transform="translate(-266.618 -565.669)"/><ellipse class="d" cx="6.444" cy="3.885" rx="6.444" ry="3.885" transform="translate(52.097 46.175) rotate(-48.312)"/><circle class="d" cx="16.868" cy="16.868" r="16.868" transform="translate(54.593 39.012)"/><path class="d" d="M220.191,367.752l-15.678,1.283a2.594,2.594,0,0,0-2.376,2.4l-.585,8.079a2.594,2.594,0,0,0,2.587,2.782h7.066v.379h2.843v-.379h1.516v.379h2.843v-.379h1.515a2.594,2.594,0,0,0,2.591-2.461l.48-9.361a2.594,2.594,0,0,0-2.8-2.718Z" transform="translate(-197.749 -319.31)"/><path class="e" d="M240.672,457.937,218.5,447.513l-3.98,6.254s11.53,7.361,12.129,7.96c.853.853,10.045,6.823,13.646,5.875S242.188,458.885,240.672,457.937Z" transform="translate(-208.263 -384.012)"/><path class="d" d="M238.843,641.406,236,647.85h29.429l-2.138-6.823Z" transform="translate(-191.489 -519.85)"/><path class="e" d="M527.08,462.091s1.137,6.254,0,7.012,7.581,10.045,7.581,10.045l3.6-3.222,1.137-7.391s-3.411-4.738-1.9-8.908S527.08,462.091,527.08,462.091Z" transform="translate(-461.784 -392.722)"/><circle class="e" cx="12.129" cy="12.129" r="12.129" transform="translate(56.593 47.055)"/><path class="f" d="M451.382,508.633s-4.738-7.2-7.391-7.77a19.174,19.174,0,0,0-6.633,0c-1.516.19-6.633-1.706-9.666-.379s0,16.867,0,16.867-3.411,19.9-1.9,25.017.379,6.065-.379,6.633,17.247,5.686,17.247,5.686h17.057s0-5.5,1.706-6.823,1.516-29.376,1.516-29.376l5.686-10.992s-.948-4.169-4.928-4.359a18.614,18.614,0,0,1-7.533-2.279l-2.7,7.775Z" transform="translate(-379.424 -426.687)"/><path class="f" d="M348.45,496.83l-1.706-.948a24.988,24.988,0,0,1-3.79,0c-.569-.19-7.77-2.464-10.613-1.137a4.373,4.373,0,0,1-4.738-.379s9.287,7.96-2.085,10.424c0,0,.19.948,3.032,1.516s3.411,1.137,4.549,2.085a14.667,14.667,0,0,0,4.928,2.274c1.516.379,6.444,3.6,7.2,2.843a20.42,20.42,0,0,0,2.085-3.411Z" transform="translate(-298.352 -421.982)"/><path class="f" d="M610.749,528.513l3.6,2.085s4.738,14.025,3.98,17.436-1.516,2.843-.379,5.117,2.274,2.464,1.516,4.549-.379,7.2-1.516,9.287-6.633,8.718-11.371-2.464S610.749,528.513,610.749,528.513Z" transform="translate(-525.243 -449.789)"/><path class="e" d="M606.143,509.678s-2.653-5.307-3.222-5.686-3.222-13.456-3.222-13.456,4.169-6.823.379-9.855c0,0,7.012-9.855,4.738-9.666s-6.823,7.391-6.823,7.391-1.042-.284-.663-1.8,1.8-6.918.663-7.107-3.411,7.96-3.411,7.96-4.643,8.434-3.222,11.371a36.62,36.62,0,0,0,2.843,4.738l3.222,23.5S603.68,524.651,606.143,509.678Z" transform="translate(-513.804 -401.957)"/><ellipse class="g" cx="2.085" cy="0.948" rx="2.085" ry="0.948" transform="translate(19.142 50.105)"/><path class="e" d="M190.046,397.832h-2.653s-5.875-1.9-5.875-6.254,1.706-13.267,7.012-13.077.379,11.94.379,11.94l3.212,1.311.009,4Z" transform="translate(-181.517 -328.038)"/><ellipse class="d" cx="10.803" cy="5.496" rx="10.803" ry="5.496" transform="translate(55.938 45.653)"/><ellipse class="e" cx="0.948" cy="2.085" rx="0.948" ry="2.085" transform="translate(80.321 55.868)"/><ellipse class="d" cx="3.885" cy="6.444" rx="3.885" ry="6.444" transform="translate(80.525 42.907) rotate(-25.902)"/></svg>