<svg xmlns="http://www.w3.org/2000/svg" xml:space="preserve" width="100%" height="100%" version="1.1" style="shape-rendering:geometricPrecision; text-rendering:geometricPrecision; image-rendering:optimizeQuality; fill-rule:evenodd; clip-rule:evenodd" viewBox="0 0 2512.04 2512.04" xmlns:xlink="http://www.w3.org/1999/xlink">
 <defs>
  <style type="text/css">
   <![CDATA[
    .fil0 {fill:#00AFFF;fill-rule:nonzero}
   ]]>
  </style>
 </defs>
 <g>
  <g>
   <path class="fil0" d="M1256.02 0c346.83,0 660.84,140.59 888.13,367.89 227.3,227.29 367.89,541.3 367.89,888.13 0,346.83 -140.59,660.84 -367.89,888.13 -227.29,227.3 -541.31,367.89 -888.13,367.89 -346.83,0 -660.84,-140.59 -888.13,-367.89 -227.3,-227.29 -367.89,-541.3 -367.89,-888.13 0,-346.83 140.59,-660.84 367.89,-888.13 227.29,-227.3 541.3,-367.89 888.13,-367.89zm751.52 504.5c-192.32,-192.32 -458.04,-311.29 -751.52,-311.29 -293.49,0 -559.2,118.96 -751.52,311.29 -192.32,192.32 -311.29,458.03 -311.29,751.52 0,293.49 118.96,559.2 311.29,751.52 192.32,192.32 458.03,311.29 751.52,311.29 293.49,0 559.2,-118.96 751.52,-311.29 192.32,-192.32 311.29,-458.03 311.29,-751.52 0,-293.49 -118.96,-559.2 -311.29,-751.52z"/>
   <path class="fil0" d="M630.5 1374c-34.6,-40.43 -29.86,-101.26 10.57,-135.85 40.43,-34.6 101.26,-29.86 135.85,10.57l259.85 302.06 753.2 -854.15c35.22,-40.01 96.22,-43.9 136.23,-8.68 40.01,35.22 43.9,96.22 8.68,136.23l-826.45 937.2 -0.12 -0.11c-2.96,3.36 -6.19,6.55 -9.69,9.55 -40.43,34.6 -101.26,29.86 -135.85,-10.57l-332.27 -386.24z"/>
  </g>
 </g>
</svg>
