<svg xmlns="http://www.w3.org/2000/svg" xmlns:xlink="http://www.w3.org/1999/xlink" width="110" height="105" viewBox="0 0 110 105"><defs><style>.a{fill:url(#a);}.b{fill:#fafafa;}.c{fill:#e0e0e0;}.d{fill:#00afff;}.e{fill:#f5f5f5;}.f{fill:url(#b);}.g{fill:#eee;}.h{fill:url(#d);}.i{fill:#fff;}.j{fill:url(#f);}</style><linearGradient id="a" x1="0.5" y1="1" x2="0.5" gradientUnits="objectBoundingBox"><stop offset="0.01" stop-color="gray" stop-opacity="0.251"/><stop offset="0.54" stop-color="gray" stop-opacity="0.122"/><stop offset="1" stop-color="gray" stop-opacity="0.102"/></linearGradient><linearGradient id="b" x1="0.5" y1="1" x2="0.5" gradientUnits="objectBoundingBox"><stop offset="0" stop-color="#b3b3b3" stop-opacity="0.251"/><stop offset="0.54" stop-color="#b3b3b3" stop-opacity="0.102"/><stop offset="1" stop-color="#b3b3b3" stop-opacity="0.051"/></linearGradient><linearGradient id="d" y1="1" y2="0" xlink:href="#b"/><linearGradient id="f" y1="1" y2="0" xlink:href="#b"/></defs><path class="a" d="M68.551,195.876H0v-79.33L10.358,105.1H68.551Z" transform="translate(0 -90.876)"/><path class="b" d="M75.232,200.225H8.95V123.937L18.964,112.93H75.232Z" transform="translate(-7.739 -97.646)"/><rect class="c" width="32.291" height="5.447" transform="translate(7.682 24.661)"/><rect class="c" width="23.663" height="5.447" transform="translate(7.747 39.52)"/><rect class="d" width="53.078" height="19.975" transform="translate(7.747 61.809)"/><rect class="e" width="12.028" height="5.447" transform="translate(48.714 24.736)"/><rect class="e" width="12.028" height="5.447" transform="translate(48.714 33.185)"/><path class="f" d="M20,112.93v12.106H8.95v-1.058l9.987-11.048Z" transform="translate(-7.739 -97.646)"/><path class="g" d="M8.75,123.978,18.764,112.93v11.048Z" transform="translate(-7.566 -97.646)"/><path class="a" d="M223.8,139.974H155.42V60.644L165.752,49.2H223.8Z" transform="translate(-134.385 -42.541)"/><path class="b" d="M230.485,144.315H164.37V68.027l9.989-11.007h56.126Z" transform="translate(-142.124 -49.303)"/><rect class="c" width="32.291" height="5.447" transform="translate(28.655 17.12)"/><rect class="c" width="23.663" height="5.447" transform="translate(28.726 31.977)"/><rect class="d" width="53.078" height="19.975" transform="translate(28.697 54.271)"/><rect class="e" width="12.028" height="5.447" transform="translate(69.713 17.195)"/><rect class="e" width="12.028" height="5.447" transform="translate(69.713 25.642)"/><path class="h" d="M175.416,57.02V69.126H164.37V68.068l9.987-11.048Z" transform="translate(-142.162 -49.303)"/><path class="g" d="M164.17,68.068,174.184,57.02V68.068Z" transform="translate(-141.988 -49.303)"/><path class="a" d="M376.041,90.776H307.49V11.445L317.846,0h58.195Z" transform="translate(-266.041)"/><path class="i" d="M382.712,95.449H316.43V18.876L326.445,7.83h56.266Z" transform="translate(-273.771 -6.771)"/><rect class="c" width="32.291" height="5.447" transform="translate(49.192 10.518)"/><rect class="c" width="23.663" height="5.447" transform="translate(49.267 25.341)"/><rect class="d" width="53.078" height="19.975" transform="translate(49.196 47.638)"/><rect class="c" width="12.028" height="5.447" transform="translate(90.246 10.593)"/><rect class="c" width="12.028" height="5.447" transform="translate(90.246 19.005)"/><rect class="c" width="12.028" height="5.447" transform="translate(90.246 27.452)"/><path class="j" d="M327.478,7.83V19.936H316.43v-1.06L326.418,7.83Z" transform="translate(-273.676 -6.771)"/><path class="g" d="M316.23,18.876,326.245,7.83V18.876Z" transform="translate(-273.503 -6.771)"/></svg>