<svg xmlns="http://www.w3.org/2000/svg" width="248" height="167" viewBox="0 0 248 167"><defs><style>.a{fill:#3f3d56;}.b{fill:#f2f2f2;}.c{fill:#00c3ae;}.d{fill:#ccc;}.e{fill:#00afff;}.f{fill:#e6e6e6;}.g{fill:#ffb8b8;}.h{fill:#2f2e41;}.i{fill:#d0cde1;}.j{fill:rgba(255,255,255,0);stroke:rgba(0,0,0,0);}.k{fill:#fff;}.l{stroke:none;}.m{fill:none;}</style></defs><path class="a" d="M376.9,62.39h-.289v-.505h.216a.144.144,0,0,0,.144-.144v-2.6a.144.144,0,0,0-.144-.144h-.216V57.523a3.143,3.143,0,0,0-3.143-3.143h-.321v-.361a.144.144,0,0,0-.144-.144h-2.6a.144.144,0,0,0-.144.144v.361H323.327a3.143,3.143,0,0,0-3.143,3.143v66.884a3.143,3.143,0,0,0,3.143,3.143H373.47a3.143,3.143,0,0,0,3.143-3.143V65.276h.289a.144.144,0,0,0,.144-.144v-2.6a.144.144,0,0,0-.144-.144Z" transform="translate(-256.014 -53.875)"/><rect class="b" width="51.667" height="68.553" transform="translate(66.762 2.561)"/><rect class="a" width="248" height="0.429" transform="translate(0 140.35)"/><path class="c" d="M130.273,487.407c.481,16.471-9.143,22.507-21.221,22.86q-.421.012-.838.015-.84.006-1.664-.028C95.627,509.8,86.981,504,86.534,488.684c-.463-15.852,19.213-36.449,20.689-37.973h0l.085-.087S129.792,470.937,130.273,487.407Z" transform="translate(-72.094 -368.452)"/><path class="a" d="M152.29,507.78l7.672-11.409-7.656,12.637.016,1.284q-.84.007-1.664-.028l.381-16.5-.01-.127.014-.025.036-1.559-8.4-12.2,8.392,11.031.03.33.287-12.469L144.128,466.1l7.278,10.457-.076-25.832v-.086l0,.085.482,20.359,6.614-8.27-6.592,10.024.144,11.153,6.086-10.885L152,485.625l.08,6.2,8.851-15.162L152.11,493.99Z" transform="translate(-116.201 -368.461)"/><path class="a" d="M780.051,109.6h-.319v-8.753a5.066,5.066,0,0,0-5.066-5.066H756.122a5.066,5.066,0,0,0-5.066,5.066v48.017a5.066,5.066,0,0,0,5.066,5.066h18.543a5.066,5.066,0,0,0,5.066-5.066V115.83h.319Z" transform="translate(-594.897 -86.793)"/><path class="b" d="M783.773,106.935v47.947a3.783,3.783,0,0,1-3.783,3.784H761.358a3.783,3.783,0,0,1-3.782-3.783V106.935a3.783,3.783,0,0,1,3.782-3.782h2.261a1.8,1.8,0,0,0,1.664,2.476h10.623a1.8,1.8,0,0,0,1.664-2.476h2.42a3.783,3.783,0,0,1,3.783,3.782Z" transform="translate(-600.015 -92.583)"/><rect class="d" width="15.742" height="0.585" transform="translate(165.283 16.944)"/><rect class="d" width="15.742" height="0.585" transform="translate(165.283 18.797)"/><rect class="d" width="15.742" height="0.585" transform="translate(165.283 20.649)"/><rect class="d" width="3.567" height="3.567" transform="translate(160.353 17.306)"/><rect class="d" width="15.742" height="0.585" transform="translate(165.283 57.543)"/><rect class="d" width="15.742" height="0.585" transform="translate(165.283 59.363)"/><rect class="d" width="15.742" height="0.585" transform="translate(165.283 61.183)"/><rect class="d" width="3.567" height="3.567" transform="translate(160.353 57.88)"/><path class="a" d="M445.129,431.064H400.362v-.923h-20.3v.923H335.111a3.028,3.028,0,0,0-3.028,3.028v61.3a3.028,3.028,0,0,0,3.028,3.028H445.129a3.028,3.028,0,0,0,3.028-3.028v-61.3A3.028,3.028,0,0,0,445.129,431.064Z" transform="translate(-265.551 -352.362)"/><rect class="b" width="107.955" height="60.898" transform="translate(70.592 84.053)"/><circle class="e" cx="1.107" cy="1.107" r="1.107" transform="translate(123.372 81.653)"/><path class="a" d="M434.292,734.827H423.756v-.759a.15.15,0,0,0-.15-.151h-3.612a.15.15,0,0,0-.151.151v.759h-2.258v-.759a.15.15,0,0,0-.151-.151h-3.612a.15.15,0,0,0-.151.151v.759h-2.258v-.759a.15.15,0,0,0-.151-.151h-3.612a.15.15,0,0,0-.15.151v.759h-2.258v-.759a.15.15,0,0,0-.151-.151h-3.612a.15.15,0,0,0-.151.151v.759h-2.258v-.759a.15.15,0,0,0-.15-.151H395.31a.15.15,0,0,0-.151.151v.759H392.9v-.759a.15.15,0,0,0-.151-.151h-3.612a.15.15,0,0,0-.15.151v.759h-2.258v-.759a.15.15,0,0,0-.15-.151h-28.3a.15.15,0,0,0-.151.151v.759h-2.258v-.759a.15.15,0,0,0-.15-.151h-3.612a.15.15,0,0,0-.15.151v.759h-2.258v-.759a.15.15,0,0,0-.15-.151h-3.612a.15.15,0,0,0-.151.151v.759h-2.258v-.759a.15.15,0,0,0-.15-.151h-3.612a.15.15,0,0,0-.151.151v.759h-2.258v-.759a.15.15,0,0,0-.15-.151H333.6a.15.15,0,0,0-.151.151v.759h-2.258v-.759a.15.15,0,0,0-.15-.151H327.43a.15.15,0,0,0-.15.151v.759h-2.258v-.759a.15.15,0,0,0-.151-.151h-3.612a.15.15,0,0,0-.151.151v.759h-6.923a3.612,3.612,0,0,0-3.612,3.612v1.633a3.612,3.612,0,0,0,3.612,3.612H434.292a3.612,3.612,0,0,0,3.612-3.612V738.44A3.612,3.612,0,0,0,434.292,734.827Z" transform="translate(-248.665 -590.984)"/><rect class="f" width="30.294" height="1.126" transform="translate(114.112 90.157)"/><rect class="f" width="30.294" height="1.126" transform="translate(114.112 93.66)"/><rect class="f" width="30.294" height="1.126" transform="translate(114.112 97.163)"/><rect class="d" width="30.294" height="1.126" transform="translate(114.112 90.157)"/><rect class="d" width="30.294" height="1.126" transform="translate(114.112 93.66)"/><rect class="d" width="30.294" height="1.126" transform="translate(114.112 97.163)"/><rect class="d" width="6.809" height="6.809" transform="translate(104.852 90.961)"/><rect class="d" width="30.294" height="1.126" transform="translate(114.112 129.571)"/><rect class="d" width="30.294" height="1.126" transform="translate(114.112 133.073)"/><rect class="d" width="30.294" height="1.126" transform="translate(114.112 136.06)"/><rect class="d" width="6.809" height="6.809" transform="translate(104.852 130.126)"/><path class="a" d="M918.687,349.228a19.571,19.571,0,0,0-11.628-6.136l1.913-1.728-2.116-.107-2.617,2.366,2.366,2.617,2.116.107-1.585-1.753a18.158,18.158,0,0,1-2.9,36.085v1.472a19.632,19.632,0,0,0,14.448-32.923Z" transform="translate(-717.56 -289.355)"/><path class="a" d="M244.059,349.228a19.57,19.57,0,0,1,11.627-6.136l-1.912-1.728,2.116-.107,2.617,2.366-2.366,2.617-2.116.107,1.585-1.753a18.158,18.158,0,0,0,2.9,36.085v1.472a19.632,19.632,0,0,1-14.448-32.923Z" transform="translate(-197.008 -289.355)"/><rect class="d" width="30.294" height="1.126" transform="translate(82.209 5.953)"/><rect class="d" width="30.294" height="1.126" transform="translate(82.209 9.518)"/><rect class="d" width="30.294" height="1.126" transform="translate(82.209 13.082)"/><rect class="d" width="6.863" height="6.863" transform="translate(72.689 6.649)"/><rect class="d" width="30.294" height="1.126" transform="translate(82.106 58.331)"/><rect class="d" width="30.294" height="1.126" transform="translate(82.106 61.834)"/><rect class="d" width="30.294" height="1.126" transform="translate(82.106 65.337)"/><rect class="d" width="6.809" height="6.809" transform="translate(72.903 59.438)"/><path class="g" d="M963.456,324.047l6.841-9.932s5.957-4.776,4.249-5.706-6.177,3.43-6.177,3.43-12.9,9.886-10.769,11.266S963.456,324.047,963.456,324.047Z" transform="translate(-757.278 -254.749)"/><path class="e" d="M990.406,282.3h8.859a30.991,30.991,0,0,0,0-10.563h-8.859A19.006,19.006,0,0,1,990.406,282.3Z" transform="translate(-783.234 -225.869)"/><path class="h" d="M1022.556,306.031c-2.662-4.5-7.929-4.708-7.929-4.708s-5.132-.656-8.425,6.195c-3.069,6.386-7.3,12.551-.682,14.046l1.2-3.723.741,4a25.914,25.914,0,0,0,2.833.048c7.092-.229,13.846.067,13.628-2.478C1023.629,316.029,1025.117,310.36,1022.556,306.031Z" transform="translate(-792.351 -249.276)"/><path class="g" d="M1019.306,452.616l-3.41,7.844,11.936,1.876s5.627-7.673,6.139-8.185Z" transform="translate(-803.256 -368.654)"/><circle class="g" cx="6.309" cy="6.309" r="6.309" transform="translate(215.367 54.815)"/><path class="g" d="M1050.876,358.92s2.9,6.48,2.557,7.162,6.139-3.581,6.139-3.581-2.728-4.6-2.558-5.286Z" transform="translate(-830.734 -293.335)"/><path class="g" d="M1089.035,376.014s5.116-2.9,8.014,5.116c0,0,9.549,11.254,7.844,13.3s-8.185-4.945-8.185-4.945l-4.092-4.263s-5.8-1.535-5.286-4.774S1089.035,376.014,1089.035,376.014Z" transform="translate(-859.344 -307.859)"/><path class="g" d="M973.537,378.138l-11.936-3.41s-6.309-2.558-6.139-1.023,11.6,10.231,15.347,9.719S973.537,378.138,973.537,378.138Z" transform="translate(-755.782 -305.975)"/><path class="i" d="M1030.954,378.428s-3.922-.512-4.774.341-2.473.085-2.473.085l-2.728,4.945s-1.961,2.814-.426,5.542-.682,6.309-.682,6.309,12.277,0,14.835,1.364,5.64-11.382,5.64-11.382-3.168-3.879-2.315-6.266a7.718,7.718,0,0,0,.341-4.263l-3.751.341Z" transform="translate(-806.379 -307.567)"/><path class="g" d="M983.936,684.377l1.364,13.13,5.286-2.728-1.705-11.425Z" transform="translate(-774.025 -539.71)"/><path class="g" d="M1076.952,677.337l4.439,11.87,4.263-3.069-5.291-11.529Z" transform="translate(-847.091 -532.841)"/><path class="h" d="M980.4,769.824a10.652,10.652,0,0,1-1.194,2.728c-.853,1.364-2.9.682-2.9.682s-2.387-1.876-2.9-1.023-3.24,5.115-3.24,5.115-9.037,7.5-1.364,8.7,9.208-4.433,9.208-4.433,5.8-2.046,5.968-4.092S980.4,769.824,980.4,769.824Z" transform="translate(-763.84 -619.19)"/><path class="h" d="M1108.261,760.806s-2.728-.852-2.558.512,1.194,6.821,1.194,6.821-1.876,7.673,3.41,6.309,5.457-8.7,5.457-8.7,2.728-9.719.682-9.89-6.991-.682-6.991-.682S1112.524,760.124,1108.261,760.806Z" transform="translate(-873.796 -607.686)"/><path class="h" d="M1022.245,257.457l-5.2-2.726-7.186,1.115-1.487,6.566,3.7-.142,1.034-2.412v2.373l1.708-.066.991-3.841.62,4.089,6.071-.124Z" transform="translate(-793.218 -201.08)"/><path class="h" d="M989.19,483.681l-14.323-3.24s-7.162,12.277-8.185,22.508-5.627,34.785,1.705,35.126,11.6.341,11.936-.341-3.581-27.624-3.581-27.624,8.355,33.08,12.959,30.863,9.719-5.115,9.549-6.821S988,514.374,988,514.374l1.535-15.687a17.15,17.15,0,0,0-1.364-12.107Z" transform="translate(-762.74 -391.874)"/><path class="e" d="M1032.162,436.987h8.859a30.994,30.994,0,0,0,0-10.563h-8.859A19.008,19.008,0,0,1,1032.162,436.987Z" transform="translate(-816.034 -347.985)"/><path class="g" d="M1072.691,427.561l-15.005-.341s-6.65-5.115-6.821-2.046,6.991,4.774,6.991,4.774,15.4,5.525,17.759,3.1Z" transform="translate(-830.723 -346.214)"/><circle class="e" cx="5.118" cy="5.118" r="5.118" transform="translate(75.142 31.619)"/><circle class="e" cx="4.182" cy="4.182" r="4.182" transform="translate(89.661 32.544)"/><circle class="e" cx="2.545" cy="2.545" r="2.545" transform="translate(104.883 34.165)"/><circle class="e" cx="2.689" cy="2.689" r="2.689" transform="translate(161.494 34.652)"/><circle class="e" cx="2.138" cy="2.138" r="2.138" transform="translate(169.183 35.198)"/><circle class="e" cx="1.402" cy="1.402" r="1.402" transform="translate(177.058 35.926)"/><circle class="e" cx="12.011" cy="12.011" r="12.011" transform="translate(112 102)"/><g transform="translate(116 105)"><g class="j"><rect class="l" width="16.855" height="18.628"/><rect class="m" x="0.5" y="0.5" width="15.855" height="17.628"/></g><g transform="translate(3.234 3.234)"><path class="k" d="M-6.908-1.877a4.183,4.183,0,0,0-1.7-2.647,3.7,3.7,0,0,0-2.958-.585,3.913,3.913,0,0,0-2.478,1.819A4.4,4.4,0,0,0-14.6-.132a4.182,4.182,0,0,0,1.7,2.647.577.577,0,0,0,.329.1.6.6,0,0,0,.509-.295.675.675,0,0,0-.178-.9A2.891,2.891,0,0,1-13.411-.4a3.046,3.046,0,0,1,.38-2.184,2.7,2.7,0,0,1,1.714-1.258,2.556,2.556,0,0,1,2.045.4A2.893,2.893,0,0,1-8.094-1.608,3.048,3.048,0,0,1-8.472.576a.674.674,0,0,0,.178.9.583.583,0,0,0,.839-.19,4.4,4.4,0,0,0,.548-3.158M-14.757,5.2a2.892,2.892,0,0,1-1.179-1.831,3.046,3.046,0,0,1,.38-2.184.674.674,0,0,0-.178-.895.583.583,0,0,0-.838.19,4.406,4.406,0,0,0-.549,3.159,4.183,4.183,0,0,0,1.7,2.647,3.725,3.725,0,0,0,2.134.676,3.874,3.874,0,0,0,3.3-1.91A4.407,4.407,0,0,0-9.433,1.89a4.183,4.183,0,0,0-1.7-2.647.584.584,0,0,0-.839.19A.673.673,0,0,0-11.8.328a2.893,2.893,0,0,1,1.178,1.831A3.048,3.048,0,0,1-11,4.343a2.62,2.62,0,0,1-3.76.854" transform="translate(17.208 5.203)"/></g></g></svg>
