<svg xmlns="http://www.w3.org/2000/svg" xmlns:xlink="http://www.w3.org/1999/xlink" preserveAspectRatio="xMidYMid meet" width="100%" height="100%" viewBox="0 0 1024 507">
  <defs>
    <linearGradient id="linear-gradient" x1="0.5" x2="0.5" y2="1" gradientUnits="objectBoundingBox">
      <stop offset="0" stop-color="#003b80"/>
      <stop offset="1" stop-color="#0275fb"/>
    </linearGradient>
    <clipPath id="clip-path">
      <path id="Path_72" data-name="Path 72" d="M0-128.883H199.122V-328H0Z" transform="translate(0 328)" fill="#fff"/>
    </clipPath>
    <clipPath id="clip-Homescreen_banner_2">
      <rect width="1024" height="507"/>
    </clipPath>
  </defs>
  <g id="Homescreen_banner_2" data-name="Homescreen banner 2" clip-path="url(#clip-Homescreen_banner_2)">
    <rect width="1024" height="507" fill="url(#linear-gradient)"/>
    <rect id="Rectangle_2136" data-name="Rectangle 2136" width="972" height="473" rx="30" transform="translate(25 14)" fill="url(#linear-gradient)"/>
    <text id="Give_G_to_a_good_cause" data-name="Give G$ to 
a good cause" transform="translate(417 128)" fill="#fff" font-size="69" font-family="Roboto" font-weight="700"><tspan x="85.276" y="67">Give G$ to </tspan><tspan x="37.642" y="133">a good cause</tspan></text>
    <g id="Group_3740" data-name="Group 3740" transform="translate(19 4.489)">
      <rect id="Rectangle_2135" data-name="Rectangle 2135" width="411" height="81" rx="40" transform="translate(444 340)" fill="#fff"/>
      <text id="Start_giving" data-name="Start giving" transform="translate(650 398)" fill="#0075ff" font-size="50" font-family="Roboto" font-weight="700"><tspan x="-142.454" y="0">Start giving</tspan></text>
    </g>
    <g id="Group_3741" data-name="Group 3741">
      <g id="Group_3734" data-name="Group 3734" transform="translate(-217.074 -102.918)">
        <g id="Group_3720" data-name="Group 3720" transform="translate(329.535 275.749)">
          <g id="Group_152" data-name="Group 152" clip-path="url(#clip-path)">
            <g id="Group_151" data-name="Group 151" transform="translate(0 0)">
              <path id="Path_71" data-name="Path 71" d="M-128.886-64.442A99.56,99.56,0,0,0-228.449-164a99.562,99.562,0,0,0-99.559,99.559,99.562,99.562,0,0,0,99.559,99.558,99.56,99.56,0,0,0,99.563-99.558M-178.77-111.6-198.932-91.44s-.005,0-.005-.007l-5.244,5.243a32.354,32.354,0,0,0-23.027-9.538,32.6,32.6,0,0,0-32.561,32.562,32.6,32.6,0,0,0,32.561,32.565A32.619,32.619,0,0,0-195.466-55.9h-39.018l14.546-14.548h39.273a47.231,47.231,0,0,1,.564,7.272,47.163,47.163,0,0,1-47.108,47.112A46.956,46.956,0,0,1-260.5-29.877l-6.858,6.857H-287.94l18.769-18.756a46.848,46.848,0,0,1-5.147-21.405,47.163,47.163,0,0,1,47.109-47.108,46.881,46.881,0,0,1,21.421,5.129l6.444-6.443Z" transform="translate(328.008 164.001)" fill="#fff"/>
            </g>
          </g>
        </g>
        <g id="_001-hat" data-name="001-hat" transform="translate(387.848 165.516) rotate(8)">
          <path id="Path_73" data-name="Path 73" d="M0,73.625S10.707,31.784,53.54,14.255c0,0,16.872-24.338,69.439-9.412,0,0,15.577,10.385,18.173,16.221,0,0,23.037,3.9,23.037,30.5,0,0,4.542,6.816,3.247,23.687L171,111.272l-17.2,13.3-.973-6.487s-16.55-24.989-17.522-32.77c0,0-4.542-3.569-4.542,5.192l4.542,13.625L9.083,94.354Z" transform="translate(22.125 0)" fill="#e14b4b"/>
          <g id="Group_3721" data-name="Group 3721" transform="translate(89.204 6.808)">
            <path id="Path_74" data-name="Path 74" d="M16.2,47.664A237.124,237.124,0,0,0,0,0,94.523,94.523,0,0,1,12.3,10.2,219.78,219.78,0,0,1,16.2,47.664Z" transform="translate(58.758 0)" fill="#d03f3e"/>
            <path id="Path_75" data-name="Path 75" d="M0,.007A5.3,5.3,0,0,1,3.779,1.446C2.537.94,1.249.474,0,.007Z" transform="translate(27.177 11.751)" fill="#d03f3e"/>
            <path id="Path_76" data-name="Path 76" d="M68.183,65.265c-.467-.315-4.436-3-4.476,5.14-1.755-2.333-3.234-4.982-4.91-7.361-4.673-6.7-11.449-11.64-18.068-16.471C28.071,37.345,15.031,27.959,0,23.523c7.4-.388,14.6,2.261,21.492,4.943,13.631,5.3,27.683,11.41,36.681,22.9-.039-7.71-4.167-14.722-8.176-21.3Q42.11,17.1,34.223,4.128A16.208,16.208,0,0,0,30.95,0c5.843,2.222,11.489,4.943,15.886,9.307,5.843,5.8,8.761,13.822,11.331,21.65C61.874,42.255,65.226,53.737,68.183,65.265Z" transform="translate(0 13.198)" fill="#d03f3e"/>
          </g>
          <g id="Group_3722" data-name="Group 3722" transform="translate(0 72.16)">
            <path id="Path_77" data-name="Path 77" d="M.14,44.961c0-5.067-.046.749-.092-1.374-.184,5.7-.066-25.7,4.785-29.011C8.3,11.086,11.477.5,14.257,4.56c2.373-1.978,4.029.94,5.363-2.55,1.334-.7,2.346-3.845,3.424-.493,1.078-.776,2.228,2.268,3.838,1.334,1.61,2.406,3.674.933,6.6,2.925,0,2.281,1.084-2.741,2.721-.315,1.643,2.09,3.838.434,6.073-.914,2.235-2.34,4.509-3.661,6.29-1.453,1.341,1.571,3.207,1.965,5.265-.335,2.051-1.906,4.292-1.229,6.356.914,2.07,2.879,3.97,3.1,5.357,1.236,1.387,2.037,2.248-.664,2.248.618,0,.092.526,1.959,1.472-.059.946-.519,2.3,1.058,3.963-.092,1.663,2.4,3.628-.427,5.777.007,2.156-2.182,4.5-3.944,6.914.23,2.419-1.814,4.91-1.222,7.368.585a8.838,8.838,0,0,1,7.151,1.071c2.268-.519,4.39,3.207,6.244,1.676,1.86-1.814,3.451-3.411,4.666,2.419,0-1.209.572,1.669,1.6.381,1.025.644,2.5-.624,4.3,1.071,1.8-.138,3.924.822,6.257,1.65,2.327-2.5,4.857,1.656,7.466,2.129,2.609,1.334,5.3,4.548,7.933,2.491,2.642-2.57,5.232,1.255,7.657,2.747,2.425,4.647,4.68,1.052,6.638,2.9,1.959.966,3.628.322,4.87,2.938a34.9,34.9,0,0,0,1.242,3.621c.342.526.716,4.522,1.078,4.233,1.466,3.95,2.32,21.67-.125,28.65,0-.02-.289-1.223-.881,1.025-.592.408-1.485-.907-2.682,2.175-1.2,1.676-2.708.71-4.528,1.952-1.821,3.069-3.963,1.722-6.421.361a19,19,0,0,0-8.36-2.6c0-3.109-.184-.96-.539-.184-.355,1.63-.887-1.558-1.584-.513-.7-3.97-1.558.44-2.57-.789-1.019-1.084-2.189.046-3.51-1-1.321,3.253-2.787-1.308-4.39-1.157-1.6-2.34-3.352-4.193-5.225-1.262-1.873.322-3.878-3.694-6-1.3-2.123-2.136-4.371,2.156-6.73-1.288-2.36.953-4.831-1.9-7.4-1.216-2.576-.986-5.251.546-8.025-1.084-2.774.2-5.639.73-8.59-.9-2.951-.348-5.994-2.4-9.11-.651-3.115-1.288-6.31-.355-9.57-.348-3.26-1.15-6.592-.414-9.984.007-5.922-1.492-11.121-.368-15.675.085-4.555.513-8.465-.408-11.824-.447a23.036,23.036,0,0,0-8.511-.8c-2.346,2.793-4.233-1.209-5.744-1-1.512-.434-2.655-2.964-3.516-1.045-.861-.085-1.446-2.471-1.84-.94-.394-.46-.6.361-.7-.677-.105,1.347-.112,3.214-.112-.263,0,4.128-1.157.946-2.491-1.124C2.394,49.47.869,51.639.14,44.961Z" transform="translate(0 0)" fill="#dae5ef"/>
            <path id="Path_78" data-name="Path 78" d="M37.868,7.906c5.8,9.169,1.439,23.162-7.729,28.958A19.643,19.643,0,0,1,9.153,3.654C18.315-2.143,32.071-1.269,37.868,7.906Z" transform="translate(169.772 37.16)" fill="#dae5ef"/>
          </g>
          <g id="Group_3723" data-name="Group 3723" transform="translate(169.763 111.857)">
            <path id="Path_79" data-name="Path 79" d="M37.154,26.356a21.016,21.016,0,0,1-7.033,7.558A19.629,19.629,0,1,1,9.155.723,13.033,13.033,0,0,1,10.469,0a19.553,19.553,0,0,0,.789,19.586A19.525,19.525,0,0,0,37.154,26.356Z" transform="translate(0 0.388)" fill="#cbd6e0"/>
            <path id="Path_80" data-name="Path 80" d="M.138.789A1.3,1.3,0,0,0,.092,0C.059.013.033.033,0,.046Z" transform="translate(11.232 0)" fill="#cbd6e0"/>
          </g>
        </g>
      </g>
      <text id="_GoodGiveback" data-name="#GoodGiveback" transform="translate(213.461 429.489)" fill="#fff" font-size="30" font-family="Roboto" font-weight="500"><tspan x="-115.531" y="0">#GoodGiveback</tspan></text>
    </g>
  </g>
</svg>
