<svg xmlns="http://www.w3.org/2000/svg" xmlns:xlink="http://www.w3.org/1999/xlink" width="100%" height="100%" viewBox="0 0 10 84">
    <defs>
        <style>
            .a{fill:#fff;}.b{fill:none;}.c{clip-path:url(#a);}.d{fill: rgba(0, 0, 0, 0);}.e{opacity:0.7;clip-path:url(#b);}.f{clip-path:url(#c);}
        </style>
        <clipPath id="a">
            <rect width="10" height="84" class="b"/>
        </clipPath>
        <clipPath id="b">
            <path d="M5,0h5V84H5a5,5,0,0,1-5-5V5A5,5,0,0,1,5,0Z" class="a" transform="translate(106 1326)"/>
        </clipPath>
        <clipPath id="c">
            <path d="M0-515.835H230.749V-842.14H0Z" class="a" transform="translate(0 842.14)"/>
        </clipPath>
    </defs>
    <g class="c">
        <path d="M5,0h5V84H5a5,5,0,0,1-5-5V5A5,5,0,0,1,5,0Z" class="d"/>
        <g class="e" transform="translate(-106 -1326)">
            <g transform="translate(295.832 1316.406) rotate(90)">
                <g class="f" transform="translate(0 0)">
                    <g transform="translate(0 0)">
                        <path d="M-364.776-513.638v-.188l-.061.017c-.52.145-1.053.286-1.567.423l-.115.03c-1.174.312-2.389.635-3.56,1.013l-.294.094h.591l.007,0c1.086-.341,2.212-.64,3.3-.93l.082-.022c.518-.138,1.055-.28,1.579-.426Zm-.033-2.2.033-.011v-.191l-.064.022c-1.408.491-2.879.881-4.3,1.258a35.3,35.3,0,0,0-7.053,2.417l-.179.091h.4l.01-.005a35.985,35.985,0,0,1,6.87-2.328c1.419-.377,2.886-.766,4.287-1.253m.006-2.5.027-.014v-.2l-.07.035a36.148,36.148,0,0,1-6.934,2.351c-3.243.862-6.6,1.754-9.341,3.829l-.115.087h.3l.013-.009c2.7-2.009,6-2.886,9.195-3.733a36.594,36.594,0,0,0,6.927-2.345m.008-3.061.019-.015v-.229l-.078.062c-2.781,2.193-6.231,3.11-9.568,4-3.916,1.04-7.964,2.116-10.984,5.253l-.079.082h.25l.014-.015c2.98-3.056,6.978-4.118,10.845-5.146,3.335-.886,6.783-1.8,9.581-3.988m.01-4.148.009-.013v-.314l-.088.125a12.5,12.5,0,0,1-1.071,1.322c-3.025,3.258-7.152,4.355-11.144,5.416-4.016,1.067-8.169,2.169-11.23,5.467a12.885,12.885,0,0,0-1,1.217l-.055.077h.222l.014-.02a12.765,12.765,0,0,1,.95-1.151c3.024-3.258,7.152-4.355,11.146-5.416,4.016-1.067,8.169-2.17,11.229-5.467a12.827,12.827,0,0,0,1.018-1.243m-3.61-.229c2.434-2.622,3.207-5.456,3.619-8.91v-.747l-.1-.005c-.339,3.2-.9,6.574-3.655,9.539-3.046,3.281-7.2,4.385-11.222,5.453-4.044,1.074-8.226,2.185-11.308,5.5a12.387,12.387,0,0,0-1.876,2.619l-.038.071h.205l.014-.026a12.178,12.178,0,0,1,1.827-2.542c3.046-3.282,7.2-4.385,11.222-5.453,4.044-1.075,8.226-2.186,11.307-5.5m3.612-21.263.007-.012v-.335l-.089.138c-1.857,2.878-2.168,6.043-2.468,9.1-.36,3.669-.733,7.463-3.8,10.765s-7.253,4.416-11.3,5.491c-4.072,1.082-8.283,2.2-11.385,5.542a12.47,12.47,0,0,0-2.527,4.029l-.026.066h.195l.012-.031a12.278,12.278,0,0,1,2.479-3.942c3.066-3.3,7.25-4.415,11.3-5.49,4.072-1.081,8.283-2.2,11.386-5.543s3.481-7.17,3.844-10.869c.294-3,.6-6.1,2.371-8.913m-.01-4.569.017-.014v-.237l-.08.067a13.934,13.934,0,0,0-1.2,1.142c-3.126,3.367-3.5,7.219-3.869,10.943-.363,3.695-.738,7.515-3.824,10.838s-7.3,4.447-11.377,5.529c-4.1,1.089-8.34,2.216-11.464,5.581a12.723,12.723,0,0,0-3,5.447l-.017.061h.188l.01-.035a12.547,12.547,0,0,1,2.957-5.35c3.09-3.328,7.3-4.447,11.378-5.529,4.1-1.089,8.339-2.215,11.464-5.581s3.5-7.219,3.87-10.947c.363-3.694.739-7.513,3.822-10.834a13.589,13.589,0,0,1,1.128-1.081m-.008-3.4.025-.014v-.205l-.071.038a14.448,14.448,0,0,0-3.781,2.894c-3.147,3.39-3.528,7.268-3.9,11.018-.365,3.719-.743,7.566-3.849,10.912s-7.352,4.476-11.455,5.566c-4.128,1.1-8.4,2.23-11.541,5.618a13.308,13.308,0,0,0-3.353,6.873l-.012.058h.184l.008-.039a13.123,13.123,0,0,1,3.305-6.768c3.109-3.35,7.352-4.477,11.455-5.567,4.128-1.1,8.4-2.23,11.54-5.618s3.529-7.268,3.9-11.017c.365-3.721.743-7.567,3.849-10.912a14.25,14.25,0,0,1,3.695-2.836m-.006-2.834.031-.012v-.193l-.065.025a16.081,16.081,0,0,0-6.374,4.072c-3.169,3.414-3.552,7.317-3.923,11.091-.368,3.745-.748,7.617-3.876,10.986s-7.4,4.507-11.535,5.605c-4.154,1.1-8.45,2.245-11.616,5.655a14.474,14.474,0,0,0-3.61,8.306l-.007.055h.182l.006-.042a14.288,14.288,0,0,1,3.561-8.2c3.131-3.372,7.4-4.507,11.532-5.6,4.156-1.1,8.452-2.245,11.619-5.656s3.552-7.317,3.923-11.091c.368-3.745.748-7.617,3.875-10.987a15.888,15.888,0,0,1,6.276-4.014m0-2.537.035-.01v-.188l-.062.018c-3.133.921-6.389,2.157-8.978,4.946-3.19,3.437-3.576,7.366-3.948,11.165-.371,3.771-.754,7.669-3.9,11.06s-7.452,4.538-11.611,5.642c-4.183,1.111-8.508,2.26-11.7,5.694-2.865,3.085-3.45,6.507-3.8,9.747l-.006.054h.182l0-.043c.351-3.206.93-6.591,3.756-9.636,3.152-3.394,7.452-4.537,11.611-5.642,4.183-1.111,8.508-2.26,11.7-5.694s3.576-7.363,3.949-11.166c.37-3.769.752-7.668,3.9-11.06,2.556-2.753,5.775-3.977,8.873-4.888m0-2.409.036-.01v-.187l-.061.016c-4.122,1.1-8.385,2.229-11.591,5.683s-3.6,7.414-3.975,11.24c-.373,3.8-.758,7.72-3.928,11.134s-7.5,4.568-11.687,5.68c-4.211,1.119-8.567,2.276-11.774,5.732s-3.6,7.393-3.971,11.2l-.005.053h.181l0-.043c.37-3.771.754-7.67,3.923-11.083s7.5-4.568,11.689-5.68c4.211-1.118,8.564-2.274,11.774-5.732s3.6-7.415,3.975-11.241c.373-3.8.758-7.72,3.928-11.133s7.4-4.539,11.483-5.625m0-2.412.035-.01v-.188l-.062.018c-.793.227-1.592.439-2.364.644-4.239,1.126-8.622,2.29-11.852,5.77s-3.623,7.463-4,11.314c-.375,3.821-.763,7.771-3.954,11.209s-7.551,4.6-11.765,5.716c-4.239,1.126-8.622,2.29-11.852,5.77s-3.622,7.461-4,11.313l0,.012c-.043.443-.087.886-.135,1.327l-.006.054h.182l0-.043c.047-.441.091-.882.136-1.333.375-3.82.763-7.771,3.955-11.208s7.552-4.6,11.767-5.718c4.238-1.126,8.621-2.291,11.85-5.769s3.622-7.463,4-11.314c.375-3.821.763-7.771,3.954-11.208s7.551-4.6,11.766-5.718c.77-.2,1.567-.417,2.344-.639m0-2.54.032-.012v-.192l-.065.023c-1.6.573-3.283,1.021-4.922,1.456-4.266,1.133-8.678,2.3-11.929,5.807s-3.647,7.512-4.027,11.388c-.378,3.846-.769,7.823-3.98,11.283s-7.6,4.628-11.843,5.755c-4.266,1.133-8.678,2.305-11.929,5.807s-3.647,7.512-4.027,11.388c-.089.9-.18,1.825-.3,2.731l-.008.055h.182l.005-.042c.122-.887.212-1.793.3-2.67l.005-.056c.377-3.845.767-7.822,3.98-11.283s7.6-4.628,11.843-5.755c4.266-1.133,8.678-2.305,11.929-5.807s3.646-7.512,4.026-11.387c.378-3.846.769-7.824,3.981-11.283s7.6-4.629,11.843-5.755c1.627-.432,3.309-.879,4.908-1.451m.005-2.817.027-.014v-.2l-.07.035a39.352,39.352,0,0,1-7.492,2.536c-4.294,1.141-8.734,2.321-12,5.844s-3.671,7.561-4.054,11.462c-.379,3.87-.772,7.873-4.006,11.357s-7.651,4.658-11.921,5.793c-4.294,1.141-8.735,2.321-12.007,5.845s-3.671,7.562-4.054,11.465c-.134,1.359-.272,2.765-.532,4.127l-.011.058h.184l.007-.039c.258-1.364.4-2.77.53-4.13.38-3.871.773-7.875,4.006-11.357s7.652-4.659,11.922-5.793c4.294-1.141,8.734-2.32,12.007-5.845s3.67-7.561,4.053-11.462c.38-3.871.773-7.874,4.007-11.356s7.651-4.659,11.923-5.793a39.781,39.781,0,0,0,7.484-2.53m.007-3.307.02-.015v-.225l-.077.058c-2.955,2.209-6.57,3.169-10.068,4.1-4.323,1.148-8.792,2.335-12.085,5.883s-3.694,7.61-4.08,11.542c-.383,3.895-.78,7.922-4.033,11.425s-7.7,4.69-12,5.831c-4.322,1.148-8.791,2.335-12.084,5.882s-3.694,7.61-4.079,11.536a35.058,35.058,0,0,1-.846,5.538l-.016.061h.187l.009-.036a35.255,35.255,0,0,0,.845-5.548c.383-3.9.779-7.923,4.032-11.428s7.7-4.69,12-5.831c4.322-1.148,8.791-2.335,12.085-5.883s3.695-7.61,4.08-11.539c.383-3.9.779-7.923,4.033-11.428s7.7-4.689,12-5.831c3.493-.929,7.105-1.889,10.077-4.091m.009-4.185.011-.014v-.284l-.086.105c-.185.227-.381.452-.583.669-3.279,3.532-7.751,4.72-12.076,5.868-4.349,1.156-8.847,2.35-12.162,5.921s-3.718,7.659-4.105,11.611c-.386,3.922-.784,7.977-4.059,11.5s-7.752,4.72-12.076,5.868c-4.35,1.156-8.848,2.35-12.163,5.921s-3.717,7.657-4.106,11.61a28.244,28.244,0,0,1-1.281,6.954l-.024.065h.193l.011-.032a28.467,28.467,0,0,0,1.281-6.972c.385-3.92.784-7.975,4.059-11.5s7.749-4.72,12.077-5.869c4.35-1.155,8.848-2.35,12.162-5.92s3.717-7.656,4.106-11.61c.385-3.922.783-7.976,4.058-11.506s7.751-4.719,12.076-5.868c4.349-1.156,8.848-2.35,12.162-5.921.18-.195.357-.4.526-.6m.009-6.548,0-.644-.095.325a13.518,13.518,0,0,1-3.109,5.541c-3.3,3.555-7.8,4.75-12.154,5.906-4.378,1.163-8.9,2.365-12.241,5.959s-3.741,7.707-4.132,11.684c-.388,3.947-.789,8.029-4.084,11.579s-7.8,4.75-12.155,5.906c-4.378,1.163-8.9,2.365-12.24,5.959s-3.741,7.707-4.132,11.684a23.78,23.78,0,0,1-1.876,8.379l-.034.07h.2l.013-.027a24.023,24.023,0,0,0,1.875-8.4c.388-3.947.789-8.029,4.085-11.579s7.8-4.75,12.154-5.907c4.378-1.163,8.9-2.365,12.24-5.958s3.742-7.707,4.132-11.684c.388-3.947.788-8.029,4.085-11.579s7.8-4.75,12.154-5.907c4.378-1.163,8.9-2.366,12.24-5.958a13.606,13.606,0,0,0,3.07-5.345m0-15.693,0-.483-.093.224a26.415,26.415,0,0,0-1.548,7.708c-.391,3.972-.794,8.079-4.112,11.654s-7.851,4.781-12.232,5.945c-4.405,1.17-8.961,2.38-12.317,6s-3.765,7.754-4.159,11.759c-.39,3.972-.793,8.08-4.111,11.653s-7.851,4.781-12.232,5.945c-4.405,1.17-8.961,2.38-12.318,6s-3.765,7.756-4.158,11.758c-.325,3.3-.66,6.721-2.671,9.813l-.049.075h.216l.014-.022c2.007-3.113,2.343-6.537,2.669-9.848.39-3.972.793-8.078,4.111-11.653s7.849-4.78,12.231-5.944c4.405-1.17,8.961-2.379,12.318-6s3.765-7.756,4.157-11.759c.39-3.971.792-8.078,4.111-11.653s7.851-4.781,12.231-5.944c4.406-1.17,8.961-2.38,12.318-6s3.765-7.756,4.159-11.766a26.954,26.954,0,0,1,1.458-7.459m-.009-5.991.012-.014v-.267l-.084.092c-3.3,3.616-3.7,7.742-4.093,11.733s-.8,8.13-4.136,11.727-7.9,4.81-12.31,5.982c-4.434,1.178-9.018,2.4-12.4,6.034s-3.789,7.8-4.185,11.832c-.393,4-.8,8.131-4.137,11.727s-7.9,4.811-12.31,5.983c-4.433,1.177-9.017,2.395-12.395,6.033s-3.789,7.806-4.185,11.833c-.375,3.823-.763,7.777-3.72,11.257l-.068.08h.237l.014-.017c2.95-3.507,3.339-7.469,3.715-11.3.393-4,.8-8.13,4.137-11.728s7.9-4.81,12.309-5.982c4.434-1.177,9.018-2.4,12.4-6.034s3.788-7.805,4.184-11.836c.393-4,.8-8.129,4.137-11.724s7.9-4.811,12.31-5.982c4.433-1.178,9.018-2.4,12.4-6.034s3.789-7.8,4.184-11.831c.386-3.936.785-8.006,3.986-11.562m-.008-4.2.021-.015v-.22l-.076.053a14.929,14.929,0,0,0-2.441,2.116c-3.4,3.664-3.812,7.854-4.209,11.907-.4,4.023-.8,8.182-4.163,11.8s-7.952,4.841-12.387,6.02c-4.461,1.185-9.074,2.411-12.473,6.072s-3.814,7.856-4.21,11.907c-.4,4.022-.8,8.181-4.164,11.8s-7.951,4.841-12.389,6.02c-4.461,1.185-9.074,2.411-12.472,6.071s-3.812,7.855-4.209,11.907c-.4,4.022-.8,8.182-4.163,11.8-.29.313-.6.62-.923.911l-.093.084h.269l.014-.012c.3-.273.591-.562.867-.859,3.4-3.662,3.811-7.851,4.21-11.906.4-4.023.8-8.183,4.163-11.8s7.95-4.841,12.387-6.019c4.461-1.185,9.074-2.41,12.474-6.072s3.812-7.854,4.209-11.906c.4-4.023.8-8.182,4.163-11.8s7.951-4.841,12.388-6.02c4.461-1.185,9.074-2.411,12.473-6.072s3.812-7.854,4.21-11.907c.4-4.023.8-8.182,4.163-11.8a14.718,14.718,0,0,1,2.364-2.057m-.007-3.466.027-.013v-.2l-.069.033a16.179,16.179,0,0,0-4.985,3.591c-3.422,3.687-3.836,7.9-4.236,11.981-.4,4.047-.808,8.232-4.19,11.875s-8,4.872-12.465,6.058c-4.489,1.192-9.13,2.425-12.551,6.109s-3.837,7.9-4.237,11.981c-.4,4.048-.808,8.233-4.189,11.876s-8,4.872-12.465,6.058c-4.489,1.193-9.131,2.426-12.551,6.11s-3.836,7.9-4.236,11.98c-.4,4.048-.808,8.233-4.189,11.875a14.97,14.97,0,0,1-2.716,2.3l-.134.089h.326l.012-.008a15.059,15.059,0,0,0,2.643-2.258c3.423-3.687,3.837-7.9,4.237-11.981.4-4.048.808-8.234,4.189-11.875s8-4.872,12.467-6.059c4.488-1.193,9.13-2.426,12.548-6.109s3.837-7.9,4.237-11.98c.4-4.048.809-8.233,4.19-11.876s8-4.871,12.467-6.058c4.488-1.192,9.13-2.425,12.549-6.108s3.836-7.9,4.237-11.981c.4-4.048.808-8.234,4.189-11.876a15.982,15.982,0,0,1,4.895-3.533m0-3.059.032-.012v-.191l-.065.023a18.049,18.049,0,0,0-7.541,4.65c-3.442,3.707-3.859,7.948-4.263,12.053-.4,4.073-.812,8.284-4.216,11.95s-8.049,4.9-12.542,6.1c-4.516,1.2-9.186,2.44-12.628,6.147s-3.859,7.952-4.263,12.055c-.4,4.073-.813,8.284-4.215,11.949s-8.05,4.9-12.543,6.095c-4.517,1.2-9.187,2.441-12.628,6.148s-3.86,7.952-4.263,12.054c-.4,4.073-.814,8.285-4.216,11.949a16.306,16.306,0,0,1-5.234,3.7l-.2.092h.429l.01,0a16.336,16.336,0,0,0,5.127-3.667c3.443-3.709,3.86-7.951,4.263-12.054.4-4.073.813-8.284,4.216-11.949s8.05-4.9,12.544-6.1c4.516-1.2,9.187-2.441,12.627-6.147s3.86-7.952,4.263-12.054c.4-4.073.813-8.285,4.216-11.95s8.049-4.9,12.542-6.095c4.517-1.2,9.188-2.441,12.629-6.148s3.86-7.949,4.263-12.054c.4-4.073.813-8.284,4.215-11.949a17.847,17.847,0,0,1,7.441-4.592m0-2.837.035-.01v-.188l-.062.018c-3.56,1.022-7.248,2.393-10.109,5.476-3.464,3.732-3.883,8-4.289,12.129-.4,4.1-.819,8.336-4.241,12.022s-8.1,4.933-12.621,6.134c-4.544,1.207-9.243,2.455-12.706,6.185s-3.884,8-4.289,12.129c-.4,4.1-.819,8.336-4.242,12.023s-8.1,4.932-12.62,6.133c-4.544,1.207-9.243,2.455-12.706,6.185s-3.883,8-4.289,12.129c-.4,4.1-.819,8.335-4.242,12.023a19.557,19.557,0,0,1-8.977,5.113l-.306.094h.608l.007,0a19.663,19.663,0,0,0,8.8-5.083c3.464-3.731,3.883-8,4.289-12.129.4-4.1.819-8.336,4.243-12.024s8.1-4.933,12.62-6.133c4.545-1.207,9.244-2.456,12.706-6.185s3.884-8,4.289-12.129c.4-4.1.818-8.336,4.242-12.023s8.1-4.933,12.621-6.134c4.544-1.207,9.243-2.457,12.7-6.185s3.884-8,4.289-12.129c.4-4.1.819-8.336,4.242-12.022,2.829-3.047,6.479-4.405,10-5.419m0-2.742.036-.01v-.187l-.061.016c-4.526,1.2-9.207,2.446-12.69,6.2s-3.907,8.049-4.315,12.206c-.406,4.122-.825,8.385-4.268,12.095s-8.15,4.963-12.7,6.17c-4.573,1.215-9.3,2.471-12.784,6.223s-3.907,8.047-4.316,12.2c-.4,4.124-.823,8.388-4.268,12.1s-8.15,4.963-12.7,6.171c-4.572,1.215-9.3,2.47-12.784,6.223s-3.907,8.049-4.315,12.207c-.406,4.122-.825,8.385-4.267,12.094s-8.151,4.963-12.7,6.17c-.457.122-.914.243-1.37.367l-.35.1h.69l.006,0,1.072-.286c4.572-1.214,9.3-2.47,12.782-6.222s3.907-8.049,4.315-12.2c.4-4.123.823-8.387,4.269-12.1s8.149-4.963,12.7-6.171c4.572-1.214,9.3-2.47,12.784-6.223s3.907-8.049,4.315-12.2c.4-4.123.823-8.387,4.269-12.1s8.15-4.963,12.7-6.171c4.572-1.214,9.3-2.47,12.783-6.222s3.907-8.05,4.315-12.2c.4-4.123.823-8.387,4.269-12.1s8.09-4.947,12.582-6.14m0-2.752.035-.01v-.187l-.062.017c-.766.217-1.55.426-2.309.628l-.114.03c-4.6,1.222-9.357,2.485-12.861,6.261s-3.932,8.1-4.342,12.277c-.408,4.149-.829,8.439-4.294,12.172s-8.2,4.993-12.775,6.208c-4.6,1.222-9.357,2.485-12.862,6.26s-3.931,8.1-4.342,12.277c-.407,4.149-.828,8.438-4.294,12.172s-8.2,4.993-12.775,6.209c-4.6,1.222-9.357,2.485-12.862,6.26s-3.931,8.1-4.341,12.277c-.408,4.149-.829,8.439-4.294,12.171s-8.2,4.994-12.782,6.211a59.95,59.95,0,0,0-5.832,1.764l-.248.094h.513l.008,0c1.817-.673,3.746-1.186,5.611-1.682,4.6-1.222,9.358-2.486,12.863-6.261s3.931-8.1,4.341-12.278c.408-4.149.829-8.438,4.294-12.17s8.2-4.993,12.778-6.209c4.6-1.222,9.356-2.486,12.861-6.26s3.931-8.1,4.34-12.277c.407-4.149.828-8.439,4.294-12.172s8.2-4.993,12.776-6.208c4.6-1.222,9.355-2.484,12.862-6.261s3.931-8.1,4.341-12.277c.407-4.148.828-8.438,4.294-12.172s8.2-4.993,12.776-6.209l.03-.008c.779-.207,1.585-.421,2.372-.644m0-2.864.033-.011v-.191l-.064.022c-1.611.556-3.305,1.006-4.95,1.443-4.629,1.23-9.414,2.5-12.94,6.3s-3.955,8.147-4.367,12.351c-.41,4.174-.834,8.49-4.32,12.245s-8.251,5.024-12.854,6.247c-4.628,1.229-9.413,2.5-12.939,6.3s-3.954,8.147-4.367,12.351c-.41,4.175-.834,8.491-4.321,12.246s-8.25,5.024-12.854,6.246c-4.628,1.229-9.413,2.5-12.939,6.3s-3.954,8.147-4.367,12.351c-.41,4.174-.834,8.491-4.321,12.246s-8.25,5.024-12.853,6.246a38.353,38.353,0,0,0-8.923,3.176l-.162.091h.372l.011-.006a38.846,38.846,0,0,1,8.75-3.087c4.628-1.229,9.413-2.5,12.937-6.3s3.955-8.147,4.368-12.351c.41-4.173.832-8.489,4.32-12.246s8.25-5.024,12.854-6.246c4.628-1.229,9.414-2.5,12.939-6.3s3.955-8.147,4.368-12.352c.41-4.173.834-8.49,4.32-12.245s8.249-5.024,12.853-6.246c4.628-1.229,9.414-2.5,12.94-6.3s3.955-8.148,4.367-12.351c.41-4.174.834-8.49,4.321-12.246s8.25-5.024,12.86-6.248c1.632-.434,3.32-.882,4.929-1.436m0-3.1.028-.013v-.2l-.069.032a46.62,46.62,0,0,1-7.493,2.448c-4.655,1.237-9.47,2.517-13.017,6.337s-3.979,8.2-4.394,12.425c-.413,4.2-.839,8.541-4.347,12.32s-8.3,5.054-12.931,6.285c-4.656,1.237-9.469,2.516-13.016,6.336s-3.978,8.2-4.394,12.425c-.412,4.2-.838,8.541-4.346,12.32s-8.3,5.054-12.931,6.284c-4.656,1.237-9.471,2.517-13.016,6.336s-3.979,8.2-4.394,12.425c-.412,4.2-.839,8.542-4.347,12.32s-8.3,5.055-12.931,6.284c-3.864,1.026-7.859,2.088-11.112,4.6l-.112.087h.3l.013-.01c3.21-2.442,7.15-3.488,10.962-4.5,4.656-1.237,9.47-2.516,13.017-6.336s3.979-8.2,4.394-12.425c.412-4.2.838-8.541,4.347-12.32s8.3-5.055,12.935-6.285c4.654-1.237,9.467-2.516,13.012-6.335s3.979-8.2,4.394-12.425c.413-4.2.838-8.541,4.347-12.319s8.3-5.055,12.931-6.285c4.656-1.237,9.47-2.516,13.017-6.336s3.977-8.193,4.394-12.425c.412-4.2.838-8.542,4.347-12.32s8.3-5.054,12.931-6.284A47.079,47.079,0,0,0-364.8-631.3m.007-3.488.022-.014v-.216l-.075.049c-3.025,1.973-6.6,2.921-10.048,3.838-4.684,1.244-9.527,2.531-13.1,6.375s-4,8.242-4.42,12.5c-.415,4.224-.843,8.592-4.372,12.394s-8.35,5.084-13.009,6.322c-4.683,1.244-9.526,2.531-13.093,6.373s-4,8.246-4.421,12.5c-.415,4.223-.844,8.591-4.372,12.391s-8.35,5.085-13.009,6.322c-4.684,1.244-9.527,2.531-13.1,6.374s-4,8.245-4.419,12.5c-.415,4.225-.845,8.593-4.372,12.394s-8.35,5.085-13.01,6.323c-4.541,1.206-9.237,2.454-12.767,6.032l-.081.083h.254l.014-.014c3.489-3.5,8.134-4.732,12.627-5.925,4.684-1.245,9.528-2.531,13.095-6.374s4-8.245,4.419-12.5c.415-4.225.844-8.593,4.373-12.394s8.35-5.084,13.009-6.322c4.684-1.244,9.527-2.53,13.1-6.374s4-8.243,4.419-12.5c.415-4.224.843-8.593,4.372-12.394s8.35-5.084,13.008-6.321c4.684-1.244,9.527-2.531,13.1-6.374s4-8.245,4.419-12.5c.415-4.223.845-8.59,4.373-12.391s8.35-5.085,13.009-6.322c3.451-.917,7.019-1.864,10.054-3.831m.007-4.144.015-.015v-.254l-.083.081c-3.5,3.453-8.133,4.685-12.616,5.876-4.711,1.252-9.583,2.545-13.173,6.412s-4.026,8.294-4.446,12.573c-.418,4.25-.849,8.644-4.4,12.468s-8.4,5.115-13.088,6.36c-4.711,1.252-9.582,2.546-13.171,6.411s-4.025,8.293-4.446,12.573c-.417,4.249-.847,8.643-4.4,12.468s-8.4,5.115-13.088,6.36c-4.711,1.252-9.583,2.546-13.171,6.412s-4.026,8.293-4.447,12.577c-.418,4.249-.85,8.642-4.4,12.465s-8.4,5.115-13.088,6.36c-4.71,1.252-9.582,2.546-13.171,6.412-.317.341-.62.7-.9,1.064l-.06.078h.227l.015-.019c.265-.341.551-.677.851-1,3.553-3.828,8.4-5.115,13.087-6.36,4.711-1.252,9.583-2.546,13.172-6.412s4.026-8.293,4.446-12.573c.418-4.25.849-8.645,4.4-12.468s8.4-5.115,13.086-6.36c4.712-1.252,9.584-2.546,13.172-6.412s4.025-8.291,4.445-12.573c.418-4.25.849-8.644,4.4-12.468s8.4-5.115,13.086-6.36c4.711-1.252,9.583-2.545,13.172-6.411s4.026-8.295,4.446-12.574c.417-4.249.849-8.643,4.4-12.468s8.4-5.115,13.087-6.36c4.48-1.19,9.114-2.421,12.637-5.864m.008-5.4.007-.011v-.368l-.091.162a14.338,14.338,0,0,1-2.036,2.786c-3.574,3.849-8.449,5.144-13.164,6.4-4.739,1.259-9.639,2.561-13.25,6.449s-4.049,8.34-4.472,12.647c-.42,4.275-.854,8.7-4.425,12.542s-8.45,5.146-13.167,6.4c-4.739,1.259-9.639,2.561-13.248,6.449s-4.049,8.343-4.472,12.647c-.42,4.275-.854,8.7-4.424,12.542s-8.45,5.146-13.166,6.4c-4.739,1.259-9.638,2.561-13.248,6.449s-4.049,8.343-4.472,12.647c-.42,4.275-.854,8.695-4.424,12.542s-8.45,5.146-13.165,6.4c-4.739,1.259-9.64,2.561-13.25,6.449a14.769,14.769,0,0,0-1.866,2.482l-.044.074h.21l.014-.024a14.614,14.614,0,0,1,1.818-2.409c3.574-3.85,8.449-5.145,13.165-6.4,4.74-1.259,9.64-2.562,13.249-6.45s4.049-8.342,4.472-12.647c.42-4.275.854-8.7,4.425-12.542s8.449-5.145,13.167-6.4c4.738-1.259,9.639-2.562,13.247-6.449s4.049-8.341,4.473-12.647c.419-4.274.853-8.694,4.425-12.542s8.448-5.145,13.164-6.4c4.74-1.259,9.64-2.561,13.25-6.45s4.049-8.342,4.472-12.647c.42-4.275.854-8.7,4.425-12.542s8.448-5.145,13.164-6.4c4.739-1.259,9.639-2.561,13.25-6.449a14.706,14.706,0,0,0,1.988-2.691m-.019-12.2.025-.263v-.836l-.1-.005q-.055.53-.106,1.061l0,.026c-.423,4.3-.86,8.747-4.451,12.616s-8.5,5.176-13.241,6.436c-4.767,1.266-9.7,2.576-13.328,6.487s-4.073,8.391-4.5,12.723c-.423,4.3-.859,8.746-4.451,12.614s-8.5,5.176-13.245,6.437c-4.766,1.267-9.695,2.576-13.325,6.487s-4.073,8.391-4.5,12.721c-.423,4.3-.86,8.747-4.452,12.617s-8.5,5.175-13.243,6.436c-4.767,1.267-9.7,2.576-13.326,6.487s-4.073,8.39-4.5,12.721c-.422,4.3-.858,8.746-4.451,12.616s-8.5,5.176-13.243,6.436c-4.767,1.267-9.7,2.576-13.327,6.487a14.544,14.544,0,0,0-2.617,3.911l-.031.069h.2l.013-.028a14.351,14.351,0,0,1,2.57-3.828c3.6-3.873,8.5-5.176,13.243-6.436,4.766-1.266,9.695-2.576,13.326-6.487s4.073-8.391,4.5-12.725c.423-4.3.859-8.744,4.45-12.613s8.5-5.176,13.243-6.435c4.767-1.266,9.7-2.576,13.327-6.487s4.073-8.392,4.5-12.722c.423-4.3.859-8.746,4.452-12.616s8.5-5.175,13.241-6.436c4.767-1.267,9.7-2.576,13.328-6.488s4.073-8.391,4.5-12.721c.423-4.3.859-8.746,4.451-12.616s8.5-5.176,13.243-6.436c4.767-1.267,9.7-2.576,13.326-6.487s4.073-8.391,4.5-12.721m.019-12.339.007-.011v-.354l-.09.151c-1.944,3.264-2.295,6.828-2.634,10.28-.424,4.325-.863,8.8-4.477,12.689s-8.548,5.206-13.319,6.474c-4.795,1.274-9.753,2.591-13.405,6.525s-4.1,8.441-4.525,12.8c-.425,4.325-.864,8.8-4.478,12.69s-8.55,5.206-13.32,6.473c-4.795,1.274-9.753,2.591-13.405,6.525s-4.1,8.441-4.524,12.8c-.425,4.325-.864,8.8-4.478,12.69s-8.549,5.206-13.319,6.473c-4.795,1.274-9.753,2.591-13.405,6.525s-4.1,8.44-4.525,12.8c-.425,4.325-.864,8.8-4.478,12.69s-8.548,5.206-13.319,6.474c-4.8,1.274-9.753,2.591-13.405,6.525a14.773,14.773,0,0,0-3.2,5.35l-.022.064h.191l.011-.033a14.583,14.583,0,0,1,3.148-5.259c3.618-3.9,8.55-5.206,13.32-6.473,4.8-1.274,9.753-2.591,13.406-6.525s4.1-8.44,4.524-12.8c.425-4.325.864-8.8,4.478-12.69s8.55-5.206,13.32-6.474c4.795-1.273,9.752-2.59,13.405-6.525s4.1-8.44,4.524-12.795c.425-4.326.864-8.8,4.478-12.691s8.549-5.206,13.319-6.473c4.8-1.274,9.753-2.591,13.405-6.525s4.1-8.439,4.525-12.8c.424-4.325.862-8.8,4.476-12.69s8.55-5.207,13.32-6.473c4.795-1.274,9.753-2.591,13.405-6.526s4.1-8.439,4.525-12.8c.332-3.384.675-6.883,2.538-10.083m-.008-5.522.015-.014v-.25l-.082.079c-.218.21-.429.424-.625.637-3.676,3.96-4.121,8.49-4.551,12.87-.427,4.351-.869,8.849-4.5,12.764s-8.6,5.237-13.4,6.511c-4.822,1.281-9.808,2.605-13.482,6.563s-4.121,8.489-4.551,12.87c-.427,4.351-.869,8.849-4.5,12.764s-8.6,5.237-13.4,6.511c-4.822,1.281-9.809,2.606-13.482,6.563s-4.121,8.488-4.551,12.869c-.427,4.35-.869,8.849-4.5,12.764s-8.6,5.236-13.4,6.511c-4.822,1.281-9.809,2.6-13.483,6.562s-4.12,8.489-4.55,12.873c-.428,4.35-.87,8.847-4.5,12.761s-8.6,5.237-13.4,6.511c-4.823,1.281-9.81,2.606-13.483,6.563a15.105,15.105,0,0,0-3.638,6.8l-.016.06h.186l.01-.036a14.928,14.928,0,0,1,3.591-6.7c3.638-3.919,8.6-5.236,13.4-6.511,4.822-1.281,9.809-2.605,13.483-6.563s4.12-8.489,4.55-12.873c.428-4.349.87-8.848,4.5-12.761s8.6-5.236,13.4-6.511c4.823-1.281,9.809-2.6,13.484-6.563s4.121-8.489,4.551-12.87c.427-4.351.869-8.849,4.5-12.765s8.6-5.235,13.4-6.51c4.823-1.281,9.81-2.606,13.483-6.563s4.121-8.489,4.551-12.869c.427-4.351.869-8.849,4.5-12.765s8.6-5.236,13.4-6.511c4.822-1.281,9.81-2.606,13.483-6.563s4.121-8.489,4.551-12.869c.427-4.351.869-8.849,4.5-12.765.178-.191.367-.385.561-.574m-.007-4.359.022-.014v-.215l-.075.048a16.414,16.414,0,0,0-3.158,2.639c-3.7,3.982-4.144,8.538-4.576,12.943-.43,4.376-.875,8.9-4.53,12.838s-8.649,5.268-13.475,6.549c-4.851,1.288-9.866,2.621-13.561,6.6s-4.144,8.537-4.577,12.944c-.429,4.376-.873,8.9-4.53,12.838s-8.65,5.268-13.475,6.549c-4.85,1.289-9.866,2.621-13.56,6.6s-4.145,8.538-4.577,12.947c-.43,4.375-.875,8.9-4.529,12.835s-8.65,5.268-13.476,6.549c-4.85,1.289-9.865,2.62-13.56,6.6s-4.144,8.538-4.577,12.944c-.43,4.376-.875,8.9-4.53,12.839s-8.649,5.267-13.475,6.549c-4.85,1.289-9.866,2.622-13.56,6.6a15.74,15.74,0,0,0-3.975,8.26l-.011.058h.184l.007-.039a15.576,15.576,0,0,1,3.927-8.156c3.66-3.941,8.649-5.267,13.475-6.548,4.85-1.289,9.866-2.622,13.561-6.6s4.144-8.538,4.577-12.943c.43-4.376.874-8.9,4.53-12.839s8.649-5.267,13.475-6.549c4.85-1.289,9.865-2.621,13.56-6.6s4.144-8.538,4.576-12.943c.43-4.376.875-8.9,4.53-12.839s8.65-5.266,13.476-6.548c4.85-1.289,9.865-2.621,13.56-6.6s4.144-8.536,4.577-12.944c.43-4.375.873-8.9,4.53-12.838s8.647-5.266,13.475-6.549c4.851-1.289,9.867-2.621,13.561-6.6s4.144-8.538,4.576-12.944c.43-4.376.875-8.9,4.529-12.837a16.187,16.187,0,0,1,3.079-2.581m-.006-3.763.028-.013v-.2l-.069.032a17.749,17.749,0,0,0-5.7,4.037c-3.718,4-4.168,8.586-4.6,13.018-.432,4.4-.878,8.951-4.556,12.912s-8.7,5.3-13.553,6.587c-4.878,1.3-9.922,2.636-13.638,6.639s-4.168,8.587-4.6,13.018c-.432,4.4-.878,8.95-4.555,12.912s-8.7,5.3-13.553,6.587c-4.878,1.3-9.922,2.636-13.638,6.638s-4.168,8.587-4.6,13.018c-.432,4.4-.878,8.951-4.556,12.912s-8.7,5.3-13.553,6.587c-4.878,1.3-9.923,2.636-13.639,6.638s-4.167,8.587-4.6,13.017c-.432,4.4-.878,8.953-4.556,12.913s-8.7,5.3-13.554,6.587c-4.878,1.3-9.922,2.637-13.636,6.638a16.964,16.964,0,0,0-4.232,9.732l-.008.055h.182l.006-.042a16.788,16.788,0,0,1,4.184-9.623c3.68-3.964,8.7-5.3,13.552-6.586,4.878-1.3,9.923-2.636,13.639-6.638s4.168-8.587,4.6-13.018c.432-4.4.88-8.953,4.556-12.912s8.7-5.3,13.553-6.587c4.878-1.3,9.923-2.636,13.639-6.639s4.167-8.584,4.6-13.018c.432-4.4.879-8.952,4.556-12.912s8.7-5.3,13.552-6.586c4.878-1.3,9.922-2.636,13.639-6.639s4.167-8.587,4.6-13.017c.432-4.4.879-8.953,4.556-12.913s8.7-5.3,13.552-6.586c4.878-1.3,9.922-2.635,13.639-6.639s4.167-8.584,4.6-13.017c.432-4.4.879-8.953,4.556-12.912a17.562,17.562,0,0,1,5.613-3.98m0-3.415.032-.012v-.191l-.064.022a19.674,19.674,0,0,0-8.266,5.076c-3.738,4.027-4.191,8.634-4.63,13.092-.435,4.426-.884,9-4.581,12.986s-8.749,5.328-13.63,6.625c-4.906,1.3-9.979,2.651-13.716,6.676s-4.192,8.636-4.63,13.092c-.435,4.426-.884,9-4.582,12.986s-8.749,5.328-13.63,6.624c-4.906,1.3-9.979,2.651-13.716,6.677s-4.192,8.635-4.629,13.091c-.435,4.426-.884,9-4.582,12.986s-8.75,5.329-13.63,6.625c-4.907,1.3-9.979,2.651-13.716,6.677s-4.192,8.636-4.63,13.091c-.434,4.426-.884,9-4.582,12.987s-8.747,5.327-13.631,6.625c-4.905,1.3-9.979,2.651-13.715,6.676-3.333,3.591-4.037,7.672-4.435,11.214l-.006.054h.182l0-.043c.4-3.51,1.093-7.553,4.388-11.1,3.7-3.987,8.749-5.328,13.63-6.624,4.906-1.3,9.979-2.651,13.716-6.677s4.192-8.635,4.63-13.092c.435-4.427.885-9,4.583-12.987s8.748-5.327,13.63-6.624c4.906-1.3,9.979-2.651,13.716-6.677s4.192-8.636,4.629-13.091c.435-4.427.884-9,4.582-12.987s8.749-5.328,13.63-6.624c4.906-1.3,9.979-2.651,13.716-6.677s4.191-8.635,4.629-13.091c.435-4.427.884-9,4.582-12.987s8.748-5.327,13.63-6.624c4.907-1.3,9.98-2.652,13.716-6.677s4.191-8.635,4.629-13.091c.435-4.426.884-9,4.583-12.988a19.476,19.476,0,0,1,8.166-5.019m0-3.218.035-.01v-.188l-.062.018c-3.805,1.1-7.753,2.579-10.842,5.906-3.76,4.049-4.215,8.682-4.655,13.166-.437,4.451-.888,9.053-4.608,13.06s-8.8,5.359-13.709,6.663c-4.933,1.31-10.034,2.665-13.793,6.713s-4.216,8.686-4.655,13.167c-.437,4.451-.888,9.054-4.607,13.06s-8.8,5.359-13.709,6.662c-4.934,1.311-10.035,2.666-13.794,6.713s-4.216,8.685-4.655,13.166c-.437,4.451-.888,9.054-4.608,13.061s-8.8,5.358-13.708,6.662c-4.934,1.311-10.036,2.667-13.794,6.714s-4.215,8.685-4.655,13.166c-.437,4.452-.89,9.055-4.609,13.061s-8.8,5.358-13.708,6.662c-4.934,1.311-10.036,2.666-13.793,6.714s-4.209,8.645-4.611,12.707l-.005.053h.181l0-.043c.4-4.03.852-8.6,4.563-12.594s8.8-5.358,13.708-6.663c4.934-1.31,10.036-2.666,13.793-6.713s4.216-8.685,4.655-13.166c.437-4.452.889-9.055,4.608-13.06s8.8-5.358,13.709-6.663c4.933-1.31,10.035-2.665,13.793-6.714s4.215-8.685,4.655-13.166c.437-4.452.888-9.054,4.609-13.061s8.8-5.358,13.707-6.662c4.934-1.311,10.037-2.666,13.8-6.714s4.214-8.682,4.655-13.166c.437-4.452.888-9.054,4.609-13.061s8.8-5.358,13.707-6.662c4.934-1.31,10.035-2.665,13.794-6.714s4.216-8.685,4.655-13.165c.437-4.452.888-9.055,4.607-13.061,3.055-3.291,6.966-4.756,10.738-5.849m0-3.128.036-.01v-.187l-.061.016c-4.528,1.205-9.66,2.571-13.434,6.635s-4.239,8.733-4.682,13.24c-.44,4.477-.895,9.107-4.634,13.135s-8.849,5.389-13.788,6.7c-4.961,1.318-10.091,2.681-13.87,6.751s-4.238,8.733-4.681,13.24c-.44,4.477-.895,9.106-4.634,13.135s-8.849,5.389-13.787,6.7c-4.962,1.318-10.092,2.681-13.871,6.752s-4.239,8.733-4.681,13.24c-.44,4.477-.895,9.107-4.635,13.135s-8.849,5.389-13.787,6.7c-4.961,1.319-10.091,2.681-13.869,6.752s-4.239,8.733-4.682,13.24c-.439,4.477-.894,9.106-4.634,13.135s-8.849,5.389-13.786,6.7c-4.962,1.318-10.092,2.681-13.871,6.752s-4.239,8.733-4.682,13.24q-.048.486-.1.972l-.005.053h.181l0-.043q.049-.482.1-.964c.44-4.477.894-9.106,4.635-13.135s8.848-5.388,13.785-6.7c4.961-1.319,10.092-2.681,13.871-6.752s4.239-8.733,4.682-13.24c.439-4.477.894-9.106,4.634-13.135s8.849-5.389,13.786-6.7c4.962-1.319,10.092-2.681,13.871-6.752s4.239-8.734,4.681-13.24c.44-4.477.895-9.106,4.634-13.134s8.849-5.389,13.786-6.7c4.962-1.318,10.093-2.68,13.872-6.752s4.238-8.733,4.681-13.24c.44-4.477.894-9.106,4.634-13.134s8.849-5.389,13.788-6.7c4.961-1.318,10.091-2.681,13.869-6.751s4.239-8.733,4.682-13.241c.44-4.477.894-9.106,4.635-13.134s8.831-5.381,13.326-6.578m0-3.13.036-.01v-.188l-.061.017c-.682.189-1.378.374-2.051.553l-.041.011c-4.989,1.326-10.149,2.7-13.949,6.789s-4.263,8.782-4.708,13.315c-.442,4.5-.9,9.157-4.66,13.209s-8.9,5.419-13.864,6.738c-4.989,1.325-10.147,2.695-13.949,6.79s-4.263,8.782-4.708,13.314c-.442,4.5-.9,9.158-4.66,13.209s-8.9,5.418-13.865,6.738c-4.989,1.326-10.148,2.7-13.949,6.789s-4.263,8.782-4.707,13.314c-.442,4.5-.9,9.157-4.66,13.209s-8.9,5.419-13.865,6.738c-4.989,1.326-10.148,2.7-13.949,6.789s-4.262,8.781-4.707,13.314c-.442,4.5-.9,9.157-4.66,13.209s-8.9,5.419-13.864,6.738c-4.99,1.326-10.149,2.7-13.949,6.79s-4.262,8.782-4.707,13.314c-.069.7-.155,1.579-.256,2.414l-.007.054h.182l.005-.043c.093-.773.17-1.548.255-2.408.443-4.5.9-9.157,4.66-13.208s8.9-5.42,13.864-6.739c4.989-1.325,10.148-2.7,13.949-6.789s4.262-8.781,4.708-13.314c.442-4.5.9-9.157,4.66-13.209s8.9-5.419,13.863-6.738c4.99-1.326,10.15-2.7,13.95-6.79s4.263-8.781,4.707-13.313c.442-4.5.9-9.157,4.66-13.209s8.9-5.419,13.863-6.738c4.989-1.325,10.148-2.7,13.949-6.79s4.263-8.782,4.707-13.314c.442-4.5.9-9.157,4.661-13.209s8.9-5.419,13.863-6.737c4.989-1.326,10.149-2.7,13.949-6.79s4.262-8.782,4.707-13.314c.442-4.5.9-9.157,4.66-13.209s8.9-5.418,13.863-6.737c.64-.17,1.366-.363,2.071-.558m0-3.219.034-.011v-.19l-.063.021c-1.524.494-3.107.914-4.639,1.321-5.017,1.333-10.2,2.711-14.025,6.826s-4.286,8.829-4.734,13.388c-.444,4.528-.9,9.209-4.686,13.283s-8.948,5.449-13.941,6.775c-5.017,1.333-10.206,2.712-14.026,6.828s-4.286,8.829-4.734,13.388c-.444,4.527-.9,9.208-4.686,13.283s-8.949,5.449-13.943,6.776c-5.017,1.333-10.2,2.711-14.025,6.827s-4.287,8.832-4.734,13.388c-.445,4.528-.905,9.209-4.687,13.283s-8.948,5.449-13.941,6.776c-5.017,1.333-10.205,2.71-14.027,6.826s-4.286,8.831-4.734,13.388c-.444,4.528-.9,9.209-4.687,13.284s-8.948,5.449-13.94,6.775c-5.018,1.333-10.206,2.711-14.027,6.828s-4.286,8.831-4.734,13.388c-.124,1.267-.253,2.578-.455,3.866l-.009.056h.182l.006-.041c.2-1.286.33-2.6.455-3.864.444-4.528.9-9.209,4.686-13.283s8.948-5.449,13.941-6.776c5.017-1.333,10.205-2.71,14.026-6.827s4.287-8.832,4.734-13.389c.445-4.527.9-9.208,4.686-13.283s8.947-5.448,13.941-6.775c5.017-1.333,10.205-2.71,14.027-6.827s4.286-8.831,4.733-13.388c.445-4.528.905-9.209,4.687-13.283s8.948-5.449,13.941-6.775c5.017-1.333,10.205-2.711,14.026-6.828s4.287-8.831,4.734-13.391c.445-4.526.9-9.207,4.686-13.279s8.948-5.45,13.941-6.776c5.017-1.333,10.205-2.711,14.026-6.827s4.287-8.832,4.734-13.389c.444-4.527.9-9.208,4.686-13.283s8.948-5.449,13.941-6.775c1.525-.4,3.1-.823,4.621-1.315m0-3.406.03-.012v-.2l-.067.028a57.471,57.471,0,0,1-7.2,2.252c-5.045,1.34-10.262,2.726-14.105,6.866s-4.31,8.88-4.76,13.462c-.448,4.552-.91,9.26-4.713,13.356s-9,5.48-14.019,6.814c-5.045,1.341-10.262,2.727-14.1,6.865s-4.309,8.877-4.76,13.462c-.447,4.552-.909,9.26-4.712,13.357s-9,5.479-14.02,6.814c-5.044,1.34-10.261,2.725-14.1,6.865s-4.311,8.88-4.76,13.464c-.447,4.552-.91,9.259-4.713,13.355s-9,5.48-14.019,6.813c-5.045,1.34-10.262,2.726-14.1,6.865s-4.31,8.88-4.76,13.462c-.447,4.552-.909,9.26-4.713,13.357s-9,5.48-14.018,6.813c-5.045,1.34-10.262,2.726-14.1,6.865s-4.31,8.88-4.761,13.469a49.8,49.8,0,0,1-.718,5.325l-.012.058h.184l.008-.039a50.151,50.151,0,0,0,.719-5.334c.447-4.552.91-9.26,4.712-13.357s9-5.48,14.019-6.814c5.045-1.34,10.262-2.726,14.1-6.865s4.31-8.88,4.76-13.463c.447-4.552.909-9.259,4.712-13.357s9-5.48,14.019-6.813c5.045-1.34,10.263-2.726,14.1-6.865s4.311-8.88,4.76-13.462c.447-4.553.909-9.26,4.714-13.357s9-5.48,14.018-6.813c5.046-1.34,10.263-2.726,14.105-6.866s4.31-8.879,4.76-13.462c.447-4.552.91-9.26,4.713-13.357s9-5.479,14.018-6.813c5.045-1.34,10.262-2.726,14.105-6.866s4.309-8.88,4.76-13.463c.447-4.552.909-9.26,4.712-13.356s9-5.48,14.027-6.816a58.1,58.1,0,0,0,7.181-2.244m.005-3.719.025-.014v-.207l-.072.04a41.681,41.681,0,0,1-9.776,3.486c-5.073,1.348-10.318,2.741-14.181,6.9s-4.334,8.929-4.786,13.537c-.449,4.578-.914,9.312-4.739,13.431s-9.048,5.51-14.1,6.85c-5.073,1.348-10.318,2.741-14.183,6.9s-4.334,8.928-4.786,13.536c-.45,4.578-.914,9.311-4.739,13.43s-9.049,5.511-14.1,6.852c-5.073,1.348-10.318,2.741-14.181,6.9s-4.334,8.928-4.786,13.537c-.449,4.577-.914,9.31-4.739,13.43s-9.048,5.511-14.1,6.852c-5.073,1.347-10.318,2.741-14.182,6.9s-4.333,8.928-4.786,13.536c-.449,4.577-.914,9.311-4.739,13.431s-9.048,5.51-14.1,6.851c-5.073,1.348-10.318,2.742-14.181,6.9s-4.334,8.928-4.786,13.535a39.208,39.208,0,0,1-1.076,6.809l-.017.062h.188l.01-.035a39.608,39.608,0,0,0,1.075-6.817c.449-4.577.913-9.31,4.738-13.43s9.048-5.51,14.1-6.851c5.072-1.348,10.318-2.741,14.182-6.9s4.334-8.929,4.787-13.537c.449-4.577.914-9.311,4.738-13.43s9.049-5.51,14.1-6.851c5.072-1.348,10.318-2.741,14.182-6.9s4.333-8.926,4.786-13.536c.449-4.578.914-9.311,4.739-13.431s9.047-5.51,14.1-6.852c5.073-1.348,10.318-2.741,14.181-6.9s4.333-8.928,4.785-13.537c.449-4.577.914-9.311,4.739-13.43s9.048-5.51,14.1-6.852c5.072-1.348,10.316-2.741,14.179-6.9s4.334-8.929,4.786-13.536c.449-4.577.914-9.311,4.739-13.431s9.048-5.51,14.1-6.851a42.027,42.027,0,0,0,9.776-3.479m.007-4.221.018-.015v-.232l-.079.063c-3.584,2.877-8.049,4.063-12.368,5.21-5.1,1.355-10.375,2.756-14.26,6.94s-4.357,8.978-4.812,13.612c-.452,4.6-.92,9.361-4.765,13.5s-9.1,5.541-14.175,6.889c-5.1,1.355-10.375,2.756-14.259,6.94s-4.357,8.978-4.812,13.611c-.452,4.6-.919,9.362-4.765,13.506s-9.1,5.54-14.174,6.888c-5.1,1.355-10.375,2.756-14.26,6.94s-4.357,8.975-4.813,13.61c-.452,4.6-.919,9.362-4.765,13.505s-9.1,5.54-14.175,6.889c-5.1,1.355-10.375,2.756-14.259,6.941s-4.357,8.977-4.812,13.61c-.452,4.6-.92,9.362-4.766,13.5s-9.1,5.542-14.174,6.89c-5.1,1.355-10.374,2.755-14.259,6.94s-4.358,8.978-4.812,13.611a32.538,32.538,0,0,1-1.554,8.3l-.024.065h.193l.012-.031a32.847,32.847,0,0,0,1.553-8.312c.452-4.6.919-9.363,4.765-13.506s9.1-5.54,14.173-6.888c5.1-1.355,10.375-2.756,14.26-6.941s4.358-8.978,4.813-13.611c.452-4.6.919-9.362,4.765-13.5s9.1-5.54,14.174-6.889c5.1-1.355,10.373-2.756,14.259-6.941s4.358-8.978,4.813-13.614c.453-4.6.92-9.361,4.765-13.5s9.1-5.54,14.176-6.89c5.1-1.355,10.374-2.756,14.259-6.94s4.356-8.975,4.812-13.611c.452-4.6.919-9.362,4.765-13.5s9.1-5.54,14.176-6.89c5.1-1.355,10.373-2.756,14.257-6.94s4.358-8.977,4.813-13.61c.452-4.6.919-9.362,4.765-13.505s9.1-5.54,14.173-6.888c4.317-1.147,8.78-2.333,12.383-5.2m.007-5.056.011-.013v-.287l-.086.106c-.23.285-.475.567-.727.838-3.871,4.17-9.148,5.571-14.252,6.927-5.128,1.363-10.431,2.772-14.338,6.978s-4.381,9.027-4.838,13.685c-.455,4.628-.925,9.414-4.791,13.579s-9.148,5.571-14.253,6.927c-5.129,1.362-10.432,2.771-14.337,6.978s-4.381,9.026-4.839,13.684c-.455,4.628-.924,9.415-4.791,13.58s-9.148,5.571-14.251,6.926c-5.129,1.363-10.432,2.771-14.338,6.979s-4.381,9.027-4.838,13.685c-.455,4.628-.925,9.415-4.792,13.579s-9.148,5.571-14.253,6.927c-5.129,1.362-10.431,2.771-14.337,6.978s-4.381,9.027-4.838,13.685c-.454,4.628-.924,9.414-4.791,13.58s-9.148,5.571-14.252,6.926c-5.129,1.362-10.432,2.771-14.338,6.979s-4.381,9.026-4.838,13.684c-.321,3.273-.653,6.657-2.186,9.8l-.034.07h.2l.013-.027c1.53-3.155,1.863-6.544,2.185-9.822.454-4.628.924-9.414,4.791-13.579s9.147-5.571,14.252-6.927c5.129-1.363,10.432-2.771,14.338-6.978s4.381-9.027,4.838-13.686c.455-4.628.925-9.414,4.791-13.578s9.148-5.571,14.252-6.926c5.129-1.363,10.432-2.771,14.338-6.978s4.381-9.027,4.838-13.685c.455-4.628.925-9.414,4.792-13.579s9.147-5.571,14.252-6.927c5.128-1.362,10.431-2.771,14.336-6.978s4.381-9.027,4.838-13.685c.455-4.628.925-9.415,4.791-13.579s9.148-5.57,14.252-6.926c5.129-1.363,10.432-2.771,14.338-6.979s4.381-9.026,4.838-13.684c.455-4.628.925-9.414,4.791-13.58s9.149-5.571,14.252-6.926c5.129-1.362,10.431-2.771,14.338-6.979.233-.251.458-.509.67-.767m.008-7,0-.529-.094.256a15.644,15.644,0,0,1-3.278,5.35c-3.891,4.192-9.2,5.6-14.329,6.965-5.156,1.369-10.488,2.785-14.415,7.016s-4.4,9.075-4.864,13.758c-.457,4.653-.93,9.465-4.818,13.653s-9.2,5.6-14.33,6.965c-5.156,1.369-10.487,2.785-14.415,7.016s-4.4,9.076-4.864,13.759c-.457,4.653-.93,9.464-4.817,13.653s-9.2,5.6-14.331,6.965c-5.156,1.37-10.487,2.786-14.414,7.016s-4.4,9.075-4.864,13.759c-.457,4.653-.93,9.465-4.818,13.653s-9.2,5.6-14.329,6.964c-5.156,1.369-10.488,2.785-14.415,7.016s-4.4,9.075-4.865,13.758c-.457,4.654-.93,9.466-4.817,13.653s-9.2,5.6-14.329,6.964c-5.156,1.369-10.489,2.786-14.416,7.016s-4.4,9.074-4.865,13.759c-.373,3.8-.759,7.739-3.011,11.311l-.047.074h.214l.014-.023c2.248-3.592,2.636-7.533,3.009-11.345.457-4.654.929-9.465,4.818-13.653s9.2-5.6,14.329-6.965c5.156-1.369,10.487-2.786,14.415-7.016s4.4-9.075,4.865-13.759c.456-4.653.929-9.465,4.817-13.653s9.2-5.6,14.329-6.965c5.156-1.369,10.488-2.786,14.415-7.016s4.4-9.075,4.864-13.762c.458-4.652.931-9.463,4.818-13.65s9.2-5.6,14.33-6.965c5.156-1.37,10.487-2.786,14.415-7.016s4.4-9.075,4.864-13.761c.457-4.653.93-9.464,4.817-13.651s9.2-5.6,14.329-6.964c5.156-1.37,10.488-2.786,14.416-7.017s4.405-9.076,4.865-13.759c.457-4.654.929-9.466,4.817-13.653s9.2-5.6,14.331-6.965c5.155-1.37,10.487-2.787,14.413-7.016a15.775,15.775,0,0,0,3.237-5.2m-.921-11.223a44.654,44.654,0,0,1,.924-6.29v-.716l-.1.363a42.369,42.369,0,0,0-1.009,6.64c-.46,4.679-.936,9.517-4.844,13.727s-9.248,5.631-14.407,7c-5.185,1.378-10.546,2.8-14.493,7.054s-4.428,9.125-4.89,13.833c-.46,4.679-.935,9.517-4.844,13.727s-9.248,5.632-14.409,7c-5.184,1.377-10.543,2.8-14.491,7.054s-4.428,9.124-4.89,13.835c-.46,4.678-.935,9.515-4.843,13.725s-9.248,5.632-14.408,7c-5.184,1.377-10.545,2.8-14.493,7.054s-4.428,9.124-4.891,13.833c-.459,4.679-.935,9.517-4.843,13.727s-9.247,5.631-14.407,7c-5.184,1.378-10.545,2.8-14.493,7.055s-4.429,9.124-4.891,13.832c-.459,4.679-.934,9.516-4.843,13.727s-9.248,5.632-14.408,7c-5.184,1.377-10.545,2.8-14.493,7.054s-4.428,9.124-4.891,13.832c-.427,4.352-.869,8.852-4.075,12.838l-.063.079h.231l.014-.018c3.2-4.013,3.643-8.521,4.072-12.881.46-4.678.935-9.516,4.844-13.727s9.247-5.632,14.412-7c5.182-1.377,10.542-2.8,14.489-7.053s4.428-9.124,4.89-13.832c.46-4.679.935-9.517,4.844-13.728s9.247-5.632,14.408-7c5.184-1.377,10.544-2.8,14.492-7.054s4.428-9.124,4.891-13.833c.459-4.679.935-9.517,4.844-13.727s9.247-5.632,14.407-7c5.184-1.377,10.544-2.8,14.493-7.054s4.429-9.124,4.891-13.832c.46-4.678.934-9.516,4.843-13.727s9.247-5.632,14.409-7c5.184-1.377,10.543-2.8,14.491-7.053s4.429-9.125,4.891-13.833c.459-4.678.934-9.516,4.843-13.727s9.248-5.632,14.407-7c5.184-1.376,10.544-2.8,14.493-7.053s4.428-9.124,4.89-13.833Zm.916-14.745.009-.013v-.312l-.088.123c-2.759,3.855-3.18,8.138-3.586,12.28-.461,4.7-.938,9.566-4.87,13.8s-9.3,5.663-14.485,7.041c-5.212,1.385-10.6,2.817-14.571,7.092s-4.452,9.173-4.916,13.907c-.463,4.7-.94,9.568-4.87,13.8s-9.3,5.662-14.484,7.04c-5.211,1.384-10.6,2.815-14.57,7.092s-4.452,9.173-4.917,13.906c-.462,4.7-.94,9.568-4.87,13.8s-9.3,5.661-14.487,7.04c-5.211,1.385-10.6,2.816-14.567,7.091s-4.452,9.173-4.917,13.906c-.462,4.7-.94,9.568-4.871,13.8s-9.3,5.661-14.484,7.04c-5.212,1.384-10.6,2.816-14.57,7.092s-4.452,9.173-4.917,13.907c-.462,4.7-.94,9.568-4.87,13.8s-9.3,5.662-14.484,7.04c-5.212,1.384-10.6,2.816-14.57,7.092s-4.452,9.173-4.917,13.907c-.462,4.7-.939,9.567-4.869,13.8-.175.188-.356.377-.553.577l-.081.083h.253l.014-.014c.179-.182.342-.353.5-.523,3.971-4.277,4.452-9.171,4.917-13.907.462-4.7.939-9.568,4.87-13.8s9.3-5.662,14.485-7.04c5.212-1.384,10.6-2.816,14.57-7.091s4.452-9.174,4.917-13.907c.462-4.7.94-9.569,4.87-13.8s9.3-5.661,14.485-7.04c5.212-1.384,10.6-2.816,14.57-7.092s4.452-9.172,4.917-13.907c.462-4.7.94-9.568,4.87-13.8s9.3-5.662,14.484-7.04c5.212-1.385,10.6-2.816,14.571-7.092s4.452-9.173,4.917-13.907c.463-4.7.94-9.569,4.87-13.8s9.3-5.662,14.486-7.041c5.212-1.384,10.6-2.816,14.569-7.091s4.452-9.173,4.917-13.907c.462-4.7.938-9.567,4.87-13.8s9.3-5.663,14.484-7.041c5.212-1.385,10.6-2.816,14.57-7.093s4.452-9.173,4.918-13.908c.4-4.082.816-8.3,3.486-12.094m-.008-5.6.016-.014v-.241l-.081.071c-.431.381-.848.787-1.238,1.208-3.994,4.3-4.476,9.223-4.944,13.982-.465,4.729-.944,9.619-4.9,13.875s-9.348,5.693-14.563,7.079c-5.239,1.392-10.657,2.832-14.648,7.13s-4.476,9.222-4.943,13.982c-.465,4.729-.945,9.619-4.9,13.874s-9.346,5.692-14.562,7.078c-5.239,1.392-10.658,2.831-14.649,7.129s-4.475,9.222-4.943,13.981c-.465,4.729-.945,9.619-4.9,13.876s-9.347,5.692-14.566,7.079c-5.239,1.392-10.655,2.832-14.645,7.129s-4.476,9.222-4.943,13.981c-.465,4.729-.945,9.619-4.9,13.875s-9.348,5.693-14.563,7.078c-5.239,1.392-10.657,2.831-14.648,7.129s-4.476,9.222-4.943,13.981c-.465,4.729-.945,9.619-4.9,13.875s-9.347,5.692-14.562,7.078c-5.239,1.391-10.657,2.831-14.648,7.13s-4.476,9.222-4.943,13.983c-.465,4.728-.945,9.617-4.9,13.873a26.36,26.36,0,0,1-2.143,2.058l-.1.085h.277l.014-.012a26.277,26.277,0,0,0,2.083-2.009c3.993-4.3,4.476-9.222,4.943-13.98.465-4.729.945-9.619,4.9-13.876s9.345-5.692,14.563-7.078c5.24-1.392,10.658-2.832,14.647-7.13s4.476-9.222,4.944-13.98c.464-4.729.944-9.619,4.9-13.876s9.348-5.693,14.563-7.078c5.239-1.392,10.658-2.831,14.648-7.129s4.475-9.221,4.943-13.98c.464-4.729.945-9.619,4.9-13.876s9.347-5.692,14.562-7.078c5.239-1.392,10.657-2.831,14.648-7.13s4.477-9.222,4.944-13.981c.465-4.729.945-9.619,4.9-13.875s9.347-5.693,14.563-7.078c5.24-1.392,10.657-2.832,14.647-7.13s4.476-9.221,4.944-13.981c.464-4.729.944-9.618,4.9-13.875s9.347-5.692,14.562-7.078c5.24-1.392,10.658-2.832,14.648-7.13s4.476-9.221,4.944-13.98c.464-4.729.944-9.619,4.9-13.876.37-.4.764-.784,1.171-1.147m-.007-4.676.023-.014v-.212l-.074.046a17.968,17.968,0,0,0-3.827,3.117c-4.015,4.324-4.5,9.271-4.97,14.057-.467,4.754-.951,9.669-4.922,13.947s-9.4,5.723-14.64,7.116c-5.267,1.4-10.714,2.846-14.726,7.168s-4.5,9.271-4.97,14.057c-.467,4.753-.95,9.669-4.922,13.947s-9.4,5.722-14.639,7.115c-5.268,1.4-10.715,2.846-14.727,7.167s-4.5,9.27-4.969,14.055c-.467,4.755-.95,9.671-4.922,13.949s-9.4,5.724-14.641,7.116c-5.267,1.4-10.713,2.846-14.725,7.167s-4.5,9.27-4.969,14.054c-.467,4.755-.949,9.67-4.922,13.95s-9.4,5.723-14.64,7.116c-5.268,1.4-10.714,2.846-14.726,7.168s-4.5,9.27-4.969,14.055c-.467,4.754-.95,9.671-4.922,13.949s-9.4,5.723-14.641,7.116c-5.268,1.4-10.714,2.846-14.725,7.167s-4.5,9.27-4.97,14.054c-.467,4.755-.949,9.671-4.922,13.95a26.55,26.55,0,0,1-4.045,3.553l-.122.088h.31l.012-.009a27.106,27.106,0,0,0,3.978-3.509c4.013-4.323,4.5-9.271,4.97-14.055.467-4.754.949-9.67,4.922-13.95s9.4-5.723,14.639-7.115c5.268-1.4,10.715-2.846,14.727-7.168s4.5-9.271,4.97-14.054c.467-4.755.949-9.671,4.922-13.95s9.4-5.723,14.642-7.117c5.267-1.4,10.713-2.846,14.724-7.167s4.5-9.27,4.969-14.055c.467-4.754.95-9.671,4.922-13.949s9.4-5.723,14.64-7.115c5.267-1.4,10.715-2.847,14.727-7.168s4.5-9.271,4.969-14.055c.467-4.754.95-9.671,4.922-13.949s9.4-5.723,14.64-7.115c5.267-1.4,10.714-2.846,14.726-7.167s4.5-9.269,4.969-14.056c.467-4.754.949-9.67,4.922-13.949s9.4-5.723,14.64-7.117c5.268-1.4,10.716-2.846,14.727-7.167s4.5-9.269,4.969-14.055c.467-4.754.949-9.67,4.922-13.949a17.807,17.807,0,0,1,3.746-3.059m-.005-4.154.028-.013v-.2l-.069.031a19.441,19.441,0,0,0-6.434,4.493c-4.034,4.346-4.523,9.319-4.995,14.128-.469,4.779-.954,9.722-4.948,14.024s-9.447,5.754-14.719,7.154c-5.3,1.407-10.77,2.862-14.8,7.2s-4.522,9.318-4.995,14.129c-.469,4.779-.954,9.721-4.948,14.024s-9.448,5.754-14.718,7.153c-5.3,1.407-10.771,2.862-14.8,7.205s-4.523,9.32-4.995,14.129c-.47,4.78-.955,9.722-4.949,14.024s-9.447,5.753-14.718,7.153c-5.3,1.407-10.771,2.862-14.8,7.205s-4.523,9.319-5,14.128c-.469,4.78-.954,9.722-4.947,14.024s-9.448,5.753-14.718,7.152c-5.3,1.407-10.771,2.862-14.8,7.206s-4.523,9.319-5,14.131c-.47,4.779-.955,9.721-4.948,14.021s-9.447,5.753-14.719,7.153c-5.3,1.407-10.77,2.862-14.8,7.205s-4.523,9.319-5,14.129c-.469,4.779-.954,9.722-4.948,14.023a27.871,27.871,0,0,1-6.357,5.062l-.153.09h.355l.012-.007a27.978,27.978,0,0,0,6.276-5.023c4.035-4.346,4.523-9.319,5-14.129.469-4.779.955-9.722,4.948-14.024s9.447-5.753,14.717-7.153c5.3-1.407,10.771-2.862,14.8-7.205s4.523-9.318,5-14.128c.469-4.78.954-9.723,4.948-14.025s9.447-5.753,14.718-7.154c5.3-1.406,10.771-2.861,14.8-7.2s4.523-9.319,5-14.13c.47-4.779.955-9.722,4.948-14.023s9.447-5.753,14.718-7.153c5.3-1.407,10.771-2.861,14.8-7.205s4.523-9.321,4.995-14.13c.47-4.779.955-9.722,4.948-14.023s9.447-5.754,14.719-7.154c5.295-1.407,10.77-2.862,14.8-7.205s4.522-9.315,5-14.131c.469-4.779.954-9.721,4.947-14.022s9.447-5.753,14.717-7.154c5.3-1.406,10.772-2.861,14.8-7.205s4.524-9.32,5-14.13c.47-4.779.955-9.722,4.948-14.023a19.226,19.226,0,0,1,6.341-4.434m0-3.839.033-.011v-.191l-.064.022A21.153,21.153,0,0,0-373.9-760.9c-4.056,4.37-4.547,9.369-5.022,14.2-.472,4.8-.96,9.773-4.975,14.1s-9.5,5.784-14.795,7.191c-5.324,1.414-10.829,2.877-14.881,7.244s-4.547,9.367-5.022,14.2c-.472,4.8-.959,9.773-4.974,14.1s-9.5,5.784-14.8,7.192c-5.323,1.414-10.827,2.876-14.881,7.243s-4.547,9.368-5.022,14.2c-.472,4.8-.959,9.773-4.974,14.1s-9.5,5.784-14.8,7.191c-5.322,1.414-10.826,2.875-14.88,7.243s-4.547,9.369-5.022,14.2c-.472,4.805-.96,9.773-4.974,14.1s-9.5,5.784-14.8,7.191c-5.323,1.414-10.827,2.877-14.881,7.243s-4.547,9.368-5.022,14.2c-.472,4.8-.96,9.773-4.974,14.1s-9.5,5.784-14.8,7.191c-5.323,1.414-10.827,2.877-14.881,7.243s-4.547,9.366-5.022,14.2c-.472,4.8-.96,9.774-4.974,14.1a30.049,30.049,0,0,1-9.2,6.586l-.191.092h.416l.01-.005a30.1,30.1,0,0,0,9.1-6.55c4.056-4.37,4.547-9.369,5.022-14.205.472-4.8.96-9.772,4.974-14.1s9.5-5.784,14.8-7.191c5.323-1.414,10.826-2.875,14.881-7.243s4.547-9.368,5.022-14.2c.471-4.805.96-9.774,4.974-14.1s9.5-5.784,14.8-7.191c5.323-1.414,10.828-2.877,14.881-7.243s4.547-9.368,5.022-14.2c.472-4.806.96-9.774,4.975-14.1s9.5-5.783,14.795-7.191c5.323-1.414,10.827-2.877,14.882-7.243s4.547-9.369,5.022-14.2c.472-4.805.959-9.773,4.975-14.1s9.495-5.783,14.794-7.191c5.323-1.414,10.828-2.876,14.882-7.244s4.547-9.368,5.022-14.206c.473-4.8.961-9.771,4.974-14.094s9.5-5.784,14.8-7.193c5.323-1.414,10.827-2.876,14.881-7.243s4.546-9.366,5.022-14.2c.472-4.8.96-9.773,4.975-14.1a20.958,20.958,0,0,1,8.957-5.481m0-3.657.035-.01v-.188l-.062.018c-4.1,1.191-8.359,2.789-11.7,6.389-4.077,4.39-4.57,9.414-5.048,14.276-.474,4.829-.964,9.824-5,14.172s-9.545,5.814-14.873,7.23c-5.351,1.422-10.884,2.892-14.959,7.281s-4.571,9.417-5.048,14.28c-.475,4.829-.966,9.823-5,14.169s-9.548,5.814-14.874,7.229c-5.351,1.422-10.883,2.891-14.959,7.281s-4.571,9.417-5.048,14.28c-.475,4.829-.965,9.823-5,14.169s-9.548,5.815-14.874,7.229c-5.351,1.422-10.884,2.892-14.959,7.281s-4.57,9.417-5.048,14.277c-.474,4.829-.964,9.824-5,14.172s-9.546,5.814-14.875,7.23c-5.351,1.422-10.884,2.892-14.958,7.28s-4.57,9.415-5.048,14.278c-.474,4.829-.964,9.824-5,14.172s-9.547,5.815-14.873,7.229c-5.351,1.422-10.884,2.891-14.959,7.281s-4.57,9.416-5.047,14.277c-.475,4.83-.965,9.825-5,14.172a30.025,30.025,0,0,1-9.507,6.744l-.028.013v.2l.069-.033a30.232,30.232,0,0,0,9.6-6.8c4.077-4.392,4.571-9.417,5.048-14.278.474-4.829.964-9.824,5-14.171s9.547-5.814,14.873-7.229c5.351-1.422,10.884-2.891,14.959-7.281s4.571-9.417,5.048-14.277c.474-4.83.965-9.825,5-14.172s9.547-5.814,14.873-7.229c5.351-1.422,10.884-2.892,14.96-7.281s4.57-9.416,5.048-14.278c.474-4.829.964-9.824,5-14.171s9.547-5.814,14.873-7.229c5.351-1.422,10.885-2.892,14.959-7.281s4.571-9.416,5.048-14.28c.474-4.829.965-9.822,5-14.169s9.546-5.814,14.873-7.229c5.351-1.421,10.884-2.89,14.96-7.281s4.57-9.414,5.048-14.276c.474-4.83.964-9.825,5-14.172s9.547-5.814,14.873-7.229c5.351-1.422,10.884-2.892,14.96-7.281s4.571-9.417,5.047-14.276c.474-4.83.964-9.824,5-14.172,3.309-3.563,7.529-5.149,11.6-6.331m0-3.571.036-.009v-.187l-.061.016c-5.824,1.553-10.58,3.065-14.362,7.139-4.1,4.415-4.595,9.466-5.074,14.352-.477,4.855-.97,9.875-5.027,14.245s-9.6,5.845-14.951,7.267c-5.379,1.429-10.941,2.907-15.037,7.319s-4.594,9.466-5.074,14.352c-.477,4.855-.97,9.876-5.027,14.246s-9.6,5.844-14.951,7.267c-5.379,1.429-10.941,2.907-15.036,7.319s-4.594,9.464-5.074,14.352c-.477,4.855-.97,9.876-5.027,14.245s-9.6,5.844-14.951,7.267c-5.378,1.429-10.94,2.906-15.036,7.318s-4.595,9.466-5.074,14.351c-.477,4.855-.969,9.875-5.026,14.247s-9.6,5.845-14.952,7.267c-5.378,1.429-10.94,2.907-15.036,7.318s-4.594,9.464-5.074,14.351c-.477,4.855-.969,9.876-5.026,14.247s-9.6,5.844-14.951,7.266c-5.379,1.429-10.941,2.906-15.037,7.318s-4.594,9.466-5.074,14.351c-.477,4.855-.969,9.876-5.027,14.247A27.915,27.915,0,0,1-595.5-517.3l-.022.014v.214l.074-.046a28.126,28.126,0,0,0,5.841-4.778c4.1-4.414,4.594-9.466,5.074-14.353.477-4.855.97-9.875,5.026-14.244s9.6-5.845,14.951-7.266c5.379-1.429,10.94-2.906,15.037-7.319s4.593-9.464,5.074-14.351c.477-4.856.969-9.877,5.027-14.247s9.6-5.844,14.951-7.266c5.379-1.429,10.941-2.907,15.037-7.319s4.594-9.466,5.074-14.351c.477-4.855.969-9.876,5.027-14.247s9.6-5.845,14.95-7.267c5.379-1.429,10.94-2.906,15.037-7.319s4.595-9.466,5.075-14.351c.476-4.855.969-9.875,5.027-14.246s9.6-5.844,14.951-7.267c5.379-1.429,10.941-2.906,15.037-7.319s4.593-9.466,5.074-14.351c.476-4.854.969-9.874,5.027-14.246s9.6-5.844,14.951-7.267c5.379-1.429,10.941-2.906,15.037-7.319s4.594-9.466,5.073-14.35c.477-4.856.97-9.877,5.027-14.246s9.707-5.868,14.255-7.082m0-3.57.036-.01v-.187l-.061.017c-.664.182-1.336.36-1.929.518-5.406,1.436-11,2.921-15.114,7.356s-4.617,9.515-5.1,14.428c-.48,4.88-.976,9.925-5.053,14.318s-9.645,5.874-15.028,7.3c-5.407,1.436-11,2.922-15.115,7.357s-4.617,9.515-5.1,14.429c-.48,4.879-.976,9.925-5.053,14.317s-9.646,5.875-15.028,7.3c-5.406,1.436-11,2.921-15.115,7.355s-4.617,9.515-5.1,14.425c-.479,4.881-.974,9.927-5.053,14.321s-9.644,5.874-15.028,7.3c-5.407,1.436-11,2.921-15.115,7.356s-4.618,9.515-5.1,14.425c-.479,4.881-.975,9.928-5.053,14.321s-9.647,5.875-15.028,7.3c-5.406,1.436-11,2.921-15.115,7.357s-4.617,9.514-5.1,14.425c-.479,4.881-.974,9.927-5.053,14.32s-9.646,5.875-15.028,7.3c-5.407,1.436-11,2.921-15.115,7.357s-4.618,9.514-5.1,14.424c-.479,4.881-.974,9.928-5.053,14.32a27.048,27.048,0,0,1-2,1.937l-.016.014v.24l.08-.07a27.4,27.4,0,0,0,2.064-2c4.119-4.437,4.618-9.515,5.1-14.425.479-4.881.974-9.927,5.052-14.32s9.646-5.875,15.029-7.3c5.406-1.436,11-2.921,15.115-7.356s4.618-9.515,5.1-14.425c.479-4.881.975-9.928,5.053-14.321s9.646-5.875,15.028-7.3c5.406-1.436,11-2.921,15.114-7.356s4.618-9.516,5.1-14.427c.479-4.88.975-9.927,5.053-14.319s9.647-5.875,15.029-7.3c5.407-1.436,11-2.921,15.114-7.357s4.617-9.514,5.1-14.429c.48-4.879.976-9.925,5.053-14.317s9.645-5.874,15.028-7.3c5.407-1.436,11-2.921,15.115-7.356s4.617-9.515,5.1-14.425c.48-4.88.976-9.927,5.054-14.32s9.647-5.876,15.029-7.305c5.406-1.436,11-2.921,15.114-7.356s4.617-9.515,5.1-14.426c.48-4.88.975-9.927,5.053-14.32s9.647-5.875,15.028-7.3c.637-.169,1.273-.338,1.908-.512m0-3.651.034-.01v-.189l-.063.02c-1.5.468-3.047.881-4.55,1.28-5.435,1.444-11.054,2.937-15.193,7.395s-4.642,9.564-5.126,14.5c-.482,4.906-.979,9.978-5.079,14.395s-9.7,5.905-15.107,7.343c-5.434,1.444-11.053,2.937-15.191,7.394s-4.642,9.56-5.127,14.5c-.481,4.905-.979,9.978-5.079,14.394s-9.7,5.905-15.106,7.342c-5.434,1.444-11.054,2.937-15.192,7.394s-4.642,9.564-5.126,14.5c-.482,4.906-.979,9.979-5.08,14.395s-9.7,5.906-15.108,7.343c-5.433,1.443-11.052,2.936-15.19,7.393s-4.642,9.564-5.126,14.5c-.481,4.906-.979,9.979-5.079,14.395s-9.7,5.9-15.106,7.342c-5.434,1.444-11.053,2.937-15.192,7.394s-4.642,9.564-5.127,14.5c-.482,4.906-.98,9.979-5.079,14.394s-9.7,5.905-15.106,7.342c-5.435,1.444-11.054,2.936-15.192,7.395s-4.642,9.564-5.126,14.5c-.4,4.075-.814,8.29-3.29,12.1l-.008.012v.328l.089-.135c2.563-3.882,2.983-8.157,3.388-12.294.482-4.905.981-9.978,5.079-14.393s9.695-5.9,15.106-7.343c5.434-1.443,11.053-2.936,15.192-7.394s4.641-9.564,5.126-14.5c.482-4.906.98-9.979,5.079-14.395s9.7-5.905,15.106-7.342c5.434-1.444,11.053-2.937,15.192-7.394s4.642-9.565,5.127-14.5c.482-4.906.981-9.979,5.079-14.394s9.7-5.9,15.106-7.341c5.434-1.444,11.054-2.937,15.192-7.394s4.641-9.562,5.127-14.5c.481-4.905.979-9.978,5.079-14.394s9.7-5.906,15.107-7.343c5.434-1.443,11.053-2.936,15.192-7.394s4.642-9.564,5.126-14.5c.482-4.9.981-9.977,5.08-14.391s9.7-5.905,15.106-7.343c5.434-1.443,11.053-2.936,15.193-7.394s4.641-9.563,5.125-14.5c.482-4.906.98-9.978,5.08-14.394s9.7-5.905,15.106-7.343l.012,0c1.491-.4,3.033-.806,4.521-1.271m0-3.819.031-.012v-.194l-.066.026a68.219,68.219,0,0,1-7.193,2.2c-5.462,1.45-11.11,2.95-15.27,7.431s-4.666,9.613-5.152,14.574c-.484,4.931-.985,10.03-5.106,14.468s-9.747,5.936-15.185,7.381c-5.461,1.451-11.109,2.951-15.269,7.432s-4.665,9.61-5.153,14.573c-.485,4.931-.985,10.031-5.105,14.468s-9.747,5.936-15.184,7.38c-5.462,1.451-11.11,2.952-15.27,7.432s-4.664,9.612-5.152,14.573c-.485,4.931-.985,10.03-5.1,14.468s-9.747,5.936-15.184,7.38c-5.462,1.451-11.11,2.951-15.27,7.432s-4.665,9.612-5.153,14.574c-.484,4.931-.985,10.03-5.1,14.468s-9.747,5.936-15.184,7.38c-5.462,1.451-11.11,2.951-15.27,7.432s-4.666,9.612-5.153,14.573c-.484,4.931-.985,10.03-5.105,14.469s-9.746,5.936-15.184,7.38c-5.462,1.451-11.11,2.952-15.269,7.432a18.522,18.522,0,0,0-4.663,10.4v.57l.1.007a18.877,18.877,0,0,1,4.7-10.852c4.124-4.443,9.746-5.936,15.183-7.38,5.462-1.451,11.111-2.952,15.27-7.432s4.666-9.613,5.153-14.574c.484-4.931.985-10.03,5.106-14.468s9.746-5.936,15.183-7.38c5.463-1.451,11.111-2.951,15.271-7.432s4.665-9.612,5.152-14.574c.484-4.931.985-10.029,5.105-14.468s9.746-5.935,15.184-7.38c5.462-1.452,11.111-2.952,15.27-7.432s4.665-9.613,5.153-14.574c.485-4.931.985-10.03,5.1-14.467s9.747-5.936,15.184-7.381c5.463-1.451,11.111-2.951,15.27-7.432s4.665-9.612,5.153-14.574c.484-4.93.984-10.028,5.106-14.468s9.745-5.936,15.182-7.38c5.463-1.452,11.111-2.952,15.271-7.432s4.665-9.613,5.152-14.574c.484-4.931.985-10.03,5.105-14.468s9.746-5.935,15.194-7.382a68.431,68.431,0,0,0,7.172-2.188m0-4.1.026-.014v-.2l-.071.036a48.875,48.875,0,0,1-9.854,3.382c-5.489,1.458-11.166,2.966-15.347,7.469s-4.688,9.661-5.178,14.647c-.487,4.956-.99,10.081-5.131,14.543s-9.8,5.967-15.264,7.418c-5.49,1.459-11.167,2.967-15.345,7.47s-4.69,9.662-5.179,14.65c-.487,4.956-.99,10.08-5.131,14.54s-9.8,5.966-15.262,7.418c-5.49,1.458-11.166,2.966-15.348,7.47s-4.689,9.661-5.179,14.647c-.487,4.957-.99,10.082-5.131,14.543s-9.8,5.966-15.262,7.418c-5.49,1.458-11.167,2.966-15.347,7.47s-4.689,9.662-5.179,14.65c-.487,4.955-.99,10.079-5.131,14.539s-9.8,5.966-15.262,7.418c-5.49,1.459-11.167,2.966-15.347,7.47s-4.69,9.662-5.179,14.648c-.487,4.956-.991,10.081-5.132,14.541s-9.8,5.966-15.261,7.418c-5.49,1.459-11.167,2.966-15.348,7.47-.3.325-.595.666-.87,1.011l-.01.013v.291l.086-.11c.291-.37.6-.734.926-1.083,4.145-4.466,9.8-5.967,15.262-7.419,5.49-1.459,11.167-2.966,15.347-7.47s4.689-9.66,5.179-14.647c.487-4.956.99-10.081,5.132-14.543s9.8-5.966,15.261-7.419c5.49-1.458,11.167-2.965,15.348-7.469s4.688-9.66,5.178-14.647c.487-4.957.99-10.082,5.132-14.543s9.794-5.965,15.261-7.418c5.49-1.458,11.166-2.965,15.348-7.47s4.689-9.66,5.179-14.648c.486-4.956.989-10.08,5.131-14.541s9.8-5.966,15.262-7.418c5.489-1.458,11.165-2.966,15.348-7.47s4.689-9.662,5.179-14.648c.487-4.956.99-10.081,5.131-14.542s9.795-5.966,15.262-7.419c5.49-1.458,11.167-2.966,15.348-7.469s4.688-9.662,5.178-14.648c.487-4.957.99-10.082,5.131-14.542s9.8-5.966,15.269-7.42a49.19,49.19,0,0,0,9.844-3.374m.006-4.545.021-.015v-.222l-.076.055c-3.713,2.651-8.2,3.843-12.536,5-5.518,1.466-11.223,2.981-15.425,7.508s-4.712,9.707-5.205,14.725c-.489,4.98-1,10.13-5.157,14.613s-9.846,6-15.34,7.456c-5.517,1.465-11.223,2.981-15.425,7.508s-4.713,9.71-5.2,14.721c-.489,4.981-.994,10.132-5.158,14.616s-9.846,6-15.34,7.456c-5.517,1.466-11.223,2.982-15.424,7.508s-4.713,9.708-5.206,14.722c-.489,4.981-.995,10.132-5.158,14.617s-9.845,6-15.343,7.456c-5.516,1.466-11.221,2.982-15.421,7.506s-4.713,9.71-5.205,14.722c-.489,4.981-.995,10.132-5.158,14.616s-9.846,6-15.34,7.455c-5.518,1.466-11.223,2.982-15.424,7.508s-4.712,9.71-5.2,14.722c-.489,4.981-1,10.132-5.158,14.615s-9.847,6-15.34,7.456c-4.311,1.145-8.768,2.329-12.481,4.943l-.021.015v.222l.076-.054c3.7-2.62,8.159-3.8,12.472-4.95,5.518-1.466,11.224-2.982,15.425-7.508s4.712-9.71,5.2-14.722c.489-4.981,1-10.132,5.158-14.616s9.846-6,15.338-7.456c5.518-1.466,11.224-2.982,15.426-7.508s4.712-9.709,5.2-14.722c.49-4.981,1-10.132,5.158-14.615s9.846-6,15.34-7.456c5.517-1.466,11.222-2.982,15.423-7.507s4.714-9.711,5.205-14.722c.489-4.981,1-10.132,5.158-14.616s9.847-6,15.34-7.456c5.518-1.466,11.224-2.982,15.424-7.508s4.713-9.708,5.205-14.722c.489-4.981.995-10.132,5.158-14.616s9.846-6,15.34-7.456c5.517-1.466,11.223-2.981,15.425-7.507s4.712-9.71,5.2-14.721c.49-4.982,1-10.133,5.159-14.617s9.846-6,15.338-7.456c4.336-1.152,8.819-2.343,12.546-4.988m.007-5.252.014-.014v-.261l-.084.088c-4.167,4.363-9.795,5.858-15.238,7.3-5.545,1.472-11.279,3-15.5,7.544s-4.736,9.76-5.232,14.8c-.491,5.006-1,10.183-5.184,14.691s-9.9,6.028-15.417,7.494c-5.546,1.473-11.28,3-15.5,7.545s-4.736,9.757-5.231,14.8c-.492,5.007-1,10.184-5.184,14.69s-9.9,6.027-15.417,7.494c-5.546,1.473-11.28,3-15.5,7.545s-4.736,9.758-5.231,14.8c-.492,5.006-1,10.184-5.184,14.69s-9.9,6.026-15.418,7.493c-5.545,1.473-11.28,3-15.5,7.545s-4.736,9.758-5.232,14.8c-.491,5.006-1,10.183-5.183,14.69s-9.9,6.027-15.417,7.493c-5.546,1.474-11.28,3-15.5,7.545s-4.736,9.759-5.231,14.8c-.492,5.007-1,10.184-5.184,14.691s-9.9,6.027-15.417,7.494a57.455,57.455,0,0,0-8.725,2.823l-.029.013v.2l.068-.031a57.045,57.045,0,0,1,8.731-2.829c5.545-1.473,11.28-3,15.5-7.546s4.736-9.759,5.231-14.8c.492-5.007,1-10.184,5.183-14.691s9.9-6.027,15.417-7.494c5.546-1.473,11.28-3,15.5-7.545s4.736-9.759,5.23-14.795c.491-5.007,1-10.184,5.184-14.692s9.9-6.027,15.416-7.493c5.546-1.474,11.28-3,15.5-7.546s4.737-9.76,5.231-14.8c.492-5.006,1-10.184,5.184-14.69s9.9-6.027,15.417-7.493c5.545-1.473,11.28-3,15.5-7.545s4.736-9.759,5.23-14.8c.491-5.006,1-10.183,5.184-14.691s9.9-6.027,15.417-7.494c5.545-1.473,11.28-3,15.5-7.545s4.736-9.759,5.23-14.8c.492-5.006,1-10.183,5.184-14.691s9.9-6.027,15.417-7.493c5.44-1.445,11.066-2.94,15.262-7.291m.005-6.268.009-.012v-.32l-.088.13a26.424,26.424,0,0,1-2.47,3.091c-4.209,4.533-9.946,6.057-15.5,7.531-5.573,1.481-11.335,3.012-15.58,7.584s-4.76,9.808-5.258,14.876c-.495,5.03-1.007,10.231-5.209,14.758s-9.946,6.057-15.5,7.532c-5.573,1.481-11.336,3.012-15.58,7.583s-4.76,9.808-5.257,14.871c-.494,5.032-1.005,10.235-5.21,14.763s-9.946,6.057-15.495,7.532c-5.573,1.48-11.336,3.011-15.581,7.583s-4.76,9.808-5.257,14.87c-.495,5.032-1.006,10.234-5.21,14.763s-9.947,6.058-15.5,7.531c-5.573,1.481-11.336,3.012-15.58,7.583s-4.76,9.808-5.257,14.873c-.494,5.031-1.006,10.234-5.21,14.762s-9.945,6.057-15.495,7.531c-5.573,1.48-11.336,3.01-15.581,7.583s-4.76,9.807-5.257,14.87c-.494,5.031-1,10.234-5.21,14.764s-9.945,6.057-15.495,7.532c-1.631.433-3.318.882-4.95,1.4l-.034.011v.19l.063-.02c1.636-.523,3.329-.973,4.968-1.408,5.573-1.481,11.336-3.012,15.58-7.583s4.76-9.808,5.258-14.87c.494-5.032,1-10.235,5.21-14.765s9.946-6.057,15.495-7.531c5.573-1.481,11.336-3.011,15.58-7.582s4.76-9.808,5.258-14.87c.494-5.032,1.005-10.235,5.21-14.765s9.945-6.057,15.494-7.531c5.573-1.481,11.337-3.012,15.58-7.584s4.76-9.808,5.258-14.87c.494-5.032,1.005-10.235,5.21-14.764s9.945-6.057,15.495-7.532c5.573-1.48,11.336-3.011,15.58-7.583s4.761-9.808,5.258-14.87c.494-5.032,1-10.235,5.21-14.764s9.945-6.057,15.495-7.532c5.573-1.48,11.335-3.011,15.58-7.583s4.76-9.808,5.257-14.873c.495-5.031,1.007-10.234,5.21-14.762s9.946-6.057,15.5-7.532c5.573-1.48,11.336-3.011,15.58-7.582a26.6,26.6,0,0,0,2.418-3.012m0-7.95,0-.483-.093.227a26.378,26.378,0,0,1-5.142,8.077c-4.23,4.556-10,6.088-15.572,7.57-5.6,1.488-11.392,3.026-15.658,7.62s-4.783,9.855-5.284,14.944c-.5,5.057-1.009,10.287-5.237,14.839s-10,6.087-15.572,7.568c-5.6,1.488-11.393,3.027-15.658,7.622s-4.784,9.857-5.284,14.943c-.5,5.057-1.009,10.286-5.236,14.838s-10,6.088-15.573,7.57c-5.6,1.488-11.393,3.027-15.658,7.621s-4.784,9.857-5.284,14.944c-.5,5.057-1.009,10.286-5.236,14.839s-10,6.088-15.572,7.569c-5.6,1.488-11.393,3.027-15.658,7.621s-4.784,9.857-5.284,14.944c-.5,5.057-1.009,10.287-5.236,14.839s-10,6.088-15.572,7.569c-5.6,1.488-11.392,3.026-15.659,7.621s-4.783,9.855-5.284,14.944c-.5,5.057-1.009,10.286-5.236,14.839s-10,6.089-15.573,7.569l-.153.041-1,.267-.036.01v.186l.061-.016,1.176-.314c5.6-1.487,11.392-3.026,15.659-7.621s4.784-9.857,5.283-14.944c.5-5.057,1.009-10.286,5.236-14.839s10-6.087,15.572-7.569c5.6-1.488,11.393-3.026,15.659-7.62s4.784-9.857,5.284-14.944c.5-5.058,1.009-10.287,5.236-14.839s10-6.088,15.572-7.569c5.6-1.488,11.392-3.026,15.658-7.621s4.783-9.855,5.283-14.944c.5-5.057,1.009-10.287,5.236-14.839s10-6.087,15.572-7.569c5.6-1.488,11.393-3.027,15.658-7.621s4.783-9.854,5.284-14.944c.5-5.057,1.009-10.286,5.236-14.838s10-6.088,15.572-7.57c5.6-1.487,11.392-3.026,15.658-7.621s4.784-9.857,5.284-14.949c.5-5.056,1.01-10.284,5.236-14.834s10-6.087,15.571-7.568c5.6-1.488,11.394-3.027,15.659-7.622a26.51,26.51,0,0,0,5.1-7.944m-7.8,4.91c5.168-5.567,6.688-11.815,7.8-17.747v-.454l-.1-.009c-1.177,6.351-2.663,12.513-7.838,18.088-4.251,4.579-10.046,6.119-15.652,7.608-5.628,1.5-11.449,3.041-15.734,7.658s-4.808,9.905-5.31,15.018c-.5,5.082-1.014,10.337-5.262,14.912s-10.046,6.119-15.65,7.607c-5.629,1.5-11.45,3.041-15.736,7.659s-4.807,9.9-5.31,15.017c-.5,5.083-1.016,10.339-5.262,14.913s-10.046,6.119-15.65,7.607c-5.629,1.5-11.45,3.042-15.736,7.659s-4.808,9.905-5.31,15.019c-.5,5.082-1.016,10.337-5.262,14.911s-10.045,6.118-15.65,7.607c-5.629,1.5-11.45,3.042-15.736,7.659s-4.807,9.906-5.31,15.018c-.5,5.082-1.015,10.338-5.262,14.913s-10.046,6.119-15.652,7.608c-5.629,1.5-11.449,3.042-15.734,7.658s-4.808,9.905-5.31,15.018c-.5,5.082-1.016,10.338-5.262,14.913-3.757,4.047-8.675,5.677-12.991,6.887l-.035.01v.188l.061-.017c4.348-1.218,9.3-2.859,13.1-6.945,4.288-4.619,4.807-9.905,5.309-15.018.5-5.082,1.016-10.338,5.262-14.913s10.046-6.118,15.651-7.607c5.629-1.5,11.449-3.042,15.735-7.658s4.808-9.906,5.31-15.02c.5-5.082,1.016-10.337,5.262-14.911s10.046-6.118,15.65-7.607c5.629-1.5,11.449-3.041,15.736-7.658s4.807-9.906,5.31-15.018c.5-5.082,1.015-10.338,5.263-14.913s10.045-6.118,15.65-7.607c5.629-1.5,11.451-3.042,15.736-7.658s4.807-9.9,5.31-15.018c.5-5.082,1.015-10.337,5.262-14.913s10.046-6.119,15.65-7.607c5.629-1.5,11.45-3.041,15.737-7.658s4.807-9.905,5.308-15.017c.5-5.083,1.016-10.339,5.262-14.913s10.044-6.117,15.65-7.606c5.63-1.5,11.451-3.042,15.737-7.659m7.164-30.756.017-.062h-.187l-.01.036c-.718,2.572-1.2,5.217-1.66,7.776-1.219,6.731-2.478,13.692-8.18,19.833-4.271,4.6-10.1,6.149-15.728,7.645-5.656,1.5-11.505,3.056-15.813,7.7s-4.831,9.955-5.336,15.093c-.5,5.108-1.02,10.389-5.288,14.986s-10.1,6.149-15.729,7.645c-5.657,1.5-11.506,3.057-15.812,7.7s-4.831,9.955-5.336,15.092c-.5,5.108-1.02,10.39-5.289,14.987s-10.1,6.149-15.729,7.645c-5.656,1.5-11.505,3.057-15.812,7.7s-4.831,9.954-5.336,15.092c-.5,5.108-1.02,10.389-5.288,14.986s-10.1,6.149-15.728,7.645c-5.656,1.5-11.506,3.056-15.813,7.7s-4.831,9.953-5.336,15.092c-.5,5.108-1.02,10.39-5.289,14.988s-10.1,6.149-15.728,7.644c-5.656,1.5-11.505,3.057-15.813,7.7s-4.831,9.955-5.336,15.093c-.5,5.108-1.019,10.389-5.288,14.987a22.289,22.289,0,0,1-9.233,5.725l-.032.012v.192l.065-.023a22.5,22.5,0,0,0,9.333-5.782c4.31-4.643,4.831-9.956,5.336-15.094.5-5.108,1.021-10.389,5.289-14.986s10.094-6.148,15.728-7.645c5.657-1.5,11.506-3.056,15.813-7.7s4.831-9.955,5.336-15.092c.5-5.108,1.02-10.389,5.287-14.987s10.1-6.148,15.728-7.644c5.657-1.5,11.506-3.056,15.815-7.7s4.831-9.954,5.335-15.092c.5-5.107,1.02-10.389,5.289-14.987s10.1-6.149,15.728-7.645c5.657-1.5,11.506-3.056,15.813-7.7s4.831-9.954,5.336-15.092c.5-5.107,1.019-10.387,5.289-14.987s10.1-6.148,15.727-7.644c5.657-1.5,11.507-3.057,15.814-7.7s4.831-9.953,5.336-15.092c.5-5.107,1.019-10.388,5.289-14.987s10.092-6.148,15.726-7.645c5.657-1.5,11.506-3.056,15.815-7.7,5.737-6.18,7-13.166,8.225-19.923.464-2.563.944-5.215,1.661-7.782m-3.479,0,.012-.059h-.184l-.009.038c-.329,1.535-.612,3.1-.886,4.61-1.224,6.763-2.49,13.758-8.219,19.929-4.294,4.625-10.146,6.179-15.806,7.682-5.685,1.51-11.562,3.072-15.89,7.734s-4.855,10-5.362,15.166c-.5,5.132-1.025,10.44-5.315,15.06s-10.146,6.179-15.806,7.683c-5.685,1.51-11.563,3.071-15.891,7.734s-4.855,10-5.361,15.166c-.5,5.133-1.026,10.441-5.314,15.061s-10.146,6.179-15.806,7.682c-5.684,1.51-11.562,3.071-15.891,7.734s-4.855,10-5.362,15.166c-.5,5.133-1.025,10.44-5.314,15.061s-10.146,6.179-15.806,7.683c-5.685,1.51-11.563,3.071-15.891,7.734s-4.855,10-5.362,15.169c-.5,5.132-1.026,10.439-5.315,15.058s-10.145,6.179-15.8,7.682c-5.685,1.51-11.563,3.072-15.892,7.734s-4.855,10-5.362,15.166c-.5,5.133-1.025,10.44-5.315,15.062a19.835,19.835,0,0,1-5.455,4.1l-.026.014v.2l.071-.036a20.053,20.053,0,0,0,5.542-4.162c4.331-4.666,4.855-10,5.363-15.167.5-5.133,1.025-10.44,5.315-15.061s10.146-6.179,15.806-7.682c5.684-1.51,11.562-3.072,15.891-7.734s4.854-10,5.361-15.166c.5-5.133,1.025-10.441,5.315-15.061s10.145-6.179,15.8-7.682c5.685-1.51,11.563-3.072,15.891-7.735s4.855-10,5.362-15.167c.5-5.133,1.026-10.44,5.314-15.06s10.145-6.178,15.806-7.682c5.684-1.51,11.562-3.071,15.891-7.734s4.855-10,5.361-15.166c.5-5.133,1.026-10.44,5.315-15.061s10.146-6.179,15.806-7.683c5.685-1.51,11.563-3.071,15.891-7.734s4.854-10,5.362-15.165c.5-5.133,1.025-10.44,5.315-15.061s10.145-6.179,15.8-7.682c5.685-1.51,11.563-3.071,15.892-7.734,5.765-6.21,7.036-13.231,8.265-20.02.274-1.517.558-3.086.888-4.621m-3.354,0,.01-.057h-.183l-.007.04q-.1.533-.195,1.066l-.065.36c-1.231,6.8-2.5,13.827-8.26,20.027-4.314,4.646-10.2,6.209-15.885,7.721-5.712,1.518-11.618,3.087-15.967,7.772s-4.878,10.053-5.387,15.24c-.506,5.158-1.031,10.491-5.341,15.135s-10.2,6.209-15.884,7.72c-5.712,1.518-11.619,3.087-15.968,7.772s-4.879,10.052-5.389,15.24c-.506,5.157-1.029,10.49-5.34,15.135s-10.2,6.21-15.884,7.721c-5.712,1.518-11.619,3.087-15.968,7.772s-4.879,10.052-5.389,15.24c-.506,5.158-1.03,10.492-5.341,15.135s-10.2,6.209-15.883,7.72c-5.713,1.518-11.62,3.086-15.969,7.771s-4.878,10.053-5.388,15.24c-.506,5.158-1.03,10.492-5.341,15.135s-10.2,6.21-15.883,7.72c-5.713,1.518-11.62,3.087-15.969,7.772s-4.879,10.053-5.389,15.241c-.506,5.158-1.031,10.492-5.341,15.135a18.982,18.982,0,0,1-1.657,1.579l-.017.014v.236l.079-.066a19.158,19.158,0,0,0,1.726-1.641c4.351-4.687,4.878-10.051,5.388-15.24.506-5.158,1.03-10.492,5.341-15.135s10.2-6.21,15.883-7.72c5.712-1.518,11.619-3.087,15.969-7.773s4.879-10.051,5.388-15.24c.507-5.158,1.031-10.492,5.341-15.135s10.2-6.209,15.885-7.72c5.712-1.518,11.618-3.087,15.967-7.771s4.879-10.051,5.389-15.24c.506-5.158,1.03-10.491,5.341-15.135s10.2-6.21,15.882-7.72c5.712-1.517,11.619-3.086,15.97-7.773s4.878-10.052,5.388-15.24c.507-5.158,1.031-10.492,5.342-15.135s10.195-6.21,15.883-7.721c5.712-1.518,11.619-3.087,15.968-7.772s4.878-10.052,5.387-15.24c.507-5.158,1.031-10.492,5.341-15.135s10.2-6.209,15.882-7.72c5.712-1.517,11.619-3.087,15.97-7.772,5.792-6.24,7.07-13.295,8.305-20.118q.13-.72.262-1.44m-3.337,0,.01-.057h-.183l-.007.04c-1.2,6.432-2.706,12.675-7.976,18.353-4.335,4.669-10.246,6.24-15.962,7.758-5.74,1.525-11.675,3.1-16.045,7.81s-4.9,10.1-5.414,15.314c-.509,5.183-1.035,10.543-5.368,15.209s-10.245,6.24-15.961,7.758c-5.74,1.525-11.675,3.1-16.046,7.809s-4.9,10.1-5.415,15.316c-.509,5.183-1.035,10.542-5.366,15.207s-10.246,6.239-15.962,7.758c-5.74,1.525-11.676,3.1-16.046,7.809s-4.9,10.1-5.414,15.314c-.509,5.183-1.035,10.543-5.367,15.209s-10.246,6.24-15.962,7.758c-5.74,1.525-11.675,3.1-16.046,7.809s-4.9,10.1-5.415,15.316c-.509,5.183-1.036,10.542-5.367,15.207s-10.245,6.239-15.96,7.758c-5.74,1.525-11.676,3.1-16.047,7.81s-4.9,10.1-5.415,15.314c-.407,4.151-.828,8.442-3.2,12.353l-.007.012v.344l.089-.145c2.457-3.976,2.885-8.333,3.3-12.546.509-5.183,1.035-10.543,5.367-15.209s10.245-6.24,15.961-7.758c5.74-1.524,11.675-3.1,16.046-7.81s4.9-10.1,5.415-15.314c.509-5.184,1.035-10.543,5.367-15.209s10.245-6.239,15.96-7.758c5.74-1.525,11.676-3.1,16.048-7.81s4.9-10.1,5.414-15.314c.509-5.183,1.035-10.543,5.367-15.209s10.245-6.24,15.96-7.758c5.741-1.525,11.676-3.1,16.047-7.81s4.9-10.1,5.415-15.314c.509-5.183,1.035-10.543,5.367-15.209s10.245-6.24,15.96-7.758c5.74-1.524,11.676-3.1,16.047-7.809s4.9-10.1,5.415-15.314c.509-5.184,1.035-10.543,5.366-15.209s10.246-6.24,15.961-7.758c5.74-1.525,11.676-3.1,16.046-7.81,5.306-5.715,6.823-11.991,8.025-18.457m-3.42,0,.013-.059h-.184l-.009.038c-1.036,4.723-2.722,10.226-7.374,15.235-4.355,4.692-10.293,6.27-16.039,7.8-5.768,1.532-11.733,3.116-16.124,7.847s-4.926,10.15-5.44,15.388c-.511,5.209-1.04,10.594-5.393,15.283s-10.3,6.271-16.039,7.8c-5.768,1.532-11.732,3.117-16.123,7.847s-4.926,10.15-5.44,15.388c-.511,5.208-1.04,10.594-5.393,15.283s-10.3,6.27-16.039,7.8c-5.768,1.532-11.733,3.116-16.124,7.848s-4.926,10.149-5.44,15.39c-.511,5.208-1.041,10.594-5.393,15.282s-10.3,6.271-16.039,7.8c-5.768,1.532-11.732,3.117-16.123,7.847s-4.926,10.15-5.441,15.388c-.511,5.208-1.04,10.594-5.393,15.283s-10.3,6.27-16.039,7.8c-5.768,1.532-11.732,3.116-16.125,7.847a19.292,19.292,0,0,0-4.819,10.348v.51l.1.007a19.546,19.546,0,0,1,4.856-10.743c4.356-4.693,10.3-6.27,16.039-7.8,5.768-1.532,11.732-3.117,16.124-7.847s4.926-10.149,5.44-15.388c.511-5.209,1.04-10.594,5.393-15.284s10.3-6.27,16.04-7.8c5.768-1.532,11.732-3.117,16.123-7.847s4.926-10.15,5.44-15.388c.511-5.209,1.04-10.6,5.394-15.283s10.295-6.27,16.038-7.8c5.768-1.532,11.733-3.116,16.125-7.848s4.926-10.149,5.44-15.388c.511-5.209,1.04-10.594,5.392-15.284s10.294-6.269,16.038-7.8c5.769-1.532,11.733-3.117,16.126-7.848s4.925-10.148,5.44-15.388c.512-5.208,1.041-10.594,5.394-15.283s10.295-6.27,16.038-7.8c5.768-1.532,11.732-3.116,16.124-7.848,4.685-5.046,6.381-10.584,7.422-15.337m-3.607,0,.018-.062h-.188l-.01.035a28.649,28.649,0,0,1-6.609,12.1c-4.376,4.715-10.344,6.3-16.116,7.834-5.8,1.539-11.788,3.131-16.2,7.885s-4.949,10.2-5.466,15.462c-.514,5.234-1.046,10.646-5.42,15.357s-10.345,6.3-16.116,7.834c-5.8,1.54-11.788,3.132-16.2,7.886s-4.95,10.2-5.466,15.462c-.514,5.234-1.046,10.646-5.419,15.357s-10.346,6.3-16.116,7.833c-5.8,1.54-11.79,3.132-16.2,7.886s-4.95,10.2-5.467,15.462c-.514,5.234-1.045,10.646-5.419,15.358s-10.345,6.3-16.116,7.833c-5.8,1.539-11.789,3.131-16.2,7.885s-4.95,10.2-5.467,15.463c-.514,5.234-1.045,10.646-5.419,15.357s-10.345,6.3-16.116,7.833c-5.8,1.539-11.788,3.132-16.2,7.885-.346.373-.676.758-.981,1.146l-.01.014v.294l.086-.111c.329-.422.678-.832,1.038-1.219,4.378-4.716,10.345-6.3,16.116-7.833,5.8-1.54,11.79-3.132,16.2-7.885s4.95-10.2,5.467-15.462c.514-5.234,1.045-10.645,5.419-15.357s10.344-6.3,16.116-7.834c5.8-1.539,11.788-3.131,16.2-7.884s4.95-10.2,5.467-15.463c.514-5.234,1.046-10.646,5.42-15.357s10.344-6.3,16.117-7.834c5.8-1.54,11.788-3.132,16.2-7.885s4.95-10.2,5.467-15.462c.514-5.234,1.046-10.646,5.42-15.357s10.345-6.3,16.116-7.834c5.8-1.54,11.789-3.132,16.2-7.885s4.95-10.2,5.466-15.462c.514-5.234,1.046-10.646,5.42-15.357s10.345-6.3,16.117-7.833c5.8-1.54,11.788-3.132,16.2-7.885a28.837,28.837,0,0,0,6.656-12.2m-3.907,0,.026-.066h-.194l-.012.031a27.6,27.6,0,0,1-5.568,8.953c-4.4,4.737-10.393,6.331-16.194,7.872-5.823,1.547-11.845,3.146-16.28,7.922s-4.973,10.248-5.492,15.537c-.516,5.258-1.05,10.7-5.445,15.431s-10.4,6.331-16.194,7.871c-5.824,1.547-11.845,3.147-16.28,7.923s-4.974,10.248-5.493,15.537c-.516,5.259-1.05,10.7-5.445,15.43s-10.4,6.332-16.195,7.872c-5.823,1.547-11.845,3.147-16.279,7.923s-4.973,10.247-5.493,15.536c-.516,5.259-1.05,10.7-5.445,15.432s-10.4,6.331-16.2,7.872c-5.823,1.547-11.845,3.147-16.278,7.923s-4.973,10.248-5.493,15.537c-.517,5.259-1.05,10.7-5.445,15.432s-10.4,6.331-16.195,7.87c-4.637,1.232-9.433,2.507-13.4,5.377l-.02.015v.224l.077-.057c3.952-2.878,8.748-4.152,13.39-5.384,5.823-1.548,11.844-3.147,16.277-7.923s4.973-10.248,5.492-15.536c.516-5.259,1.05-10.7,5.445-15.432s10.395-6.331,16.194-7.871c5.824-1.547,11.846-3.146,16.28-7.923s4.973-10.248,5.493-15.537c.516-5.259,1.05-10.7,5.446-15.431s10.394-6.33,16.193-7.871c5.824-1.547,11.846-3.146,16.281-7.923s4.973-10.247,5.492-15.536c.517-5.26,1.05-10.7,5.446-15.431s10.394-6.331,16.193-7.871c5.823-1.547,11.845-3.147,16.28-7.923s4.973-10.248,5.492-15.536c.517-5.259,1.05-10.7,5.446-15.432s10.393-6.33,16.193-7.871c5.824-1.547,11.846-3.146,16.281-7.923a27.789,27.789,0,0,0,5.616-9.04m-4.332.005.038-.071h-.2l-.014.026a27.12,27.12,0,0,1-4.129,5.786c-4.419,4.761-10.445,6.361-16.274,7.909-5.85,1.555-11.9,3.163-16.355,7.96s-5,10.3-5.519,15.611c-.519,5.284-1.055,10.748-5.472,15.505s-10.444,6.362-16.272,7.91c-5.851,1.554-11.9,3.161-16.357,7.96s-5,10.3-5.519,15.614c-.519,5.283-1.056,10.746-5.471,15.5s-10.443,6.36-16.273,7.909c-5.851,1.554-11.9,3.162-16.356,7.96s-5,10.3-5.519,15.611c-.519,5.284-1.055,10.748-5.471,15.505s-10.445,6.362-16.272,7.909c-5.851,1.555-11.9,3.162-16.357,7.961s-5,10.3-5.519,15.611c-.519,5.284-1.056,10.749-5.471,15.505s-10.445,6.362-16.272,7.91a57.951,57.951,0,0,0-9.588,3.153l-.028.013v.2l.069-.032a57.525,57.525,0,0,1,9.593-3.159c5.851-1.554,11.9-3.161,16.358-7.962s5-10.3,5.519-15.611c.519-5.284,1.056-10.748,5.471-15.5s10.445-6.361,16.272-7.909c5.852-1.555,11.9-3.162,16.358-7.961s5-10.3,5.519-15.611c.519-5.284,1.055-10.748,5.471-15.505s10.445-6.362,16.272-7.909c5.852-1.555,11.9-3.162,16.357-7.961s5-10.294,5.52-15.61c.518-5.284,1.055-10.748,5.471-15.506s10.445-6.361,16.276-7.91c5.85-1.555,11.9-3.162,16.353-7.96s5-10.3,5.519-15.611c.519-5.284,1.055-10.748,5.472-15.505s10.445-6.362,16.274-7.909c5.85-1.555,11.9-3.162,16.354-7.96a27.328,27.328,0,0,0,4.177-5.864m-4.9.006.055-.077h-.222l-.015.02a28.21,28.21,0,0,1-2.142,2.6c-4.441,4.784-10.495,6.392-16.349,7.947-5.878,1.561-11.957,3.176-16.435,8s-5.02,10.345-5.544,15.684c-.521,5.309-1.059,10.8-5.5,15.58s-10.495,6.391-16.351,7.947c-5.88,1.562-11.959,3.178-16.434,8s-5.02,10.345-5.545,15.685c-.521,5.31-1.06,10.8-5.5,15.579s-10.5,6.393-16.35,7.948c-5.879,1.561-11.957,3.176-16.434,8s-5.02,10.344-5.545,15.684c-.521,5.31-1.06,10.8-5.5,15.579s-10.5,6.392-16.349,7.947c-5.879,1.561-11.959,3.176-16.435,8s-5.02,10.346-5.545,15.685c-.521,5.31-1.06,10.8-5.5,15.579s-10.494,6.391-16.349,7.947l-.023.006c-1.9.5-3.857,1.026-5.735,1.647l-.033.012v.19l.064-.021c1.893-.628,3.865-1.152,5.773-1.659,5.879-1.562,11.958-3.177,16.435-8s5.02-10.346,5.544-15.684c.522-5.31,1.061-10.8,5.5-15.579s10.494-6.392,16.351-7.948c5.879-1.562,11.958-3.177,16.434-8s5.02-10.345,5.544-15.684c.521-5.309,1.06-10.8,5.5-15.579s10.493-6.391,16.349-7.947c5.879-1.562,11.959-3.177,16.435-8s5.02-10.345,5.545-15.685c.521-5.31,1.06-10.8,5.5-15.579s10.5-6.392,16.35-7.947c5.879-1.561,11.959-3.176,16.435-8s5.021-10.345,5.545-15.685c.522-5.309,1.061-10.8,5.5-15.579s10.495-6.392,16.349-7.947c5.879-1.562,11.959-3.177,16.435-8a28.35,28.35,0,0,0,2.191-2.668m-5.664.006.083-.083h-.255l-.014.014c-4.394,4.342-10.215,5.889-15.844,7.384-5.906,1.568-12.014,3.19-16.513,8.036s-5.044,10.393-5.571,15.758c-.524,5.335-1.066,10.851-5.524,15.654s-10.544,6.422-16.427,7.985c-5.907,1.569-12.016,3.192-16.512,8.037s-5.044,10.393-5.571,15.758c-.523,5.335-1.066,10.852-5.524,15.654s-10.544,6.422-16.427,7.985c-5.907,1.569-12.016,3.192-16.513,8.036s-5.044,10.394-5.571,15.76c-.524,5.335-1.066,10.851-5.524,15.653s-10.545,6.422-16.429,7.985c-5.907,1.57-12.014,3.192-16.511,8.036s-5.044,10.394-5.571,15.759c-.524,5.335-1.066,10.851-5.524,15.653s-10.544,6.422-16.427,7.985c-.633.168-1.269.337-1.9.51l-.036.01v.187l.061-.017q.958-.261,1.922-.515c5.907-1.569,12.015-3.192,16.513-8.037s5.044-10.394,5.571-15.76c.525-5.335,1.067-10.851,5.524-15.653s10.544-6.422,16.43-7.985c5.906-1.569,12.013-3.192,16.51-8.036s5.044-10.394,5.571-15.759c.523-5.335,1.065-10.851,5.523-15.653s10.545-6.422,16.429-7.985c5.907-1.569,12.015-3.192,16.512-8.036s5.044-10.394,5.571-15.759c.524-5.335,1.066-10.851,5.523-15.653s10.545-6.423,16.427-7.985c5.907-1.569,12.016-3.192,16.513-8.036s5.045-10.4,5.571-15.76c.524-5.335,1.066-10.851,5.523-15.653s10.545-6.422,16.427-7.985c5.678-1.508,11.548-3.067,15.984-7.489m-7.207.007.155-.09h-.359l-.012.007c-3.576,2.055-7.684,3.146-11.659,4.2-5.935,1.577-12.071,3.208-16.588,8.074s-5.068,10.44-5.6,15.834c-.527,5.359-1.07,10.9-5.55,15.727s-10.595,6.452-16.506,8.022c-5.935,1.577-12.071,3.208-16.589,8.074s-5.069,10.443-5.6,15.833c-.526,5.359-1.07,10.9-5.55,15.729s-10.594,6.452-16.5,8.022c-5.935,1.577-12.072,3.206-16.591,8.074s-5.068,10.443-5.6,15.833c-.526,5.36-1.071,10.9-5.55,15.728s-10.594,6.453-16.5,8.023c-5.935,1.576-12.072,3.206-16.59,8.074s-5.068,10.443-5.6,15.833c-.526,5.359-1.071,10.9-5.55,15.727-4.048,4.36-9.4,6.092-14.526,7.493l-.036.009v.188l.061-.017c5.167-1.41,10.552-3.154,14.633-7.551,4.521-4.869,5.068-10.442,5.6-15.832.526-5.359,1.07-10.9,5.551-15.727s10.594-6.453,16.507-8.023c5.934-1.577,12.07-3.207,16.587-8.074s5.068-10.443,5.6-15.834c.527-5.359,1.071-10.9,5.551-15.727s10.592-6.452,16.5-8.023c5.935-1.576,12.071-3.206,16.59-8.074s5.068-10.444,5.6-15.834c.527-5.36,1.071-10.9,5.55-15.727s10.594-6.453,16.505-8.023c5.934-1.576,12.071-3.206,16.59-8.074s5.068-10.443,5.6-15.833c.526-5.36,1.07-10.9,5.551-15.728s10.595-6.453,16.5-8.023c4.03-1.07,8.2-2.178,11.826-4.292m-10.983.005.322-.1h-.632l-.014,0c-1.213.353-2.448.68-3.641,1-5.963,1.584-12.129,3.222-16.669,8.112s-5.091,10.49-5.623,15.907c-.529,5.385-1.075,10.953-5.576,15.8s-10.644,6.483-16.582,8.06c-5.962,1.584-12.128,3.222-16.669,8.112s-5.091,10.492-5.623,15.907c-.529,5.385-1.075,10.954-5.576,15.8s-10.644,6.483-16.584,8.06c-5.962,1.584-12.128,3.222-16.666,8.112s-5.091,10.492-5.623,15.907c-.529,5.385-1.076,10.954-5.576,15.8s-10.644,6.483-16.583,8.061c-5.962,1.584-12.128,3.222-16.668,8.112s-5.092,10.492-5.624,15.907c-.529,5.385-1.075,10.953-5.576,15.8-2.612,2.813-5.912,4.777-10.7,6.369l-.033.011v.191l.064-.021c4.833-1.6,8.164-3.586,10.8-6.427,4.542-4.892,5.091-10.492,5.623-15.907.529-5.385,1.076-10.953,5.576-15.8s10.644-6.483,16.582-8.06c5.963-1.584,12.129-3.221,16.669-8.112s5.091-10.491,5.623-15.906c.529-5.385,1.076-10.954,5.576-15.8s10.645-6.484,16.584-8.061c5.962-1.584,12.127-3.222,16.667-8.111s5.091-10.493,5.623-15.908c.529-5.385,1.076-10.954,5.576-15.8s10.645-6.484,16.583-8.061c5.963-1.584,12.128-3.222,16.668-8.112s5.092-10.49,5.624-15.907c.529-5.385,1.075-10.953,5.576-15.8s10.644-6.483,16.582-8.06c1.217-.323,2.6-.69,3.919-1.078m-14.219,0,.256-.094h-.513l-.017,0a23.3,23.3,0,0,0-9.32,5.917c-4.562,4.915-5.115,10.541-5.649,15.982-.531,5.41-1.081,11-5.6,15.875s-10.694,6.513-16.66,8.1c-5.991,1.591-12.185,3.236-16.746,8.15s-5.115,10.541-5.65,15.982c-.532,5.41-1.081,11-5.6,15.875s-10.694,6.513-16.66,8.1c-5.991,1.591-12.185,3.237-16.746,8.15s-5.115,10.541-5.65,15.98c-.531,5.411-1.081,11.006-5.6,15.876s-10.694,6.514-16.66,8.1c-5.99,1.591-12.185,3.236-16.746,8.149s-5.115,10.54-5.65,15.981c-.531,5.411-1.081,11.005-5.6,15.876a21.575,21.575,0,0,1-6.849,4.87l-.028.013v.2l.069-.032a21.776,21.776,0,0,0,6.941-4.927c4.563-4.916,5.115-10.541,5.649-15.981.532-5.411,1.081-11.005,5.6-15.875s10.694-6.513,16.66-8.1c5.99-1.591,12.184-3.237,16.745-8.15s5.116-10.541,5.65-15.981c.532-5.41,1.081-11.005,5.6-15.876s10.694-6.513,16.659-8.1c5.991-1.591,12.185-3.237,16.746-8.15s5.115-10.54,5.649-15.981c.532-5.411,1.081-11.006,5.6-15.877s10.693-6.513,16.66-8.1c5.991-1.591,12.186-3.237,16.746-8.15s5.115-10.54,5.65-15.981c.531-5.411,1.081-11.006,5.6-15.876a23.319,23.319,0,0,1,9.462-5.949m-9.527-.005.125-.088h-.313l-.012.009a20.373,20.373,0,0,0-3.076,2.7c-4.583,4.937-5.139,10.587-5.676,16.055-.534,5.435-1.085,11.056-5.628,15.949s-10.744,6.544-16.738,8.136c-6.018,1.6-12.241,3.252-16.824,8.188s-5.139,10.59-5.676,16.056c-.534,5.435-1.086,11.056-5.628,15.949s-10.744,6.544-16.737,8.135c-6.019,1.6-12.242,3.252-16.824,8.188s-5.139,10.589-5.676,16.056c-.534,5.435-1.085,11.056-5.628,15.95s-10.744,6.543-16.738,8.136c-6.019,1.6-12.242,3.251-16.824,8.187s-5.139,10.589-5.676,16.055c-.534,5.436-1.085,11.057-5.628,15.95a20.181,20.181,0,0,1-2.973,2.623l-.02.014v.222l.077-.055a20.432,20.432,0,0,0,3.049-2.682c4.583-4.938,5.139-10.59,5.675-16.055.534-5.436,1.086-11.057,5.629-15.95s10.744-6.544,16.738-8.136c6.018-1.6,12.241-3.251,16.824-8.187s5.139-10.59,5.675-16.056c.534-5.436,1.086-11.057,5.629-15.949s10.743-6.543,16.737-8.136c6.018-1.6,12.24-3.25,16.824-8.187s5.139-10.59,5.675-16.055c.534-5.436,1.086-11.057,5.629-15.95s10.744-6.544,16.738-8.137c6.018-1.6,12.241-3.252,16.824-8.188s5.139-10.59,5.676-16.055c.534-5.435,1.085-11.056,5.629-15.95a20.155,20.155,0,0,1,3.144-2.745m-6.81-.008.07-.08h-.238l-.015.017c-4.164,4.826-4.7,10.3-5.222,15.593-.537,5.461-1.092,11.107-5.654,16.023s-10.8,6.575-16.817,8.174c-6.046,1.606-12.3,3.267-16.9,8.225s-5.163,10.639-5.7,16.13c-.537,5.461-1.091,11.107-5.655,16.023s-10.792,6.573-16.815,8.174c-6.046,1.606-12.3,3.266-16.9,8.225s-5.163,10.638-5.7,16.129c-.536,5.461-1.091,11.108-5.655,16.024s-10.794,6.575-16.816,8.174c-6.046,1.607-12.3,3.267-16.9,8.224s-5.162,10.637-5.7,16.129c-.5,5.065-1.011,10.3-4.726,14.946l-.01.013v.288l.086-.106c3.806-4.705,4.327-10,4.83-15.123.536-5.461,1.09-11.108,5.655-16.024s10.793-6.573,16.814-8.173c6.047-1.606,12.3-3.267,16.9-8.226s5.163-10.639,5.7-16.13c.536-5.461,1.09-11.107,5.655-16.024s10.793-6.574,16.815-8.173c6.047-1.606,12.3-3.267,16.9-8.225s5.163-10.639,5.7-16.13c.536-5.461,1.091-11.108,5.655-16.024s10.794-6.574,16.815-8.174c6.046-1.606,12.3-3.267,16.9-8.226s5.162-10.637,5.7-16.128c.519-5.284,1.055-10.748,5.225-15.547m-5.53-.009.039-.072h-.207l-.014.026c-2.157,3.96-2.578,8.254-2.985,12.407-.539,5.486-1.1,11.16-5.68,16.1s-10.844,6.6-16.894,8.212c-6.074,1.614-12.354,3.282-16.979,8.263s-5.186,10.686-5.728,16.2c-.539,5.486-1.1,11.159-5.681,16.1s-10.844,6.6-16.893,8.211c-6.073,1.613-12.353,3.281-16.979,8.263s-5.186,10.688-5.728,16.2c-.538,5.486-1.095,11.158-5.68,16.1s-10.845,6.605-16.893,8.212c-6.074,1.613-12.355,3.281-16.979,8.263s-5.186,10.687-5.728,16.2a62.53,62.53,0,0,1-.821,6.21v.863l.1-.444a58.589,58.589,0,0,0,.905-6.611c.539-5.486,1.1-11.159,5.681-16.1s10.844-6.6,16.893-8.211c6.074-1.613,12.355-3.282,16.979-8.263s5.187-10.687,5.728-16.2c.539-5.486,1.1-11.159,5.681-16.1s10.844-6.6,16.893-8.211c6.074-1.613,12.354-3.281,16.979-8.263s5.186-10.687,5.728-16.205c.539-5.486,1.1-11.158,5.68-16.1s10.843-6.6,16.893-8.212c6.074-1.613,12.354-3.281,16.979-8.263s5.187-10.688,5.728-16.2c.407-4.147.828-8.435,2.988-12.378m-4.709-.008.021-.064h-.191l-.011.033a42.485,42.485,0,0,0-1.6,9.2c-.542,5.511-1.1,11.211-5.707,16.173s-10.893,6.635-16.972,8.249c-6.1,1.621-12.411,3.3-17.056,8.3s-5.21,10.736-5.754,16.278c-.541,5.511-1.1,11.21-5.707,16.172s-10.894,6.635-16.971,8.249c-6.1,1.621-12.411,3.3-17.057,8.3s-5.21,10.735-5.754,16.277c-.541,5.511-1.1,11.211-5.707,16.172s-10.893,6.634-16.972,8.249c-6.1,1.621-12.411,3.3-17.057,8.3a18.942,18.942,0,0,0-2.626,3.581l-.006.011v.373l.091-.165a18.482,18.482,0,0,1,2.674-3.678c4.609-4.965,10.893-6.635,16.971-8.25,6.1-1.621,12.411-3.3,17.057-8.3s5.21-10.736,5.755-16.28c.541-5.511,1.1-11.209,5.706-16.17s10.893-6.635,16.971-8.25c6.1-1.621,12.411-3.3,17.057-8.3s5.21-10.736,5.754-16.277c.541-5.511,1.1-11.21,5.707-16.172s10.895-6.635,16.973-8.25c6.1-1.621,12.41-3.3,17.055-8.3s5.21-10.736,5.754-16.284a42.2,42.2,0,0,1,1.6-9.183m-4.176-.006.011-.058h-.183l-.008.04c-.377,1.966-.576,3.992-.769,5.952l0,.025c-.544,5.536-1.106,11.261-5.734,16.246s-10.94,6.664-17.048,8.288c-6.129,1.628-12.468,3.312-17.134,8.338s-5.234,10.784-5.781,16.352c-.544,5.537-1.106,11.261-5.733,16.246s-10.945,6.666-17.049,8.288c-6.13,1.628-12.468,3.312-17.134,8.338s-5.234,10.784-5.78,16.351c-.544,5.537-1.106,11.263-5.733,16.247s-10.944,6.666-17.049,8.287c-5.563,1.478-11.315,3.006-15.8,7.031l-.016.014v.243l.081-.073c4.464-4.034,10.219-5.563,15.785-7.041,6.129-1.628,12.467-3.311,17.135-8.338s5.234-10.786,5.781-16.354c.544-5.536,1.106-11.26,5.733-16.244s10.943-6.665,17.048-8.287c6.13-1.628,12.468-3.312,17.135-8.339s5.234-10.783,5.78-16.352c.544-5.537,1.107-11.262,5.733-16.246s10.944-6.666,17.051-8.287c6.129-1.629,12.466-3.312,17.132-8.338s5.234-10.785,5.781-16.352l0-.023c.193-1.961.392-3.988.77-5.953m-3.866,0,.007-.054h-.182l-.005.043c-.109.933-.2,1.89-.285,2.736-.546,5.561-1.111,11.313-5.759,16.318s-10.994,6.7-17.126,8.325c-6.157,1.636-12.524,3.328-17.212,8.377s-5.258,10.834-5.807,16.427c-.546,5.562-1.111,11.313-5.759,16.319s-10.991,6.7-17.126,8.325c-6.157,1.635-12.524,3.326-17.212,8.376s-5.258,10.834-5.807,16.425c-.546,5.562-1.111,11.313-5.759,16.32s-10.994,6.7-17.126,8.325c-4.044,1.075-8.226,2.185-11.9,4.24l-.025.014v.208l.072-.041c3.662-2.059,7.848-3.171,11.895-4.247,6.157-1.635,12.523-3.326,17.211-8.376s5.258-10.834,5.807-16.425c.546-5.562,1.111-11.313,5.76-16.32s10.994-6.7,17.129-8.326c6.156-1.636,12.522-3.328,17.21-8.376s5.257-10.834,5.807-16.426c.546-5.562,1.111-11.313,5.759-16.32s10.992-6.7,17.127-8.325c6.157-1.635,12.524-3.327,17.211-8.376s5.258-10.833,5.807-16.425c.1-1.016.184-1.862.286-2.74m-3.748,0,.005-.053h-.181l0,.044c-.5,5.084-1.074,10.846-5.734,15.866s-11.044,6.726-17.2,8.363c-6.185,1.643-12.58,3.342-17.289,8.414s-5.281,10.882-5.833,16.5c-.548,5.587-1.116,11.364-5.785,16.393s-11.043,6.727-17.206,8.364c-6.184,1.643-12.579,3.343-17.287,8.414s-5.281,10.883-5.833,16.5c-.548,5.587-1.115,11.365-5.785,16.4s-11.044,6.726-17.2,8.362a79.441,79.441,0,0,0-7.96,2.416l-.031.012v.194l.066-.025a78.728,78.728,0,0,1,7.973-2.422c6.185-1.643,12.58-3.343,17.289-8.414s5.281-10.883,5.833-16.5c.549-5.587,1.116-11.365,5.785-16.395s11.044-6.726,17.2-8.362c6.185-1.643,12.581-3.342,17.29-8.415s5.28-10.882,5.832-16.5c.549-5.587,1.116-11.365,5.787-16.4s11.042-6.725,17.2-8.362c6.185-1.643,12.58-3.342,17.289-8.414s5.275-10.864,5.781-15.979m-3.81,0,.007-.055h-.182l-.005.042c-.561,4.163-1.6,8.578-5.391,12.659-4.694,5.056-11.093,6.756-17.282,8.4-6.213,1.65-12.637,3.357-17.368,8.452s-5.3,10.93-5.859,16.574c-.551,5.612-1.12,11.415-5.812,16.468s-11.094,6.757-17.282,8.4c-6.213,1.651-12.637,3.358-17.367,8.452s-5.3,10.93-5.859,16.576c-.551,5.611-1.121,11.414-5.811,16.466s-11.093,6.756-17.287,8.4c-1.313.349-2.671.71-3.991,1.1l-.035.01v.188l.062-.018c1.339-.394,2.7-.755,4.016-1.1,6.212-1.651,12.637-3.357,17.366-8.452s5.3-10.931,5.859-16.574c.551-5.612,1.122-11.416,5.812-16.468s11.094-6.757,17.281-8.4c6.213-1.651,12.638-3.358,17.368-8.453s5.3-10.931,5.859-16.574c.551-5.613,1.121-11.416,5.812-16.469s11.093-6.756,17.287-8.4c6.211-1.651,12.634-3.357,17.361-8.451,3.824-4.119,4.874-8.571,5.439-12.769m-4.054,0,.013-.059h-.185l-.009.038a19.7,19.7,0,0,1-4.836,9.432c-4.716,5.079-11.143,6.787-17.359,8.438-6.241,1.657-12.694,3.371-17.445,8.489s-5.329,10.979-5.885,16.648c-.553,5.638-1.126,11.467-5.838,16.542s-11.144,6.787-17.361,8.439c-6.24,1.658-12.693,3.373-17.443,8.49s-5.328,10.98-5.885,16.648c-.553,5.638-1.126,11.467-5.838,16.543s-11.144,6.787-17.363,8.439l-.035.01v.187l.085-.024c6.241-1.657,12.694-3.371,17.445-8.489s5.328-10.981,5.885-16.648c.554-5.638,1.126-11.468,5.838-16.543s11.142-6.787,17.359-8.438c6.241-1.657,12.694-3.371,17.446-8.49s5.328-10.979,5.885-16.647c.553-5.637,1.125-11.467,5.838-16.542s11.143-6.787,17.359-8.438c6.241-1.658,12.694-3.372,17.445-8.489a19.884,19.884,0,0,0,4.884-9.533m-4.5.006.026-.066h-.194l-.012.031a18.986,18.986,0,0,1-3.866,6.184c-4.736,5.1-11.191,6.817-17.437,8.476-6.268,1.665-12.751,3.387-17.523,8.528s-5.352,11.029-5.911,16.722c-.556,5.663-1.131,11.519-5.864,16.617s-11.193,6.817-17.437,8.476c-6.268,1.665-12.75,3.387-17.522,8.527s-5.352,11.03-5.911,16.722c-.556,5.662-1.131,11.518-5.865,16.617-3.854,4.152-8.726,6-13.416,7.371l-.035.01v.188l.062-.018c4.725-1.383,9.633-3.241,13.521-7.429,4.774-5.143,5.353-11.029,5.912-16.722.556-5.663,1.131-11.519,5.864-16.617s11.192-6.816,17.438-8.476c6.268-1.665,12.749-3.387,17.521-8.527s5.353-11.029,5.912-16.722c.556-5.662,1.131-11.518,5.864-16.616s11.193-6.818,17.437-8.476c6.268-1.665,12.751-3.387,17.522-8.527a19.16,19.16,0,0,0,3.915-6.272m-5.188.008.046-.074h-.213l-.014.023a19.542,19.542,0,0,1-2.241,2.914c-4.758,5.125-11.242,6.848-17.515,8.514-6.3,1.673-12.808,3.4-17.6,8.565s-5.376,11.077-5.938,16.8c-.558,5.688-1.136,11.569-5.89,16.691s-11.242,6.848-17.514,8.514c-6.3,1.672-12.806,3.4-17.6,8.565s-5.376,11.077-5.938,16.8c-.558,5.688-1.136,11.57-5.89,16.691a24.062,24.062,0,0,1-9.442,6.066l-.031.012v.194l.065-.025a24.255,24.255,0,0,0,9.54-6.123c4.8-5.165,5.376-11.078,5.937-16.8.558-5.688,1.136-11.57,5.891-16.69s11.243-6.848,17.515-8.514c6.3-1.673,12.807-3.4,17.6-8.566s5.376-11.077,5.938-16.8c.558-5.688,1.136-11.57,5.89-16.691s11.242-6.847,17.515-8.514c6.3-1.672,12.807-3.4,17.6-8.565a19.746,19.746,0,0,0,2.29-2.986m-6.192.008.079-.082h-.251l-.014.015c-4.739,4.855-11.09,6.542-17.232,8.174-6.324,1.68-12.864,3.417-17.679,8.6s-5.4,11.127-5.964,16.869c-.561,5.713-1.14,11.621-5.916,16.765s-11.292,6.878-17.592,8.552c-6.324,1.68-12.864,3.417-17.678,8.6s-5.4,11.127-5.964,16.87c-.561,5.713-1.142,11.621-5.916,16.764a21.771,21.771,0,0,1-5.437,4.226l-.025.014v.206l.072-.04a21.96,21.96,0,0,0,5.523-4.284c4.816-5.188,5.4-11.127,5.963-16.87.561-5.713,1.141-11.621,5.916-16.764s11.293-6.878,17.594-8.552c6.324-1.68,12.862-3.417,17.676-8.6s5.4-11.127,5.964-16.871c.561-5.713,1.142-11.62,5.917-16.763s11.292-6.878,17.592-8.552c6.191-1.644,12.592-3.345,17.372-8.281m-7.771.007.143-.089h-.342l-.012.007c-3.987,2.462-8.641,3.7-13.145,4.9-6.352,1.687-12.92,3.432-17.755,8.641s-5.423,11.175-5.99,16.944c-.563,5.738-1.146,11.671-5.942,16.839s-11.343,6.909-17.671,8.589c-6.352,1.687-12.92,3.432-17.755,8.641s-5.423,11.175-5.99,16.945c-.564,5.738-1.146,11.672-5.942,16.839-.446.48-.918.942-1.4,1.374l-.016.014v.241l.081-.072c.514-.456,1.008-.939,1.468-1.434,4.838-5.212,5.424-11.176,5.99-16.944.563-5.738,1.146-11.672,5.943-16.839s11.342-6.908,17.67-8.589c6.351-1.687,12.92-3.432,17.755-8.64s5.423-11.175,5.99-16.945c.563-5.738,1.146-11.672,5.942-16.839s11.343-6.909,17.67-8.59c4.558-1.211,9.271-2.462,13.308-4.986m-11.18.005.293-.095h-.582l-.015,0c-1.834.583-3.74,1.09-5.583,1.58l-.029.008c-6.38,1.695-12.978,3.447-17.834,8.679s-5.447,11.224-6.016,17.019c-.566,5.764-1.151,11.724-5.969,16.913s-11.393,6.939-17.748,8.627c-6.379,1.694-12.976,3.446-17.834,8.678s-5.447,11.225-6.016,17.018c-.438,4.459-.891,9.069-3.3,13.292l-.006.011v.362l.09-.156c2.492-4.291,2.951-8.968,3.395-13.492.566-5.764,1.152-11.724,5.969-16.913s11.392-6.938,17.747-8.627c6.38-1.695,12.977-3.447,17.835-8.679s5.447-11.225,6.016-17.02c.566-5.763,1.152-11.723,5.968-16.911s11.393-6.939,17.757-8.629c1.936-.515,3.937-1.047,5.861-1.668m-15.5,0,.293-.095h-.578l-.015,0c-3.566,1.168-8.13,3.015-11.8,6.969-4.88,5.257-5.471,11.274-6.042,17.092-.568,5.789-1.156,11.774-6,16.987s-11.442,6.969-17.825,8.665c-6.408,1.7-13.034,3.462-17.911,8.717a20.826,20.826,0,0,0-5.261,10.981v.47l.1.009a21.215,21.215,0,0,1,5.3-11.337c4.842-5.217,11.442-6.969,17.826-8.665,6.408-1.7,13.033-3.462,17.91-8.716s5.471-11.273,6.043-17.092c.568-5.789,1.155-11.775,5.995-16.988,3.686-3.971,8.333-5.827,11.969-7m-11.374,0,.143-.09h-.34l-.012.007a21.839,21.839,0,0,0-4.408,3.641c-4.9,5.278-5.494,11.32-6.068,17.166-.57,5.814-1.16,11.826-6.021,17.062s-11.492,7-17.9,8.7c-6.436,1.709-13.09,3.477-17.989,8.754-.4.437-.793.892-1.154,1.355l-.01.013v.295l.087-.113c.374-.485.78-.965,1.209-1.427,4.865-5.24,11.493-7,17.9-8.7,6.435-1.709,13.09-3.478,17.988-8.755s5.495-11.321,6.069-17.167c.57-5.814,1.16-11.826,6.021-17.061a21.675,21.675,0,0,1,4.484-3.681m-8.085-.008.08-.082h-.252l-.014.015c-.091.095-.181.189-.27.286-4.922,5.3-5.518,11.371-6.095,17.24-.573,5.839-1.166,11.877-6.047,17.135s-11.543,7.031-17.981,8.741c-5.228,1.389-10.633,2.824-15.078,6.12l-.02.015v.225l.078-.058c4.426-3.3,9.835-4.738,15.066-6.128,6.463-1.716,13.146-3.492,18.067-8.793s5.518-11.371,6.094-17.24c.573-5.84,1.166-11.878,6.048-17.135.107-.116.215-.229.324-.341m-6.609-.008.046-.074h-.214l-.014.023c-2.795,4.5-3.279,9.442-3.748,14.219-.576,5.864-1.172,11.928-6.073,17.208s-11.592,7.061-18.06,8.779a62.168,62.168,0,0,0-10.978,3.659l-.028.014v.2l.069-.034a61.806,61.806,0,0,1,10.983-3.666c6.491-1.724,13.2-3.507,18.145-8.83s5.541-11.419,6.12-17.314c.468-4.77.953-9.7,3.75-14.184m-5.692-.008.025-.066h-.194l-.012.031a40.98,40.98,0,0,0-2.082,10.882c-.578,5.89-1.175,11.979-6.1,17.283s-11.641,7.091-18.137,8.817c-2.266.6-4.609,1.225-6.844,1.988l-.033.011v.191l.064-.022c2.246-.768,4.591-1.391,6.859-1.994,6.519-1.732,13.26-3.522,18.223-8.868s5.565-11.468,6.147-17.389a40.675,40.675,0,0,1,2.083-10.865m-5.081-.006.014-.059h-.186l-.009.038a59.962,59.962,0,0,0-1.063,7.522c-.581,5.915-1.181,12.031-6.125,17.357s-11.691,7.121-18.214,8.854c-.78.207-1.75.465-2.675.721l-.036.01v.188l.061-.017c.917-.254,1.863-.5,2.7-.727,6.547-1.739,13.317-3.538,18.3-8.906s5.589-11.518,6.172-17.462a59.513,59.513,0,0,1,1.064-7.518m-4.705,0,.007-.055h-.182l-.006.042c-.186,1.365-.324,2.76-.457,4.109l0,.028c-.583,5.94-1.186,12.083-6.151,17.431-4.54,4.891-10.52,6.8-16.762,8.484l-.036.01v.187l.061-.016c6.28-1.69,12.3-3.615,16.869-8.541,5.006-5.393,5.613-11.567,6.2-17.537.133-1.356.27-2.757.46-4.141m-4.6.732.077-.787h-.181l-.076.77c-.586,5.966-1.192,12.135-6.178,17.506-3.849,4.146-8.755,6.077-12.6,7.3l-.034.011v.189l.063-.02c3.874-1.228,8.819-3.174,12.7-7.355,5.027-5.417,5.636-11.616,6.225-17.611M-581-838.5l.006-.054h-.182l0,.043c-.536,4.684-1.479,10.082-5.923,14.869a24.443,24.443,0,0,1-8.4,5.758l-.029.012v.2l.068-.029a24.643,24.643,0,0,0,8.49-5.816c4.482-4.828,5.432-10.264,5.971-14.981m-4.719,0,.01-.057h-.184l-.007.04a21.58,21.58,0,0,1-5.451,11.48,22.261,22.261,0,0,1-4.157,3.5l-.022.014v.216l.075-.049a22.485,22.485,0,0,0,4.236-3.558,21.77,21.77,0,0,0,5.5-11.586m-5.1.005.019-.063h-.189l-.011.034a20.563,20.563,0,0,1-4.514,7.931l-.013.014v.266l.084-.091a20.735,20.735,0,0,0,4.622-8.091" class="a" transform="translate(595.525 838.553)"/>
                    </g>
                </g>
            </g>
        </g>
    </g>
</svg>
