<svg xmlns="http://www.w3.org/2000/svg" width="171" height="119" viewBox="0 0 171 119"><defs><style>.a{fill:#00c3ae;}.b{fill:#3f3d56;}.c{fill:#f2f2f2;}.d,.e,.h{fill:#0c263d;}.d{opacity:0.301;}.e{opacity:0.302;}.f{fill:#a0616a;}.g{fill:#00afff;}.i{fill:#2f2e41;}.j{opacity:0.1;}.k{fill:#ff6584;}</style></defs><g transform="translate(0 0)"><path class="a" d="M681.06,458.147c0,10.777-6.407,14.54-14.31,14.54s-14.31-3.763-14.31-14.54,14.31-24.488,14.31-24.488S681.06,447.369,681.06,458.147Z" transform="translate(-558.741 -376.779)"/><path class="b" d="M648.846,386.02l6.1-11.159-6.076,9.744.066-4.055,4.2-8.073-4.186,7,.118-7.294,4.5-6.427-4.483,5.28.074-13.375-.445,16.947-4.558-6.977,4.5,8.407-.426,8.146-.013-.216-5.276-7.372,5.26,8.136-.053,1.019-.01.015,0,.084-1.082,10.871h1.445l.173-.878,5.247-8.116-5.234,7.313Z" transform="translate(-541.195 -300.78)"/><path class="c" d="M851.295,122.776c0,20.587-12.239,27.775-27.336,27.775s-27.336-7.188-27.336-27.775S823.959,76,823.959,76,851.295,102.189,851.295,122.776Z" transform="translate(-680.295 -75.999)"/><path class="b" d="M844.071,71.4l.28-17.23L856,32.858,844.395,51.471l.126-7.747L852.55,28.3l-8,13.371h0l.226-13.934,8.6-12.277-8.563,10.086L844.957,0l-.889,33.823.073-1.4L835.4,19.046l8.6,16.06-.814,15.561-.024-.413L833.084,36.172l10.048,15.541-.1,1.946-.018.029.008.16-2.067,39.481h2.761l.331-20.392,10.023-15.5Z" transform="translate(-701.403)"/><path class="b" d="M229.853,633.934c0,6.145-39.639,29.206-85.976,29.206s-83.9-11.935-83.9-18.08,36.642,1.159,82.98,1.159S229.853,627.789,229.853,633.934Z" transform="translate(-59.976 -544.139)"/><path class="d" d="M229.853,633.934c0,6.145-39.639,29.206-85.976,29.206s-83.9-11.935-83.9-18.08,36.642,1.159,82.98,1.159c5.653,0,11.22-.274,16.929-.77C198.586,642.087,229.853,628.538,229.853,633.934Z" transform="translate(-59.976 -544.139)"/><path class="b" d="M229.853,631c0,6.145-39.639,22.252-85.976,22.252s-83.9-4.981-83.9-11.126,36.642-5.795,82.98-5.795S229.853,624.857,229.853,631Z" transform="translate(-59.976 -541.207)"/><ellipse class="e" cx="35.829" cy="2.771" rx="35.829" ry="2.771" transform="translate(49.018 99.316)"/><path class="f" d="M413.983,368.965s10.489.194,8.547,2.04-9.227,0-9.227,0Z" transform="translate(-357.381 -322.357)"/><path class="g" d="M266.991,227.806s4.235-.756,5.707,2.663,4.5,13.169,4.5,13.169,8.093,5.357,9.565,5.181,3.988.183,3.527,1.789-.257,3.427-1.319,3.65-2.753-1.907-4.046-.881-12.821-2.722-13.561-3.5-6.89-17.593-6.89-17.593S264.716,227.751,266.991,227.806Z" transform="translate(-232.125 -203.6)"/><path class="f" d="M246.091,605.607l.486,4.079-4.079,1.068-2.331-1.068v-3.593Z" transform="translate(-202.15 -509.277)"/><path class="f" d="M177.157,622.078l.486,4.079-4.079,1.068-2.331-1.068v-3.593Z" transform="translate(-143.971 -523.126)"/><path class="h" d="M248.155,395.959l1.845,6.7,2.719,13.6a13.39,13.39,0,0,1-.777,7.284c-1.554,3.982-4.37,17-3.788,17.773s-6.6,1.36-6.507.583,1.068-11.46,1.068-11.46,1.36-9.421,2.04-10.586-3.108-4.079-3.108-4.079-.971,11.169-2.428,12.14-1.263,16.025-1.942,16.219-5.633.971-6.216,0,0-17.19,0-17.19,3.3-12.334,2.622-14.083-.291-9.227-.291-9.227-2.525-5.73-1.165-8.741Z" transform="translate(-203.778 -344.185)"/><path class="f" d="M283.6,142.171s-4.079,5.05-3.885,7.284-6.41-4.079-6.41-4.079,4.759-6.41,4.759-7.77S283.6,142.171,283.6,142.171Z" transform="translate(-239.538 -127.628)"/><circle class="f" cx="6.41" cy="6.41" r="6.41" transform="translate(37.573 3.617)"/><path class="g" d="M232.848,210.756a11.772,11.772,0,0,0-.6,3.342c.033.669,1.809,1.108,4.266,1.4,2.277.267,5.14.4,7.742.473,2.732.074,5.175.074,6.349.074,3.5,0,.68-2.234-.68-3.3s-1.068-16.219-.971-18.162-.874-7.575-.874-8.644-2.285-3.857-2.285-3.857-.531,1.526-2.668-.514a11.355,11.355,0,0,0-4.953-2.622c-2.137.777-5.73,9.324-5.924,10.78-.079.591-.014,3.621.118,7.079.191,5.055.525,11.031.756,11.665A4.621,4.621,0,0,1,232.848,210.756Z" transform="translate(-204.965 -162.551)"/><path class="f" d="M226.513,338.413l.68,2.428-2.622,2.719-.874-3.788Z" transform="translate(-188.283 -284.577)"/><path class="h" d="M294.864,691.285s2.04,2.331,3.593.777,1.457-2.525,1.748-2.525,4.662,3.885,4.662,3.885,7.478,1.748,3.4,3.011-15.637.389-15.637,0-.291-5.536.777-5.536Z" transform="translate(-255.787 -591.944)"/><path class="h" d="M225.931,707.755s2.04,2.331,3.593.777,1.457-2.525,1.748-2.525,4.662,3.885,4.662,3.885,7.478,1.748,3.4,3.011-15.637.389-15.637,0-.291-5.536.777-5.536Z" transform="translate(-197.761 -605.793)"/><path class="i" d="M279.172,93.659c-.207.134-.477.269-.684.136a30.99,30.99,0,0,1-1.72-5.955,2.918,2.918,0,0,1,.176-2.121,5.2,5.2,0,0,0,.5-.7,4.733,4.733,0,0,0,.117-1.29,2.553,2.553,0,0,1,1.832-1.837,24.111,24.111,0,0,0,2.607-.8,19.818,19.818,0,0,0,2.118-1.49,2.726,2.726,0,0,1,2.444-.482c.709.286,1.151,1.009,1.821,1.377a5.313,5.313,0,0,0,1.491.426,9.54,9.54,0,0,1,3.875,1.8,2.813,2.813,0,0,1,.705.727c.86,1.416-.68,3.342,0,4.853l-1.469-1.159a5.116,5.116,0,0,0-1.312-.834,1.729,1.729,0,0,0-1.5.068,3.123,3.123,0,0,0-1.005,1.888c-.217.7-.7,1.471-1.426,1.453-.993-.024-1.34-1.41-2.231-1.848a1.719,1.719,0,0,0-1.807.319,3.706,3.706,0,0,0-1.01,1.632,4.449,4.449,0,0,1-.506,1.14c-.267.364-.608.393-.893.665A14.026,14.026,0,0,1,279.172,93.659Z" transform="translate(-242.372 -78.515)"/><path class="j" d="M233.654,244.23a45.265,45.265,0,0,0,3.666,4.738c2.278.267,5.14.4,7.742.473a6.134,6.134,0,0,0-1.712-1.577c-1.263-.777-4.273-10-4.273-10s3.691-9.518,4.662-13.111-2.817-5.633-2.817-5.633c-1.748-1.457-4.759,1.942-4.759,1.942s-1.536,4.635-2.989,9.216c.191,5.055.525,11.031.756,11.665A4.62,4.62,0,0,1,233.654,244.23Z" transform="translate(-205.763 -196.047)"/><path class="g" d="M225.636,214.235s3.788,2.04,2.817,5.633-4.662,13.111-4.662,13.111,3.011,9.227,4.273,10,3.011,2.622,1.651,3.593-2.331,2.525-3.3,2.04-.971-3.205-2.622-3.205-8.352-10.1-8.45-11.169,5.536-18.065,5.536-18.065S223.888,212.778,225.636,214.235Z" transform="translate(-190.605 -191.944)"/><path class="k" d="M483.319,371.864l-1.093-1.093a3.4,3.4,0,0,0-4.806,0l-21.193,21.193-21.193-21.193a3.4,3.4,0,0,0-4.806,0l-1.093,1.093a3.4,3.4,0,0,0,0,4.806l21.193,21.193-21.193,21.193a3.4,3.4,0,0,0,0,4.806l1.093,1.093a3.4,3.4,0,0,0,4.806,0l21.193-21.193,21.193,21.193a3.4,3.4,0,0,0,4.806,0l1.093-1.093a3.4,3.4,0,0,0,0-4.806l-21.193-21.193,21.193-21.193A3.4,3.4,0,0,0,483.319,371.864Z" transform="translate(-370.009 -323.092)"/><path class="j" d="M429.643,576.9l20.564-20.564-.2-.2L430.4,575.748A3.384,3.384,0,0,0,429.643,576.9Z" transform="translate(-371.159 -479.765)"/><path class="j" d="M430.106,372.553a3.4,3.4,0,0,1,4.806,0L456.1,393.746,477.3,372.553a3.4,3.4,0,0,1,4.806,0l1.093,1.093a3.4,3.4,0,0,1,.756,3.654l.629-.629a3.4,3.4,0,0,0,0-4.806l-1.093-1.093a3.4,3.4,0,0,0-4.806,0L457.49,391.965,436.3,370.772a3.4,3.4,0,0,0-4.806,0l-1.093,1.093a3.384,3.384,0,0,0-.756,1.152Z" transform="translate(-371.272 -323.048)"/><path class="j" d="M634.487,547.436l-1.584,1.584L654.1,570.212a3.4,3.4,0,0,1,.756,3.654l.629-.629a3.4,3.4,0,0,0,0-4.806Z" transform="translate(-542.274 -472.467)"/><path class="a" d="M89.442,528.785c0,8.951-5.321,12.076-11.885,12.076s-11.885-3.125-11.885-12.076,11.885-20.338,11.885-20.338S89.442,519.834,89.442,528.785Z" transform="translate(-64.765 -439.686)"/><path class="b" d="M52.523,456l5.066-9.268-5.047,8.093.055-3.368,3.491-6.705-3.477,5.814.1-6.058,3.739-5.338-3.723,4.385.061-11.108-.37,14.076-3.786-5.795,3.74,6.982-.354,6.766-.011-.18-4.382-6.123,4.368,6.757-.044.846-.008.013,0,.069-.9,9.028h1.2l.144-.729,4.358-6.74L52.4,463.493Z" transform="translate(-40.043 -363.687)"/></g></svg>