<svg xmlns="http://www.w3.org/2000/svg" xmlns:xlink="http://www.w3.org/1999/xlink" width="100%" height="100%" viewBox="0 0 233 185"><defs><style>.a{fill:#fff;}.b{fill:#eee;}.c,.h,.p,.q{fill:#42454a;}.c{opacity:0.153;}.d{fill:#00c3ae;}.e{fill:none;stroke:#535461;stroke-miterlimit:10;stroke-width:2px;}.f{fill:#f5f5f5;opacity:0.2;}.g{fill:url(#a);}.i{clip-path:url(#b);}.j{opacity:0.1;}.k{fill:#00afff;}.l{fill:#0c263d;}.m{fill:#f6f8fb;}.n{opacity:0.05;}.o{fill:url(#d);}.p{opacity:0.146;}.q{opacity:0.155;}</style><linearGradient id="a" x1="0.5" y1="1" x2="0.5" gradientUnits="objectBoundingBox"><stop offset="0" stop-color="gray" stop-opacity="0.251"/><stop offset="0.54" stop-color="gray" stop-opacity="0.122"/><stop offset="1" stop-color="gray" stop-opacity="0.102"/></linearGradient><clipPath id="b"><rect class="a" width="62.204" height="118.753" transform="translate(0)"/></clipPath><linearGradient id="d" y1="1.039" y2="0.047" xlink:href="#a"/></defs><g transform="translate(0 0)"><ellipse class="b" cx="116.5" cy="31.24" rx="116.5" ry="31.24" transform="translate(0 122.52)"/><ellipse class="c" cx="116.5" cy="31.24" rx="116.5" ry="31.24" transform="translate(0 122.52)"/><path class="d" d="M377.592,441.92a21.464,21.464,0,0,1,3.914,22.329c-5.075,13.339,8.7,35.522,8.7,35.522s-.148-.023-.421-.07a26.175,26.175,0,0,1-17.371-40.063C376.23,453.807,379.364,446.958,377.592,441.92Z" transform="translate(-309.737 -356.552)"/><path class="e" d="M399.6,441.92s5.075,11.019,0,20.008-.871,34.218,12.614,37.843" transform="translate(-331.757 -356.552)"/><path class="d" d="M342,586.515s10.259-1.633,11.192,7.559,19.724,10.467,19.724,10.467l-.351.233c-15.515,10.183-30.357,6.488-28.1-7.025C345.287,592.712,345.219,587.661,342,586.515Z" transform="translate(-290.15 -464.862)"/><path class="f" d="M342,586.515s10.259-1.633,11.192,7.559,19.724,10.467,19.724,10.467l-.351.233c-15.515,10.183-30.357,6.488-28.1-7.025C345.287,592.712,345.219,587.661,342,586.515Z" transform="translate(-290.15 -464.862)"/><path class="e" d="M342,586.85s7.963,1.756,7.308,8.987,11.824,15.918,23.608,9.032" transform="translate(-290.15 -465.181)"/><path class="g" d="M481.814,99.31H419.987a6.114,6.114,0,0,0-6.127,6.1V240.8a6.114,6.114,0,0,0,6.127,6.1h61.827a6.114,6.114,0,0,0,6.127-6.1V105.414a6.114,6.114,0,0,0-6.127-6.1Z" transform="translate(-344.04 -99.31)"/><path class="h" d="M14.2,0H58.746a14.2,14.2,0,0,1,14.2,14.2V131.695a14.2,14.2,0,0,1-14.2,14.2H14.2A14.2,14.2,0,0,1,0,131.695V14.2A14.2,14.2,0,0,1,14.2,0Z" transform="translate(70.385 1.131)"/><rect class="a" width="62.204" height="118.753" transform="translate(76 14.701)"/><circle class="a" cx="0.564" cy="0.564" r="0.564" transform="translate(98.949 7.352)"/><rect class="a" width="12.441" height="1.131" rx="0.566" transform="translate(102.329 7.35)"/><g class="i" transform="translate(75.816 14.701)"><ellipse class="b" cx="116.66" cy="31.24" rx="116.66" ry="31.24" transform="translate(-85.473 97.592)"/></g><circle class="a" cx="3.959" cy="3.959" r="3.959" transform="translate(102.613 134.488)"/><path class="e" d="M820.82,675.684s-3.327-11.29.625-19.6a17.836,17.836,0,0,0,1.443-11.189,30.013,30.013,0,0,0-1.583-5.251" transform="translate(-648.019 -504.956)"/><path class="d" d="M821.468,611.2c0,1.385-2.509,5.4-2.509,5.4s-2.509-4.014-2.509-5.4a2.509,2.509,0,1,1,5.018,0Z" transform="translate(-645.726 -481.523)"/><path class="d" d="M837.958,637.405c-.753,1.162-5.038,3.169-5.038,3.169s.078-4.732.83-5.893a2.509,2.509,0,1,1,4.207,2.725Z" transform="translate(-658.071 -500.091)"/><path class="d" d="M834.478,687.16c-1.237.622-5.948.193-5.948.193s2.456-4.044,3.691-4.666a2.509,2.509,0,1,1,2.258,4.476Z" transform="translate(-654.782 -536.796)"/><path class="d" d="M825.391,727.127c-1.114.823-5.83,1.194-5.83,1.194s1.736-4.4,2.85-5.223a2.509,2.509,0,1,1,2.981,4.029Z" transform="translate(-648.059 -567.05)"/><path class="d" d="M809.38,649.853c1,.963,5.617,1.964,5.617,1.964s-1.131-4.594-2.125-5.557a2.509,2.509,0,1,0-3.492,3.6Z" transform="translate(-639.794 -509.114)"/><path class="d" d="M797.043,694.84c1.237.622,5.948.193,5.948.193s-2.456-4.044-3.69-4.666a2.509,2.509,0,1,0-2.258,4.476Z" transform="translate(-630.078 -542.558)"/><path class="d" d="M794.7,742.159c1.114.823,5.831,1.194,5.831,1.194s-1.736-4.4-2.85-5.223a2.509,2.509,0,0,0-2.98,4.029Z" transform="translate(-628.737 -578.419)"/><path class="e" d="M497.4,508.459s-2.215-7.526.416-13.063a11.884,11.884,0,0,0,.961-7.456,19.985,19.985,0,0,0-1.056-3.5" transform="translate(-405.951 -388.338)"/><path class="d" d="M508.8,483.346c-.5.775-3.357,2.112-3.357,2.112s.053-3.151.552-3.926a1.671,1.671,0,0,1,2.8,1.814Z" transform="translate(-412.633 -385.576)"/><path class="d" d="M506.5,516.283c-.823.414-3.964.128-3.964.128s1.636-2.695,2.459-3.111a1.671,1.671,0,0,1,1.505,2.98Z" transform="translate(-410.46 -409.823)"/><path class="d" d="M500.4,542.792c-.753.549-3.884.8-3.884.8s1.157-2.933,1.9-3.48a1.671,1.671,0,1,1,1.987,2.684Z" transform="translate(-405.948 -429.778)"/><path class="d" d="M490.1,491.574c.662.642,3.743,1.307,3.743,1.307s-.753-3.061-1.415-3.7a1.671,1.671,0,0,0-2.326,2.4Z" transform="translate(-400.797 -391.518)"/><path class="d" d="M481.579,521.223c.823.414,3.964.128,3.964.128s-1.636-2.695-2.459-3.111a1.671,1.671,0,1,0-1.505,2.98Z" transform="translate(-394.017 -413.484)"/><path class="d" d="M479.663,552.512c.753.549,3.884.8,3.884.8s-1.157-2.933-1.9-3.48a1.671,1.671,0,1,0-1.987,2.684Z" transform="translate(-392.77 -437.072)"/><path class="j" d="M703.06,349.31s.753,9.283,1.505,11.541-1.505,13.8-1.505,13.8" transform="translate(-560.741 -286.932)"/><g transform="translate(83 37.252)"><circle class="k" cx="26" cy="26" r="26" transform="translate(-2 -1)"/><ellipse class="l" cx="2.716" cy="3.557" rx="2.716" ry="3.557" transform="translate(15.302 16.258)"/><ellipse class="l" cx="2.716" cy="3.557" rx="2.716" ry="3.557" transform="translate(28.25 16.258)"/><path class="l" d="M394.255,540.484c0,5.106-8.53,13.708-17.136,13.708s-16.809-8.8-16.809-13.9,8.028-.436,16.639-.436S394.255,535.377,394.255,540.484Z" transform="translate(-352.869 -511.045)"/><path class="m" d="M383.27,578.61s15.471,3.443,28.469.1c0,0,1.591,0,.5,1.839a2.928,2.928,0,0,1-1.188,1.115c-2.5,1.28-11.782,5.064-26.614.239a2.917,2.917,0,0,1-1.925-1.972C382.344,579.3,382.419,578.7,383.27,578.61Z" transform="translate(-373.123 -547.9)"/><path class="n" d="M325.42,266.68s-7.889,5.044-7.825,12.931S325.42,266.68,325.42,266.68Z" transform="translate(-312.434 -260.535)"/><path class="g" d="M255.125,322.61l-.1-.07a.2.2,0,0,1,.039.067Z" transform="translate(-254.663 -311.787)"/><path class="o" d="M252.8,321.23h.057l-.053-.04h.014l-.1-.07a.2.2,0,0,1,.038.066h.021A.188.188,0,0,1,252.8,321.23Z" transform="translate(-252.549 -310.48)"/><path class="j" d="M255.233,325.6l-.093-.07a.2.2,0,0,1,.038.066Z" transform="translate(-254.763 -314.541)"/><path class="j" d="M254.927,542.2a6.085,6.085,0,0,0-.306,1.3C254.7,543.6,254.927,542.2,254.927,542.2Z" transform="translate(-254.279 -514.144)"/></g><path class="d" d="M497.838,465.307c0,.923-1.671,3.6-1.671,3.6s-1.671-2.674-1.671-3.6a1.671,1.671,0,1,1,3.339,0Z" transform="translate(-404.43 -372.628)"/><g transform="translate(127.728 63.147)"><ellipse class="k" cx="31.387" cy="31.387" rx="31.387" ry="31.387"/><ellipse class="p" cx="31.387" cy="31.387" rx="31.387" ry="31.387"/></g><path class="q" d="M821.468,611.2c0,1.385-2.509,5.4-2.509,5.4s-2.509-4.014-2.509-5.4a2.509,2.509,0,1,1,5.018,0Z" transform="translate(-645.726 -481.523)"/><path class="q" d="M837.958,637.405c-.753,1.162-5.038,3.169-5.038,3.169s.078-4.732.83-5.893a2.509,2.509,0,1,1,4.207,2.725Z" transform="translate(-658.071 -500.091)"/><path class="q" d="M834.478,687.16c-1.237.622-5.948.193-5.948.193s2.456-4.044,3.691-4.666a2.509,2.509,0,1,1,2.258,4.476Z" transform="translate(-654.782 -536.796)"/><path class="q" d="M825.391,727.127c-1.114.823-5.83,1.194-5.83,1.194s1.736-4.4,2.85-5.223a2.509,2.509,0,1,1,2.981,4.029Z" transform="translate(-648.059 -567.05)"/><path class="q" d="M809.38,649.853c1,.963,5.617,1.964,5.617,1.964s-1.131-4.594-2.125-5.557a2.509,2.509,0,1,0-3.492,3.6Z" transform="translate(-639.794 -509.114)"/><path class="q" d="M797.043,694.84c1.237.622,5.948.193,5.948.193s-2.456-4.044-3.69-4.666a2.509,2.509,0,1,0-2.258,4.476Z" transform="translate(-630.078 -542.558)"/><path class="q" d="M794.7,742.159c1.114.823,5.831,1.194,5.831,1.194s-1.736-4.4-2.85-5.223a2.509,2.509,0,0,0-2.98,4.029Z" transform="translate(-628.737 -578.419)"/></g></svg>
