<svg xmlns="http://www.w3.org/2000/svg" width="280" height="123.971" viewBox="0 0 280 123.971">
  <defs>
    <style>.a{fill:#e6e6e6;}.b{fill:#00afff;}.c{fill:#0c263d;}.d{fill:#3f3d56;}.e{fill:#ffb8b8;}.f{fill:#2f2e41;}.g{fill:#00c3ae;}.h{fill:#fff;}</style>
  </defs>
  <path class="a" d="M572.434,645.663h59.307a1.82,1.82,0,0,0,0-3.639H572.434A1.82,1.82,0,0,0,572.434,645.663Z" transform="translate(-440.672 -522.255)"/>
  <path class="b" d="M382.428,393.255H323.32a2.358,2.358,0,0,0-2.355,2.355v12.129c2.948.069,4.7,2.637,5.161,5.591l-.12,9.893.509.231c.074,0,0,.211,0,.285v5.49c0,.074.074.158,0,.158l-.509,1.01.134,33.273v2.016l56.288.062a2.358,2.358,0,0,0,2.355-2.355V395.61A2.358,2.358,0,0,0,382.428,393.255Z" transform="translate(-265.965 -349.255)"/>
  <path class="b" d="M592.608,265.834v64.253l-102.859.058V301.956c0-4.026-2.7-6.523-5.373-6.525l-19.407.184.028-29.78Z" transform="translate(-366.998 -258.834)"/>
  <path class="c" d="M581.248,323.292H471.972v-.444H580.8V247.8a3.348,3.348,0,0,0-3.358-3.331h-134.1a3.348,3.348,0,0,0-3.358,3.331l-.009,32.47h-.448l.009-32.47a3.8,3.8,0,0,1,3.806-3.775h134.1a3.8,3.8,0,0,1,3.806,3.775Z" transform="translate(-349.351 -244.024)"/>
  <path class="c" d="M644.551,520.235l-98.929-.039v-.448l98.929.039a9.953,9.953,0,0,0,9.941-9.941v-3.267l-108.863.016v-.448l109.311-.016v3.715a10.4,10.4,0,0,1-10.389,10.389Z" transform="translate(-423.108 -427.309)"/>
  <path class="c" d="M632.167,573.3c-5.533-5.251-9.173-12.1-10.343-21.685h-40.78c-.415,8.964-4.032,15.688-10.556,21.661l-.689.024c6.731-6.029,10.439-12.8,10.807-21.915l.009-.212h41.608l.023.2c1.149,9.744,4.865,16.64,10.535,21.9Z" transform="translate(-440.059 -458.689)"/>
  <path class="c" d="M372.065,454.721h-62.82v-.448h62.82a4.85,4.85,0,0,0,4.845-4.845V372.617a4.85,4.85,0,0,0-4.845-4.845h-62.82a4.85,4.85,0,0,0-4.845,4.845v16.576h-.448V372.617a5.3,5.3,0,0,1,5.292-5.292h62.82a5.3,5.3,0,0,1,5.292,5.292v76.811a5.3,5.3,0,0,1-5.292,5.292Z" transform="translate(-254.464 -330.85)"/>
  <path class="d" d="M421.5,379.03a1.518,1.518,0,1,1,1.518-1.518A1.518,1.518,0,0,1,421.5,379.03Zm0-2.685a1.167,1.167,0,1,0,1.167,1.167A1.167,1.167,0,0,0,421.5,376.344Z" transform="translate(-335.379 -336.277)"/>
  <path class="c" d="M420.542,640.986a1.937,1.937,0,1,1,1.937-1.937,1.937,1.937,0,0,1-1.937,1.937Zm0-3.426a1.489,1.489,0,1,0,1.489,1.489,1.489,1.489,0,0,0-1.489-1.489Z" transform="translate(-334.415 -518.832)"/>
  <path class="c" d="M257.973,504.973H237.178a5.906,5.906,0,0,1-5.9-5.893V445.339a5.906,5.906,0,0,1,5.9-5.893h20.8a5.905,5.905,0,0,1,5.9,5.893v9.617a.582.582,0,0,1,.358.536v6.258a.582.582,0,0,1-.358.536V499.08A5.906,5.906,0,0,1,257.973,504.973Zm-20.8-65.08a5.458,5.458,0,0,0-5.457,5.446V499.08a5.458,5.458,0,0,0,5.457,5.446h20.8a5.458,5.458,0,0,0,5.457-5.446v-37.2h.224a.134.134,0,0,0,.134-.134v-6.258a.134.134,0,0,0-.134-.134h-.224V445.339a5.458,5.458,0,0,0-5.457-5.446Z" transform="translate(-203.58 -381.103)"/>
  <path class="b" d="M262.318,445.058H259.6a2.016,2.016,0,0,1-1.866,2.777H245.825a2.016,2.016,0,0,1-1.866-2.777h-2.535a4.242,4.242,0,0,0-4.242,4.242v53.768a4.242,4.242,0,0,0,4.242,4.242h20.9a4.242,4.242,0,0,0,4.242-4.242h0V449.3A4.242,4.242,0,0,0,262.318,445.058Z" transform="translate(-207.697 -385.013)"/>
  <path class="c" d="M419.68,654.462H140.211a.267.267,0,0,1,0-.533H419.68a.267.267,0,0,1,0,.533Z" transform="translate(-139.946 -530.55)"/>
  <path class="c" d="M622.634,633.666H560.62a4.7,4.7,0,1,1,0-9.4h62.014a4.7,4.7,0,1,1,0,9.4Zm-62.014-8.955a4.254,4.254,0,1,0,0,8.507h62.014a4.254,4.254,0,1,0,0-8.507Z" transform="translate(-430.393 -509.879)"/>
  <path class="e" d="M784.495,277.8l1.737,3.631,14.833-4.971L798.5,271.1Z" transform="translate(-547.616 -189.554)"/>
  <path class="f" d="M0,0H12.651V4.888H4.514A4.514,4.514,0,0,1,0,.374Z" transform="matrix(-0.431, -0.902, 0.902, -0.431, 238.593, 100.433)"/>
  <path class="e" d="M771.761,363.844l4.023-.136.169-15.66-4.716.278Z" transform="translate(-538.378 -243.426)"/>
  <path class="c" d="M0,0H12.651V4.888H4.514A4.514,4.514,0,0,1,0,.374Z" transform="translate(245.211 123.971) rotate(180)"/>
  <path class="c" d="M896.649,488.113a1.508,1.508,0,0,1-1.465-1.148c-2.2-8.854-10.4-53.468-3.153-62.23l.063-.076.1-.024c.509-.129,10.1-3.1,15.735,1.538l.066.054,3.134,9.071,8.447,12.54a6.187,6.187,0,0,1-1.829,8.688l-11.093,7a1.511,1.511,0,0,1-2.2-.757l-2.331-5.828a1.525,1.525,0,0,1,.73-1.919l5.2-2.6a1.114,1.114,0,0,0,.555-.759.9.9,0,0,0-.312-.771l-6.033-5.2a.91.91,0,0,0-1.5.723l1.5,39.48a1.517,1.517,0,0,1-1.279,1.555l-4.08.644A1.53,1.53,0,0,1,896.649,488.113Z" transform="translate(-662.935 -370.046)"/>
  <path class="g" d="M909.341,371.287q-.051,0-.1,0l-15.045-1.114a1.362,1.362,0,0,1-1.187-1.81,14.279,14.279,0,0,0,.326-8.284c-.98-3.864-1-11.047-.93-14.986a2.654,2.654,0,0,1,2.511-2.584V342.5l.3,0a61.253,61.253,0,0,1,10.629.975,5.576,5.576,0,0,1,4.445,5.367,83.219,83.219,0,0,1-.319,11.419c-.35,2.373.3,6.931.713,9.437a1.364,1.364,0,0,1-1.344,1.586Z" transform="translate(-665.221 -312.923)"/>
  <path class="e" d="M947.412,405.5a3.04,3.04,0,0,1-1.155-4.516l-6.949-29.964h5.253l6.133,29.373a3.056,3.056,0,0,1-3.282,5.106Z" transform="translate(-697.921 -332.905)"/>
  <path class="e" d="M854.568,363.646l8.319-7.869,3.134,4.388-7.835,6.895,10.275,8.16c.074-.005.148-.011.224-.011a3.291,3.291,0,1,1-3.258,3.728l-.032.032L854.7,369.7a4.085,4.085,0,0,1-.132-6.054Z" transform="translate(-637.817 -322.203)"/>
  <path class="g" d="M935.087,355.362a1.355,1.355,0,0,1-1.229-.774,16.015,16.015,0,0,1-1.355-4.418,3.714,3.714,0,0,1,3.145-4.311A3.616,3.616,0,0,1,940,348.7a6.208,6.208,0,0,1,.1.616c.214,1.823.416,3.24.6,4.213a1.363,1.363,0,0,1-1.273,1.613l-4.271.214Z" transform="translate(-693.146 -315.177)"/>
  <circle class="f" cx="9.097" cy="9.097" r="9.097" transform="translate(226.887 9.091)"/>
  <circle class="e" cx="7.447" cy="7.447" r="7.447" transform="translate(228.591 13.102)"/>
  <path class="g" d="M877.06,348.695a1.355,1.355,0,0,1-.383-1.4,16.016,16.016,0,0,1,1.986-4.172,3.714,3.714,0,0,1,5.231-1.053,3.616,3.616,0,0,1,1.284,5.036,6.21,6.21,0,0,1-.34.524c-1.073,1.488-1.882,2.67-2.4,3.511a1.363,1.363,0,0,1-2.029.329l-3.293-2.728Z" transform="translate(-654.24 -312.126)"/>
  <path class="f" d="M911.667,257.687a4.234,4.234,0,0,1-1.136-5.644,6.491,6.491,0,0,1,5.425-2.85,11.216,11.216,0,0,1,8.113,3.6,22.073,22.073,0,0,1,4.607,7.81c1.071,2.85,1.84,5.806,2.9,8.662a8.409,8.409,0,0,0,2.448,3.922c1.239.952,3.209,1.123,4.268-.025a4.52,4.52,0,0,1-3.161,4.078,6.222,6.222,0,0,1-5.256-.876c-2.658-1.761-3.941-4.976-4.674-8.079s-1.095-6.354-2.569-9.181A6.441,6.441,0,0,0,920,256.224a3.284,3.284,0,0,0-3.7.362,12.234,12.234,0,0,1-1.221,1.363,2.44,2.44,0,0,1-2.134.222,7.216,7.216,0,0,1-1.929-1.089" transform="translate(-677.45 -247.624)"/>
  <path class="f" d="M896.02,284.432a8.91,8.91,0,0,0,12.772,1.594,3.044,3.044,0,0,0,1.349-2.33,3.118,3.118,0,0,0-1.622-2.23,10.457,10.457,0,0,0-7.1-1.631,6.569,6.569,0,0,0-3.843,1.726,3.827,3.827,0,0,0-.986,3.937" transform="translate(-667.759 -268.915)"/>
  <path class="h" d="M20.588,9.162H15.14L11.9,12.4h8.687a7.25,7.25,0,1,1-1.94-6.746l1.167-1.168,0,0L24.305,0h-4.58L18.29,1.434A10.491,10.491,0,0,0,4.178,15.547L0,19.723H4.583L6.11,18.2A10.485,10.485,0,0,0,23.883,9.162Z" transform="translate(150 27)"/>
  <path class="h" d="M17.179,7.645H12.633l-2.7,2.7h7.248a6.05,6.05,0,1,1-1.619-5.629l.974-.974h0L20.281,0H16.459l-1.2,1.2A8.754,8.754,0,0,0,3.486,12.973L0,16.457H3.824L5.1,15.183A8.749,8.749,0,0,0,19.929,7.645Z" transform="translate(76.012 70.761)"/>
  <path class="h" d="M11.882,5.288H8.738L6.869,7.157h5.013a4.184,4.184,0,1,1-1.12-3.893l.673-.674h0L14.027,0H11.384l-.828.828A6.055,6.055,0,0,0,2.411,8.973L0,11.383H2.645l.881-.881A6.051,6.051,0,0,0,13.784,5.288Z" transform="translate(36.139 84.497)"/>
</svg>