<svg xmlns="http://www.w3.org/2000/svg" xmlns:xlink="http://www.w3.org/1999/xlink" width="100%" height="100%" viewBox="0 0 229.8 237.379"><defs><style>.a{fill:#eee;}.b{fill:#a3a3a3;}.c{fill:#b0bec5;}.d{fill:url(#a);}.e{fill:#eceff1;}.f{fill:#00afff;}.g{fill:url(#d);}.h{opacity:0.3;}.i{fill:url(#f);}.j{fill:url(#g);}.k{fill:url(#h);}.l{fill:url(#i);}.m{fill:url(#j);}.n{fill:url(#l);}.ac,.o{opacity:0.2;}.p{fill:url(#n);}.q{fill:url(#o);}.r{fill:url(#p);}.s{fill:url(#q);}.t{fill:url(#r);}.u{fill:url(#s);}.v{fill:url(#t);}.w{fill:url(#u);}.x{fill:url(#w);}.y{fill:url(#x);}.z{fill:url(#y);}.aa{fill:#fbbebe;}.ab{fill:#0c263d;}.ac,.ad,.ag{fill:#fff;}.ae{fill:url(#ab);}.af{fill:#cbcbcb;}.ag{font-size:6px;font-family:RobotoSlab-Bold, Roboto Slab;font-weight:700;letter-spacing:0.01em;}</style><linearGradient id="a" x1="0.5" y1="1" x2="0.5" gradientUnits="objectBoundingBox"><stop offset="0" stop-color="gray" stop-opacity="0.251"/><stop offset="0.54" stop-color="gray" stop-opacity="0.122"/><stop offset="1" stop-color="gray" stop-opacity="0.102"/></linearGradient><linearGradient id="d" y1="0.5" x2="1" y2="0.5" gradientUnits="objectBoundingBox"><stop offset="0" stop-color="#33bfff"/><stop offset="0.1" stop-color="#2dc0f7"/><stop offset="0.2" stop-color="#28c0ef"/><stop offset="0.3" stop-color="#23c0e7"/><stop offset="0.4" stop-color="#1ec1df"/><stop offset="0.5" stop-color="#19c1d7"/><stop offset="0.6" stop-color="#14c1cf" stop-opacity="0.796"/><stop offset="0.7" stop-color="#0fc2c7" stop-opacity="0.596"/><stop offset="0.8" stop-color="#0ac2bf" stop-opacity="0.396"/><stop offset="0.9" stop-color="#05c2b7" stop-opacity="0.204"/><stop offset="1" stop-color="#00c3af" stop-opacity="0.29"/></linearGradient><linearGradient id="f" x1="0.5" y1="1" x2="0.5" y2="0.002" xlink:href="#a"/><linearGradient id="g" x1="0.5" y1="1" x2="0.5" y2="0" xlink:href="#a"/><linearGradient id="h" x1="0.5" y1="1" x2="0.5" y2="0" xlink:href="#a"/><linearGradient id="i" x1="0.5" y1="1" x2="0.5" y2="0" xlink:href="#a"/><linearGradient id="j" x1="0.5" y1="1" x2="0.5" y2="0" xlink:href="#a"/><linearGradient id="l" x1="0.5" y1="1" x2="0.5" y2="0" xlink:href="#a"/><linearGradient id="n" x1="0.5" y1="1" x2="0.5" y2="0" xlink:href="#a"/><linearGradient id="o" x1="0.5" y1="1" x2="0.5" y2="0" xlink:href="#a"/><linearGradient id="p" x1="0.501" y1="1.001" x2="0.501" y2="0.001" xlink:href="#a"/><linearGradient id="q" x1="0.5" y1="1" x2="0.5" y2="0" xlink:href="#a"/><linearGradient id="r" x1="0.5" y1="1" x2="0.5" y2="0" xlink:href="#a"/><linearGradient id="s" x1="0.5" y1="1" x2="0.5" y2="0" xlink:href="#a"/><linearGradient id="t" x1="0.5" y1="1" x2="0.5" y2="0" xlink:href="#a"/><linearGradient id="u" x1="0.5" y1="1" x2="0.5" y2="0" xlink:href="#a"/><linearGradient id="w" x1="0.5" y1="1" x2="0.5" y2="0" xlink:href="#a"/><linearGradient id="x" x1="0.5" y1="1" x2="0.5" y2="0" xlink:href="#a"/><linearGradient id="y" x1="0.5" y1="1" x2="0.5" y2="0" xlink:href="#a"/><linearGradient id="ab" x1="0.5" y1="1" x2="0.5" y2="0" xlink:href="#a"/></defs><ellipse class="a" cx="114.9" cy="30.227" rx="114.9" ry="30.227" transform="translate(0 176.925)"/><path class="b" d="M34.2-.737H0L3.126,8.316h34.2Z" transform="translate(166.577 74.135)"/><g transform="translate(21.193)"><rect class="c" width="2.685" height="1.791" transform="translate(94.534 79.372)"/><rect class="c" width="2.685" height="1.791" transform="translate(98.113 79.372)"/><rect class="c" width="2.685" height="1.791" transform="translate(101.695 79.372)"/><rect class="c" width="2.685" height="1.791" transform="translate(105.274 79.372)"/><rect class="c" width="2.685" height="1.791" transform="translate(108.856 79.372)"/><rect class="c" width="2.685" height="1.791" transform="translate(112.438 79.372)"/><rect class="c" width="2.685" height="1.791" transform="translate(116.018 79.372)"/><rect class="c" width="2.685" height="1.791" transform="translate(119.6 79.372)"/><rect class="c" width="2.685" height="1.791" transform="translate(123.179 79.372)"/><rect class="c" width="2.685" height="1.791" transform="translate(126.761 79.372)"/><rect class="d" width="115.529" height="128.943" transform="translate(72.707 80.615)"/><rect class="e" width="111.712" height="40.046" transform="translate(74.617 166.705)"/><circle class="d" cx="11.26" cy="11.26" r="11.26" transform="translate(159.251 175.35)"/><circle class="f" cx="10.445" cy="10.445" r="10.445" transform="translate(160.066 175.887)"/><rect class="e" width="111.712" height="40.046" transform="translate(74.617 125.1)"/><path class="d" d="M11.26,0A11.26,11.26,0,1,1,0,11.26,11.26,11.26,0,0,1,11.26,0Z" transform="translate(159.251 133.749)"/><circle class="f" cx="10.445" cy="10.445" r="10.445" transform="translate(160.066 134.285)"/><rect class="e" width="111.712" height="40.046" transform="translate(74.617 83.499)"/><path class="g" d="M51.274,20.519V0H55.6V20.519Zm-8.543,0V0h4.328V20.519Zm-8.547,0V0h4.329V20.519Zm-8.546,0V0h4.329V20.519Zm-8.546,0V0h4.329V20.519Zm-8.546,0V0h4.328V20.519ZM0,20.519V0H4.328V20.519Z" transform="translate(83.786 92.996)"/><circle class="d" cx="11.26" cy="11.26" r="11.26" transform="translate(159.251 91.866)"/><circle class="f" cx="10.445" cy="10.445" r="10.445" transform="translate(160.066 92.681)"/><path class="i" d="M632.537,356.836H591.279a1.419,1.419,0,0,1-1.419-1.419v-2.248a1.419,1.419,0,0,1,1.419-1.419h41.258Z" transform="translate(-498.616 -271.496)"/><path class="c" d="M634.421,356.982H593.909a1.419,1.419,0,0,1-1.419-1.419v-1.354a1.419,1.419,0,0,1,1.419-1.419h40.512Z" transform="translate(-500.499 -272.24)"/><path class="j" d="M364.617,245.322l29.8,26.363,34.628-7.314-2.682-7.8-26.834,3.168-26.848-23.558a6.1,6.1,0,0,0-9,1.061h0A6.1,6.1,0,0,0,364.617,245.322Z" transform="translate(-335.833 -187.641)"/><path class="k" d="M589.972,318.913s8.833.244,12.1-4.632-14.779-3.17-14.779-3.17Z" transform="translate(-496.775 -242.184)"/><circle class="l" cx="15.361" cy="15.361" r="15.361" transform="translate(9.514 9.775)"/><path class="m" d="M286.927,213.156S267.2,226.44,272.21,267.5a35.949,35.949,0,0,1-1.266,14.779l-2.555,8.4s43.4.976,44.616,0c.755-.6.167-16.079-1.95-37.546-1.3-13.15,2.77-31.443-11.214-41.44Z" transform="translate(-268.39 -171.197)"/><path class="d" d="M44.616,419.27l19.261,40.716,2.194,41.446H52.419l-5.853-42.91L34.863,437.8l-11.7,63.633H9.508l4.144-47.3L0,419.758Z" transform="translate(0.006 -300.266)"/><path class="n" d="M464.289,777.74l4.144,6.338s13.908,5.365,7.8,8.776H449.66V777.74Z" transform="translate(-398.209 -576.575)"/><path class="n" d="M312.249,777.74l4.144,6.338s13.908,5.365,7.8,8.776H297.62V777.74Z" transform="translate(-289.323 -576.575)"/><g class="o" transform="translate(17.552 9.526)"><path class="p" d="M337.8,102.569a15.284,15.284,0,0,0-7.567,1.987A15.358,15.358,0,0,1,343.9,132.016,15.361,15.361,0,0,0,337.8,102.56Z" transform="translate(-330.23 -102.56)"/></g><path class="q" d="M320.971,69,316.7,75.528c-1.536,2.347-3.766,5.013-6.528,4.468a8.347,8.347,0,0,1-3.335-1.987,19.482,19.482,0,0,0-11.779-4.493,13.365,13.365,0,0,0-11.069,5.435c-1.785,2.608-2.4,5.827-2.753,8.966-.707,6.278,0,13.689,5.242,17.215a2.464,2.464,0,0,0,1.487.536,2.619,2.619,0,0,0,1.453-.755c6.562-5.5,10.218-14.439,18.12-18.214,3.488-1.663,8.563-1.677,11.376-4.5C323.054,78.04,318.467,72.823,320.971,69Z" transform="translate(-277.422 -69)"/><g class="o" transform="translate(9.568)"><path class="r" d="M338.32,89.389a8.2,8.2,0,0,0,3.335,1.987,3.69,3.69,0,0,0,1.578-.031,8.694,8.694,0,0,1-3.2-1.961A19.482,19.482,0,0,0,328.25,84.89c-.3,0-.6,0-.9.026A19.856,19.856,0,0,1,338.32,89.389Z" transform="translate(-320.183 -80.38)"/><path class="s" d="M336.081,69l-2.466,3.772c.236,3.1,1.6,6.528-1.291,9.423-2.816,2.838-7.891,2.838-11.376,4.5-7.91,3.775-11.561,12.719-18.12,18.214a4.68,4.68,0,0,1-.727.522,1.9,1.9,0,0,0,.979.233,2.619,2.619,0,0,0,1.453-.755c6.562-5.5,10.218-14.439,18.12-18.214,3.488-1.663,8.563-1.677,11.376-4.5C338.164,78.04,333.577,72.823,336.081,69Z" transform="translate(-302.1 -69)"/></g><g class="o" transform="translate(28.5 40.506)"><path class="t" d="M382.975,253.15c-1.3-13.15,2.77-31.443-11.214-41.44l-2.96.335c13.44,10.07,9.48,28.1,10.763,41.111,2.117,21.466,2.708,36.941,1.95,37.546-.372.284-4.666.414-10.454.431,7.445.02,13.425-.077,13.868-.431C385.68,290.091,385.089,274.616,382.975,253.15Z" transform="translate(-368.8 -211.71)"/></g><path class="u" d="M334.346,263.706l29.8,26.363,34.628-7.314-2.708-7.8-26.82,3.17L342.4,254.566a6.1,6.1,0,0,0-9,1.062h0A6.1,6.1,0,0,0,334.346,263.706Z" transform="translate(-314.151 -200.811)"/><path class="v" d="M559.691,337.293s8.833.244,12.1-4.632S557,329.491,557,329.491Z" transform="translate(-475.082 -255.347)"/><rect class="w" width="13.164" height="13.164" rx="6.582" transform="translate(18.29 33.915)"/><g class="o" transform="translate(20.484 119.003)"><path class="d" d="M83.853,484.55l-11.7,63.633h2.682l11.044-60.051Z" transform="translate(-72.15 -466.021)"/><path class="x" d="M169.719,459.986,150.458,419.27l-2.668.028,19.247,40.688,2.194,41.446h2.682Z" transform="translate(-126.321 -419.27)"/></g><g class="o" transform="translate(64.859 201.168)"><path class="y" d="M502.264,784.088l-4.144-6.338H496.9l4.144,6.338s13.9,5.37,7.805,8.776h1.218C516.161,789.458,502.264,784.088,502.264,784.088Z" transform="translate(-496.9 -777.75)"/></g><g class="o" transform="translate(22.928 201.168)"><path class="z" d="M354.532,784.088l-4.144-6.338H349.17l4.144,6.338s13.908,5.364,7.8,8.776h1.218C368.423,789.458,354.532,784.088,354.532,784.088Z" transform="translate(-349.17 -777.75)"/></g><g class="o" transform="translate(60.948 73.899)"><path class="d" d="M240.108,261.87l-.519-1.51L214.71,263.3Z" transform="translate(-214.71 -260.36)"/></g><path class="s" d="M43.17,181.1l8.285-15.648,13.806,5.217L51.455,190.609Z" transform="translate(-30.911 -118.489)"/><path class="aa" d="M367.081,250.92l28.977,25.642,33.671-7.113-2.608-7.587-26.084,3.082-26.113-22.923a5.932,5.932,0,0,0-8.756,1.033h0A5.932,5.932,0,0,0,367.081,250.92Z" transform="translate(-337.636 -191.857)"/><path class="aa" d="M586.268,322.506s8.592.238,11.765-4.5-14.373-3.082-14.373-3.082Z" transform="translate(-494.175 -244.917)"/><circle class="aa" cx="14.938" cy="14.938" r="14.938" transform="translate(10.703 12.475)"/><path class="ab" d="M291.531,219.654s-19.187,12.92-14.314,52.861a34.966,34.966,0,0,1-1.232,14.376l-2.475,8.172s42.209.948,43.4,0c.735-.588.162-15.639-1.9-36.518-1.26-12.79,2.694-30.583-10.908-40.3Z" transform="translate(-272.057 -175.88)"/><path class="f" d="M48.5,418.22l18.733,39.6,2.132,40.31H56.082L50.392,456.4,39.01,436.241l-11.382,61.89H14.347l4.03-46L5.1,418.694Z" transform="translate(-3.647 -299.514)"/><path class="ab" d="M464.019,768.76l4.03,6.165s13.516,5.217,7.587,8.538H449.79v-14.7Z" transform="translate(-398.302 -570.144)"/><path class="ab" d="M316.134,768.76l4.03,6.165s13.516,5.217,7.587,8.538H301.92v-14.7Z" transform="translate(-292.403 -570.144)"/><path class="ac" d="M341,112.081a14.864,14.864,0,0,0-7.36,1.941,14.938,14.938,0,0,1,13.3,26.695A14.941,14.941,0,0,0,341,112.07Z" transform="translate(-315.12 -99.845)"/><path class="ab" d="M324.641,79.44,320.486,85.8c-1.493,2.271-3.661,4.873-6.338,4.346a7.945,7.945,0,0,1-3.241-1.939,18.965,18.965,0,0,0-11.444-4.371,13.083,13.083,0,0,0-10.786,5.285c-1.734,2.535-2.333,5.677-2.679,8.722-.687,6.105,0,13.315,5.109,16.746a2.4,2.4,0,0,0,1.445.519,2.626,2.626,0,0,0,1.419-.735c6.381-5.345,9.934-14.044,17.626-17.714,3.392-1.618,8.328-1.632,11.07-4.38C326.671,88.233,322.209,83.158,324.641,79.44Z" transform="translate(-280.84 -76.477)"/><g class="o" transform="translate(10.74 2.963)"><path class="ad" d="M341.575,99.281a7.908,7.908,0,0,0,3.241,1.939,3.6,3.6,0,0,0,1.536-.028,8.485,8.485,0,0,1-3.122-1.907,18.907,18.907,0,0,0-11.436-4.374c-.284,0-.582,0-.874.026A19.245,19.245,0,0,1,341.575,99.281Z" transform="translate(-323.912 -90.519)"/><path class="ad" d="M339.291,79.44l-2.4,3.67c.227,3.017,1.555,6.341-1.257,9.165-2.739,2.748-7.664,2.762-11.07,4.38-7.695,3.67-11.243,12.37-17.626,17.714a4.541,4.541,0,0,1-.707.508,1.851,1.851,0,0,0,.951.227,2.626,2.626,0,0,0,1.419-.735c6.381-5.345,9.934-14.044,17.626-17.714,3.392-1.618,8.328-1.632,11.07-4.38C341.32,88.233,336.859,83.158,339.291,79.44Z" transform="translate(-306.23 -79.44)"/></g><path class="ac" d="M384.936,258.535c-1.26-12.79,2.694-30.583-10.908-40.3l-2.878.326c13.071,9.8,9.219,27.336,10.468,39.987,2.058,20.879,2.631,35.931,1.9,36.518-.36.284-4.541.4-10.167.42,7.243.02,13.056-.077,13.488-.42C387.57,294.465,387,279.416,384.936,258.535Z" transform="translate(-341.983 -175.873)"/><path class="aa" d="M337.628,268.8l28.977,25.63,33.671-7.113-2.608-7.587-26.084,3.082-26.113-22.923a5.932,5.932,0,0,0-8.756,1.033h0A5.932,5.932,0,0,0,337.628,268.8Z" transform="translate(-316.54 -204.655)"/><path class="aa" d="M556.828,340.376s8.592.238,11.765-4.5-14.373-3.082-14.373-3.082Z" transform="translate(-473.091 -257.715)"/><rect class="aa" width="12.804" height="12.804" rx="6.402" transform="translate(19.238 35.948)"/><g class="o" transform="translate(21.373 118.705)"><path class="ad" d="M86.662,481.71,75.28,543.6h2.608l10.74-58.4Z" transform="translate(-75.28 -463.689)"/><path class="ad" d="M170.17,457.821l-18.733-39.6-2.6.028,18.722,39.572,2.132,40.31H172.3Z" transform="translate(-127.961 -418.22)"/></g><path class="ac" d="M500.957,774.935l-4.03-6.165H495.74l4.031,6.165s13.516,5.217,7.587,8.538h1.186C514.473,780.152,500.957,774.935,500.957,774.935Z" transform="translate(-431.21 -570.151)"/><path class="ac" d="M357.231,774.935l-4.03-6.165H352l4.03,6.165s13.516,5.217,7.587,8.538H364.8C370.733,780.152,357.231,774.935,357.231,774.935Z" transform="translate(-328.269 -570.151)"/><path class="ac" d="M238.629,265.137l-.5-1.467-24.2,2.858Z" transform="translate(-153.204 -188.831)"/><path class="ab" d="M47.09,186.576l8.055-15.216,13.428,5.072L55.145,195.827Z" transform="translate(-33.719 -122.722)"/><path class="ae" d="M730.24,269.152l24.41-33.192a1.419,1.419,0,0,1,1.987-.3l1.135.837a1.419,1.419,0,0,1,.3,1.987l-24.41,33.192Z" transform="translate(-599.151 -188.157)"/><path class="c" d="M731.95,271.791l24-32.641a1.419,1.419,0,0,1,1.987-.3l.116.085a1.419,1.419,0,0,1,.3,1.987l-24,32.641Z" transform="translate(-600.376 -190.441)"/><path class="g" d="M51.274,20.519V0H55.6V20.519Zm-8.543,0V0h4.328V20.519Zm-8.547,0V0h4.329V20.519Zm-8.546,0V0h4.329V20.519Zm-8.546,0V0h4.329V20.519Zm-8.546,0V0h4.328V20.519ZM0,20.519V0H4.328V20.519Z" transform="translate(83.786 134.323)"/><path class="g" d="M51.274,20.519V0H55.6V20.519Zm-8.543,0V0h4.328V20.519Zm-8.547,0V0h4.329V20.519Zm-8.546,0V0h4.329V20.519Zm-8.546,0V0h4.329V20.519Zm-8.546,0V0h4.328V20.519ZM0,20.519V0H4.328V20.519Z" transform="translate(83.786 175.651)"/></g><path class="af" d="M3.126-.737h34.2L34.2,8.316H0Z" transform="translate(163.56 74.135)"/><text class="ag" transform="translate(171.261 80.398)"><tspan x="0" y="0">HADAR</tspan></text></svg>
