<svg width="123" height="16" viewBox="0 0 123 16" fill="none" xmlns="http://www.w3.org/2000/svg">
<path d="M93.7331 15.7315H96.2298V0.228577H93.7331V15.7315Z" fill="white"/>
<path d="M98.7281 15.7315H101.225V0.228577H98.7281V15.7315Z" fill="white"/>
<path d="M89.3373 5.06373C88.29 4.31088 87.0228 3.90649 85.7211 3.90809C82.3478 3.91128 79.6131 6.57422 79.6082 9.85894C79.6115 13.1452 82.3462 15.8066 85.7211 15.8114C87.0228 15.8114 88.29 15.407 89.3373 14.6557V15.7315H91.8339V4.12067H89.3373V5.06373ZM85.7211 13.3802C83.725 13.3786 82.1082 11.8026 82.1065 9.85894C82.1082 7.91528 83.7267 6.34085 85.7211 6.33925C87.7171 6.34085 89.334 7.91528 89.3373 9.85894C89.3356 11.8026 87.7171 13.377 85.7211 13.3802Z" fill="white"/>
<path d="M32.222 9.96282C32.2187 6.67651 29.484 4.01517 26.1091 4.01038C22.7359 4.01357 20.0012 6.67651 19.9979 9.96282C20.0012 13.2491 22.7359 15.9105 26.1091 15.9153C29.484 15.9121 32.2187 13.2491 32.222 9.96282ZM22.4946 9.96282C22.4963 8.01917 24.1148 6.44474 26.1108 6.44314C28.1068 6.44474 29.7237 8.01917 29.727 9.96282C29.7253 11.9065 28.1068 13.4809 26.1108 13.4825C24.1148 13.4809 22.4979 11.9049 22.4946 9.96282Z" fill="white"/>
<path d="M45.5377 9.96282C45.5344 6.67651 42.7997 4.01517 39.4248 4.01038C36.0499 4.01357 33.3169 6.67651 33.312 9.96282C33.3152 13.2491 36.0499 15.9121 39.4248 15.9153C42.7997 15.9121 45.5328 13.2491 45.5377 9.96282ZM35.8103 9.96282C35.8119 8.01917 37.4304 6.44474 39.4265 6.44314C41.4225 6.44474 43.0394 8.02077 43.0426 9.96282C43.0394 11.9065 41.4225 13.4809 39.4265 13.4825C37.4304 13.4809 35.8136 11.9049 35.8103 9.96282Z" fill="white"/>
<path d="M56.3091 5.16762C55.2618 4.41478 53.9946 4.01038 52.6929 4.01198C49.318 4.01518 46.585 6.67811 46.58 9.96283C46.5833 13.2491 49.318 15.9121 52.6929 15.9153C56.0678 15.9121 58.8009 13.2491 58.8041 9.96283C58.8041 9.82696 58.7992 9.6911 58.791 9.55843H58.8041V0.332458H56.3074V5.16762H56.3091ZM52.6929 13.4841C50.6969 13.4825 49.08 11.9065 49.0784 9.96283C49.0817 8.01917 50.6985 6.44475 52.6929 6.44315C54.6889 6.44475 56.3058 8.01917 56.3091 9.96283C56.3074 11.9065 54.6889 13.4809 52.6929 13.4841Z" fill="white"/>
<path d="M19.3282 0H15.7974L14.691 1.07732C13.5518 0.511488 12.2928 0.217383 11.0141 0.220579C6.55094 0.225375 2.93312 3.74825 2.92819 8.09431C2.92819 9.33786 3.23023 10.5638 3.81131 11.6715L0.590729 14.8044H4.12483L5.30177 13.6583C6.81522 15.1369 8.87199 15.968 11.0158 15.9664C15.4806 15.9616 19.0968 12.4388 19.1017 8.09111C19.1017 7.68352 19.0689 7.27752 19.0048 6.87473H12.2633L9.76659 9.30589H16.4638C15.8778 11.777 13.6208 13.5305 11.0158 13.5337C7.92978 13.5305 5.42981 11.0945 5.42652 8.09111C5.42981 5.08611 7.92978 2.65175 11.0158 2.64855C12.498 2.64535 13.9212 3.21918 14.9668 4.24216L15.868 3.36623L19.3282 0Z" fill="white"/>
<path d="M74.9202 11.2432L71.9638 0.0655518H68.9895L65.8034 11.3231L62.8618 0.0655518H59.9433L64.1931 14.6829L64.2276 14.7996L67.1954 14.7772L70.365 4.30611L73.3164 14.6606L73.3493 14.7788H76.34L80.8196 0.0655518H77.8765L74.9202 11.2432Z" fill="white"/>
<path d="M109.012 3.89691C105.416 3.89691 102.999 6.32488 102.999 9.93887C102.999 13.5529 105.471 16 109.012 16C111.671 16 113.794 14.5854 114.549 12.3061L114.618 12.0967H111.674L111.63 12.1862C111.13 13.1852 110.248 13.6919 109.012 13.6919C107.3 13.6919 106.079 12.637 105.855 10.9874H114.767L114.788 10.8532C114.847 10.4871 114.875 10.1115 114.875 9.66874C114.875 6.27054 112.464 3.89691 109.012 3.89691ZM105.887 8.76404C106.18 7.20241 107.349 6.205 108.905 6.205C110.637 6.205 111.89 7.24876 112.008 8.76404H105.887Z" fill="white"/>
<path d="M122.773 6.32808V4.08233H119.923V1.24677H117.149V4.08393H115.767V6.32968H117.149V12.4867C117.149 14.7261 118.309 15.8146 120.694 15.8146H122.773V13.5273H121.12C120.213 13.5273 119.923 13.2747 119.923 12.4867V6.32968H122.773V6.32808Z" fill="white"/>
</svg>
