<svg width="320" height="72" viewBox="0 0 320 72" fill="none" xmlns="http://www.w3.org/2000/svg">
<path d="M70.4 36.0001C70.4 16.5594 54.6405 0.799988 35.1994 0.799988C15.761 0.799988 0 16.5595 0 36.0002C0 55.4409 15.761 71.2 35.1994 71.2C54.6405 71.2 70.4 55.4405 70.4 36.0002V36.0001ZM52.7636 19.3256L45.6351 26.4544C45.6351 26.4533 45.6332 26.4533 45.6332 26.4518L43.7793 28.3047C42.7126 27.2324 41.4438 26.3823 40.0464 25.8036C38.6489 25.2249 37.1506 24.9291 35.6381 24.9333C32.5859 24.9366 29.6597 26.1506 27.5015 28.3089C25.3432 30.4672 24.1293 33.3936 24.1261 36.4458C24.129 39.4984 25.3428 42.425 27.501 44.5836C29.6593 46.7422 32.5857 47.9564 35.6381 47.9598C38.2437 47.9563 40.7714 47.0706 42.8092 45.447C44.8471 43.8233 46.2751 41.5574 46.8606 39.0184H33.0655L38.2088 33.8747H52.0939C52.2266 34.7253 52.2932 35.5849 52.2934 36.4458C52.2887 40.8619 50.5325 45.0957 47.4101 48.2185C44.2877 51.3413 40.0541 53.0979 35.6381 53.103C33.4516 53.1044 31.2864 52.6738 29.2667 51.836C27.2471 50.9981 25.4128 49.7696 23.8693 48.2209L21.4447 50.6454H14.1662L20.802 44.0139C19.603 41.6718 18.9792 39.0778 18.9823 36.4466C18.9873 32.0306 20.7436 27.7969 23.8661 24.6743C26.9886 21.5517 31.2222 19.7952 35.6381 19.7902C38.2709 19.7846 40.8671 20.4063 43.2118 21.6037L45.49 19.3256H52.7636Z" fill="#081C3E"/>
<path d="M145.933 39.9715C145.929 36.651 144.618 33.4675 142.288 31.1196C139.957 28.7716 136.797 27.4509 133.502 27.4474C130.206 27.4511 127.046 28.7718 124.716 31.1197C122.385 33.4677 121.074 36.6511 121.071 39.9715C121.074 43.292 122.385 46.4754 124.716 48.8233C127.046 51.1713 130.206 52.492 133.502 52.4957C136.797 52.4921 139.957 51.1715 142.288 48.8235C144.618 46.4755 145.929 43.292 145.933 39.9715ZM126.148 39.9715C126.15 38.0074 126.926 36.1244 128.304 34.7357C129.683 33.3469 131.552 32.5658 133.502 32.5637C135.451 32.5658 137.32 33.3469 138.699 34.7357C140.077 36.1245 140.853 38.0074 140.855 39.9715C140.853 41.9357 140.077 43.8188 138.699 45.2077C137.32 46.5966 135.451 47.3778 133.502 47.3798C131.552 47.3769 129.684 46.5954 128.306 45.2067C126.928 43.8179 126.153 41.9352 126.15 39.9715" fill="#081C3E"/>
<path d="M173.016 39.9715C173.012 36.6511 171.701 33.4678 169.371 31.1199C167.04 28.772 163.88 27.4512 160.585 27.4474C157.289 27.4508 154.129 28.7714 151.798 31.1194C149.467 33.4674 148.156 36.6509 148.153 39.9715C148.156 43.2921 149.467 46.4757 151.798 48.8237C154.129 51.1717 157.289 52.4923 160.585 52.4957C163.88 52.492 167.04 51.1713 169.371 48.8233C171.701 46.4754 173.012 43.292 173.016 39.9715ZM153.231 39.9715C153.233 38.0074 154.008 36.1243 155.387 34.7355C156.766 33.3467 158.635 32.5657 160.585 32.5637C162.534 32.566 164.403 33.3471 165.782 34.7358C167.16 36.1246 167.936 38.0075 167.938 39.9715C167.936 41.9356 167.16 43.8186 165.782 45.2074C164.403 46.5962 162.534 47.3775 160.585 47.3798C158.635 47.3771 156.767 46.5956 155.389 45.2068C154.011 43.818 153.236 41.9353 153.233 39.9715" fill="#081C3E"/>
<path d="M194.923 29.88C192.794 28.2971 190.216 27.4444 187.57 27.4474C184.274 27.4508 181.114 28.7713 178.783 31.1192C176.453 33.4671 175.142 36.6505 175.138 39.971C175.142 43.2917 176.452 46.4754 178.783 48.8235C181.114 51.1716 184.274 52.4922 187.57 52.4957C190.866 52.4918 194.025 51.171 196.356 48.8229C198.686 46.4749 199.997 43.2914 200 39.971C200 39.6849 199.99 39.4004 199.972 39.1195H200V19.7066H194.923V29.88ZM187.57 47.3819C185.62 47.3797 183.75 46.5981 182.372 45.2087C180.993 43.8193 180.218 41.9356 180.216 39.971C180.219 38.007 180.994 36.1241 182.373 34.7355C183.751 33.3468 185.62 32.5658 187.57 32.5637C189.519 32.566 191.388 33.347 192.767 34.7357C194.145 36.1243 194.921 38.0071 194.923 39.971C194.922 41.9355 194.146 43.8192 192.768 45.2086C191.389 46.5979 189.52 47.3796 187.57 47.3819Z" fill="#081C3E"/>
<path d="M119.708 19.0057H112.528L110.279 21.2726C107.963 20.0819 105.399 19.4634 102.799 19.4684C98.4395 19.4735 94.2596 21.2208 91.1768 24.3268C88.094 27.4329 86.36 31.6441 86.3552 36.0365C86.3523 38.6536 86.9683 41.2337 88.1522 43.5631L81.6001 50.16H88.7869L91.1792 47.7498C92.7034 49.29 94.5146 50.5119 96.5086 51.3451C98.5027 52.1784 100.641 52.6068 102.799 52.6057C107.16 52.601 111.34 50.8538 114.423 47.7475C117.507 44.6412 119.241 40.4295 119.246 36.0365C119.245 35.1798 119.18 34.3244 119.05 33.4778H105.339L100.259 38.5937H113.881C113.302 41.1196 111.892 43.374 109.88 44.9893C107.868 46.6047 105.372 47.4858 102.799 47.4893C99.785 47.4858 96.8957 46.2781 94.7648 44.131C92.6338 41.9839 91.4353 39.0728 91.4321 36.0365C91.4347 32.9998 92.6331 30.0881 94.7642 27.9406C96.8953 25.793 99.7851 24.585 102.799 24.5817C104.293 24.5775 105.772 24.8717 107.152 25.4473C108.532 26.0229 109.784 26.8685 110.837 27.9351L119.708 19.0057Z" fill="#081C3E"/>
<path d="M215.183 19.0164H204.8V52.6051H215.183C219.627 52.6 223.888 50.829 227.03 47.6807C230.172 44.5323 231.94 40.2637 231.945 35.8113C231.94 31.3588 230.172 27.0901 227.03 23.9415C223.888 20.793 219.627 19.0217 215.183 19.0164ZM215.183 47.3618H210.033V24.2587H215.183C218.24 24.2625 221.17 25.4809 223.332 27.6465C225.493 29.8122 226.709 32.7483 226.712 35.8107C226.709 38.8731 225.493 41.8091 223.332 43.9746C221.17 46.1401 218.24 47.3582 215.183 47.3618Z" fill="#081C3E"/>
<path d="M246.66 26.9383C243.264 26.9419 240.008 28.2952 237.606 30.7012C235.205 33.1072 233.854 36.3693 233.85 39.772C233.854 43.1745 235.205 46.4366 237.606 48.8426C240.008 51.2485 243.264 52.6018 246.66 52.6056C250.056 52.6017 253.312 51.2483 255.714 48.8424C258.115 46.4365 259.466 43.1745 259.47 39.772C259.466 36.3694 258.115 33.1073 255.714 30.7014C253.312 28.2954 250.056 26.9421 246.66 26.9383ZM246.66 47.3628C244.651 47.3608 242.725 46.5605 241.304 45.1374C239.884 43.7143 239.085 41.7847 239.082 39.772C239.084 37.7592 239.884 35.8294 241.304 34.4062C242.725 32.983 244.651 32.1826 246.66 32.1806C248.669 32.1827 250.595 32.9832 252.016 34.4064C253.436 35.8296 254.235 37.7592 254.237 39.772C254.235 41.7846 253.436 43.7141 252.015 45.1372C250.595 46.5603 248.669 47.3607 246.66 47.3628Z" fill="#081C3E"/>
<path d="M261.914 52.4342H267.146V19.0057H261.914V52.4342Z" fill="#081C3E"/>
<path d="M272.382 52.4342H277.614V19.0057H272.382V52.4342Z" fill="#081C3E"/>
<path d="M300.718 29.4316C298.524 27.8095 295.868 26.9358 293.141 26.9388C289.745 26.9425 286.489 28.2957 284.088 30.7016C281.686 33.1074 280.335 36.3695 280.331 39.772C280.335 43.1746 281.686 46.4368 284.087 48.8427C286.489 51.2487 289.745 52.602 293.141 52.6057C295.868 52.6087 298.524 51.7354 300.718 50.114V52.4353H305.951V27.3965H300.718V29.4316ZM293.141 47.3634C291.132 47.3611 289.206 46.5606 287.785 45.1374C286.365 43.7142 285.566 41.7846 285.564 39.772C285.566 37.7593 286.365 35.8297 287.786 34.4066C289.206 32.9835 291.132 32.1831 293.141 32.1811C295.15 32.1833 297.076 32.9837 298.497 34.4068C299.917 35.8298 300.716 37.7594 300.718 39.772C300.716 41.7847 299.917 43.7144 298.497 45.1376C297.076 46.5608 295.15 47.3612 293.141 47.3634" fill="#081C3E"/>
<path d="M308.936 39.3362V52.4337H314.168V39.3362C314.168 37.04 314.728 35.0386 315.745 33.7057C316.241 33.0553 316.887 32.5364 317.629 32.1946C318.371 31.8527 319.185 31.6983 320 31.7448V26.5025C313.382 26.502 308.936 31.661 308.936 39.3362Z" fill="#081C3E"/>
</svg>
