<svg width="122" height="18" viewBox="0 0 122 18" fill="none" xmlns="http://www.w3.org/2000/svg">
<mask id="mask0_272_6222" style="mask-type:alpha" maskUnits="userSpaceOnUse" x="0" y="0" width="122" height="18">
<path d="M0 17.3793H122V0H0V17.3793Z" fill="black"/>
</mask>
<g mask="url(#mask0_272_6222)">
<path fill-rule="evenodd" clip-rule="evenodd" d="M68.9908 0.368164H63.7402V17.3226H68.9908C73.6645 17.3226 77.468 13.5199 77.468 8.84538C77.468 4.17086 73.6645 0.368164 68.9908 0.368164ZM68.9909 14.6761H66.3868V3.0147H68.9909C72.2053 3.0147 74.8216 5.63017 74.8216 8.84538C74.8216 12.0606 72.2053 14.6761 68.9909 14.6761" fill="#0C263D"/>
<path fill-rule="evenodd" clip-rule="evenodd" d="M84.9103 4.36621C81.3388 4.36621 78.4316 7.27175 78.4316 10.844C78.4316 14.4163 81.3388 17.3227 84.9103 17.3227C88.4826 17.3227 91.3889 14.4163 91.3889 10.844C91.3889 7.27175 88.4826 4.36621 84.9103 4.36621ZM84.9103 14.6761C82.7973 14.6761 81.0782 12.957 81.0782 10.844C81.0782 8.73102 82.7973 7.0127 84.9103 7.0127C87.0241 7.0127 88.7424 8.73102 88.7424 10.844C88.7424 12.957 87.0241 14.6761 84.9103 14.6761Z" fill="#0C263D"/>
</g>
<path d="M92.623 17.2363H95.2696V0.362793H92.623V17.2363Z" fill="#0C263D"/>
<path d="M97.916 17.2363H100.563V0.362793H97.916V17.2363Z" fill="#0C263D"/>
<mask id="mask1_272_6222" style="mask-type:alpha" maskUnits="userSpaceOnUse" x="0" y="0" width="122" height="18">
<path d="M0 17.3793H122V0H0V17.3793Z" fill="black"/>
</mask>
<g mask="url(#mask1_272_6222)">
<path fill-rule="evenodd" clip-rule="evenodd" d="M112.248 5.62452C111.175 4.83358 109.848 4.36621 108.416 4.36621C104.844 4.36621 101.938 7.27175 101.938 10.844C101.938 14.4163 104.844 17.3227 108.416 17.3227C109.848 17.3227 111.175 16.8545 112.248 16.0644V17.2361H114.895V4.59745H112.248V5.62452ZM108.416 14.6761C106.303 14.6761 104.584 12.957 104.584 10.844C104.584 8.73102 106.303 7.0127 108.416 7.0127C110.53 7.0127 112.248 8.73102 112.248 10.844C112.248 12.957 110.53 14.6761 108.416 14.6761Z" fill="#0C263D"/>
<path d="M116.404 10.6241V17.2368H119.051V10.6241C119.051 9.46471 119.334 8.45479 119.848 7.78152C120.357 7.1156 121.061 6.79204 122 6.79204V4.14551C118.653 4.14551 116.404 6.74954 116.404 10.6241" fill="#0C263D"/>
<path fill-rule="evenodd" clip-rule="evenodd" d="M33.524 10.844C33.524 7.27175 30.6185 4.36621 27.0454 4.36621C23.4739 4.36621 20.5684 7.27175 20.5684 10.844C20.5684 14.4163 23.4739 17.3227 27.0454 17.3227C30.6185 17.3227 33.524 14.4163 33.524 10.844ZM23.2132 10.844C23.2132 8.73102 24.9332 7.0127 27.0453 7.0127C29.1591 7.0127 30.8774 8.73102 30.8774 10.844C30.8774 12.957 29.1591 14.6761 27.0453 14.6761C24.9332 14.6761 23.2132 12.957 23.2132 10.844Z" fill="white"/>
<path fill-rule="evenodd" clip-rule="evenodd" d="M47.6381 10.844C47.6381 7.27175 44.7317 4.36621 41.1603 4.36621C37.5872 4.36621 34.6816 7.27175 34.6816 10.844C34.6816 14.4163 37.5872 17.3227 41.1603 17.3227C44.7317 17.3227 47.6381 14.4163 47.6381 10.844ZM37.3274 10.844C37.3274 8.73102 39.0465 7.0127 41.1603 7.0127C43.2725 7.0127 44.9916 8.73102 44.9916 10.844C44.9916 12.957 43.2725 14.6761 41.1603 14.6761C39.0465 14.6761 37.3274 12.957 37.3274 10.844Z" fill="white"/>
<path fill-rule="evenodd" clip-rule="evenodd" d="M59.0541 5.62479C57.9796 4.83386 56.6543 4.36649 55.222 4.36649C51.6497 4.36649 48.7441 7.27203 48.7441 10.8443C48.7441 14.4166 51.6497 17.3229 55.222 17.3229C58.7942 17.3229 61.6998 14.4166 61.6998 10.8443C61.6998 10.6964 61.6949 10.5493 61.6851 10.4039H61.6998V0.362793H59.0541V5.62479ZM55.2219 14.6765C53.109 14.6765 51.3898 12.9573 51.3898 10.8444C51.3898 8.7314 53.109 7.01308 55.2219 7.01308C57.3349 7.01308 59.0541 8.7314 59.0541 10.8444C59.0541 12.9573 57.3349 14.6765 55.2219 14.6765Z" fill="white"/>
<path d="M19.8592 0H16.1169L14.9444 1.17251C13.7523 0.562972 12.4245 0.239406 11.0469 0.239406C6.32176 0.239406 2.47821 4.08377 2.47821 8.80895C2.47821 10.2102 2.81566 11.5339 3.41458 12.7023L0 16.1145H3.74468L4.99155 14.8676C6.54318 16.4184 8.68557 17.3793 11.0469 17.3793C15.7729 17.3793 19.6173 13.5341 19.6173 8.80895C19.6173 8.36446 19.5822 7.9216 19.5152 7.4861H16.8221H16.8229H12.3698L9.72408 10.1318H16.8221C16.2191 12.7636 13.8593 14.7328 11.0469 14.7328C7.78106 14.7328 5.1231 12.0756 5.1231 8.80895C5.1231 5.54226 7.78106 2.88512 11.0469 2.88512C12.6296 2.88512 14.1175 3.50119 15.2361 4.61978L16.1905 3.66624C16.1905 3.66706 16.1905 3.66706 16.1913 3.66788L19.8592 0Z" fill="white"/>
</g>
</svg>
