<svg xmlns="http://www.w3.org/2000/svg" xmlns:xlink="http://www.w3.org/1999/xlink" width="19.565" height="19.567" viewBox="0 0 19.565 19.567"><defs><style>.a{fill:none;}.b{clip-path:url(#a);}.c{fill:rgba(255,255,255,0);stroke:rgba(0,0,0,0);}.d{fill:#fff;}.e{stroke:none;}</style><clipPath id="a"><rect class="a" width="19.566" height="19.567"/></clipPath></defs><g class="b"><g class="c"><rect class="e" width="19.566" height="19.567"/><rect class="a" x="0.5" y="0.5" width="18.566" height="18.567"/></g><g transform="translate(17.269 3.729)"><path class="d" d="M0,0A1.013,1.013,0,0,0,0-1.432a1.013,1.013,0,0,0-1.432,0L-7.486,4.623l-6.055-6.055a1.012,1.012,0,0,0-1.432,0,1.013,1.013,0,0,0,0,1.432l6.055,6.054-6.055,6.055a1.013,1.013,0,0,0,0,1.432,1.009,1.009,0,0,0,.716.3,1.009,1.009,0,0,0,.716-.3l6.055-6.055,6.054,6.054a1.009,1.009,0,0,0,.716.3A1.009,1.009,0,0,0,0,13.54a1.012,1.012,0,0,0,0-1.431L-6.054,6.054Z"/></g></g></svg>