<svg xmlns="http://www.w3.org/2000/svg" xmlns:xlink="http://www.w3.org/1999/xlink" width="32.564" height="23.885" viewBox="0 0 32.564 23.885"><defs><style>.a{fill:none;}.b{clip-path:url(#a);}.c{fill:rgba(255,255,255,0);stroke:rgba(0,0,0,0);}.d{fill:#fff;}.e{stroke:none;}</style><clipPath id="a"><rect class="a" width="32.564" height="23.885"/></clipPath></defs><g class="b"><g class="c"><rect class="e" width="32.564" height="23.885"/><rect class="a" x="0.5" y="0.5" width="31.564" height="22.885"/></g><g transform="translate(30.267 2.296)"><path class="d" d="M0,0A1.013,1.013,0,0,0-1.432,0L-18.575,17.143-26.539,9.18a1.012,1.012,0,0,0-1.432,0,1.012,1.012,0,0,0,0,1.431l8.672,8.673h0a.056.056,0,0,0,.005.008,1.009,1.009,0,0,0,.716.3,1.008,1.008,0,0,0,.716-.3L0,1.432A1.012,1.012,0,0,0,0,0"/></g></g></svg>