<svg xmlns="http://www.w3.org/2000/svg" width="100%" height="100%"
     viewBox="0 0 124.635 206.312">
  <defs>
    <style>
      .a,.d{fill:#00c3ae;}.b,.n,.o{fill:#0c263d;}.c{fill:#eee;}.d{opacity:0.3;}.e{fill:#3f3d56;}.f{fill:url(#a);}.g{fill:#a0616a;}.h{fill:#65617d;}.i{fill:#2f2e41;}.j{fill:#e8eaf2;}.k,.o{opacity:0.05;}.l{opacity:0.1;}.m{fill:#00afff;}.n{opacity:0.054;}
    </style>
    <linearGradient id="a" x1="146.593" y1="1" x2="146.593" gradientUnits="objectBoundingBox">
      <stop offset="0" stop-color="gray" stop-opacity="0.251"/>
      <stop offset="0.535" stop-color="gray" stop-opacity="0.122"/>
      <stop offset="1" stop-color="gray" stop-opacity="0.102"/>
    </linearGradient>
  </defs>
  <ellipse class="a" cx="18.178" cy="17.627" rx="18.178" ry="17.627" transform="translate(88.278)"/>
  <path class="b"
        d="M903.274,428.415a3.274,3.274,0,1,1,3.274-3.274A3.274,3.274,0,0,1,903.274,428.415Zm0-6A2.728,2.728,0,1,0,906,425.141,2.728,2.728,0,0,0,903.274,422.413Z"
        transform="translate(-787.113 -326.386)"/>
  <path class="b" d="M221.093,261.96H214v-7.093h7.093Zm-6.547-.546h6v-6h-6Z" transform="translate(-214 -204.944)"/>
  <path class="b" d="M608.093,82.96H601V75.867h7.093Zm-6.547-.546h6v-6h-6Z" transform="translate(-536.299 -74.776)"/>
  <rect class="a" width="50.741" height="41.193" transform="translate(26.039 44.363)"/>
  <rect class="c" width="72.465" height="4.365" transform="translate(26.085 98.105)"/>
  <path class="b" d="M369.787,266.226H318.5V224.487h51.287Zm-50.741-.546h50.2V225.033h-50.2Z"
        transform="translate(-289.992 -182.852)"/>
  <rect class="a" width="49.105" height="4.365" transform="translate(52.067 55.685)"/>
  <rect class="d" width="69.565" height="4.365" transform="translate(29 67.415)"/>
  <path class="b" d="M628.15,270.9H578.5v-4.91h49.65Zm-49.1-.546H627.6v-3.819H579.046Z"
        transform="translate(-528.539 -213.031)"/>
  <path class="b" d="M648.611,313.9H578.5v-4.91h70.111Zm-69.565-.546h69.019v-3.819H579.046Z"
        transform="translate(-553.319 -244.3)"/>
  <path class="b" d="M385.284,426.4H318.5v-4.91h66.784Zm-66.525-.546h66.267v-3.819H318.758Z"
        transform="translate(-289.992 -326.11)"/>
  <rect class="c" width="72.465" height="4.365" transform="translate(26.085 111.746)"/>
  <path class="b" d="M385.284,476.4H318.5v-4.91h66.784Zm-66.525-.546h66.267v-3.819H318.758Z"
        transform="translate(-289.992 -362.469)"/>
  <rect class="c" width="72.465" height="4.365" transform="translate(26.085 125.386)"/>
  <path class="b" d="M385.284,526.4H318.5v-4.91h66.784Zm-66.525-.546h66.267v-3.819H318.758Z"
        transform="translate(-289.992 -398.829)"/>
  <rect class="c" width="72.465" height="4.365" transform="translate(26.085 139.026)"/>
  <path class="b" d="M385.284,576.4H318.5v-4.91h66.784Zm-66.525-.546h66.267v-3.819H318.758Z"
        transform="translate(-289.992 -435.189)"/>
  <rect class="c" width="72.465" height="4.365" transform="translate(26.085 152.667)"/>
  <path class="b" d="M385.284,626.4H318.5v-4.91h66.784Zm-66.525-.546h66.267v-3.819H318.758Z"
        transform="translate(-289.992 -471.549)"/>
  <rect class="c" width="72.465" height="4.365" transform="translate(26.085 166.307)"/>
  <path class="b" d="M385.284,676.4H318.5v-4.91h66.784Zm-66.525-.546h66.267v-3.819H318.758Z"
        transform="translate(-289.992 -507.909)"/>
  <path class="e" d="M375.562,313.676H289V136.487h86.562Zm-86.268-.546h85.974v-176.1H289.294Z"
        transform="translate(-268.54 -118.858)"/>
  <path class="f"
        d="M276.327,791.66a.128.128,0,0,0-.027.014c.325-.7.627-1.41.9-2.131.033-.084.063-.172.1-.256,0,.022,0,.044-.005.068-.008.136-.019.273-.03.412-.016.215-.03.434-.033.652,0,.068,0,.134,0,.2a3.99,3.99,0,0,0,.082.791H277.3c-.068.006-.131.008-.2.019a2.673,2.673,0,0,0-.745.213A.168.168,0,0,0,276.327,791.66Z"
        transform="translate(-259.304 -593.572)"/>
  <path class="g"
        d="M269.985,386.448c.029,1.139.415,2.243.476,3.38-3.355.167-6.664-1.461-9.985-.962a4.6,4.6,0,0,0,1.717-2.75,11.4,11.4,0,0,0,.328-4.225,1.86,1.86,0,0,0-.042-.234,6.1,6.1,0,0,1-.357-1.784c.113-.58.659-.465,1.152-.432a43.152,43.152,0,0,1,4.477.578c.386.067,4.146,1.006,4.2.908a17.688,17.688,0,0,0-1.627,3.353A6.536,6.536,0,0,0,269.985,386.448Z"
        transform="translate(-247.797 -295.511)"/>
  <path class="g"
        d="M398.9,373.48a4.9,4.9,0,0,1-1.024,1.033c-.255.209-.515.421-.789.613a3.383,3.383,0,0,1-1.677.682,4.4,4.4,0,0,1-2.992-1.1,1.983,1.983,0,0,1-.286-1.145,5.269,5.269,0,0,1,.275-1.6,8.929,8.929,0,0,1,1.294-2.341,6.892,6.892,0,0,1,2.08-2.08,8.067,8.067,0,0,1,.885-.407l1.563-.641a.754.754,0,0,1,.284-.075c.419,0,.5.645.259.991-.476.7-1.546.891-1.846,1.682a1.2,1.2,0,0,1,1.114.864.611.611,0,0,0,.15.348c.138.111.353.048.509.131.277.148.156.561.186.874a4.088,4.088,0,0,0,.286.787A1.671,1.671,0,0,1,398.9,373.48Z"
        transform="translate(-343.62 -286.063)"/>
  <path class="h"
        d="M247.432,796.844a1.19,1.19,0,0,1,1.041-.157,38.615,38.615,0,0,0,5.852.474c.245-1.2-.467-2.363-.7-3.564a3.212,3.212,0,0,0-.232-.9,2.064,2.064,0,0,0-1.483-.9c-1.055-.223-2.7-.615-3.292.451A15.99,15.99,0,0,0,247.432,796.844Z"
        transform="translate(-238.312 -595.212)"/>
  <path class="e"
        d="M292.335,779.143a6.177,6.177,0,0,1-2.737.835,8.759,8.759,0,0,0-2.806.641,18.525,18.525,0,0,1-2.168,1.239,4.518,4.518,0,0,1-2.251.035,3.336,3.336,0,0,1-2.316-1.258,3.862,3.862,0,0,1-.323-2.351q.1-1.361.2-2.727a1.3,1.3,0,0,1,.169-.659c.643-.937,2.205.392,3.042.39a5.882,5.882,0,0,0,3.7-1.6,1.117,1.117,0,0,1,.288-.217c.378-.169.755.144,1.091.417.038.031.075.063.113.092a7.187,7.187,0,0,0,2.769.987,3,3,0,0,1,2.278,1.692,1.448,1.448,0,0,1,.046.181A2.389,2.389,0,0,1,292.335,779.143Z"
        transform="translate(-261.774 -582.038)"/>
  <path class="i"
        d="M292.335,779.143a6.177,6.177,0,0,1-2.737.835,8.759,8.759,0,0,0-2.806.641,18.525,18.525,0,0,1-2.168,1.239,4.518,4.518,0,0,1-2.251.035,3.336,3.336,0,0,1-2.316-1.258,3.862,3.862,0,0,1-.323-2.351q.1-1.361.2-2.727a1.3,1.3,0,0,1,.169-.659c.643-.937,2.205.392,3.042.39a5.882,5.882,0,0,0,3.7-1.6,1.117,1.117,0,0,1,.288-.217c.378-.169.755.144,1.091.417.038.031.075.063.113.092a7.187,7.187,0,0,0,2.769.987,3,3,0,0,1,2.278,1.692,1.448,1.448,0,0,1,.046.181A2.389,2.389,0,0,1,292.335,779.143Z"
        transform="translate(-261.774 -582.038)"/>
  <path class="j"
        d="M292.335,779.449a6.177,6.177,0,0,1-2.737.835,8.762,8.762,0,0,0-2.806.64,18.49,18.49,0,0,1-2.168,1.239,4.515,4.515,0,0,1-2.251.036,3.717,3.717,0,0,1-2.316-1.563,3.862,3.862,0,0,1-.323-2.351q.1-1.361.2-2.727a1.3,1.3,0,0,1,.169-.659c.643-.937,2.205.392,3.042.39a5.882,5.882,0,0,0,3.7-1.6,1.117,1.117,0,0,1,.288-.217c.378-.169.755.144,1.091.417a7.841,7.841,0,0,1-.931,1.924,4,4,0,0,1-2.919,1.825,9.64,9.64,0,0,0-1.773.079c-.572.152-1.106.739-.9,1.3s.9.661,1.477.693a6.566,6.566,0,0,0,2.408-.169c.469-.157.9-.415,1.356-.6,1.942-.805,4.4-.355,6-1.715a3.561,3.561,0,0,1,.49-.376C293.855,777.721,293.08,778.94,292.335,779.449Z"
        transform="translate(-261.774 -582.038)"/>
  <path class="k"
        d="M292.335,779.449a6.177,6.177,0,0,1-2.737.835,8.762,8.762,0,0,0-2.806.64,18.49,18.49,0,0,1-2.168,1.239,4.515,4.515,0,0,1-2.251.036,3.717,3.717,0,0,1-2.316-1.563,3.862,3.862,0,0,1-.323-2.351q.1-1.361.2-2.727a1.3,1.3,0,0,1,.169-.659c.643-.937,2.205.392,3.042.39a5.882,5.882,0,0,0,3.7-1.6,1.117,1.117,0,0,1,.288-.217c.378-.169.755.144,1.091.417a7.841,7.841,0,0,1-.931,1.924,4,4,0,0,1-2.919,1.825,9.64,9.64,0,0,0-1.773.079c-.572.152-1.106.739-.9,1.3s.9.661,1.477.693a6.566,6.566,0,0,0,2.408-.169c.469-.157.9-.415,1.356-.6,1.942-.805,4.4-.355,6-1.715a3.561,3.561,0,0,1,.49-.376C293.855,777.721,293.08,778.94,292.335,779.449Z"
        transform="translate(-261.774 -582.038)"/>
  <path class="i"
        d="M248.123,568.27a11.944,11.944,0,0,0,1.637,8.813,16.445,16.445,0,0,1,1.331,2.133,9.7,9.7,0,0,1,.519,1.691l1.475,6.1a16.574,16.574,0,0,1,.679,5.018c-.083,1.178-.38,2.5.346,3.434a2.529,2.529,0,0,1,.439.6,1.524,1.524,0,0,1,.007.793c-.746,4.431-1.3,9.064.048,13.351,1.221,3.885,1.291,8.191,2.33,12.129a2.7,2.7,0,0,0,.645,1.345,2.114,2.114,0,0,0,.967.46,7.139,7.139,0,0,0,4.574-.724c1-.465,2.083-1.28,2-2.382a4.827,4.827,0,0,0-.555-1.467,10.37,10.37,0,0,1-.55-3.032,61.272,61.272,0,0,0-1.67-7.582,18.109,18.109,0,0,1-.5-7.693,67.293,67.293,0,0,1,4.949-15.224,1.836,1.836,0,0,1,.453-.682,4.689,4.689,0,0,0,.642-.438,1.938,1.938,0,0,0,.294-.8,8.671,8.671,0,0,1,1.331-2.1c1.122-1.783.767-4.068.725-6.174a42.5,42.5,0,0,0-.081-6.136c-.336-2.021-1.493-4.087-3.442-4.72a7.409,7.409,0,0,0-3.018-.142A59.478,59.478,0,0,0,248.123,568.27Z"
        transform="translate(-238.639 -430.298)"/>
  <path class="l"
        d="M248.123,568.27a11.944,11.944,0,0,0,1.637,8.813,16.445,16.445,0,0,1,1.331,2.133,9.7,9.7,0,0,1,.519,1.691l1.475,6.1a16.574,16.574,0,0,1,.679,5.018c-.083,1.178-.38,2.5.346,3.434a2.529,2.529,0,0,1,.439.6,1.524,1.524,0,0,1,.007.793c-.746,4.431-1.3,9.064.048,13.351,1.221,3.885,1.291,8.191,2.33,12.129a2.7,2.7,0,0,0,.645,1.345,2.114,2.114,0,0,0,.967.46,7.139,7.139,0,0,0,4.574-.724c1-.465,2.083-1.28,2-2.382a4.827,4.827,0,0,0-.555-1.467,10.37,10.37,0,0,1-.55-3.032,61.272,61.272,0,0,0-1.67-7.582,18.109,18.109,0,0,1-.5-7.693,67.293,67.293,0,0,1,4.949-15.224,1.836,1.836,0,0,1,.453-.682,4.689,4.689,0,0,0,.642-.438,1.938,1.938,0,0,0,.294-.8,8.671,8.671,0,0,1,1.331-2.1c1.122-1.783.767-4.068.725-6.174a42.5,42.5,0,0,0-.081-6.136c-.336-2.021-1.493-4.087-3.442-4.72a7.409,7.409,0,0,0-3.018-.142A59.478,59.478,0,0,0,248.123,568.27Z"
        transform="translate(-238.639 -430.298)"/>
  <path class="i"
        d="M268.218,583.744a12.8,12.8,0,0,1-.269,2.368q-1.415,7.934-3.015,15.834c-.094.457-.186.914-.309,1.362a11.05,11.05,0,0,1-2.043,4.018c-4.446,5.541-4.83,13.589-7.242,20.271-.163.453-.325.905-.5,1.352a33.752,33.752,0,0,1-1.488,3.32.948.948,0,0,1-.307.4.909.909,0,0,1-.484.094,14.129,14.129,0,0,1-6.265-1.425,1.3,1.3,0,0,1-.666-.553,1.336,1.336,0,0,1-.071-.636,8.939,8.939,0,0,1,.78-3.862,8.24,8.24,0,0,1,1.544-1.872,70.971,70.971,0,0,1,1.513-12.385,16.864,16.864,0,0,1,2.255-5.93c.889-1.3,2.164-2.574,2.007-4.137-.069-.686-.357-1.542.2-1.944.244-.177.6-.2.77-.453a.859.859,0,0,0,.108-.388,9.581,9.581,0,0,0-.2-3.207,16.927,16.927,0,0,1-.478-2.091,2.636,2.636,0,0,1,.526-2.02c.029-1.427-.01-2.908.019-4.333a8.037,8.037,0,0,0-.2-2.42c-.108-.373-.273-.73-.357-1.112-.3-1.371.447-3.013-.44-4.1a6.026,6.026,0,0,0-1.423-1,5.222,5.222,0,0,1-1.953-2.808,15.5,15.5,0,0,1-.553-3.438,3.541,3.541,0,0,1-.008-.743,1.363,1.363,0,0,1,.1-.371,2.268,2.268,0,0,1,1.675-1.018,54.249,54.249,0,0,1,12.794-1.5c1.594-1.085,2.491-.7,3.167.453a11.882,11.882,0,0,1,.9,2.2c.309.933.328,6.153.628,7.089C269.333,579.978,268.2,582.465,268.218,583.744Z"
        transform="translate(-236.944 -432.926)"/>
  <path class="m"
        d="M222.612,446.052a12.841,12.841,0,0,0,.32,2.457,9.267,9.267,0,0,1-.324,2.144c-.515,2.782.474,5.6,1.48,8.246a4.249,4.249,0,0,1,.352,1.356,13.811,13.811,0,0,1-.606,2.507c-.286,1.792,1.036,3.478,1.063,5.293a10.624,10.624,0,0,0-.041,2.495,8.812,8.812,0,0,0,.716,1.508c.424.893.537,1.905.942,2.807.731,1.629,2.3,2.693,3.8,3.67a3.885,3.885,0,0,0,2.236-1.385,3.43,3.43,0,0,0,.39-1.215,31.637,31.637,0,0,0,.3-5.636,34.758,34.758,0,0,0-.258-4.851c-.3-2.047-.966-4.02-1.442-6.034a58.3,58.3,0,0,0-1.845-7.6,25.847,25.847,0,0,0-3.452-5.9c-.514-.7-.921-1.706-1.919-1.544A2.094,2.094,0,0,0,222.612,446.052Z"
        transform="translate(-220.157 -342.738)"/>
  <path class="n"
        d="M222.612,446.052a12.841,12.841,0,0,0,.32,2.457,9.267,9.267,0,0,1-.324,2.144c-.515,2.782.474,5.6,1.48,8.246a4.249,4.249,0,0,1,.352,1.356,13.811,13.811,0,0,1-.606,2.507c-.286,1.792,1.036,3.478,1.063,5.293a10.624,10.624,0,0,0-.041,2.495,8.812,8.812,0,0,0,.716,1.508c.424.893.537,1.905.942,2.807.731,1.629,2.3,2.693,3.8,3.67a3.885,3.885,0,0,0,2.236-1.385,3.43,3.43,0,0,0,.39-1.215,31.637,31.637,0,0,0,.3-5.636,34.758,34.758,0,0,0-.258-4.851c-.3-2.047-.966-4.02-1.442-6.034a58.3,58.3,0,0,0-1.845-7.6,25.847,25.847,0,0,0-3.452-5.9c-.514-.7-.921-1.706-1.919-1.544A2.094,2.094,0,0,0,222.612,446.052Z"
        transform="translate(-220.157 -342.738)"/>
  <circle class="g" cx="7.748" cy="7.748" r="7.748" transform="translate(12.933 73.287)"/>
  <path class="m"
        d="M248.514,409.467c-.338.391-.791.822-1.292.7a1.769,1.769,0,0,1-.5-.269,7.577,7.577,0,0,0-3.04-.869,44.844,44.844,0,0,1-6.261-1.408,6.383,6.383,0,0,0-1.852-.376,4.507,4.507,0,0,0-3.3,1.9c-.823,1.023-1.406,2.221-2.213,3.256-.575.738-1.26,1.388-1.8,2.154a9.428,9.428,0,0,0-1.3,6.792,28.007,28.007,0,0,0,2.208,6.712,23.331,23.331,0,0,0,1.8,3.635,8.656,8.656,0,0,0,.7,5.4,5.329,5.329,0,0,1,.7,1.6,4.014,4.014,0,0,1-.049,1.176l-.394,2.8c-.12.854-.24,1.708-.4,2.557-.285,1.553-.671,3.238.048,4.643.861,1.683-.043,3.84.183,5.716a28.756,28.756,0,0,1,7.55-1.794,27.114,27.114,0,0,0,4.967-.651c1-.292,1.954-.754,2.973-.987a13.7,13.7,0,0,1,2.507-.256,29.66,29.66,0,0,1,5.564.124c.149.022.33.034.419-.087a.392.392,0,0,0,.056-.219,3.705,3.705,0,0,0-.475-1.972,2.7,2.7,0,0,1-.551-1.293,1.963,1.963,0,0,1,.161-.642l.814-2.172c.687-1.833.36-3.963.717-5.888A34.591,34.591,0,0,0,257,435.2a5.7,5.7,0,0,0-.763-3.765,4.33,4.33,0,0,1-.6-.828,2.515,2.515,0,0,1-.142-.99q-.026-3.921.215-7.838c-.687-1.235-1.4-2.5-2.091-3.732a15.94,15.94,0,0,1-1.934-4.516c-.214-1.067-.206-2.166-.359-3.244a1.417,1.417,0,0,0-.274-.758,1.379,1.379,0,0,0-1.1-.328A4.881,4.881,0,0,0,248.514,409.467Z"
        transform="translate(-223.324 -315.75)"/>
  <path class="m"
        d="M310.485,411.171a5.462,5.462,0,0,0,1.632,1.54,5.237,5.237,0,0,0,2.543.39,60.77,60.77,0,0,0,10.627-1.167,6.648,6.648,0,0,0,1.17-.314,6.164,6.164,0,0,0,1.183-.738,15.132,15.132,0,0,0,3.2-2.79,9.378,9.378,0,0,0,1.9-4.649,7.613,7.613,0,0,0,1.694-2.914,4.447,4.447,0,0,0,.386-1.415c.022-.5-.31-1.026-.218-1.52a4.017,4.017,0,0,1,1.229-2.211.806.806,0,0,0,.292-.389.626.626,0,0,0-.07-.379,2.927,2.927,0,0,0-2.018-1.515,8.663,8.663,0,0,0-2.6-.1,6.082,6.082,0,0,0-.852.226l-.606,1.6a2.064,2.064,0,0,1-.4.728,3.719,3.719,0,0,1-.43.336,2.46,2.46,0,0,0-.853,2.15,2.31,2.31,0,0,0-1.366,2.852,2.723,2.723,0,0,0-2,1.759,1.315,1.315,0,0,1-.261.547,1.062,1.062,0,0,1-.7.214c-.685.042-1.283.582-1.9.289a3.87,3.87,0,0,0-2.261-.316,1.7,1.7,0,0,1-.482.043,1.276,1.276,0,0,1-.4-.138,3.166,3.166,0,0,0-.9-.353.84.84,0,0,0-.851.329c-.217-.238-.347-.543-.545-.8a.873.873,0,0,0-.826-.394c.206-.184,0-.55-.273-.616a3.5,3.5,0,0,0-.824.03c-.717,0-1.266-.654-1.962-.825-.64-.157-1.492.03-1.82-.541-.116-.2-.139-.477-.337-.6a.65.65,0,0,0-.432-.05,4.226,4.226,0,0,0-1.307.4,18.339,18.339,0,0,0,.192,8.009A7.066,7.066,0,0,0,310.485,411.171Z"
        transform="translate(-282.708 -305.353)"/>
  <path class="m"
        d="M242.327,404.124a7.835,7.835,0,0,0-2.773-.913,5.842,5.842,0,0,0-1.764-.127c-.545.068-1.069.279-1.618.309a7.207,7.207,0,0,1-2.253-.473,2.645,2.645,0,0,0-2.23.169.963.963,0,0,1-.485.258.85.85,0,0,1-.5-.246,2.858,2.858,0,0,0-3.562.188c-1.421,1.332-1.26,3.934-2.924,4.945-.459.278-1.045.426-1.313.891a3.292,3.292,0,0,1-.227.428,1.16,1.16,0,0,1-.4.285,7.77,7.77,0,0,0-1.372.789,1.962,1.962,0,0,0-.79,1.324,2.5,2.5,0,0,0,.243,1.113,10.447,10.447,0,0,0,10.152,6.492,1.607,1.607,0,0,0,1.063-.332,2.006,2.006,0,0,0,.373-.614c.783-1.641,2.253-2.852,3.186-4.412.556-.93.913-1.97,1.492-2.886a13.89,13.89,0,0,1,3.52-3.409,4.059,4.059,0,0,1,2.483-1.111c.825.035,1.425.079,1.123-.932A3.242,3.242,0,0,0,242.327,404.124Z"
        transform="translate(-218.445 -312.351)"/>
  <path class="o"
        d="M242.327,404.124a7.835,7.835,0,0,0-2.773-.913,5.842,5.842,0,0,0-1.764-.127c-.545.068-1.069.279-1.618.309a7.207,7.207,0,0,1-2.253-.473,2.645,2.645,0,0,0-2.23.169.963.963,0,0,1-.485.258.85.85,0,0,1-.5-.246,2.858,2.858,0,0,0-3.562.188c-1.421,1.332-1.26,3.934-2.924,4.945-.459.278-1.045.426-1.313.891a3.292,3.292,0,0,1-.227.428,1.16,1.16,0,0,1-.4.285,7.77,7.77,0,0,0-1.372.789,1.962,1.962,0,0,0-.79,1.324,2.5,2.5,0,0,0,.243,1.113,10.447,10.447,0,0,0,10.152,6.492,1.607,1.607,0,0,0,1.063-.332,2.006,2.006,0,0,0,.373-.614c.783-1.641,2.253-2.852,3.186-4.412.556-.93.913-1.97,1.492-2.886a13.89,13.89,0,0,1,3.52-3.409,4.059,4.059,0,0,1,2.483-1.111c.825.035,1.425.079,1.123-.932A3.242,3.242,0,0,0,242.327,404.124Z"
        transform="translate(-218.445 -312.351)"/>
  <path class="i"
        d="M261.417,803.411a4.324,4.324,0,0,1-2.082.916,37.561,37.561,0,0,1-5.183.641c-.563.042-1.129.086-1.692.129-1.652.125-3.307.253-4.966.259a34.242,34.242,0,0,1-6.107-.528.518.518,0,0,1-.557-.62,29.582,29.582,0,0,1,.751-6.13c.192-.826,1.673,1.027,1.74,1.1a1.693,1.693,0,0,0,1.346.716c1.7.094,3.614-.943,4.968-1.865a6.361,6.361,0,0,1,.92-.57,2.708,2.708,0,0,1,.745-.213,4.5,4.5,0,0,1,2.535.513c1.018.5,1.911,1.231,2.919,1.75a8.2,8.2,0,0,0,2.616.828c.922.127,2.024.188,2.5.987a.008.008,0,0,1,0,.006A1.754,1.754,0,0,1,261.417,803.411Z"
        transform="translate(-233.504 -599.349)"/>
  <path class="j"
        d="M260.631,803.767a4.322,4.322,0,0,1-2.082.916,37.541,37.541,0,0,1-5.183.641c-.563.042-1.129.086-1.692.129-1.652.125-3.307.252-4.966.259a34.254,34.254,0,0,1-6.107-.528.674.674,0,0,1-.484-.234,2.712,2.712,0,0,1-.378-.691,30.05,30.05,0,0,1,1.056-6.13c.192-.826,1.673,1.026,1.74,1.1a1.693,1.693,0,0,0,1.346.716c1.7.094,3.614-.943,4.968-1.865a6.359,6.359,0,0,1,.92-.57,2.7,2.7,0,0,1,.745-.213c-.219,1.227-1.978,2.708-2.885,3.159-1.836.912-4.018.457-6.067.563a.845.845,0,0,0-.43.1c-.246.163-.261.511-.252.805.017.488.079,1.062.5,1.31a1.449,1.449,0,0,0,.68.142,96.193,96.193,0,0,0,15.128-.53,8.318,8.318,0,0,0,2.464-.549,6.378,6.378,0,0,0,1.429-.92C261.729,801.893,261.19,803.245,260.631,803.767Z"
        transform="translate(-232.718 -599.4)"/>
  <path class="i"
        d="M269.2,346.841c-.029.8.517,2.355-.98,1.921-.893-.259-1.146-1.317-2.278-1.081s-1.394,1.632-1.778,2.545a4.871,4.871,0,0,1-3.53,2.852,2.123,2.123,0,0,1-.972,0,2.615,2.615,0,0,1-1.446-1.661,13.022,13.022,0,0,1-.64-1.824,7.691,7.691,0,0,1-.232-1.337v0a5.959,5.959,0,0,1,0-.924,7.508,7.508,0,0,1,2.5-4.738,22.353,22.353,0,0,1,4.532-3.059,6.613,6.613,0,0,1,1.671-.745,5.626,5.626,0,0,1,1.765-.073,6.161,6.161,0,0,1,2.245.528,3.162,3.162,0,0,1,.791.555,2.377,2.377,0,0,1,.684,1.143c.288,1.177-.463,2.237-1.072,3.167A5.659,5.659,0,0,0,269.2,346.841Z"
        transform="translate(-245.502 -265.89)"/>
  <path class="e"
        d="M262.039,337.854a6.841,6.841,0,0,1-.459.655,7.747,7.747,0,0,1-1.06,1.1,8.825,8.825,0,0,1-.716.561,11.259,11.259,0,0,1-1.446.864,26.631,26.631,0,0,1-4.628,1.659l-3.094.9c-1.079.816-4.692,3.493-5.3,3.159-.716-.394,3.206-3.17,3.206-3.17l.18.137a2.889,2.889,0,0,1-1-1.922,9.667,9.667,0,0,1-.031-3.922,4.643,4.643,0,0,1,2.249-3.1,5.246,5.246,0,0,0,1.525-.86,1.083,1.083,0,0,0,.148-.2.655.655,0,0,0,.058-.106,1.444,1.444,0,0,1,.165-.319c.215-.248.605-.173.931-.134.035,0,.069.008.1.01a1.663,1.663,0,0,0,.175.008c1.162.025,2.289-.622,3.465-.622a8.834,8.834,0,0,1,3.522,1.254c.23.1.447.2.651.294a2.814,2.814,0,0,1,1.776,1.874A2.371,2.371,0,0,1,262.039,337.854Z"
        transform="translate(-236.725 -261.437)"/>
  <path class="l" d="M257.6,372.816a1.43,1.43,0,0,0,.535.2,1.726,1.726,0,0,0,1.428-.214Z"
        transform="translate(-245.709 -290.705)"/>
</svg>
