<svg xmlns="http://www.w3.org/2000/svg" xmlns:xlink="http://www.w3.org/1999/xlink" width="100%" height="100%" viewBox="0 0 277.528 135.25"><defs><style>.a,.l{fill:none;}.b{clip-path:url(#a);}.c{fill:#eee;}.d{fill:#a3a3a3;}.e{fill:#00afff;}.f{opacity:0.1;}.g{fill:#444053;}.h{fill:#3f3d56;}.i{fill:#f6f8fb;}.j{fill:#f2f2f2;}.k{opacity:0.03;}.l{stroke:#3f3d56;stroke-miterlimit:10;stroke-width:4px;}.m{fill:#00c3ae;}.n{fill:#656380;}.o{opacity:0.2;}</style><clipPath id="a"><rect class="a" width="277.528" height="135.25"/></clipPath></defs><g class="b"><g transform="translate(0 -140)"><path class="c" d="M897.85,568.823l-26.922-46.644a.857.857,0,0,0-1.488,0l-26.93,46.644a.857.857,0,0,0,.745,1.3h8.033a.862.862,0,0,1,.859.859v9.965a.857.857,0,0,0,.854.859h10.482a.859.859,0,0,0,.859-.859v-4.822a.857.857,0,0,1,.857-.857h9.965a.859.859,0,0,1,.859.857v4.811a.859.859,0,0,0,.859.859h10.479a.867.867,0,0,0,.862-.859v-9.965a.859.859,0,0,1,.859-.859h8.033a.859.859,0,0,0,.732-1.288Zm-37.536,5.162a.868.868,0,0,1-.61.26h-3.78a.859.859,0,1,1,0-1.719h3.78a.857.857,0,0,1,.859.859A.867.867,0,0,1,860.314,573.985Zm24.736,0a.854.854,0,0,1-.608.26h-3.778a.859.859,0,1,1,0-1.719h3.778a.857.857,0,0,1,.608,1.467Z" transform="translate(-640.704 -317.37)"/><path class="c" d="M267.578,570.419l-26.927-46.641a.862.862,0,0,0-1.49,0L215.9,564.063a71.193,71.193,0,0,0,9.744,10.051h3.783a.859.859,0,0,1,.608,1.467.844.844,0,0,1-.608.26h-1.6a41.615,41.615,0,0,0,6.231,3.876v-1.986a.862.862,0,0,1,.862-.859h9.962a.859.859,0,0,1,.859.859v4.809a.8.8,0,0,0,.08.361.852.852,0,0,0,.779.5h10.482a.849.849,0,0,0,.683-.345.823.823,0,0,0,.171-.519v-9.965a.859.859,0,0,1,.859-.859h8.033a.857.857,0,0,0,.748-1.29Zm-17.8,3.947a.865.865,0,0,1,.61-.26h3.78a.859.859,0,1,1,0,1.719h-3.78a.857.857,0,0,1-.859-.859A.867.867,0,0,1,249.778,574.366ZM232.865,557.1a.857.857,0,0,1-.859-.859v-6.527a.857.857,0,0,1,.859-.859H246.95a.859.859,0,0,1,.859.859v6.527a.859.859,0,0,1-.859.859Z" transform="translate(-176.876 -318.555)"/><path class="c" d="M146.621,289.268a14.5,14.5,0,0,0,1.124-1.652l-7.923-1.3,8.572.064a14.449,14.449,0,0,0,.279-11.441L137.179,280.9l10.6-7.793a14.442,14.442,0,1,0-23.851,16.169,14.4,14.4,0,0,0-1.646,2.634l10.274,5.334-10.962-3.68a14.453,14.453,0,0,0,2.338,13.561,14.344,14.344,0,0,0-2.589,5.153,143.865,143.865,0,0,0,6.8,16.331,14.3,14.3,0,0,0,4.481,1.638,5.009,5.009,0,0,0-.284,1.677,4.763,4.763,0,0,0,.608,2.412,4.676,4.676,0,0,0-.616,2.057h0a88.824,88.824,0,0,0,5.864,8.767,4.434,4.434,0,0,0-.475-1.169,4.95,4.95,0,0,0,0-4.824,4.95,4.95,0,0,0,0-4.824,4.763,4.763,0,0,0,.627-2.412,4.946,4.946,0,0,0-.292-1.7,14.442,14.442,0,0,0,8.572-23.1,14.438,14.438,0,0,0,0-17.857Z" transform="translate(-101.494 -102.609)"/><path class="c" d="M1059.878,371.14l-.779-.127h.763a32.952,32.952,0,0,0-1.579-8.649l-2.716,1.41,2.555-1.885a33.14,33.14,0,0,0-12.657-16.6,19.317,19.317,0,0,0-7.558,29.664,19.245,19.245,0,0,0-2.194,3.518l13.709,7.14-14.61-4.915a19.338,19.338,0,0,0,3.116,18.112,19.32,19.32,0,0,0,8.542,30.058c1.038-2.464,2.048-5.04,2.994-7.688.836-2.337,1.633-4.718,2.384-7.122a218.9,218.9,0,0,0,5.494-21.436c1.662-8.236,2.6-15.433,2.6-19.992C1059.911,372.129,1059.9,371.636,1059.878,371.14Z" transform="translate(-782.41 -186.727)"/><ellipse class="d" cx="138.128" cy="6.491" rx="138.128" ry="6.491" transform="translate(0 262.268)"/><path class="e" d="M447.5,408.213c-2.581-4.471-13.242-3.155-23.786,2.939a50.676,50.676,0,0,0-5.291,3.508,45.865,45.865,0,0,0-91.517,1.153,49.2,49.2,0,0,0-6.751-4.673c-10.523-6.081-21.187-7.4-23.765-2.926s3.895,13.034,14.439,19.128c6.831,3.944,13.7,5.883,18.4,5.554a45.917,45.917,0,0,0,13.974,20.511c-9.248,1.3-16.048,5.624-16.048,10.77,0,6.164,9.765,11.164,21.81,11.164s21.81-5,21.81-11.164v-.049q.971.042,1.95.044t1.95-.044v.049c0,6.164,9.765,11.164,21.81,11.164s21.81-5,21.81-11.164c0-5.146-6.8-9.474-16.048-10.77A45.91,45.91,0,0,0,416.2,432.934c4.593-.119,10.749-2.043,16.877-5.582C443.622,421.247,450.092,412.682,447.5,408.213Z" transform="translate(-236.046 -206.828)"/><path class="f" d="M296.387,504.995c2.581-4.471,13.242-3.155,23.785,2.939a49.132,49.132,0,0,1,6.649,4.58,14.785,14.785,0,0,0,.1-2.259,49.224,49.224,0,0,0-6.751-4.658c-10.539-6.094-21.2-7.41-23.78-2.939a4.917,4.917,0,0,0-.439,3.479A4.153,4.153,0,0,1,296.387,504.995Z" transform="translate(-236.047 -301.273)"/><path class="f" d="M796.854,504.995c-2.581-4.471-13.242-3.155-23.788,2.939a31.541,31.541,0,0,0-5.349,3.541,14.144,14.144,0,0,1-.1-2.259,31.6,31.6,0,0,1,5.452-3.619c10.557-6.094,21.207-7.41,23.788-2.939a4.917,4.917,0,0,1,.439,3.479,4.153,4.153,0,0,0-.447-1.142Z" transform="translate(-585.347 -301.273)"/><ellipse class="g" cx="4.757" cy="6.229" rx="4.757" ry="6.229" transform="translate(119.618 196.351)"/><ellipse class="g" cx="4.757" cy="6.229" rx="4.757" ry="6.229" transform="translate(144.193 196.351)"/><path class="h" d="M536.265,577.4c0,8.942-14.937,24.006-30.009,24.006s-29.446-15.4-29.446-24.339,14.07-.779,29.129-.779S536.265,568.459,536.265,577.4Z" transform="translate(-370.044 -355.232)"/><path class="i" d="M490.962,596.16s27.093,6.031,49.851.171c0,0,2.786,0,.883,3.22a5.143,5.143,0,0,1-2.077,1.952c-4.388,2.241-20.628,8.867-46.6.418a5.11,5.11,0,0,1-3.386-3.466C489.34,597.362,489.472,596.313,490.962,596.16Z" transform="translate(-379.445 -372.462)"/><path class="j" d="M324.775,114.141l-4.03,2.557,2.446-4.45a3.985,3.985,0,0,0-2.435-.87h-.065a4.7,4.7,0,0,1-.836-.06l-1.366.865.584-1.065a4.86,4.86,0,0,1-2.389-1.817l-2.443,1.558,1.553-2.812a7.155,7.155,0,0,0-5.476-2.768,7.509,7.509,0,0,0-6.268,3.869,4.673,4.673,0,0,1-4.154,2.233h-.135c-2.807,0-5.081,3.183-5.081,7.106s2.274,7.106,5.081,7.106a3.819,3.819,0,0,0,1.768-.441,7.334,7.334,0,0,1,6.151-.122,6.416,6.416,0,0,0,5.229,0,7.34,7.34,0,0,1,6.094.117,3.822,3.822,0,0,0,1.753.434c2.807,0,5.081-3.181,5.081-7.106a9.028,9.028,0,0,0-1.062-4.333Z" transform="translate(-234.431 34.72)"/><path class="k" d="M317.18,150.956a7.5,7.5,0,0,0-4.354.475,6.41,6.41,0,0,1-5.227,0,7.335,7.335,0,0,0-6.151.119,3.791,3.791,0,0,1-1.768.444c-2.5,0-4.567-2.511-5-5.824a4.785,4.785,0,0,0,1.246-1.345,7,7,0,0,1,12.5-.042,4.809,4.809,0,0,0,4.141,2.274h.065C314.625,147.046,316.344,148.638,317.18,150.956Z" transform="translate(-234.431 8.304)"/><path class="j" d="M897.762,298.414l-2.01,1.275,1.22-2.217a1.984,1.984,0,0,0-1.218-.434h-.031a2.5,2.5,0,0,1-.418-.031l-.68.431.291-.519a2.441,2.441,0,0,1-1.192-.906l-1.218.779.779-1.4A3.57,3.57,0,0,0,890.544,294a3.718,3.718,0,0,0-3.116,1.929,2.337,2.337,0,0,1-2.077,1.114h-.068c-1.4,0-2.534,1.586-2.534,3.544s1.135,3.539,2.534,3.539a1.9,1.9,0,0,0,.883-.221,3.661,3.661,0,0,1,3.069-.06,3.2,3.2,0,0,0,2.6,0,3.656,3.656,0,0,1,3.04.06,1.893,1.893,0,0,0,.872.215c1.4,0,2.534-1.586,2.534-3.544A4.524,4.524,0,0,0,897.762,298.414Z" transform="translate(-670.586 -120.194)"/><path class="k" d="M894.024,316.763a3.749,3.749,0,0,0-2.173.236,3.188,3.188,0,0,1-1.3.275,3.222,3.222,0,0,1-1.3-.28,3.635,3.635,0,0,0-3.066.06,1.908,1.908,0,0,1-.883.221c-1.244,0-2.28-1.254-2.5-2.905a2.4,2.4,0,0,0,.623-.67,3.489,3.489,0,0,1,6.231-.021,2.4,2.4,0,0,0,2.077,1.135h.034A2.612,2.612,0,0,1,894.024,316.763Z" transform="translate(-670.631 -133.35)"/><path class="j" d="M779.287,176.692l3.23,2.049-1.96-3.565a3.191,3.191,0,0,1,1.953-.7h.052a3.843,3.843,0,0,0,.67-.052l1.093.7-.467-.854a3.9,3.9,0,0,0,1.914-1.47l1.958,1.241-1.236-2.248a5.727,5.727,0,0,1,4.388-2.22,6.015,6.015,0,0,1,5.021,3.1,3.755,3.755,0,0,0,3.318,1.789h.112c2.249,0,4.069,2.55,4.069,5.694s-1.818,5.694-4.069,5.694a3.067,3.067,0,0,1-1.42-.353,5.87,5.87,0,0,0-4.933-.1,5.138,5.138,0,0,1-4.19,0,5.873,5.873,0,0,0-4.884.1,3.058,3.058,0,0,1-1.4.345c-2.248,0-4.071-2.55-4.071-5.694A7.228,7.228,0,0,1,779.287,176.692Z" transform="translate(-602.352 -25.667)"/><path class="k" d="M805.17,206.138a6,6,0,0,1,3.487.379,5.138,5.138,0,0,0,4.191,0,5.881,5.881,0,0,1,4.933.1,3.053,3.053,0,0,0,1.42.356c2,0,3.658-2.012,4-4.673a3.877,3.877,0,0,1-1-1.077,5.616,5.616,0,0,0-10.022-.034A3.856,3.856,0,0,1,808.867,203h-.052C807.216,203.022,805.84,204.289,805.17,206.138Z" transform="translate(-622.149 -46.804)"/><path class="l" d="M279.975,634.656c-1.072-1.984.143-4.414,1.54-6.182s3.1-3.612,3.066-5.865c-.052-3.24-3.492-5.154-6.231-6.87a30.373,30.373,0,0,1-5.6-4.494,8.175,8.175,0,0,1-1.721-2.3,9.389,9.389,0,0,1-.519-4.1q.179-6.932.685-13.854" transform="translate(-217.298 -368.634)"/><path class="m" d="M253.065,576.249a5.04,5.04,0,0,1,2.524-4.154l1.129,2.235-.039-2.7a4.987,4.987,0,0,1,1.664-.2,5.053,5.053,0,1,1-5.278,4.816Z" transform="translate(-204.388 -354.15)"/><path class="m" d="M286.191,700.691a5.053,5.053,0,1,0-.244-4.069l3.155,2.568-3.471-.8a4.977,4.977,0,0,0,.561,2.306Z" transform="translate(-228.502 -444.401)"/><path class="m" d="M283.655,655.086a5.053,5.053,0,0,0,1.6-9.913l.026,2.077-1.145-2.267h-.013a5.055,5.055,0,1,0-.47,10.1Z" transform="translate(-223.471 -408.605)"/><path class="m" d="M236.423,623.67a5.053,5.053,0,1,0-2.235-9.456l.893,2.448-1.836-1.766a5.032,5.032,0,0,0-1.633,3.49,4.934,4.934,0,0,0,.127,1.392A5.05,5.05,0,0,0,236.423,623.67Z" transform="translate(-188.504 -385.352)"/><path class="f" d="M254.071,585.476c1.166.13,2.3.491,3.471.563a3.769,3.769,0,0,0,3.194-1.116,15.977,15.977,0,0,0,.937-1.643,3.588,3.588,0,0,1,1.272-1.2,5.053,5.053,0,1,1-9.446,3.355A5.146,5.146,0,0,1,254.071,585.476Z" transform="translate(-204.714 -362.037)"/><path class="f" d="M236.774,631.917a5.055,5.055,0,0,0,4.806-7.208,3.723,3.723,0,0,0-1.018,1.018,16.124,16.124,0,0,1-1,1.669,4.119,4.119,0,0,1-3.352,1.171c-1.22-.057-2.4-.4-3.612-.519-.166-.016-.338-.026-.519-.031A5.05,5.05,0,0,0,236.774,631.917Z" transform="translate(-188.855 -393.599)"/><path class="f" d="M284.3,663.624a5.053,5.053,0,0,0,4.847-7.114,4.07,4.07,0,0,0-1.07,1.039,16.973,16.973,0,0,1-1.1,1.7,4.624,4.624,0,0,1-3.578,1.254c-1.251-.026-2.456-.335-3.7-.428A5.058,5.058,0,0,0,284.3,663.624Z" transform="translate(-224.111 -417.142)"/><path class="f" d="M287.79,709.933A5.053,5.053,0,0,0,297,705.81a5.082,5.082,0,0,0-1.109.989,19.777,19.777,0,0,1-1.353,1.794,6.336,6.336,0,0,1-4.185,1.472A22.065,22.065,0,0,1,287.79,709.933Z" transform="translate(-230.101 -453.642)"/><path class="l" d="M863.517,659.635c-.779-1.464.106-3.261,1.14-4.567s2.29-2.667,2.261-4.331c-.036-2.394-2.578-3.806-4.606-5.076a22.4,22.4,0,0,1-4.139-3.329,6.114,6.114,0,0,1-1.272-1.7,6.941,6.941,0,0,1-.382-3.025q.132-5.12.519-10.235" transform="translate(-651.159 -395.568)"/><path class="m" d="M843.64,616.514a3.738,3.738,0,0,1,1.864-3.058l.836,1.654-.026-2a3.791,3.791,0,0,1,1.231-.148,3.734,3.734,0,1,1-3.895,3.554Z" transform="translate(-641.631 -384.896)"/><path class="m" d="M868.118,708.489a3.731,3.731,0,1,0-.182-3l2.337,1.9-2.563-.595A3.689,3.689,0,0,0,868.118,708.489Z" transform="translate(-659.451 -451.599)"/><path class="m" d="M866.225,674.7a3.734,3.734,0,0,0,3.895-3.554,3.684,3.684,0,0,0-.322-1.7,3.742,3.742,0,0,0-2.4-2.077l.018,1.54-.844-1.675h0a3.736,3.736,0,1,0-.351,7.465Z" transform="translate(-655.715 -425.082)"/><path class="m" d="M831.337,651.539a3.734,3.734,0,1,0-1.649-6.984l.659,1.817-1.358-1.3a3.708,3.708,0,0,0-1.2,2.576,3.634,3.634,0,0,0,.094,1.039,3.731,3.731,0,0,0,3.458,2.851Z" transform="translate(-629.888 -407.937)"/><path class="f" d="M844.41,623.338c.859.1,1.7.364,2.563.418a2.786,2.786,0,0,0,2.36-.826,11.187,11.187,0,0,0,.691-1.215,2.67,2.67,0,0,1,.94-.885A3.727,3.727,0,1,1,844,623.307C844.127,623.312,844.26,623.323,844.41,623.338Z" transform="translate(-641.897 -390.726)"/><path class="f" d="M831.618,657.643a3.736,3.736,0,0,0,3.552-5.323,2.8,2.8,0,0,0-.753.75,11.126,11.126,0,0,1-.737,1.233,3.056,3.056,0,0,1-2.477.867c-.9-.042-1.768-.3-2.667-.379-.125-.013-.26-.021-.376-.023A3.731,3.731,0,0,0,831.618,657.643Z" transform="translate(-630.17 -414.04)"/><path class="f" d="M866.711,681.023a3.734,3.734,0,0,0,3.895-3.554,3.684,3.684,0,0,0-.322-1.7,3.008,3.008,0,0,0-.779.758,12.792,12.792,0,0,1-.81,1.257,3.453,3.453,0,0,1-2.643.927c-.955-.023-1.818-.247-2.731-.317A3.729,3.729,0,0,0,866.711,681.023Z" transform="translate(-656.201 -431.402)"/><path class="f" d="M869.28,715.323a10.638,10.638,0,1,1,5.985-2.313,15.17,15.17,0,0,1-1,1.327,4.679,4.679,0,0,1-3.09,1.085A15.819,15.819,0,0,1,869.28,715.323Z" transform="translate(-660.614 -458.432)"/><path class="l" d="M992.033,641.663c1.072-1.984-.143-4.414-1.54-6.182s-3.116-3.612-3.066-5.865c.052-3.24,3.492-5.154,6.231-6.87a30.375,30.375,0,0,0,5.6-4.494,8.175,8.175,0,0,0,1.721-2.3,9.391,9.391,0,0,0,.519-4.1q-.164-6.943-.683-13.852" transform="translate(-748.084 -373.824)"/><path class="m" d="M1030.329,583.227a5.048,5.048,0,0,0-2.524-4.154l-1.132,2.238.036-2.708a4.992,4.992,0,0,0-1.664-.2,5.053,5.053,0,1,0,5.284,4.824Z" transform="translate(-772.37 -359.31)"/><path class="m" d="M997.2,707.691a5.053,5.053,0,1,1,.244-4.069l-3.155,2.568,3.471-.8A4.977,4.977,0,0,1,997.2,707.691Z" transform="translate(-748.254 -449.583)"/><path class="m" d="M999.709,662.086a5.053,5.053,0,0,1-1.6-9.913l-.026,2.077,1.158-2.267h0a5.055,5.055,0,1,1,.47,10.1Z" transform="translate(-753.258 -413.787)"/><path class="m" d="M1046.979,630.67a5.053,5.053,0,1,1,2.235-9.456l-.893,2.448,1.836-1.766a5.053,5.053,0,0,1-3.178,8.773Z" transform="translate(-788.262 -390.534)"/><path class="f" d="M1029.653,592.476c-1.166.13-2.3.491-3.471.563a3.769,3.769,0,0,1-3.194-1.116,15.994,15.994,0,0,1-.937-1.643,3.588,3.588,0,0,0-1.272-1.2,5.053,5.053,0,1,0,9.446,3.355A5.38,5.38,0,0,0,1029.653,592.476Z" transform="translate(-772.374 -367.22)"/><path class="f" d="M1046.967,638.918a5.055,5.055,0,0,1-4.806-7.208,3.725,3.725,0,0,1,1.018,1.018,16.137,16.137,0,0,0,1,1.669,4.119,4.119,0,0,0,3.352,1.171c1.22-.057,2.4-.4,3.612-.519.166-.016.338-.026.519-.031A5.05,5.05,0,0,1,1046.967,638.918Z" transform="translate(-788.25 -398.781)"/><path class="f" d="M999.726,670.624a5.053,5.053,0,0,1-4.847-7.114,4.071,4.071,0,0,1,1.07,1.039,16.961,16.961,0,0,0,1.1,1.7,4.623,4.623,0,0,0,3.578,1.254c1.251-.026,2.456-.335,3.7-.428A5.058,5.058,0,0,1,999.726,670.624Z" transform="translate(-753.275 -422.325)"/><path class="f" d="M997.327,716.933a14.35,14.35,0,1,0-8.088-3.134,19.775,19.775,0,0,0,1.353,1.794,6.336,6.336,0,0,0,4.185,1.472A22.061,22.061,0,0,0,997.327,716.933Z" transform="translate(-748.38 -458.825)"/><path class="n" d="M276.83,747.226s3.985-.125,5.193-.979,6.135-1.877,6.434-.519,5.992,6.826,1.49,6.862-10.461-.7-11.66-1.431S276.83,747.226,276.83,747.226Z" transform="translate(-221.986 -482.707)"/><path class="o" d="M290.022,758.265c-4.5.036-10.461-.7-11.66-1.431-.914-.556-1.277-2.552-1.4-3.474h-.132s.26,3.214,1.451,3.947,7.158,1.467,11.66,1.431c1.3,0,1.747-.473,1.724-1.155C291.484,758,290.991,758.257,290.022,758.265Z" transform="translate(-221.986 -488.846)"/><path class="n" d="M865,747.894a8.47,8.47,0,0,0,3.03-.571c.693-.5,3.58-1.1,3.754-.293s3.5,3.983.87,4-6.107-.408-6.808-.836S865,747.894,865,747.894Z" transform="translate(-657.445 -483.868)"/><path class="o" d="M872.69,754.334c-2.628.021-6.107-.41-6.808-.836-.519-.325-.745-1.49-.815-2.028H865s.148,1.877.846,2.3,4.18.859,6.808.836c.758,0,1.02-.275,1-.675C873.545,754.178,873.254,754.329,872.69,754.334Z" transform="translate(-657.445 -487.447)"/><path class="n" d="M975.83,751.226s3.985-.125,5.193-.979,6.135-1.877,6.434-.519,5.992,6.826,1.49,6.862-10.461-.7-11.66-1.431S975.83,751.226,975.83,751.226Z" transform="translate(-739.499 -485.668)"/><path class="o" d="M989.022,762.265c-4.5.036-10.461-.7-11.66-1.431-.914-.556-1.277-2.552-1.4-3.474h-.132s.26,3.214,1.451,3.946,7.158,1.467,11.66,1.431c1.3,0,1.747-.473,1.724-1.155C990.484,762,989.991,762.257,989.022,762.265Z" transform="translate(-739.499 -491.808)"/></g><path class="f" d="M460.634,378.2a45.841,45.841,0,0,1,45.759,43.122q.13-1.709.13-3.457a45.844,45.844,0,1,0-91.687,0c0,.916.032,1.817.084,2.728A45.847,45.847,0,0,1,460.634,378.2Z" transform="translate(-324.035 -346.52)"/></g></svg>
