<svg width="117" height="140" viewBox="0 0 117 140" fill="none" xmlns="http://www.w3.org/2000/svg">
<g clip-path="url(#clip0_1555_71778)">
<path d="M93.8391 48.3416H82.2963V44.542C82.2963 38.1732 87.4685 33.0026 93.8391 33.0026H93.8391V48.3416L93.8391 48.3416Z" fill="#2F2E41"/>
<path d="M91.2806 41.2486L93.2652 50.1725L81.6355 48.242L86.3746 39.8021L91.2806 41.2486Z" fill="#A0616A"/>
<path opacity="0.1" d="M91.2806 41.2486L93.2652 50.1725L81.6355 48.242L86.3746 39.8021L91.2806 41.2486Z" fill="black"/>
<path d="M91.2806 60.312H80.1307V76.8091H91.2806V60.312Z" fill="#A0616A"/>
<path d="M98.528 90.2965L96.0751 103.45C96.0751 103.45 97.636 112.59 92.9531 121.953L89.8311 131.539L85.1482 130.87C85.1482 130.87 88.0472 123.736 88.0472 120.615C88.0472 117.494 88.7161 105.456 88.7161 105.456L88.3817 91.7192L98.528 90.2965Z" fill="#2F2E41"/>
<path d="M84.4792 130.647C84.4792 130.647 89.8311 128.641 90.2771 131.539L90.0541 132.877C90.0541 132.877 92.0611 138.896 89.1621 139.342C86.2632 139.788 83.5872 140.456 83.3642 139.119C83.1412 137.781 83.1447 136.112 83.7005 134.94C84.2562 133.768 84.4792 130.647 84.4792 130.647Z" fill="#2F2E41"/>
<path d="M81.647 88.2562L80.3442 101.572C80.3442 101.572 76.302 109.918 78.1955 120.214L78.5275 130.29L83.2118 130.949C83.2118 130.949 82.4118 123.291 83.28 120.293C84.1482 117.295 86.8546 105.546 86.8546 105.546L90.9973 92.4438L81.647 88.2562V88.2562Z" fill="#2F2E41"/>
<path d="M83.9164 130.921C83.9164 130.921 79.3338 127.506 78.0991 130.166L77.9412 131.513C77.9412 131.513 74.3389 136.736 76.9995 137.971C79.6601 139.205 82.0444 140.591 82.6307 139.368C83.217 138.146 83.6781 136.541 83.4702 135.261C83.2623 133.981 83.9164 130.921 83.9164 130.921Z" fill="#2F2E41"/>
<path d="M95.852 69.2293C101.097 74.1222 101.486 81.8637 98.4165 91.0768C98.4165 91.0768 88.6046 97.7648 81.4687 89.2933L77.9008 72.1274L95.852 69.2293Z" fill="#2F2E41"/>
<path d="M87.0436 45.3755L92.6186 46.2672L92.1726 60.312L98.4165 72.7963L90.3886 76.8091C90.3886 76.8091 84.1447 64.9936 83.0297 57.6368C81.9147 50.28 82.5837 44.9296 82.5837 44.9296L87.0436 45.3755Z" fill="#00AFFF"/>
<path d="M82.8067 45.8214L77.2318 46.7131L77.6778 60.7579L76.3398 73.688L79.4617 77.2549C79.4617 77.2549 85.7057 65.4395 86.8207 58.0827C87.9356 50.7259 87.2667 45.3755 87.2667 45.3755L82.8067 45.8214Z" fill="#00AFFF"/>
<path d="M89.4966 46.1557L90.7231 45.8213C90.7231 45.8213 95.0716 45.264 95.7406 47.0475C96.4095 48.8309 96.1866 59.3088 96.1866 59.3088C96.1866 59.3088 97.3372 72.1687 92.8594 72.3153C88.3816 72.4618 89.2736 61.7611 89.2736 61.7611L89.4966 46.1557Z" fill="#00AFFF"/>
<path d="M89.3346 43.6977C92.522 43.6977 95.106 41.1145 95.106 37.9279C95.106 34.7414 92.522 32.1582 89.3346 32.1582C86.1471 32.1582 83.5632 34.7414 83.5632 37.9279C83.5632 41.1145 86.1471 43.6977 89.3346 43.6977Z" fill="#A0616A"/>
<path d="M82.1377 46.6016L80.9112 46.2672C80.9112 46.2672 76.5628 45.7099 75.8938 47.4933C75.2248 49.2768 75.4478 59.7547 75.4478 59.7547C75.4478 59.7547 74.2971 72.6146 78.7749 72.7611C83.2527 72.9077 82.3607 62.2069 82.3607 62.2069L82.1377 46.6016Z" fill="#00AFFF"/>
<path d="M86.0006 45.8686C84.7625 45.5546 83.3588 46.8765 82.865 48.8221C82.6571 49.5966 82.6377 50.4096 82.8085 51.1931L82.2765 53.4047L82.2374 53.4026L78.0409 63.2895C77.0652 65.5883 77.1683 68.2274 78.4128 70.3926C79.1532 71.6806 80.125 72.5465 81.2661 71.6626C83.1595 70.1959 84.3963 61.798 84.9609 56.9739L86.2666 52.0703C86.7907 51.4629 87.1616 50.7388 87.3483 49.9587C87.8422 48.0138 87.2387 46.1826 86.0006 45.8686L86.0006 45.8686Z" fill="#A0616A"/>
<path d="M78.2854 42.5957C78.579 41.7033 79.1585 40.9221 79.4178 40.0192C79.762 38.8203 80.495 41.4799 80.5665 40.2347C80.7024 37.8679 84.3157 31.7797 86.3785 30.6102C88.4413 29.4407 89.6261 29.7933 91.7276 30.8917C91.7276 30.8917 92.7478 30.9565 94.0178 31.5834C95.2878 32.2102 96.431 33.2141 96.9249 34.5411C97.3165 35.593 97.2731 36.7481 97.404 37.8628C97.7684 40.9683 99.5097 43.9217 99.136 47.026C99.0194 47.9946 98.6511 48.9961 97.859 49.5658C97.0669 50.1354 95.7871 50.0735 95.2657 49.2489C95.0878 48.9675 95.0125 48.6337 94.8601 48.3377C94.7076 48.0418 94.4321 47.7659 94.0992 47.7751C93.5989 47.789 93.3442 48.4601 93.5415 48.92C93.7388 49.3798 94.2024 49.6575 94.6377 49.9044C93.601 50.3707 92.3149 50.2255 91.4083 49.5398C90.5017 48.8542 90.0121 47.6564 90.179 46.5322C90.414 44.948 92.7226 45.2759 92.9945 43.6977C93.1925 42.5487 93.8877 40.6263 93.6984 39.4759C93.509 38.3255 92.5995 39.7184 93.5576 39.0537C92.5035 39.5617 90.2489 36.0865 89.1454 35.6973C88.042 35.308 87.1064 34.4652 86.6046 33.4084C85.4342 35.1045 84.4047 34.6439 83.9855 36.6614C83.5664 38.6789 83.9539 43.2624 85.6799 44.3888C84.9891 44.8599 84.4385 45.5337 84.1144 46.3042C83.9308 46.7408 83.8118 47.2185 83.5071 47.581C82.9251 48.2735 81.8504 48.3156 80.9938 48.0245C79.9317 47.6634 79.0236 46.8705 78.5229 45.8669C78.0222 44.8633 77.9349 43.6611 78.2854 42.5957L78.2854 42.5957V42.5957Z" fill="#2F2E41"/>
<path d="M0 139.586C0 139.734 0.118195 139.852 0.26538 139.852H116.735C116.882 139.852 117 139.734 117 139.586C117 139.439 116.882 139.321 116.735 139.321H0.26538C0.118195 139.321 0 139.439 0 139.586Z" fill="#3F3D56"/>
<path d="M75.8275 0.2229H29.9639C24.7629 0.2229 20.5467 4.4379 20.5467 9.63736V130.118C20.5467 135.317 24.7629 139.532 29.9639 139.532H75.8275C81.0284 139.532 85.2447 135.317 85.2447 130.118V9.63736C85.2447 4.4379 81.0284 0.2229 75.8275 0.2229Z" fill="white"/>
<path d="M75.8275 139.755H29.9639C24.6483 139.755 20.3237 135.432 20.3237 130.118V9.6374C20.3237 4.32336 24.6483 0 29.9639 0H75.8275C81.1431 0 85.4677 4.32336 85.4677 9.6374V130.118C85.4677 135.432 81.1431 139.755 75.8275 139.755H75.8275ZM29.9639 0.445866C24.8942 0.445866 20.7697 4.56915 20.7697 9.6374V130.118C20.7697 135.186 24.8942 139.309 29.9639 139.309H75.8275C80.8972 139.309 85.0217 135.186 85.0217 130.118V9.6374C85.0217 4.56915 80.8972 0.445866 75.8275 0.445866H29.9639Z" fill="#3F3D56"/>
<path d="M16.7568 21.082C16.3542 21.082 16.0268 21.4093 16.0268 21.8118V27.6508C16.0268 28.0533 16.3542 28.3806 16.7568 28.3806C17.1595 28.3806 17.4869 28.0533 17.4869 27.6508V21.8118C17.4869 21.4093 17.1595 21.082 16.7568 21.082Z" fill="#3F3D56"/>
<path d="M79.1497 19.498H60.715C59.9331 19.498 59.2969 18.862 59.2969 18.0804C59.2969 17.2987 59.9331 16.6627 60.715 16.6627H79.1497C79.9316 16.6627 80.5678 17.2987 80.5678 18.0804C80.5678 18.862 79.9316 19.498 79.1497 19.498H79.1497Z" fill="#E6E6E6"/>
<path d="M61.8555 30.6463H43.9361C43.4843 30.6463 43.1167 30.2788 43.1167 29.8272C43.1167 29.3756 43.4843 29.0082 43.9361 29.0082H61.8555C62.3072 29.0082 62.6747 29.3756 62.6747 29.8272C62.6747 30.2788 62.3072 30.6463 61.8555 30.6463V30.6463Z" fill="#00AFFF"/>
<path d="M17.4657 34.6888C25.4585 34.6888 31.938 28.3476 31.938 20.5255C31.938 12.7033 25.4585 6.36218 17.4657 6.36218C9.47285 6.36218 2.99338 12.7033 2.99338 20.5255C2.99338 28.3476 9.47285 34.6888 17.4657 34.6888Z" fill="#00AFFF"/>
<path d="M22.3776 13.3814C20.4509 16.8887 18.5241 20.3961 16.5974 23.9034C15.3695 21.7344 14.1482 19.5615 12.9172 17.3942C12.4921 16.6457 11.3357 17.3189 11.7619 18.0693C13.1889 20.5817 14.6011 23.1025 16.0281 25.615C16.2721 26.0445 16.9419 26.0545 17.1834 25.615C19.2999 21.7621 21.4164 17.9093 23.5329 14.0565C23.9476 13.3016 22.7926 12.6259 22.3776 13.3814Z" fill="white"/>
<path d="M36.5282 3.2677H26.2976C26.2594 3.2677 26.2284 3.29866 26.2284 3.33686V4.52751C26.2284 4.56571 26.2594 4.59667 26.2976 4.59667H36.5282C36.5664 4.59667 36.5974 4.56571 36.5974 4.52751V3.33686C36.5974 3.29866 36.5664 3.2677 36.5282 3.2677Z" fill="#E6E6E6"/>
<path d="M70.9882 4.59669C71.5755 4.59669 72.0517 4.12069 72.0517 3.53351C72.0517 2.94634 71.5755 2.47034 70.9882 2.47034C70.4008 2.47034 69.9247 2.94634 69.9247 3.53351C69.9247 4.12069 70.4008 4.59669 70.9882 4.59669Z" fill="#E6E6E6"/>
<path d="M73.9127 4.59669C74.5001 4.59669 74.9762 4.12069 74.9762 3.53351C74.9762 2.94634 74.5001 2.47034 73.9127 2.47034C73.3254 2.47034 72.8492 2.94634 72.8492 3.53351C72.8492 4.12069 73.3254 4.59669 73.9127 4.59669Z" fill="#E6E6E6"/>
<path d="M76.8373 4.59669C77.4246 4.59669 77.9008 4.12069 77.9008 3.53351C77.9008 2.94634 77.4246 2.47034 76.8373 2.47034C76.2499 2.47034 75.7738 2.94634 75.7738 3.53351C75.7738 4.12069 76.2499 4.59669 76.8373 4.59669Z" fill="#E6E6E6"/>
<path d="M29.8523 35.0308C29.8523 35.1779 29.9705 35.2961 30.1176 35.2961H75.6738C75.8209 35.2961 75.9391 35.1779 75.9391 35.0308C75.9391 34.8837 75.8209 34.7655 75.6738 34.7655H30.1176C29.9705 34.7655 29.8523 34.8837 29.8523 35.0308Z" fill="#3F3D56"/>
<path d="M71.3051 55.8819H43.9661C43.5143 55.8819 43.1467 55.5144 43.1467 55.0628C43.1467 54.6111 43.5143 54.2438 43.9661 54.2438H71.3051C71.7569 54.2438 72.1243 54.6111 72.1243 55.0628C72.1243 55.5144 71.7569 55.8819 71.3051 55.8819V55.8819Z" fill="#00AFFF"/>
<path d="M71.3051 67.6973H43.9661C43.5143 67.6973 43.1467 67.3299 43.1467 66.8782C43.1467 66.4266 43.5143 66.0593 43.9661 66.0593H71.3051C71.7569 66.0593 72.1243 66.4266 72.1243 66.8782C72.1243 67.3299 71.7569 67.6973 71.3051 67.6973V67.6973Z" fill="#00AFFF"/>
<path d="M71.3051 79.5128H43.9661C43.5143 79.5128 43.1467 79.1453 43.1467 78.6936C43.1467 78.242 43.5143 77.8747 43.9661 77.8747H71.3051C71.7569 77.8747 72.1243 78.242 72.1243 78.6936C72.1243 79.1453 71.7569 79.5128 71.3051 79.5128V79.5128Z" fill="#00AFFF"/>
<path d="M35.6741 56.968C36.7825 56.968 37.681 56.0697 37.681 54.9616C37.681 53.8535 36.7825 52.9552 35.6741 52.9552C34.5656 52.9552 33.6671 53.8535 33.6671 54.9616C33.6671 56.0697 34.5656 56.968 35.6741 56.968Z" fill="#00AFFF"/>
<path d="M35.451 58.3056V57.8597C37.111 57.8597 38.4615 56.5096 38.4615 54.8501C38.4615 53.1906 37.111 51.8405 35.451 51.8405V51.3947C37.357 51.3947 38.9075 52.9447 38.9075 54.8501C38.9075 56.7555 37.357 58.3056 35.451 58.3056Z" fill="#3F3D56"/>
<path d="M35.6741 68.7834C36.7825 68.7834 37.681 67.8851 37.681 66.777C37.681 65.6689 36.7825 64.7706 35.6741 64.7706C34.5656 64.7706 33.6671 65.6689 33.6671 66.777C33.6671 67.8851 34.5656 68.7834 35.6741 68.7834Z" fill="#00AFFF"/>
<path d="M35.451 70.121V69.6751C37.111 69.6751 38.4615 68.3251 38.4615 66.6655C38.4615 65.0061 37.111 63.6559 35.451 63.6559V63.2101C37.357 63.2101 38.9075 64.7602 38.9075 66.6655C38.9075 68.5709 37.357 70.121 35.451 70.121Z" fill="#3F3D56"/>
<path d="M35.6741 80.5989C36.7825 80.5989 37.681 79.7006 37.681 78.5925C37.681 77.4844 36.7825 76.5861 35.6741 76.5861C34.5656 76.5861 33.6671 77.4844 33.6671 78.5925C33.6671 79.7006 34.5656 80.5989 35.6741 80.5989Z" fill="#00AFFF"/>
<path d="M35.451 81.9365V81.4906C37.111 81.4906 38.4615 80.1406 38.4615 78.481C38.4615 76.8214 37.111 75.4714 35.451 75.4714V75.0256C37.357 75.0256 38.9075 76.5757 38.9075 78.481C38.9075 80.3864 37.357 81.9365 35.451 81.9365Z" fill="#3F3D56"/>
<path d="M85.6337 45.4227C86.8718 45.1087 88.2755 46.4307 88.7693 48.3763C88.9772 49.1508 88.9966 49.9637 88.8258 50.7472L89.3578 52.9588L89.397 52.9568L93.5934 62.8436C94.5691 65.1424 94.466 67.7815 93.2215 69.9467C92.4812 71.2347 91.5093 72.1006 90.3683 71.2167C88.4748 69.75 87.2381 61.3521 86.6734 56.528L85.3678 51.6244C84.8437 51.017 84.4728 50.2929 84.2861 49.5128C83.7922 47.568 84.3956 45.7368 85.6337 45.4227L85.6337 45.4227Z" fill="#A0616A"/>
<path d="M90.4006 50.8405L85.7057 54.1769L88.0531 68.956L90.9973 72.7626L94.4269 71.5768L95.4296 64.5904L94.2496 57.8339L90.4006 50.8405Z" fill="#00AFFF"/>
</g>
<defs>
<clipPath id="clip0_1555_71778">
<rect width="117" height="139.909" fill="white"/>
</clipPath>
</defs>
</svg>
