<svg width="178" height="141" viewBox="0 0 178 141" fill="none" xmlns="http://www.w3.org/2000/svg">
<g clip-path="url(#clip0_1596_72649)">
<path d="M149.28 135.002C149.978 135.045 150.363 134.18 149.835 133.676L149.782 133.467C149.789 133.451 149.796 133.434 149.803 133.417C150.219 132.426 151.365 131.957 152.359 132.368C155.504 133.666 152.184 136.649 152.434 138.667C152.521 139.364 155.254 139.402 155.1 140.086C156.553 136.913 157.317 133.449 157.316 129.965C157.316 129.09 157.267 128.215 157.169 127.341C157.088 126.627 156.976 125.918 156.832 125.214C156.052 121.413 154.366 117.793 151.933 114.769C150.764 114.132 151.477 113.134 150.888 111.939C150.676 111.508 148.789 111.499 148.71 111.026C148.795 111.037 150.015 109.772 149.612 109.146C149.347 108.735 149.429 108.21 149.77 107.858C149.803 107.824 149.835 107.787 149.864 107.748C150.87 106.385 152.257 106.622 152.982 108.474C154.529 109.254 154.545 110.546 153.596 111.79C152.992 112.582 152.91 113.652 152.38 114.499C152.435 114.569 152.491 114.636 152.546 114.706C153.546 115.986 154.411 117.362 155.141 118.807C154.934 117.201 155.238 115.265 155.756 114.017C156.35 112.585 157.467 111.38 158.446 110.141C159.615 108.662 161.994 109.333 162.201 111.206C162.203 111.224 162.205 111.242 162.207 111.26C162.062 111.342 161.92 111.429 161.782 111.52C160.992 112.042 161.266 113.265 162.202 113.408L162.223 113.412C162.171 113.932 160.321 115.571 160.191 116.079C161.441 120.902 160.506 121.539 156.657 121.62L156.455 121.907C156.82 122.954 157.113 124.026 157.334 125.112C157.541 126.12 157.686 127.139 157.767 128.162C157.867 129.453 157.859 130.751 157.75 132.04L157.757 131.994C158.033 130.574 158.805 129.248 159.925 128.329C161.595 126.959 163.953 126.454 165.754 125.352C166.621 124.822 167.732 125.507 167.581 126.51L167.574 126.558C167.306 126.667 167.044 126.794 166.791 126.935C166.646 127.017 166.505 127.104 166.366 127.195C165.576 127.717 165.85 128.94 166.786 129.083L166.807 129.086C166.823 129.089 166.836 129.091 166.851 129.093C166.391 130.184 162.011 131.723 161.209 132.596C160.429 136.809 160.812 136.684 157.222 135.458H157.22C156.828 137.166 156.255 138.834 155.518 140.423L149.435 140.425C149.413 140.358 149.393 140.288 149.373 140.221C149.936 140.255 150.503 140.222 151.057 140.12C150.605 139.567 150.154 139.01 149.702 138.457C149.691 138.446 149.682 138.435 149.674 138.424L149.667 138.416L149.04 136.357C149.09 135.9 149.171 135.447 149.28 135.002L149.28 135.002V135.002V135.002Z" fill="#F2F2F2"/>
<path d="M84.9902 140.376L31.1567 140.395C28.4522 140.396 26.0297 139 24.6766 136.662C24 135.493 23.6616 134.21 23.6612 132.927C23.6607 131.644 23.9984 130.361 24.674 129.192L51.5737 80.2955C52.9253 77.9562 55.3469 76.5592 58.0513 76.5583C60.7558 76.5574 63.1784 77.9527 64.5316 80.291L91.4686 129.175C92.1434 130.341 92.4809 131.622 92.481 132.904C92.481 134.186 92.1435 135.469 91.4677 136.639C90.1163 138.978 87.6947 140.375 84.9902 140.376H84.9902H84.9902ZM24.3379 132.926C24.3378 134.094 30.2782 131.578 30.8936 132.641C32.1245 134.769 28.696 139.721 31.1565 139.72C31.1565 139.72 89.6534 138.43 90.8829 136.302C91.4975 135.238 91.8047 134.071 91.8043 132.904C91.8039 131.737 91.4959 130.57 90.8804 129.506L63.9434 80.6222C62.7158 78.5011 60.5121 77.2316 58.0516 77.2325C55.5922 77.2333 24.338 131.758 24.3379 132.926H24.3379Z" fill="#3F3D56"/>
<path d="M85.588 139.702C84.9133 141.05 116.517 140.636 116.891 140.636C116.891 140.636 125.774 140.44 125.961 140.117C126.054 139.955 126.101 139.778 126.101 139.601C126.101 139.423 126.054 139.246 125.96 139.085L121.87 131.661C121.683 131.339 121.349 131.146 120.975 131.147C120.96 131.147 120.937 131.16 120.907 131.187C115.45 136.056 108.725 139.275 101.408 139.383C93.6272 139.499 85.6309 139.616 85.588 139.702H85.588Z" fill="#3F3D56"/>
<path d="M2.52702e-08 140.599C7.76744e-05 140.821 0.179079 141 0.401909 141L176.73 140.939C176.952 140.939 177.131 140.76 177.131 140.538C177.131 140.315 176.952 140.137 176.729 140.137L0.401632 140.198C0.178802 140.198 -7.76239e-05 140.376 2.52702e-08 140.599H2.52702e-08Z" fill="#CCCCCC"/>
<path d="M136.351 138.652L133.298 138.653L131.841 126.893L136.348 126.891L136.351 138.652Z" fill="#A0616A"/>
<path d="M125.889 138.586C125.794 138.746 125.744 139.262 125.744 139.448C125.745 140.02 126.209 140.483 126.781 140.483L136.238 140.479C136.628 140.479 136.945 140.163 136.944 139.773L136.944 139.38C136.944 139.38 137.412 138.198 136.448 136.742C136.448 136.742 135.251 137.883 133.462 136.098L132.934 135.144L129.117 137.933L127.001 138.194C126.538 138.251 126.127 138.186 125.889 138.586H125.889Z" fill="#2F2E41"/>
<path d="M124.643 128.593L121.75 129.571L116.598 118.896L120.867 117.453L124.643 128.593Z" fill="#A0616A"/>
<path d="M114.711 131.877C114.672 132.059 114.79 132.564 114.85 132.74C115.034 133.281 115.622 133.572 116.164 133.388L125.121 130.361C125.491 130.236 125.69 129.835 125.564 129.466L125.438 129.094C125.438 129.094 125.502 127.825 124.122 126.754C124.122 126.754 123.354 128.217 121.087 127.098L120.281 126.363L117.559 130.226L115.638 131.15C115.218 131.352 114.808 131.421 114.711 131.877L114.711 131.877Z" fill="#2F2E41"/>
<path d="M119.926 60.3716L114.003 79.9575L107.011 97.5749L118.081 122.734L122.185 120.911L117.274 97.7991L127.574 82.1162L132.38 131.074L136.485 130.845L142.052 71.75L142.846 58.8835L119.926 60.3716Z" fill="#2F2E41"/>
<path d="M137.814 16.9849L129.148 18.582L128.465 22.4534L123.221 24.9601L120.494 53.426C120.494 53.426 115.935 59.3482 119.584 61.1687L142.846 58.8835C142.846 58.8835 143.984 54.673 142.844 54.2735C141.703 53.8741 141.7 43.8168 141.7 43.8168L146.938 23.1302L139.183 20.4002L137.814 16.9849Z" fill="#E6E6E6"/>
<path d="M132.702 16.9102C136.567 16.9102 139.7 13.7819 139.7 9.92292C139.7 6.06394 136.567 2.93561 132.702 2.93561C128.838 2.93561 125.705 6.06394 125.705 9.92292C125.705 13.7819 128.838 16.9102 132.702 16.9102Z" fill="#A0616A"/>
<path d="M137.336 10.96C136.778 11.2652 137.308 12.7226 136.959 12.8485C136.555 12.9942 135.085 11.3224 135.066 9.44997C135.061 8.88325 135.191 8.61112 135.066 7.93919C134.902 7.06027 134.397 6.0236 133.93 6.05112C133.654 6.06744 133.383 6.45808 133.363 6.8067C133.335 7.2953 133.81 7.48761 133.742 7.75081C133.611 8.25211 131.616 8.59821 130.905 7.75179C130.348 7.0882 130.775 5.92311 130.526 5.86345C130.342 5.81948 130.145 6.46094 129.392 7.18577C129.108 7.45886 128.685 7.865 128.446 7.75264C128.101 7.59026 128.352 6.44595 128.257 6.43078C128.178 6.41821 128.129 7.22253 127.69 7.94174C127.126 8.86575 125.963 9.57795 125.421 9.26445C125.088 9.07238 125.062 8.53764 125.042 8.13151C125 7.27589 123.755 5.30779 124.077 4.39249C124.733 2.52956 125.856 3.84275 126.364 3.22104C127.052 2.37941 127.669 2.83191 128.822 1.89827C129.949 0.986193 129.959 0.0694774 130.713 0.00914963C131.392 -0.0451777 131.634 0.678392 132.415 0.5751C133.077 0.487599 133.221 -0.0736055 133.739 0.00810125C134.213 0.0829042 134.244 0.577295 134.874 0.763095C135.276 0.881715 135.365 0.710025 135.82 0.762768C136.767 0.872515 137.403 1.7339 137.522 1.89526C137.982 2.5173 137.804 2.77962 138.279 3.40577C138.69 3.94574 139.599 3.71644 139.941 3.98613C141.058 4.86734 141.538 6.49247 141.548 8.34473C141.555 9.64025 141.386 10.2948 141.008 11.93C140.722 13.1717 139.394 14.7763 138.662 15.4918C138.465 15.6839 137.915 16.2223 137.527 16.0587C137.16 15.9037 137.149 15.2067 137.149 15.1146C137.147 14.7981 137.231 14.4064 137.905 13.4148C138.612 12.3731 138.893 12.2542 138.85 11.9037C138.774 11.284 137.781 10.7166 137.336 10.96H137.336Z" fill="#2F2E41"/>
<path d="M112.927 76.1041C112.709 77.9254 113.474 79.514 114.634 79.6524C115.795 79.7908 116.913 78.4265 117.13 76.6053C117.226 75.8081 117.133 75.0555 116.901 74.4495L117.727 66.7208L114.086 66.4111L113.658 74.0629C113.29 74.5973 113.022 75.3069 112.927 76.1041H112.927H112.927Z" fill="#A0616A"/>
<path d="M123.392 24.7762C123.392 24.7762 121.506 24.803 120.257 27.2384C119.593 28.5325 116.043 52.7326 116.043 52.7326L112.772 72.5571L118.343 72.5851L122.685 53.8109L126.337 42.9222L123.392 24.7762L123.392 24.7762Z" fill="#E6E6E6"/>
<path d="M139.07 73.195C138.536 74.9502 139.01 76.6477 140.129 76.9867C141.247 77.3257 142.587 76.1777 143.12 74.4226C143.354 73.6543 143.394 72.8971 143.272 72.26L145.439 64.7947L141.909 63.8539L140.147 71.313C139.691 71.7749 139.303 72.4268 139.07 73.195V73.195Z" fill="#A0616A"/>
<path d="M142.947 23.4731C142.947 23.4731 145.683 21.4227 147.965 24.61C150.247 27.7973 151.168 53.9847 151.168 53.9847L144.788 70.1549L139.998 68.5625L144.552 48.7494L136.565 33.7227L142.947 23.4731H142.947Z" fill="#E6E6E6"/>
<path d="M73.7598 129.593C87.3709 129.593 98.405 118.575 98.405 104.984C98.405 91.3933 87.3709 80.3757 73.7598 80.3757C60.1486 80.3757 49.1146 91.3933 49.1146 104.984C49.1146 118.575 60.1486 129.593 73.7598 129.593Z" fill="#FF3562"/>
<path d="M73.7642 120.069C75.0139 120.069 76.027 119.058 76.027 117.81C76.027 116.562 75.0139 115.551 73.7642 115.551C72.5145 115.551 71.5013 116.562 71.5013 117.81C71.5013 119.058 72.5145 120.069 73.7642 120.069Z" fill="white"/>
<path d="M73.7545 89.8989C73.5467 91.278 73.9191 91.5666 73.9212 97.5123C73.9232 103.458 75.1588 111.43 73.762 111.43C72.3652 111.431 71.8544 94.9788 67.0042 93.5227C61.3018 91.8108 74.4274 85.4343 73.7545 89.8989Z" fill="white"/>
<path d="M40.6825 117.548L38.4559 122.246C41.1477 120.318 45.3522 118.657 48.698 117.767C45.5805 116.264 41.7659 113.839 39.4869 111.439L40.7676 116.403C25.753 113.349 14.9707 101.848 14.9662 88.673L14.4238 88.4867C14.4286 102.248 25.0617 114.43 40.6825 117.548V117.548Z" fill="#3F3D56"/>
</g>
<defs>
<clipPath id="clip0_1596_72649">
<rect width="177.131" height="141" fill="white"/>
</clipPath>
</defs>
</svg>
