<svg xmlns="http://www.w3.org/2000/svg" xmlns:xlink="http://www.w3.org/1999/xlink" width="203.481" height="145.491" viewBox="0 0 203.481 145.491"><defs><style>.a,.p{fill:none;}.b{clip-path:url(#a);}.c{fill:#eee;}.d{fill:#00c3ae;}.e{fill:#444053;}.f{fill:#00afff;}.g{fill:#0c263d;}.h{fill:#f6f8fb;}.i{opacity:0.05;}.j{fill:url(#b);}.k{fill:url(#c);}.l{opacity:0.1;}.m{fill:#ffd037;}.n{fill:#a8a8a8;}.o{opacity:0.2;}.p{stroke:#0c263d;stroke-linecap:round;stroke-width:3px;}</style><clipPath id="a"><rect class="a" width="203.481" height="145.491"/></clipPath><linearGradient id="b" x1="0.5" y1="1" x2="0.5" gradientUnits="objectBoundingBox"><stop offset="0" stop-color="gray" stop-opacity="0.251"/><stop offset="0.54" stop-color="gray" stop-opacity="0.122"/><stop offset="1" stop-color="gray" stop-opacity="0.102"/></linearGradient><linearGradient id="c" x1="0.5" y1="1.039" x2="0.5" y2="0.047" xlink:href="#b"/></defs><g class="b"><g transform="translate(-6897 -6737)"><path class="c" d="M180.053,67.926c-12.14-.42-23.7-4.341-34.744-8.629s-21.977-9.038-33.834-11.311c-7.621-1.461-16.338-1.668-22.478,2.42-5.911,3.939-7.82,10.718-8.846,17.018-.773,4.738-1.227,9.726.889,14.163,1.471,3.08,4.08,5.669,5.883,8.618,6.278,10.266,1.84,22.923-4.962,32.947-3.189,4.7-6.894,9.192-9.357,14.191S69.01,148.08,71.165,153.2c2.135,5.065,7.224,8.861,12.737,11.534,11.2,5.431,24.386,6.984,37.256,7.865,28.481,1.947,57.112,1.1,85.667.259,10.568-.313,21.182-.628,31.578-2.264,5.774-.906,11.733-2.347,15.926-5.815a13.337,13.337,0,0,0,3.073-17.423c-5.98-9.283-22.51-11.589-26.695-21.551-2.3-5.485.062-11.593,3.407-16.678,7.173-10.912,19.2-20.484,19.829-32.955.433-8.565-5.346-17.143-14.283-21.2-9.366-4.247-22.356-3.712-29.263,3.318C203.278,65.511,190.774,68.3,180.053,67.926Z" transform="translate(6829.3 6689.971)"/><path class="d" d="M161.56,730.835s3.939-.63,6.3,2.153c0,0-1.733,1.366-5.462-.525Z" transform="translate(6754.935 6134.485)"/><path class="d" d="M152.3,730.78s-2.512,3.1-1.279,6.535c0,0,2.048-.82,2.272-5Z" transform="translate(6763.777 6134.48)"/><path class="d" d="M147.28,699.331s1.576-2.889,7.878,1.156a3.537,3.537,0,0,1-3.624,1.786A4.272,4.272,0,0,1,147.28,699.331Z" transform="translate(6766.536 6160.842)"/><path class="d" d="M129.577,702.536s-3.27-.375-3.587,7.109a3.54,3.54,0,0,0,3.545-1.936C131.017,705.343,130.4,704.015,129.577,702.536Z" transform="translate(6783.832 6157.428)"/><path class="d" d="M135,658.72s1.838-5.1,8.509-1.471c0,0-1.523,4.675-7.826,3.2Z" transform="translate(6776.512 6195.275)"/><path class="d" d="M124,619.713s3.468-5.147,9.614-.375c0,0-2.153,4.834-9.088,2.206Z" transform="translate(6785.449 6226.666)"/><path class="d" d="M120.11,582.381s4.046-4.727,10.139,0c0,0-3.834,4.149-10.129,1.208Z" transform="translate(6788.609 6256.749)"/><path class="d" d="M116.75,544.15s4.1-4.937,9.929-.263c0,0-4.622,4.359-9.929,1.418Z" transform="translate(6791.339 6287.949)"/><path class="d" d="M118.71,505.278s4.314-6.357,9.771-2.05c0,0-4.622,5.464-9.771,3.258Z" transform="translate(6789.747 6320.563)"/><path class="d" d="M124,467.445s4.571-6.3,9.876-1.471c0,0-5.41,5.462-9.876,2.626Z" transform="translate(6785.449 6351.094)"/><path class="d" d="M131.136,429.082s5.41-5.922,10.129-3.564c0,0-5.639,6.29-10.366,5.134Z" transform="translate(6779.843 6382.931)"/><path class="d" d="M140.323,390.934s6.25-7.25,9.874-4.832c0,0-4.6,5.627-10.317,6.19Z" transform="translate(6772.548 6414.903)"/><path class="d" d="M153.613,355.416s5.464-5.924,9.456-4.444c0,0-4.675,6.147-10.189,6.3Z" transform="translate(6761.986 6443.235)"/><path class="d" d="M168.863,319.155s6.04-5.673,8.666-4.675c0,0-4.359,6.3-8.929,5.935Z" transform="translate(6749.215 6472.785)"/><path class="d" d="M182.84,279.675s5.2-6.775,8.036-6.25c0,0-3.151,6.04-8.036,6.941Z" transform="translate(6737.646 6506.067)"/><path class="d" d="M196,239.883s4.6-5.2,7.077-5.183c0,0-3.628,6.941-7.267,6.877Z" transform="translate(6727.109 6537.504)"/><path class="d" d="M202.655,185.818,207.093,175s.223,9.781-5,12.829Z" transform="translate(6722.007 6586.005)"/><path class="d" d="M214.572,126.739s.735-9.034.263-9.769c0,0,3.174,7.5-.295,13.761Z" transform="translate(6711.893 6633.15)"/><path class="d" d="M101.154,667.58s-4.6-2.853-7.584,4.127c0,0,4.1,2.718,8.124-2.347Z" transform="translate(6810.171 6186.294)"/><path class="d" d="M86.927,626.665s-5.646-2.577-8.387,4.712c0,0,4.363,2.992,8.9-2.872Z" transform="translate(6822.381 6219.424)"/><path class="d" d="M74.839,584.691s-4.044-4.727-10.129,0c0,0,3.834,4.149,10.129,1.208Z" transform="translate(6833.617 6254.872)"/><path class="d" d="M73,544.15s-4.1-4.937-9.929-.263c0,0,4.624,4.359,9.929,1.418Z" transform="translate(6834.95 6287.949)"/><path class="d" d="M79.21,500.691s-2.874-7.128-9.12-4.057c0,0,3.376,6.314,8.867,5.239Z" transform="translate(6829.247 6325.329)"/><path class="d" d="M86.192,460.852s-2.855-7.243-9.192-3.883c0,0,3.879,6.637,8.91,5Z" transform="translate(6823.633 6357.651)"/><path class="d" d="M107.818,409.651s-1.125-7.94-6.368-8.651c0,0,1.112,8.374,5.669,10.083Z" transform="translate(6803.769 6402.399)"/><path class="d" d="M122.292,371.129s-.439-9.567-4.781-9.9c0,0,.146,7.261,4.292,11.255Z" transform="translate(6790.722 6434.709)"/><path class="d" d="M135.63,335.569s-1.3-7.955-5.44-8.929c0,0,.514,7.706,5.031,10.88Z" transform="translate(6780.42 6462.811)"/><path class="d" d="M159.861,299.055s-.045-8.287-2.576-9.5c0,0-1.572,7.5,1.842,10.563Z" transform="translate(6758.701 6492.943)"/><path class="d" d="M170.526,264.207s-.351-8.535-2.977-9.737c0,0-.9,6.753,2.583,10.3Z" transform="translate(6750.154 6521.442)"/><path class="d" d="M187.945,228.9s-.017-6.941-1.887-8.567c0,0-1.863,7.6.91,9.963Z" transform="translate(6735.529 6549.178)"/><path class="d" d="M193.016,180.811,191.2,169.26s-2.48,9.465,1.908,13.645Z" transform="translate(6731.425 6590.668)"/><path class="d" d="M185.983,132.269s-4.675-7.766-4.579-8.629c0,0,.5,8.139,6.378,12.193Z" transform="translate(6738.814 6627.731)"/><path class="d" d="M180.988,105.765s-4.412-11.03-6.408-11.925a13.986,13.986,0,0,1,6.775,11.61Z" transform="translate(6744.357 6651.941)"/><path class="e" d="M194.38,175.8l-.3-.094c3.724-12.142,4.652-19.884,2.615-21.823l.218-.229C199.072,155.7,198.192,163.356,194.38,175.8Z" transform="translate(6728.515 6603.351)"/><path class="e" d="M139.066,296.255l-.446-.158c.394-1.112.822-2.242,1.268-3.356,3.887-9.685,7.194-18.7,9.317-25.614l.386-.188c-2.125,6.941-5.374,16.288-9.265,25.986C139.888,294.027,139.464,295.149,139.066,296.255Z" transform="translate(6773.571 6511.312)"/><path class="e" d="M128.739,485.536a61.338,61.338,0,0,1-10.3-18.466,68.358,68.358,0,0,1-4.071-21.154c-.287-9.028,1.606-19.111,4.853-28.267l.353.413c-7.286,20.552-4.391,38.164-.551,48.772a60.756,60.756,0,0,0,10.188,18.286Z" transform="translate(6793.299 6388.872)"/><ellipse class="c" cx="83.846" cy="7.713" rx="83.846" ry="7.713" transform="translate(6912.539 6867.064)"/><circle class="f" cx="57.869" cy="57.869" r="57.869" transform="translate(6933.621 6763.414)"/><ellipse class="g" cx="6.001" cy="7.86" rx="6.001" ry="7.86" transform="translate(6969.986 6802.206)"/><ellipse class="g" cx="6.001" cy="7.86" rx="6.001" ry="7.86" transform="translate(7000.993 6802.206)"/><path class="g" d="M73.743,1.76c0,3.479-18.531,9.341-37.227,9.341S0,5.108,0,1.628s17.81-1,36.515-1S73.743-1.72,73.743,1.76Z" transform="translate(7028.152 6850.312) rotate(180)"/><path class="h" d="M1.638,0S32.2,3.292,57.884.093c0,0,3.143,0,1,1.758a6.048,6.048,0,0,1-2.348,1.066C51.584,4.14,33.254,7.758,3.951,3.145,2.111,2.864.683,2.156.147,1.259-.191.655-.044.084,1.638,0Z" transform="translate(7021.097 6848.398) rotate(180)"/><path class="i" d="M334.886,266.68s-17.432,11.146-17.29,28.573S334.886,266.68,334.886,266.68Z" transform="translate(6628.169 6511.523)"/><path class="j" d="M255.24,322.7l-.21-.156a.449.449,0,0,1,.086.148Z" transform="translate(6678.998 6466.141)"/><path class="k" d="M252.891,321.362h.126l-.118-.088h.032l-.21-.154a.448.448,0,0,1,.084.146h.047A.412.412,0,0,1,252.891,321.362Z" transform="translate(6680.875 6467.295)"/><path class="l" d="M255.344,325.684l-.2-.154a.448.448,0,0,1,.084.146Z" transform="translate(6678.909 6463.712)"/><path class="l" d="M191.63,553.67a13.453,13.453,0,0,0,.8,2.84C192.686,556.626,191.63,553.67,191.63,553.67Z" transform="translate(6730.505 6278.367)"/><path class="d" d="M808.732,110.691s-15.793-.951-13.932,10.116a2.689,2.689,0,0,0,1.4,2.844s.028-.82,1.621-.542a7.291,7.291,0,0,0,1.715.083,3.564,3.564,0,0,0,2.1-.867h0s4.44-1.833,6.166-9.09c0,0,1.277-1.581,1.227-1.988l-2.666,1.137a4.755,4.755,0,0,1,.188,3.521s-.086-3.45-.6-3.376c-.105.017-1.386.666-1.386.666s1.568,3.35.375,5.785c0,0,.45-4.127-.872-5.543l-1.876,1.1s1.833,3.461.591,6.282c0,0,.319-4.329-.985-6.014l-1.7,1.326s1.741,3.423.687,5.757c0,0-.137-5.04-1.041-5.421a10.415,10.415,0,0,0-1.713,1.851s1.178,2.474.446,3.782c0,0-.448-3.36-.816-3.376a11.147,11.147,0,0,0-1.636,3.752,8.092,8.092,0,0,1,1.278-3.964,4.459,4.459,0,0,0-2.27,1.176s.231-1.574,2.626-1.711a10.238,10.238,0,0,1,1.551-1.79,9.731,9.731,0,0,0-3.842.443s1.277-1.484,4.281-.81l1.688-1.369s-3.149-.431-4.483.045c0,0,1.536-1.313,4.935-.356l1.827-1.094a16.762,16.762,0,0,0-4.283-.375s1.688-.91,4.817.077l1.313-.587s-1.966-.386-2.542-.446-.608-.219-.608-.219a6.8,6.8,0,0,1,3.7.411A16.263,16.263,0,0,0,808.732,110.691Z" transform="translate(6240.604 6638.267)"/><path class="d" d="M755.812,84.51s-7.128-.431-6.3,4.57a1.22,1.22,0,0,0,.634,1.285s.013-.375.732-.244a3.3,3.3,0,0,0,.777.038,1.619,1.619,0,0,0,.938-.392h0s2.005-.829,2.786-4.108c0,0,.578-.715.563-.9l-1.2.514a2.166,2.166,0,0,1,.088,1.591s-.039-1.559-.27-1.521c-.049,0-.627.3-.627.3a3.566,3.566,0,0,1,.175,2.613s.2-1.865-.4-2.5l-.848.493a3.748,3.748,0,0,1,.266,2.84,5.32,5.32,0,0,0-.445-2.718l-.767.6a3.659,3.659,0,0,1,.3,2.6s-.062-2.277-.469-2.439a4.68,4.68,0,0,0-.775.835s.533,1.126.2,1.709c0,0-.2-1.518-.375-1.523a5.048,5.048,0,0,0-.739,1.688,3.644,3.644,0,0,1,.578-1.791,2.011,2.011,0,0,0-1.026.531s.105-.711,1.191-.773a4.682,4.682,0,0,1,.7-.808,4.409,4.409,0,0,0-1.737.2,1.963,1.963,0,0,1,1.934-.375l.76-.619a6.474,6.474,0,0,0-2.026.021,2.456,2.456,0,0,1,2.229-.161l.827-.5a7.517,7.517,0,0,0-1.936-.167,2.967,2.967,0,0,1,2.178.036l.589-.266s-.887-.174-1.148-.2-.274-.1-.274-.1a3.075,3.075,0,0,1,1.669.188A7.078,7.078,0,0,0,755.812,84.51Z" transform="translate(6277.323 6659.529)"/><ellipse class="c" cx="5.052" cy="0.854" rx="5.052" ry="0.854" transform="translate(7090.378 6871.205)"/><ellipse class="d" cx="7.543" cy="1.276" rx="7.543" ry="1.276" transform="translate(7076.831 6879.929)"/><path class="d" d="M1042.93,789.606a2.2,2.2,0,0,0,.718-1.084.965.965,0,0,0-.5-1.107c-.462-.176-.955.145-1.328.467a1.773,1.773,0,0,1-1.292.623,1.966,1.966,0,0,0,.61-1.84.775.775,0,0,0-.171-.375c-.255-.274-.72-.156-1.026.06a3.825,3.825,0,0,0-1.253,3.2,6.145,6.145,0,0,1-.019-1.313,1.351,1.351,0,0,0-.5-1.167,1.5,1.5,0,0,0-.75-.188,1.556,1.556,0,0,0-1.225.349,1.209,1.209,0,0,0,.047,1.5,4.775,4.775,0,0,0,1.27,1.017,2.815,2.815,0,0,1,.906.865.786.786,0,0,1,.068.156h2.75A7.737,7.737,0,0,0,1042.93,789.606Z" transform="translate(6044.562 6089.513)"/><path class="d" d="M89.414,720.81s1.03,1.347-.475,3.376-2.748,3.752-2.251,5.02c0,0,2.273-3.778,4.127-3.83S91.449,723.082,89.414,720.81Z" transform="translate(6815.852 6142.58)"/><path class="l" d="M89.676,720.81a1.618,1.618,0,0,1,.21.422c1.8,2.12,2.767,4.1,1.032,4.149-1.615.045-3.555,2.936-4.018,3.665.015.054.034.111.054.165,0,0,2.273-3.778,4.127-3.83S91.712,723.082,89.676,720.81Z" transform="translate(6815.59 6142.58)"/><path class="m" d="M110.886,728.674c0,.475-.053.859-.118.859s-.118-.375-.118-.859.066-.249.131-.249S110.886,728.191,110.886,728.674Z" transform="translate(6796.295 6136.44)"/><path class="m" d="M111.893,731.6c-.416.227-.78.364-.812.308s.281-.289.7-.516.253-.062.283,0S112.309,731.365,111.893,731.6Z" transform="translate(6795.947 6134.081)"/><path class="d" d="M62.658,720.81s-1.03,1.347.476,3.376,2.748,3.752,2.251,5.02c0,0-2.272-3.778-4.127-3.83S60.625,723.082,62.658,720.81Z" transform="translate(6837.164 6142.58)"/><path class="l" d="M62.641,720.81a1.688,1.688,0,0,0-.21.422c-1.8,2.12-2.765,4.1-1.032,4.149,1.617.045,3.564,2.936,4.02,3.665-.017.054-.034.111-.056.165,0,0-2.272-3.778-4.127-3.83S60.607,723.082,62.641,720.81Z" transform="translate(6837.182 6142.58)"/><path class="m" d="M62.47,728.674c0,.475.053.859.12.859s.118-.375.118-.859-.068-.249-.133-.249S62.47,728.191,62.47,728.674Z" transform="translate(6835.437 6136.44)"/><path class="m" d="M57.891,731.6c.416.227.778.364.81.308s-.281-.289-.7-.516-.251-.062-.283,0S57.469,731.365,57.891,731.6Z" transform="translate(6839.365 6134.081)"/><path class="n" d="M64.22,757.929s2.881-.088,3.752-.707,4.431-1.356,4.648-.354,4.331,4.932,1.077,4.958-7.558-.506-8.424-1.036S64.22,757.929,64.22,757.929Z" transform="translate(6834.015 6113.687)"/><path class="o" d="M73.721,768.185c-3.253.026-7.558-.507-8.424-1.035-.66-.4-.923-1.844-1.011-2.51h-.1s.188,2.324,1.049,2.851,5.172,1.062,8.424,1.035c.938,0,1.264-.341,1.246-.837C74.785,767.992,74.426,768.18,73.721,768.185Z" transform="translate(6834.04 6106.972)"/></g><path class="p" d="M6998.37,6803.88s8.344-19.621,20.41,1.8" transform="translate(-6898 -6744)"/><path class="p" d="M7018.78,6803.88s-3.187-7.494-8.767-8.192c-2.968-.383-7.034,1.812-11.644,10" transform="translate(-6930 -6737)"/></g></svg>