<svg xmlns="http://www.w3.org/2000/svg" xmlns:xlink="http://www.w3.org/1999/xlink" width="100%" height="100%" viewBox="0 0 244.05 173.109"><defs><style>.a,.t{fill:none;}.b{clip-path:url(#a);}.c{fill:#eee;}.d{fill:#00afff;}.d,.f,.g,.k,.t{opacity:0.1;}.e{fill:#a8a8a8;}.f,.p{fill:#fff;}.h{fill:#f8af40;}.i{fill:url(#b);}.j{fill:#464353;}.l{fill:#0c263d;}.m{opacity:0.06;}.n{fill:#fbbebe;}.o{fill:url(#c);}.q{fill:url(#d);}.r{fill:#d6d8e1;}.s{fill:#444176;}.t{stroke:#000;stroke-miterlimit:10;}.u{opacity:0.05;}.v{opacity:0.2;}</style><clipPath id="a"><rect class="a" width="244.05" height="173.109"/></clipPath><linearGradient id="b" y1="0.5" x2="1" y2="0.5" gradientUnits="objectBoundingBox"><stop offset="0" stop-color="gray" stop-opacity="0.251"/><stop offset="0.54" stop-color="gray" stop-opacity="0.122"/><stop offset="1" stop-color="gray" stop-opacity="0.102"/></linearGradient><linearGradient id="c" x1="0.5" x2="0.5" y2="1" gradientUnits="objectBoundingBox"><stop offset="0" stop-color="#00afff"/><stop offset="0.1" stop-color="#2dc0f7"/><stop offset="0.2" stop-color="#28c0ef"/><stop offset="0.3" stop-color="#23c0e7"/><stop offset="0.4" stop-color="#1ec1df"/><stop offset="0.5" stop-color="#19c1d7"/><stop offset="0.6" stop-color="#14c1cf"/><stop offset="0.7" stop-color="#0fc2c7"/><stop offset="0.8" stop-color="#0ac2bf"/><stop offset="0.9" stop-color="#05c2b7"/><stop offset="1" stop-color="#00c3af"/></linearGradient><linearGradient id="d" x1="12.106" y1="0.5" x2="13.106" y2="0.5" xlink:href="#b"/></defs><g class="b"><ellipse class="c" cx="110.288" cy="86.429" rx="110.288" ry="86.429" transform="translate(15.252)"/><ellipse class="d" cx="40.665" cy="6.303" rx="40.665" ry="6.303" transform="translate(0 130.475)"/><ellipse class="d" cx="15.817" cy="3.267" rx="15.817" ry="3.267" transform="translate(44.394 166.574)"/><ellipse class="d" cx="15.817" cy="3.267" rx="15.817" ry="3.267" transform="translate(152.471 154.004)"/><ellipse class="d" cx="25.721" cy="4.357" rx="25.721" ry="4.357" transform="translate(88.896 149.081)"/><ellipse class="d" cx="53.647" cy="8.403" rx="53.647" ry="8.403" transform="translate(136.756 123.467)"/><path class="e" d="M125.577,502.461a14.928,14.928,0,0,0,.778,14.987,3.708,3.708,0,0,0,1.255,1.355c1.667.655,5.005,2.265,5.005,2.265l8.038-3.159s1.305-6.9,2.539-12.831h0a71.676,71.676,0,0,1,1.988-8.258c.832-1.549,0-18.408,0-18.408s-8.038-.539-10.249,5.658l-.967,1.891Z" transform="translate(-114.458 -385.257)"/><path class="f" d="M167.147,504.332c4.887,5.6,6.949.757,6.949.757h0a71.669,71.669,0,0,1,1.988-8.258c.832-1.549,0-18.408,0-18.408s-8.038-.539-10.249,5.658l-.967,1.891C164.249,490.929,163.636,500.3,167.147,504.332Z" transform="translate(-145.356 -385.264)"/><path class="e" d="M180.59,458.2l28.371-3.277,5.062-33.308-3.828-8.651a35.052,35.052,0,0,0-6.62-9.987,20.307,20.307,0,0,0-6.705-4.965,10.056,10.056,0,0,0-1.024-.35,2.65,2.65,0,0,0-2.364.418c-3.5,2.48-4.75,13.025-5.154,18.1a56.648,56.648,0,0,1-.844,6.216Z" transform="translate(-157.725 -323.519)"/><path class="f" d="M241.07,421.246l-5.911,14.54c3.1-2.265,7.686-14.6,7.686-14.6l4.111,14.063-3.277-14.822a46.357,46.357,0,0,0,.416-9.727c-.26-3.721-3.752-9.693-5.648-12.7a10.062,10.062,0,0,0-1.024-.35,2.65,2.65,0,0,0-2.364.418c1.489,2.991,5.213,10.469,6.348,12.691C242.848,413.559,241.07,421.246,241.07,421.246Z" transform="translate(-199.317 -323.511)"/><path class="e" d="M280.89,533.222h15.394a4.669,4.669,0,0,0,4.665-4.906c-.34-6.6-1.2-18.37-3.256-25.841-1.109-4.031-2.4-6.147-3.579-7.19a3.492,3.492,0,0,0-2.036-.958,2.672,2.672,0,0,0-1.655.4c-2.858,2.74-6.2,17.16-6.2,17.16Z" transform="translate(-234.312 -397.412)"/><path class="f" d="M303.455,585.4a7.558,7.558,0,0,1,0,5.757l-3.431,1.7s-9.221-3.908-8.1-11.918c0,0,.3-1.655,3.478-1.527a9,9,0,0,1,8.053,5.993Z" transform="translate(-242.666 -462.378)"/><path class="f" d="M311.458,499.41c-.106-2.809,1.419-3.783,2.679-4.093a3.492,3.492,0,0,0-2.036-.957,5.4,5.4,0,0,0-1.776,2.837L307.11,512.87S311.638,504.117,311.458,499.41Z" transform="translate(-254.333 -397.444)"/><path class="e" d="M185.081,568.14l7.622,10.426,1.322,8.606-4.9,2.419-7.062,1.56a6.789,6.789,0,0,1-2.073.135l-19.271-1.7,2.622-6.078L172.4,570.8Z" transform="translate(-142.553 -453.78)"/><path class="f" d="M190.568,552.987s5.2.357,3.248,9.294-22.047,9.653-22.047,9.653a52.8,52.8,0,0,1,10.838-12.987c.738-.608,1.449-1.241,2.128-1.917C186.246,555.519,189.135,552.864,190.568,552.987Z" transform="translate(-150.991 -442.206)"/><path class="g" d="M271.07,581.5s7.048,6.414,6.383,16.285" transform="translate(-226.814 -463.981)"/><path class="g" d="M294.655,496.06a49.242,49.242,0,0,0-8.225,24.969" transform="translate(-238.542 -398.742)"/><path class="g" d="M196.557,478.43s3.579,16.254-5.357,28.506" transform="translate(-165.827 -385.28)"/><path class="h" d="M482.638,608.43h38.57a2.161,2.161,0,0,0,1.891-3.185l-19.276-35.814a2.159,2.159,0,0,0-3.8,0l-19.285,35.814a2.161,2.161,0,0,0,1.9,3.185Zm21.739-6.544h-4.908V596.98h4.908Zm0-8.178h-4.908v-9.814h4.908Z" transform="translate(-386.713 -453.899)"/><path class="i" d="M160.95,330.894a2.648,2.648,0,0,0-.546-.265c-.634-.236-1.31-.3-1.943-.525a2.783,2.783,0,0,1-.976-.577c-.047-.047-.092-.095-.135-.144.236-.149.452-.3.686-.437a8.123,8.123,0,0,0-2.851-2.837c.381-.56,1.239-.515,1.74-.967a1.655,1.655,0,0,0,.473-.929,6.422,6.422,0,0,0-.277-2.806,34.593,34.593,0,0,0-1.631-5.284,20.817,20.817,0,0,1-.884-2.142c-.612-2.038-.184-4.256-.648-6.339a4.446,4.446,0,0,1-.222-2.021c.258-1.026,1.4-1.634,1.655-2.66.908-3.653,1.071-7.443,1.586-11.171a14.381,14.381,0,0,0,.192-2.144c0-.754-.135-1.5-.189-2.253a40.993,40.993,0,0,1,.459-6.329,6.62,6.62,0,0,1,.858,2.116,8.543,8.543,0,0,1,.05,2.1,9.859,9.859,0,0,1-.149,1.4c-.116.549-.319,1.073-.454,1.622a5.015,5.015,0,0,0,.225,3.253c.322.709,1.028,1.367,1.764,1.154a1.905,1.905,0,0,0,1.043-1.132,6.911,6.911,0,0,0,.627-4.844c-.314-1.064-1-2.026-1.069-3.137a8.11,8.11,0,0,1,.1-1.326c.3-2.568-.343-5.147-.485-7.729a15.08,15.08,0,0,0-.13-2.258c-.019-.087-.04-.175-.066-.258a.552.552,0,0,1,.17.078,1.542,1.542,0,0,0-.033-1.322,3.36,3.36,0,0,1-.222-.416c-.09-.236-.073-.511-.184-.738a3.143,3.143,0,0,0-.236-.343,2.751,2.751,0,0,1-.329-1.551q-.054-4.2-.236-8.388a13.737,13.737,0,0,0-.641-4.2,6.3,6.3,0,0,0-2.222-2.948,5.177,5.177,0,0,0-.5-.312,1.731,1.731,0,0,0,.142-.638,1.527,1.527,0,0,0,0-.208l-.014-.118h0a4.989,4.989,0,0,0-.473-1.419,3.986,3.986,0,0,1-.452-1.551,2.41,2.41,0,0,1,.017-.293h0c.08-.681.435-1.319.56-2a3.431,3.431,0,0,0,.052-.641c0-.073,0-.149,0-.225a6.444,6.444,0,0,0-.759-2.388c-.118-.236-.236-.473-.369-.709-.061-.442-.13-.884-.2-1.324-.038-.255-.078-.511-.132-.764q-.04-.189-.092-.369c.366-.345.154-.851-.08-1.319a10.928,10.928,0,0,1-.549-2.929,8.851,8.851,0,0,0-.7-1.967,4.383,4.383,0,0,0-.754-1.239,4.624,4.624,0,0,0-.976-.709,3.109,3.109,0,0,0-.969-.437c-.215-.043-.435-.04-.648-.09a2.052,2.052,0,0,1-.4-.144,2.7,2.7,0,0,0-.849-.31,1.891,1.891,0,0,0-.818.156,3.01,3.01,0,0,1-.879.236h-.333a.74.74,0,0,0-.452.109,1.709,1.709,0,0,0-.194.2,2.616,2.616,0,0,1-.57.39,5.615,5.615,0,0,0-2.757,4.8,2.377,2.377,0,0,1-.069.778c-.069.2-.2.371-.26.575a1.613,1.613,0,0,0-.026.539c.019.277.047.551.078.827h0a1.74,1.74,0,0,0-.345.764h0a1.041,1.041,0,0,0-.021.147v.019h0a4.282,4.282,0,0,0,.359,1.419,5.04,5.04,0,0,1-.071,2.783,10.961,10.961,0,0,0-.473,1.891h0v.043a2.286,2.286,0,0,0,.109.946c.078.215.194.416.265.634a2.611,2.611,0,0,1-.6,2.255h0c-.076.106-.154.208-.236.307h.012l-.012.012.492.348c-.144.076-.288.158-.435.236a4.473,4.473,0,0,0-1.6.593,6.517,6.517,0,0,0-1.3.865,5.516,5.516,0,0,0-1.026,1.419,17.829,17.829,0,0,0-.87,1.835,5.745,5.745,0,0,0-.444,1.591c-.2.433-.371.9-.558,1.317-.095.215-.187.43-.279.645l-8.138-19.926-1.263.525.1.236-.262.111.357.87c-.052.035-.1.071-.154.109l-.066.052-.132.1-.066.054-.135.113-.05.043-.168.154h0c-.18.163-.352.336-.52.508l-.433.447-.083.087-.144.147-.08.083-.206.206-.014.014-.128.123-.08.076c-.033.033-.069.064-.1.095l-.1.092-.161.137-.047.043-.22.175a6.164,6.164,0,0,1-.946.608c-1.293.669-2.662,1.229-3.925,1.946a11.3,11.3,0,0,0-1.943,1.362,15.44,15.44,0,0,1-2.508,2.192l-.106.057c-1.712.88-3.728.352-5.674.314-.291,0-.577,0-.861.019a10.869,10.869,0,0,0-4.421,1.544c-.984.551-1.943,1.17-2.908,1.731-.61.352-1.222.735-1.837,1.128a41.516,41.516,0,0,1-4.773,2.78,10.032,10.032,0,0,1-4.729,1.052h-.021a3.944,3.944,0,0,1-.473-.04c-.154,1.241.839,2.241,1.5,3.334a3.379,3.379,0,0,1,.56,1.579,2.837,2.837,0,0,1-.047.634,7.961,7.961,0,0,0-.39,2.289,2.65,2.65,0,0,0,.5,1.244c.421.6,1,1.135,1.4,1.761a9.49,9.49,0,0,1,.991,3.211,6.755,6.755,0,0,0,.778,2.225,9.5,9.5,0,0,0,2.024,2.05c.135.116.267.236.395.355.095.085.187.175.274.267.858.877,1.5,2.229.979,3.327-.017.038-.035.071-.054.106a.943.943,0,0,0,.13.078c.66.322,1.487-.194,2.029-.74.267-.267.52-.551.766-.839.66-.733,1.265-1.527,1.891-2.289.17-.206.34-.407.515-.605a8.748,8.748,0,0,1,2.336-1.891,8.583,8.583,0,0,1,1.433-.582c.733-.236,1.489-.411,2.225-.643a18.28,18.28,0,0,0,2.929-1.229,45.051,45.051,0,0,0,4.729-2.932l.236-.154a8.1,8.1,0,0,0,1.407-1.123c.076-.083.149-.168.218-.255.369-.473.608-1.033.946-1.525a4.905,4.905,0,0,1,1.326-1.279,19.544,19.544,0,0,1,5.128-1.891h.019a19.931,19.931,0,0,0,8.079-4.8l1.3,3.173q-.2.563-.381,1.137a9.245,9.245,0,0,1-1.09,2.719,2.029,2.029,0,0,0-.411.731,2.365,2.365,0,0,1-.1.586c-.08.161-.248.267-.317.433-.1.236.031.541-.1.764a1.2,1.2,0,0,1-.225.236,1.569,1.569,0,0,0-.428,1.2,4.215,4.215,0,0,1-.106,1.305,3.114,3.114,0,0,1,.3-.158,1.421,1.421,0,0,0-.026.236,2.633,2.633,0,0,0,.083.664,5.246,5.246,0,0,0,.69,1.381,9.812,9.812,0,0,0,.74,1.064,9.694,9.694,0,0,0,1.565,1.4l2.383,1.839-.236,1a27.82,27.82,0,0,0-1.071,6.348,27.352,27.352,0,0,0,.192,3.048l.206,2.076c.166,1.672.331,3.343.513,5.015a12.841,12.841,0,0,0,.61,3.126c.563,1.515-.059,3.227.18,4.83a8.534,8.534,0,0,1,.187,3.766c-.151.473-.416.927-.61,1.395a10.467,10.467,0,0,0-.574,3.717,15.8,15.8,0,0,0,.121,3.31,13.617,13.617,0,0,1,.565,3.386c-.123,1.629-1.315,3.022-1.459,4.65a6.86,6.86,0,0,0,1.057,3.7c.447.849-.177,1.946-.414,2.88-.473,1.832.312,3.747,1.27,5.372a.265.265,0,0,0,.121.128c.109.04.21-.069.281-.161a1.932,1.932,0,0,1,.142-.168c0,.073.014.147.019.217,0,.154.012.307.012.473a4.752,4.752,0,0,0,.322,1.75,3.094,3.094,0,0,0,.132.317,1.461,1.461,0,0,0,.236.381,1.444,1.444,0,0,0,.946.4,12.245,12.245,0,0,0,2.364-.147c.832-.071,1.667-.04,2.5-.059a.362.362,0,0,0,.187-.04.319.319,0,0,0,.106-.17,1.892,1.892,0,0,0,.04-.932,6.606,6.606,0,0,0-.177-.74c-.111-.39-.213-.783-.31-1.182-.019-.073-.035-.147-.052-.22l.038.017q.764-1.716,1.53-3.433a3.091,3.091,0,0,0,.392-1.828,5.373,5.373,0,0,0-.577-1.227,7.2,7.2,0,0,1-.5-3.154l-.028-6.081a13.321,13.321,0,0,0,2.364-5.161,16.694,16.694,0,0,1,.139,8.038,7.49,7.49,0,0,0-.225,1.225c-.092,1.686,1.22,3.114,1.57,4.764a1.074,1.074,0,0,1,.026.388,1.454,1.454,0,0,1-.194.449,7.008,7.008,0,0,0-.473,3.851l.277.045a.733.733,0,0,0,.293.288h0a1.446,1.446,0,0,0,.366.151,9.023,9.023,0,0,0,1.378.21c.667.066,1.336.132,2,.175.265.017.53.031.794.038a7.94,7.94,0,0,1,1.113.078,8.043,8.043,0,0,1,1.181.343,7.552,7.552,0,0,0,5.322.187,2.4,2.4,0,0,0,.972-.688,1.144,1.144,0,0,0-.286-1.778Zm-22.867-67.4c.251.5.5,1,.709,1.513a5.218,5.218,0,0,1,.4,3.173c-.076.307-.57.544-.567.861a.708.708,0,0,0-.038.073l-1.544-3.783A13.494,13.494,0,0,1,138.083,263.5Zm-1.7,8.038a6.542,6.542,0,0,1-.837-1.445c-.028-.064-.059-.125-.087-.189a.567.567,0,0,0,.225-.168c.236-.3.109-.733.144-1.116a2.412,2.412,0,0,1,.376-.946l1.449,3.546q-.22.577-.411,1.166A8.275,8.275,0,0,1,136.387,271.534Z" transform="translate(-86.211 -195.65)"/><path class="j" d="M315.575,259.792a4.233,4.233,0,0,0,.364,1.419,5.019,5.019,0,0,1-.069,2.776,4.8,4.8,0,0,0-.371,2.87c.078.217.2.416.267.634a2.908,2.908,0,0,1-.846,2.579l2.338,1.638a2.688,2.688,0,0,0,1.182.565.925.925,0,0,0,1.036-.612c.031-.147,0-.3.028-.449a1.22,1.22,0,0,1,.655-.908,2.142,2.142,0,0,1,1.132-.21c1.435.078,2.655,1.021,3.96,1.627a15.933,15.933,0,0,0,2.665.884,2.14,2.14,0,0,0,1.56,0,1.48,1.48,0,0,0,.648-1.4,4.57,4.57,0,0,0-.5-1.539,3.915,3.915,0,0,1-.456-1.549,12.894,12.894,0,0,1,.582-2.3,5.239,5.239,0,0,0-.723-3.244,13.745,13.745,0,0,1-1.378-3.074,4.491,4.491,0,0,0-.258-.972,2.213,2.213,0,0,0-.473-.634,5.293,5.293,0,0,0-3.353-1.369,15.191,15.191,0,0,0-3.676.322,7.685,7.685,0,0,0-1.364.324,8.666,8.666,0,0,0-1.794.972A2.337,2.337,0,0,0,315.575,259.792Z" transform="translate(-260.296 -215.825)"/><g class="k" transform="translate(54.617 43.811)"><path d="M375.17,294.957a1.038,1.038,0,0,0,.014.21c.073-.693.437-1.343.567-2.036a3.362,3.362,0,0,0,.045-.842,2.31,2.31,0,0,1-.045.369A11.955,11.955,0,0,0,375.17,294.957Z" transform="translate(-360.918 -286.959)"/><path d="M318.206,272.26a4.234,4.234,0,0,0-.158-1.419,8.226,8.226,0,0,1-.343-1.1c0,.05-.019.1-.021.147a4.232,4.232,0,0,0,.364,1.419A3.991,3.991,0,0,1,318.206,272.26Z" transform="translate(-317.022 -269.74)"/><path d="M330.08,313.361a1.352,1.352,0,0,1-.634,1.043,2.141,2.141,0,0,1-1.56,0,15.729,15.729,0,0,1-2.665-.887c-1.305-.6-2.525-1.546-3.96-1.624a2.142,2.142,0,0,0-1.132.21,1.22,1.22,0,0,0-.655.908c-.017.149,0,.3-.028.449a.927.927,0,0,1-1.036.612,2.688,2.688,0,0,1-1.182-.565l-2.1-1.475c-.078.106-.156.21-.236.307l2.338,1.641a2.688,2.688,0,0,0,1.182.565.925.925,0,0,0,1.036-.612c.031-.147,0-.3.028-.449a1.22,1.22,0,0,1,.655-.908,2.142,2.142,0,0,1,1.132-.21c1.435.078,2.655,1.021,3.96,1.624a15.731,15.731,0,0,0,2.665.887,2.141,2.141,0,0,0,1.56,0,1.48,1.48,0,0,0,.648-1.4C330.092,313.439,330.085,313.4,330.08,313.361Z" transform="translate(-314.89 -301.921)"/><path d="M317.245,297.756a1.828,1.828,0,0,1,.064.291,1.714,1.714,0,0,0-.064-.764c-.071-.217-.189-.416-.267-.634a1.977,1.977,0,0,1-.109-.489,2.223,2.223,0,0,0,.109.962C317.056,297.34,317.174,297.541,317.245,297.756Z" transform="translate(-316.391 -289.914)"/></g><path class="l" d="M307.773,666.734a.31.31,0,0,1-.109.17.362.362,0,0,1-.187.04c-.842.019-1.683,0-2.523.059a12.056,12.056,0,0,1-2.383.147,1.222,1.222,0,0,1-1.182-.778,3.092,3.092,0,0,1-.132-.317,4.707,4.707,0,0,1-.324-1.75v-.473a3.588,3.588,0,0,0-.069-.515.783.783,0,0,1,.024-.6,2.091,2.091,0,0,1,1.771-.783,14.622,14.622,0,0,1,4.315.317c.111.544.236,1.083.369,1.622q.147.593.312,1.182a6.618,6.618,0,0,1,.18.74A1.891,1.891,0,0,1,307.773,666.734Z" transform="translate(-249.527 -525.369)"/><path class="m" d="M309.2,679.348a.31.31,0,0,1-.109.17.361.361,0,0,1-.187.04c-.842.019-1.683,0-2.523.059a12.061,12.061,0,0,1-2.383.147,1.222,1.222,0,0,1-1.182-.778,3.085,3.085,0,0,1-.132-.317h.3c1,0,1.993-.036,2.988-.036a7.64,7.64,0,0,0,.9-.05c.3-.035.541-.085.813-.118a11.147,11.147,0,0,1,1.225-.05h.336A1.892,1.892,0,0,1,309.2,679.348Z" transform="translate(-250.95 -537.983)"/><path class="l" d="M360.023,651.671a2.419,2.419,0,0,1-.979.688,7.729,7.729,0,0,1-5.367-.187,8.179,8.179,0,0,0-1.194-.343,8.037,8.037,0,0,0-1.118-.078c-.267,0-.534-.021-.8-.038-.676-.043-1.35-.109-2.021-.175a9.13,9.13,0,0,1-1.39-.21,1.476,1.476,0,0,1-.371-.151h0a.57.57,0,0,1-.34-.508c.019-.3.331-.473.605-.6a29.559,29.559,0,0,1,7.7-1.875,3.083,3.083,0,0,0,.773-.236c.3-.118.326.076.473.293a1.82,1.82,0,0,0,.236.279,2.813,2.813,0,0,0,.984.577c.638.236,1.322.3,1.96.525a2.685,2.685,0,0,1,.551.265,1.14,1.14,0,0,1,.288,1.778Z" transform="translate(-284.364 -514.697)"/><path class="m" d="M373.339,658.048a2.418,2.418,0,0,1-.979.688,7.729,7.729,0,0,1-5.367-.187,8.177,8.177,0,0,0-1.194-.343,8.036,8.036,0,0,0-1.118-.078c-.267,0-.534-.021-.8-.038.217-.206.44-.407.667-.6a1.985,1.985,0,0,1,.56-.369,1.622,1.622,0,0,1,.8-.054c1.352.187,2.568,1.135,3.932,1.052a4.836,4.836,0,0,0,1.809-.584,3.156,3.156,0,0,0,1.182-.842,1.364,1.364,0,0,0,.22-.423,1.14,1.14,0,0,1,.288,1.778Z" transform="translate(-297.681 -521.074)"/><path class="n" d="M384.157,424.81a1.957,1.957,0,0,1-1.05,1.132c-.742.213-1.456-.454-1.78-1.154a4.984,4.984,0,0,1-.236-3.253c.135-.546.34-1.071.456-1.62a9.866,9.866,0,0,0,.151-1.4,8.542,8.542,0,0,0-.05-2.1c-.381-2.031-2.128-3.546-2.709-5.542a10.342,10.342,0,0,1-.262-3.092,3.178,3.178,0,0,1,.08-.78,1.219,1.219,0,0,1,.071-.2c.39-.865,1.546-.984,2.35-1.487.444-.277,1.454-1.168,1.828-.355a2.674,2.674,0,0,1,.18.565,15.025,15.025,0,0,1,.13,2.255c.144,2.582.787,5.159.489,7.726a8.063,8.063,0,0,0-.1,1.324c.064,1.111.759,2.073,1.078,3.137A6.773,6.773,0,0,1,384.157,424.81Z" transform="translate(-308.973 -328.925)"/><path class="g" d="M383.518,405.515a.8.8,0,0,0-.544,0l-1.6.473a9.911,9.911,0,0,0-1.634.593,3.835,3.835,0,0,0-.65.4,1.219,1.219,0,0,1,.071-.2c.39-.865,1.546-.984,2.35-1.487.444-.277,1.454-1.168,1.828-.355a2.675,2.675,0,0,1,.18.575Z" transform="translate(-309.295 -328.91)"/><path class="l" d="M373.39,340.308a.723.723,0,0,0-.648-.052l-1.6.473a9.913,9.913,0,0,0-1.634.593,3.754,3.754,0,0,0-.778.506,10.508,10.508,0,0,1-1.083-4.327c-.076-.868-.132-1.738-.165-2.6a11.665,11.665,0,0,1,.038-1.863c.09-.709.3-1.4.423-2.107a9.617,9.617,0,0,0,.147-1.248,12.207,12.207,0,0,0-.125-2.74,16.986,16.986,0,0,0-.657-2.837c-.151-.423-.333-.832-.5-1.248l-.057-.147a17.235,17.235,0,0,1-.731-2.343c-.076-.326-.08-.669-.331-.891a4.449,4.449,0,0,1,.709-.028h.142a5.3,5.3,0,0,1,2.7.946,6.319,6.319,0,0,1,2.241,2.965,13.645,13.645,0,0,1,.645,4.2q.191,4.189.236,8.384a2.677,2.677,0,0,0,.331,1.551,3.164,3.164,0,0,1,.236.343c.111.236.095.5.184.738a3.725,3.725,0,0,0,.225.416A1.525,1.525,0,0,1,373.39,340.308Z" transform="translate(-299.063 -263.883)"/><path class="n" d="M329.409,289.546c-.236-.078-.473-.161-.709-.236l.492.038A.993.993,0,0,1,329.409,289.546Z" transform="translate(-270.818 -240.873)"/><path class="n" d="M335.3,298.858c-.047.161-.095.322-.147.473a9.032,9.032,0,0,1-.437,1.137,5.291,5.291,0,0,1-1.118,1.622,1.485,1.485,0,0,1-.558.369,1.773,1.773,0,0,1-.548.052q-.946,0-1.891-.028a6.721,6.721,0,0,1-1.461-.144,5.218,5.218,0,0,1-1.489-.671,8.842,8.842,0,0,1-3.84-4.729.783.783,0,0,1,.04-.747.915.915,0,0,1,.6-.206h.028a3.809,3.809,0,0,0,1.44-.494,1.48,1.48,0,0,0,.657-.671,1.811,1.811,0,0,0-.021-1.045l-.525-2.383a2.469,2.469,0,0,0-.418-1.062c.154.054.307.1.473.147,1.461.395,3.059.156,4.492.674a1.914,1.914,0,0,1,1.263,1.125c.277.946-.648,1.927-.383,2.873.177.643.832,1.014,1.419,1.315l.395.2,1.095.556.151.076.024.012a1.485,1.485,0,0,1,.83.764A1.418,1.418,0,0,1,335.3,298.858Z" transform="translate(-267.029 -241.651)"/><path class="g" d="M338.186,321.807a5.1,5.1,0,0,1-.435,1.75,7.147,7.147,0,0,0-.745,3.074c-.182,3.192-1.395,6.991.343,9.672.043.066.085.132.125.2a3.754,3.754,0,0,0-.778.506,10.508,10.508,0,0,1-1.083-4.327c-.076-.868-.132-1.738-.166-2.6a11.668,11.668,0,0,1,.038-1.863c.09-.709.3-1.4.423-2.107a9.617,9.617,0,0,0,.147-1.248,12.209,12.209,0,0,0-.125-2.74,16.986,16.986,0,0,0-.657-2.837c-.151-.423-.333-.832-.5-1.248l-.057-.147a5.292,5.292,0,0,1-1.118,1.622,1.485,1.485,0,0,1-.558.369,1.773,1.773,0,0,1-.548.052q-.946,0-1.891-.028a6.719,6.719,0,0,1-1.461-.144,5.218,5.218,0,0,1-1.489-.671,8.842,8.842,0,0,1-3.84-4.729.783.783,0,0,1,.04-.747.915.915,0,0,1,.6-.206h.028l2.128,2.631a4.256,4.256,0,0,1,.615.92.549.549,0,0,0,.189.281.485.485,0,0,0,.236.043h6.658a1.729,1.729,0,0,0-.293-1c-.061.014-.144.019-.017-.019a6.7,6.7,0,0,0-.733-2.192,1.522,1.522,0,0,0-.073-.137,2.521,2.521,0,0,1-.35-.766.971.971,0,0,1,1.345.731c.109.236.218.489.314.738,0,.026.024.054.033.08a5.353,5.353,0,0,1,.392,1.534c.014.194.061.44.222.5a.21.21,0,0,0,.08.019.894.894,0,0,1,.967.236,2.128,2.128,0,0,1,.473.932,5.1,5.1,0,0,0,.336,1c.3.582-.161.842.39,1.2a1.92,1.92,0,0,1,.648.582,1.816,1.816,0,0,1,.142,1.076Z" transform="translate(-267.029 -259.05)"/><path class="g" d="M306.883,662.293c.111.544.236,1.083.369,1.622l-.014.033a10.977,10.977,0,0,0-3.367-1.071,3.73,3.73,0,0,0-3.029,1,3.591,3.591,0,0,0-.069-.515.783.783,0,0,1,.024-.6,2.091,2.091,0,0,1,1.771-.783A14.622,14.622,0,0,1,306.883,662.293Z" transform="translate(-249.458 -525.4)"/><path class="g" d="M365.949,328.37c.111,0,.071,0,.017.019S365.822,328.408,365.949,328.37Z" transform="translate(-299.211 -270.698)"/><path class="g" d="M356.24,648.526a20.535,20.535,0,0,0-2.96,2.291,3.1,3.1,0,0,1-.934.683,2.73,2.73,0,0,1-1.125.116,38.3,38.3,0,0,1-4.44-.44h0a.57.57,0,0,1-.34-.508c.019-.3.331-.473.605-.6a29.559,29.559,0,0,1,7.7-1.875,3.086,3.086,0,0,0,.773-.236c.3-.118.326.076.473.293a1.826,1.826,0,0,0,.248.279Z" transform="translate(-284.364 -514.697)"/><path class="o" d="M296.268,314.077c.348.31.745.56,1.1.861a9.924,9.924,0,0,1,2.128,3.014,1.972,1.972,0,0,1-1.085.073,7.783,7.783,0,0,0,.092,3.161,2.932,2.932,0,0,0-1.057,1.312,8.771,8.771,0,0,0-.345,1.655q-.511,3.691-1.026,7.381a1.144,1.144,0,0,1-.236.664,1.277,1.277,0,0,0-.18.177.982.982,0,0,0-.083.508c-.014.173-.128.378-.3.355a.373.373,0,0,1-.21-.137,4.83,4.83,0,0,1-.473-.586,38.034,38.034,0,0,0-2.8,8.488,20.559,20.559,0,0,0-.889,9.391l.208,2.076c.168,1.669.336,3.341.518,5.01a12.609,12.609,0,0,0,.617,3.126c.567,1.515-.061,3.225.18,4.828a8.491,8.491,0,0,1,.187,3.764c-.151.485-.416.927-.615,1.395a10.471,10.471,0,0,0-.579,3.717,15.606,15.606,0,0,0,.123,3.31A13.553,13.553,0,0,1,292.1,381c-.125,1.629-1.326,3.022-1.473,4.648a6.822,6.822,0,0,0,1.066,3.7c.452.849-.177,1.946-.416,2.88-.473,1.83.314,3.745,1.279,5.369a.258.258,0,0,0,.123.128c.111.04.21-.069.284-.161a3.638,3.638,0,0,1,3.192-1.182,10.684,10.684,0,0,1,3.367,1.071l1.534-3.416a3.058,3.058,0,0,0,.395-1.828,5.291,5.291,0,0,0-.582-1.227,7.164,7.164,0,0,1-.5-3.154l-.028-6.076a13.287,13.287,0,0,0,2.388-5.159,16.55,16.55,0,0,1,.142,8.038,7.3,7.3,0,0,0-.236,1.225c-.092,1.686,1.229,3.111,1.582,4.762a1.024,1.024,0,0,1,.028.388,1.462,1.462,0,0,1-.2.449,6.92,6.92,0,0,0-.473,3.851,38.375,38.375,0,0,0,5.015.537,2.818,2.818,0,0,0,1.125-.116,3.106,3.106,0,0,0,.934-.686,20.619,20.619,0,0,1,3.516-2.66,8.185,8.185,0,0,0-2.873-2.837c.381-.56,1.248-.515,1.754-.965a1.655,1.655,0,0,0,.473-.932,6.329,6.329,0,0,0-.279-2.8,33.331,33.331,0,0,0-1.655-5.284,20.3,20.3,0,0,1-.889-2.14c-.619-2.038-.187-4.256-.655-6.339a4.368,4.368,0,0,1-.225-2.019c.26-1.024,1.419-1.631,1.674-2.657.915-3.653,1.078-7.438,1.6-11.166a14.348,14.348,0,0,0,.187-2.154c0-.754-.135-1.5-.189-2.253-.213-3.01.749-6.012.5-9.02a11.349,11.349,0,0,0-1.778-5.2c-1.738-2.683-.525-6.48-.343-9.672a7.111,7.111,0,0,1,.742-3.074,5.043,5.043,0,0,0,.437-1.75,1.808,1.808,0,0,0-.132-1.1,1.866,1.866,0,0,0-.645-.582c-.551-.359-.085-.619-.39-1.2a5.044,5.044,0,0,1-.336-1,2.109,2.109,0,0,0-.473-.929.894.894,0,0,0-.967-.236c-.225,0-.286-.3-.3-.522a7.366,7.366,0,0,0-.738-2.352,1.284,1.284,0,0,0-.57-.731,1.3,1.3,0,0,0-.778,0,2.512,2.512,0,0,0,.352.768,6.676,6.676,0,0,1,.8,2.326c-.236.071.236,0,0,0a1.655,1.655,0,0,1,.31,1.014h-6.655a.473.473,0,0,1-.236-.043.568.568,0,0,1-.192-.281,4.1,4.1,0,0,0-.615-.917l-2.341-2.887a.591.591,0,0,0-.2-.182.543.543,0,0,0-.3,0A5.317,5.317,0,0,0,296.268,314.077Z" transform="translate(-241.738 -259.147)"/><path class="g" d="M343.613,482.209a2.255,2.255,0,0,1,1.151.3,1.161,1.161,0,0,1,.572,1,2.645,2.645,0,0,1-.617,1.182,3.169,3.169,0,0,0-.364.747.3.3,0,0,0-.019.191c.028.09.125.135.208.175a1.776,1.776,0,0,1,1.043,1.551c-.021.922-.922,1.669-.872,2.6a5.349,5.349,0,0,0,.1.577,4.407,4.407,0,0,1-.319,2.338c-.286.742-.676,1.44-.984,2.175a15.43,15.43,0,0,0-.946,6.383,12.306,12.306,0,0,1-.946,4.284,61.584,61.584,0,0,0,.213-8.511c-.033-.771-.13-1.5-.095-2.272.057-1.227.742-2.343.917-3.546a17.475,17.475,0,0,0,.05-2.083c.033-1.419.418-2.818.444-4.241A5.475,5.475,0,0,1,343.613,482.209Z" transform="translate(-280.684 -388.166)"/><path class="l" d="M296.411,316.879a6.482,6.482,0,0,0-1.31.865,5.581,5.581,0,0,0-1.036,1.419,18.121,18.121,0,0,0-.877,1.835,4.088,4.088,0,0,0-.381,2.563,8.827,8.827,0,0,0,1.2,2.05,17.449,17.449,0,0,1,.958,2.234c.416,1,.986,1.932,1.4,2.934a5.2,5.2,0,0,1,.4,3.17c-.076.307-.575.546-.575.861,0,.52.752,1.085,1.251,1.237a1.872,1.872,0,0,0,1.672-.473,6.148,6.148,0,0,0,1.776-2.738,28.012,28.012,0,0,0,1.258-5.156c.218-1.281.421-2.565.537-3.856a9.816,9.816,0,0,0-.168-3.48,5.911,5.911,0,0,0-1.615-2.686,4.49,4.49,0,0,0-2.516-1.407A4.145,4.145,0,0,0,296.411,316.879Z" transform="translate(-243.348 -261.443)"/><path class="n" d="M288.293,404.792a1.13,1.13,0,0,1-.527.787,3.1,3.1,0,0,1-.9.369,3.742,3.742,0,0,1-1.946.192,3.906,3.906,0,0,1-1.367-.778l-7.159-5.48a9.669,9.669,0,0,1-1.577-1.4,10.083,10.083,0,0,1-.747-1.062,5.2,5.2,0,0,1-.7-1.381,2.527,2.527,0,0,1-.085-.664,1.251,1.251,0,0,1,.151-.608c.173-.288.541-.348.844-.428a8.856,8.856,0,0,1,3.114-.236.423.423,0,0,1,.421.286c.158.291.3.593.437.9a6.478,6.478,0,0,0,.844,1.445,12.187,12.187,0,0,0,1.052,1.014c.757.709,1.376,1.56,2.182,2.213a18.223,18.223,0,0,0,3.133,1.761,5.785,5.785,0,0,1,2.648,2.352,1.378,1.378,0,0,1,.177.721Z" transform="translate(-228.508 -320.855)"/><path class="g" d="M333.986,258.835a5.854,5.854,0,1,1-.163-1.371A5.854,5.854,0,0,1,333.986,258.835Z" transform="translate(-265.915 -213.133)"/><path class="n" d="M333.986,257.835a5.854,5.854,0,1,1-.163-1.371A5.854,5.854,0,0,1,333.986,257.835Z" transform="translate(-265.915 -212.369)"/><path class="g" d="M278.257,395.276a1.384,1.384,0,0,1-1,.04,6.271,6.271,0,0,0-3.965.059,1.251,1.251,0,0,1,.151-.608c.173-.288.541-.348.844-.428a8.855,8.855,0,0,1,3.114-.236.423.423,0,0,1,.421.286C277.978,394.67,278.115,394.973,278.257,395.276Z" transform="translate(-228.508 -320.855)"/><path class="l" d="M274.878,345.595a9.227,9.227,0,0,1-1.1,2.719,2.009,2.009,0,0,0-.416.728,2.27,2.27,0,0,1-.1.586c-.08.161-.251.267-.319.433-.1.236.031.541-.1.764a1.135,1.135,0,0,1-.225.236,1.654,1.654,0,0,0-.409,1.213,4.13,4.13,0,0,1-.109,1.3,5.861,5.861,0,0,1,4.256-.206c.395.087.884.154,1.14-.163s.109-.733.144-1.114a4.422,4.422,0,0,1,.6-1.359,16.192,16.192,0,0,0,.5-1.605,26.752,26.752,0,0,1,1.7-3.074,2.954,2.954,0,0,0,.336-1.168,3.485,3.485,0,0,0-.4-1.516,20.729,20.729,0,0,0-1.75-3.123c-.3-.442-.818-1.26-1.284-.553a13.254,13.254,0,0,0-.894,1.92,35.142,35.142,0,0,0-1.563,3.979Z" transform="translate(-227.6 -279.135)"/><path class="j" d="M330.946,272.312a4.778,4.778,0,0,1-3.825-1.511.586.586,0,0,1-.17-.277.555.555,0,0,1,.109-.388c.284-.437.773-.726,1-1.2a3.8,3.8,0,0,0,.17-1.527c.038-.924.4-1.839.433-2.75a2.873,2.873,0,0,0-.052-.7,4.358,4.358,0,0,1-.2-1.047c.031-.693.655-1.232.759-1.915.135-.87-.586-1.627-1.312-2.128a7.819,7.819,0,0,0-1.787-.924,5.818,5.818,0,0,0-1.2-.291,4.681,4.681,0,0,0-2.263.253,3.7,3.7,0,0,0-.842.449,1.14,1.14,0,0,0-.376.39,1.269,1.269,0,0,0-.1.565,6.024,6.024,0,0,1-.366,2.837c-.236.452-.638.818-.835,1.3a2.153,2.153,0,0,0-.149.622,6.262,6.262,0,0,0-.035.667,6.954,6.954,0,0,0,.634,3.641,9.491,9.491,0,0,1,.608,1.019,1.161,1.161,0,0,1-.059,1.132,1.289,1.289,0,0,1-.473.355,3.783,3.783,0,0,1-3.024.109,3.833,3.833,0,0,0,.894-4.275,2.523,2.523,0,0,1-.326-.946,2.4,2.4,0,0,1,.236-.865,4.729,4.729,0,0,0,.144-2.771,10.106,10.106,0,0,1-.44-1.686,5.1,5.1,0,0,1,.057-1.31,4.256,4.256,0,0,1,2.915-3.355c.121-.04.236-.078.369-.111a7.865,7.865,0,0,1,1.747-.187,13.264,13.264,0,0,1,3.908.262,5.244,5.244,0,0,1,2.024,1.04,3.653,3.653,0,0,1,.979,1.293,4.491,4.491,0,0,1,.277.894c.054.253.095.508.135.764a17.156,17.156,0,0,1,.267,5.487c-.121.709-.331,1.419-.426,2.142A12.945,12.945,0,0,0,330.946,272.312Z" transform="translate(-262.335 -215.03)"/><circle class="p" cx="0.44" cy="0.44" r="0.44" transform="translate(59.771 58.739)"/><circle class="p" cx="0.44" cy="0.44" r="0.44" transform="translate(67.192 58.531)"/><path class="g" d="M335.5,233.974l-.946-1.785a1.728,1.728,0,0,1,.2-.2.749.749,0,0,1,.456-.109Z" transform="translate(-275.285 -197.02)"/><path class="g" d="M344.151,230.537l-1.071,1.584-.61-1.738a1.934,1.934,0,0,1,.825-.156A2.743,2.743,0,0,1,344.151,230.537Z" transform="translate(-281.333 -195.757)"/><g class="k" transform="translate(55.255 42.116)"><path d="M321.087,316.105a1.289,1.289,0,0,1-.473.355,3.8,3.8,0,0,1-2.688.225,3.682,3.682,0,0,1-.336.357,3.783,3.783,0,0,0,3.024-.109,1.289,1.289,0,0,0,.473-.355,1.019,1.019,0,0,0,.151-.818A.839.839,0,0,1,321.087,316.105Z" transform="translate(-317.59 -303.185)"/><path d="M320.051,276.041a4.656,4.656,0,0,1,.135.946,4.712,4.712,0,0,0-.135-1.419,10.109,10.109,0,0,1-.44-1.686,1.413,1.413,0,0,0-.012-.222,5.273,5.273,0,0,0,.012.7A10.111,10.111,0,0,0,320.051,276.041Z" transform="translate(-319.12 -271.038)"/><path d="M371.728,290.7a10.347,10.347,0,0,0,.128-1.891,9.856,9.856,0,0,1-.128,1.419c-.121.709-.331,1.419-.426,2.142a7.462,7.462,0,0,0-.054,1.17,6.972,6.972,0,0,1,.054-.7C371.4,292.12,371.607,291.418,371.728,290.7Z" transform="translate(-358.559 -282.607)"/><path d="M320.276,298.741a3.887,3.887,0,0,1-.3-.731,1.07,1.07,0,0,0-.028.26,2.522,2.522,0,0,0,.326.946,3.572,3.572,0,0,1,.3,1.253A3.665,3.665,0,0,0,320.276,298.741Z" transform="translate(-319.392 -289.632)"/><path d="M363.536,287.458a3.083,3.083,0,0,1,.045.326v-.1a2.873,2.873,0,0,0-.052-.7c-.052-.248-.137-.494-.177-.745a1.048,1.048,0,0,0-.021.17,4.358,4.358,0,0,0,.206,1.047Z" transform="translate(-352.516 -280.644)"/><path d="M357.338,317.9a1.248,1.248,0,0,1-.1-.121.489.489,0,0,0-.069.317.586.586,0,0,0,.17.277,4.778,4.778,0,0,0,3.825,1.511c-.04-.156-.08-.31-.118-.473A4.771,4.771,0,0,1,357.338,317.9Z" transform="translate(-347.808 -304.727)"/><path d="M341.094,265.983a.1.1,0,0,1,0-.026c.135-.87-.586-1.627-1.312-2.128a7.817,7.817,0,0,0-1.787-.924,5.819,5.819,0,0,0-1.2-.291,4.681,4.681,0,0,0-2.263.253,3.7,3.7,0,0,0-.842.449,1.14,1.14,0,0,0-.376.39,1.269,1.269,0,0,0-.1.565v.473a1.27,1.27,0,0,1,.1-.565,1.14,1.14,0,0,1,.376-.39,3.7,3.7,0,0,1,.842-.449,4.681,4.681,0,0,1,2.263-.253,5.819,5.819,0,0,1,1.2.291,7.817,7.817,0,0,1,1.787.924A2.824,2.824,0,0,1,341.094,265.983Z" transform="translate(-329.519 -262.572)"/><path d="M328.4,275.773c-.236.452-.638.818-.835,1.3a2.153,2.153,0,0,0-.149.622,6.262,6.262,0,0,0-.035.667v.473a6.268,6.268,0,0,1,.036-.668,2.154,2.154,0,0,1,.149-.621,14.877,14.877,0,0,1,.835-1.3,4.747,4.747,0,0,0,.366-2.336A3.944,3.944,0,0,1,328.4,275.773Z" transform="translate(-325.065 -271.229)"/></g><path class="g" d="M332.128,256.343a.688.688,0,0,1-.113.125,1.082,1.082,0,0,1-.277.165c-.688.3-.66-.674-1.019-1.007a1.222,1.222,0,0,0-.8-.236q-1.038-.052-2.078-.092c-1.156-.043-2.31-.064-3.464-.038q-.83.014-1.655.069a4.507,4.507,0,0,0-1.868.428,1.979,1.979,0,0,0-.5.39c-.13.142-.267.322-.447.355a4.256,4.256,0,0,1,2.915-3.355,5.852,5.852,0,0,1,8.038,1,3.653,3.653,0,0,1,.979,1.293A4.491,4.491,0,0,1,332.128,256.343Z" transform="translate(-264.106 -212.375)"/><path class="h" d="M330.954,239.529c-.688.3-.66-.674-1.019-1.007a1.222,1.222,0,0,0-.8-.236,63.017,63.017,0,0,0-7.2-.061,3.4,3.4,0,0,0-2.364.818c-.147.161-.3.369-.52.362-.073-.473-.125-.965-.161-1.449a1.613,1.613,0,0,1,.028-.544c.059-.2.194-.376.262-.575a2.3,2.3,0,0,0,.071-.775,5.6,5.6,0,0,1,2.757-4.766,2.5,2.5,0,0,0,.575-.388,1.725,1.725,0,0,1,.2-.2.749.749,0,0,1,.456-.109h.336a3.052,3.052,0,0,0,.887-.236,1.934,1.934,0,0,1,.825-.156,2.742,2.742,0,0,1,.856.31,2.073,2.073,0,0,0,.4.144c.215.05.437.047.653.09a3.185,3.185,0,0,1,.979.435,4.671,4.671,0,0,1,.984.709,4.352,4.352,0,0,1,.761,1.239,8.873,8.873,0,0,1,.709,1.967,10.821,10.821,0,0,0,.551,2.927C331.455,238.586,331.708,239.205,330.954,239.529Z" transform="translate(-263.322 -195.742)"/><path class="g" d="M319.25,259.3s4.9-4.459,12.2-.761C331.45,258.542,323.21,256.668,319.25,259.3Z" transform="translate(-263.603 -216.259)"/><path class="q" d="M88.431,289.811c-.667-1.092-1.669-2.092-1.513-3.331a9.743,9.743,0,0,0,5.256-1.014,43.435,43.435,0,0,0,4.816-2.778c.619-.39,1.237-.773,1.851-1.128.974-.558,1.941-1.182,2.932-1.728a11.064,11.064,0,0,1,4.459-1.541,8.126,8.126,0,0,1,.868-.021c1.962.038,4,.565,5.721-.314l.106-.057a15.271,15.271,0,0,0,2.53-2.189,11.3,11.3,0,0,1,1.96-1.362c1.274-.709,2.655-1.277,3.958-1.946a6,6,0,0,0,.946-.605l.222-.177.05-.043c.054-.045.109-.09.161-.137l.1-.09.1-.095.08-.076.13-.123.014-.017.206-.2.083-.083.144-.149.085-.085c.144-.149.288-.3.435-.447s.345-.345.522-.508h0l.17-.151.05-.043.137-.113.064-.054.135-.1.066-.052c.066-.05.135-.1.2-.144a1.482,1.482,0,0,1,.2-.116l-.442-1.071,1.272-.525,17.543,42.568-1.274.525-10.034-24.352-.071.071a20.143,20.143,0,0,1-8.3,4.937h-.019a19.553,19.553,0,0,0-5.173,1.88,4.964,4.964,0,0,0-1.336,1.279c-.345.492-.586,1.052-.946,1.525-.069.087-.144.173-.22.253A8.221,8.221,0,0,1,115.267,297l-.225.154a45.978,45.978,0,0,1-4.752,2.929,18.752,18.752,0,0,1-2.953,1.229c-.74.236-1.5.409-2.244.643a8.786,8.786,0,0,0-1.445.582,10.571,10.571,0,0,0-3.126,2.776c-.8.96-1.553,1.977-2.428,2.851-.549.544-1.383,1.059-2.045.74l-.135-.078c.021-.035.038-.071.057-.109.522-1.095-.121-2.447-.986-3.324-.09-.092-.182-.182-.277-.267s-.265-.236-.4-.355a9.626,9.626,0,0,1-2.04-2.047,6.679,6.679,0,0,1-.785-2.225,9.453,9.453,0,0,0-1-3.208c-.4-.627-.988-1.161-1.419-1.761a2.683,2.683,0,0,1-.52-1.215,7.886,7.886,0,0,1,.395-2.286,2.853,2.853,0,0,0,.05-.634,3.355,3.355,0,0,0-.56-1.584Z" transform="translate(-86.187 -223.982)"/><rect class="r" width="1.355" height="45.268" transform="translate(57.399 85.41) rotate(157.6)"/><path class="h" d="M92.49,303.07a9.27,9.27,0,0,1,.981,3.154,6.644,6.644,0,0,0,.773,2.189,9.513,9.513,0,0,0,2,2.012c.132.116.265.236.392.35.092.083.184.173.272.26.851.863,1.482,2.194.969,3.27a.9.9,0,0,1-.054.106,1.08,1.08,0,0,0,.13.076c.653.317,1.473-.189,2.012-.726.861-.861,1.605-1.858,2.388-2.8a10.352,10.352,0,0,1,3.074-2.731,8.512,8.512,0,0,1,1.419-.572c.726-.236,1.478-.4,2.206-.631a18.569,18.569,0,0,0,2.9-1.208,45.522,45.522,0,0,0,4.681-2.882l.222-.151a8.122,8.122,0,0,0,1.395-1.1c.076-.08.149-.163.218-.251.364-.473.6-1.014.946-1.5a4.885,4.885,0,0,1,1.315-1.258,19.206,19.206,0,0,1,5.086-1.849h.019A19.846,19.846,0,0,0,134,291.969a1.329,1.329,0,0,0,.409-.6,1.386,1.386,0,0,0-.279-.958c-.2-.345-.4-.69-.591-1.04a46.459,46.459,0,0,1-2.331-4.9c-.149-.369-.293-.735-.433-1.106q-.537-1.419-.979-2.877c-.1-.322-.192-.645-.281-.969-.017-.061-.035-.128-.052-.2-.392-1.577-.917-5.268-2.534-4.163a9.355,9.355,0,0,0-1.336,1.161c-.314.319-.622.648-.946.965a9.564,9.564,0,0,1-.835.731,6.131,6.131,0,0,1-.946.6c-1.284.657-2.641,1.208-3.892,1.913a11.064,11.064,0,0,0-1.929,1.338,14.974,14.974,0,0,1-2.487,2.154l-.1.057c-1.7.863-3.7.345-5.627.307a8.489,8.489,0,0,0-.851.021,10.775,10.775,0,0,0-4.386,1.515c-.974.539-1.925,1.149-2.882,1.7-.605.348-1.21.723-1.82,1.109a41.635,41.635,0,0,1-4.729,2.733,9.716,9.716,0,0,1-5.168,1c-.154,1.218.83,2.2,1.487,3.275a3.251,3.251,0,0,1,.556,1.553,2.745,2.745,0,0,1-.045.622,8.121,8.121,0,0,0-.388,2.251,2.613,2.613,0,0,0,.508,1.189C91.518,301.928,92.1,302.455,92.49,303.07Z" transform="translate(-87.768 -229.909)"/><path class="n" d="M306.954,414.71a20.607,20.607,0,0,0,4.171,2.769c2.1.962.709,4.414.709,4.414a3.807,3.807,0,0,1-3.783-1.655C306.493,418.072,306.954,414.71,306.954,414.71Z" transform="translate(-254.165 -336.625)"/><path class="s" d="M727.978,544.625s-5.485,7.218-10.036,7.277-7.223,3.04-5.062,4.9,25.709-1.064,25.709-1.064.222-8.871-1.818-10.166S727.978,544.625,727.978,544.625Z" transform="translate(-563.587 -435.793)"/><path class="s" d="M1021.18,575.775s.839,5.717-1.754,9.615,4.686,5.4,4.686,5.4,5.289,1.473,5.674-3.752.26-9.221-.236-9.646-.91-3.364-.91-3.364Z" transform="translate(-797.813 -458.278)"/><path class="e" d="M677.45,430.169s-.192-18.491,18.105-26.007l4.249-8.083,2.038-4.965a12.081,12.081,0,0,1,8.533-7.2l3.3-.74,1.019-4.294a12.077,12.077,0,0,1,9.648-9.112,33.79,33.79,0,0,1,6.076-.567,5.23,5.23,0,0,1,4.442,2.6h0s17.335-.192,18.1,9.247c0,0,1.735,8.665,4.239,10.206,0,0,4.237-.962,8.473,5.2l4.622,15.793s12.133,11.363,8.473,21.751c0,0-5.008,7.126-30.43,2.31,0,0-27.156,8.275-41.611-3.074C706.724,433.25,682.651,437.872,677.45,430.169Z" transform="translate(-537.115 -301.875)"/><path class="t" d="M728.77,542.236s3.854-5.393,3.66-9.247.908-13.24.908-13.24" transform="translate(-576.302 -416.831)"/><path class="t" d="M788.24,496.422s3.851-7.126,3.466-10.977c0,0,4.045-7.329,7.126-6.743" transform="translate(-621.711 -385.462)"/><path class="t" d="M877.85,445.832s10.592-3.851,11.171-6.932" transform="translate(-690.135 -355.096)"/><path class="t" d="M894.14,485.167s11.171-5.008,11.171-6.357h5.582s8.09,10.594,7.128,15.216" transform="translate(-702.574 -385.57)"/><path class="t" d="M836.317,538s-10.786-.771-14.639,2.312-10.786,4.622-10.786,4.622-4.045,8.667-5.587,10.207-4.045,6.934-4.045,6.934" transform="translate(-631.653 -430.703)"/><path class="t" d="M949.54,581.46a28.17,28.17,0,0,0,2.7,6.355c1.542,2.312,3.851,10.592,3.851,10.592" transform="translate(-744.876 -463.951)"/><path class="t" d="M1026.11,631.15s2.445,6.8,4.594,6.868" transform="translate(-803.343 -501.893)"/><path class="t" d="M958.38,507.66s6.35,1.716,9.005,5.875,10.764,7.93,10.764,7.93" transform="translate(-751.626 -407.599)"/><path class="t" d="M969.9,421s0,8.859,2.5,8.859a70.973,70.973,0,0,1,8.091.962" transform="translate(-760.422 -341.428)"/><path class="t" d="M905.355,376.5s-.641,15.3-3.915,19.266" transform="translate(-708.148 -307.449)"/><g class="u" transform="translate(152.648 67.141)"><path d="M931.592,411.468l-4.622-15.793c-4.237-6.164-8.474-5.2-8.474-5.2-2.5-1.541-4.237-10.209-4.237-10.209-.771-9.438-18.105-9.244-18.105-9.244h0a5.23,5.23,0,0,0-4.452-2.6c-.818,0-1.655.026-2.492.095q.709.071,1.359.2l1.348,2.312s17.332-.194,18.1,9.244c0,0,1.735,8.667,4.239,10.209,0,0,4.237-.965,8.474,5.2l4.622,15.793s12.133,11.363,8.473,21.751c0,0-2.471,3.516-12.748,3.941,13.857.508,16.985-3.941,16.985-3.941C943.725,422.831,931.592,411.468,931.592,411.468Z" transform="translate(-851.458 -368.42)"/><path d="M741.869,639.29a89.924,89.924,0,0,1-12.339,1.35,78.689,78.689,0,0,0,13.079-.783C742.358,639.666,742.113,639.482,741.869,639.29Z" transform="translate(-729.53 -575.249)"/><path d="M898.946,652.33A79.106,79.106,0,0,1,880.76,655.2a77.126,77.126,0,0,0,20.753-2.419C900.677,652.647,899.828,652.488,898.946,652.33Z" transform="translate(-845.005 -585.206)"/></g><path class="e" d="M306.73,770.144s5.3-.163,6.894-1.3,8.147-2.494,8.544-.671,7.96,9.067,1.979,9.117-13.895-.932-15.488-1.9S306.73,770.144,306.73,770.144Z" transform="translate(-254.043 -605.839)"/><path class="v" d="M324.256,785.906c-5.982.05-13.9-.932-15.491-1.891-1.213-.74-1.7-3.393-1.858-4.615h-.177s.336,4.272,1.929,5.242,9.509,1.951,15.488,1.9c1.728-.014,2.324-.629,2.291-1.539C326.2,785.554,325.54,785.9,324.256,785.906Z" transform="translate(-254.043 -615.093)"/><path class="e" d="M773.971,703.4s-6.239-1.248-7.9-2.913-9.15-4.572-9.982-2.494-11.228,9.15-4.159,10.4,16.635,1.655,18.715.832S773.971,703.4,773.971,703.4Z" transform="translate(-592.115 -552.38)"/><path class="v" d="M751.934,727.233c7.072,1.246,16.635,1.655,18.715.83,1.582-.634,2.683-3.676,3.118-5.093l.208.045s-1.248,4.989-3.327,5.821-11.644.416-18.715-.832c-2.04-.359-2.624-1.206-2.4-2.274C749.7,726.434,750.416,726.97,751.934,727.233Z" transform="translate(-592.12 -572.004)"/><path class="d" d="M551.458,141.811h-1.485a1.04,1.04,0,1,0,0-2.081H537.944a1.04,1.04,0,1,0,0,2.081h1.485a1.04,1.04,0,0,0,0,2.078H537.35a1.04,1.04,0,1,0,0,2.081H549.38a1.04,1.04,0,0,0,0-2.081h2.078a1.04,1.04,0,1,0,0-2.078Z" transform="translate(-429.344 -126.657)"/><path class="d" d="M749.04,296.624h-1.485a1.04,1.04,0,0,0,0-2.078H735.514a1.04,1.04,0,1,0,0,2.078H737a1.04,1.04,0,0,0,0,2.078H734.92a1.04,1.04,0,1,0,0,2.081h12.027a1.04,1.04,0,1,0,0-2.081h2.092a1.04,1.04,0,1,0,0-2.078Z" transform="translate(-580.203 -244.87)"/><path class="d" d="M456.233,267.984h-1.485a1.04,1.04,0,1,0,0-2.078H442.716a1.04,1.04,0,1,0,0,2.078H444.2a1.04,1.04,0,1,0,0,2.078H442.12a1.04,1.04,0,1,0,0,2.081H454.15a1.04,1.04,0,1,0,0-2.081h2.078a1.04,1.04,0,1,0,0-2.078Z" transform="translate(-356.629 -223.001)"/></g></svg>
