<svg xmlns="http://www.w3.org/2000/svg" width="96" height="96" viewBox="0 0 96 96"><defs><style>.a{fill:#00afff;}.b{fill:rgba(255,255,255,0);stroke:rgba(0,0,0,0);}.c{fill:#fff;}.d{stroke:none;}.e{fill:none;}</style></defs><g transform="translate(0)"><circle class="a" cx="48" cy="48" r="48" transform="translate(0)"/></g><g transform="translate(15 15)"><g class="b"><rect class="d" width="66.568" height="67.052"/><rect class="e" x="0.5" y="0.5" width="65.568" height="66.052"/></g><g transform="translate(7.614 7.614)"><path class="c" d="M30.128,9.913A16.933,16.933,0,0,0,13.2-6.992a2.45,2.45,0,0,0-2.452,2.447A2.45,2.45,0,0,0,13.2-2.1,12.028,12.028,0,0,1,25.227,9.913a2.451,2.451,0,0,0,4.9,0M12.14,4.405a4.366,4.366,0,0,0-4.495,4.49v2.4a4.363,4.363,0,0,0,4.461,4.485l.01,1.049a1.225,1.225,0,0,0,1.227,1.211h.01A1.226,1.226,0,0,0,14.567,16.8l-.01-1.028a4.351,4.351,0,0,0,4.424-4.482v-2.4a4.364,4.364,0,0,0-4.492-4.49Zm0,2.449h2.35a1.926,1.926,0,0,1,2.043,2.041v2.4a1.929,1.929,0,0,1-2.05,2.041H12.14A1.925,1.925,0,0,1,10.1,11.291v-2.4A1.925,1.925,0,0,1,12.14,6.854m.012,2.858-.019.063a1.2,1.2,0,0,0,.83,1.492,1.159,1.159,0,0,0,.336.051,1.27,1.27,0,0,0,1.2-.9,1.224,1.224,0,1,0-2.345-.7M5.641,5.967a1.224,1.224,0,1,0-2.345-.7l-.019.063a1.2,1.2,0,0,0,.83,1.492,1.159,1.159,0,0,0,.336.051,1.269,1.269,0,0,0,1.2-.9M3.48,7.816A1.228,1.228,0,0,0,2.24,6.605L.682,6.622a4.188,4.188,0,0,0-3.9-2.217h-2.35a4.366,4.366,0,0,0-4.492,4.49v2.4a4.363,4.363,0,0,0,4.492,4.487h2.35a4.364,4.364,0,0,0,4.495-4.487V9.064l.995-.01A1.226,1.226,0,0,0,3.48,7.816M-1.18,11.291a1.929,1.929,0,0,1-2.05,2.041H-5.573a1.928,1.928,0,0,1-2.043-2.041v-2.4A1.926,1.926,0,0,1-5.573,6.854h2.35A1.925,1.925,0,0,1-1.18,8.895ZM-3.2,10.4a1.224,1.224,0,0,0-.845-1.511,1.227,1.227,0,0,0-1.513.844l-.019.063a1.2,1.2,0,0,0,.854,1.48,1.122,1.122,0,0,0,.319.046A1.272,1.272,0,0,0-3.2,10.4M-1.836-4.545A2.45,2.45,0,0,0-4.288-6.992a16.933,16.933,0,0,0-16.923,16.9,2.448,2.448,0,0,0,2.452,2.447A2.448,2.448,0,0,0-16.31,9.913,12.028,12.028,0,0,1-4.288-2.1,2.45,2.45,0,0,0-1.836-4.545M-21.211,27.927a16.934,16.934,0,0,0,16.923,16.9,2.45,2.45,0,0,0,2.452-2.447,2.45,2.45,0,0,0-2.452-2.449A12.028,12.028,0,0,1-16.31,27.927a2.45,2.45,0,0,0-2.449-2.449,2.45,2.45,0,0,0-2.452,2.449m11.192,3.936a1.2,1.2,0,0,0,.854,1.48,1.21,1.21,0,0,0,.319.044,1.269,1.269,0,0,0,1.2-.921,1.224,1.224,0,0,0-.845-1.511A1.225,1.225,0,0,0-10,31.8Zm-.056-6.332.022,2.29a1.222,1.222,0,0,0,1.225,1.214h.01A1.222,1.222,0,0,0-7.6,27.8l-.019-2.29A1.227,1.227,0,0,0-8.86,24.3a1.225,1.225,0,0,0-1.215,1.233m5.644,7.918,8.844-.019a1.225,1.225,0,0,0,0-2.449h0l-1.4,0a1.253,1.253,0,0,0,.441-.646A1.225,1.225,0,0,0,1.1,29.67l-.017.063a1.176,1.176,0,0,0,.411,1.255L-3.2,31l0-1.966,1.077-.01A1.224,1.224,0,0,0-.916,27.789a1.223,1.223,0,0,0-1.225-1.214h-.012l-1.058.012-.01-6.453,3.209-.007A1.224,1.224,0,0,0,1.212,18.9,1.2,1.2,0,0,0-.016,17.681l-8.847.019a1.226,1.226,0,0,0-1.222,1.228A1.225,1.225,0,0,0-8.86,20.149h0l3.183-.007,0,2.007-1.06.012A1.224,1.224,0,0,0-7.942,23.4a1.224,1.224,0,0,0,1.225,1.211h.012l1.041-.01.007,4.192-1.024.01A1.224,1.224,0,0,0-7.9,30.035a1.225,1.225,0,0,0,1.227,1.211h.012l1-.007,0,.948c0,.015-.01.027-.01.041a1.225,1.225,0,0,0,1.225,1.221ZM5.682,12.309l-.019-2.287A1.212,1.212,0,0,0,4.426,8.808a1.228,1.228,0,0,0-1.215,1.235l.022,2.287a1.223,1.223,0,0,0,1.225,1.214h.01a1.223,1.223,0,0,0,1.215-1.235m5.448,5.372L5.672,17.7l-.01-1.073a1.226,1.226,0,0,0-2.452.022l.022,2.287a1.167,1.167,0,0,0,.085.4c.007.022,0,.046.012.068a1.3,1.3,0,0,0,.184.271c.031.039.048.085.08.116a1.563,1.563,0,0,0,.131.089,1.21,1.21,0,0,0,.733.268h0l6.678-.022a1.223,1.223,0,0,0,0-2.447ZM3.286,25.2l-.019.063a1.193,1.193,0,0,0,.83,1.492,1.159,1.159,0,0,0,.336.051,1.271,1.271,0,0,0,1.2-.9,1.224,1.224,0,1,0-2.345-.7M1.224,25.6,1.2,23.309A1.227,1.227,0,0,0-.023,22.1H-.035a1.225,1.225,0,0,0-1.213,1.235l.022,2.29A1.223,1.223,0,0,0,0,26.832H.011A1.222,1.222,0,0,0,1.224,25.6m-.191-4.78a1.194,1.194,0,0,0,.83,1.492,1.156,1.156,0,0,0,.336.048,1.268,1.268,0,0,0,1.2-.9,1.224,1.224,0,0,0-2.345-.7ZM19,18.858a1.225,1.225,0,0,0-1.225-1.211h-.012l-2.292.022a1.223,1.223,0,0,0,.012,2.447h.01l2.295-.022A1.222,1.222,0,0,0,19,18.858M5.426,27.835A1.225,1.225,0,0,0,6.65,29.046h.015l.99-.012A4.345,4.345,0,0,0,12.14,33.42h2.35a4.364,4.364,0,0,0,4.492-4.487v-2.4a4.362,4.362,0,0,0-4.427-4.48l-.007-.938a1.225,1.225,0,0,0-1.227-1.211h-.012A1.222,1.222,0,0,0,12.1,21.14l.01.9c-.022,0-.041-.012-.063-.012h0l-5.393.019a1.225,1.225,0,0,0,0,2.449h0l1.423,0a4.689,4.689,0,0,0-.433,2.041v.053l-1.007.01a1.226,1.226,0,0,0-1.213,1.238m4.671-1.3A1.923,1.923,0,0,1,12.14,24.5h2.35a1.926,1.926,0,0,1,2.043,2.038v2.4a1.925,1.925,0,0,1-2.05,2.038H12.14A1.924,1.924,0,0,1,10.1,28.933Zm2.043.957A1.2,1.2,0,0,0,13,28.969a1.172,1.172,0,0,0,.315.041,1.272,1.272,0,0,0,1.205-.924,1.226,1.226,0,0,0-2.362-.658ZM10.753,42.383A2.452,2.452,0,0,0,13.2,44.832,16.935,16.935,0,0,0,30.128,27.925a2.451,2.451,0,0,0-4.9,0A12.031,12.031,0,0,1,13.2,39.936a2.45,2.45,0,0,0-2.452,2.447" transform="translate(21.211 6.992)"/></g></g></svg>