<svg xmlns="http://www.w3.org/2000/svg" xmlns:xlink="http://www.w3.org/1999/xlink" width="74" height="74" viewBox="0 0 74 74"><defs><style>.a{fill:none;}.b{clip-path:url(#a);}.c{fill:#0c263d;}.d{opacity:0.12;}.e,.h{fill:#fff;}.e{font-size:10px;font-family:Roboto-Regular, Roboto;}.f{clip-path:url(#d);}.g{fill:rgba(255,255,255,0);stroke:rgba(0,0,0,0);}.i{stroke:none;}.j{filter:url(#b);}</style><clipPath id="a"><rect class="a" width="74" height="74"/></clipPath><filter id="b" x="0" y="0" width="74" height="74" filterUnits="userSpaceOnUse"><feOffset dy="6" input="SourceAlpha"/><feGaussianBlur stdDeviation="3" result="c"/><feFlood flood-opacity="0.239"/><feComposite operator="in" in2="c"/><feComposite in="SourceGraphic"/></filter><clipPath id="d"><rect class="a" width="19.139" height="12.559"/></clipPath></defs><g class="b"><g transform="translate(-208 -517)"><g class="j" transform="matrix(1, 0, 0, 1, 208, 517)"><path class="c" d="M28,0A28,28,0,1,1,0,28,28,28,0,0,1,28,0Z" transform="translate(9 3)"/></g><g class="d" transform="translate(-2753 918)"><path class="c" d="M3431,959.5a27.5,27.5,0,1,1-27.5,27.5,27.5,27.5,0,0,1,27.5-27.5m0-.5a28,28,0,1,0,28,28,28,28,0,0,0-28-28Z" transform="translate(-433 -1357)"/><path class="c" d="M3431,959.5a27.5,27.5,0,1,1-27.5,27.5,27.5,27.5,0,0,1,27.5-27.5m0-.5a28,28,0,1,0,28,28,28,28,0,0,0-28-28Z" transform="translate(-433 -1357)"/></g></g><text class="e" transform="translate(28 44)"><tspan x="0" y="0">TOP</tspan></text><g class="f" transform="translate(28 18)"><g class="g"><rect class="i" width="19.139" height="12.559"/><rect class="a" x="0.5" y="0.5" width="18.139" height="11.559"/></g><g transform="translate(16.842 10.261)"><path class="h" d="M0,0A1.013,1.013,0,0,1-1.432,0l-5.84-5.84L-13.113,0a1.013,1.013,0,0,1-1.432,0,1.012,1.012,0,0,1,0-1.432l6.534-6.534a1.008,1.008,0,0,1,.716-.3c.008,0,.015.005.023.005s.016-.005.024-.005a1.009,1.009,0,0,1,.716.3L0-1.432A1.012,1.012,0,0,1,0,0"/></g></g></g></svg>