<svg xmlns="http://www.w3.org/2000/svg" width="601" height="15.04" viewBox="0 0 601 15.04">
    <defs>
        <style>.b{fill:#fff ;fill-rule:evenodd;}</style>
    </defs>
    <g class="a" transform="translate(-285 2884)">
        <path class="b"
              d="M15.929,15.039q.4-.147.818-.3l1.329-.5c7.218-2.7,11.736-3.712,19.52-3.712,7.723,0,11.551.919,18.519,3.706.719.287,1.406.556,2.068.806h4.681c-1.888-.549-3.864-1.272-6.19-2.2C49.544,9.984,45.539,9.023,37.6,9.023c-7.99,0-12.674,1.051-20.047,3.807l-1.328.5c-1.861.694-3.5,1.259-5.056,1.711ZM15.929,0A40.993,40.993,0,0,1,0,3.008H0V1.5A37.057,37.057,0,0,0,11.166,0h4.763ZM58.184,0a41.654,41.654,0,0,0,17.01,3.008V1.5A40.985,40.985,0,0,1,62.865,0H58.184ZM0,10.527c6.347,0,10.315-.91,16.747-3.31l1.329-.5c7.218-2.7,11.736-3.712,19.52-3.712,7.723,0,11.551.919,18.519,3.706,7.131,2.852,11.136,3.813,19.078,3.813v-1.5c-7.723,0-11.551-.919-18.519-3.706C49.544,2.465,45.539,1.5,37.6,1.5c-7.99,0-12.674,1.051-20.047,3.807l-1.328.5C9.943,8.151,6.138,9.023,0,9.023v1.5Z"
              transform="translate(285 -2884)"/>
        <path class="b"
              d="M15.929,15.039q.4-.147.818-.3l1.329-.5c7.218-2.7,11.736-3.712,19.52-3.712,7.723,0,11.551.919,18.519,3.706.719.287,1.406.556,2.068.806h4.681c-1.888-.549-3.864-1.272-6.19-2.2C49.544,9.984,45.539,9.023,37.6,9.023c-7.99,0-12.674,1.051-20.047,3.807l-1.328.5c-1.861.694-3.5,1.259-5.056,1.711ZM15.929,0A40.993,40.993,0,0,1,0,3.008H0V1.5A37.057,37.057,0,0,0,11.166,0h4.763ZM58.184,0a41.654,41.654,0,0,0,17.01,3.008V1.5A40.985,40.985,0,0,1,62.865,0H58.184ZM0,10.527c6.347,0,10.315-.91,16.747-3.31l1.329-.5c7.218-2.7,11.736-3.712,19.52-3.712,7.723,0,11.551.919,18.519,3.706,7.131,2.852,11.136,3.813,19.078,3.813v-1.5c-7.723,0-11.551-.919-18.519-3.706C49.544,2.465,45.539,1.5,37.6,1.5c-7.99,0-12.674,1.051-20.047,3.807l-1.328.5C9.943,8.151,6.138,9.023,0,9.023v1.5Z"
              transform="translate(360.194 -2884)"/>
        <path class="b"
              d="M15.929,15.039q.4-.147.818-.3l1.329-.5c7.218-2.7,11.736-3.712,19.52-3.712,7.723,0,11.551.919,18.519,3.706.719.287,1.406.556,2.068.806h4.681c-1.888-.549-3.864-1.272-6.19-2.2C49.544,9.984,45.539,9.023,37.6,9.023c-7.99,0-12.674,1.051-20.047,3.807l-1.328.5c-1.861.694-3.5,1.259-5.056,1.711ZM15.929,0A40.993,40.993,0,0,1,0,3.008H0V1.5A37.057,37.057,0,0,0,11.166,0h4.763ZM58.184,0a41.654,41.654,0,0,0,17.01,3.008V1.5A40.985,40.985,0,0,1,62.865,0H58.184ZM0,10.527c6.347,0,10.315-.91,16.747-3.31l1.329-.5c7.218-2.7,11.736-3.712,19.52-3.712,7.723,0,11.551.919,18.519,3.706,7.131,2.852,11.136,3.813,19.078,3.813v-1.5c-7.723,0-11.551-.919-18.519-3.706C49.544,2.465,45.539,1.5,37.6,1.5c-7.99,0-12.674,1.051-20.047,3.807l-1.328.5C9.943,8.151,6.138,9.023,0,9.023v1.5Z"
              transform="translate(435.388 -2884)"/>
        <path class="b"
              d="M15.929,15.039q.4-.147.818-.3l1.329-.5c7.218-2.7,11.736-3.712,19.52-3.712,7.723,0,11.551.919,18.519,3.706.719.287,1.406.556,2.068.806h4.681c-1.888-.549-3.864-1.272-6.19-2.2C49.544,9.984,45.539,9.023,37.6,9.023c-7.99,0-12.674,1.051-20.047,3.807l-1.328.5c-1.861.694-3.5,1.259-5.056,1.711ZM15.929,0A40.993,40.993,0,0,1,0,3.008H0V1.5A37.057,37.057,0,0,0,11.166,0h4.763ZM58.184,0a41.654,41.654,0,0,0,17.01,3.008V1.5A40.985,40.985,0,0,1,62.865,0H58.184ZM0,10.527c6.347,0,10.315-.91,16.747-3.31l1.329-.5c7.218-2.7,11.736-3.712,19.52-3.712,7.723,0,11.551.919,18.519,3.706,7.131,2.852,11.136,3.813,19.078,3.813v-1.5c-7.723,0-11.551-.919-18.519-3.706C49.544,2.465,45.539,1.5,37.6,1.5c-7.99,0-12.674,1.051-20.047,3.807l-1.328.5C9.943,8.151,6.138,9.023,0,9.023v1.5Z"
              transform="translate(510.582 -2884)"/>
        <path class="b"
              d="M15.929,15.039q.4-.147.818-.3l1.329-.5c7.218-2.7,11.736-3.712,19.52-3.712,7.723,0,11.551.919,18.519,3.706.719.287,1.406.556,2.068.806h4.681c-1.888-.549-3.864-1.272-6.19-2.2C49.544,9.984,45.539,9.023,37.6,9.023c-7.99,0-12.674,1.051-20.047,3.807l-1.328.5c-1.861.694-3.5,1.259-5.056,1.711ZM15.929,0A40.993,40.993,0,0,1,0,3.008H0V1.5A37.057,37.057,0,0,0,11.166,0h4.763ZM58.184,0a41.654,41.654,0,0,0,17.01,3.008V1.5A40.985,40.985,0,0,1,62.865,0H58.184ZM0,10.527c6.347,0,10.315-.91,16.747-3.31l1.329-.5c7.218-2.7,11.736-3.712,19.52-3.712,7.723,0,11.551.919,18.519,3.706,7.131,2.852,11.136,3.813,19.078,3.813v-1.5c-7.723,0-11.551-.919-18.519-3.706C49.544,2.465,45.539,1.5,37.6,1.5c-7.99,0-12.674,1.051-20.047,3.807l-1.328.5C9.943,8.151,6.138,9.023,0,9.023v1.5Z"
              transform="translate(585.775 -2884)"/>
        <path class="b"
              d="M15.929,15.039q.4-.147.818-.3l1.329-.5c7.218-2.7,11.736-3.712,19.52-3.712,7.723,0,11.551.919,18.519,3.706.719.287,1.406.556,2.068.806h4.681c-1.888-.549-3.864-1.272-6.19-2.2C49.544,9.984,45.539,9.023,37.6,9.023c-7.99,0-12.674,1.051-20.047,3.807l-1.328.5c-1.861.694-3.5,1.259-5.056,1.711ZM15.929,0A40.993,40.993,0,0,1,0,3.008H0V1.5A37.057,37.057,0,0,0,11.166,0h4.763ZM58.184,0a41.654,41.654,0,0,0,17.01,3.008V1.5A40.985,40.985,0,0,1,62.865,0H58.184ZM0,10.527c6.347,0,10.315-.91,16.747-3.31l1.329-.5c7.218-2.7,11.736-3.712,19.52-3.712,7.723,0,11.551.919,18.519,3.706,7.131,2.852,11.136,3.813,19.078,3.813v-1.5c-7.723,0-11.551-.919-18.519-3.706C49.544,2.465,45.539,1.5,37.6,1.5c-7.99,0-12.674,1.051-20.047,3.807l-1.328.5C9.943,8.151,6.138,9.023,0,9.023v1.5Z"
              transform="translate(660.969 -2884)"/>
        <path class="b"
              d="M15.929,15.039q.4-.147.818-.3l1.329-.5c7.218-2.7,11.736-3.712,19.52-3.712,7.723,0,11.551.919,18.519,3.706.719.287,1.406.556,2.068.806h4.681c-1.888-.549-3.864-1.272-6.19-2.2C49.544,9.984,45.539,9.023,37.6,9.023c-7.99,0-12.674,1.051-20.047,3.807l-1.328.5c-1.861.694-3.5,1.259-5.056,1.711ZM15.929,0A40.993,40.993,0,0,1,0,3.008H0V1.5A37.057,37.057,0,0,0,11.166,0h4.763ZM58.184,0a41.654,41.654,0,0,0,17.01,3.008V1.5A40.985,40.985,0,0,1,62.865,0H58.184ZM0,10.527c6.347,0,10.315-.91,16.747-3.31l1.329-.5c7.218-2.7,11.736-3.712,19.52-3.712,7.723,0,11.551.919,18.519,3.706,7.131,2.852,11.136,3.813,19.078,3.813v-1.5c-7.723,0-11.551-.919-18.519-3.706C49.544,2.465,45.539,1.5,37.6,1.5c-7.99,0-12.674,1.051-20.047,3.807l-1.328.5C9.943,8.151,6.138,9.023,0,9.023v1.5Z"
              transform="translate(736.163 -2884)"/>
        <path class="b"
              d="M15.929,15.039q.4-.147.818-.3l1.329-.5c7.218-2.7,11.736-3.712,19.52-3.712,7.723,0,11.551.919,18.519,3.706.719.287,1.406.556,2.068.806h4.681c-1.888-.549-3.864-1.272-6.19-2.2C49.544,9.984,45.539,9.023,37.6,9.023c-7.99,0-12.674,1.051-20.047,3.807l-1.328.5c-1.861.694-3.5,1.259-5.056,1.711ZM15.929,0A40.993,40.993,0,0,1,0,3.008H0V1.5A37.057,37.057,0,0,0,11.166,0h4.763ZM58.184,0a41.654,41.654,0,0,0,17.01,3.008V1.5A40.985,40.985,0,0,1,62.865,0H58.184ZM0,10.527c6.347,0,10.315-.91,16.747-3.31l1.329-.5c7.218-2.7,11.736-3.712,19.52-3.712,7.723,0,11.551.919,18.519,3.706,7.131,2.852,11.136,3.813,19.078,3.813v-1.5c-7.723,0-11.551-.919-18.519-3.706C49.544,2.465,45.539,1.5,37.6,1.5c-7.99,0-12.674,1.051-20.047,3.807l-1.328.5C9.943,8.151,6.138,9.023,0,9.023v1.5Z"
              transform="translate(811.357 -2884)"/>
    </g>
</svg>
