<svg width="18" height="14" viewBox="0 0 18 14" fill="none" xmlns="http://www.w3.org/2000/svg">
<path fill-rule="evenodd" clip-rule="evenodd" d="M13 0.25C13.2029 0.25 13.3972 0.332219 13.5384 0.477891L17.5384 4.60289C17.8268 4.90026 17.8195 5.37507 17.5221 5.66343C17.2247 5.95178 16.7499 5.94447 16.4616 5.64711L13.75 2.8508L13.75 13C13.75 13.4142 13.4142 13.75 13 13.75C12.5858 13.75 12.25 13.4142 12.25 13L12.25 2.8508L9.53843 5.64711C9.25007 5.94447 8.77526 5.95178 8.47789 5.66343C8.18053 5.37507 8.17322 4.90026 8.46158 4.60289L12.4616 0.477891C12.6028 0.332219 12.7971 0.25 13 0.25ZM5 0.25C5.41421 0.25 5.75 0.585787 5.75 1L5.75 11.1492L8.46157 8.35289C8.74993 8.05553 9.22475 8.04822 9.52211 8.33657C9.81947 8.62493 9.82678 9.09974 9.53843 9.39711L5.53843 13.5221C5.39717 13.6678 5.20291 13.75 5 13.75C4.79709 13.75 4.60283 13.6678 4.46158 13.5221L0.461575 9.39711C0.173222 9.09975 0.180527 8.62493 0.477891 8.33657C0.775255 8.04822 1.25007 8.05553 1.53843 8.35289L4.25 11.1492L4.25 1C4.25 0.585787 4.58579 0.25 5 0.25Z" fill="white"/>
</svg>
