<svg xmlns="http://www.w3.org/2000/svg" xmlns:xlink="http://www.w3.org/1999/xlink" width="100%" height="100%" viewBox="0 0 42 42"><defs><clipPath id="a"><rect width="42" height="42" fill="none"/></clipPath><clipPath id="b"><rect width="21.532" height="27.252" fill="none"/></clipPath></defs><g clip-path="url(#a)"><circle cx="21" cy="21" r="21" fill="#cbcbcb"/><g transform="translate(10.309 7.255)" clip-path="url(#b)"><g fill="rgba(255,255,255,0)" stroke="rgba(0,0,0,0)" stroke-width="1"><rect width="21.532" height="27.252" stroke="none"/><rect x="0.5" y="0.5" width="20.532" height="26.252" fill="none"/></g><g transform="translate(0.764 0.764)"><path d="M6.533,7.186a9.8,9.8,0,0,0-10-9.567,9.8,9.8,0,0,0-10,9.567,1.472,1.472,0,0,0,1.5,1.439,1.473,1.473,0,0,0,1.5-1.439A6.856,6.856,0,0,1-3.468.5,6.856,6.856,0,0,1,3.526,7.186a1.473,1.473,0,0,0,1.5,1.439,1.473,1.473,0,0,0,1.5-1.439M3.559-10.379A6.887,6.887,0,0,0-3.468-17.1,6.888,6.888,0,0,0-10.5-10.379,6.888,6.888,0,0,0-3.468-3.657a6.887,6.887,0,0,0,7.027-6.722m-3.007,0a3.941,3.941,0,0,1-4.02,3.846,3.941,3.941,0,0,1-4.021-3.846,3.941,3.941,0,0,1,4.021-3.845,3.941,3.941,0,0,1,4.02,3.845" transform="translate(13.471 17.1)" fill="#fff"/></g></g></g></svg>
