<svg xmlns="http://www.w3.org/2000/svg" width="157" height="124" viewBox="0 0 157 124"><defs><style>.a{fill:#eee;}.b{fill:#3f3d56;}.c{fill:#00afff;}.d,.g{opacity:0.2;}.e{fill:#9f6a9d;}.f{fill:#575a89;}.g{fill:#fa6c77;}.h{fill:#a0616a;}.i{fill:#d0cde1;}.j{fill:#0c263d;}.k{fill:#2f2e41;}</style></defs><path class="a" d="M813.04,270.867l-15.646-23.143,15.614,25.633-.033,2.6q1.713.013,3.393-.057l-.776-33.475.021-.258-.029-.05-.074-3.163,17.134-24.744-17.114,22.376-.061.669-.586-25.291,14.8-25.654-14.841,21.211.155-52.4v-.174l-.005.172-.982,41.3-13.488-16.774,13.444,20.332-.294,22.623L801.26,200.522l12.366,25.4-.164,12.579-18.05-30.755,17.995,35.144Z" transform="translate(-795.412 -154.953)"/><ellipse class="a" cx="66.317" cy="3.38" rx="66.317" ry="3.38" transform="translate(11.146 117.24)"/><ellipse class="b" cx="2.008" cy="2.008" rx="2.008" ry="2.008" transform="translate(36.706 118.968)"/><path class="b" d="M716.758,471.574l5.293-14.054s-.821-2.647,1.369-2.464,8.031,2.19,8.031,2.19,2.008.183-.73,3.012l-4.746,14.876-1.551-.73,5.111-14.784a1.019,1.019,0,0,0-.73-1.278c-1-.274-4.837-1.916-5.2-.913s-5.111,15.423-5.111,15.423Z" transform="translate(-678.319 -392.05)"/><path class="c" d="M760.1,530.857,749.881,561.43a10.986,10.986,0,0,1-2.668,1.289,13.983,13.983,0,0,1-2.626.627,3.176,3.176,0,0,1-.992-.078c-5.256-1.05-23.284-10.69-23.284-10.69s9.217-28.747,10.769-32.215a3.952,3.952,0,0,1,5.019-2.19s17.518,4.73,20.032,5.609l.137.049a5.691,5.691,0,0,1,2.737,2.1h0C761.563,527.48,760.1,530.857,760.1,530.857Z" transform="translate(-707.421 -441.915)"/><path class="d" d="M785.171,523.492l-.049.176c-.791-.222-1.465,1.543-1.472,1.561l-11.225,31.119-.172-.062,1.423-3.946-15.288-6.753-1.2,3.459-.172-.06,10.042-28.848.005-.009c.036-.057.882-1.38,1.887-1.113l-.047.177c-.839-.223-1.608.916-1.68,1.026l-2.126,6.106,16.072,5.254,2.313-6.412C783.509,525.085,784.219,523.225,785.171,523.492Zm-20.137,3-1.566,4.5,15.822,5.782,1.813-5.027Zm12.388,15.459,1.806-5.007-15.82-5.781-1.555,4.466ZM761.794,535.8l-1.7,4.9,15.542,6.219,1.729-4.792Zm11.945,16.363,1.831-5.076-15.54-6.219-1.581,4.542Z" transform="translate(-739.827 -442.733)"/><path class="d" d="M740.954,551.564c-.913,1.46-11.134,32.033-11.134,32.033a5.842,5.842,0,0,1-.66.924,13.977,13.977,0,0,1-2.626.627,3.174,3.174,0,0,1-.992-.078,4.6,4.6,0,0,0,2.726-3.116c.913-2.829,10.951-32.672,10.951-32.672a12.473,12.473,0,0,0-1.141-3.7l.137.049a5.691,5.691,0,0,1,2.737,2.1h0S741.867,550.1,740.954,551.564Z" transform="translate(-689.373 -463.717)"/><path class="b" d="M738.032,605.869l-1,3.1s.821,6.115-3.468,10.13l-.913,3.1.943.026,1-2.979a16.914,16.914,0,0,0,3.331-9.964l.844-3.418Z" transform="translate(-688.277 -511.269)"/><ellipse class="b" cx="2.008" cy="2.008" rx="2.008" ry="2.008" transform="translate(30.547 119.013)"/><ellipse class="b" cx="2.008" cy="2.008" rx="2.008" ry="2.008" transform="translate(11.067 110.571)"/><path class="e" d="M544.982,286.547s4.647.845,4.859,2.746a22.266,22.266,0,0,1,0,4.013Z" transform="translate(-459.811 -258.902)"/><path class="f" d="M473.161,322.955s13.519,4.858,22.391.634,19.645-9.506,19.645-9.506,5.281.422,4.647-2.746-4.858-21.546-14.575-27.672c0,0-5.915-7.6-9.294-7.182S479.5,308.169,479.5,308.169Z" transform="translate(-414.605 -251.019)"/><path class="g" d="M473.161,322.955s13.519,4.858,22.391.634,19.645-9.506,19.645-9.506,5.281.422,4.647-2.746-4.858-21.546-14.575-27.672c0,0-5.915-7.6-9.294-7.182S479.5,308.169,479.5,308.169Z" transform="translate(-414.605 -251.019)"/><path class="h" d="M718,442.547l-.845,2.112s-5.492,3.38-3.169,5.7,5.821-3.908,5.821-3.908l1.361-2.64Z" transform="translate(-666.619 -382.136)"/><path class="h" d="M282.368,462.649l.845,14.575-4.436,1.9-1.69-17.533Z" transform="translate(-184.735 -364.737)"/><path class="h" d="M378.973,466.593l-5.915,7.6-1.69,5.07-4.225-.211-1.056-5.07L372,468.072Z" transform="translate(-299.291 -368.681)"/><ellipse class="h" cx="5.703" cy="5.703" rx="5.703" ry="5.703" transform="translate(74.505 12.482)"/><path class="h" d="M593.593,254.448l-.422,5.281-6.76-2.112s2.535-4.013,1.9-5.07Z" transform="translate(-512.223 -232.045)"/><path class="i" d="M557.607,271.025s-4,1.056-6.331-1.479l-4.864,2.324,6.337,23.659,13.308-3.591-2.112-4.647s2.746-3.169-.211-6.126c0,0-.634-5.915-2.535-7.182A27.187,27.187,0,0,1,557.607,271.025Z" transform="translate(-476.237 -245.5)"/><path class="e" d="M628.03,269.047s7.182,5.7-.634,22.6-14.364,31.263-16.9,30.418-11.2-7.393-8.238-9.717,15.42-9.717,17.11-19.434-2.324-19.645-2.324-19.645Z" transform="translate(-552.889 -245.164)"/><path class="e" d="M431.253,144.593l-18.166,30.629,5.07,2.112,15.632-21.124Z" transform="translate(-364.033 -114.266)"/><path class="j" d="M496.1,372.547h1.479l5.492,11.829s10.351,31.263,9.294,37.6-40.347,5.484-38.234,5.281c2.011-.194,12.47-48.362,9.4-51.014Z" transform="translate(-407.342 -327.011)"/><path class="j" d="M468.753,676.237a2.254,2.254,0,0,1,2.112-1.69c1.69,0,1.69,2.324,1.69,2.324l4.858,4.436s4.225,5.281-1.267,5.281-5.492-1.267-5.492-1.267-1.479-1.479-2.746-.634-4.225-.845-3.8-1.69,1.054-6.311,1.477-5.373S468.753,676.237,468.753,676.237Z" transform="translate(-371.755 -565.438)"/><path class="j" d="M627.433,650.449s-.422-.211,1.69,0a9.911,9.911,0,0,0,2.957,0l-1.479,5.7s1.267,9.717-2.957,8.872-4.225-6.76-4.225-6.76.634-5.281.211-5.7-.211-6.126.422-6.126a23.21,23.21,0,0,0,3.692-1.369S625.743,650.449,627.433,650.449Z" transform="translate(-558.524 -542.187)"/><path class="k" d="M574.823,206.651c.355-.546.176-1.289.424-1.891.391-.945,1.605-1.167,2.625-1.253a7.824,7.824,0,0,1,2.034.005,1.952,1.952,0,0,1,1.41,1.023c.151.3.113-.645.016-1.861a5.879,5.879,0,0,0-4.509-5.26l-.043-.01a11.147,11.147,0,0,0-3.785-.348,4.925,4.925,0,0,0-3.315,1.694c-.361.457-.616,1-1.019,1.416a6.651,6.651,0,0,1-2.72,1.35,8.207,8.207,0,0,0-2.983,1.721,4.449,4.449,0,0,0-1.442,3.057,2.961,2.961,0,0,0,2.221,3.007,1.552,1.552,0,0,1,.663.286c1.32,1.024-.186,2.1-.175,3.248.009.962,1.079,1.588,2.04,1.633a3.87,3.87,0,0,0,3.855-3.062,8.069,8.069,0,0,0-.061-2.4c-.108-.912,1.856-3.06.559-1.486a2.257,2.257,0,0,0-.5,1.044c-.216,1.258.928,1.681,1.65,2.377a2.99,2.99,0,0,1,.724,3.078,3.447,3.447,0,0,0,.627-4.354c-.232-.357-.532-.667-.752-1.031-.344-.568-.439-1.8.524-1.77C573.581,206.892,574.295,207.464,574.823,206.651Z" transform="translate(-494.787 -188.123)"/><path class="a" d="M228.324,677.273s8.48-15.653,28.989-8.885Z" transform="translate(-100.313 -559.242)"/><path class="a" d="M355.88,603.1s10.488-13.331-4.65-29.961Z" transform="translate(-228.376 -485.453)"/></svg>