<svg xmlns="http://www.w3.org/2000/svg" xmlns:xlink="http://www.w3.org/1999/xlink" width="100%" height="100%" viewBox="0 0 191 133.959"><defs><style>.a{fill:#0c263d;}.b{fill:#00c3ae;}.c{fill:#3f3d56;}.d{fill:#ffb8b8;}.e{fill:#2f2e41;}.f{fill:none;}.g{fill:url(#a);}.h{fill:#d0cde1;}.i{fill:#00afff;}</style><linearGradient id="a" x1="0.5" x2="0.5" y2="1" gradientUnits="objectBoundingBox"><stop offset="0" stop-color="#33bfff"/><stop offset="0.1" stop-color="#2dc0f7"/><stop offset="0.2" stop-color="#28c0ef"/><stop offset="0.3" stop-color="#23c0e7"/><stop offset="0.4" stop-color="#1ec1df"/><stop offset="0.5" stop-color="#19c1d7"/><stop offset="0.6" stop-color="#14c1cf"/><stop offset="0.7" stop-color="#0fc2c7"/><stop offset="0.8" stop-color="#0ac2bf"/><stop offset="0.9" stop-color="#05c2b7"/><stop offset="1" stop-color="#00c3af"/></linearGradient></defs><path class="a" d="M192.745,621.109l-.238-.089c-.052-.02-5.253-2.012-7.689-6.53s-1.243-9.958-1.231-10.012l.056-.248.238.089c.052.02,5.253,2.012,7.689,6.53s1.243,9.958,1.231,10.012Zm-7.537-6.83c2.06,3.82,6.169,5.778,7.211,6.225.2-1.116.819-5.629-1.239-9.445s-6.169-5.777-7.211-6.225C183.771,605.951,183.15,610.463,185.208,614.279Z" transform="translate(-164.379 -508.817)"/><path class="b" d="M158.477,644.232c4.378,2.634,6.064,7.866,6.064,7.866s-5.412.961-9.79-1.673-6.064-7.866-6.064-7.866S154.1,641.6,158.477,644.232Z" transform="translate(-136.176 -539.925)"/><ellipse class="c" cx="15.952" cy="3.545" rx="15.952" ry="3.545" transform="translate(141.384 60.375)"/><rect class="a" width="45.258" height="0.443" transform="matrix(0.367, -0.93, 0.93, 0.367, 123.476, 112.1)"/><rect class="a" width="0.443" height="45.258" transform="translate(173.97 70.111) rotate(-21.541)"/><rect class="a" width="0.443" height="42.097" transform="translate(156.894 70.056)"/><rect class="a" width="0.443" height="18.826" transform="matrix(0.447, -0.894, 0.894, 0.447, 137.477, 85.557)"/><rect class="a" width="18.826" height="0.443" transform="matrix(0.894, -0.447, 0.447, 0.894, 159.897, 93.582)"/><path class="d" d="M780.594,279.615s-6.647-6.868-8.419-2.659,6.647,6.425,6.647,6.425Z" transform="translate(-644.821 -240.796)"/><path class="e" d="M806.825,349.13l-8.641,12.407L789.1,374.166l-2.659,36.558,9.084,1.108s-1.329-9.97,1.108-15.952,2.437-16.839,2.437-16.839L814.8,359.986l8.862,15.288,9.527,36.558,7.976-.665s-2.88-16.839-2.437-18.611-4.653-16.617-4.653-16.617l-3.988-29.024S811.921,344.255,806.825,349.13Z" transform="translate(-656.911 -298.445)"/><circle class="d" cx="6.367" cy="6.367" r="6.367" transform="translate(147.457 5.368)"/><path class="d" d="M913.146,161.908l4.653,4.874,1.329,7.533-11.743,1.994.886-6.868s-.222-3.323-1.108-3.988S913.146,161.908,913.146,161.908Z" transform="translate(-755.255 -148.061)"/><path class="f" d="M871.55,236.229" transform="translate(-726.084 -208.692)"/><path class="g" d="M887.969,191.825l1.079-1.219,3.573,3.213,5.982-5.539,9.084,30.575a16.312,16.312,0,0,0-11.3.665c-5.539,2.659-12.851,1.994-12.851,1.994l.222-24.815Z" transform="translate(-736.06 -169.558)"/><path class="h" d="M861.023,203.879l7.424-6.791s2.547,3.69,1.439,10.78-1.994,21.048-5.982,24.815-5.539,5.1-5.539,5.1l3.988-15.952S859.251,205.651,861.023,203.879Z" transform="translate(-715.367 -176.789)"/><path class="h" d="M953.553,173.929s13.2-1.319,13.425.232-1.329,19.276-1.329,19.276,13.737,18.39,7.976,21.935c-2.686,1.653-5.008-1.978-8.309-6.536-3.778-5.217-8.4-11.763-8.752-14.955C955.9,187.9,953.553,173.929,953.553,173.929Z" transform="translate(-793.134 -157.434)"/><path class="h" d="M814.785,267.395l-1.108,8.641-9.749-4.21-3.1,6.425,15.952,5.982S819.659,268.946,814.785,267.395Z" transform="translate(-668.431 -234.116)"/><path class="e" d="M723.821,689.342,717.4,699.755s-12.186,6.647-7.976,8.419,14.4-1.994,15.509-4.21,1.551-2.659,1.994-2.216,5.982-1.329,6.2-1.994,0-8.2-1.994-9.084S723.821,689.342,723.821,689.342Z" transform="translate(-593.142 -578.24)"/><path class="e" d="M1040.569,693.381l1.329,8.2,1.551,5.76s1.108,8.419,6.425,7.755a4.294,4.294,0,0,0,3.877-4.016,8.039,8.039,0,0,0-.888-4.98l-2.989-5.627-2.659-7.533Z" transform="translate(-864.067 -581.172)"/><path class="e" d="M878.671,108.573a3.119,3.119,0,0,1-.777-2.1,6.674,6.674,0,0,0-.126-1.988,19.633,19.633,0,0,1,.671-3.024c.4-1.11.063-1.5,1.782-2.1s.625-2.8,5.692-1.05a1.386,1.386,0,0,0,1.508.309c.936-.343,1.5.943,1.5.943s.584-.479.911.019,1.911-.637,2.492,2.985a11.166,11.166,0,0,1-1.413,6.851s-.28-5.795-3.571-5.9-7.013-1.352-7.474,1.089A17.812,17.812,0,0,1,878.671,108.573Z" transform="translate(-731.212 -95.673)"/><path class="d" d="M984.353,337.017s-7.993,5.241-4.19,7.772,7.558-5.324,7.558-5.324Z" transform="translate(-813.989 -290.89)"/><path class="h" d="M997.273,176.27a1.745,1.745,0,0,1,2.659,1.108c.665,2.216,7.533,19.276,7.533,19.276l-8.641,13.294-6.2-4.431,7.533-8.862-5.1-6.2Z" transform="translate(-824.981 -159.543)"/><path class="c" d="M700.205,154.245h-.232v-6.354a3.677,3.677,0,0,0-3.677-3.677H682.834a3.677,3.677,0,0,0-3.677,3.677v34.858a3.677,3.677,0,0,0,3.677,3.677H696.3a3.677,3.677,0,0,0,3.677-3.677V158.767h.232Z" transform="translate(-569.153 -133.636)"/><path class="i" d="M700.449,149.86h-1.757a1.3,1.3,0,0,1-1.208,1.8h-7.712a1.3,1.3,0,0,1-1.208-1.8h-1.641a2.746,2.746,0,0,0-2.746,2.746v34.807a2.746,2.746,0,0,0,2.746,2.746h13.526a2.746,2.746,0,0,0,2.746-2.746V152.606A2.746,2.746,0,0,0,700.449,149.86Z" transform="translate(-573.243 -138.24)"/><path class="a" d="M628.9,154.754l2.89,5.005,2.89,5.005h-11.56l2.89-5.005Z" transform="translate(-508.497 -126.204)"/><path class="h" d="M642.756,174.36l1.311,2.271,1.311,2.271h-5.244l1.311-2.271Z" transform="translate(-522.36 -142.191)"/><path class="h" d="M642.756,134.413l1.311,2.271,1.311,2.27h-5.244l1.311-2.27Z" transform="translate(-522.36 -109.614)"/><path class="a" d="M180.567,250.708l19.064,33.02,19.064,33.02H142.439l19.064-33.02Z" transform="translate(-116.112 -204.528)"/><path class="h" d="M271.956,380.04l8.648,14.979L289.252,410H254.66l8.648-14.979Z" transform="translate(-207.847 -309.954)"/><path class="h" d="M271.956,116.52,280.6,131.5l8.648,14.979H254.66l8.648-14.979Z" transform="translate(-207.847 -95.032)"/><rect class="a" width="124.296" height="0.443" transform="translate(0 111.876)"/><path class="a" d="M269.8,217.241a13.38,13.38,0,0,1-2.107-3.788,13.392,13.392,0,0,1-2.107,3.788l1.886-.682v9.967h.443v-9.967Z" transform="translate(-231.47 -190.124)"/><path class="a" d="M598.848,396.448a13.379,13.379,0,0,1-2.107-3.788,13.393,13.393,0,0,1-2.107,3.788l1.886-.682v9.967h.443v-9.967Z" transform="translate(-500.132 -336.271)"/><path class="a" d="M495.759,90.776a13.379,13.379,0,0,1-2.107-3.788,13.391,13.391,0,0,1-2.107,3.788l1.886-.682v9.967h.443V90.094Z" transform="translate(-416.009 -86.989)"/></svg>
