<svg xmlns="http://www.w3.org/2000/svg" xmlns:xlink="http://www.w3.org/1999/xlink" width="100%" height="100%" viewBox="0 0 652.606 461.495">
    <defs>
        <style>
            .a{fill:#fff;}.b{fill:none;}.c{clip-path:url(#a);}.d{clip-path:url(#b);}
        </style>
        <clipPath id="a">
            <rect width="461.495" height="652.606" class="b"/>
        </clipPath>
        <clipPath id="b">
            <path d="M0-189.534H461.495V-842.14H0Z" class="a" transform="translate(0 842.14)"/>
        </clipPath>
    </defs>
    <g class="c" transform="translate(652.606) rotate(90)">
        <g class="d">
            <g transform="translate(0 0)">
                <path d="M-134.03-188.726v-.375l-.122.034c-1.041.29-2.106.573-3.135.846l-.229.06c-2.349.625-4.777,1.269-7.121,2.025l-.587.189h1.183l.014,0c2.171-.682,4.425-1.281,6.6-1.86l.164-.044c1.037-.276,2.11-.559,3.159-.852Zm-.065-4.394.065-.022v-.382l-.129.044c-2.815.982-5.757,1.763-8.6,2.517-4.767,1.267-9.7,2.577-14.105,4.834l-.358.183h.8l.02-.011a71.962,71.962,0,0,1,13.74-4.657c2.838-.753,5.773-1.532,8.573-2.506m.012-5,.053-.027v-.4l-.14.071c-4.33,2.17-9.172,3.455-13.868,4.7-6.486,1.725-13.194,3.508-18.682,7.659l-.23.174h.6l.026-.019c5.407-4.018,12.006-5.772,18.389-7.467a73.19,73.19,0,0,0,13.854-4.689m.016-6.122.037-.029v-.459l-.157.123c-5.562,4.387-12.463,6.22-19.136,7.992-7.832,2.081-15.929,4.232-21.969,10.505l-.158.164h.5l.029-.029c5.959-6.111,13.956-8.236,21.691-10.291,6.669-1.771,13.566-3.6,19.163-7.976m.019-8.3.018-.026v-.628l-.176.25a24.991,24.991,0,0,1-2.143,2.643c-6.049,6.516-14.3,8.71-22.288,10.831-8.032,2.133-16.338,4.338-22.46,10.934a25.779,25.779,0,0,0-2,2.434l-.111.153h.444l.029-.04a25.518,25.518,0,0,1,1.9-2.3c6.048-6.516,14.3-8.71,22.291-10.831,8.031-2.133,16.337-4.34,22.457-10.934a25.661,25.661,0,0,0,2.036-2.485m-7.22-.457c4.868-5.244,6.414-10.911,7.238-17.82v-1.494l-.193-.01c-.679,6.4-1.8,13.148-7.309,19.079-6.092,6.562-14.4,8.771-22.443,10.9-8.088,2.149-16.452,4.37-22.616,11.01a24.773,24.773,0,0,0-3.751,5.239l-.077.143h.411l.028-.051a24.357,24.357,0,0,1,3.655-5.084c6.092-6.564,14.4-8.771,22.444-10.9,8.088-2.15,16.452-4.371,22.614-11.01m7.223-42.526.015-.024v-.67l-.178.277c-3.714,5.755-4.336,12.086-4.936,18.208-.721,7.338-1.465,14.926-7.594,21.529s-14.505,8.831-22.6,10.982c-8.144,2.164-16.565,4.4-22.771,11.085a24.94,24.94,0,0,0-5.055,8.059l-.051.132h.389l.024-.061a24.555,24.555,0,0,1,4.958-7.884c6.132-6.606,14.5-8.83,22.6-10.981,8.145-2.163,16.566-4.4,22.772-11.086s6.962-14.34,7.687-21.737c.588-6,1.2-12.2,4.742-17.827m-.019-9.138.034-.029v-.474l-.16.135a27.873,27.873,0,0,0-2.4,2.285c-6.251,6.735-7.008,14.437-7.738,21.886-.727,7.39-1.477,15.031-7.647,21.677s-14.605,8.893-22.755,11.058c-8.2,2.178-16.679,4.431-22.928,11.161a25.447,25.447,0,0,0-6.009,10.894l-.035.122h.375l.019-.071a25.093,25.093,0,0,1,5.914-10.7c6.179-6.655,14.606-8.893,22.755-11.058,8.2-2.178,16.677-4.43,22.927-11.161s7.009-14.439,7.74-21.894c.726-7.387,1.477-15.025,7.645-21.668a27.157,27.157,0,0,1,2.256-2.163m-.016-6.8.05-.027v-.411l-.143.077a28.9,28.9,0,0,0-7.561,5.787c-6.294,6.781-7.057,14.536-7.793,22.035-.731,7.439-1.486,15.132-7.7,21.825s-14.7,8.952-22.91,11.131c-8.255,2.193-16.792,4.461-23.082,11.237a26.615,26.615,0,0,0-6.706,13.746l-.023.115h.369l.016-.078a26.245,26.245,0,0,1,6.61-13.537c6.219-6.7,14.7-8.954,22.91-11.134,8.255-2.193,16.792-4.461,23.081-11.236s7.058-14.536,7.794-22.035c.731-7.441,1.486-15.135,7.7-21.825a28.5,28.5,0,0,1,7.389-5.672m-.012-5.667.063-.024v-.387l-.131.05a32.162,32.162,0,0,0-12.748,8.145c-6.338,6.828-7.1,14.634-7.845,22.183-.735,7.49-1.5,15.234-7.752,21.973s-14.8,9.014-23.07,11.21c-8.308,2.207-16.9,4.489-23.231,11.31-5.055,5.444-6.485,11.453-7.219,16.612l-.015.111h.365l.012-.084c.725-5.094,2.137-11.025,7.122-16.395,6.262-6.744,14.8-9.014,23.064-11.208,8.311-2.208,16.9-4.491,23.237-11.312s7.1-14.634,7.845-22.183c.735-7.49,1.5-15.235,7.75-21.973a31.777,31.777,0,0,1,12.552-8.028m-.007-5.074.07-.02v-.377l-.124.036c-6.266,1.841-12.777,4.314-17.955,9.891-6.38,6.874-7.151,14.732-7.9,22.331-.742,7.542-1.508,15.338-7.8,22.121s-14.9,9.076-23.221,11.285c-8.365,2.223-17.017,4.52-23.392,11.389-5.729,6.17-6.9,13.014-7.608,19.494l-.012.108h.363l.009-.086c.7-6.412,1.86-13.181,7.511-19.271,6.3-6.788,14.9-9.075,23.222-11.283,8.365-2.223,17.017-4.52,23.392-11.388s7.152-14.726,7.9-22.331c.741-7.539,1.5-15.336,7.8-22.121,5.112-5.506,11.55-7.953,17.745-9.776m0-4.818.072-.019v-.374l-.122.032c-8.245,2.192-16.77,4.458-23.182,11.366s-7.2,14.828-7.95,22.479c-.746,7.591-1.517,15.441-7.856,22.268s-15,9.135-23.374,11.36c-8.423,2.237-17.133,4.551-23.548,11.464s-7.2,14.786-7.942,22.392l-.01.106h.361l.008-.087c.741-7.542,1.508-15.339,7.845-22.166s15-9.137,23.378-11.361c8.421-2.236,17.128-4.549,23.547-11.463s7.2-14.829,7.951-22.481c.746-7.591,1.516-15.439,7.856-22.266s14.793-9.078,22.967-11.251m0-4.824.071-.02v-.376l-.123.036c-1.586.454-3.183.878-4.729,1.288-8.477,2.252-17.244,4.581-23.7,11.54s-7.246,14.926-8,22.627c-.751,7.642-1.526,15.543-7.907,22.417s-15.1,9.2-23.53,11.433c-8.477,2.253-17.244,4.581-23.7,11.54s-7.245,14.921-8,22.626l0,.025c-.087.886-.174,1.772-.27,2.655l-.012.108h.363l.009-.086c.095-.881.183-1.764.271-2.666.75-7.641,1.526-15.541,7.909-22.416s15.1-9.2,23.534-11.437c8.476-2.253,17.242-4.582,23.7-11.537s7.245-14.927,8-22.627c.75-7.642,1.526-15.541,7.907-22.417s15.1-9.2,23.533-11.436c1.541-.409,3.133-.833,4.688-1.277m.006-5.081.064-.023v-.384l-.129.046c-3.193,1.145-6.566,2.041-9.844,2.912-8.533,2.267-17.356,4.609-23.857,11.614s-7.294,15.025-8.055,22.776c-.756,7.692-1.537,15.646-7.96,22.565s-15.2,9.257-23.687,11.509c-8.532,2.267-17.355,4.61-23.859,11.615s-7.294,15.024-8.054,22.775c-.177,1.795-.36,3.649-.61,5.462l-.016.11h.364l.011-.084c.245-1.774.424-3.586.6-5.341l.011-.112c.754-7.69,1.534-15.644,7.96-22.565s15.2-9.255,23.687-11.51c8.532-2.267,17.356-4.61,23.859-11.614s7.293-15.025,8.052-22.775c.756-7.693,1.538-15.648,7.963-22.566s15.2-9.257,23.686-11.51c3.253-.865,6.618-1.758,9.815-2.9m.011-5.634.053-.027v-.4l-.14.07c-4.685,2.338-9.918,3.727-14.984,5.073-8.587,2.282-17.468,4.642-24.008,11.688s-7.342,15.122-8.107,22.924c-.759,7.741-1.544,15.746-8.012,22.713s-15.3,9.316-23.843,11.585c-8.589,2.282-17.469,4.641-24.013,11.69s-7.341,15.123-8.107,22.93c-.268,2.719-.545,5.53-1.063,8.253l-.022.115h.369l.015-.079c.515-2.729.793-5.539,1.06-8.261.761-7.742,1.547-15.749,8.012-22.713s15.3-9.319,23.844-11.587c8.588-2.281,17.468-4.64,24.013-11.689s7.34-15.121,8.106-22.924c.76-7.742,1.547-15.748,8.014-22.713s15.3-9.318,23.846-11.587c5.052-1.343,10.275-2.731,14.969-5.06m.014-6.615.04-.029v-.449l-.155.115c-5.91,4.417-13.141,6.337-20.136,8.2-8.645,2.3-17.583,4.67-24.17,11.765s-7.388,15.22-8.16,23.085c-.766,7.789-1.56,15.843-8.066,22.849s-15.4,9.38-24,11.663c-8.644,2.3-17.583,4.671-24.168,11.764s-7.388,15.22-8.159,23.072a70.124,70.124,0,0,1-1.692,11.075l-.032.122h.374l.019-.072a70.515,70.515,0,0,0,1.689-11.1c.766-7.791,1.558-15.847,8.064-22.855s15.4-9.379,24-11.661c8.644-2.3,17.583-4.671,24.17-11.766s7.389-15.22,8.16-23.078c.766-7.791,1.558-15.847,8.066-22.855s15.4-9.378,24-11.663c6.986-1.858,14.211-3.777,20.154-8.181m.018-8.37.022-.027v-.568l-.172.211c-.37.454-.763.9-1.166,1.338-6.558,7.064-15.5,9.44-24.152,11.736-8.7,2.312-17.694,4.7-24.325,11.842s-7.436,15.317-8.21,23.221c-.771,7.843-1.568,15.954-8.117,23.009s-15.5,9.44-24.152,11.736c-8.7,2.312-17.695,4.7-24.325,11.843s-7.435,15.314-8.211,23.219c-.454,4.62-.924,9.4-2.562,13.907l-.048.13h.385l.022-.064c1.637-4.528,2.106-9.311,2.561-13.943.77-7.841,1.568-15.949,8.117-23s15.5-9.44,24.153-11.739c8.7-2.311,17.7-4.7,24.324-11.84s7.435-15.312,8.212-23.219c.77-7.843,1.565-15.952,8.117-23.011s15.5-9.439,24.153-11.736c8.7-2.312,17.695-4.7,24.325-11.841.36-.389.714-.793,1.052-1.2m.017-13.1,0-1.288-.19.649a27.035,27.035,0,0,1-6.218,11.082c-6.6,7.109-15.6,9.5-24.307,11.812-8.755,2.326-17.809,4.731-24.481,11.918s-7.482,15.414-8.263,23.367c-.776,7.894-1.577,16.058-8.169,23.158s-15.6,9.5-24.309,11.812c-8.755,2.326-17.809,4.731-24.48,11.917s-7.483,15.414-8.264,23.367c-.55,5.6-1.118,11.392-3.751,16.759l-.068.139h.4l.026-.054c2.628-5.4,3.2-11.2,3.749-16.808.776-7.894,1.577-16.057,8.169-23.157s15.6-9.5,24.308-11.813c8.755-2.326,17.809-4.729,24.48-11.916s7.484-15.414,8.265-23.368c.776-7.894,1.577-16.057,8.169-23.157s15.6-9.5,24.308-11.813c8.755-2.326,17.81-4.732,24.48-11.916a27.211,27.211,0,0,0,6.139-10.69m0-31.386.007-.966-.186.448c-2.072,4.981-2.592,10.283-3.1,15.416-.781,7.945-1.588,16.158-8.224,23.307s-15.7,9.562-24.464,11.889c-8.81,2.34-17.921,4.76-24.633,11.991s-7.531,15.508-8.318,23.517c-.78,7.945-1.586,16.16-8.221,23.305s-15.7,9.561-24.464,11.889c-8.81,2.34-17.921,4.76-24.635,11.991s-7.531,15.513-8.317,23.516c-.649,6.609-1.32,13.443-5.342,19.626l-.1.15h.432l.029-.045c4.013-6.225,4.687-13.073,5.339-19.7.78-7.944,1.586-16.157,8.223-23.305s15.7-9.56,24.462-11.888c8.81-2.34,17.921-4.759,24.637-11.992s7.529-15.512,8.314-23.517c.78-7.942,1.585-16.156,8.223-23.305s15.7-9.562,24.462-11.888c8.811-2.34,17.922-4.76,24.635-11.993s7.531-15.512,8.318-23.531c.488-4.965.993-10.1,2.916-14.918m-.018-11.983.025-.028v-.534l-.169.184c-6.591,7.232-7.4,15.484-8.186,23.466s-1.6,16.26-8.272,23.453-15.8,9.621-24.62,11.964c-8.868,2.356-18.037,4.791-24.79,12.068s-7.577,15.607-8.369,23.664c-.786,7.994-1.6,16.262-8.275,23.454s-15.8,9.622-24.619,11.965c-8.866,2.355-18.034,4.789-24.79,12.067s-7.579,15.611-8.369,23.666c-.75,7.646-1.526,15.554-7.439,22.514l-.136.16h.474l.029-.035c5.9-7.014,6.678-14.938,7.431-22.6.785-7.994,1.6-16.261,8.274-23.455s15.8-9.62,24.618-11.964c8.868-2.355,18.037-4.791,24.793-12.067s7.577-15.61,8.369-23.671c.786-7.993,1.6-16.257,8.273-23.448s15.8-9.622,24.619-11.964c8.867-2.356,18.036-4.791,24.791-12.069s7.577-15.61,8.368-23.663c.773-7.873,1.571-16.013,7.972-23.124m-.016-8.406.041-.029v-.439l-.152.106a29.854,29.854,0,0,0-4.882,4.232c-6.8,7.329-7.625,15.709-8.419,23.813-.791,8.045-1.607,16.364-8.327,23.6s-15.9,9.683-24.775,12.039c-8.922,2.371-18.147,4.822-24.945,12.143s-7.628,15.711-8.42,23.814c-.79,8.045-1.609,16.363-8.327,23.6s-15.9,9.683-24.777,12.04c-8.923,2.371-18.148,4.822-24.944,12.142s-7.625,15.71-8.419,23.813c-.79,8.045-1.607,16.364-8.327,23.6-.58.626-1.2,1.239-1.847,1.821l-.187.169h.538l.027-.025c.6-.546,1.181-1.124,1.734-1.719,6.8-7.324,7.622-15.7,8.419-23.812.79-8.045,1.607-16.365,8.327-23.6s15.9-9.681,24.773-12.038c8.922-2.369,18.148-4.82,24.948-12.144s7.625-15.708,8.419-23.812c.79-8.045,1.607-16.364,8.327-23.6s15.9-9.682,24.776-12.039c8.923-2.37,18.147-4.822,24.945-12.143s7.625-15.709,8.42-23.813c.79-8.045,1.607-16.364,8.327-23.6a29.429,29.429,0,0,1,4.728-4.115m-.014-6.933.055-.026v-.4l-.139.067a32.357,32.357,0,0,0-9.97,7.182c-6.843,7.374-7.671,15.806-8.472,23.962-.8,8.094-1.617,16.464-8.38,23.75s-16,9.744-24.929,12.115c-8.978,2.384-18.261,4.85-25.1,12.218s-7.674,15.807-8.474,23.961c-.794,8.1-1.617,16.467-8.379,23.751s-16,9.744-24.93,12.115c-8.978,2.385-18.261,4.852-25.1,12.219s-7.672,15.806-8.472,23.96c-.794,8.1-1.617,16.466-8.378,23.75a29.944,29.944,0,0,1-5.431,4.6l-.267.178h.652l.025-.017a30.119,30.119,0,0,0,5.285-4.516c6.846-7.374,7.673-15.806,8.474-23.961.8-8.1,1.617-16.467,8.379-23.75s16-9.744,24.934-12.117c8.977-2.385,18.259-4.852,25.1-12.218s7.673-15.806,8.473-23.96c.8-8.1,1.618-16.467,8.38-23.752s16-9.742,24.933-12.115c8.977-2.384,18.26-4.85,25.1-12.217s7.673-15.807,8.473-23.962c.8-8.1,1.617-16.467,8.379-23.751a31.964,31.964,0,0,1,9.789-7.066m-.009-6.117.064-.024v-.383l-.129.046c-6.547,2.315-11.34,5.27-15.082,9.3-6.884,7.415-7.718,15.9-8.526,24.107-.8,8.146-1.624,16.568-8.432,23.9s-16.1,9.8-25.085,12.191c-9.032,2.4-18.372,4.879-25.256,12.294s-7.718,15.9-8.525,24.11c-.8,8.145-1.625,16.567-8.431,23.9s-16.1,9.8-25.086,12.19c-9.033,2.4-18.375,4.881-25.257,12.3s-7.72,15.9-8.525,24.108c-.8,8.147-1.629,16.571-8.431,23.9a32.61,32.61,0,0,1-10.468,7.4l-.4.184h.858l.019-.009a32.673,32.673,0,0,0,10.254-7.333c6.885-7.418,7.72-15.9,8.527-24.108.8-8.145,1.625-16.568,8.431-23.9s16.1-9.8,25.089-12.192c9.033-2.4,18.373-4.881,25.253-12.294s7.721-15.9,8.525-24.108c.8-8.146,1.626-16.569,8.431-23.9s16.1-9.8,25.083-12.189c9.034-2.4,18.375-4.881,25.258-12.3s7.72-15.9,8.527-24.108c.8-8.146,1.626-16.568,8.431-23.9,3.69-3.975,8.419-6.893,14.883-9.185m-.006-5.675.071-.02v-.375l-.123.036c-7.119,2.044-14.5,4.787-20.219,10.951-6.928,7.463-7.766,16-8.578,24.258-.805,8.2-1.638,16.673-8.482,24.045s-16.2,9.866-25.241,12.268c-9.088,2.414-18.486,4.911-25.412,12.37s-7.767,16-8.578,24.258c-.805,8.2-1.637,16.673-8.484,24.046s-16.2,9.865-25.24,12.266c-9.088,2.414-18.485,4.909-25.412,12.37s-7.766,16-8.578,24.259c-.805,8.195-1.637,16.67-8.484,24.046-5.366,5.779-12.087,8.413-17.954,10.227l-.612.189h1.216l.015,0c5.373-1.7,12.231-4.383,17.6-10.166,6.928-7.461,7.766-16,8.578-24.257.805-8.2,1.637-16.671,8.486-24.047s16.2-9.866,25.239-12.266c9.089-2.415,18.488-4.912,25.412-12.37s7.768-16,8.579-24.257c.8-8.2,1.636-16.671,8.484-24.046s16.2-9.866,25.241-12.267c9.088-2.415,18.486-4.913,25.409-12.37s7.768-16,8.579-24.258c.805-8.2,1.637-16.671,8.484-24.045,5.657-6.094,12.959-8.81,20.007-10.838m0-5.483.072-.019v-.374l-.122.032c-9.053,2.405-18.413,4.891-25.38,12.4s-7.814,16.1-8.63,24.411c-.811,8.245-1.649,16.77-8.537,24.189s-16.3,9.925-25.395,12.341c-9.145,2.429-18.6,4.942-25.568,12.446s-7.814,16.093-8.631,24.405c-.81,8.248-1.647,16.775-8.535,24.194s-16.3,9.925-25.4,12.342c-9.144,2.429-18.6,4.941-25.568,12.446s-7.814,16.1-8.63,24.413c-.811,8.245-1.65,16.77-8.534,24.188s-16.3,9.925-25.4,12.341c-.914.243-1.828.486-2.74.734l-.7.191h1.381l.012,0c.713-.191,1.426-.382,2.144-.573,9.143-2.429,18.6-4.94,25.564-12.445s7.814-16.1,8.63-24.4c.81-8.247,1.647-16.774,8.537-24.2s16.3-9.925,25.395-12.342c9.144-2.429,18.6-4.941,25.568-12.445s7.814-16.1,8.63-24.405c.81-8.246,1.647-16.774,8.537-24.2s16.3-9.925,25.4-12.342c9.144-2.429,18.6-4.94,25.566-12.443s7.814-16.1,8.63-24.406c.81-8.247,1.647-16.774,8.538-24.2s16.181-9.894,25.165-12.28m0-5.5.071-.02v-.375l-.123.035c-1.532.435-3.1.852-4.618,1.256l-.227.06c-9.2,2.443-18.713,4.971-25.722,12.521s-7.863,16.2-8.683,24.554c-.815,8.3-1.658,16.878-8.589,24.343s-16.4,9.987-25.55,12.417c-9.2,2.444-18.714,4.97-25.723,12.521s-7.861,16.193-8.683,24.554c-.814,8.3-1.655,16.877-8.587,24.344s-16.4,9.985-25.55,12.418c-9.2,2.443-18.715,4.97-25.724,12.521s-7.863,16.2-8.682,24.555c-.816,8.3-1.658,16.877-8.589,24.342s-16.4,9.987-25.564,12.421a119.9,119.9,0,0,0-11.664,3.528l-.5.188h1.025l.015-.006c3.634-1.347,7.491-2.372,11.223-3.363,9.2-2.444,18.716-4.972,25.725-12.522s7.862-16.2,8.682-24.555c.815-8.3,1.658-16.876,8.588-24.341s16.4-9.985,25.555-12.418c9.2-2.444,18.712-4.972,25.721-12.52s7.862-16.2,8.681-24.553c.814-8.3,1.656-16.877,8.589-24.345s16.4-9.987,25.551-12.417c9.2-2.443,18.711-4.969,25.723-12.521s7.862-16.2,8.682-24.553c.814-8.3,1.656-16.877,8.587-24.343s16.4-9.987,25.551-12.418l.06-.016c1.558-.414,3.17-.842,4.745-1.289m.005-5.728.065-.022v-.382l-.129.044c-3.223,1.112-6.61,2.012-9.9,2.886-9.257,2.46-18.829,5-25.88,12.6s-7.91,16.295-8.734,24.7c-.821,8.348-1.668,16.98-8.641,24.49s-16.5,10.049-25.708,12.494c-9.256,2.459-18.826,5-25.878,12.6s-7.908,16.295-8.734,24.7c-.82,8.349-1.668,16.981-8.641,24.492s-16.5,10.047-25.707,12.493c-9.255,2.459-18.826,5-25.877,12.6s-7.908,16.293-8.734,24.7c-.82,8.348-1.668,16.981-8.641,24.493s-16.5,10.048-25.706,12.493c-6.063,1.61-12.332,3.276-17.845,6.352l-.325.182h.745l.022-.012c5.407-2.962,11.553-4.594,17.5-6.174,9.255-2.458,18.826-5,25.874-12.6s7.91-16.294,8.735-24.7c.819-8.347,1.665-16.978,8.64-24.492s16.5-10.048,25.708-12.493c9.257-2.459,18.827-5,25.878-12.6s7.91-16.295,8.735-24.7c.821-8.347,1.668-16.98,8.641-24.49s16.5-10.047,25.705-12.493c9.257-2.459,18.828-5,25.879-12.6s7.91-16.3,8.734-24.7c.82-8.348,1.668-16.98,8.641-24.492s16.5-10.048,25.72-12.5c3.264-.867,6.64-1.764,9.859-2.871m.009-6.19.057-.026v-.4l-.137.064a93.23,93.23,0,0,1-14.986,4.9c-9.311,2.474-18.94,5.033-26.033,12.673s-7.957,16.391-8.787,24.849c-.825,8.4-1.677,17.082-8.693,24.639s-16.6,10.108-25.863,12.569c-9.312,2.474-18.939,5.032-26.032,12.672s-7.956,16.391-8.787,24.85c-.825,8.4-1.677,17.081-8.692,24.64s-16.6,10.108-25.863,12.568c-9.312,2.474-18.941,5.033-26.033,12.673s-7.959,16.391-8.789,24.85c-.825,8.4-1.677,17.083-8.693,24.639s-16.6,10.109-25.861,12.569c-7.728,2.053-15.719,4.176-22.224,9.2l-.225.174h.592l.026-.02c6.42-4.883,14.3-6.976,21.923-9,9.312-2.474,18.939-5.032,26.034-12.673s7.957-16.391,8.787-24.85c.824-8.4,1.677-17.082,8.693-24.64s16.6-10.109,25.871-12.57c9.309-2.474,18.934-5.031,26.025-12.67s7.958-16.392,8.788-24.851c.825-8.4,1.677-17.083,8.693-24.638s16.6-10.11,25.861-12.57c9.312-2.474,18.94-5.032,26.034-12.672s7.955-16.387,8.787-24.85c.825-8.4,1.677-17.084,8.693-24.64s16.6-10.108,25.861-12.568a94.146,94.146,0,0,0,14.973-4.887m.013-6.977.043-.028v-.432l-.15.1c-6.05,3.947-13.19,5.842-20.095,7.675-9.367,2.488-19.053,5.062-26.19,12.749s-8,16.484-8.84,25c-.829,8.448-1.686,17.184-8.744,24.788s-16.7,10.169-26.019,12.644c-9.367,2.488-19.053,5.061-26.187,12.746s-8.007,16.492-8.841,25.006c-.83,8.447-1.689,17.182-8.744,24.781s-16.7,10.17-26.019,12.644c-9.367,2.488-19.053,5.061-26.19,12.748s-8,16.49-8.838,25c-.831,8.449-1.689,17.187-8.744,24.787s-16.7,10.17-26.019,12.645c-9.082,2.412-18.474,4.908-25.534,12.063l-.163.165h.508l.028-.029c6.978-7,16.268-9.464,25.254-11.85,9.367-2.489,19.055-5.063,26.19-12.748s8-16.489,8.838-25c.831-8.45,1.689-17.187,8.746-24.789s16.7-10.169,26.017-12.643c9.367-2.488,19.054-5.06,26.191-12.748s8-16.485,8.838-25c.83-8.448,1.686-17.185,8.744-24.789s16.7-10.168,26.016-12.642c9.367-2.488,19.054-5.061,26.191-12.749s8-16.491,8.839-25c.83-8.447,1.689-17.18,8.745-24.781s16.7-10.17,26.017-12.645c6.9-1.834,14.038-3.728,20.109-7.662m.014-8.287.029-.029v-.508l-.165.163c-6.995,6.907-16.266,9.371-25.231,11.753-9.422,2.5-19.166,5.091-26.346,12.824s-8.052,16.588-8.892,25.146c-.835,8.5-1.7,17.288-8.8,24.936s-16.8,10.229-26.175,12.72c-9.422,2.5-19.164,5.091-26.342,12.822s-8.051,16.587-8.892,25.147c-.833,8.5-1.695,17.285-8.8,24.935s-16.8,10.231-26.175,12.721c-9.422,2.5-19.165,5.091-26.342,12.824s-8.052,16.587-8.893,25.153c-.835,8.5-1.7,17.283-8.8,24.929s-16.8,10.23-26.176,12.72c-9.421,2.5-19.163,5.092-26.341,12.824-.635.682-1.241,1.4-1.8,2.128l-.119.156h.454l.029-.037c.53-.682,1.1-1.355,1.7-2,7.107-7.656,16.8-10.23,26.173-12.72,9.422-2.5,19.166-5.091,26.343-12.824s8.052-16.587,8.892-25.146c.836-8.5,1.7-17.289,8.8-24.936s16.8-10.231,26.173-12.72c9.424-2.5,19.168-5.092,26.345-12.824s8.05-16.582,8.891-25.146c.835-8.5,1.7-17.289,8.8-24.935s16.8-10.23,26.173-12.72c9.422-2.5,19.167-5.091,26.344-12.822s8.052-16.589,8.892-25.148c.835-8.5,1.7-17.287,8.8-24.935s16.8-10.23,26.174-12.721c8.961-2.381,18.227-4.842,25.275-11.727m.016-10.8.013-.022v-.737l-.181.325a28.678,28.678,0,0,1-4.072,5.571c-7.149,7.7-16.9,10.289-26.328,12.794-9.477,2.518-19.278,5.122-26.5,12.9s-8.1,16.681-8.944,25.295c-.839,8.551-1.707,17.391-8.849,25.085s-16.9,10.291-26.334,12.8c-9.478,2.519-19.277,5.122-26.5,12.9s-8.1,16.685-8.944,25.295c-.839,8.549-1.707,17.39-8.849,25.083s-16.9,10.291-26.332,12.8c-9.478,2.518-19.277,5.122-26.5,12.9s-8.1,16.685-8.944,25.294c-.839,8.55-1.707,17.39-8.849,25.085s-16.9,10.291-26.329,12.8c-9.478,2.519-19.28,5.122-26.5,12.9a29.533,29.533,0,0,0-3.733,4.963l-.088.147h.42l.028-.047a29.233,29.233,0,0,1,3.637-4.818c7.149-7.7,16.9-10.29,26.329-12.8,9.479-2.519,19.28-5.124,26.5-12.9s8.1-16.684,8.944-25.293c.839-8.55,1.707-17.39,8.851-25.085s16.9-10.29,26.333-12.8c9.477-2.519,19.277-5.123,26.494-12.9s8.1-16.682,8.945-25.294c.838-8.548,1.706-17.388,8.85-25.083s16.9-10.29,26.328-12.8c9.479-2.519,19.28-5.122,26.5-12.9s8.1-16.684,8.944-25.294c.839-8.551,1.707-17.39,8.851-25.085s16.9-10.29,26.327-12.8c9.478-2.518,19.278-5.122,26.5-12.9a29.415,29.415,0,0,0,3.976-5.381m-.037-24.4.05-.527v-1.672l-.193-.01q-.109,1.06-.212,2.122l0,.053c-.845,8.6-1.72,17.493-8.9,25.231s-17,10.352-26.483,12.872c-9.535,2.533-19.4,5.152-26.656,12.974s-8.145,16.783-9,25.446c-.845,8.6-1.719,17.491-8.9,25.228s-17,10.352-26.489,12.873c-9.533,2.533-19.389,5.153-26.649,12.973s-8.145,16.782-9,25.441c-.845,8.6-1.72,17.493-8.9,25.234s-17,10.351-26.486,12.872c-9.533,2.533-19.392,5.152-26.652,12.973s-8.145,16.779-9,25.442c-.844,8.6-1.717,17.493-8.9,25.233s-17,10.352-26.485,12.872c-9.534,2.533-19.393,5.153-26.654,12.973a29.086,29.086,0,0,0-5.235,7.821l-.063.137h.4l.026-.057a28.7,28.7,0,0,1,5.139-7.656c7.191-7.746,17-10.352,26.487-12.872,9.533-2.533,19.39-5.152,26.652-12.975s8.146-16.782,9-25.449c.845-8.6,1.719-17.489,8.9-25.225s17-10.352,26.485-12.871c9.534-2.533,19.392-5.152,26.654-12.974s8.146-16.784,9-25.444c.845-8.6,1.719-17.493,8.9-25.231s17-10.351,26.482-12.871c9.535-2.533,19.393-5.151,26.656-12.976s8.146-16.782,9-25.443c.845-8.6,1.719-17.493,8.9-25.231s17-10.352,26.486-12.872c9.533-2.533,19.391-5.152,26.652-12.973s8.146-16.783,9-25.443m.037-24.679.013-.022v-.708l-.18.3c-3.889,6.527-4.589,13.657-5.268,20.561-.849,8.649-1.726,17.593-8.954,25.378s-17.1,10.412-26.639,12.947c-9.59,2.548-19.506,5.182-26.811,13.051s-8.194,16.881-9.049,25.592c-.85,8.651-1.729,17.6-8.955,25.38s-17.1,10.412-26.639,12.946c-9.59,2.548-19.507,5.182-26.811,13.05s-8.193,16.881-9.048,25.592c-.85,8.649-1.729,17.593-8.955,25.379s-17.1,10.412-26.638,12.946c-9.59,2.548-19.507,5.183-26.811,13.051s-8.195,16.88-9.05,25.591c-.849,8.649-1.727,17.593-8.955,25.379s-17.1,10.412-26.638,12.947c-9.591,2.549-19.507,5.183-26.811,13.05a29.544,29.544,0,0,0-6.393,10.7l-.044.129h.383l.022-.065a29.166,29.166,0,0,1,6.3-10.517c7.236-7.792,17.1-10.412,26.639-12.945,9.591-2.548,19.507-5.183,26.811-13.051s8.193-16.88,9.048-25.592c.85-8.65,1.729-17.594,8.955-25.38s17.1-10.412,26.639-12.947c9.589-2.546,19.5-5.18,26.81-13.05s8.193-16.88,9.049-25.589c.849-8.651,1.728-17.6,8.955-25.382s17.1-10.413,26.639-12.947c9.591-2.547,19.507-5.182,26.811-13.05s8.193-16.877,9.049-25.59c.848-8.65,1.725-17.593,8.953-25.38s17.1-10.414,26.639-12.947c9.589-2.548,19.505-5.182,26.811-13.051s8.193-16.878,9.049-25.59c.664-6.767,1.351-13.767,5.076-20.166m-.016-11.044.029-.029v-.5l-.164.158c-.436.42-.857.849-1.251,1.274-7.352,7.921-8.242,16.979-9.1,25.74-.855,8.7-1.737,17.7-9.006,25.527s-17.2,10.474-26.8,13.023c-9.645,2.562-19.617,5.211-26.965,13.125s-8.242,16.978-9.1,25.74c-.855,8.7-1.738,17.7-9.006,25.528s-17.2,10.473-26.8,13.023c-9.644,2.563-19.618,5.211-26.964,13.125s-8.242,16.977-9.1,25.738c-.854,8.7-1.737,17.7-9.006,25.529s-17.194,10.472-26.8,13.023c-9.644,2.561-19.618,5.209-26.966,13.124s-8.239,16.977-9.1,25.747c-.855,8.7-1.74,17.694-9.006,25.522s-17.2,10.473-26.8,13.023c-9.646,2.563-19.619,5.212-26.966,13.126a30.211,30.211,0,0,0-7.277,13.6l-.031.121h.372l.019-.073a29.856,29.856,0,0,1,7.181-13.4c7.276-7.837,17.2-10.473,26.794-13.023,9.645-2.561,19.618-5.211,26.966-13.125s8.241-16.978,9.1-25.746c.856-8.7,1.741-17.695,9.007-25.522s17.2-10.473,26.793-13.022c9.646-2.562,19.618-5.21,26.967-13.125s8.242-16.979,9.1-25.74c.855-8.7,1.737-17.7,9.006-25.53s17.2-10.47,26.793-13.02c9.646-2.562,19.619-5.211,26.966-13.127s8.242-16.978,9.1-25.738c.855-8.7,1.738-17.7,9.009-25.53s17.2-10.473,26.792-13.022c9.645-2.562,19.619-5.212,26.966-13.126s8.241-16.977,9.1-25.738c.854-8.7,1.737-17.7,9.006-25.53.356-.383.734-.77,1.122-1.148m-.014-8.718.043-.029v-.431l-.15.1a32.829,32.829,0,0,0-6.315,5.279c-7.394,7.965-8.289,17.076-9.153,25.887-.861,8.752-1.75,17.8-9.06,25.676s-17.3,10.535-26.949,13.1c-9.7,2.577-19.732,5.242-27.122,13.2s-8.287,17.073-9.154,25.888c-.859,8.751-1.747,17.8-9.059,25.676s-17.3,10.535-26.949,13.1c-9.7,2.577-19.731,5.242-27.121,13.2s-8.289,17.076-9.154,25.893c-.859,8.749-1.749,17.8-9.058,25.67s-17.3,10.535-26.952,13.1c-9.7,2.577-19.731,5.241-27.12,13.2s-8.288,17.077-9.154,25.888c-.86,8.752-1.749,17.8-9.059,25.677s-17.3,10.535-26.951,13.1c-9.7,2.577-19.732,5.243-27.12,13.2-4.185,4.506-6.637,9.6-7.95,16.52l-.022.115h.368l.015-.079c1.3-6.834,3.726-11.864,7.853-16.312,7.319-7.882,17.3-10.533,26.95-13.1,9.7-2.577,19.732-5.243,27.121-13.2s8.289-17.076,9.154-25.887c.859-8.751,1.747-17.8,9.059-25.678s17.3-10.534,26.951-13.1c9.7-2.578,19.731-5.242,27.121-13.2s8.288-17.075,9.152-25.887c.86-8.752,1.75-17.8,9.059-25.678s17.3-10.532,26.952-13.1c9.7-2.577,19.731-5.242,27.119-13.2s8.288-17.072,9.154-25.888c.859-8.751,1.747-17.8,9.06-25.676s17.294-10.532,26.95-13.1c9.7-2.577,19.733-5.242,27.121-13.2s8.287-17.075,9.153-25.888c.859-8.751,1.75-17.8,9.058-25.674a32.377,32.377,0,0,1,6.158-5.162m-.012-7.527.056-.026v-.4l-.138.064a35.5,35.5,0,0,0-11.409,8.075c-7.436,8.009-8.336,17.173-9.206,26.036-.863,8.8-1.756,17.9-9.111,25.824s-17.4,10.6-27.106,13.173c-9.756,2.592-19.844,5.271-27.276,13.277s-8.336,17.173-9.206,26.036c-.863,8.8-1.755,17.9-9.11,25.825S-253.991-378-263.7-375.417c-9.756,2.592-19.845,5.271-27.276,13.276s-8.336,17.173-9.206,26.036c-.863,8.8-1.756,17.9-9.111,25.824s-17.4,10.594-27.106,13.174c-9.756,2.591-19.846,5.271-27.278,13.276s-8.334,17.173-9.2,26.034c-.864,8.8-1.757,17.9-9.112,25.826s-17.4,10.6-27.108,13.174c-9.756,2.593-19.843,5.273-27.272,13.276-5.926,6.383-7.6,13.421-8.465,19.464l-.016.111h.365l.012-.084c.853-5.979,2.515-12.941,8.368-19.246,7.36-7.928,17.4-10.594,27.1-13.172,9.757-2.592,19.846-5.273,27.277-13.277s8.337-17.174,9.206-26.036c.865-8.8,1.759-17.906,9.111-25.825s17.4-10.595,27.106-13.173c9.757-2.592,19.846-5.272,27.278-13.278s8.334-17.169,9.205-26.035c.864-8.8,1.758-17.9,9.112-25.825s17.4-10.595,27.1-13.172c9.757-2.592,19.845-5.271,27.278-13.277s8.334-17.173,9.206-26.035c.864-8.8,1.758-17.9,9.112-25.826s17.4-10.594,27.1-13.172c9.756-2.591,19.844-5.27,27.278-13.278s8.334-17.168,9.2-26.034c.865-8.8,1.758-17.906,9.112-25.825a35.124,35.124,0,0,1,11.226-7.96m-.009-6.83.064-.023v-.382l-.129.045c-7.192,2.525-12.446,5.75-16.533,10.153-7.476,8.053-8.382,17.267-9.259,26.184-.869,8.853-1.768,18.007-9.163,25.972s-17.5,10.656-27.261,13.249c-9.812,2.607-19.959,5.3-27.431,13.352s-8.384,17.272-9.259,26.184c-.869,8.851-1.768,18-9.164,25.972s-17.5,10.656-27.26,13.248c-9.812,2.607-19.959,5.3-27.432,13.353s-8.383,17.27-9.257,26.182c-.869,8.852-1.768,18.006-9.164,25.973s-17.5,10.658-27.261,13.249c-9.813,2.608-19.959,5.3-27.431,13.353s-8.384,17.271-9.26,26.183c-.869,8.853-1.768,18.006-9.164,25.974s-17.494,10.655-27.262,13.25c-9.811,2.607-19.957,5.3-27.43,13.351-6.667,7.182-8.075,15.343-8.871,22.427l-.012.108h.363l.009-.086c.79-7.021,2.186-15.106,8.775-22.2,7.4-7.973,17.5-10.655,27.259-13.248,9.812-2.606,19.959-5.3,27.432-13.353s8.383-17.27,9.259-26.184c.87-8.854,1.771-18.008,9.165-25.974s17.5-10.655,27.259-13.248c9.812-2.608,19.959-5.3,27.432-13.354s8.384-17.271,9.259-26.183c.87-8.853,1.768-18.007,9.164-25.973s17.5-10.656,27.259-13.248c9.812-2.607,19.959-5.3,27.433-13.353s8.382-17.27,9.257-26.182c.869-8.853,1.768-18.006,9.164-25.974s17.5-10.655,27.26-13.248c9.813-2.607,19.961-5.3,27.433-13.354s8.383-17.27,9.257-26.181c.869-8.853,1.768-18.007,9.165-25.975,4.034-4.346,9.224-7.536,16.332-10.037m-.005-6.435.07-.02v-.377l-.124.036c-7.611,2.2-15.507,5.157-21.684,11.812-7.519,8.1-8.43,17.364-9.311,26.332-.873,8.9-1.775,18.106-9.216,26.12s-17.6,10.717-27.417,13.325c-9.866,2.62-20.068,5.329-27.586,13.427s-8.431,17.371-9.311,26.333c-.874,8.9-1.777,18.108-9.215,26.121s-17.6,10.717-27.417,13.324c-9.867,2.622-20.071,5.332-27.587,13.427s-8.431,17.37-9.311,26.332c-.874,8.9-1.777,18.107-9.216,26.122s-17.6,10.717-27.416,13.324c-9.867,2.622-20.072,5.333-27.587,13.428s-8.431,17.369-9.309,26.332c-.875,8.9-1.779,18.11-9.217,26.122s-17.6,10.717-27.416,13.324c-9.867,2.622-20.071,5.332-27.586,13.428s-8.417,17.29-9.222,25.414l-.011.107h.362l.009-.087c.8-8.06,1.7-17.2,9.125-25.189,7.445-8.02,17.6-10.717,27.417-13.326,9.868-2.621,20.072-5.332,27.586-13.427s8.431-17.369,9.311-26.332c.874-8.9,1.778-18.109,9.216-26.121s17.6-10.717,27.417-13.326c9.867-2.621,20.069-5.331,27.585-13.427s8.431-17.369,9.31-26.331c.874-8.9,1.777-18.109,9.217-26.122s17.6-10.716,27.413-13.323c9.869-2.622,20.074-5.332,27.59-13.428s8.428-17.365,9.309-26.332c.874-8.9,1.777-18.109,9.217-26.122s17.594-10.716,27.413-13.324c9.868-2.621,20.071-5.33,27.589-13.428s8.431-17.369,9.311-26.331c.874-8.9,1.777-18.11,9.215-26.122,6.11-6.582,13.933-9.512,21.476-11.7m0-6.256.072-.019v-.374l-.122.032c-9.057,2.411-19.321,5.143-26.868,13.271-7.563,8.145-8.479,17.466-9.364,26.479-.88,8.954-1.789,18.214-9.268,26.27s-17.7,10.777-27.575,13.4c-9.922,2.636-20.182,5.362-27.739,13.5s-8.476,17.466-9.362,26.48c-.88,8.954-1.789,18.213-9.267,26.269s-17.7,10.777-27.574,13.4c-9.924,2.636-20.185,5.363-27.741,13.5s-8.478,17.466-9.362,26.479c-.88,8.954-1.789,18.213-9.27,26.27s-17.7,10.777-27.575,13.4c-9.922,2.637-20.182,5.363-27.738,13.5s-8.479,17.466-9.364,26.48c-.879,8.954-1.789,18.213-9.267,26.27s-17.7,10.777-27.572,13.4c-9.923,2.636-20.185,5.363-27.742,13.5s-8.478,17.466-9.364,26.48q-.1.972-.194,1.944l-.011.107h.362l.009-.087q.1-.964.192-1.928c.88-8.954,1.789-18.213,9.269-26.27s17.7-10.776,27.571-13.4c9.922-2.637,20.183-5.362,27.742-13.5s8.478-17.466,9.364-26.479c.879-8.954,1.789-18.213,9.268-26.27s17.7-10.778,27.572-13.4c9.924-2.637,20.185-5.363,27.743-13.5s8.478-17.467,9.362-26.48c.88-8.954,1.789-18.213,9.268-26.268s17.7-10.778,27.572-13.4c9.924-2.636,20.186-5.361,27.744-13.5s8.476-17.466,9.362-26.48c.88-8.954,1.789-18.213,9.268-26.269s17.7-10.778,27.575-13.4c9.922-2.636,20.182-5.362,27.737-13.5s8.478-17.466,9.364-26.481c.88-8.954,1.789-18.212,9.27-26.268S-143.092-543.6-134.1-546m0-6.259.071-.02v-.375l-.122.034c-1.363.378-2.756.748-4.1,1.107l-.083.022c-9.979,2.651-20.3,5.392-27.9,13.577s-8.525,17.565-9.415,26.629c-.883,9-1.8,18.314-9.319,26.417s-17.8,10.838-27.728,13.476c-9.977,2.65-20.295,5.39-27.9,13.579s-8.526,17.563-9.416,26.628c-.884,9-1.8,18.316-9.319,26.418s-17.8,10.837-27.73,13.475c-9.978,2.651-20.3,5.392-27.9,13.578s-8.525,17.565-9.415,26.628c-.884,9-1.8,18.314-9.319,26.418s-17.8,10.837-27.73,13.476c-9.978,2.651-20.3,5.392-27.9,13.578s-8.524,17.561-9.415,26.627c-.884,9-1.8,18.314-9.32,26.418s-17.8,10.838-27.727,13.476c-9.979,2.651-20.3,5.392-27.9,13.579s-8.524,17.563-9.415,26.627c-.138,1.407-.31,3.158-.512,4.828l-.013.108h.363l.01-.085c.186-1.545.341-3.1.51-4.815.885-9,1.8-18.315,9.32-26.417s17.8-10.839,27.727-13.477c9.978-2.65,20.3-5.39,27.9-13.578s8.524-17.562,9.416-26.628c.883-9,1.8-18.313,9.32-26.418s17.8-10.838,27.726-13.475c9.98-2.651,20.3-5.393,27.9-13.58s8.525-17.562,9.415-26.626c.884-9,1.8-18.315,9.321-26.418s17.8-10.838,27.727-13.475c9.978-2.65,20.3-5.39,27.9-13.579s8.525-17.564,9.415-26.627c.884-9,1.8-18.314,9.321-26.418s17.8-10.838,27.727-13.475c9.979-2.652,20.3-5.393,27.9-13.58s8.524-17.563,9.415-26.628c.884-9,1.8-18.315,9.321-26.418s17.8-10.837,27.727-13.474c1.28-.34,2.732-.726,4.143-1.116m0-6.437.067-.022v-.38l-.126.041c-3.049.987-6.213,1.828-9.278,2.642-10.034,2.666-20.41,5.422-28.05,13.653s-8.572,17.658-9.468,26.776c-.889,9.055-1.809,18.418-9.372,26.566s-17.9,10.9-27.882,13.551c-10.035,2.666-20.412,5.423-28.053,13.655s-8.572,17.658-9.468,26.776c-.888,9.054-1.807,18.416-9.373,26.566s-17.9,10.9-27.885,13.551c-10.033,2.667-20.408,5.422-28.049,13.654S-329.609-364-330.5-354.887c-.89,9.055-1.81,18.418-9.374,26.566s-17.9,10.9-27.881,13.552c-10.034,2.665-20.41,5.421-28.054,13.653s-8.572,17.662-9.467,26.776c-.889,9.055-1.808,18.418-9.374,26.568s-17.9,10.9-27.881,13.55c-10.035,2.665-20.412,5.421-28.054,13.655s-8.572,17.662-9.467,26.776c-.249,2.534-.506,5.155-.91,7.732l-.017.112h.365l.012-.082c.4-2.573.659-5.194.909-7.728.889-9.055,1.809-18.419,9.373-26.566s17.9-10.9,27.882-13.551c10.035-2.665,20.41-5.421,28.053-13.654s8.574-17.663,9.468-26.777c.89-9.054,1.809-18.416,9.373-26.566s17.894-10.9,27.882-13.55c10.034-2.666,20.41-5.421,28.054-13.654s8.572-17.662,9.467-26.776c.89-9.055,1.81-18.419,9.374-26.566s17.9-10.9,27.881-13.551c10.034-2.665,20.41-5.421,28.053-13.655s8.575-17.662,9.469-26.782c.89-9.053,1.809-18.413,9.372-26.559s17.9-10.9,27.882-13.552c10.035-2.666,20.41-5.421,28.053-13.654s8.574-17.663,9.468-26.777c.889-9.054,1.807-18.416,9.373-26.566s17.9-10.9,27.882-13.55c3.049-.809,6.2-1.646,9.242-2.629m.008-6.812.06-.025v-.391l-.134.055a114.929,114.929,0,0,1-14.4,4.5c-10.09,2.681-20.523,5.452-28.21,13.731s-8.62,17.76-9.519,26.924c-.9,9.1-1.82,18.52-9.426,26.713s-18,10.961-28.037,13.627c-10.09,2.681-20.524,5.453-28.209,13.73s-8.619,17.755-9.52,26.924c-.894,9.1-1.819,18.519-9.424,26.714s-17.994,10.958-28.04,13.627c-10.089,2.681-20.522,5.451-28.207,13.729s-8.621,17.761-9.519,26.928c-.894,9.1-1.82,18.518-9.426,26.711s-18,10.96-28.038,13.627c-10.09,2.681-20.524,5.452-28.209,13.73s-8.62,17.759-9.52,26.924c-.893,9.1-1.818,18.52-9.426,26.714s-18,10.959-28.036,13.627c-10.09,2.68-20.524,5.452-28.209,13.73s-8.62,17.76-9.522,26.937a99.588,99.588,0,0,1-1.437,10.65l-.025.117h.368l.016-.077a100.284,100.284,0,0,0,1.438-10.668c.894-9.1,1.82-18.52,9.425-26.713s18-10.961,28.038-13.627c10.09-2.681,20.523-5.452,28.208-13.73s8.62-17.76,9.521-26.925c.894-9.1,1.819-18.519,9.425-26.714s18-10.959,28.038-13.627c10.09-2.68,20.525-5.452,28.209-13.73s8.621-17.76,9.519-26.924c.894-9.106,1.819-18.52,9.427-26.714s17.995-10.959,28.035-13.626c10.091-2.681,20.527-5.452,28.21-13.731s8.619-17.759,9.519-26.924c.894-9.1,1.82-18.52,9.426-26.714s18-10.958,28.036-13.626c10.09-2.681,20.524-5.453,28.21-13.731s8.619-17.759,9.52-26.925c.894-9.1,1.819-18.519,9.425-26.712s18-10.96,28.054-13.632A116.184,116.184,0,0,0-134.09-565.5m.01-7.438.05-.028v-.415l-.144.081c-6.021,3.378-12.9,5.2-19.552,6.971-10.145,2.7-20.636,5.483-28.362,13.8s-8.668,17.858-9.572,27.073c-.9,9.156-1.828,18.623-9.477,26.862s-18.1,11.02-28.191,13.7c-10.145,2.7-20.637,5.481-28.365,13.807s-8.668,17.856-9.572,27.072c-.9,9.156-1.829,18.623-9.477,26.86s-18.1,11.022-28.2,13.7c-10.146,2.7-20.636,5.482-28.361,13.8s-8.668,17.856-9.573,27.073c-.9,9.154-1.828,18.62-9.478,26.86s-18.1,11.021-28.193,13.7c-10.145,2.694-20.637,5.482-28.364,13.806s-8.667,17.857-9.572,27.072c-.9,9.154-1.827,18.622-9.478,26.862s-18.1,11.02-28.194,13.7c-10.145,2.7-20.637,5.483-28.363,13.806s-8.668,17.856-9.573,27.07a78.43,78.43,0,0,1-2.152,13.617l-.034.123h.375l.02-.071a79.213,79.213,0,0,0,2.15-13.634c.9-9.154,1.827-18.62,9.477-26.861s18.1-11.02,28.193-13.7c10.145-2.7,20.636-5.482,28.364-13.806s8.668-17.858,9.574-27.075c.9-9.154,1.829-18.621,9.477-26.86s18.1-11.02,28.193-13.7c10.145-2.7,20.635-5.481,28.364-13.807s8.666-17.852,9.573-27.071c.9-9.156,1.828-18.622,9.478-26.862s18.095-11.02,28.195-13.7c10.145-2.7,20.636-5.483,28.363-13.806s8.666-17.857,9.57-27.073c.9-9.154,1.829-18.621,9.478-26.86s18.1-11.02,28.2-13.7c10.143-2.7,20.633-5.483,28.357-13.8s8.668-17.858,9.573-27.072c.9-9.154,1.828-18.621,9.478-26.862s18.1-11.02,28.192-13.7c6.646-1.765,13.518-3.59,19.552-6.957m.013-8.443.036-.029v-.463l-.157.126c-7.167,5.753-16.1,8.126-24.737,10.421-10.2,2.71-20.75,5.512-28.519,13.88s-8.715,17.956-9.625,27.224c-.9,9.2-1.84,18.723-9.53,27.007s-18.2,11.082-28.35,13.778c-10.2,2.71-20.749,5.512-28.518,13.88s-8.715,17.956-9.624,27.221c-.9,9.205-1.837,18.724-9.53,27.011s-18.2,11.08-28.348,13.777c-10.2,2.71-20.749,5.511-28.519,13.881s-8.714,17.95-9.626,27.22c-.9,9.205-1.837,18.724-9.53,27.01s-18.2,11.08-28.35,13.778c-10.2,2.711-20.749,5.513-28.518,13.881s-8.714,17.955-9.624,27.22c-.9,9.206-1.84,18.725-9.532,27.01s-18.2,11.083-28.348,13.78c-10.2,2.709-20.748,5.511-28.518,13.881s-8.715,17.956-9.625,27.222c-.541,5.51-1.1,11.209-3.108,16.591l-.049.131h.387l.023-.063c2-5.4,2.563-11.106,3.106-16.625.9-9.206,1.837-18.726,9.53-27.011s18.195-11.081,28.346-13.777c10.2-2.71,20.75-5.512,28.52-13.882s8.716-17.956,9.625-27.221c.9-9.2,1.837-18.723,9.53-27.01s18.2-11.081,28.348-13.778c10.2-2.71,20.747-5.511,28.518-13.881s8.717-17.955,9.626-27.227c.905-9.2,1.84-18.721,9.529-27s18.2-11.081,28.352-13.779c10.2-2.71,20.747-5.512,28.517-13.88s8.713-17.951,9.624-27.221c.9-9.206,1.837-18.724,9.53-27.01s18.194-11.08,28.352-13.779c10.2-2.71,20.747-5.512,28.515-13.881s8.716-17.954,9.626-27.22c.9-9.205,1.837-18.725,9.53-27.01s18.2-11.081,28.346-13.776c8.634-2.294,17.561-4.665,24.765-10.4m.015-10.112.022-.026v-.573l-.173.212c-.46.57-.949,1.135-1.453,1.675-7.742,8.339-18.3,11.142-28.5,13.854-10.256,2.726-20.862,5.543-28.675,13.957s-8.761,18.053-9.677,27.37c-.91,9.256-1.85,18.828-9.581,27.157s-18.3,11.142-28.505,13.854c-10.257,2.725-20.863,5.542-28.674,13.957s-8.762,18.052-9.677,27.368c-.91,9.257-1.849,18.829-9.583,27.159s-18.3,11.141-28.5,13.852c-10.258,2.725-20.864,5.542-28.675,13.957s-8.762,18.053-9.677,27.369c-.91,9.257-1.85,18.829-9.584,27.158s-18.3,11.142-28.505,13.854c-10.257,2.725-20.862,5.542-28.674,13.956s-8.761,18.053-9.676,27.369c-.908,9.256-1.848,18.828-9.582,27.159s-18.3,11.141-28.5,13.852c-10.257,2.725-20.863,5.542-28.676,13.958s-8.761,18.051-9.677,27.368c-.642,6.545-1.307,13.314-4.372,19.594l-.068.139h.4l.026-.054c3.06-6.31,3.727-13.089,4.371-19.645.909-9.256,1.848-18.829,9.582-27.158s18.295-11.142,28.5-13.854c10.257-2.725,20.863-5.542,28.675-13.957s8.763-18.055,9.677-27.372c.91-9.256,1.85-18.827,9.581-27.156s18.3-11.142,28.5-13.853c10.257-2.725,20.864-5.542,28.676-13.957s8.762-18.054,9.677-27.37c.91-9.256,1.85-18.829,9.584-27.158s18.294-11.142,28.5-13.854c10.256-2.725,20.862-5.542,28.673-13.956s8.762-18.053,9.677-27.369c.91-9.257,1.85-18.829,9.581-27.159s18.3-11.14,28.5-13.852c10.257-2.725,20.864-5.542,28.677-13.957s8.761-18.052,9.677-27.368c.91-9.257,1.85-18.829,9.583-27.159s18.3-11.142,28.5-13.853c10.257-2.725,20.862-5.542,28.675-13.957.466-.5.916-1.018,1.339-1.534m.016-13.991.006-1.059-.188.511a31.287,31.287,0,0,1-6.555,10.7c-7.782,8.384-18.395,11.2-28.659,13.93-10.311,2.739-20.975,5.57-28.831,14.033s-8.809,18.15-9.728,27.516c-.914,9.306-1.859,18.93-9.636,27.307s-18.4,11.2-28.66,13.929c-10.311,2.739-20.974,5.569-28.829,14.032s-8.809,18.151-9.729,27.518c-.914,9.306-1.859,18.928-9.635,27.306s-18.4,11.2-28.662,13.93c-10.312,2.739-20.974,5.573-28.827,14.031s-8.809,18.15-9.729,27.517c-.914,9.306-1.859,18.929-9.636,27.307s-18.4,11.2-28.659,13.929c-10.312,2.739-20.975,5.57-28.831,14.033s-8.809,18.149-9.729,27.517c-.914,9.307-1.859,18.931-9.635,27.306s-18.393,11.2-28.657,13.929c-10.313,2.739-20.978,5.571-28.832,14.033s-8.809,18.148-9.73,27.517c-.746,7.609-1.519,15.479-6.022,22.621l-.094.149h.428l.029-.046c4.5-7.184,5.271-15.066,6.019-22.689.914-9.307,1.858-18.93,9.636-27.306s18.395-11.2,28.659-13.93c10.312-2.739,20.974-5.571,28.83-14.032s8.81-18.151,9.729-27.517c.913-9.306,1.858-18.929,9.635-27.306s18.394-11.2,28.659-13.929c10.312-2.739,20.976-5.571,28.831-14.033s8.808-18.15,9.729-27.523c.915-9.3,1.861-18.926,9.636-27.3s18.395-11.2,28.66-13.93c10.312-2.739,20.974-5.573,28.829-14.033s8.809-18.151,9.728-27.522c.914-9.305,1.861-18.927,9.635-27.3s18.393-11.2,28.657-13.927c10.312-2.739,20.975-5.571,28.832-14.033s8.81-18.151,9.73-27.517c.914-9.307,1.858-18.931,9.634-27.306s18.395-11.2,28.663-13.93c10.311-2.74,20.973-5.573,28.825-14.033a31.551,31.551,0,0,0,6.473-10.4m-1.843-22.447a89.313,89.313,0,0,1,1.849-12.579v-1.432l-.191.726a84.746,84.746,0,0,0-2.018,13.28c-.921,9.357-1.871,19.034-9.688,27.454s-18.5,11.263-28.814,14c-10.369,2.755-21.091,5.6-28.987,14.108s-8.856,18.249-9.78,27.665c-.92,9.357-1.871,19.033-9.688,27.455s-18.5,11.265-28.818,14.006c-10.367,2.754-21.087,5.6-28.981,14.107s-8.856,18.248-9.78,27.67c-.92,9.356-1.87,19.03-9.687,27.449s-18.5,11.263-28.816,14c-10.369,2.755-21.09,5.6-28.985,14.108s-8.857,18.248-9.782,27.665c-.918,9.358-1.869,19.034-9.686,27.455s-18.495,11.262-28.814,14c-10.369,2.756-21.091,5.6-28.987,14.11s-8.858,18.247-9.782,27.665c-.918,9.357-1.868,19.032-9.686,27.454s-18.5,11.264-28.816,14.005c-10.369,2.754-21.09,5.6-28.985,14.108s-8.857,18.247-9.781,27.664c-.855,8.7-1.739,17.7-8.149,25.676l-.126.157h.463l.029-.036c6.4-8.025,7.287-17.042,8.143-25.761.919-9.357,1.869-19.032,9.688-27.455s18.495-11.264,28.823-14.006c10.365-2.755,21.084-5.6,28.977-14.106s8.856-18.248,9.78-27.665c.919-9.358,1.869-19.033,9.688-27.455s18.494-11.263,28.815-14c10.367-2.754,21.088-5.6,28.984-14.107s8.857-18.248,9.782-27.666c.918-9.357,1.869-19.033,9.688-27.454s18.495-11.265,28.814-14.005c10.367-2.753,21.088-5.6,28.985-14.108s8.858-18.247,9.783-27.665c.919-9.357,1.868-19.032,9.687-27.455s18.495-11.264,28.818-14.005c10.367-2.754,21.087-5.6,28.981-14.107s8.858-18.249,9.783-27.666c.918-9.356,1.868-19.031,9.686-27.454s18.5-11.265,28.815-14.005c10.367-2.753,21.088-5.6,28.987-14.106s8.856-18.247,9.78-27.665Zm1.832-29.49.017-.026v-.623l-.176.246c-5.518,7.709-6.359,16.275-7.173,24.56-.923,9.405-1.877,19.132-9.739,27.6s-18.6,11.326-28.97,14.081c-10.424,2.77-21.2,5.634-29.142,14.184s-8.9,18.347-9.832,27.814c-.925,9.408-1.88,19.136-9.741,27.6S-247.4-510.66-257.771-507.9c-10.423,2.768-21.2,5.631-29.141,14.184s-8.9,18.346-9.835,27.812c-.924,9.409-1.879,19.136-9.741,27.6s-18.591,11.323-28.973,14.081c-10.422,2.77-21.2,5.633-29.135,14.182s-8.9,18.345-9.834,27.812c-.925,9.408-1.879,19.136-9.741,27.6s-18.592,11.323-28.969,14.08c-10.424,2.769-21.2,5.631-29.141,14.184s-8.9,18.345-9.834,27.813c-.924,9.408-1.88,19.136-9.74,27.6s-18.594,11.324-28.969,14.079c-10.424,2.769-21.2,5.632-29.141,14.184s-8.9,18.345-9.835,27.814c-.924,9.406-1.878,19.133-9.739,27.6-.35.376-.711.753-1.107,1.155l-.163.165h.507l.029-.029c.357-.365.683-.707,1-1.045,7.942-8.555,8.9-18.342,9.835-27.813.924-9.408,1.878-19.136,9.739-27.6s18.6-11.324,28.969-14.08c10.424-2.769,21.2-5.631,29.14-14.182s8.9-18.347,9.835-27.815c.924-9.408,1.88-19.137,9.739-27.6s18.594-11.323,28.969-14.08c10.424-2.769,21.2-5.632,29.141-14.184s8.9-18.344,9.835-27.814c.925-9.409,1.88-19.136,9.74-27.6s18.593-11.324,28.967-14.08c10.424-2.77,21.2-5.632,29.142-14.184s8.9-18.346,9.834-27.814c.925-9.408,1.88-19.137,9.741-27.6s18.595-11.324,28.972-14.081c10.424-2.769,21.2-5.632,29.138-14.182s8.9-18.346,9.834-27.813c.924-9.407,1.877-19.135,9.739-27.6S-190.37-588.48-180-591.235c10.424-2.77,21.2-5.633,29.141-14.185s8.9-18.345,9.836-27.816c.8-8.165,1.631-16.607,6.972-24.188m-.016-11.206.033-.029v-.481l-.161.142c-.863.763-1.7,1.575-2.477,2.415-7.987,8.6-8.953,18.445-9.887,27.963-.929,9.457-1.889,19.238-9.792,27.749s-18.7,11.387-29.126,14.157c-10.479,2.784-21.315,5.663-29.295,14.259s-8.951,18.443-9.886,27.964c-.929,9.457-1.89,19.237-9.793,27.748s-18.692,11.385-29.124,14.157c-10.479,2.784-21.315,5.662-29.3,14.258s-8.951,18.444-9.885,27.961c-.929,9.458-1.889,19.238-9.792,27.751s-18.695,11.385-29.131,14.157c-10.478,2.784-21.311,5.663-29.29,14.258s-8.952,18.444-9.887,27.961c-.929,9.458-1.889,19.238-9.791,27.751s-18.7,11.385-29.126,14.156c-10.479,2.784-21.315,5.662-29.3,14.259s-8.951,18.444-9.886,27.962c-.929,9.458-1.889,19.239-9.793,27.751s-18.693,11.385-29.124,14.156c-10.479,2.783-21.315,5.661-29.3,14.26s-8.951,18.444-9.887,27.966c-.929,9.457-1.891,19.235-9.791,27.746a52.736,52.736,0,0,1-4.285,4.116l-.2.17h.555l.027-.023a52.58,52.58,0,0,0,4.165-4.018c7.986-8.6,8.951-18.444,9.886-27.961.929-9.459,1.889-19.239,9.792-27.752s18.691-11.383,29.126-14.156c10.479-2.784,21.315-5.663,29.294-14.26s8.953-18.444,9.887-27.961c.928-9.458,1.889-19.239,9.791-27.751s18.7-11.385,29.125-14.156c10.479-2.784,21.315-5.662,29.3-14.259s8.951-18.442,9.886-27.961c.928-9.458,1.889-19.239,9.792-27.752s18.693-11.384,29.123-14.155c10.479-2.784,21.315-5.662,29.3-14.26s8.954-18.444,9.887-27.961c.929-9.457,1.889-19.238,9.792-27.75s18.695-11.385,29.127-14.156c10.48-2.784,21.315-5.663,29.293-14.259s8.953-18.443,9.887-27.962c.928-9.457,1.889-19.236,9.791-27.75s18.694-11.385,29.124-14.156c10.479-2.784,21.315-5.663,29.3-14.26s8.953-18.442,9.887-27.961c.928-9.457,1.889-19.237,9.791-27.751.74-.8,1.528-1.568,2.343-2.293m-.013-9.353.046-.028v-.425l-.147.091a35.935,35.935,0,0,0-7.653,6.234c-8.029,8.648-9,18.541-9.939,28.115-.935,9.507-1.9,19.337-9.845,27.893s-18.794,11.446-29.28,14.232c-10.535,2.8-21.429,5.692-29.452,14.336s-9,18.541-9.939,28.115c-.935,9.507-1.9,19.337-9.844,27.894s-18.792,11.444-29.279,14.231c-10.535,2.8-21.429,5.692-29.453,14.334s-9,18.54-9.937,28.109c-.935,9.509-1.9,19.342-9.845,27.9s-18.8,11.447-29.283,14.233c-10.534,2.8-21.426,5.691-29.451,14.334s-9,18.54-9.938,28.108c-.933,9.509-1.9,19.341-9.844,27.9s-18.8,11.447-29.28,14.232c-10.535,2.8-21.429,5.693-29.452,14.336s-9,18.54-9.938,28.11c-.935,9.508-1.9,19.342-9.845,27.9s-18.794,11.445-29.281,14.232c-10.535,2.8-21.429,5.693-29.451,14.334s-9,18.54-9.939,28.109c-.933,9.509-1.9,19.341-9.844,27.9a53.1,53.1,0,0,1-8.09,7.106l-.245.176h.62l.025-.019a54.2,54.2,0,0,0,7.956-7.018c8.026-8.647,9-18.541,9.939-28.109.933-9.508,1.9-19.34,9.843-27.9s18.795-11.446,29.279-14.231c10.535-2.8,21.429-5.693,29.453-14.336s9-18.541,9.939-28.109c.933-9.509,1.9-19.342,9.843-27.9s18.795-11.447,29.283-14.233c10.534-2.8,21.426-5.692,29.448-14.334s9-18.54,9.939-28.109c.935-9.509,1.9-19.342,9.843-27.9s18.794-11.445,29.279-14.23c10.534-2.8,21.429-5.693,29.453-14.336s9-18.541,9.939-28.109c.935-9.508,1.9-19.341,9.845-27.9s18.795-11.446,29.28-14.231c10.535-2.8,21.427-5.692,29.452-14.334s9-18.538,9.939-28.111c.933-9.508,1.9-19.34,9.843-27.9s18.791-11.446,29.28-14.233c10.536-2.8,21.431-5.692,29.453-14.334s9-18.537,9.939-28.11c.933-9.508,1.9-19.339,9.843-27.9a35.614,35.614,0,0,1,7.492-6.118m-.011-8.308.057-.026v-.4l-.137.061a38.882,38.882,0,0,0-12.867,8.985c-8.069,8.693-9.046,18.638-9.99,28.257-.938,9.559-1.909,19.444-9.9,28.048s-18.894,11.507-29.438,14.308c-10.59,2.814-21.54,5.723-29.606,14.409s-9.044,18.636-9.99,28.257c-.938,9.558-1.909,19.442-9.9,28.047s-18.9,11.508-29.436,14.307c-10.591,2.814-21.542,5.724-29.607,14.41s-9.046,18.64-9.989,28.258c-.939,9.56-1.91,19.445-9.9,28.048s-18.894,11.506-29.435,14.306c-10.59,2.814-21.542,5.723-29.607,14.411s-9.047,18.638-9.991,28.257c-.938,9.56-1.909,19.445-9.894,28.048s-18.9,11.506-29.436,14.3c-10.591,2.815-21.543,5.724-29.609,14.412s-9.046,18.638-9.991,28.263c-.939,9.559-1.91,19.442-9.9,28.043s-18.894,11.506-29.437,14.307c-10.59,2.814-21.541,5.723-29.607,14.411s-9.046,18.639-9.991,28.258c-.938,9.559-1.909,19.444-9.9,28.047a55.747,55.747,0,0,1-12.714,10.125l-.306.181h.71l.023-.014a55.952,55.952,0,0,0,12.551-10.046c8.069-8.692,9.046-18.639,9.99-28.258.938-9.559,1.909-19.444,9.9-28.047s18.894-11.506,29.434-14.306c10.591-2.814,21.542-5.723,29.609-14.411s9.045-18.636,9.991-28.256c.938-9.56,1.909-19.446,9.9-28.05s18.895-11.506,29.436-14.307c10.59-2.813,21.542-5.721,29.607-14.409s9.046-18.637,9.991-28.26c.939-9.559,1.91-19.443,9.9-28.045s18.894-11.506,29.435-14.305c10.59-2.814,21.542-5.723,29.608-14.411s9.047-18.641,9.99-28.26c.939-9.559,1.91-19.444,9.9-28.046s18.895-11.508,29.438-14.308c10.59-2.814,21.54-5.723,29.6-14.41s9.044-18.63,9.991-28.261c.938-9.558,1.909-19.442,9.894-28.043s18.894-11.505,29.434-14.307c10.591-2.813,21.543-5.722,29.61-14.411s9.047-18.64,9.991-28.259c.939-9.559,1.91-19.444,9.9-28.047a38.451,38.451,0,0,1,12.683-8.868m-.009-7.677.065-.023v-.383l-.129.045c-8,2.787-13.591,6.2-18.116,11.077-8.112,8.74-9.094,18.737-10.043,28.407-.944,9.609-1.92,19.546-9.949,28.195s-18.994,11.567-29.589,14.382c-10.648,2.828-21.657,5.753-29.762,14.487s-9.094,18.734-10.044,28.4c-.943,9.609-1.919,19.545-9.949,28.195s-19,11.568-29.593,14.384c-10.646,2.829-21.654,5.752-29.762,14.486s-9.094,18.736-10.044,28.405c-.943,9.609-1.918,19.545-9.949,28.2s-18.995,11.568-29.591,14.383c-10.645,2.828-21.652,5.751-29.761,14.485s-9.095,18.737-10.044,28.406c-.944,9.61-1.92,19.546-9.949,28.2s-19,11.568-29.592,14.382c-10.645,2.829-21.653,5.753-29.762,14.487s-9.094,18.736-10.043,28.407c-.944,9.609-1.92,19.546-9.949,28.194s-19,11.568-29.593,14.383c-10.646,2.828-21.654,5.753-29.761,14.486s-9.093,18.733-10.044,28.405c-.943,9.61-1.919,19.547-9.948,28.2a60.094,60.094,0,0,1-18.4,13.172l-.382.184h.832l.02-.01a60.2,60.2,0,0,0,18.19-13.1c8.112-8.739,9.094-18.737,10.043-28.411.945-9.608,1.92-19.543,9.948-28.191s19-11.568,29.592-14.383c10.645-2.827,21.653-5.751,29.762-14.486s9.094-18.736,10.044-28.405c.943-9.611,1.919-19.547,9.948-28.2S-450.4-352.695-439.8-355.51c10.646-2.828,21.656-5.753,29.762-14.486s9.095-18.736,10.044-28.405c.944-9.612,1.92-19.549,9.949-28.2s18.991-11.567,29.589-14.382c10.646-2.828,21.655-5.753,29.763-14.486s9.094-18.737,10.043-28.406c.944-9.61,1.919-19.545,9.949-28.2s18.99-11.566,29.589-14.381c10.646-2.829,21.656-5.752,29.764-14.487s9.094-18.736,10.043-28.412c.945-9.608,1.923-19.542,9.949-28.188s18.993-11.568,29.593-14.385c10.646-2.828,21.654-5.752,29.761-14.485s9.092-18.732,10.043-28.405c.944-9.609,1.92-19.545,9.949-28.2,4.472-4.817,10-8.2,17.914-10.962m0-7.313.07-.02v-.375l-.124.036c-8.2,2.382-16.718,5.578-23.4,12.777-8.153,8.781-9.14,18.829-10.1,28.553-.948,9.659-1.928,19.648-10,28.343s-19.091,11.628-29.747,14.46c-10.7,2.843-21.769,5.783-29.917,14.562s-9.141,18.833-10.1,28.56c-.949,9.658-1.931,19.645-10,28.337s-19.1,11.629-29.748,14.458c-10.7,2.843-21.766,5.783-29.918,14.561s-9.141,18.833-10.1,28.56c-.949,9.659-1.93,19.646-10,28.337s-19.1,11.629-29.748,14.459c-10.7,2.843-21.767,5.783-29.918,14.562s-9.14,18.833-10.1,28.553c-.948,9.659-1.927,19.648-10,28.343s-19.093,11.628-29.75,14.46c-10.7,2.843-21.767,5.783-29.916,14.56s-9.14,18.83-10.1,28.555c-.948,9.659-1.927,19.648-10,28.343s-19.094,11.629-29.746,14.458c-10.7,2.843-21.768,5.783-29.919,14.562s-9.14,18.833-10.094,28.553c-.949,9.66-1.93,19.65-10,28.344a60.049,60.049,0,0,1-19.014,13.489l-.055.026v.4l.138-.065a60.467,60.467,0,0,0,19.2-13.6c8.154-8.783,9.141-18.834,10.1-28.555.948-9.659,1.928-19.647,10-28.343S-537-270.662-526.35-273.491c10.7-2.843,21.768-5.783,29.919-14.563s9.141-18.834,10.1-28.554c.949-9.66,1.93-19.649,10-28.343s19.094-11.629,29.746-14.457c10.7-2.843,21.768-5.783,29.92-14.563s9.14-18.832,10.1-28.555c.949-9.659,1.928-19.647,10-28.342s19.093-11.629,29.746-14.458c10.7-2.843,21.77-5.783,29.918-14.563s9.141-18.833,10.1-28.56c.949-9.658,1.93-19.645,10-28.337s19.092-11.627,29.746-14.458c10.7-2.842,21.767-5.78,29.919-14.562s9.14-18.829,10.1-28.553c.949-9.66,1.929-19.649,10-28.344s19.093-11.629,29.745-14.458c10.7-2.843,21.769-5.783,29.919-14.563s9.141-18.834,10.094-28.553c.949-9.66,1.929-19.648,10-28.344,6.618-7.126,15.057-10.3,23.192-12.663m0-7.142.072-.019v-.374l-.122.033c-11.648,3.106-21.16,6.13-28.724,14.278-8.2,8.83-9.189,18.932-10.147,28.7-.955,9.71-1.94,19.751-10.054,28.489s-19.194,11.691-29.9,14.534c-10.758,2.859-21.881,5.814-30.073,14.638s-9.188,18.931-10.149,28.7c-.954,9.711-1.94,19.752-10.053,28.491s-19.191,11.688-29.9,14.533c-10.758,2.858-21.881,5.814-30.071,14.637s-9.188,18.928-10.148,28.7c-.955,9.71-1.94,19.752-10.054,28.491s-19.192,11.688-29.9,14.534c-10.756,2.857-21.88,5.811-30.072,14.636s-9.189,18.932-10.149,28.7c-.953,9.711-1.939,19.751-10.052,28.493s-19.194,11.689-29.9,14.533c-10.757,2.858-21.88,5.814-30.071,14.636s-9.188,18.929-10.149,28.7c-.953,9.711-1.938,19.752-10.052,28.494s-19.194,11.688-29.9,14.532c-10.758,2.857-21.881,5.811-30.074,14.636s-9.188,18.933-10.148,28.7c-.953,9.711-1.938,19.752-10.053,28.493a55.831,55.831,0,0,1-11.521,9.437l-.045.029v.427l.148-.092a56.25,56.25,0,0,0,11.682-9.556c8.2-8.829,9.188-18.932,10.148-28.706.954-9.71,1.94-19.75,10.052-28.488s19.194-11.689,29.9-14.532c10.758-2.858,21.88-5.812,30.074-14.637s9.186-18.927,10.148-28.7c.953-9.712,1.939-19.753,10.053-28.493s19.193-11.688,29.9-14.532c10.758-2.859,21.882-5.814,30.075-14.637s9.188-18.933,10.147-28.7c.953-9.711,1.939-19.752,10.054-28.493s19.192-11.689,29.9-14.533c10.757-2.857,21.88-5.811,30.073-14.637s9.189-18.932,10.149-28.7c.952-9.711,1.937-19.751,10.053-28.492s19.192-11.688,29.9-14.533c10.758-2.858,21.882-5.813,30.075-14.638s9.187-18.932,10.147-28.7c.952-9.708,1.937-19.749,10.053-28.492s19.192-11.687,29.9-14.534c10.758-2.857,21.882-5.813,30.074-14.637s9.188-18.931,10.146-28.7c.954-9.712,1.94-19.753,10.053-28.491,8.093-8.717,19.414-11.736,28.51-14.164m0-7.139.071-.02v-.374l-.122.033c-1.327.364-2.671.721-3.858,1.035-10.813,2.873-21.993,5.842-30.227,14.711s-9.235,19.029-10.2,28.856c-.959,9.76-1.951,19.851-10.106,28.636s-19.29,11.748-30.055,14.607c-10.813,2.873-22,5.844-30.23,14.714s-9.235,19.029-10.2,28.857c-.959,9.759-1.952,19.849-10.106,28.633s-19.293,11.75-30.057,14.61c-10.813,2.871-21.993,5.841-30.23,14.711s-9.234,19.029-10.2,28.851c-.959,9.761-1.949,19.854-10.107,28.641s-19.288,11.748-30.056,14.609c-10.813,2.872-22,5.842-30.23,14.711s-9.236,19.029-10.2,28.849c-.959,9.762-1.95,19.855-10.105,28.641s-19.294,11.75-30.057,14.608c-10.813,2.872-21.994,5.841-30.23,14.713s-9.235,19.029-10.2,28.85c-.958,9.762-1.949,19.855-10.106,28.641s-19.292,11.75-30.057,14.609c-10.814,2.872-22,5.842-30.23,14.713s-9.235,19.027-10.2,28.849c-.958,9.762-1.949,19.855-10.105,28.641a54.114,54.114,0,0,1-3.99,3.874l-.033.029v.48l.16-.139a54.8,54.8,0,0,0,4.127-4c8.238-8.875,9.236-19.029,10.2-28.85.958-9.761,1.948-19.854,10.1-28.64s19.293-11.75,30.057-14.609c10.813-2.872,22-5.842,30.23-14.712s9.236-19.03,10.2-28.85c.959-9.762,1.95-19.855,10.107-28.641s19.293-11.75,30.057-14.609c10.813-2.872,21.993-5.841,30.229-14.712s9.236-19.031,10.2-28.853c.959-9.76,1.951-19.853,10.105-28.638s19.294-11.75,30.058-14.608c10.813-2.873,22-5.842,30.229-14.713s9.235-19.028,10.2-28.857c.96-9.759,1.952-19.85,10.106-28.634s19.291-11.748,30.057-14.608c10.813-2.872,21.993-5.842,30.23-14.712s9.235-19.03,10.2-28.85c.96-9.76,1.951-19.854,10.108-28.639s19.294-11.752,30.058-14.611c10.813-2.873,21.992-5.842,30.228-14.711s9.235-19.03,10.2-28.853c.959-9.76,1.95-19.853,10.105-28.639s19.294-11.749,30.057-14.608c1.275-.339,2.546-.677,3.817-1.024m0-7.3.068-.021v-.379l-.126.039c-2.992.937-6.095,1.762-9.1,2.56-10.869,2.887-22.108,5.873-30.385,14.789s-9.284,19.128-10.252,29c-.963,9.812-1.958,19.956-10.158,28.789s-19.393,11.81-30.215,14.685c-10.868,2.888-22.107,5.874-30.381,14.788s-9.283,19.121-10.254,29c-.962,9.811-1.958,19.956-10.158,28.788s-19.394,11.81-30.213,14.684c-10.868,2.887-22.107,5.873-30.384,14.787s-9.284,19.128-10.252,29c-.963,9.812-1.958,19.957-10.159,28.79s-19.393,11.812-30.216,14.687c-10.867,2.887-22.1,5.872-30.379,14.786s-9.283,19.127-10.252,29c-.962,9.811-1.958,19.957-10.159,28.789s-19.391,11.809-30.211,14.684c-10.869,2.887-22.107,5.873-30.385,14.788s-9.284,19.128-10.253,29c-.963,9.811-1.961,19.958-10.158,28.788s-19.394,11.811-30.212,14.684c-10.869,2.887-22.108,5.872-30.384,14.789s-9.283,19.127-10.252,29c-.8,8.151-1.629,16.579-6.581,24.21l-.016.024v.656l.177-.27c5.126-7.763,5.966-16.315,6.777-24.587.965-9.811,1.961-19.956,10.159-28.786s19.389-11.809,30.212-14.685c10.868-2.887,22.107-5.872,30.385-14.788s9.282-19.127,10.252-29c.964-9.812,1.961-19.958,10.159-28.789s19.394-11.811,30.212-14.684c10.869-2.887,22.107-5.873,30.383-14.788s9.284-19.129,10.253-29c.964-9.811,1.961-19.957,10.159-28.788s19.392-11.809,30.211-14.683c10.869-2.888,22.107-5.874,30.385-14.789s9.282-19.123,10.253-29c.962-9.811,1.958-19.955,10.158-28.787s19.4-11.812,30.213-14.685c10.868-2.887,22.107-5.872,30.384-14.787s9.283-19.129,10.252-29.005c.964-9.809,1.961-19.953,10.159-28.781s19.391-11.811,30.211-14.686c10.868-2.887,22.107-5.872,30.385-14.787s9.281-19.125,10.251-29c.964-9.811,1.961-19.956,10.159-28.787s19.392-11.811,30.213-14.686l.024-.006c2.983-.792,6.065-1.612,9.041-2.542m.006-7.639.062-.024v-.388l-.132.051a136.415,136.415,0,0,1-14.385,4.4c-10.924,2.9-22.219,5.9-30.54,14.862s-9.331,19.226-10.3,29.147c-.969,9.863-1.971,20.061-10.211,28.936s-19.494,11.873-30.369,14.761c-10.923,2.9-22.218,5.9-30.538,14.864s-9.33,19.22-10.305,29.146c-.969,9.863-1.971,20.061-10.211,28.936s-19.494,11.872-30.368,14.76c-10.924,2.9-22.221,5.9-30.54,14.864s-9.329,19.224-10.3,29.146c-.969,9.863-1.971,20.061-10.21,28.936s-19.494,11.872-30.368,14.76c-10.924,2.9-22.219,5.9-30.54,14.864s-9.33,19.225-10.305,29.147c-.968,9.862-1.97,20.06-10.21,28.935s-19.494,11.872-30.368,14.761c-10.924,2.9-22.221,5.9-30.54,14.863s-9.331,19.225-10.305,29.145c-.968,9.863-1.969,20.061-10.211,28.939s-19.492,11.871-30.368,14.759c-10.924,2.9-22.22,5.9-30.539,14.863-6.451,6.95-8.334,14.407-9.326,20.8v1.139l.192.013c.952-6.754,2.814-14.614,9.4-21.7,8.248-8.885,19.492-11.872,30.366-14.759,10.924-2.9,22.221-5.9,30.54-14.865s9.332-19.226,10.305-29.147c.969-9.863,1.97-20.061,10.211-28.936s19.492-11.872,30.367-14.76c10.925-2.9,22.221-5.9,30.541-14.864s9.33-19.225,10.3-29.147c.969-9.861,1.97-20.059,10.211-28.936S-403.6-460.11-392.722-463c10.924-2.9,22.221-5.9,30.54-14.864s9.33-19.225,10.305-29.148c.969-9.862,1.971-20.059,10.21-28.935s19.494-11.872,30.368-14.761c10.925-2.9,22.222-5.9,30.54-14.863s9.33-19.225,10.305-29.147c.967-9.86,1.968-20.056,10.212-28.935s19.49-11.871,30.364-14.76c10.925-2.9,22.221-5.9,30.542-14.865s9.33-19.226,10.3-29.147c.969-9.863,1.971-20.061,10.211-28.936s19.491-11.87,30.387-14.765a136.833,136.833,0,0,0,14.343-4.377m.009-8.205.053-.027v-.406l-.142.072c-6.138,3.159-13.034,4.991-19.707,6.764-10.979,2.916-22.331,5.931-30.695,14.939s-9.377,19.322-10.356,29.294c-.973,9.912-1.98,20.162-10.262,29.085s-19.594,11.933-30.528,14.836c-10.979,2.918-22.333,5.934-30.691,14.939s-9.379,19.324-10.359,29.3c-.973,9.911-1.979,20.16-10.262,29.08S-306.624-558.9-317.555-556c-10.979,2.917-22.332,5.932-30.7,14.939s-9.378,19.322-10.357,29.293c-.973,9.913-1.979,20.164-10.263,29.085s-19.591,11.932-30.523,14.836c-10.98,2.917-22.334,5.932-30.695,14.94s-9.378,19.323-10.358,29.3c-.974,9.911-1.981,20.158-10.262,29.079s-19.593,11.932-30.523,14.835c-10.98,2.918-22.334,5.933-30.694,14.939s-9.379,19.324-10.358,29.3c-.974,9.912-1.982,20.162-10.264,29.083s-19.591,11.933-30.522,14.836c-10.98,2.918-22.334,5.933-30.7,14.94-.6.651-1.19,1.331-1.74,2.022l-.021.026v.582l.173-.219c.582-.74,1.206-1.468,1.853-2.165,8.29-8.931,19.593-11.933,30.523-14.837,10.979-2.918,22.333-5.933,30.694-14.939s9.378-19.321,10.358-29.294c.973-9.912,1.979-20.162,10.263-29.085s19.592-11.932,30.522-14.837c10.979-2.915,22.333-5.931,30.7-14.938s9.377-19.321,10.356-29.293c.974-9.913,1.981-20.163,10.263-29.086s19.588-11.931,30.522-14.836c10.979-2.915,22.332-5.931,30.7-14.939s9.378-19.321,10.358-29.3c.973-9.911,1.978-20.161,10.262-29.083s19.594-11.932,30.523-14.835c10.979-2.917,22.331-5.932,30.7-14.939s9.378-19.323,10.357-29.3c.973-9.912,1.979-20.162,10.263-29.085s19.589-11.932,30.523-14.837c10.98-2.916,22.334-5.931,30.7-14.939s9.377-19.323,10.356-29.295c.973-9.913,1.98-20.163,10.263-29.084s19.591-11.931,30.537-14.839c6.658-1.769,13.543-3.6,19.689-6.748m.012-9.09.041-.03v-.443l-.153.109c-7.425,5.3-16.4,7.686-25.072,9.99-11.035,2.932-22.447,5.962-30.85,15.015s-9.425,19.414-10.411,29.449c-.979,9.96-1.991,20.261-10.314,29.226s-19.693,11.993-30.679,14.911c-11.034,2.931-22.445,5.962-30.85,15.015s-9.426,19.42-10.41,29.442c-.977,9.963-1.989,20.264-10.315,29.232s-19.693,11.994-30.679,14.912c-11.034,2.932-22.445,5.963-30.848,15.015s-9.426,19.417-10.411,29.443c-.978,9.963-1.989,20.265-10.315,29.233s-19.69,11.992-30.686,14.913c-11.033,2.932-22.441,5.964-30.842,15.013s-9.426,19.421-10.41,29.444c-.978,9.963-1.989,20.265-10.315,29.232s-19.693,11.994-30.679,14.911c-11.035,2.932-22.446,5.964-30.849,15.015s-9.425,19.42-10.41,29.445c-.979,9.963-1.991,20.265-10.315,29.231s-19.693,11.995-30.679,14.911c-8.621,2.291-17.535,4.659-24.962,9.885l-.041.029v.443l.153-.108c7.4-5.24,16.318-7.609,24.944-9.9,11.036-2.932,22.447-5.963,30.85-15.015s9.425-19.42,10.41-29.443c.978-9.962,1.99-20.263,10.316-29.232s19.691-11.994,30.677-14.911c11.036-2.932,22.448-5.963,30.851-15.015s9.424-19.418,10.409-29.445c.98-9.963,1.992-20.265,10.317-29.231s19.692-11.994,30.681-14.912c11.034-2.932,22.444-5.964,30.846-15.014s9.427-19.422,10.411-29.445c.979-9.963,1.99-20.265,10.315-29.231s19.694-11.994,30.679-14.911c11.036-2.932,22.448-5.965,30.849-15.016s9.426-19.416,10.411-29.443c.978-9.962,1.989-20.264,10.316-29.231S-252.4-646.3-241.414-649.22c11.034-2.932,22.445-5.962,30.849-15.015s9.425-19.419,10.408-29.442c.98-9.963,1.992-20.266,10.318-29.233s19.692-11.994,30.677-14.911c8.672-2.3,17.638-4.687,25.091-9.977m.014-10.5.027-.029v-.522l-.167.175c-8.334,8.726-19.59,11.716-30.475,14.608-11.09,2.945-22.558,5.99-31.005,15.089s-9.473,19.519-10.463,29.592c-.982,10.013-2,20.367-10.367,29.381s-19.793,12.056-30.835,14.988c-11.092,2.946-22.561,5.993-31,15.09s-9.473,19.514-10.462,29.592c-.984,10.013-2,20.368-10.367,29.38s-19.793,12.054-30.835,14.987c-11.091,2.946-22.56,5.992-31.006,15.09s-9.471,19.516-10.462,29.593c-.984,10.013-2,20.368-10.367,29.38s-19.79,12.052-30.836,14.987c-11.09,2.946-22.559,5.993-31,15.09s-9.473,19.517-10.463,29.593c-.982,10.011-2,20.365-10.366,29.38s-19.792,12.053-30.833,14.986c-11.092,2.947-22.561,5.994-31.006,15.09s-9.472,19.518-10.462,29.592c-.983,10.014-2,20.368-10.367,29.381s-19.793,12.054-30.835,14.987a114.894,114.894,0,0,0-17.45,5.645l-.057.026v.4l.136-.061a114.071,114.071,0,0,1,17.463-5.657c11.091-2.946,22.56-5.993,31.008-15.092s9.473-19.518,10.462-29.59c.983-10.014,2-20.368,10.366-29.381s19.793-12.054,30.835-14.987c11.092-2.946,22.561-5.993,31.006-15.09s9.472-19.518,10.461-29.59c.983-10.014,2-20.368,10.369-29.383s19.791-12.053,30.832-14.986c11.091-2.947,22.56-5.994,31.005-15.091s9.474-19.519,10.462-29.593c.984-10.013,2-20.368,10.368-29.38s19.792-12.053,30.833-14.986c11.091-2.946,22.561-5.993,31.008-15.09s9.471-19.518,10.461-29.591c.982-10.013,2-20.366,10.367-29.381s19.792-12.053,30.835-14.987c11.09-2.946,22.559-5.993,31.005-15.09s9.472-19.518,10.46-29.592c.984-10.012,2-20.366,10.368-29.381s19.793-12.054,30.835-14.987c10.881-2.891,22.132-5.88,30.523-14.581m.01-12.537.017-.025v-.639l-.177.26a52.847,52.847,0,0,1-4.939,6.182c-8.418,9.067-19.893,12.115-30.991,15.062-11.145,2.962-22.671,6.024-31.159,15.168s-9.521,19.615-10.516,29.752c-.99,10.059-2.014,20.461-10.418,29.516s-19.891,12.114-30.991,15.063c-11.147,2.962-22.672,6.024-31.159,15.166s-9.521,19.616-10.514,29.742c-.988,10.063-2.011,20.469-10.42,29.526S-325.207-573.951-336.3-571c-11.147,2.96-22.672,6.021-31.161,15.166s-9.521,19.616-10.514,29.741c-.99,10.063-2.012,20.468-10.42,29.527s-19.893,12.115-30.991,15.062c-11.146,2.962-22.672,6.024-31.159,15.166s-9.521,19.617-10.514,29.745c-.989,10.063-2.012,20.468-10.42,29.524s-19.89,12.114-30.989,15.062c-11.146,2.96-22.672,6.02-31.162,15.166s-9.519,19.614-10.514,29.739c-.987,10.063-2.008,20.468-10.42,29.528s-19.89,12.115-30.989,15.063c-3.262.866-6.637,1.763-9.9,2.8l-.068.022v.38l.126-.04c3.272-1.047,6.658-1.946,9.935-2.816,11.146-2.961,22.672-6.024,31.159-15.166s9.52-19.616,10.515-29.739c.987-10.063,2.009-20.469,10.419-29.529s19.892-12.114,30.99-15.062c11.147-2.961,22.672-6.023,31.159-15.165s9.521-19.615,10.515-29.74c.988-10.064,2.01-20.47,10.421-29.53s19.89-12.114,30.988-15.062c11.147-2.962,22.673-6.024,31.16-15.167s9.521-19.615,10.515-29.739c.989-10.064,2.01-20.471,10.42-29.528s19.89-12.115,30.989-15.063c11.147-2.96,22.672-6.022,31.16-15.165s9.522-19.615,10.516-29.74c.987-10.064,2.009-20.471,10.419-29.528s19.89-12.115,30.99-15.063c11.145-2.96,22.671-6.022,31.16-15.166s9.521-19.617,10.514-29.746c.99-10.063,2.013-20.468,10.419-29.523s19.893-12.115,30.991-15.063c11.146-2.96,22.672-6.021,31.16-15.165a53.2,53.2,0,0,0,4.836-6.024m.009-15.9.008-.966-.186.454A52.756,52.756,0,0,1-144.5-771.1c-8.46,9.113-19.992,12.177-31.145,15.139-11.2,2.977-22.784,6.053-31.315,15.241s-9.567,19.711-10.567,29.888c-.993,10.115-2.019,20.573-10.473,29.679s-19.99,12.174-31.143,15.137c-11.2,2.977-22.785,6.054-31.316,15.243s-9.569,19.714-10.567,29.887c-.993,10.114-2.019,20.571-10.472,29.676s-19.992,12.176-31.146,15.139c-11.2,2.976-22.786,6.054-31.315,15.242s-9.568,19.714-10.567,29.887c-.993,10.114-2.019,20.572-10.472,29.677s-19.991,12.175-31.145,15.138c-11.2,2.976-22.786,6.054-31.315,15.241s-9.569,19.714-10.568,29.888c-.993,10.114-2.019,20.573-10.471,29.678s-19.992,12.176-31.145,15.138c-11.2,2.976-22.785,6.051-31.317,15.241s-9.567,19.711-10.567,29.887c-.993,10.114-2.019,20.572-10.472,29.677s-19.993,12.177-31.146,15.138l-.307.082-2,.535-.072.02v.373l.122-.033q1.175-.316,2.352-.628c11.2-2.975,22.785-6.051,31.318-15.242s9.567-19.714,10.567-29.888c.992-10.114,2.018-20.572,10.472-29.677s19.99-12.174,31.144-15.138c11.2-2.976,22.786-6.052,31.317-15.241s9.567-19.714,10.567-29.887c.992-10.115,2.018-20.574,10.472-29.678s19.991-12.177,31.144-15.138c11.2-2.976,22.785-6.052,31.316-15.242s9.567-19.71,10.566-29.887c.993-10.115,2.019-20.574,10.473-29.678s19.99-12.174,31.144-15.138c11.2-2.977,22.785-6.053,31.316-15.242s9.567-19.708,10.567-29.887c.993-10.114,2.019-20.572,10.472-29.676s19.991-12.176,31.145-15.139c11.2-2.975,22.785-6.052,31.316-15.242s9.569-19.714,10.569-29.9c.993-10.111,2.021-20.567,10.472-29.668s19.99-12.173,31.142-15.137c11.2-2.977,22.787-6.055,31.318-15.243a53.02,53.02,0,0,0,10.2-15.887m-15.6,9.819c10.337-11.134,13.375-23.63,15.6-35.493v-.909l-.192-.018c-2.354,12.7-5.325,25.025-15.676,36.175-8.5,9.158-20.091,12.237-31.3,15.215-11.257,2.99-22.9,6.082-31.468,15.316s-9.616,19.811-10.62,30.036c-1,10.164-2.029,20.675-10.524,29.824s-20.091,12.237-31.3,15.214c-11.258,2.991-22.9,6.083-31.472,15.318s-9.615,19.81-10.619,30.034c-1,10.166-2.031,20.677-10.524,29.826s-20.092,12.237-31.3,15.214c-11.258,2.991-22.9,6.085-31.471,15.317s-9.615,19.81-10.619,30.038c-1,10.164-2.031,20.675-10.524,29.823s-20.09,12.235-31.3,15.214c-11.258,2.991-22.9,6.083-31.472,15.317s-9.615,19.811-10.619,30.035c-1,10.165-2.03,20.676-10.524,29.825s-20.093,12.237-31.3,15.215c-11.258,2.991-22.9,6.085-31.468,15.317s-9.615,19.811-10.619,30.036c-1,10.165-2.031,20.675-10.524,29.826-7.515,8.094-17.351,11.354-25.981,13.774l-.071.019v.376l.122-.035c8.7-2.436,18.609-5.718,26.194-13.89,8.575-9.238,9.615-19.81,10.618-30.036,1-10.165,2.031-20.676,10.524-29.825s20.092-12.236,31.3-15.214c11.257-2.991,22.9-6.084,31.469-15.317s9.615-19.812,10.62-30.04c1-10.164,2.032-20.674,10.524-29.822s20.091-12.236,31.3-15.214c11.258-2.99,22.9-6.082,31.471-15.317s9.615-19.811,10.619-30.036c1-10.165,2.03-20.675,10.525-29.825s20.089-12.236,31.3-15.214c11.258-2.991,22.9-6.083,31.472-15.317s9.613-19.806,10.619-30.037c1-10.164,2.03-20.674,10.524-29.825s20.091-12.237,31.3-15.214c11.258-2.991,22.9-6.083,31.473-15.317s9.614-19.81,10.617-30.034c1-10.166,2.031-20.677,10.524-29.827s20.089-12.235,31.3-15.213c11.259-2.991,22.9-6.085,31.473-15.318M-135.3-838.43l.035-.123h-.374l-.019.071c-1.435,5.144-2.393,10.435-3.32,15.552-2.437,13.462-4.957,27.383-16.359,39.665-8.543,9.2-20.19,12.3-31.456,15.29-11.313,3.005-23.01,6.112-31.626,15.393s-9.663,19.91-10.672,30.185c-1,10.215-2.04,20.778-10.576,29.972s-20.193,12.3-31.459,15.29c-11.314,3.006-23.012,6.113-31.624,15.392s-9.663,19.909-10.672,30.184c-1,10.215-2.04,20.779-10.577,29.973s-20.192,12.3-31.457,15.29c-11.313,3.005-23.01,6.113-31.624,15.393s-9.663,19.909-10.672,30.185c-1,10.215-2.04,20.778-10.576,29.972s-20.192,12.3-31.456,15.29c-11.313,3-23.011,6.112-31.626,15.392s-9.662,19.907-10.672,30.183c-1,10.217-2.04,20.779-10.577,29.975s-20.192,12.3-31.456,15.288c-11.312,3.005-23.01,6.113-31.625,15.392s-9.663,19.91-10.672,30.185c-1,10.215-2.039,20.778-10.576,29.974-4.6,4.95-10.463,8.588-18.467,11.45l-.064.023v.384l.129-.046c8.09-2.887,14.021-6.561,18.666-11.564,8.62-9.287,9.663-19.911,10.672-30.187,1-10.215,2.042-20.778,10.577-29.972s20.189-12.3,31.456-15.29c11.314-3.005,23.013-6.112,31.627-15.392s9.662-19.909,10.672-30.184c1-10.216,2.039-20.778,10.575-29.974s20.191-12.3,31.456-15.288c11.313-3.005,23.013-6.113,31.629-15.393s9.661-19.908,10.67-30.183c1-10.214,2.04-20.778,10.577-29.974s20.191-12.3,31.456-15.289c11.313-3.005,23.011-6.112,31.626-15.393s9.663-19.908,10.672-30.184c1-10.214,2.039-20.775,10.577-29.973s20.19-12.3,31.454-15.289c11.314-3.006,23.013-6.114,31.628-15.393s9.662-19.906,10.672-30.183c1-10.214,2.039-20.776,10.577-29.974s20.184-12.3,31.452-15.29c11.313-3,23.012-6.111,31.629-15.393,11.475-12.359,14-26.332,16.45-39.846.928-5.127,1.888-10.429,3.323-15.564m-6.958-.005.025-.118h-.368l-.017.077c-.658,3.07-1.224,6.2-1.772,9.219-2.448,13.527-4.981,27.515-16.439,39.858-8.587,9.25-20.291,12.358-31.611,15.365-11.369,3.02-23.125,6.143-31.78,15.468s-9.71,20-10.724,30.333c-1.007,10.265-2.05,20.879-10.629,30.12s-20.292,12.359-31.611,15.366c-11.369,3.02-23.126,6.143-31.783,15.468s-9.709,20.006-10.723,30.332c-1.01,10.266-2.052,20.881-10.628,30.123s-20.291,12.357-31.612,15.365c-11.368,3.02-23.124,6.141-31.783,15.467s-9.709,20.006-10.724,30.333c-1.008,10.266-2.05,20.881-10.628,30.121s-20.291,12.359-31.613,15.366c-11.369,3.021-23.125,6.143-31.781,15.467s-9.71,20.009-10.724,30.338c-1.009,10.264-2.052,20.878-10.629,30.116s-20.29,12.357-31.61,15.364c-11.369,3.021-23.126,6.143-31.783,15.469s-9.71,20.007-10.724,30.331c-1.007,10.266-2.05,20.88-10.631,30.123a39.669,39.669,0,0,1-10.91,8.209l-.052.027v.407l.141-.073a40.1,40.1,0,0,0,11.085-8.324c8.662-9.332,9.711-20.008,10.725-30.333,1.008-10.266,2.05-20.88,10.629-30.121s20.292-12.359,31.611-15.364c11.368-3.021,23.125-6.143,31.782-15.469s9.708-20.007,10.723-30.332c1.008-10.266,2.05-20.881,10.63-30.123s20.29-12.357,31.61-15.364c11.369-3.021,23.126-6.144,31.783-15.469s9.71-20.005,10.724-30.334c1.008-10.266,2.051-20.88,10.628-30.119s20.289-12.356,31.611-15.364c11.368-3.02,23.124-6.143,31.782-15.469s9.71-20.008,10.723-30.333c1.01-10.266,2.053-20.881,10.629-30.121s20.292-12.358,31.611-15.365c11.369-3.02,23.126-6.143,31.783-15.469s9.708-20,10.724-30.33c1.008-10.266,2.05-20.881,10.631-30.123s20.289-12.358,31.608-15.365c11.369-3.02,23.126-6.143,31.784-15.468,11.53-12.419,14.071-26.461,16.529-40.04.549-3.035,1.117-6.172,1.776-9.242m-6.709,0,.021-.114h-.367l-.015.079q-.2,1.066-.389,2.132l-.13.72c-2.462,13.595-5.008,27.653-16.52,40.054-8.628,9.293-20.391,12.418-31.769,15.441-11.423,3.035-23.236,6.174-31.934,15.543s-9.756,20.1-10.775,30.48c-1.013,10.315-2.061,20.982-10.682,30.27s-20.391,12.418-31.767,15.441c-11.425,3.035-23.239,6.175-31.937,15.544s-9.758,20.1-10.777,30.48c-1.012,10.314-2.058,20.981-10.68,30.269s-20.393,12.42-31.768,15.441c-11.424,3.036-23.238,6.174-31.936,15.544s-9.758,20.1-10.777,30.479c-1.013,10.316-2.061,20.984-10.682,30.271s-20.391,12.418-31.766,15.441c-11.425,3.035-23.239,6.172-31.938,15.542s-9.756,20.105-10.776,30.48c-1.012,10.317-2.059,20.983-10.681,30.271s-20.392,12.419-31.766,15.441c-11.426,3.035-23.24,6.174-31.937,15.544s-9.758,20.106-10.777,30.481c-1.013,10.317-2.061,20.984-10.681,30.27a38.016,38.016,0,0,1-3.314,3.159l-.034.029v.471l.159-.133a38.316,38.316,0,0,0,3.452-3.281c8.7-9.374,9.756-20.1,10.776-30.479,1.013-10.316,2.06-20.983,10.682-30.271s20.39-12.419,31.766-15.441c11.425-3.035,23.239-6.174,31.937-15.545s9.757-20.1,10.776-30.48c1.014-10.316,2.061-20.984,10.681-30.27s20.391-12.418,31.769-15.44c11.424-3.035,23.237-6.174,31.934-15.543s9.757-20.1,10.777-30.481c1.013-10.315,2.06-20.981,10.682-30.269s20.391-12.419,31.765-15.44c11.424-3.035,23.237-6.172,31.939-15.545s9.756-20.1,10.776-30.48c1.014-10.317,2.061-20.985,10.683-30.269s20.389-12.42,31.766-15.441c11.425-3.036,23.238-6.174,31.937-15.545s9.756-20.1,10.775-30.48c1.014-10.317,2.061-20.984,10.682-30.27s20.391-12.418,31.765-15.439c11.425-3.035,23.239-6.173,31.94-15.544,11.584-12.479,14.14-26.59,16.611-40.236q.259-1.44.524-2.88m-6.673,0,.021-.115h-.367l-.015.079c-2.391,12.863-5.411,25.35-15.951,36.7-8.671,9.339-20.491,12.48-31.924,15.517-11.479,3.05-23.35,6.2-32.09,15.619s-9.8,20.2-10.828,30.628c-1.018,10.366-2.071,21.085-10.735,30.418s-20.489,12.48-31.921,15.517c-11.48,3.049-23.35,6.2-32.092,15.619s-9.805,20.2-10.83,30.632c-1.018,10.366-2.07,21.084-10.732,30.415s-20.491,12.479-31.924,15.517c-11.48,3.049-23.351,6.2-32.091,15.618s-9.8,20.2-10.828,30.629c-1.018,10.366-2.071,21.086-10.734,30.418s-20.491,12.48-31.923,15.517c-11.479,3.049-23.35,6.2-32.091,15.618s-9.8,20.2-10.829,30.633c-1.018,10.365-2.072,21.084-10.734,30.415s-20.489,12.479-31.92,15.516c-11.48,3.049-23.351,6.2-32.095,15.62s-9.8,20.2-10.829,30.629c-.814,8.3-1.657,16.884-6.4,24.706l-.014.023v.688l.179-.291c4.915-7.952,5.77-16.665,6.6-25.091,1.018-10.366,2.069-21.085,10.734-30.419s20.49-12.48,31.921-15.517c11.479-3.049,23.35-6.2,32.092-15.619s9.805-20.2,10.829-30.629c1.018-10.367,2.071-21.086,10.734-30.419s20.489-12.478,31.92-15.515c11.481-3.049,23.352-6.2,32.095-15.62s9.8-20.2,10.827-30.629c1.018-10.365,2.071-21.085,10.734-30.418s20.49-12.48,31.92-15.515c11.482-3.05,23.353-6.2,32.093-15.62s9.805-20.2,10.829-30.629c1.017-10.366,2.071-21.085,10.734-30.418s20.49-12.48,31.92-15.517c11.48-3.048,23.351-6.2,32.094-15.619s9.8-20.2,10.829-30.629c1.018-10.367,2.07-21.087,10.733-30.417s20.491-12.48,31.921-15.516c11.481-3.05,23.352-6.2,32.092-15.62,10.611-11.43,13.647-23.983,16.049-36.914m-6.84,0,.026-.118h-.368l-.017.076c-2.072,9.445-5.445,20.451-14.747,30.471-8.71,9.384-20.585,12.539-32.077,15.593-11.536,3.064-23.467,6.233-32.248,15.693s-9.852,20.3-10.881,30.776c-1.022,10.417-2.079,21.188-10.786,30.567s-20.591,12.542-32.079,15.593c-11.536,3.064-23.464,6.234-32.247,15.694s-9.853,20.3-10.88,30.777c-1.023,10.417-2.08,21.188-10.786,30.565s-20.591,12.541-32.077,15.592c-11.536,3.064-23.465,6.233-32.248,15.695s-9.851,20.3-10.881,30.779c-1.023,10.416-2.081,21.188-10.786,30.564s-20.591,12.541-32.078,15.592c-11.536,3.065-23.464,6.234-32.247,15.694s-9.853,20.3-10.882,30.777c-1.022,10.416-2.079,21.188-10.786,30.566s-20.591,12.541-32.077,15.591c-11.536,3.065-23.464,6.232-32.249,15.695-6.6,7.109-8.617,14.785-9.639,20.7v1.021l.192.015c.986-6.195,2.98-14.235,9.712-21.486,8.713-9.385,20.59-12.54,32.078-15.591,11.536-3.065,23.464-6.234,32.247-15.694s9.851-20.3,10.881-30.776c1.022-10.418,2.08-21.188,10.786-30.568s20.59-12.539,32.079-15.591c11.536-3.065,23.464-6.234,32.247-15.695s9.852-20.3,10.88-30.776c1.023-10.417,2.081-21.19,10.787-30.566s20.589-12.541,32.075-15.592c11.536-3.064,23.465-6.233,32.249-15.7s9.852-20.3,10.88-30.775c1.023-10.418,2.08-21.188,10.785-30.567s20.588-12.539,32.076-15.591c11.537-3.065,23.466-6.234,32.251-15.7s9.85-20.3,10.879-30.775c1.024-10.417,2.081-21.188,10.787-30.567s20.589-12.539,32.076-15.591c11.537-3.064,23.464-6.233,32.247-15.7,9.37-10.091,12.762-21.169,14.844-30.674m-7.214.006.036-.123h-.377l-.019.07c-2.811,9.829-7.012,17.52-13.217,24.2-8.753,9.43-20.688,12.6-32.232,15.668-11.591,3.078-23.577,6.261-32.4,15.77s-9.9,20.4-10.931,30.925c-1.028,10.467-2.092,21.292-10.84,30.714s-20.689,12.6-32.231,15.668c-11.591,3.08-23.577,6.264-32.4,15.772s-9.9,20.4-10.933,30.925c-1.028,10.468-2.092,21.292-10.838,30.714s-20.692,12.6-32.233,15.667c-11.592,3.08-23.579,6.264-32.4,15.771s-9.9,20.4-10.934,30.923c-1.028,10.468-2.09,21.292-10.838,30.715s-20.69,12.6-32.231,15.666c-11.591,3.079-23.578,6.262-32.4,15.77s-9.9,20.4-10.934,30.925c-1.028,10.468-2.091,21.292-10.838,30.714s-20.69,12.6-32.233,15.667c-11.591,3.079-23.577,6.263-32.4,15.769-.691.745-1.352,1.517-1.962,2.291l-.021.027v.588l.173-.222c.658-.845,1.355-1.665,2.075-2.438,8.755-9.432,20.689-12.6,32.231-15.666,11.592-3.08,23.579-6.265,32.4-15.771s9.9-20.4,10.934-30.925c1.028-10.468,2.091-21.291,10.838-30.715s20.688-12.6,32.232-15.668c11.591-3.078,23.577-6.261,32.4-15.768s9.9-20.4,10.934-30.925c1.028-10.468,2.092-21.291,10.84-30.714s20.687-12.6,32.234-15.668c11.591-3.08,23.577-6.264,32.4-15.77s9.9-20.393,10.934-30.925c1.028-10.468,2.092-21.292,10.839-30.714s20.689-12.6,32.232-15.668c11.592-3.08,23.578-6.264,32.4-15.771s9.9-20.4,10.932-30.925c1.028-10.468,2.092-21.291,10.839-30.714s20.689-12.6,32.234-15.667c11.592-3.08,23.577-6.264,32.4-15.771,6.255-6.738,10.486-14.49,13.313-24.4m-7.814.008.051-.133h-.387l-.023.062a55.2,55.2,0,0,1-11.137,17.906c-8.8,9.474-20.786,12.661-32.389,15.744-11.647,3.094-23.69,6.292-32.56,15.844s-9.946,20.5-10.984,31.074c-1.033,10.517-2.1,21.393-10.891,30.862s-20.79,12.662-32.388,15.743c-11.647,3.094-23.691,6.294-32.559,15.846s-9.948,20.5-10.986,31.074c-1.033,10.517-2.1,21.394-10.89,30.86s-20.791,12.663-32.389,15.744c-11.647,3.094-23.69,6.293-32.557,15.845s-9.946,20.495-10.986,31.073c-1.032,10.518-2.1,21.393-10.891,30.863s-20.79,12.662-32.39,15.743c-11.646,3.094-23.689,6.293-32.556,15.845s-9.946,20.5-10.986,31.073c-1.033,10.518-2.1,21.4-10.889,30.863s-20.79,12.661-32.389,15.741c-9.275,2.465-18.865,5.013-26.8,10.754l-.04.029v.448l.154-.113c7.9-5.756,17.5-8.3,26.78-10.768,11.646-3.1,23.688-6.295,32.554-15.845s9.946-20.5,10.985-31.073c1.032-10.518,2.1-21.394,10.891-30.864s20.789-12.662,32.387-15.742c11.647-3.094,23.691-6.292,32.56-15.845s9.946-20.5,10.985-31.074c1.032-10.518,2.1-21.394,10.891-30.863s20.788-12.66,32.385-15.741c11.647-3.094,23.692-6.292,32.561-15.847s9.946-20.493,10.984-31.072c1.033-10.519,2.1-21.4,10.893-30.863s20.789-12.661,32.386-15.742c11.647-3.094,23.69-6.293,32.561-15.847s9.946-20.5,10.984-31.073c1.033-10.518,2.1-21.394,10.891-30.863s20.787-12.66,32.386-15.742c11.647-3.094,23.692-6.292,32.562-15.847a55.579,55.579,0,0,0,11.231-18.08m-8.664.01.076-.143h-.41l-.028.052a54.234,54.234,0,0,1-8.257,11.572c-8.839,9.522-20.89,12.723-32.547,15.819-11.7,3.11-23.8,6.325-32.709,15.92s-9.994,20.594-11.037,31.222c-1.038,10.568-2.11,21.5-10.944,31.011s-20.888,12.723-32.543,15.82c-11.7,3.108-23.8,6.322-32.713,15.92s-10,20.593-11.038,31.228c-1.038,10.566-2.112,21.492-10.943,31s-20.887,12.721-32.547,15.819c-11.7,3.108-23.8,6.323-32.712,15.92s-9.993,20.592-11.037,31.221c-1.038,10.568-2.11,21.5-10.943,31.011s-20.89,12.723-32.543,15.818c-11.7,3.109-23.8,6.323-32.714,15.921s-9.994,20.593-11.037,31.221c-1.038,10.569-2.111,21.5-10.943,31.01s-20.891,12.724-32.544,15.82c-6.444,1.712-13.106,3.481-19.177,6.306l-.056.026v.4l.138-.064c6.057-2.831,12.731-4.6,19.187-6.319,11.7-3.108,23.8-6.323,32.716-15.923s9.994-20.591,11.037-31.222c1.038-10.567,2.112-21.5,10.942-31.008s20.889-12.722,32.543-15.817c11.7-3.109,23.8-6.323,32.716-15.922s9.994-20.592,11.037-31.221c1.038-10.568,2.111-21.5,10.942-31.01s20.89-12.723,32.544-15.819c11.7-3.109,23.8-6.323,32.714-15.921s9.994-20.589,11.039-31.221c1.037-10.568,2.109-21.5,10.942-31.011s20.889-12.722,32.552-15.82c11.7-3.109,23.8-6.324,32.706-15.92s9.994-20.594,11.037-31.221c1.038-10.568,2.109-21.5,10.944-31.011s20.889-12.723,32.548-15.819c11.7-3.109,23.8-6.324,32.709-15.92a54.651,54.651,0,0,0,8.354-11.727m-9.808.012.111-.153h-.445l-.029.04a56.437,56.437,0,0,1-4.283,5.2c-8.882,9.568-20.989,12.783-32.7,15.893-11.757,3.122-23.915,6.351-32.871,16s-10.04,20.689-11.089,31.369c-1.042,10.617-2.119,21.6-11,31.159s-20.989,12.783-32.7,15.894c-11.759,3.125-23.917,6.355-32.868,16s-10.041,20.69-11.089,31.369c-1.042,10.619-2.12,21.6-10.995,31.158s-20.991,12.785-32.7,15.9c-11.757,3.123-23.915,6.352-32.868,16s-10.041,20.688-11.091,31.369c-1.042,10.619-2.119,21.6-10.994,31.159s-20.99,12.783-32.7,15.894c-11.759,3.123-23.918,6.353-32.871,16s-10.041,20.691-11.089,31.369c-1.043,10.62-2.121,21.6-11,31.159s-20.988,12.782-32.7,15.893l-.046.012c-3.792,1.008-7.714,2.051-11.469,3.294l-.066.023v.38l.127-.043c3.786-1.256,7.73-2.3,11.546-3.318,11.758-3.124,23.917-6.354,32.87-16s10.041-20.691,11.089-31.369c1.044-10.619,2.122-21.6,11-31.159s20.988-12.783,32.7-15.9c11.757-3.124,23.915-6.354,32.867-16s10.04-20.69,11.089-31.369c1.042-10.618,2.12-21.6,11-31.159s20.987-12.783,32.7-15.894c11.759-3.124,23.918-6.354,32.869-16s10.041-20.691,11.089-31.37c1.042-10.619,2.12-21.6,11-31.159s20.99-12.783,32.7-15.894c11.758-3.123,23.917-6.353,32.869-16s10.042-20.691,11.091-31.37c1.044-10.618,2.122-21.6,10.995-31.157s20.989-12.784,32.7-15.895c11.758-3.123,23.918-6.354,32.871-16a56.688,56.688,0,0,0,4.382-5.336m-11.329.012.167-.166h-.511l-.028.028c-8.787,8.685-20.43,11.778-31.689,14.769-11.812,3.137-24.028,6.38-33.026,16.071s-10.088,20.787-11.142,31.517c-1.048,10.669-2.131,21.7-11.048,31.308s-21.088,12.844-32.854,15.969c-11.815,3.138-24.032,6.384-33.025,16.073s-10.089,20.787-11.143,31.517c-1.047,10.67-2.131,21.7-11.047,31.307s-21.088,12.844-32.854,15.969c-11.814,3.139-24.031,6.384-33.026,16.073s-10.088,20.788-11.141,31.52c-1.048,10.669-2.133,21.7-11.048,31.305s-21.09,12.844-32.857,15.969c-11.813,3.139-24.028,6.385-33.022,16.072S-546.7-502.3-547.75-491.567c-1.048,10.669-2.131,21.7-11.047,31.305s-21.088,12.845-32.854,15.97c-1.267.336-2.537.674-3.8,1.019l-.071.019v.374l.122-.033q1.917-.522,3.844-1.03c11.814-3.138,24.03-6.384,33.026-16.073s10.088-20.789,11.141-31.52c1.049-10.669,2.133-21.7,11.047-31.305s21.088-12.843,32.86-15.97c11.812-3.138,24.027-6.384,33.02-16.071s10.088-20.788,11.143-31.518c1.047-10.669,2.13-21.7,11.046-31.306s21.09-12.845,32.857-15.97c11.813-3.138,24.029-6.384,33.023-16.072s10.088-20.787,11.142-31.518c1.048-10.669,2.131-21.7,11.047-31.306s21.089-12.845,32.853-15.971c11.815-3.139,24.032-6.383,33.026-16.072s10.09-20.79,11.143-31.52c1.048-10.669,2.131-21.7,11.047-31.305s21.09-12.844,32.854-15.969c11.355-3.015,23.1-6.134,31.969-14.979m-14.414.015.311-.181h-.718l-.023.013c-7.152,4.109-15.368,6.292-23.317,8.4-11.869,3.154-24.142,6.415-33.176,16.148s-10.136,20.88-11.2,31.667c-1.053,10.719-2.14,21.8-11.1,31.455s-21.189,12.9-33.012,16.044c-11.869,3.154-24.142,6.415-33.177,16.148s-10.137,20.886-11.2,31.666c-1.052,10.719-2.14,21.8-11.1,31.457s-21.188,12.9-33.009,16.044c-11.87,3.153-24.143,6.413-33.181,16.148s-10.136,20.885-11.195,31.666c-1.052,10.72-2.141,21.8-11.1,31.455s-21.188,12.905-33.008,16.045c-11.87,3.152-24.143,6.413-33.181,16.148s-10.137,20.886-11.2,31.665c-1.052,10.719-2.142,21.8-11.1,31.454-8.095,8.72-18.791,12.184-29.052,14.986l-.071.019v.375l.122-.034c10.333-2.819,21.1-6.308,29.266-15.1,9.041-9.738,10.135-20.884,11.194-31.663,1.052-10.719,2.14-21.8,11.1-31.455s21.188-12.906,33.014-16.047c11.867-3.153,24.139-6.414,33.174-16.147s10.135-20.886,11.194-31.667c1.053-10.719,2.142-21.8,11.1-31.453s21.184-12.9,33.009-16.045c11.869-3.152,24.142-6.413,33.18-16.147s10.136-20.887,11.195-31.669c1.054-10.72,2.143-21.8,11.1-31.453s21.188-12.905,33.01-16.045c11.868-3.152,24.142-6.412,33.181-16.147s10.135-20.886,11.194-31.666c1.052-10.721,2.14-21.806,11.1-31.456s21.189-12.906,33.009-16.046c8.061-2.14,16.4-4.355,23.651-8.583m-21.966.01.645-.191h-1.264l-.028,0c-2.426.705-4.9,1.361-7.282,1.995-11.926,3.168-24.257,6.444-33.338,16.223s-10.181,20.98-11.245,31.814c-1.057,10.769-2.15,21.905-11.153,31.6s-21.288,12.965-33.164,16.12c-11.925,3.168-24.256,6.444-33.337,16.224s-10.183,20.984-11.247,31.813c-1.057,10.771-2.15,21.908-11.152,31.6s-21.288,12.966-33.168,16.12c-11.924,3.169-24.255,6.444-33.332,16.224s-10.183,20.983-11.247,31.814c-1.057,10.771-2.151,21.907-11.152,31.6s-21.288,12.965-33.165,16.121c-11.925,3.168-24.256,6.444-33.336,16.223s-10.184,20.985-11.247,31.814c-1.057,10.77-2.15,21.907-11.152,31.6-5.224,5.626-11.824,9.555-21.4,12.738l-.066.022v.381l.127-.043c9.665-3.207,16.328-7.171,21.6-12.854,9.083-9.784,10.183-20.983,11.247-31.814,1.058-10.769,2.151-21.906,11.153-31.6s21.288-12.966,33.163-16.12c11.926-3.167,24.257-6.442,33.337-16.224s10.183-20.982,11.247-31.813c1.058-10.771,2.151-21.907,11.152-31.6s21.29-12.967,33.168-16.122c11.924-3.168,24.254-6.444,33.333-16.222s10.183-20.985,11.247-31.816c1.058-10.771,2.151-21.908,11.151-31.6s21.29-12.967,33.165-16.121c11.926-3.168,24.256-6.444,33.336-16.224s10.184-20.979,11.248-31.813c1.057-10.77,2.15-21.906,11.152-31.6s21.288-12.966,33.164-16.12c2.434-.646,5.193-1.379,7.837-2.157m-28.438,0,.512-.188h-1.027l-.034.006c-7.991,2.984-13.915,6.744-18.64,11.833-9.124,9.831-10.229,21.082-11.3,31.964-1.062,10.82-2.161,22.01-11.206,31.751s-21.388,13.027-33.32,16.2c-11.981,3.182-24.37,6.472-33.491,16.3s-10.231,21.082-11.3,31.963c-1.063,10.82-2.162,22.009-11.2,31.75s-21.388,13.027-33.32,16.2c-11.981,3.182-24.37,6.473-33.491,16.3s-10.231,21.081-11.3,31.961c-1.062,10.821-2.161,22.011-11.206,31.752s-21.388,13.027-33.319,16.2c-11.981,3.182-24.37,6.472-33.491,16.3S-569.5-517-570.566-506.124c-1.062,10.821-2.161,22.011-11.2,31.751a43.146,43.146,0,0,1-13.7,9.739l-.056.026v.4l.138-.064a43.551,43.551,0,0,0,13.881-9.854c9.126-9.832,10.231-21.081,11.3-31.962,1.063-10.821,2.162-22.011,11.206-31.751s21.388-13.026,33.321-16.2c11.98-3.183,24.368-6.475,33.489-16.3s10.232-21.081,11.3-31.962c1.063-10.821,2.163-22.01,11.206-31.751s21.388-13.027,33.318-16.2c11.981-3.183,24.37-6.473,33.492-16.3s10.231-21.081,11.3-31.961c1.063-10.822,2.162-22.012,11.2-31.753s21.387-13.026,33.319-16.2c11.981-3.183,24.371-6.474,33.493-16.3s10.231-21.081,11.3-31.962c1.062-10.821,2.161-22.011,11.2-31.752,4.757-5.125,10.772-8.9,18.925-11.9m-19.053-.011.25-.176h-.625l-.025.018a40.738,40.738,0,0,0-6.151,5.4c-9.167,9.873-10.278,21.174-11.352,32.11-1.067,10.87-2.171,22.111-11.257,31.9s-21.487,13.088-33.475,16.272c-12.036,3.2-24.482,6.5-33.648,16.376s-10.278,21.18-11.351,32.112c-1.068,10.871-2.172,22.111-11.257,31.9s-21.488,13.087-33.474,16.271c-12.037,3.2-24.484,6.5-33.648,16.375s-10.278,21.178-11.352,32.111c-1.067,10.871-2.171,22.112-11.256,31.9s-21.488,13.086-33.475,16.271c-12.037,3.2-24.483,6.5-33.648,16.374s-10.277,21.177-11.352,32.11c-1.067,10.872-2.171,22.113-11.257,31.9a40.364,40.364,0,0,1-5.946,5.246l-.04.029v.444l.153-.109a40.869,40.869,0,0,0,6.1-5.364c9.167-9.876,10.277-21.179,11.35-32.11,1.068-10.872,2.172-22.114,11.258-31.9s21.487-13.087,33.475-16.272c12.036-3.2,24.482-6.5,33.648-16.374s10.277-21.179,11.35-32.111c1.068-10.872,2.171-22.114,11.258-31.9s21.486-13.086,33.474-16.272c12.036-3.2,24.48-6.5,33.648-16.374s10.277-21.179,11.351-32.11c1.068-10.872,2.171-22.114,11.258-31.9s21.488-13.088,33.475-16.273c12.036-3.2,24.482-6.5,33.647-16.375s10.278-21.179,11.351-32.11c1.067-10.871,2.17-22.111,11.258-31.9a40.312,40.312,0,0,1,6.288-5.49m-13.62-.016.139-.16h-.477l-.029.033c-8.327,9.651-9.4,20.6-10.443,31.186-1.073,10.921-2.183,22.214-11.309,32.045s-21.591,13.15-33.633,16.348c-12.091,3.212-24.594,6.534-33.8,16.45s-10.325,21.277-11.4,32.26c-1.073,10.921-2.182,22.214-11.31,32.047s-21.584,13.147-33.63,16.347c-12.092,3.211-24.595,6.532-33.8,16.45s-10.325,21.277-11.4,32.258c-1.073,10.922-2.181,22.216-11.31,32.048s-21.588,13.149-33.631,16.348c-12.092,3.213-24.595,6.534-33.8,16.449s-10.324,21.274-11.4,32.258c-.994,10.13-2.023,20.6-9.451,29.892l-.021.026v.575l.172-.212c7.613-9.411,8.654-20,9.66-30.246,1.073-10.921,2.181-22.215,11.309-32.048s21.586-13.147,33.628-16.346c12.093-3.212,24.6-6.533,33.8-16.451s10.326-21.278,11.4-32.259c1.072-10.921,2.181-22.214,11.309-32.047s21.586-13.148,33.629-16.347c12.093-3.212,24.6-6.534,33.8-16.45s10.326-21.277,11.4-32.259c1.073-10.922,2.182-22.216,11.309-32.048s21.587-13.148,33.63-16.347c12.091-3.212,24.6-6.533,33.8-16.452s10.324-21.274,11.4-32.256c1.038-10.569,2.109-21.5,10.451-31.093m-11.059-.017.078-.143h-.414l-.027.051c-4.313,7.921-5.156,16.508-5.971,24.814-1.077,10.972-2.191,22.319-11.361,32.195s-21.688,13.209-33.787,16.423c-12.147,3.228-24.709,6.565-33.957,16.526s-10.373,21.373-11.457,32.406c-1.077,10.972-2.191,22.318-11.362,32.2s-21.687,13.21-33.786,16.423c-12.146,3.226-24.707,6.563-33.958,16.526s-10.373,21.375-11.457,32.407c-1.076,10.972-2.189,22.317-11.361,32.2s-21.689,13.21-33.786,16.424c-12.148,3.226-24.71,6.563-33.957,16.526s-10.372,21.374-11.457,32.406a125.036,125.036,0,0,1-1.643,12.42v1.727l.191-.889A117.2,117.2,0,0,0-593.523-521c1.077-10.972,2.192-22.318,11.361-32.2s21.688-13.21,33.786-16.423c12.148-3.227,24.71-6.564,33.958-16.526s10.373-21.374,11.457-32.408c1.077-10.972,2.192-22.317,11.362-32.194s21.687-13.209,33.785-16.423c12.147-3.227,24.708-6.563,33.959-16.526s10.373-21.374,11.457-32.41c1.078-10.972,2.192-22.317,11.361-32.192s21.686-13.208,33.786-16.423c12.147-3.226,24.708-6.563,33.957-16.526s10.374-21.375,11.456-32.406c.814-8.293,1.656-16.87,5.976-24.756m-9.419-.015.042-.127h-.381l-.022.067c-1.975,6-2.594,12.3-3.193,18.4-1.083,11.023-2.2,22.422-11.414,32.345s-21.786,13.269-33.943,16.5c-12.2,3.242-24.822,6.594-34.112,16.6s-10.42,21.471-11.509,32.555c-1.083,11.023-2.2,22.421-11.413,32.344s-21.788,13.269-33.942,16.5c-12.2,3.242-24.822,6.594-34.114,16.6s-10.419,21.47-11.508,32.554c-1.083,11.023-2.2,22.421-11.413,32.344s-21.785,13.268-33.943,16.5c-12.2,3.242-24.822,6.594-34.113,16.6a37.872,37.872,0,0,0-5.252,7.163l-.013.022v.746l.181-.329A36.962,36.962,0,0,1-590-558.395c9.219-9.931,21.785-13.269,33.942-16.5,12.2-3.242,24.823-6.594,34.114-16.6s10.421-21.471,11.509-32.559c1.083-11.021,2.2-22.418,11.413-32.339s21.785-13.269,33.941-16.5c12.2-3.242,24.823-6.593,34.114-16.6s10.42-21.471,11.508-32.554c1.082-11.022,2.2-22.419,11.413-32.344s21.789-13.27,33.945-16.5c12.2-3.242,24.82-6.594,34.11-16.6s10.421-21.473,11.509-32.567c.6-6.092,1.22-12.39,3.2-18.365m-8.352-.012.022-.115h-.367l-.016.079c-.755,3.932-1.152,7.984-1.538,11.9l0,.05C-336.624-815.448-337.749-804-347-794.028s-21.88,13.329-34.1,16.575c-12.259,3.256-24.935,6.623-34.268,16.676s-10.467,21.569-11.561,32.7c-1.087,11.073-2.212,22.523-11.466,32.492s-21.889,13.332-34.1,16.576c-12.259,3.256-24.936,6.623-34.269,16.677s-10.467,21.568-11.56,32.7c-1.087,11.074-2.212,22.525-11.467,32.493s-21.888,13.331-34.1,16.574c-11.125,2.956-22.63,6.011-31.607,14.061l-.032.029v.487l.162-.146c8.929-8.068,20.438-11.125,31.569-14.082,12.259-3.256,24.934-6.623,34.269-16.676s10.468-21.571,11.561-32.709c1.088-11.072,2.212-22.52,11.466-32.487s21.886-13.33,34.1-16.574c12.26-3.256,24.935-6.623,34.269-16.678s10.467-21.566,11.561-32.7c1.089-11.073,2.214-22.524,11.467-32.491s21.888-13.331,34.1-16.574c12.258-3.257,24.933-6.625,34.263-16.677s10.468-21.57,11.561-32.7l0-.046c.385-3.922.783-7.977,1.54-11.906m-7.732-.007.013-.109h-.363l-.01.086c-.219,1.865-.405,3.779-.57,5.471-1.093,11.123-2.223,22.625-11.519,32.637s-21.988,13.392-34.252,16.65c-12.315,3.272-25.048,6.655-34.424,16.753s-10.515,21.668-11.613,32.854c-1.093,11.123-2.223,22.625-11.519,32.638s-21.983,13.39-34.251,16.65c-12.315,3.27-25.048,6.651-34.424,16.753s-10.515,21.667-11.613,32.85c-1.092,11.124-2.222,22.627-11.519,32.64s-21.987,13.393-34.252,16.65c-8.088,2.149-16.452,4.371-23.791,8.479l-.05.028V-577l.144-.081c7.325-4.119,15.7-6.342,23.79-8.493,12.314-3.269,25.047-6.651,34.423-16.753s10.516-21.667,11.614-32.85c1.093-11.124,2.223-22.627,11.519-32.64s21.987-13.393,34.257-16.651c12.313-3.272,25.044-6.655,34.419-16.752s10.514-21.667,11.613-32.851c1.093-11.124,2.222-22.627,11.518-32.64s21.983-13.39,34.253-16.65c12.315-3.271,25.048-6.654,34.423-16.753s10.516-21.667,11.614-32.85c.2-2.031.367-3.724.572-5.48m-7.5,0,.01-.107h-.361l-.008.088c-1.007,10.168-2.147,21.692-11.468,31.732-9.347,10.068-22.087,13.452-34.41,16.725-12.37,3.286-25.161,6.684-34.577,16.828s-10.562,21.764-11.667,33c-1.1,11.174-2.231,22.727-11.571,32.787S-475-693.94-487.324-690.666c-12.369,3.287-25.158,6.685-34.575,16.827s-10.562,21.766-11.666,33c-1.1,11.174-2.231,22.729-11.571,32.79s-22.087,13.452-34.408,16.724a158.836,158.836,0,0,0-15.92,4.832l-.062.023v.387l.132-.05a157.467,157.467,0,0,1,15.945-4.843c12.37-3.287,25.161-6.685,34.577-16.828s10.562-21.766,11.665-33c1.1-11.175,2.232-22.729,11.571-32.789s22.087-13.451,34.408-16.725c12.37-3.286,25.161-6.684,34.58-16.829s10.561-21.763,11.664-33c1.1-11.175,2.233-22.73,11.573-32.791S-407.327-786.386-395-789.66c12.37-3.286,25.161-6.685,34.579-16.828s10.551-21.728,11.561-31.958m-7.619,0,.014-.11h-.363l-.011.084c-1.123,8.326-3.205,17.156-10.782,25.318-9.388,10.112-22.186,13.513-34.563,16.8-12.426,3.3-25.275,6.713-34.735,16.9s-10.609,21.86-11.718,33.147c-1.1,11.223-2.24,22.83-11.623,32.936s-22.187,13.515-34.565,16.8c-12.425,3.3-25.275,6.716-34.733,16.9s-10.609,21.859-11.718,33.152c-1.1,11.223-2.243,22.828-11.622,32.932s-22.186,13.513-34.573,16.8c-2.626.7-5.342,1.42-7.981,2.194l-.07.02v.377l.124-.036c2.679-.787,5.4-1.51,8.033-2.209,12.424-3.3,25.273-6.715,34.731-16.9s10.61-21.863,11.717-33.149c1.1-11.224,2.243-22.831,11.624-32.935s22.187-13.514,34.562-16.8c12.426-3.3,25.275-6.716,34.736-16.905s10.609-21.863,11.717-33.147c1.1-11.225,2.243-22.832,11.624-32.937s22.186-13.512,34.574-16.8c12.422-3.3,25.268-6.715,34.723-16.9,7.649-8.238,9.749-17.142,10.879-25.537m-8.108.009.026-.119h-.37l-.017.075a39.4,39.4,0,0,1-9.671,18.864c-9.431,10.158-22.286,13.573-34.717,16.876-12.481,3.314-25.387,6.743-34.89,16.979S-454.886-763.8-456-752.464c-1.107,11.275-2.252,22.934-11.675,33.084S-489.962-705.8-502.4-702.5c-12.48,3.317-25.385,6.745-34.886,16.979s-10.657,21.96-11.771,33.3c-1.107,11.275-2.251,22.933-11.675,33.085s-22.287,13.574-34.725,16.877l-.071.02v.374l.17-.047c12.481-3.314,25.387-6.742,34.891-16.978s10.657-21.962,11.769-33.3c1.107-11.275,2.252-22.935,11.676-33.086s22.285-13.573,34.717-16.876c12.481-3.315,25.388-6.743,34.892-16.981s10.656-21.959,11.771-33.294c1.107-11.275,2.25-22.933,11.675-33.084s22.285-13.573,34.718-16.877c12.481-3.315,25.387-6.744,34.89-16.979a39.769,39.769,0,0,0,9.767-19.065m-9,.012.051-.132h-.388l-.024.062a37.969,37.969,0,0,1-7.732,12.368c-9.471,10.2-22.382,13.633-34.874,16.952-12.537,3.331-25.5,6.775-35.046,17.056s-10.7,22.057-11.822,33.443c-1.112,11.326-2.263,23.037-11.728,33.233s-22.386,13.634-34.875,16.952c-12.536,3.331-25.5,6.774-35.044,17.054s-10.7,22.059-11.822,33.444c-1.112,11.325-2.262,23.037-11.729,33.234-7.708,8.3-17.452,11.993-26.832,14.742l-.07.02v.377l.124-.036c9.45-2.766,19.267-6.482,27.042-14.857,9.549-10.286,10.706-22.059,11.824-33.445,1.113-11.326,2.263-23.037,11.729-33.233s22.385-13.633,34.877-16.952c12.535-3.33,25.5-6.775,35.041-17.054s10.705-22.059,11.823-33.444c1.112-11.325,2.262-23.037,11.728-33.232s22.386-13.635,34.874-16.953c12.537-3.331,25.5-6.775,35.044-17.055a38.318,38.318,0,0,0,7.83-12.544m-10.376.016.092-.148h-.425l-.029.046a39.087,39.087,0,0,1-4.482,5.829c-9.515,10.25-22.485,13.7-35.03,17.028-12.594,3.345-25.616,6.806-35.2,17.131s-10.751,22.155-11.875,33.591c-1.117,11.376-2.271,23.139-11.781,33.382s-22.485,13.7-35.027,17.028c-12.592,3.344-25.612,6.8-35.2,17.131s-10.752,22.155-11.875,33.59c-1.117,11.376-2.271,23.139-11.781,33.381-4.822,5.2-10.823,9.05-18.884,12.132l-.062.023v.388l.131-.05c8.144-3.105,14.206-7,19.08-12.246,9.591-10.331,10.752-22.156,11.874-33.591,1.117-11.376,2.272-23.139,11.781-33.38s22.486-13.7,35.029-17.028c12.593-3.345,25.613-6.805,35.2-17.132s10.752-22.155,11.875-33.591c1.117-11.376,2.272-23.139,11.781-33.381s22.485-13.695,35.03-17.028c12.593-3.345,25.613-6.8,35.2-17.131a39.489,39.489,0,0,0,4.579-5.972m-12.383.016.159-.164h-.5l-.029.029c-9.477,9.711-22.18,13.085-34.463,16.347-12.649,3.36-25.728,6.834-35.357,17.207s-10.8,22.253-11.928,33.738c-1.121,11.427-2.281,23.242-11.833,33.53s-22.584,13.756-35.183,17.1c-12.648,3.36-25.728,6.835-35.357,17.206s-10.8,22.255-11.927,33.741c-1.122,11.426-2.283,23.241-11.833,33.528a43.543,43.543,0,0,1-10.874,8.452l-.05.028v.413l.143-.08a43.92,43.92,0,0,0,11.045-8.568c9.632-10.376,10.8-22.253,11.926-33.74,1.123-11.426,2.283-23.243,11.833-33.528s22.586-13.756,35.188-17.1c12.647-3.36,25.725-6.835,35.352-17.206s10.8-22.254,11.928-33.742c1.123-11.426,2.284-23.24,11.833-33.526s22.584-13.756,35.184-17.1c12.381-3.288,25.183-6.689,34.744-16.561m-15.541.015.286-.179h-.684l-.023.014c-7.974,4.924-17.282,7.4-26.29,9.79-12.7,3.375-25.84,6.865-35.509,17.282s-10.847,22.351-11.981,33.888c-1.127,11.476-2.292,23.343-11.884,33.678s-22.686,13.817-35.341,17.178c-12.7,3.375-25.84,6.864-35.51,17.281s-10.846,22.35-11.98,33.889c-1.128,11.476-2.292,23.343-11.885,33.677-.893.959-1.835,1.884-2.8,2.747l-.033.029v.481l.161-.143c1.028-.913,2.016-1.878,2.936-2.868,9.677-10.424,10.848-22.352,11.98-33.888,1.127-11.477,2.292-23.344,11.886-33.678s22.683-13.816,35.34-17.179c12.7-3.374,25.84-6.864,35.51-17.28s10.846-22.351,11.98-33.889c1.127-11.477,2.291-23.344,11.884-33.677s22.686-13.818,35.34-17.18c9.116-2.421,18.542-4.925,26.617-9.973m-22.359.01.585-.189h-1.163l-.029,0c-3.669,1.167-7.48,2.181-11.166,3.16l-.059.016c-12.76,3.39-25.955,6.895-35.668,17.357s-10.893,22.448-12.032,34.037c-1.132,11.528-2.3,23.447-11.937,33.826s-22.786,13.878-35.5,17.255c-12.759,3.388-25.951,6.892-35.667,17.356s-10.894,22.45-12.031,34.037c-.876,8.917-1.782,18.138-6.6,26.584l-.013.023v.725l.181-.312c4.984-8.582,5.9-17.937,6.79-26.985,1.132-11.527,2.3-23.447,11.938-33.826s22.783-13.876,35.494-17.253c12.76-3.39,25.954-6.895,35.669-17.358s10.893-22.449,12.032-34.041c1.132-11.526,2.3-23.446,11.936-33.822s22.786-13.878,35.515-17.258c3.872-1.029,7.874-2.093,11.722-3.336m-31.005,0,.586-.189h-1.157l-.03.005c-7.133,2.336-16.26,6.031-23.6,13.937-9.76,10.513-10.942,22.548-12.084,34.185-1.136,11.578-2.312,23.549-11.991,33.974s-22.884,13.938-35.649,17.329C-562-735.718-575.249-732.2-585-721.688c-5.547,5.974-8.791,12.741-10.521,21.962v.941l.192.017c1.13-6.461,3.355-14.877,10.594-22.675,9.684-10.433,22.885-13.939,35.651-17.33,12.815-3.4,26.066-6.925,35.821-17.432s10.941-22.546,12.085-34.184c1.136-11.578,2.311-23.55,11.99-33.975,7.372-7.942,16.665-11.653,23.937-14M-488-838.373l.287-.179h-.68l-.024.015a43.677,43.677,0,0,0-8.816,7.281c-9.8,10.555-10.987,22.641-12.136,34.332-1.141,11.627-2.321,23.652-12.042,34.123s-22.985,14-35.806,17.406c-12.871,3.419-26.18,6.953-35.977,17.507-.81.873-1.586,1.785-2.307,2.709l-.02.026v.59l.174-.226c.747-.969,1.561-1.93,2.419-2.855,9.729-10.479,22.985-14,35.805-17.4,12.871-3.419,26.18-6.955,35.977-17.509s10.989-22.642,12.139-34.334c1.141-11.627,2.321-23.651,12.041-34.121A43.349,43.349,0,0,1-488-838.373m-16.17-.016.16-.164h-.5l-.029.029c-.181.189-.362.378-.54.571-9.844,10.6-11.036,22.741-12.189,34.48-1.146,11.678-2.332,23.753-12.094,34.27s-23.085,14.061-35.962,17.482c-10.455,2.777-21.267,5.648-30.155,12.24l-.04.029V-739l.155-.115c8.853-6.6,19.67-9.476,30.132-12.255,12.926-3.433,26.292-6.984,36.135-17.586s11.035-22.741,12.187-34.479c1.147-11.679,2.333-23.755,12.1-34.27.213-.232.429-.457.648-.682m-13.217-.016.093-.149h-.427l-.029.046c-5.59,9.007-6.559,18.884-7.5,28.437-1.151,11.728-2.343,23.857-12.146,34.416s-23.184,14.121-36.119,17.557c-7.4,1.965-15.045,4-21.956,7.318l-.055.027v.4l.139-.068c6.9-3.328,14.561-5.363,21.966-7.331,12.982-3.448,26.406-7.014,36.289-17.659s11.082-22.837,12.24-34.628c.937-9.54,1.906-19.405,7.5-28.367m-11.384-.017.05-.132h-.388l-.024.062c-2.718,7.05-3.452,14.525-4.164,21.764-1.155,11.779-2.35,23.959-12.2,34.566s-23.282,14.181-36.273,17.633c-4.532,1.2-9.218,2.45-13.689,3.976l-.065.022v.382l.128-.044c4.491-1.536,9.182-2.782,13.719-3.987,13.038-3.463,26.519-7.044,36.445-17.736s11.13-22.936,12.294-34.777c.709-7.226,1.442-14.7,4.165-21.729m-10.163-.012.027-.119h-.371l-.017.075a119.932,119.932,0,0,0-2.126,15.044c-1.162,11.829-2.363,24.063-12.25,34.713s-23.382,14.242-36.428,17.708c-1.559.414-3.5.929-5.351,1.441l-.071.019v.375l.122-.034c1.834-.508,3.725-1.01,5.393-1.453,13.093-3.478,26.633-7.075,36.6-17.811s11.178-23.035,12.345-34.924a119.035,119.035,0,0,1,2.129-15.035m-9.41-.009.015-.11h-.363l-.012.084c-.373,2.729-.648,5.52-.914,8.218l-.005.056c-1.166,11.881-2.373,24.166-12.3,34.862-9.081,9.781-21.04,13.607-33.525,16.967l-.071.019v.373l.122-.033c12.559-3.38,24.59-7.229,33.738-17.082,10.013-10.786,11.226-23.133,12.4-35.074.266-2.712.541-5.515.92-8.281m-9.2,1.464.154-1.574h-.362l-.151,1.539c-1.172,11.932-2.383,24.27-12.356,35.012-7.7,8.291-17.509,12.155-25.2,14.6l-.068.022v.379l.126-.04c7.749-2.456,17.638-6.348,25.4-14.71,10.055-10.833,11.272-23.232,12.449-35.223m-8.921-1.466.012-.108h-.363l-.009.086c-1.072,9.368-2.959,20.165-11.846,29.738a48.885,48.885,0,0,1-16.792,11.516l-.058.025v.395l.136-.059a49.286,49.286,0,0,0,16.98-11.631c8.963-9.655,10.864-20.528,11.942-29.961m-9.437.007.021-.115h-.367l-.015.08c-1.769,9.665-5.132,16.746-10.9,22.961a44.529,44.529,0,0,1-8.314,7l-.043.029v.432l.15-.1a44.967,44.967,0,0,0,8.472-7.116c5.825-6.275,9.216-13.421,11-23.171m-10.207.011.039-.126h-.377l-.022.068a41.125,41.125,0,0,1-9.027,15.861l-.026.029v.532l.168-.183a41.471,41.471,0,0,0,9.245-16.182" class="a" transform="translate(595.525 838.553)"/>
            </g>
        </g>
    </g>
</svg>
