<?xml version="1.0" encoding="UTF-8" ?>
<!DOCTYPE svg PUBLIC "-//W3C//DTD SVG 1.1//EN" "http://www.w3.org/Graphics/SVG/1.1/DTD/svg11.dtd">
<svg width="35px" height="27px" viewBox="0 0 35 27" version="1.1" xmlns="http://www.w3.org/2000/svg">
<g id="#0604040b">
<path fill="#060404" opacity="0.04" d=" M 0.00 0.00 L 3.07 0.00 L 3.37 0.42 C 2.39 1.41 1.27 2.28 0.00 2.89 L 0.00 0.00 Z" />
</g>
<g id="#a0616aff">
<path fill="#a0616a" opacity="1.00" d=" M 3.07 0.00 L 3.82 0.00 C 9.64 3.41 15.08 7.46 20.25 11.77 C 22.82 14.23 25.91 16.53 27.14 19.99 C 27.75 22.33 24.87 23.36 23.05 23.13 C 17.93 22.67 13.94 18.97 10.41 15.58 C 6.55 11.78 3.11 7.58 0.00 3.15 L 0.00 2.89 C 1.27 2.28 2.39 1.41 3.37 0.42 L 3.07 0.00 Z" />
</g>
</svg>
