<svg xmlns="http://www.w3.org/2000/svg" xmlns:xlink="http://www.w3.org/1999/xlink" width="37" height="37" viewBox="0 0 37 37"><defs><style>.a{fill:none;}.b{clip-path:url(#a);}.c{fill:#eee;stroke:#fff;stroke-width:3px;}.d{clip-path:url(#b);}.e{fill:rgba(255,255,255,0);stroke:rgba(0,0,0,0);}.f{fill:#a3a3a3;}.g{stroke:none;}</style><clipPath id="a"><rect class="a" width="37" height="37"/></clipPath><clipPath id="b"><rect class="a" width="19.566" height="19.567"/></clipPath></defs><g class="b"><circle class="c" cx="17" cy="17" r="17" transform="translate(1.5 1.5)"/><g class="d" transform="translate(8.5 8.5)"><g class="e"><rect class="g" width="19.566" height="19.567"/><rect class="a" x="0.5" y="0.5" width="18.566" height="18.567"/></g><g transform="translate(17.269 3.729)"><path class="f" d="M0,0A1.013,1.013,0,0,0,0-1.432a1.013,1.013,0,0,0-1.432,0L-7.486,4.623l-6.055-6.055a1.012,1.012,0,0,0-1.432,0,1.013,1.013,0,0,0,0,1.432l6.055,6.054-6.055,6.055a1.013,1.013,0,0,0,0,1.432,1.009,1.009,0,0,0,.716.3,1.009,1.009,0,0,0,.716-.3l6.055-6.055,6.054,6.054a1.009,1.009,0,0,0,.716.3A1.009,1.009,0,0,0,0,13.54a1.012,1.012,0,0,0,0-1.431L-6.054,6.054Z"/></g></g></g></svg>