<svg xmlns="http://www.w3.org/2000/svg" xmlns:xlink="http://www.w3.org/1999/xlink" width="90" height="90" viewBox="0 0 90 90"><defs><style>.a{fill:#cbcbcb;}.b{fill:none;}.c{clip-path:url(#a);}.d{clip-path:url(#b);}.e{fill:#eee;}.f{fill:#00afff;}</style><clipPath id="a"><rect class="b" width="90" height="90"/></clipPath><clipPath id="b"><path class="a" d="M0-3.543H90v-90H0Z" transform="translate(0 93.543)"/></clipPath></defs><g class="c"><g class="d"><g transform="translate(0 -0.001)"><path class="e" d="M-3.543-1.772a45,45,0,0,0-45-45,45,45,0,0,0-45,45,45,45,0,0,0,45,45,45,45,0,0,0,45-45m-10.818,0A34.182,34.182,0,0,1-48.543,32.41,34.181,34.181,0,0,1-82.725-1.772,34.182,34.182,0,0,1-48.543-35.955,34.182,34.182,0,0,1-14.361-1.772" transform="translate(93.543 46.773)"/></g><g transform="translate(0 39.899)"><path class="f" d="M-1.758-1.972A44.715,44.715,0,0,1-46.422-46.637a5.436,5.436,0,0,1,5.436-5.436,5.436,5.436,0,0,1,5.437,5.436A33.83,33.83,0,0,0-1.758-12.844,5.436,5.436,0,0,1,3.678-7.408,5.436,5.436,0,0,1-1.758-1.972" transform="translate(46.422 52.073)"/></g></g></g></svg>