<?xml version="1.0" encoding="UTF-8" ?>
<!DOCTYPE svg PUBLIC "-//W3C//DTD SVG 1.1//EN" "http://www.w3.org/Graphics/SVG/1.1/DTD/svg11.dtd">
<svg width="61px" height="51px" viewBox="0 0 61 51" version="1.1" xmlns="http://www.w3.org/2000/svg">
<g id="#ec8c9cff">
<path fill="#ec8c9c" opacity="1.00" d=" M 53.39 3.50 C 56.77 1.92 61.12 6.49 58.72 9.62 C 55.93 14.68 53.03 19.68 50.21 24.73 C 50.23 26.03 50.20 27.33 50.17 28.63 L 49.69 28.67 C 48.95 28.73 47.48 28.85 46.75 28.92 C 44.35 25.95 43.44 22.21 42.73 18.54 C 46.57 15.52 49.96 11.61 51.53 6.92 C 52.05 5.75 52.20 4.23 53.39 3.50 Z" />
</g>
<g id="#9f6a9dff">
<path fill="#9f6a9d" opacity="1.00" d=" M 1.68 31.10 C 2.96 25.77 3.76 18.94 9.09 16.05 C 14.74 13.74 18.98 19.37 23.83 21.15 C 27.30 22.38 31.24 24.67 34.89 22.82 C 37.70 21.80 40.44 20.50 42.73 18.54 C 43.44 22.21 44.35 25.95 46.75 28.92 C 44.14 31.51 42.28 35.20 38.69 36.56 C 31.04 38.04 23.27 36.14 15.92 34.03 C 13.50 33.22 10.93 33.18 8.52 34.05 C 8.43 34.94 8.23 36.74 8.13 37.64 C 7.23 39.55 5.59 41.01 4.23 42.60 C -0.11 40.46 1.24 34.97 1.68 31.10 Z" />
</g>
<g id="#8f5f8dff">
<path fill="#8f5f8d" opacity="1.00" d=" M 38.69 36.56 C 42.28 35.20 44.14 31.51 46.75 28.92 C 47.48 28.85 48.95 28.73 49.69 28.67 C 46.37 32.32 43.59 36.57 39.69 39.63 C 34.55 41.22 29.07 40.25 23.85 39.60 C 18.63 38.91 13.40 35.22 8.13 37.64 C 8.23 36.74 8.43 34.94 8.52 34.05 C 10.93 33.18 13.50 33.22 15.92 34.03 C 23.27 36.14 31.04 38.04 38.69 36.56 Z" />
</g>
</svg>
