<?xml version="1.0" encoding="UTF-8" ?>
<!DOCTYPE svg PUBLIC "-//W3C//DTD SVG 1.1//EN" "http://www.w3.org/Graphics/SVG/1.1/DTD/svg11.dtd">
<svg width="8px" height="5px" viewBox="0 0 8 5" version="1.1" xmlns="http://www.w3.org/2000/svg">
<g id="#90662595">
<path fill="#906625" opacity="0.58" d=" M 0.00 0.00 L 8.00 0.00 L 8.00 5.00 L 0.00 5.00 L 0.00 0.00 M 0.70 0.63 C 0.69 1.48 0.66 3.16 0.65 4.00 C 2.76 3.96 4.87 3.94 6.99 3.95 C 6.99 3.12 6.99 1.46 6.99 0.64 C 4.89 0.63 2.80 0.63 0.70 0.63 Z" />
</g>
<g id="#f8af40ff">
<path fill="#f8af40" opacity="1.00" d=" M 0.70 0.63 C 2.80 0.63 4.89 0.63 6.99 0.64 C 6.99 1.46 6.99 3.12 6.99 3.95 C 4.87 3.94 2.76 3.96 0.65 4.00 C 0.66 3.16 0.69 1.48 0.70 0.63 Z" />
</g>
</svg>
