<?xml version="1.0" encoding="UTF-8" ?>
<!DOCTYPE svg PUBLIC "-//W3C//DTD SVG 1.1//EN" "http://www.w3.org/Graphics/SVG/1.1/DTD/svg11.dtd">
<svg width="532px" height="51px" viewBox="0 0 532 51" version="1.1" xmlns="http://www.w3.org/2000/svg">
<g id="#a3a3a3ff">
<path fill="#a3a3a3" opacity="1.00" d=" M 490.33 6.26 C 495.40 3.58 501.23 2.43 506.94 2.47 C 508.57 2.58 510.79 2.59 511.56 4.35 C 514.62 10.53 520.02 15.38 522.26 21.99 C 523.12 24.26 522.31 27.17 519.63 27.52 C 515.54 27.95 511.41 27.65 507.31 27.71 C 497.84 27.26 488.24 26.61 479.11 23.93 C 475.46 22.87 474.32 18.81 473.66 15.52 C 473.27 13.58 473.01 11.62 472.72 9.67 C 478.65 9.16 484.96 9.19 490.33 6.26 Z" />
<path fill="#a3a3a3" opacity="1.00" d=" M 27.18 12.13 C 33.82 10.73 40.50 13.91 46.31 16.86 C 52.39 22.15 60.25 24.27 67.95 25.92 C 66.97 29.08 65.96 32.28 64.24 35.14 L 64.31 33.88 C 61.86 35.86 59.40 38.30 55.99 38.22 C 44.31 39.07 32.59 37.75 21.01 36.32 C 17.31 35.94 13.79 34.68 10.39 33.26 C 13.33 24.37 22.05 19.55 27.18 12.13 Z" />
</g>
<g id="#eeeeeeff">
<path fill="#eeeeee" opacity="1.00" d=" M 79.97 11.99 C 133.13 6.33 186.63 4.70 240.04 4.00 C 295.05 3.70 350.08 4.49 404.97 8.25 C 427.94 9.92 450.94 11.73 473.66 15.52 C 474.32 18.81 475.46 22.87 479.11 23.93 C 488.24 26.61 497.84 27.26 507.31 27.71 C 505.09 31.82 500.24 33.01 496.16 34.42 C 484.09 38.00 471.58 39.73 459.13 41.42 C 410.59 47.39 361.64 49.26 312.78 50.39 C 276.17 51.22 239.54 51.07 202.94 50.10 C 163.10 49.09 123.25 47.26 83.59 43.18 C 75.46 42.26 67.31 41.42 59.24 40.05 C 61.25 38.83 63.17 37.30 64.24 35.14 C 65.96 32.28 66.97 29.08 67.95 25.92 C 60.25 24.27 52.39 22.15 46.31 16.86 C 57.44 14.68 68.70 13.26 79.97 11.99 Z" />
</g>
<g id="#828282ff">
<path fill="#828282" opacity="1.00" d=" M 10.39 33.26 C 13.79 34.68 17.31 35.94 21.01 36.32 C 32.59 37.75 44.31 39.07 55.99 38.22 C 59.40 38.30 61.86 35.86 64.31 33.88 L 64.24 35.14 C 63.17 37.30 61.25 38.83 59.24 40.05 C 46.03 41.37 32.73 39.97 19.63 38.19 C 16.15 37.65 11.54 37.31 10.39 33.26 Z" />
</g>
</svg>
