<?xml version="1.0" encoding="UTF-8" ?>
<!DOCTYPE svg PUBLIC "-//W3C//DTD SVG 1.1//EN" "http://www.w3.org/Graphics/SVG/1.1/DTD/svg11.dtd">
<svg width="5px" height="8px" viewBox="0 0 5 8" version="1.1" xmlns="http://www.w3.org/2000/svg">
<g id="#91662596">
<path fill="#916625" opacity="0.59" d=" M 0.00 0.00 L 5.00 0.00 L 5.00 8.00 L 0.00 8.00 L 0.00 0.00 M 0.62 0.75 C 0.60 2.83 0.64 4.91 0.60 6.99 C 1.45 6.99 3.14 6.99 3.99 6.99 C 3.98 4.86 3.98 2.74 4.00 0.62 C 3.15 0.65 1.46 0.72 0.62 0.75 Z" />
</g>
<g id="#f8af40ff">
<path fill="#f8af40" opacity="1.00" d=" M 0.62 0.75 C 1.46 0.72 3.15 0.65 4.00 0.62 C 3.98 2.74 3.98 4.86 3.99 6.99 C 3.14 6.99 1.45 6.99 0.60 6.99 C 0.64 4.91 0.60 2.83 0.62 0.75 Z" />
</g>
</svg>
