<?xml version="1.0" encoding="UTF-8" ?>
<!DOCTYPE svg PUBLIC "-//W3C//DTD SVG 1.1//EN" "http://www.w3.org/Graphics/SVG/1.1/DTD/svg11.dtd">
<svg width="60px" height="77px" viewBox="0 0 60 77" version="1.1" xmlns="http://www.w3.org/2000/svg">
<g id="#9f6a9dff">
<path fill="#9f6a9d" opacity="1.00" d=" M 38.89 4.99 C 45.92 4.13 53.03 3.35 59.52 0.23 C 59.42 2.47 59.45 4.71 59.51 6.95 C 51.25 11.75 49.04 22.18 50.17 31.01 C 51.66 41.35 53.33 51.66 54.37 62.05 C 55.00 66.65 52.72 70.93 52.30 75.45 C 47.18 75.50 42.05 75.69 36.94 75.99 C 36.18 72.51 35.10 68.87 36.13 65.32 C 38.25 58.40 39.19 51.20 40.03 44.03 C 39.98 38.53 35.83 33.68 36.69 28.08 C 37.45 20.39 38.02 12.67 38.89 4.99 Z" />
</g>
</svg>
