<?xml version="1.0" encoding="UTF-8" ?>
<!DOCTYPE svg PUBLIC "-//W3C//DTD SVG 1.1//EN" "http://www.w3.org/Graphics/SVG/1.1/DTD/svg11.dtd">
<svg width="72px" height="79px" viewBox="0 0 72 79" version="1.1" xmlns="http://www.w3.org/2000/svg">
<g id="#00c3aeff">
<path fill="#00c3ae" opacity="1.00" d=" M 32.33 11.97 C 33.26 7.26 36.11 3.10 39.89 0.19 C 49.32 0.51 58.75 1.16 68.17 1.62 C 68.31 1.96 68.60 2.64 68.74 2.98 C 68.53 8.85 71.93 14.74 69.47 20.46 C 67.85 24.73 63.62 27.00 60.58 30.13 C 61.22 41.48 61.78 52.85 62.90 64.18 C 63.29 67.96 64.55 72.44 61.59 75.55 C 57.93 79.06 52.51 77.37 47.99 77.74 C 39.04 78.29 30.09 77.71 21.13 77.67 C 16.40 77.08 11.52 76.93 7.05 78.90 C 2.04 75.15 3.57 68.07 5.97 63.24 C 19.14 63.38 32.17 61.12 45.33 60.72 C 42.97 51.00 39.38 41.64 35.58 32.41 C 32.83 26.04 30.74 18.92 32.33 11.97 Z" />
</g>
</svg>
