<?xml version="1.0" encoding="UTF-8" ?>
<!DOCTYPE svg PUBLIC "-//W3C//DTD SVG 1.1//EN" "http://www.w3.org/Graphics/SVG/1.1/DTD/svg11.dtd">
<svg width="34px" height="47px" viewBox="0 0 34 47" version="1.1" xmlns="http://www.w3.org/2000/svg">
<g id="#88455eff">
<path fill="#88455e" opacity="1.00" d=" M 24.33 0.00 L 24.82 0.00 C 26.94 1.96 30.00 2.92 31.44 5.58 C 33.79 8.55 33.33 12.75 32.56 16.22 C 30.99 13.04 29.64 9.46 26.56 7.42 C 21.07 3.36 12.63 3.81 7.91 8.86 C 4.98 11.52 3.99 15.50 3.46 19.26 C -0.31 14.00 0.95 5.95 6.37 2.32 C 11.60 -1.55 18.46 1.21 24.33 0.00 Z" />
</g>
<g id="#ec8c9cff">
<path fill="#ec8c9c" opacity="1.00" d=" M 7.91 8.86 C 12.63 3.81 21.07 3.36 26.56 7.42 C 29.64 9.46 30.99 13.04 32.56 16.22 C 32.77 22.45 30.23 28.82 24.50 31.84 C 26.01 34.31 27.86 36.54 29.85 38.63 C 27.20 41.10 24.59 43.61 21.84 45.96 C 16.78 45.59 11.58 45.87 6.69 44.29 C 5.38 44.16 3.79 42.47 5.39 41.45 C 8.49 38.72 9.57 34.50 9.61 30.51 C 5.90 27.92 4.22 23.56 3.46 19.26 C 3.99 15.50 4.98 11.52 7.91 8.86 Z" />
</g>
</svg>
