<?xml version="1.0" encoding="UTF-8" ?>
<!DOCTYPE svg PUBLIC "-//W3C//DTD SVG 1.1//EN" "http://www.w3.org/Graphics/SVG/1.1/DTD/svg11.dtd">
<svg width="8px" height="5px" viewBox="0 0 8 5" version="1.1" xmlns="http://www.w3.org/2000/svg">
<g id="#90662595">
<path fill="#906625" opacity="0.58" d=" M 0.00 0.00 L 8.00 0.00 L 8.00 5.00 L 0.00 5.00 L 0.00 0.00 M 0.70 0.62 C 0.67 1.46 0.59 3.14 0.56 3.98 C 2.71 3.95 4.85 3.93 7.00 3.92 C 7.00 3.09 6.99 1.43 6.98 0.60 C 4.89 0.63 2.80 0.63 0.70 0.62 Z" />
</g>
<g id="#f8af40ff">
<path fill="#f8af40" opacity="1.00" d=" M 0.70 0.62 C 2.80 0.63 4.89 0.63 6.98 0.60 C 6.99 1.43 7.00 3.09 7.00 3.92 C 4.85 3.93 2.71 3.95 0.56 3.98 C 0.59 3.14 0.67 1.46 0.70 0.62 Z" />
</g>
</svg>
