<svg xmlns="http://www.w3.org/2000/svg" xmlns:xlink="http://www.w3.org/1999/xlink" width="100%" height="100%" viewBox="0 0 249.948 175"><defs><style>.a{fill:#eee;}.b{fill:#3f3d56;}.c{fill:#0c263d;}.d{fill:#00afff;}.e{fill:#2f2e41;}.f{fill:url(#a);}.g{opacity:0.1;}.h{fill:#fbbebe;}</style><linearGradient id="a" x1="0.5" x2="0.5" y2="1" gradientUnits="objectBoundingBox"><stop offset="0" stop-color="#00afff"/><stop offset="0.1" stop-color="#2dc0f7"/><stop offset="0.2" stop-color="#28c0ef"/><stop offset="0.3" stop-color="#23c0e7"/><stop offset="0.4" stop-color="#1ec1df"/><stop offset="0.5" stop-color="#19c1d7"/><stop offset="0.6" stop-color="#14c1cf"/><stop offset="0.7" stop-color="#0fc2c7"/><stop offset="0.8" stop-color="#0ac2bf"/><stop offset="0.9" stop-color="#05c2b7"/><stop offset="1" stop-color="#00c3af"/></linearGradient></defs><path class="a" d="M499.307,165.8c10.274-40.357,45.775-69.489,87.445-70.658,22.03-.618,45.211,6.681,62.089,32.221,30.171,45.655-1.854,77.2-24.181,92.2a139.655,139.655,0,0,0-28.876,25.926c-15.081,17.877-44.094,40.092-78.646,5.285C492.094,225.543,492.464,192.684,499.307,165.8Z" transform="translate(-495.313 -95.108)"/><path class="b" d="M186.148,501.324c.277-.41.549-.831.809-1.251l-.42-.26c-.256.415-.525.83-.8,1.235Z" transform="translate(55.289 -400.032)"/><path class="c" d="M230.367,326.785c.458-.9.883-1.827,1.265-2.759l-.457-.187c-.376.92-.8,1.835-1.248,2.722Zm2.3-5.613c.3-.961.569-1.947.791-2.93l-.482-.109c-.219.97-.482,1.942-.781,2.89ZM234,315.256c.14-1,.24-2.012.3-3.02l-.493-.028c-.057.994-.156,2-.294,2.979Zm-.144-6.042.493-.012c-.024-1.009-.089-2.028-.195-3.027l-.491.052C233.769,307.213,233.833,308.218,233.857,309.214Zm-.629-5.948.485-.092c-.188-.99-.42-1.984-.689-2.955l-.476.132c.266.958.494,1.938.68,2.915Zm-1.6-5.764.463-.171c-.349-.946-.742-1.888-1.169-2.8l-.447.209C230.9,295.639,231.285,296.569,231.629,297.5Zm-67.6-1.526c.386-.915.815-1.826,1.276-2.708l-.437-.229c-.467.894-.9,1.817-1.294,2.745Zm65.073-3.9.429-.245c-.5-.874-1.043-1.739-1.614-2.571l-.407.279C228.07,290.362,228.606,291.215,229.1,292.078Zm-62.3-1.4c.532-.84,1.1-1.668,1.7-2.461l-.394-.3c-.607.8-1.188,1.644-1.727,2.495Zm58.914-3.531.383-.312c-.637-.781-1.314-1.546-2.012-2.272l-.356.342C224.416,285.619,225.083,286.373,225.712,287.144ZM170.4,285.9c.662-.742,1.363-1.466,2.083-2.151l-.34-.358c-.73.694-1.44,1.428-2.111,2.18Zm51.164-3.069.327-.37c-.755-.667-1.548-1.31-2.355-1.913l-.3.4C220.038,281.538,220.82,282.173,221.565,282.831Zm-46.828-1.055c.774-.624,1.584-1.224,2.407-1.782l-.277-.409c-.834.566-1.654,1.173-2.439,1.806Zm42.034-2.523.262-.418c-.855-.535-1.741-1.04-2.636-1.5l-.226.439C215.053,278.227,215.928,278.726,216.771,279.253Zm-37.083-.837c.867-.489,1.764-.948,2.666-1.363l-.206-.449c-.914.421-1.824.886-2.7,1.381Zm31.769-1.905.189-.456c-.93-.386-1.888-.738-2.846-1.046l-.151.47C209.6,275.782,210.54,276.13,211.457,276.511Zm-26.332-.6c.934-.339,1.895-.643,2.855-.9l-.129-.476c-.973.264-1.947.572-2.894.916Zm20.64-1.233.111-.481c-.98-.227-1.983-.416-2.981-.562l-.071.488C203.808,274.272,204.8,274.458,205.765,274.683Zm-14.865-.335c.976-.18,1.973-.321,2.964-.42l-.049-.491c-1,.1-2.015.244-3,.426Zm8.946-.53.031-.493c-1-.063-2.028-.086-3.034-.068l.009.494C197.846,273.733,198.855,273.755,199.846,273.818Z" transform="translate(13.368 -229.35)"/><path class="b" d="M453.267,377.77c.132-.47.276-.943.427-1.407l-.469-.153c-.153.47-.3.95-.433,1.427Z" transform="translate(-277.36 -306.904)"/><path class="c" d="M440.353,265.986h.494c0-.494-.009-1-.026-1.49l-.493.017C440.344,265,440.353,265.5,440.353,265.986Z" transform="translate(-261.436 -222.733)"/><path class="c" d="M521.523,137.941l.491-.052c-.106-.994-.249-2-.425-2.979L521.1,135C521.277,135.968,521.419,136.958,521.523,137.941Zm-1.051-5.85.478-.122c-.247-.969-.533-1.94-.849-2.887l-.468.156C519.946,130.174,520.228,131.134,520.472,132.091Zm-78.725-5.208c.369-.916.776-1.83,1.21-2.716l-.444-.217c-.439.9-.851,1.822-1.224,2.749Zm76.843-.433.456-.19c-.384-.922-.806-1.843-1.256-2.737l-.441.222C517.793,124.629,518.211,125.539,518.59,126.45Zm-74.231-4.906c.5-.853,1.03-1.7,1.587-2.516l-.408-.278c-.563.826-1.1,1.682-1.605,2.545Zm71.557-.407.424-.253c-.512-.857-1.062-1.708-1.635-2.528l-.4.283C514.867,119.45,515.41,120.29,515.916,121.137Zm-68.208-4.5c.614-.775,1.263-1.537,1.929-2.264l-.364-.333c-.674.736-1.331,1.507-1.952,2.291Zm64.8-.37.383-.311c-.63-.777-1.3-1.54-1.978-2.269l-.36.337C511.23,114.741,511.888,115.5,512.51,116.263Zm-60.788-4.016c.718-.679,1.468-1.341,2.231-1.967l-.313-.382c-.772.633-1.532,1.3-2.258,1.991Zm56.724-.324.336-.362c-.733-.679-1.5-1.34-2.279-1.965l-.309.385c.77.618,1.528,1.271,2.253,1.942Zm-52.127-3.447c.806-.571,1.644-1.119,2.488-1.63l-.255-.422c-.855.517-1.7,1.072-2.518,1.649Zm47.49-.27.281-.406c-.822-.567-1.675-1.112-2.535-1.62l-.251.425c.85.5,1.693,1.04,2.505,1.6Zm-42.4-2.807c.88-.45,1.787-.872,2.7-1.257l-.192-.455c-.92.389-1.838.817-2.728,1.272Zm37.284-.211.22-.442c-.894-.444-1.816-.861-2.74-1.24l-.187.457c.913.374,1.824.786,2.707,1.225Zm-31.808-2.106c.934-.318,1.892-.606,2.849-.856l-.125-.477c-.968.253-1.938.544-2.883.866Zm26.313-.146.154-.469c-.949-.311-1.922-.591-2.892-.833l-.12.479C491.3,102.353,492.258,102.63,493.2,102.937Zm-20.561-1.358c.971-.18,1.96-.327,2.942-.437l-.055-.491c-.993.111-1.995.26-2.977.443Zm14.795-.081.085-.486c-.983-.171-1.986-.309-2.981-.41l-.05.491c.983.1,1.974.235,2.946.4Zm-8.888-.583c.988-.04,1.993-.045,2.974-.016l.015-.493c-.993-.03-2.009-.024-3.01.016Z" transform="translate(-342.842 -99.084)"/><path class="b" d="M771.108,220.138c.132-.47.275-.944.424-1.41l-.47-.15c-.151.471-.3.951-.429,1.426Z" transform="translate(-673.647 -188.103)"/><ellipse class="d" cx="8.222" cy="0.617" rx="8.222" ry="0.617" transform="translate(233.504 106.178)"/><ellipse class="d" cx="8.222" cy="0.617" rx="8.222" ry="0.617" transform="translate(167.933 76.405)"/><ellipse class="d" cx="8.222" cy="0.617" rx="8.222" ry="0.617" transform="translate(86.946 45.4)"/><rect class="c" width="34.965" height="0.494" transform="translate(122.8 69.059) rotate(-135)"/><rect class="c" width="41.521" height="0.494" transform="translate(130.317 71.847)"/><rect class="c" width="32.843" height="0.494" transform="translate(202.291 98.769) rotate(-135)"/><rect class="c" width="27.749" height="0.494" transform="translate(209.66 101.62)"/><path class="c" d="M173.92,498.909a4.563,4.563,0,1,0-4.563-4.564A4.564,4.564,0,0,0,173.92,498.909Zm0-8.633a4.07,4.07,0,1,1-4.07,4.07A4.07,4.07,0,0,1,173.92,490.275Z" transform="translate(67.806 -392.479)"/><path class="c" d="M321.328,498.909a4.563,4.563,0,1,0-4.563-4.564,4.563,4.563,0,0,0,4.563,4.564Zm0-8.633a4.07,4.07,0,1,1-4.07,4.07A4.07,4.07,0,0,1,321.328,490.275Z" transform="translate(-115.985 -392.479)"/><path class="c" d="M439.588,378.151a4.563,4.563,0,1,0-4.563-4.563A4.563,4.563,0,0,0,439.588,378.151Zm0-8.633a4.07,4.07,0,1,1-4.07,4.07A4.07,4.07,0,0,1,439.588,369.518Z" transform="translate(-263.433 -301.493)"/><path class="c" d="M642.794,378.151a4.563,4.563,0,1,0-4.563-4.563A4.563,4.563,0,0,0,642.794,378.151Zm0-8.633a4.07,4.07,0,1,1-4.07,4.07A4.07,4.07,0,0,1,642.794,369.518Z" transform="translate(-516.793 -301.493)"/><path class="c" d="M767.715,252.4a4.563,4.563,0,1,0-4.563-4.563A4.563,4.563,0,0,0,767.715,252.4Zm0-8.633a4.07,4.07,0,1,1-4.07,4.07,4.07,4.07,0,0,1,4.07-4.07Z" transform="translate(-672.547 -206.742)"/><path class="d" d="M162.756,399.173a8.222,8.222,0,0,1,8.222,8.222c0,4.541-8.222,19.527-8.222,19.527s-8.222-14.986-8.222-19.527A8.222,8.222,0,0,1,162.756,399.173Zm0,12.539a4.317,4.317,0,1,0-4.317-4.317A4.317,4.317,0,0,0,162.756,411.711Z" transform="translate(78.97 -324.219)"/><path class="d" d="M428.423,274.251a8.222,8.222,0,0,1,8.222,8.222c0,4.541-8.222,19.527-8.222,19.527s-8.222-14.986-8.222-19.527A8.222,8.222,0,0,1,428.423,274.251Zm0,12.539a4.317,4.317,0,1,0-4.317-4.317A4.317,4.317,0,0,0,428.423,286.79Z" transform="translate(-252.268 -230.092)"/><rect class="c" width="111.94" height="0.603" transform="translate(14.744 174.397)"/><path class="e" d="M948.774,137.49c1.74,5.152,4.409,9.847,9.847,9.847s9.541-4.417,9.847-9.847c.392-6.938-4.283-9.876-9.847-9.847C952.048,127.677,946.708,131.375,948.774,137.49Z" transform="translate(-914.463 -119.612)"/><rect class="e" width="19.435" height="24.618" transform="translate(34.57 17.1)"/><path class="f" d="M1029.212,238.7h-1.653a14.716,14.716,0,0,0-2.2,12.123c1.837,6.98.367,8.265.367,8.265s-2.391,7.558.18,18.946-2.384,14.483-2.384,14.483l4.592-9.184,2.571-24.245Z" transform="translate(-995.213 -203.312)"/><path class="g" d="M1029.212,241.146h-1.653a14.716,14.716,0,0,0-2.2,12.123c1.837,6.98.367,8.265.367,8.265s-2.391,7.558.18,18.946-2.384,14.483-2.384,14.483l4.592-9.184,2.571-24.245Z" transform="translate(-995.213 -205.157)"/><path class="h" d="M969.325,202.514s1.469,5.878.735,5.878-3.306,3.122-3.306,3.122l-1.653,6.061,1.286,4.408,4.408-.918L976.3,215l1.653-1.653,1.469-5.327s-1.837-2.2-.551-4.041S969.325,202.514,969.325,202.514Z" transform="translate(-929.54 -176.013)"/><path class="g" d="M969.325,202.514s1.469,5.878.735,5.878-3.306,3.122-3.306,3.122l-1.653,6.061,1.286,4.408,4.408-.918L976.3,215l1.653-1.653,1.469-5.327s-1.837-2.2-.551-4.041S969.325,202.514,969.325,202.514Z" transform="translate(-929.54 -176.013)"/><path class="h" d="M776.27,227.536l4.041-6.612s4.362-9.651,7.484-6.161-4.729,10.569-4.729,10.569l-4.041,5.327Z" transform="translate(-692.035 -184.692)"/><path class="h" d="M950.961,487.752l2.939,21.49s-.367,1.653,3.306,7.714S970.8,536.243,970.8,536.243l2.939-5.51s-3.49-17.449-9.551-21.123l.735-26.449Z" transform="translate(-920.36 -387.529)"/><path class="g" d="M950.961,487.752l2.939,21.49s-.367,1.653,3.306,7.714S970.8,536.243,970.8,536.243l2.939-5.51s-3.49-17.449-9.551-21.123l.735-26.449Z" transform="translate(-920.36 -387.529)"/><path class="c" d="M917.049,666.973l-4.041,7.714s3.306,9.367,2.02,10.286-2.939,9.184.551,8.265,6.245-4.592,6.245-5.143-2.02-8.265-.918-10.1a8.915,8.915,0,0,1,1.837-2.388L925.5,680.2l.918-.551-4.592-7.714a4.841,4.841,0,0,0-2.755-2.388Z" transform="translate(-863.672 -526.013)"/><path class="g" d="M917.049,666.973l-4.041,7.714s3.306,9.367,2.02,10.286-2.939,9.184.551,8.265,6.245-4.592,6.245-5.143-2.02-8.265-.918-10.1a8.915,8.915,0,0,1,1.837-2.388L925.5,680.2l.918-.551-4.592-7.714a4.841,4.841,0,0,0-2.755-2.388Z" transform="translate(-863.672 -526.013)"/><path class="h" d="M928.216,484.7s-1.427,20.314,1.7,25.641v26.449l4.225.551s8.531-14,5.409-27.778,3.224-26.406,3.224-26.406Z" transform="translate(-883.698 -387.569)"/><ellipse class="h" cx="7.714" cy="7.714" rx="7.714" ry="7.714" transform="translate(37.857 15.603)"/><path class="f" d="M816.659,233.139l7.714-9.735,4.408-2.939,1.837,2.388,5.143,1.469s3.306.735,6.8,4.776,9.735,6.429,9.735,6.429l5.143-.918s6.061-2.755,6.061-3.49,5.327,4.959,4.041,7.163a38.749,38.749,0,0,1-5.51,6.429c-1.469,1.469-2.02,5.694-11.02,4.408s-12.306-5.694-12.306-5.694-1.653,8.449-6.429,10.1-20.388,2.755-20.388,2.755l-3.306-11.021s-3.673-4.776,1.286-11.755a46.065,46.065,0,0,1,.628-6.5,4.3,4.3,0,0,1,.841-2.132c1.286-1.1,8.082-2.939,8.082-2.939s-1.1,3.673-1.653,3.857S815.924,232.221,816.659,233.139Z" transform="translate(-778.894 -189.567)"/><path class="c" d="M938.705,392.844c-9.25-.774-14.635,1.05-17.038,2.44a6.016,6.016,0,0,0-1.253.915c-.176.179-.261.318-.261.4,0,.663-12.674,1.989-17.265.663s3.122-29.837,5.143-32.269.931-11.329.931-11.329,4.028-1.048,5.13-.606,6.8-.663,8.816-1.989,4.592-.442,6.245-.884a.977.977,0,0,1,1.3.564,3.58,3.58,0,0,0,1.256,1.527c3.9,2.7,7.029,21.392,9.386,31.725C943.664,395.275,938.705,392.844,938.705,392.844Z" transform="translate(-876.236 -287.272)"/><path class="c" d="M966.66,693.763l-.735,4.041s-3.857,5.51-2.755,10.1c0,0-.918,6.061-4.225,7.714s-.551,5.51,2.571,5.327,6.061.184,6.429-.735,2.571-9.919,2.571-9.919l.6,10.532,1.837.184-.6-12.185s1.469-2.755-.551-7.347l.51-7.048S967.211,695.6,966.66,693.763Z" transform="translate(-921.181 -546.192)"/><path class="g" d="M984.719,467.667a6.094,6.094,0,0,0-1.253.76c-.1-1.736-.659-12.233.015-12.064Z" transform="translate(-939.287 -367.301)"/><path class="e" d="M949.709,144.276s.085-.476,3.427.777,5.344,10.5,3.673,15.929a4.975,4.975,0,0,0,.768,4.87,8.045,8.045,0,0,1-2.852,12.494q-.207.09-.422.178l-2.088,1.253a9.551,9.551,0,0,0,1.33-7.984,22.973,22.973,0,0,1-.414-11.761c.153-.656.326-1.333.524-2.023,1.671-5.847.858-5.172-4.989-11.019a37.165,37.165,0,0,1-6.265,3.759c-2.924,1.253-5.43,2.506-3.341,6.683s7.1,7.936,3.759,13.365-3.759,3.341-3.341,5.43h0l.418,2.088-2.506-2.506,1.671,3.341s-5.43,0-7.1-4.177l-.835.835s-3.341-5.847,2.924-11.277c0,0,2.088-1.253-.835-5.43s-.678-13.156,3.081-14.827S949.709,144.276,949.709,144.276Z" transform="translate(-900.944 -131.581)"/><ellipse class="e" cx="3.887" cy="3.887" rx="3.887" ry="3.887" transform="translate(40.271 2.329)"/><path class="e" d="M969.763,100.033a3.887,3.887,0,0,0-3.5-3.867c.128-.013.257-.02.388-.02a3.887,3.887,0,1,1,0,7.774c-.131,0-.261-.007-.389-.02A3.887,3.887,0,0,0,969.763,100.033Z" transform="translate(-920.941 -95.89)"/><path class="d" d="M756.551,154.326a8.222,8.222,0,0,1,8.222,8.222c0,4.541-8.222,19.527-8.222,19.527s-8.222-14.986-8.222-19.527A8.222,8.222,0,0,1,756.551,154.326Zm0,12.539a4.317,4.317,0,1,0-4.317-4.317A4.317,4.317,0,0,0,756.551,166.865Z" transform="translate(-661.382 -139.71)"/><ellipse class="a" cx="4.449" cy="4.449" rx="4.449" ry="4.449" transform="translate(157 158.516)"/><ellipse class="a" cx="4.449" cy="4.449" rx="4.449" ry="4.449" transform="translate(129.321 139.727)"/><ellipse class="a" cx="4.449" cy="4.449" rx="4.449" ry="4.449" transform="translate(163.551 122.224)"/></svg>
