<svg xmlns="http://www.w3.org/2000/svg" width="284.095" height="183.555" viewBox="0 0 284.095 183.555">
    <defs>
        <style>
            .cls-1{fill:#e6e6e6}.cls-2{fill:#3f3d56}.cls-3{fill:#6c63ff}.cls-5{fill:#ffb6b6}.cls-6{fill:#009181}.cls-7{fill:#2f2e41}.cls-8{fill:#ffb8b8}.cls-9{fill:#f8af40}.cls-10{opacity:.2;isolation:isolate}
        </style>
    </defs>
    <g id="undraw_fashion_photoshoot_mtq8" transform="translate(.015 -1)">
        <ellipse id="Ellipse_936" cx="48.941" cy="3.181" class="cls-1" rx="48.941" ry="3.181" transform="rotate(-.092 104086.473 92.908)"/>
        <path id="Path_5827" d="M297.571 393.081l5.511-1.534s2.159-.431.84-4.647-3.935-3.036-3.935-3.036l-4.889 1.42-1.93.6 2.716 3.81.228 2.539z" class="cls-2" transform="translate(-241.379 -309.453)"/>
        <path id="Path_5828" d="M162.793 264l-1.729 6.906 8.859 8.586.762.191 2.032-.571 1.729-6.906-1.751-1.842 1.79-.469-3.82-3.709-1.993.418-1.6-1.588 1.079-.431.1-.406-1.307-1.029z" class="cls-2" transform="translate(-117.25 -191.514)"/>
        <path id="Path_5829" d="M180.736 288.551l-1.144 4.57-5.28-4.991 1.322-4.634z" class="cls-3" transform="translate(-126.893 -206.321)"/>
        <path id="Path_5830" fill="none" stroke="#3f3d56" stroke-miterlimit="10" d="M166.769 264l-.242.968 8.809 8.57.762.191 1.969-.533h.108l.247-.988-1.751-1.842 1.79-.469-3.82-3.709-1.993.418-1.6-1.588 1.079-.431.1-.406-1.307-1.029z" transform="translate(-121.226 -191.514)"/>
        <ellipse id="Ellipse_939" cx=".497" cy=".733" class="cls-3" rx=".497" ry=".733" transform="rotate(-75.943 70.968 5.103)"/>
        <ellipse id="Ellipse_940" cx=".497" cy=".733" class="cls-3" rx=".497" ry=".733" transform="rotate(-75.943 78.501 5.212)"/>
        <path id="Path_5831" d="M308.018 416.842l-1.2-4.086s3.125-7.451-.481-8.172-3.846 6.97-3.846 6.97l1.442 4.567z" class="cls-5" transform="translate(-248.164 -324.611)"/>
        <circle id="Ellipse_941" cx="9.548" cy="9.548" r="9.548" class="cls-5" transform="translate(27.993 65.191)"/>
        <path id="Path_5832" d="M223.834 405.736s.562 7.02 1.966 7.582-12.553 4.493-12.553 4.493l4.212-4.774s-1.768-7.3-3.734-8.986z" class="cls-5" transform="translate(-183.205 -324.258)"/>
        <path id="Path_5833" d="M301.606 440.525l3.846-.481s4.567 2.4 4.567 5.528 2.644 8.172 2.644 8.172 1.923 6.73-2.4 7.211-8.172-7.211-8.172-7.211z" class="cls-6" transform="translate(-247.521 -350.458)"/>
        <path id="Path_5834" d="M221.968 564.328l7.753-5.341a7.512 7.512 0 0 1 8.4-.152 3.544 3.544 0 0 1 1.869 2.849c0 3.605-7.932 12.018-7.932 12.018s-6.009 13.219-11.777 13.7a99.536 99.536 0 0 0-11.3 1.682s2.644 9.614 1.2 12.258-6.97 5.768-7.451 5.528a36.859 36.859 0 0 1-10.095-15.383c-2.884-8.893-4.807-15.623-2.163-16.1s31.496-11.059 31.496-11.059z" class="cls-7" transform="translate(-165.72 -436.045)"/>
        <path id="Path_5835" d="M342.68 569.887s1.683-.24 1.442 3.846-.961 18.747-2.163 21.632-1.442 6.249-.961 7.451 1.442 3.125-.24 3.365-8.653-.721-9.374-.961 2.884-9.614 2.4-10.095-.961-11.777-.961-11.777z" class="cls-7" transform="translate(-269.127 -444.969)"/>
        <path id="Path_5836" d="M340.448 697.413s4.086-1.2 4.567 1.442c0 0 .721 4.086-2.4 5.528a38.613 38.613 0 0 0-5.769 3.365s-5.047 1.923-5.288-.481.961-11.056.961-11.056z" class="cls-7" transform="translate(-269.298 -536.922)"/>
        <path id="Path_5837" d="M240.3 694.51l-7.691-6.249s1.442 7.691-.481 9.133l-.878 2.568 2.46 2.012s7.547-1.215 6.59-7.464z" class="cls-7" transform="translate(-196.306 -531.135)"/>
        <path id="Path_5838" d="M201.008 672.22s5.047 1.442 4.326 6.49-1.646 10.531-1.646 10.531-.277 13.5-3.883 14.466-4.567-.961-4.567-.961-4.1-10.553-2.884-13.7c1.469-3.81 3.587-8.088 2.884-9.374-.69-1.266.482-8.172 5.77-7.452z" class="cls-7" transform="translate(-167.834 -519.42)"/>
        <path id="Path_5839" d="M189.594 426.461s1.923.24 5.047.721 5.288-1.923 6.97-1.442 15.623 3.846 15.623 3.846l-1.206 9.244a31.009 31.009 0 0 1-2.634 8.716c-2.027 4.49.976 18.558 3.84 21.217 2.491 2.313 5.768 2.884 2.163 6.97s-9.855 7.691-22.593 6.49-14.421-.961-14.421-2.884 4.533-27.16 3.091-28.6a6.588 6.588 0 0 1-2.163-3.605c0-.482-1.5-5.9-2.5-9.447a10.1 10.1 0 0 1 .752-7.49c.451-.844.967-1.493 1.508-1.57 1.682-.24.514-1.442 1.716-1.442a9.561 9.561 0 0 0 2.644 0z" class="cls-6" transform="translate(-159.305 -339.999)"/>
        <path id="Path_5840" d="M219.921 341.17s-.217-11.8-11.8-6.213c0 0-8.9-.314-10.151 10.95l-1.2 11.793 1.291-.97.865 1.334 2.359.241.689-2.074.816 2.276 18.9-.886s-9.067-3.7-10.5-12.526l1.836 1.445z" class="cls-7" transform="translate(-171.209 -272.872)"/>
        <circle id="Ellipse_942" cx="4.733" cy="4.733" r="4.733" class="cls-7" transform="translate(22.213 58.935)"/>
        <path id="Path_5841" d="M204.738 327.617a4.73 4.73 0 0 0-5.325-3.687c.095-.027.189-.056.286-.076a4.733 4.733 0 0 1 1.977 9.258c-.1.021-.195.033-.292.047a4.729 4.729 0 0 0 3.354-5.542z" class="cls-7" transform="translate(-173.135 -265.806)"/>
        <g id="Group_4118" transform="translate(76.169 7.653)">
            <ellipse id="Ellipse_937" cx="38.428" cy="2.497" class="cls-1" rx="38.428" ry="2.497" transform="rotate(-.092 74217.314 -16992.767)"/>
            <circle id="Ellipse_943" cx="7.802" cy="7.802" r="7.802" class="cls-7" transform="translate(52.972 5.387)"/>
            <path id="Path_5842" d="M641.481 206.489s-.117 4.816.352 4.933-6.46 2-6.46 2l-.7-6.578z" class="cls-8" transform="translate(-576.599 -188.107)"/>
            <path id="Path_5843" d="M441.255 355.891s-5.168 0-5.286-.587-1.175 4.816-1.175 4.816l2.114.7s3.994-1.762 4.346-1.762.001-3.167.001-3.167z" class="cls-8" transform="translate(-431.112 -296.396)"/>
            <path id="Path_5844" d="M425.763 341.092s.94-3.172 2.114-3.289c0 0-3.994-2.584-4.111-3.406s-1.527-2.937-2.114-2.232-.587 11.864.47 13.038 5.756-1.651 5.756-1.651-2.937-1.286-2.115-2.46z" class="cls-7" transform="translate(-421.258 -279.482)"/>
            <path id="Path_5845" d="M560.315 419.757l.94 5.051-4.346.7v-5.755z" class="cls-8" transform="translate(-492.027 -313.159)"/>
            <path id="Path_5846" d="M658.071 541.966s.7-2.232 1.175-1.879a6.019 6.019 0 0 1 1.057 3.172c-.117.587-.94 5.168-.587 5.991s-1.762 5.051-4.464 4.7a2.529 2.529 0 0 1-2.467-2.7l.94-3.641.352-5.756s3.055-.475 3.994.113z" class="cls-7" transform="translate(-589.783 -430.904)"/>
            <circle id="Ellipse_944" cx="3.228" cy="3.228" r="3.228" class="cls-7" transform="translate(60.275 1.749)"/>
            <path id="Path_5847" d="M662.723 142.158a3.229 3.229 0 0 0-2.892-3.211 3.264 3.264 0 0 1 .336-.017 3.228 3.228 0 1 1 0 6.457 3.267 3.267 0 0 1-.336-.017 3.229 3.229 0 0 0 2.892-3.212z" class="cls-7" transform="translate(-594.915 -138.93)"/>
            <circle id="Ellipse_945" cx="4.933" cy="4.933" r="4.933" class="cls-8" transform="translate(55.837 11.805)"/>
            <path id="Path_5848" d="M513.886 324.867a47.309 47.309 0 0 1-1.175 8.927c-.94 3.054-4.328 24.8-3.623 26.449s4.328 19.832 3.505 20.889-4.7.7-4.7.7l-5.267-22.064s1.039-24.334-7.654-24.922-22.905-.94-22.905-.94-9.162 2.7-13.273 2.584a14.622 14.622 0 0 0-6.46 1.057l-.7-4.816 18.207-3.994s16.68-5.756 25.842-4.229a70.515 70.515 0 0 0 18.203.359z" class="cls-7" transform="translate(-443.367 -273.829)"/>
            <path id="Path_5849" d="M623.259 218.031s1.409-.822 1.762 0 2.819 1.527 3.759.822 3.289.235 3.289.235l2.584 7.635s-1.292 6.578-2.467 10.219-1.644 11.159-1.175 11.864-9.4 3.524-14.213 1.762-5.873-3.759-5.873-3.759 5.286-7.518 3.524-11.042a10.7 10.7 0 0 1-.352-7.518l-.7-3.994 3.994-2.232s.235-2.114 1.175-2.114 4.693-1.878 4.693-1.878z" class="cls-9" transform="translate(-559.317 -196.242)"/>
            <path id="Path_5850" d="M618.411 242.32h-1.762a3.943 3.943 0 0 0-1.175 3.641c.47 2.232 2.589 9.631 2.589 9.631l1.757-4.58z" class="cls-9" transform="translate(-562.574 -214.188)"/>
            <path id="Path_5851" d="M602.843 311.647s-3.515 3.806-.931 5.8 3.221-4.581 3.221-4.581z" class="cls-8" transform="translate(-552.066 -264.651)"/>
            <path id="Path_5852" d="M607.612 282.467l-.822 3.289-1.41 2.584s-4.816 3.172-4.816 4.346c0 0 2.114-2.7 4.816 0l2.408-5.814z" class="cls-9" transform="translate(-551.775 -243.411)"/>
            <ellipse id="Ellipse_946" cx="5.381" cy="3.228" class="cls-7" rx="5.381" ry="3.228" transform="translate(54.485 8.306)"/>
            <path id="Path_5853" d="M665.632 179.262s-3.759-2.114-5.286-.587 4.581 3.876 4.581 3.876z" class="cls-8" transform="translate(-595.112 -167.457)"/>
            <path id="Path_5854" d="M674.61 191.685l.822-.587s.94-1.41 1.762-.94 5.638-1.762 5.638-1.762-1.762.822-1.762-.587-.235-1.175-1.41-1.175-1.175.587-1.644-.235-.235-1.292-1.057-.822a1.648 1.648 0 0 1-2-.235c-.235-.352-4.464-.94-4.464-.94a50.572 50.572 0 0 1 2-5.168c.352-.352 9.4 3.641 9.4 3.641s11.394 3.171 8.457 6.813-13.508 9.162-13.508 9.162z" class="cls-9" transform="translate(-602.68 -168.251)"/>
        </g>
        <g id="Group_4119" transform="translate(186.942 1)">
            <ellipse id="Ellipse_938" cx="48.555" cy="8.58" class="cls-1" rx="48.555" ry="8.58" transform="rotate(-.092 98305.835 78.925)"/>
            <path id="Path_5855" d="M766.407 110.933l21.191.132s34.88 18.559 10.4 56.993c0 0-10-2.369-21.06 5.791-.001 0-6.451-61.468-10.531-62.916z" class="cls-3" transform="translate(-759.293 -110.933)"/>
            <path id="Path_5856" d="M772.711 111.536c3.8 15.859 8.088 56.761 8.088 56.761 9.878-7.291 18.909-6.177 20.723-5.857a70.184 70.184 0 0 1-3.522 6.181s-10-2.369-21.06 5.791c0 0-6.45-61.468-10.53-62.916z" class="cls-10" transform="translate(-759.293 -111.343)"/>
            <path id="Path_5857" d="M780.189 57.55l1.843 8.95 23.158-4.209h.008l.526-10.53h-4.475z" class="cls-2" transform="translate(-741.354 -37.675)"/>
            <path id="Path_5858" d="M858.959 51.759l3.567 10.532h.008l.526-10.53z" class="cls-10" transform="translate(-798.691 -37.675)"/>
            <ellipse id="Ellipse_947" cx="2.632" cy="6.055" class="cls-2" rx="2.632" ry="6.055" transform="translate(36.992 17.769)"/>
            <path id="Path_5859" d="M934.044 324.288a.8.8 0 0 1-.8-.8V196.336a.8.8 0 0 1 1.609 0v127.148a.8.8 0 0 1-.8.8z" class="cls-2" transform="translate(-880.731 -172.512)"/>
            <path id="Path_5860" d="M844.82 595.033a.8.8 0 0 1-.791-.959l10.271-52.656-26.972 41.142a.8.8 0 1 1-1.346-.883l29.22-44.57a.8.8 0 0 1 1.463.6l-11.056 56.68a.805.805 0 0 1-.789.646z" class="cls-2" transform="translate(-802.562 -420.881)"/>
            <path id="Path_5861" d="M964.581 585.249a.8.8 0 0 1-.674-.364l-30.536-46.594a.8.8 0 1 1 1.346-.882L965.253 584a.8.8 0 0 1-.672 1.246z" class="cls-2" transform="translate(-880.731 -421.101)"/>
        </g>
    </g>
</svg>
