<svg xmlns="http://www.w3.org/2000/svg" id="undraw_Live_photo_re_4khn" width="100%" height="100%" viewBox="0 0 190.739 201.9">
    <defs>
        <style>
            .cls-1{fill:#009181}.cls-7{fill:#2f2e41}.cls-8{fill:#ffb8b8}.cls-9{fill:#f8af40}
        </style>
    </defs>
    <path id="Path_5897" d="M305.034 658.393c-7.615 0-19.442-6.024-30.306-16.107a47.381 47.381 0 0 1-3.436-3.566.662.662 0 0 1-.121-.674.671.671 0 0 1 .54-.436l4.752-.685a.406.406 0 0 0 .012-.8l-8.126-1.427a.678.678 0 0 1-.436-.274c-8.563-11.953-13.234-26.815-14.462-31.085a.676.676 0 0 1 .788-.849c1.313.273 4.044.882 7.581 1.882a.68.68 0 0 1 .474.486l.254 1a.406.406 0 0 0 .8-.072l.007-.1a.679.679 0 0 1 .873-.6 117 117 0 0 1 11.457 4.132.684.684 0 0 1 .4.46l1.373 5.413a.406.406 0 0 0 .8-.072l.243-3.536a.678.678 0 0 1 .966-.567 60.785 60.785 0 0 1 15.205 9.9c14.619 13.568 22.04 29.424 16.544 35.347a8.1 8.1 0 0 1-6.182 2.23z" class="cls-1" transform="translate(-251.954 -460.212)"/>
    <path id="Path_5898" d="M385.054 604.57c-7.575 0-17.249-13.157-22.358-30.963a47.405 47.405 0 0 1-1.1-4.829.662.662 0 0 1 .245-.64.671.671 0 0 1 .687-.094l4.422 1.87a.406.406 0 0 0 .425-.681l-6.219-5.422a.678.678 0 0 1-.232-.46c-1.152-14.659 2.531-29.8 3.688-34.085a.676.676 0 0 1 1.113-.32c.984.914 3.009 2.848 5.517 5.53a.681.681 0 0 1 .154.661l-.3.987a.406.406 0 0 0 .722.351l.06-.086a.679.679 0 0 1 1.059-.066 116.988 116.988 0 0 1 7.672 9.46.684.684 0 0 1 .1.6l-1.623 5.343a.406.406 0 0 0 .721.352l2.036-2.9a.662.662 0 0 1 .566-.289.674.674 0 0 1 .554.3 60.786 60.786 0 0 1 7.9 16.335c5.5 19.171 3.658 36.581-4.108 38.81a6.16 6.16 0 0 1-1.701.236z" class="cls-1" transform="translate(-330.17 -406.475)"/>
    <ellipse id="Ellipse_950" cx="95.37" cy="4.877" fill="#0c263d" rx="95.37" ry="4.877" transform="translate(0 192.147)"/>
    <path id="Path_5899" fill="#3f3d56" d="M541.084 124.261H540v-29.68A17.178 17.178 0 0 0 522.823 77.4h-62.881a17.178 17.178 0 0 0-17.178 17.178v162.829a17.178 17.178 0 0 0 17.178 17.178h62.881A17.178 17.178 0 0 0 540 257.407v-112.02h1.083z" transform="translate(-389.995 -77.403)"/>
    <path id="Path_5900" fill="#fff" d="M549.1 106.726v162.586a12.829 12.829 0 0 1-12.829 12.829h-63.182a12.829 12.829 0 0 1-12.829-12.829V106.726A12.829 12.829 0 0 1 473.089 93.9h7.665a6.1 6.1 0 0 0 5.644 8.4h36.024a6.1 6.1 0 0 0 5.644-8.4h8.207a12.829 12.829 0 0 1 12.827 12.826z" transform="translate(-402.751 -89.428)"/>
    <path id="Path_5901" fill="#e6e6e6" d="M553.113 210.122H483.25a4.477 4.477 0 0 0-4.47 4.47v81.281a4.477 4.477 0 0 0 4.47 4.47h69.864a4.466 4.466 0 0 0 3.831-2.173 3.579 3.579 0 0 0 .2-.36 4.413 4.413 0 0 0 .42-1.52 3.543 3.543 0 0 0 .022-.417v-81.281a4.475 4.475 0 0 0-4.474-4.47z" transform="translate(-416.253 -174.163)"/>
    <circle id="Ellipse_951" cx="15.443" cy="15.443" r="15.443" fill="#6c63ff" transform="translate(86.486 144.469)"/>
    <circle id="Ellipse_952" cx="16.796" cy="16.796" r="16.796" class="cls-7" transform="translate(85.691 34.503)"/>
    <path id="Path_5902" d="M683.092 425.279v10.168a4.412 4.412 0 0 1-.42 1.52 3.582 3.582 0 0 1-.2.36l-2.734-2.517-15.267-14.075-13.512-12.458 9.4-7.283 10.818 11.558z" class="cls-8" transform="translate(-541.783 -313.32)"/>
    <circle id="Ellipse_953" cx="12.501" cy="12.501" r="12.501" class="cls-8" transform="rotate(-45 111.438 -73.161)"/>
    <path id="Path_5903" d="M564.763 386.869h-33.922l.054-.176c1.625-5.25 2.473-13.665 2.522-25.011.015-3.356-.042-6.964-.168-10.721-.224-6.859-.637-13.04-.945-17.017a4.947 4.947 0 0 1 4.791-5.323A15.149 15.149 0 0 1 544 330.1a43.319 43.319 0 0 0 9.77 3.333 40.89 40.89 0 0 1 17.265 8.092l.38.306a38.451 38.451 0 0 1 12.38 17.819l.023.068-6.176 8.155a.68.68 0 0 1-.737.239l-.083-.027-6.062-1.866c-4.519 9.133-.845 14.443-.059 15.417.055.069.087.1.089.107l.082.089-.079.092a23.193 23.193 0 0 1-6 4.928z" class="cls-9" transform="translate(-454.209 -260.553)"/>
    <path id="Path_5904" d="M630.964 524.563v.089a4.413 4.413 0 0 1-.42 1.52 3.582 3.582 0 0 1-.2.36 4.466 4.466 0 0 1-3.831 2.173h-47.054l25.151-4.9s.52-.049 1.433-.111a118.769 118.769 0 0 1 21.569.322c1.15.151 2.274.33 3.352.547z" class="cls-7" transform="translate(-489.655 -402.525)"/>
    <path id="Path_5905" d="M610.805 240.574a37.175 37.175 0 0 1-16.083 5.3l1.7-2.031a12.458 12.458 0 0 1-3.848.764 4.214 4.214 0 0 1-3.439-1.607 3.92 3.92 0 0 1-.262-3.621 7.425 7.425 0 0 1 2.336-2.921 13.906 13.906 0 0 1 12.943-2.313 8.311 8.311 0 0 1 3.866 2.48 4.7 4.7 0 0 1 .948 4.357z" class="cls-7" transform="translate(-496.285 -191.176)"/>
    <path id="Path_5906" d="M620.432 183.043A38.419 38.419 0 0 1 634.41 174a19.666 19.666 0 0 1 10.59-1.31c3.532.711 6.873 3.155 7.859 6.62.806 2.834-.026 5.886-1.277 8.553s-2.92 5.142-3.932 7.909a18.052 18.052 0 0 0 18.164 24.207c-3.471.465-6.67 2.1-10.062 2.965s-7.4.809-9.918-1.621c-2.667-2.571-2.721-6.752-2.592-10.455l.575-16.513c.1-2.807.181-5.7-.831-8.324s-3.418-4.914-6.227-4.891c-2.129.018-4.013 1.308-5.72 2.579s-3.514 2.629-5.635 2.818-4.541-1.38-4.383-3.5z" class="cls-7" transform="translate(-519.527 -146.676)"/>
    <path id="Path_5907" d="M270.823 330.032l-1.306 11.041-2.831 23.9h-9.147l1.284-28.982.374-8.456 7.741 1.661z" class="cls-8" transform="translate(-187.762 -238.797)"/>
    <path id="Path_5908" d="M521.46 366.69l-24.584-12.414a1.218 1.218 0 0 1-.593-1.514l8.5-22.827a4.883 4.883 0 0 1 2.9-2.575 7.947 7.947 0 0 1 5.841-.192l.1.049-.564 1.974z" class="cls-9" transform="translate(-428.958 -259.156)"/>
</svg>
