<svg xmlns="http://www.w3.org/2000/svg" id="undraw_cancel_u1it" width="100%" height="100%" viewBox="0 0 245.404 169.958">
    <defs>
        <style>
            .cls-1{fill:#009181}.cls-2{fill:#3f3d56}.cls-3{opacity:.1}.cls-4{fill:#a0616a}.cls-5{fill:#f8af40}.cls-6{fill:#2f2e41}
        </style>
    </defs>
    <path id="Path_5871" d="M693.286 468.607c0 15.381-9.144 20.751-20.423 20.751s-20.423-5.371-20.423-20.751 20.423-34.948 20.423-34.948 20.423 19.567 20.423 34.948z" class="cls-1" transform="translate(-517.822 -352.393)"/>
    <path id="Path_5872" d="M651.366 398.134l8.7-15.925-8.666 13.906.094-5.788 6-11.522-5.974 9.99.169-10.41 6.424-9.172-6.4 7.536.106-19.088-.635 24.187-6.505-9.958 6.427 12-.609 11.626-.018-.309-7.53-10.521 7.507 11.611-.076 1.454-.014.022.006.119-1.544 15.514h2.063l.248-1.253 7.488-11.583-7.47 10.437z" class="cls-2" transform="translate(-496.86 -276.394)"/>
    <path id="Path_5873" d="M874.649 142.758c0 29.381-17.467 39.64-39.013 39.64s-39.013-10.259-39.013-39.64S835.636 76 835.636 76s39.013 37.377 39.013 66.758z" class="cls-1" transform="translate(-629.245 -75.999)"/>
    <path id="Path_5874" d="M848.764 101.905l.4-24.59 16.628-30.421-16.566 26.564.18-11.057 11.46-22.009-11.413 19.084.323-19.886 12.272-17.522-12.221 14.4L850.029 0l-1.269 48.271.1-1.991-12.477-19.1 12.282 22.92-1.165 22.211-.035-.589-14.384-20.1 14.34 22.18-.145 2.777-.026.042.012.228-2.95 56.346h3.941l.473-29.1 14.3-22.126z" class="cls-2" transform="translate(-643.794)"/>
    <path id="Path_5875" d="M303.778 634.469c0 8.77-56.888 41.681-123.39 41.681s-120.413-17.033-120.413-25.8 52.588 1.65 119.09 1.65 124.713-26.3 124.713-17.531z" class="cls-2" transform="translate(-59.976 -506.193)"/>
    <path id="Path_5876" d="M303.778 634.469c0 8.77-56.888 41.681-123.39 41.681s-120.413-17.033-120.413-25.8 52.588 1.65 119.09 1.65 124.713-26.3 124.713-17.531z" class="cls-3" transform="translate(-59.976 -506.193)"/>
    <path id="Path_5877" d="M303.778 631.774c0 8.77-56.888 31.757-123.39 31.757s-120.412-7.109-120.412-15.878 52.587-8.27 119.09-8.27S303.778 623 303.778 631.774z" class="cls-2" transform="translate(-59.976 -503.498)"/>
    <ellipse id="Ellipse_948" cx="51.134" cy="3.955" class="cls-3" rx="51.134" ry="3.955" transform="translate(70.627 141.866)"/>
    <path id="Path_5878" d="M414.274 368.965s14.97.277 12.2 2.911-13.168 0-13.168 0z" class="cls-4" transform="translate(-333.022 -302.398)"/>
    <path id="Path_5879" d="M268.067 227.836s6.044-1.079 8.146 3.8 6.417 18.794 6.417 18.794 11.55 7.645 13.651 7.394 5.692.261 5.033 2.553-.366 4.891-1.883 5.209-3.929-2.722-5.775-1.257-18.3-3.885-19.354-4.993-9.834-25.108-9.834-25.108.353-6.47 3.599-6.392z" class="cls-5" transform="translate(-218.005 -193.258)"/>
    <path id="Path_5880" d="M248.622 605.607l.693 5.821-5.821 1.525-3.327-1.525V606.3z" class="cls-4" transform="translate(-185.597 -468.003)"/>
    <path id="Path_5881" d="M179.688 622.078l.693 5.822-5.821 1.525-3.327-1.525v-5.129z" class="cls-4" transform="translate(-132.326 -480.732)"/>
    <path id="Path_5882" d="M255.567 396.416l2.634 9.564 3.881 19.405a19.11 19.11 0 0 1-1.109 10.4c-2.218 5.683-6.237 24.257-5.406 25.365s-9.425 1.94-9.287.832 1.525-16.356 1.525-16.356 1.941-13.445 2.911-15.108-4.436-5.822-4.436-5.822-1.386 15.94-3.465 17.326-1.8 22.87-2.772 23.148-8.039 1.386-8.871 0 0-24.534 0-24.534 4.713-17.6 3.742-20.1-.416-13.168-.416-13.168-3.6-8.178-1.663-12.475z" class="cls-6" transform="translate(-191.988 -322.434)"/>
    <path id="Path_5883" d="M287.994 144.208s-5.822 7.208-5.544 10.4-9.148-5.822-9.148-5.822 6.792-9.148 6.792-11.089 7.9 6.511 7.9 6.511z" class="cls-4" transform="translate(-224.83 -123.452)"/>
    <circle id="Ellipse_949" cx="9.148" cy="9.148" r="9.148" class="cls-4" transform="translate(53.946 5.163)"/>
    <path id="Path_5884" d="M233.119 224.347a16.8 16.8 0 0 0-.855 4.77c.047.955 2.582 1.582 6.088 1.992 3.25.381 7.335.575 11.049.675 3.9.105 7.385.105 9.061.105 4.99 0 .97-3.188-.97-4.713s-1.525-23.148-1.386-25.92-1.248-10.812-1.248-12.336-3.261-5.5-3.261-5.5-.758 2.178-3.808-.733a16.206 16.206 0 0 0-7.069-3.742c-3.049 1.109-8.178 13.306-8.455 15.386-.112.844-.019 5.167.169 10.1.273 7.215.75 15.743 1.078 16.648a6.594 6.594 0 0 1-.393 3.268z" class="cls-5" transform="translate(-193.079 -155.55)"/>
    <path id="Path_5885" d="M227.716 338.413l.97 3.465-3.742 3.881-1.247-5.406z" class="cls-4" transform="translate(-172.869 -261.52)"/>
    <path id="Path_5886" d="M295.834 692.031s2.911 3.327 5.129 1.109 2.079-3.6 2.495-3.6 6.653 5.544 6.653 5.544 10.673 2.495 4.851 4.3-22.316.555-22.316 0-.416-7.9 1.109-7.9z" class="cls-6" transform="translate(-239.74 -550.131)"/>
    <path id="Path_5887" d="M226.9 708.5s2.911 3.327 5.129 1.109 2.079-3.6 2.495-3.6 6.653 5.544 6.653 5.544 10.673 2.495 4.851 4.3-22.316.555-22.316 0-.416-7.9 1.109-7.9z" class="cls-6" transform="translate(-186.469 -562.859)"/>
    <path id="Path_5888" d="M280.246 99.925c-.3.191-.68.384-.976.194a44.226 44.226 0 0 1-2.455-8.5 4.164 4.164 0 0 1 .251-3.026 7.432 7.432 0 0 0 .71-1 6.762 6.762 0 0 0 .167-1.841 3.644 3.644 0 0 1 2.614-2.621 34.419 34.419 0 0 0 3.72-1.142 28.286 28.286 0 0 0 3.023-2.126 3.89 3.89 0 0 1 3.487-.689c1.012.408 1.643 1.44 2.6 1.965a7.582 7.582 0 0 0 2.127.609 13.615 13.615 0 0 1 5.53 2.569 4.015 4.015 0 0 1 1.007 1.038c1.228 2.021-.97 4.769 0 6.926l-2.1-1.654a7.3 7.3 0 0 0-1.872-1.19 2.468 2.468 0 0 0-2.148.1c-.885.55-1.125 1.7-1.435 2.694s-.993 2.1-2.035 2.073c-1.417-.035-1.912-2.012-3.184-2.638a2.454 2.454 0 0 0-2.579.456 5.289 5.289 0 0 0-1.442 2.329 6.35 6.35 0 0 1-.722 1.628c-.381.52-.868.562-1.274.95a20.018 20.018 0 0 1-3.014 2.896z" class="cls-6" transform="translate(-227.423 -78.311)"/>
    <path id="Path_5889" d="M233.859 255.113a64.6 64.6 0 0 0 5.232 6.761c3.25.381 7.335.575 11.049.675a8.754 8.754 0 0 0-2.44-2.249c-1.8-1.109-6.1-14.277-6.1-14.277s5.267-13.584 6.653-18.712-4.02-8.039-4.02-8.039c-2.495-2.079-6.792 2.772-6.792 2.772s-2.193 6.614-4.266 13.153c.273 7.215.75 15.743 1.078 16.648a6.594 6.594 0 0 1-.394 3.268z" class="cls-3" transform="translate(-193.82 -186.316)"/>
    <path id="Path_5890" d="M230.035 214.39s5.406 2.911 4.02 8.039-6.653 18.712-6.653 18.712 4.3 13.168 6.1 14.277 4.3 3.742 2.356 5.129-3.327 3.6-4.713 2.911-1.386-4.574-3.742-4.574-11.92-14.415-12.059-15.94 7.9-25.781 7.9-25.781 4.296-4.852 6.791-2.773z" class="cls-5" transform="translate(-180.039 -182.545)"/>
    <path id="Path_5891" fill="#fa6c77" d="M506.89 372.756l-1.559-1.559a4.85 4.85 0 0 0-6.859 0l-30.246 30.246L437.98 371.2a4.85 4.85 0 0 0-6.859 0l-1.559 1.559a4.85 4.85 0 0 0 0 6.859l30.246 30.246-30.246 30.246a4.85 4.85 0 0 0 0 6.859l1.559 1.559a4.85 4.85 0 0 0 6.859 0l30.246-30.246 30.246 30.246a4.85 4.85 0 0 0 6.859 0l1.559-1.559a4.85 4.85 0 0 0 0-6.859l-30.246-30.246 30.246-30.246a4.85 4.85 0 0 0 0-6.862z" transform="translate(-344.488 -303.026)"/>
    <path id="Path_5892" d="M429.643 585.769l29.348-29.348-.283-.283-27.986 27.986a4.828 4.828 0 0 0-1.079 1.645z" class="cls-3" transform="translate(-345.648 -447.044)"/>
    <path id="Path_5893" d="M430.3 373.739a4.85 4.85 0 0 1 6.859 0l30.246 30.246 30.246-30.246a4.85 4.85 0 0 1 6.859 0l1.559 1.559a4.849 4.849 0 0 1 1.079 5.214l.9-.9a4.85 4.85 0 0 0 0-6.859l-1.559-1.559a4.85 4.85 0 0 0-6.859 0l-30.246 30.246-30.244-30.24a4.85 4.85 0 0 0-6.859 0l-1.559 1.559a4.829 4.829 0 0 0-1.079 1.644z" class="cls-3" transform="translate(-345.648 -303.025)"/>
    <path id="Path_5894" d="M635.163 547.436l-2.26 2.26 30.246 30.246a4.85 4.85 0 0 1 1.079 5.214l.9-.9a4.85 4.85 0 0 0 0-6.859z" class="cls-3" transform="translate(-502.725 -440.318)"/>
    <path id="Path_5895" d="M99.6 537.473c0 12.774-7.594 17.235-16.962 17.235s-16.962-4.46-16.962-17.235 16.962-29.026 16.962-29.026S99.6 524.7 99.6 537.473z" class="cls-1" transform="translate(-64.377 -410.188)"/>
    <path id="Path_5896" d="M54.616 466.063l7.23-13.226-7.2 11.549.078-4.807 4.976-9.569-4.962 8.3.14-8.646 5.335-7.618L54.9 448.3l.088-15.854-.528 20.088-5.4-8.27 5.338 9.965-.505 9.656-.015-.256-6.254-8.738 6.235 9.643-.063 1.208-.011.018.005.1-1.282 12.885h1.713l.206-1.041 6.219-9.62-6.2 8.669z" class="cls-2" transform="translate(-36.804 -334.189)"/>
</svg>
