<svg xmlns="http://www.w3.org/2000/svg" id="undraw_upload_image_iwej" width="100%" height="100%" viewBox="0 0 208.533 151.762">
    <defs>
        <style>
            .cls-1{fill:#2f2e41}.cls-2{fill:#3f3d56}.cls-3{opacity:.1}.cls-4{fill:#a0616a}.cls-5{fill:#6c63ff}.cls-7{fill:#009181}.cls-8{fill:none;stroke:#3f3d56;stroke-miterlimit:10}
        </style>
    </defs>
    <ellipse id="Ellipse_954" cx="11.343" cy="13.852" class="cls-1" rx="11.343" ry="13.852" transform="translate(29.013 40.747)"/>
    <path id="Path_5909" d="M308.063 756.33l-6.544.654s-2.181 3.926-6.108 3.926-2.618 4.363 3.054 3.927 11.78-1.963 12-2.4-.657-6.325-2.402-6.107z" class="cls-2" transform="translate(-277.196 -613.385)"/>
    <path id="Path_5910" d="M308.063 756.33l-6.544.654s-2.181 3.926-6.108 3.926-2.618 4.363 3.054 3.927 11.78-1.963 12-2.4-.657-6.325-2.402-6.107z" class="cls-3" transform="translate(-277.196 -613.385)"/>
    <path id="Path_5911" d="M317.936 522.712s7.417 1.091 10.253 4.581.872-13.306.872-13.306l-.872-7.635-5.89.436-4.8 9.816z" class="cls-2" transform="translate(-296.231 -417.941)"/>
    <path id="Path_5912" d="M317.936 522.712s7.417 1.091 10.253 4.581.872-13.306.872-13.306l-.872-7.635-5.89.436-4.8 9.816z" class="cls-3" transform="translate(-296.231 -417.941)"/>
    <path id="Path_5913" d="M420.492 346.155s3.49-9.6 0-9.816-3.054 9.38-3.054 9.38z" class="cls-4" transform="translate(-374.355 -285.012)"/>
    <path id="Path_5914" d="M5 131h7.088a.547.547 0 0 1 .547.547v3.053a.547.547 0 0 1-.547.547H5z" class="cls-5" transform="translate(-3.909 -102.033)"/>
    <path id="Path_5915" d="M.577 131h7.165a.547.547 0 0 1 .547.547v3.053a.547.547 0 0 1-.547.547H.577a.577.577 0 0 1-.577-.579v-2.99A.577.577 0 0 1 .577 131z" class="cls-1" transform="translate(0 -102.033)"/>
    <circle id="Ellipse_955" cx=".436" cy=".436" r=".436" class="cls-5" transform="translate(6.108 30.494)"/>
    <path id="Path_5916" d="M226.246 231.927s-5.453-10.471-5.89-5.453 2.836 9.162 2.836 9.162z" class="cls-4" transform="translate(-220.247 -198.052)"/>
    <path id="Path_5917" d="M378.147 371.441s4.8.308 5.233 2.925-3.49 10.689-3.49 10.689l-5.235-.436-.655-5.235z" class="cls-2" transform="translate(-340.407 -312.46)"/>
    <path id="Path_5918" d="M344.052 326.445s1.745 8.944-3.926 5.235 2.181 6.544 2.181 6.544 6.108 1.527 8.071-.436-2.945-2.29-.218-10.034c2.931-8.325-6.108-1.309-6.108-1.309z" class="cls-4" transform="translate(-312.313 -275.119)"/>
    <path id="Path_5919" d="M344.052 326.445s1.745 8.944-3.926 5.235 2.181 6.544 2.181 6.544 6.108 1.527 8.071-.436-2.945-2.29-.218-10.034c2.931-8.325-6.108-1.309-6.108-1.309z" class="cls-3" transform="translate(-312.313 -275.119)"/>
    <path id="Path_5920" d="M277 476.852s4.908 35.666 6.435 37.847 6.762 21.814 6.762 21.814l5.672-1.963a26.125 26.125 0 0 1-.218-7.2c.436-3.927-3.272-14.4-3.272-14.4l-5.453-32.285z" class="cls-1" transform="translate(-264.566 -394.877)"/>
    <path id="Path_5921" d="M277 476.852s4.908 35.666 6.435 37.847 6.762 21.814 6.762 21.814l5.672-1.963a26.125 26.125 0 0 1-.218-7.2c.436-3.927-3.272-14.4-3.272-14.4l-5.453-32.285z" class="cls-3" transform="translate(-264.566 -394.877)"/>
    <path id="Path_5922" d="M270.688 469.352l4.8 13.743s-10.034 18.106-1.745 24c0 0 9.6 10.471 10.471 19.633 0 0 5.017-.436 5.672-4.363 0 0-4.581-10.034-4.8-13.525s-5.235-7.635-5.235-7.635 9.6-15.488 11.78-18.106 2.4-12.652-3.054-12.652-17.889-1.095-17.889-1.095z" class="cls-1" transform="translate(-259.454 -389.012)"/>
    <path id="Path_5923" d="M328.761 712s-3.708 4.581-4.8 3.927c0 0-.873 9.38-2.836 12s4.145 2.4 6.326 0 6.326-11.561 6.326-12.652-3.707-3.925-5.016-3.275z" class="cls-2" transform="translate(-298.767 -578.657)"/>
    <circle id="Ellipse_956" cx="5.89" cy="5.89" r="5.89" class="cls-4" transform="translate(29.558 43.255)"/>
    <path id="Path_5924" fill="#f8af40" d="M300.063 354.442s.218 3.708 3.49 4.581a7.069 7.069 0 0 0 5.89-1.309l.873 1.745-2.836 6.98-5.235 17.015s-15.488 2.181-16.8-1.527 2.181-14.179 2.181-14.179l5.017-7.2 1.963-4.8 2.181-2.4z" transform="translate(-270.941 -298.317)"/>
    <path id="Path_5925" d="M254.125 345.151s-3.381-3.381-5.563-3.381a7.511 7.511 0 0 1-4.036-1.418 108.515 108.515 0 0 0-11.561 23.123c-4.363 12.652-10.471 16.579-7.417 19.633s7.853 2.4 9.816 5.672 1.963 2.836 3.272-2.181-.218-18.76 6.108-24.65 9.381-16.798 9.381-16.798z" class="cls-2" transform="translate(-223.694 -288.152)"/>
    <path id="Path_5926" d="M244.43 272.682s-8.726-7.853-9.816-11.125-5.235-9.38-6.108-8.507-5.672 2.836-4.581 4.363 3.708 3.49 5.235 8.944 12.216 12.434 12.216 12.434z" class="cls-2" transform="translate(-222.944 -219.828)"/>
    <path id="Path_5927" d="M364.815 371.352s-3.708.218-5.89 11.78-1.963 38.611 0 40.792c0 0 1.963 2.4 2.181-1.963s3.49-24.65 2.618-29.885 1.091-16.579 3.926-18.542-2.835-2.182-2.835-2.182z" class="cls-2" transform="translate(-327.404 -312.39)"/>
    <path id="Path_5928" d="M373.9 415.352s7.2 3.272 6.98 5.672-.436 7.2-9.38-.654z" class="cls-2" transform="translate(-338.452 -346.792)"/>
    <path id="Path_5929" d="M390.445 382.469s-3.054 7.2.872 8.507 5.017-6.108 5.017-6.108 3.054-8.289 2.836-10.034-4.581-1.963-5.017-.873-3.708 8.508-3.708 8.508z" class="cls-2" transform="translate(-352.379 -313.91)"/>
    <ellipse id="Ellipse_957" cx="2.618" cy="9.598" class="cls-1" rx="2.618" ry="9.598" transform="translate(37.738 45.546)"/>
    <ellipse id="Ellipse_958" cx="7.853" cy="3.817" class="cls-1" rx="7.853" ry="3.817" transform="translate(30.54 40.529)"/>
    <path id="Path_5930" d="M368.508 298.917c-4.337 0-7.853-1.709-7.853-3.817a2.641 2.641 0 0 1 1.195-2.023 3.077 3.077 0 0 0-1.849 2.46c0 2.108 3.516 3.817 7.853 3.817 2.807-.001 3.062-.437.654-.437z" class="cls-3" transform="translate(-329.461 -251.189)"/>
    <path id="Path_5931" d="M435.982 639.481a4.54 4.54 0 1 0 1.819-8.536l-.215 2.33-.814-2.138a4.523 4.523 0 0 0-2.666 2.205 4.457 4.457 0 0 0-.431 1.18 4.539 4.539 0 0 0 2.307 4.959z" class="cls-7" transform="translate(-386.985 -515.347)"/>
    <path id="Path_5932" d="M452.013 657.427c-.108-2.022 1.813-3.53 3.628-4.429s3.9-1.74 4.741-3.585c1.2-2.651-.855-5.525-2.426-7.975a27.33 27.33 0 0 1-2.818-5.809 7.376 7.376 0 0 1-.512-2.533 8.407 8.407 0 0 1 1.154-3.524q2.81-5.562 5.88-10.988" class="cls-8" transform="translate(-401.399 -505.691)"/>
    <path id="Path_5933" d="M437.217 636.87a4.54 4.54 0 1 0 1.819-8.536l-.215 2.33-.814-2.138a4.523 4.523 0 0 0-2.666 2.205 4.446 4.446 0 0 0-.431 1.179 4.539 4.539 0 0 0 2.307 4.96z" class="cls-8" transform="translate(-387.951 -513.306)"/>
    <path id="Path_5934" d="M473.7 603.35a4.535 4.535 0 0 1 3.639-2.393l.059 2.252 1.016-2.209a4.539 4.539 0 1 1-4.711 2.353z" class="cls-7" transform="translate(-417.945 -491.91)"/>
    <path id="Path_5935" d="M475.35 599.869a4.535 4.535 0 0 1 3.639-2.393l.059 2.252 1.013-2.213a4.54 4.54 0 1 1-4.711 2.354z" class="cls-8" transform="translate(-419.233 -489.188)"/>
    <path id="Path_5936" d="M466.992 692.4a4.539 4.539 0 0 0 5.11-7.433l-.779 1.7-.059-2.278-.011-.006a4.54 4.54 0 1 0-4.262 8.017z" class="cls-7" transform="translate(-411.229 -556.72)"/>
    <path id="Path_5937" d="M468.494 688.85a4.54 4.54 0 0 0 5.11-7.433l-.779 1.7-.059-2.278-.011-.006a4.54 4.54 0 0 0-4.262 8.017z" class="cls-8" transform="translate(-412.404 -553.945)"/>
    <path id="Path_5938" d="M449.321 737.419a4.538 4.538 0 1 0 1.364-3.4l1.576 3.3-2.51-1.987a4.5 4.5 0 0 0-.43 2.087z" class="cls-7" transform="translate(-399.295 -594.938)"/>
    <path id="Path_5939" d="M450.556 734.809a4.538 4.538 0 1 0 1.364-3.4l1.576 3.3-2.51-1.987a4.5 4.5 0 0 0-.43 2.087z" class="cls-8" transform="translate(-400.26 -592.897)"/>
    <path id="Line_176" d="M0 0L88.783 0" class="cls-8" transform="translate(.982 151.234)"/>
    <path id="Rectangle_2743" fill="#f2f2f2" d="M0 0H65.006V42.755H0z" transform="translate(76.022 25.15)"/>
    <path id="Rectangle_2744" d="M0 0H105.361V83.111H0z" class="cls-8" transform="translate(60.316 .5)"/>
    <path id="Line_177" d="M0 0L105.294 0" class="cls-8" transform="translate(60.168 5.294)"/>
    <circle id="Ellipse_959" cx="1.091" cy="1.091" r="1.091" fill="#f86b75" transform="translate(61.406 2.027)"/>
    <circle id="Ellipse_960" cx="1.091" cy="1.091" r="1.091" fill="#fad375" transform="translate(64.46 2.027)"/>
    <circle id="Ellipse_961" cx="1.091" cy="1.091" r="1.091" fill="#8bcc55" transform="translate(67.514 2.027)"/>
    <circle id="Ellipse_962" cx="1.091" cy="1.091" r="1.091" class="cls-8" transform="translate(61.843 1.373)"/>
    <circle id="Ellipse_963" cx="1.091" cy="1.091" r="1.091" class="cls-8" transform="translate(64.897 1.373)"/>
    <circle id="Ellipse_964" cx="1.091" cy="1.091" r="1.091" class="cls-8" transform="translate(67.95 1.373)"/>
    <path id="Rectangle_2745" d="M0 0H65.006V42.755H0z" class="cls-8" transform="translate(81.148 20.46)"/>
    <path id="Rectangle_2746" d="M0 0H11.998V3.272H0z" class="cls-5" transform="translate(133.065 72.595)"/>
    <path id="Rectangle_2747" d="M0 0H11.998V3.272H0z" class="cls-8" transform="translate(134.156 71.723)"/>
    <path id="Path_5940" d="M701.083 289.647l-5.019-5.173a1.141 1.141 0 0 0-.839-.337h-.015a1.141 1.141 0 0 0-.839.337l-5.019 5.173a1.107 1.107 0 0 0 0 1.618 1.239 1.239 0 0 0 1.693 0l2.974-3.109v8.016a1.2 1.2 0 0 0 2.4 0v-8.016l2.974 3.109a1.239 1.239 0 0 0 1.693 0 1.108 1.108 0 0 0 0-1.618z" class="cls-5" transform="translate(-586.693 -244.201)"/>
    <g id="Group_4140" transform="translate(118.768 27.061)">
        <ellipse id="Ellipse_966" cx="11.343" cy="13.852" class="cls-1" rx="11.343" ry="13.852" transform="translate(38.065 13.686)"/>
        <path id="Path_5957" d="M295.586 756.33l6.544.654s2.181 3.926 6.108 3.926 2.618 4.363-3.054 3.927-11.78-1.963-12-2.4.657-6.325 2.402-6.107z" class="cls-2" transform="translate(-236.689 -640.448)"/>
        <path id="Path_5958" d="M295.586 756.33l6.544.654s2.181 3.926 6.108 3.926 2.618 4.363-3.054 3.927-11.78-1.963-12-2.4.657-6.325 2.402-6.107z" class="cls-3" transform="translate(-236.689 -640.448)"/>
        <path id="Path_5950" d="M329.287 522.712s-7.417 1.091-10.253 4.581-.872-13.306-.872-13.306l.872-7.635 5.89.436 4.8 9.816z" class="cls-2" transform="translate(-261.228 -445.003)"/>
        <path id="Path_5951" d="M329.287 522.712s-7.417 1.091-10.253 4.581-.872-13.306-.872-13.306l.872-7.635 5.89.436 4.8 9.816z" class="cls-3" transform="translate(-261.228 -445.003)"/>
        <path id="Path_5943" d="M12.635 131H5.547a.547.547 0 0 0-.547.547v3.053a.547.547 0 0 0 .547.547h7.088z" class="cls-5" transform="translate(76.039 -129.094)"/>
        <path id="Path_5941" d="M7.712 131H.547a.547.547 0 0 0-.547.547v3.053a.547.547 0 0 0 .547.547h7.165a.577.577 0 0 0 .577-.577v-2.99a.577.577 0 0 0-.577-.58z" class="cls-1" transform="translate(81.475 -129.094)"/>
        <circle id="Ellipse_965" cx=".436" cy=".436" r=".436" class="cls-5" transform="translate(82.784 3.432)"/>
        <path id="Path_5942" d="M220.316 231.927s5.453-10.471 5.89-5.453-2.836 9.162-2.836 9.162z" class="cls-4" transform="translate(-136.551 -225.113)"/>
        <path id="Path_5960" d="M379.267 371.441s-4.8.308-5.233 2.925 3.49 10.689 3.49 10.689l5.235-.436.654-5.235z" class="cls-2" transform="translate(-327.243 -339.522)"/>
        <path id="Path_5952" d="M344.871 326.445s-1.745 8.944 3.926 5.235-2.181 6.544-2.181 6.544-6.108 1.527-8.071-.436 2.945-2.29.218-10.034c-2.931-8.325 6.108-1.309 6.108-1.309z" class="cls-4" transform="translate(-286.846 -302.18)"/>
        <path id="Path_5953" d="M344.871 326.445s-1.745 8.944 3.926 5.235-2.181 6.544-2.181 6.544-6.108 1.527-8.071-.436 2.945-2.29.218-10.034c-2.931-8.325 6.108-1.309 6.108-1.309z" class="cls-3" transform="translate(-286.846 -302.18)"/>
        <path id="Path_5948" d="M295.869 476.852s-4.908 35.666-6.435 37.847-6.762 21.814-6.762 21.814L277 534.549a26.127 26.127 0 0 0 .218-7.2c-.436-3.926 3.272-14.4 3.272-14.4l5.453-32.284z" class="cls-1" transform="translate(-218.539 -421.938)"/>
        <path id="Path_5949" d="M295.869 476.852s-4.908 35.666-6.435 37.847-6.762 21.814-6.762 21.814L277 534.549a26.127 26.127 0 0 0 .218-7.2c-.436-3.926 3.272-14.4 3.272-14.4l5.453-32.284z" class="cls-3" transform="translate(-218.539 -421.938)"/>
        <path id="Path_5947" d="M292.841 469.352l-4.8 13.743s10.034 18.106 1.745 24c0 0-9.6 10.471-10.471 19.632 0 0-5.017-.436-5.672-4.363 0 0 4.581-10.034 4.8-13.525s5.235-7.635 5.235-7.635-9.6-15.488-11.779-18.106-2.4-12.652 3.054-12.652 17.888-1.094 17.888-1.094z" class="cls-1" transform="translate(-214.311 -416.074)"/>
        <path id="Path_5954" d="M325.76 712s3.708 4.581 4.8 3.927c0 0 .873 9.38 2.836 12s-4.145 2.4-6.326 0-6.326-11.561-6.326-12.652 3.707-3.925 5.016-3.275z" class="cls-2" transform="translate(-265.99 -605.719)"/>
        <circle id="Ellipse_967" cx="5.89" cy="5.89" r="5.89" class="cls-4" transform="translate(48.427 16.194)"/>
        <path id="Path_5946" d="M295.406 354.442s-.218 3.708-3.49 4.581a7.069 7.069 0 0 1-5.89-1.309l-.873 1.745 2.836 6.98 5.235 17.015s15.488 2.181 16.8-1.527-2.181-14.179-2.181-14.179l-5.017-7.2-1.963-4.8-2.181-2.4z" class="cls-7" transform="translate(-234.764 -325.379)"/>
        <path id="Path_5945" d="M224.725 345.151s3.381-3.381 5.563-3.381a7.511 7.511 0 0 0 4.036-1.418 108.516 108.516 0 0 1 11.561 23.123c4.363 12.652 10.471 16.579 7.417 19.633s-7.853 2.4-9.816 5.672-1.963 2.836-3.272-2.181.218-18.76-6.108-24.65-9.381-16.798-9.381-16.798z" class="cls-2" transform="translate(-165.392 -315.214)"/>
        <path id="Path_5944" d="M223.765 272.682s8.726-7.853 9.816-11.125 5.235-9.38 6.108-8.507 5.672 2.836 4.581 4.363-3.708 3.49-5.235 8.944-12.216 12.434-12.216 12.434z" class="cls-2" transform="translate(-155.488 -246.889)"/>
        <path id="Path_5955" d="M361 371.352s3.708.218 5.89 11.779 1.963 38.611 0 40.792c0 0-1.963 2.4-2.181-1.963s-3.49-24.65-2.618-29.885-1.091-16.575-3.927-18.542 2.836-2.181 2.836-2.181z" class="cls-2" transform="translate(-308.647 -339.452)"/>
        <path id="Path_5959" d="M378.485 415.352s-7.2 3.272-6.98 5.672.436 7.2 9.38-.654z" class="cls-2" transform="translate(-324.169 -373.854)"/>
        <path id="Path_5961" d="M398.05 382.469s3.054 7.2-.872 8.507-5.017-6.108-5.017-6.108-3.054-8.289-2.836-10.034 4.581-1.963 5.017-.873 3.708 8.508 3.708 8.508z" class="cls-2" transform="translate(-346.351 -340.972)"/>
        <ellipse id="Ellipse_969" cx="2.618" cy="9.598" class="cls-1" rx="2.618" ry="9.598" transform="translate(46.791 18.485)"/>
        <ellipse id="Ellipse_968" cx="7.853" cy="3.817" class="cls-1" rx="7.853" ry="3.817" transform="translate(43.519 13.467)"/>
        <path id="Path_5956" d="M361.644 298.917c4.337 0 7.853-1.709 7.853-3.817a2.642 2.642 0 0 0-1.195-2.023 3.077 3.077 0 0 1 1.849 2.46c0 2.108-3.516 3.817-7.853 3.817-2.807-.001-3.063-.437-.654-.437z" class="cls-3" transform="translate(-310.927 -278.251)"/>
        <path id="Line_178" d="M88.783 0L0 0" class="cls-8" transform="translate(0 124.173)"/>
    </g>
</svg>
