<svg xmlns="http://www.w3.org/2000/svg" width="18" height="18" viewBox="0 0 18 18">
    <g>
        <g transform="translate(0 -.019) translate(6.477 4.997)">
            <path fill="none" stroke="#fff" stroke-linecap="round" stroke-miterlimit="10" stroke-width="1.5px" d="M160 85.989a2.225 2.225 0 0 1 .839-1.487 2.452 2.452 0 0 1 1.562-.514 2.714 2.714 0 0 1 1.137.2 2.016 2.016 0 0 1 1.263 1.8c0 1.142-.73 1.659-1.559 2.23a1.987 1.987 0 0 0-1.041 1.771" transform="translate(-160 -83.988)"/>
            <circle cx="1" cy="1" r="1" fill="#fff" transform="translate(1.523 8.021)"/>
        </g>
        <g fill="none" stroke="#fff" stroke-width="1.5px" transform="translate(0 -.019) translate(0 .019)">
            <circle cx="9" cy="9" r="9" stroke="none"/>
            <circle cx="9" cy="9" r="8.25"/>
        </g>
    </g>
</svg>
