<?xml version="1.0" encoding="UTF-8"?>
<svg xmlns="http://www.w3.org/2000/svg" xmlns:xlink="http://www.w3.org/1999/xlink" width="1024pt" height="1024pt" viewBox="0 0 1024 1024" version="1.1">
<g id="surface1">
<path style=" stroke:none;fill-rule:nonzero;fill:rgb(4.705882%,14.901961%,23.921569%);fill-opacity:1;" d="M 1024 512.007812 C 1024 794.777344 794.769531 1024.007812 512 1024.007812 C 229.230469 1024.007812 0 794.777344 0 512.007812 C 0 229.238281 229.230469 0.0078125 512 0.0078125 C 794.769531 0.0078125 1024 229.238281 1024 512.007812 "/>
<path style=" stroke:none;fill-rule:nonzero;fill:rgb(100%,100%,100%);fill-opacity:1;" d="M 681.605469 481.089844 L 555.796875 481.089844 L 480.960938 555.910156 L 681.605469 555.910156 C 664.546875 630.351562 599.289062 683.824219 522.945312 685.914062 C 446.605469 688.003906 378.515625 638.179688 357.410156 564.785156 C 336.304688 491.390625 367.527344 413.011719 433.320312 374.230469 C 499.109375 335.449219 582.804688 346.085938 636.800781 400.097656 L 663.75 373.121094 L 767.429688 269.433594 L 661.671875 269.433594 L 628.539062 302.601562 C 553.40625 264.363281 463.800781 267.894531 391.910156 311.933594 C 320.023438 355.96875 276.167969 434.1875 276.101562 518.492188 C 276.0625 556.769531 285.132812 594.503906 302.566406 628.578125 L 206.058594 725.039062 L 311.910156 725.039062 L 347.203125 689.742188 C 421.332031 763.863281 534.730469 781.878906 628.179688 734.382812 C 721.628906 686.886719 773.914062 584.660156 757.730469 481.089844 Z M 681.605469 481.089844 "/>
</g>
</svg>
